<?xml version="1.0" encoding="UTF-8" standalone="no"?>
<!DOCTYPE svg PUBLIC "-//W3C//DTD SVG 1.1//EN"
 "http://www.w3.org/Graphics/SVG/1.1/DTD/svg11.dtd">
<!-- Generated by graphviz version 2.44.1 (20200629.0800)
 -->
<!-- Title: D:/PathTracer/PathTracer/DoubleUnitVec3D.h Pages: 1 -->
<!--zoomable 709 -->
<svg id="main" version="1.1" xmlns="http://www.w3.org/2000/svg" xmlns:xlink="http://www.w3.org/1999/xlink" xml:space="preserve" onload="init(evt)">
<style type="text/css"><![CDATA[
.edge:hover path { stroke: red; }
.edge:hover polygon { stroke: red; fill: red; }
]]></style>
<script type="text/javascript"><![CDATA[
var edges = document.getElementsByTagName('g');
if (edges && edges.length) {
  for (var i=0;i<edges.length;i++) {
    if (edges[i].id.substr(0,4)=='edge') {
      edges[i].setAttribute('class','edge');
    }
  }
}
]]></script>
        <defs>
                <circle id="rim" cx="0" cy="0" r="7"/>
                <circle id="rim2" cx="0" cy="0" r="3.5"/>
                <g id="zoomPlus">
                        <use xlink:href="#rim" fill="#404040">
                                <set attributeName="fill" to="#808080" begin="zoomplus.mouseover" end="zoomplus.mouseout"/>
                        </use>
                        <path d="M-4,0h8M0,-4v8" fill="none" stroke="white" stroke-width="1.5" pointer-events="none"/>
                </g>
                <g id="zoomMin">
                        <use xlink:href="#rim" fill="#404040">
                                <set attributeName="fill" to="#808080" begin="zoomminus.mouseover" end="zoomminus.mouseout"/>
                        </use>
                        <path d="M-4,0h8" fill="none" stroke="white" stroke-width="1.5" pointer-events="none"/>
                </g>
                <g id="dirArrow">
                        <path fill="none" stroke="white" stroke-width="1.5" d="M0,-3.0v7 M-2.5,-0.5L0,-3.0L2.5,-0.5"/>
                </g>
               <g id="resetDef">
                       <use xlink:href="#rim2" fill="#404040">
                               <set attributeName="fill" to="#808080" begin="reset.mouseover" end="reset.mouseout"/>
                       </use>
               </g>
        </defs>

<script type="text/javascript">
var viewWidth = 1307;
var viewHeight = 709;
var sectionId = 'dynsection-1';
</script>
<script xlink:href="svgpan.js"/>
<svg id="graph" class="graph">
<g id="viewport">
<title>D:/PathTracer/PathTracer/DoubleUnitVec3D.h</title>
<polygon fill="white" stroke="transparent" points="-4,4 -4,-705 1303.05,-705 1303.05,4 -4,4"/>
<!-- Node1 -->
<g id="node1" class="node">
<title>Node1</title>
<g id="a_node1"><a xlink:title="Defines the DoubleUnitVec3D class and the functions around it.">
<polygon fill="#bfbfbf" stroke="black" points="166.07,-670.5 166.07,-700.5 293.07,-700.5 293.07,-670.5 166.07,-670.5"/>
<text text-anchor="start" x="174.07" y="-688.5" font-family="Helvetica,sans-Serif" font-size="10.00">D:/PathTracer/PathTracer</text>
<text text-anchor="middle" x="229.57" y="-677.5" font-family="Helvetica,sans-Serif" font-size="10.00">/DoubleUnitVec3D.h</text>
</a>
</g>
</g>
<!-- Node2 -->
<g id="node2" class="node">
<title>Node2</title>
<g id="a_node2"><a xlink:href="_diffuse_material_8h.html" target="_top" xlink:title="Defines the DiffuseMaterial class.">
<polygon fill="white" stroke="black" points="288.07,-469.5 288.07,-499.5 415.07,-499.5 415.07,-469.5 288.07,-469.5"/>
<text text-anchor="start" x="296.07" y="-487.5" font-family="Helvetica,sans-Serif" font-size="10.00">D:/PathTracer/PathTracer</text>
<text text-anchor="middle" x="351.57" y="-476.5" font-family="Helvetica,sans-Serif" font-size="10.00">/DiffuseMaterial.h</text>
</a>
</g>
</g>
<!-- Node1&#45;&gt;Node2 -->
<g id="edge1" class="edge">
<title>Node1&#45;&gt;Node2</title>
<path fill="none" stroke="midnightblue" d="M224.36,-660.15C219.03,-628.52 214.78,-572.99 240.57,-536 252.68,-518.63 272.27,-507.13 291.64,-499.56"/>
<polygon fill="midnightblue" stroke="midnightblue" points="220.97,-661.08 226.24,-670.27 227.85,-659.8 220.97,-661.08"/>
</g>
<!-- Node15 -->
<g id="node15" class="node">
<title>Node15</title>
<g id="a_node15"><a xlink:href="_object3_d_8h.html" target="_top" xlink:title="Defines the Object3D class and the functions around it.">
<polygon fill="white" stroke="black" points="575.07,-402.5 575.07,-432.5 702.07,-432.5 702.07,-402.5 575.07,-402.5"/>
<text text-anchor="start" x="583.07" y="-420.5" font-family="Helvetica,sans-Serif" font-size="10.00">D:/PathTracer/PathTracer</text>
<text text-anchor="middle" x="638.57" y="-409.5" font-family="Helvetica,sans-Serif" font-size="10.00">/Object3D.h</text>
</a>
</g>
</g>
<!-- Node1&#45;&gt;Node15 -->
<g id="edge41" class="edge">
<title>Node1&#45;&gt;Node15</title>
<path fill="none" stroke="midnightblue" d="M303.35,-680.21C391.13,-674.01 531.48,-660.28 576.57,-634 641.71,-596.04 656.14,-571.32 680.57,-500 685.04,-486.97 685.26,-481.96 680.57,-469 675.45,-454.84 664.45,-441.86 654.99,-432.6"/>
<polygon fill="midnightblue" stroke="midnightblue" points="302.92,-676.73 293.18,-680.91 303.4,-683.72 302.92,-676.73"/>
</g>
<!-- Node21 -->
<g id="node21" class="node">
<title>Node21</title>
<g id="a_node21"><a xlink:href="_sphere_8h.html" target="_top" xlink:title="Defines the Sphere class.">
<polygon fill="white" stroke="black" points="44.07,-335.5 44.07,-365.5 171.07,-365.5 171.07,-335.5 44.07,-335.5"/>
<text text-anchor="start" x="52.07" y="-353.5" font-family="Helvetica,sans-Serif" font-size="10.00">D:/PathTracer/PathTracer</text>
<text text-anchor="middle" x="107.57" y="-342.5" font-family="Helvetica,sans-Serif" font-size="10.00">/Sphere.h</text>
</a>
</g>
</g>
<!-- Node1&#45;&gt;Node21 -->
<g id="edge62" class="edge">
<title>Node1&#45;&gt;Node21</title>
<path fill="none" stroke="midnightblue" d="M177.69,-666.51C130.96,-646.61 69.57,-609.6 69.57,-552.5 69.57,-552.5 69.57,-552.5 69.57,-483.5 69.57,-439.14 89.63,-389.56 100.6,-365.76"/>
<polygon fill="midnightblue" stroke="midnightblue" points="176.54,-669.82 187.12,-670.38 179.19,-663.34 176.54,-669.82"/>
</g>
<!-- Node23 -->
<g id="node23" class="node">
<title>Node23</title>
<g id="a_node23"><a xlink:href="_triangle_8h.html" target="_top" xlink:title="Defines the Triangle class.">
<polygon fill="white" stroke="black" points="237.07,-335.5 237.07,-365.5 364.07,-365.5 364.07,-335.5 237.07,-335.5"/>
<text text-anchor="start" x="245.07" y="-353.5" font-family="Helvetica,sans-Serif" font-size="10.00">D:/PathTracer/PathTracer</text>
<text text-anchor="middle" x="300.57" y="-342.5" font-family="Helvetica,sans-Serif" font-size="10.00">/Triangle.h</text>
</a>
</g>
</g>
<!-- Node1&#45;&gt;Node23 -->
<g id="edge63" class="edge">
<title>Node1&#45;&gt;Node23</title>
<path fill="none" stroke="midnightblue" d="M222.04,-660.35C219.81,-652.08 217.68,-642.71 216.57,-634 207.36,-561.25 199.94,-540.42 216.57,-469 224.1,-436.67 230.18,-428.94 249.57,-402 259.33,-388.45 272.84,-375.25 283.51,-365.74"/>
<polygon fill="midnightblue" stroke="midnightblue" points="218.71,-661.45 224.83,-670.1 225.44,-659.53 218.71,-661.45"/>
</g>
<!-- Node25 -->
<g id="node25" class="node">
<title>Node25</title>
<g id="a_node25"><a xlink:href="_double_unit_vec3_d_8cpp.html" target="_top" xlink:title=" ">
<polygon fill="white" stroke="black" points="441.07,-603.5 441.07,-633.5 568.07,-633.5 568.07,-603.5 441.07,-603.5"/>
<text text-anchor="start" x="449.07" y="-621.5" font-family="Helvetica,sans-Serif" font-size="10.00">D:/PathTracer/PathTracer</text>
<text text-anchor="middle" x="504.57" y="-610.5" font-family="Helvetica,sans-Serif" font-size="10.00">/DoubleUnitVec3D.cpp</text>
</a>
</g>
</g>
<!-- Node1&#45;&gt;Node25 -->
<g id="edge40" class="edge">
<title>Node1&#45;&gt;Node25</title>
<path fill="none" stroke="midnightblue" d="M298.88,-668.12C343.88,-657.48 401.92,-643.76 444.87,-633.61"/>
<polygon fill="midnightblue" stroke="midnightblue" points="297.83,-664.77 288.9,-670.48 299.44,-671.58 297.83,-664.77"/>
</g>
<!-- Node26 -->
<g id="node26" class="node">
<title>Node26</title>
<g id="a_node26"><a xlink:href="_ray_8h.html" target="_top" xlink:title="Defines the Ray class.">
<polygon fill="white" stroke="black" points="296.07,-603.5 296.07,-633.5 423.07,-633.5 423.07,-603.5 296.07,-603.5"/>
<text text-anchor="start" x="304.07" y="-621.5" font-family="Helvetica,sans-Serif" font-size="10.00">D:/PathTracer/PathTracer</text>
<text text-anchor="middle" x="359.57" y="-610.5" font-family="Helvetica,sans-Serif" font-size="10.00">/Ray.h</text>
</a>
</g>
</g>
<!-- Node1&#45;&gt;Node26 -->
<g id="edge42" class="edge">
<title>Node1&#45;&gt;Node26</title>
<path fill="none" stroke="midnightblue" d="M266.87,-665.85C287.42,-655.58 312.52,-643.03 331.42,-633.58"/>
<polygon fill="midnightblue" stroke="midnightblue" points="265.16,-662.79 257.78,-670.4 268.29,-669.05 265.16,-662.79"/>
</g>
<!-- Node3 -->
<g id="node3" class="node">
<title>Node3</title>
<g id="a_node3"><a xlink:href="_diffuse_material_8cpp.html" target="_top" xlink:title=" ">
<polygon fill="white" stroke="black" points="288.07,-402.5 288.07,-432.5 415.07,-432.5 415.07,-402.5 288.07,-402.5"/>
<text text-anchor="start" x="296.07" y="-420.5" font-family="Helvetica,sans-Serif" font-size="10.00">D:/PathTracer/PathTracer</text>
<text text-anchor="middle" x="351.57" y="-409.5" font-family="Helvetica,sans-Serif" font-size="10.00">/DiffuseMaterial.cpp</text>
</a>
</g>
</g>
<!-- Node2&#45;&gt;Node3 -->
<g id="edge2" class="edge">
<title>Node2&#45;&gt;Node3</title>
<path fill="none" stroke="midnightblue" d="M351.57,-459.11C351.57,-450.15 351.57,-440.32 351.57,-432.58"/>
<polygon fill="midnightblue" stroke="midnightblue" points="348.07,-459.4 351.57,-469.4 355.07,-459.4 348.07,-459.4"/>
</g>
<!-- Node4 -->
<g id="node4" class="node">
<title>Node4</title>
<g id="a_node4"><a xlink:href="_interface_gestion_8h.html" target="_top" xlink:title="Defines functions that are used when drawing the interface.">
<polygon fill="white" stroke="black" points="605.07,-268.5 605.07,-298.5 732.07,-298.5 732.07,-268.5 605.07,-268.5"/>
<text text-anchor="start" x="613.07" y="-286.5" font-family="Helvetica,sans-Serif" font-size="10.00">D:/PathTracer/PathTracer</text>
<text text-anchor="middle" x="668.57" y="-275.5" font-family="Helvetica,sans-Serif" font-size="10.00">/InterfaceGestion.h</text>
</a>
</g>
</g>
<!-- Node2&#45;&gt;Node4 -->
<g id="edge3" class="edge">
<title>Node2&#45;&gt;Node4</title>
<path fill="none" stroke="midnightblue" d="M382.93,-463.81C446.73,-423.77 590.28,-333.65 645.93,-298.71"/>
<polygon fill="midnightblue" stroke="midnightblue" points="380.72,-461.07 374.12,-469.35 384.45,-467 380.72,-461.07"/>
</g>
<!-- Node11 -->
<g id="node11" class="node">
<title>Node11</title>
<g id="a_node11"><a xlink:href="_scene_8h.html" target="_top" xlink:title="Defines the Scene class and the functions around it.">
<polygon fill="white" stroke="black" points="513.07,-134.5 513.07,-164.5 640.07,-164.5 640.07,-134.5 513.07,-134.5"/>
<text text-anchor="start" x="521.07" y="-152.5" font-family="Helvetica,sans-Serif" font-size="10.00">D:/PathTracer/PathTracer</text>
<text text-anchor="middle" x="576.57" y="-141.5" font-family="Helvetica,sans-Serif" font-size="10.00">/Scene.h</text>
</a>
</g>
</g>
<!-- Node2&#45;&gt;Node11 -->
<g id="edge39" class="edge">
<title>Node2&#45;&gt;Node11</title>
<path fill="none" stroke="midnightblue" d="M318.38,-463.73C305.27,-455.13 290.52,-444.42 278.57,-433 222.16,-379.09 196.22,-342.76 218.57,-268 228.78,-233.87 232.67,-220.36 262.57,-201 302.89,-174.89 433.46,-160.95 512.97,-154.69"/>
<polygon fill="midnightblue" stroke="midnightblue" points="316.82,-466.89 327.13,-469.32 320.59,-460.99 316.82,-466.89"/>
</g>
<!-- Node2&#45;&gt;Node15 -->
<g id="edge18" class="edge">
<title>Node2&#45;&gt;Node15</title>
<path fill="none" stroke="midnightblue" d="M423.31,-467.25C470.35,-456.6 531.25,-442.81 576.27,-432.61"/>
<polygon fill="midnightblue" stroke="midnightblue" points="422.47,-463.85 413.49,-469.48 424.02,-470.68 422.47,-463.85"/>
</g>
<!-- Node5 -->
<g id="node5" class="node">
<title>Node5</title>
<g id="a_node5"><a xlink:href="_interface_8h.html" target="_top" xlink:title="Defines some functions for the interface.">
<polygon fill="white" stroke="black" points="900.07,-67.5 900.07,-97.5 1027.07,-97.5 1027.07,-67.5 900.07,-67.5"/>
<text text-anchor="start" x="908.07" y="-85.5" font-family="Helvetica,sans-Serif" font-size="10.00">D:/PathTracer/PathTracer</text>
<text text-anchor="middle" x="963.57" y="-74.5" font-family="Helvetica,sans-Serif" font-size="10.00">/Interface.h</text>
</a>
</g>
</g>
<!-- Node4&#45;&gt;Node5 -->
<g id="edge4" class="edge">
<title>Node4&#45;&gt;Node5</title>
<path fill="none" stroke="midnightblue" d="M742.58,-271.97C813.36,-261.26 911.28,-244.49 924.57,-232 962.84,-196.04 965.31,-127.49 964.41,-97.8"/>
<polygon fill="midnightblue" stroke="midnightblue" points="741.71,-268.56 732.34,-273.51 742.75,-275.49 741.71,-268.56"/>
</g>
<!-- Node8 -->
<g id="node8" class="node">
<title>Node8</title>
<g id="a_node8"><a xlink:href="_interface_gestion_8cpp.html" target="_top" xlink:title=" ">
<polygon fill="white" stroke="black" points="605.07,-201.5 605.07,-231.5 732.07,-231.5 732.07,-201.5 605.07,-201.5"/>
<text text-anchor="start" x="613.07" y="-219.5" font-family="Helvetica,sans-Serif" font-size="10.00">D:/PathTracer/PathTracer</text>
<text text-anchor="middle" x="668.57" y="-208.5" font-family="Helvetica,sans-Serif" font-size="10.00">/InterfaceGestion.cpp</text>
</a>
</g>
</g>
<!-- Node4&#45;&gt;Node8 -->
<g id="edge7" class="edge">
<title>Node4&#45;&gt;Node8</title>
<path fill="none" stroke="midnightblue" d="M668.57,-258.11C668.57,-249.15 668.57,-239.32 668.57,-231.58"/>
<polygon fill="midnightblue" stroke="midnightblue" points="665.07,-258.4 668.57,-268.4 672.07,-258.4 665.07,-258.4"/>
</g>
<!-- Node9 -->
<g id="node9" class="node">
<title>Node9</title>
<g id="a_node9"><a xlink:href="_object3_d_group_8h.html" target="_top" xlink:title="Defines the Object3DGroup class and the functions around it.">
<polygon fill="white" stroke="black" points="973.07,-201.5 973.07,-231.5 1100.07,-231.5 1100.07,-201.5 973.07,-201.5"/>
<text text-anchor="start" x="981.07" y="-219.5" font-family="Helvetica,sans-Serif" font-size="10.00">D:/PathTracer/PathTracer</text>
<text text-anchor="middle" x="1036.57" y="-208.5" font-family="Helvetica,sans-Serif" font-size="10.00">/Object3DGroup.h</text>
</a>
</g>
</g>
<!-- Node4&#45;&gt;Node9 -->
<g id="edge8" class="edge">
<title>Node4&#45;&gt;Node9</title>
<path fill="none" stroke="midnightblue" d="M742.17,-269.92C800.81,-259.84 884.99,-245.24 958.57,-232 963.18,-231.17 967.94,-230.31 972.73,-229.43"/>
<polygon fill="midnightblue" stroke="midnightblue" points="741.52,-266.48 732.25,-271.63 742.7,-273.38 741.52,-266.48"/>
</g>
<!-- Node4&#45;&gt;Node11 -->
<g id="edge17" class="edge">
<title>Node4&#45;&gt;Node11</title>
<path fill="none" stroke="midnightblue" d="M629.92,-263.28C617.26,-255.22 604.23,-244.73 595.57,-232 581.6,-211.46 577.82,-181.99 576.84,-164.69"/>
<polygon fill="midnightblue" stroke="midnightblue" points="628.19,-266.32 638.57,-268.46 631.79,-260.32 628.19,-266.32"/>
</g>
<!-- Node13 -->
<g id="node13" class="node">
<title>Node13</title>
<g id="a_node13"><a xlink:href="_picture_8h.html" target="_top" xlink:title="Defines the Picture class and the functions around it.">
<polygon fill="white" stroke="black" points="789.07,-201.5 789.07,-231.5 916.07,-231.5 916.07,-201.5 789.07,-201.5"/>
<text text-anchor="start" x="797.07" y="-219.5" font-family="Helvetica,sans-Serif" font-size="10.00">D:/PathTracer/PathTracer</text>
<text text-anchor="middle" x="852.57" y="-208.5" font-family="Helvetica,sans-Serif" font-size="10.00">/Picture.h</text>
</a>
</g>
</g>
<!-- Node4&#45;&gt;Node13 -->
<g id="edge14" class="edge">
<title>Node4&#45;&gt;Node13</title>
<path fill="none" stroke="midnightblue" d="M718.24,-264.96C747.88,-254.48 785.01,-241.37 812.72,-231.58"/>
<polygon fill="midnightblue" stroke="midnightblue" points="716.76,-261.76 708.5,-268.4 719.09,-268.37 716.76,-261.76"/>
</g>
<!-- Node6 -->
<g id="node6" class="node">
<title>Node6</title>
<g id="a_node6"><a xlink:href="_interface_8cpp.html" target="_top" xlink:title=" ">
<polygon fill="white" stroke="black" points="828.07,-0.5 828.07,-30.5 955.07,-30.5 955.07,-0.5 828.07,-0.5"/>
<text text-anchor="start" x="836.07" y="-18.5" font-family="Helvetica,sans-Serif" font-size="10.00">D:/PathTracer/PathTracer</text>
<text text-anchor="middle" x="891.57" y="-7.5" font-family="Helvetica,sans-Serif" font-size="10.00">/Interface.cpp</text>
</a>
</g>
</g>
<!-- Node5&#45;&gt;Node6 -->
<g id="edge5" class="edge">
<title>Node5&#45;&gt;Node6</title>
<path fill="none" stroke="midnightblue" d="M940.42,-60.6C929.55,-50.78 916.88,-39.34 907.16,-30.58"/>
<polygon fill="midnightblue" stroke="midnightblue" points="938.18,-63.29 947.95,-67.4 942.87,-58.1 938.18,-63.29"/>
</g>
<!-- Node7 -->
<g id="node7" class="node">
<title>Node7</title>
<g id="a_node7"><a xlink:href="main_8cpp.html" target="_top" xlink:title=" ">
<polygon fill="white" stroke="black" points="973.07,-0.5 973.07,-30.5 1100.07,-30.5 1100.07,-0.5 973.07,-0.5"/>
<text text-anchor="start" x="981.07" y="-18.5" font-family="Helvetica,sans-Serif" font-size="10.00">D:/PathTracer/PathTracer</text>
<text text-anchor="middle" x="1036.57" y="-7.5" font-family="Helvetica,sans-Serif" font-size="10.00">/main.cpp</text>
</a>
</g>
</g>
<!-- Node5&#45;&gt;Node7 -->
<g id="edge6" class="edge">
<title>Node5&#45;&gt;Node7</title>
<path fill="none" stroke="midnightblue" d="M987.05,-60.6C998.07,-50.78 1010.92,-39.34 1020.76,-30.58"/>
<polygon fill="midnightblue" stroke="midnightblue" points="984.55,-58.13 979.41,-67.4 989.21,-63.36 984.55,-58.13"/>
</g>
<!-- Node9&#45;&gt;Node5 -->
<g id="edge9" class="edge">
<title>Node9&#45;&gt;Node5</title>
<path fill="none" stroke="midnightblue" d="M1019.77,-193.01C1013.7,-184.45 1007.01,-174.48 1001.57,-165 988.51,-142.25 976.23,-114.26 969.33,-97.71"/>
<polygon fill="midnightblue" stroke="midnightblue" points="1017.1,-195.29 1025.79,-201.34 1022.77,-191.19 1017.1,-195.29"/>
</g>
<!-- Node10 -->
<g id="node10" class="node">
<title>Node10</title>
<g id="a_node10"><a xlink:href="_object3_d_group_8cpp.html" target="_top" xlink:title=" ">
<polygon fill="white" stroke="black" points="1011.07,-134.5 1011.07,-164.5 1138.07,-164.5 1138.07,-134.5 1011.07,-134.5"/>
<text text-anchor="start" x="1019.07" y="-152.5" font-family="Helvetica,sans-Serif" font-size="10.00">D:/PathTracer/PathTracer</text>
<text text-anchor="middle" x="1074.57" y="-141.5" font-family="Helvetica,sans-Serif" font-size="10.00">/Object3DGroup.cpp</text>
</a>
</g>
</g>
<!-- Node9&#45;&gt;Node10 -->
<g id="edge10" class="edge">
<title>Node9&#45;&gt;Node10</title>
<path fill="none" stroke="midnightblue" d="M1049.97,-192.58C1055.43,-183.24 1061.57,-172.75 1066.34,-164.58"/>
<polygon fill="midnightblue" stroke="midnightblue" points="1046.84,-191 1044.82,-201.4 1052.89,-194.53 1046.84,-191"/>
</g>
<!-- Node9&#45;&gt;Node11 -->
<g id="edge11" class="edge">
<title>Node9&#45;&gt;Node11</title>
<path fill="none" stroke="midnightblue" d="M962.56,-205.04C873.31,-192.43 724.78,-171.44 640.36,-159.51"/>
<polygon fill="midnightblue" stroke="midnightblue" points="962.22,-208.53 972.61,-206.46 963.2,-201.6 962.22,-208.53"/>
</g>
<!-- Node11&#45;&gt;Node5 -->
<g id="edge12" class="edge">
<title>Node11&#45;&gt;Node5</title>
<path fill="none" stroke="midnightblue" d="M650.41,-136.1C722.61,-123.97 831.4,-105.7 899.89,-94.2"/>
<polygon fill="midnightblue" stroke="midnightblue" points="649.76,-132.66 640.48,-137.77 650.92,-139.56 649.76,-132.66"/>
</g>
<!-- Node12 -->
<g id="node12" class="node">
<title>Node12</title>
<g id="a_node12"><a xlink:href="_scene_8cpp.html" target="_top" xlink:title=" ">
<polygon fill="white" stroke="black" points="513.07,-67.5 513.07,-97.5 640.07,-97.5 640.07,-67.5 513.07,-67.5"/>
<text text-anchor="start" x="521.07" y="-85.5" font-family="Helvetica,sans-Serif" font-size="10.00">D:/PathTracer/PathTracer</text>
<text text-anchor="middle" x="576.57" y="-74.5" font-family="Helvetica,sans-Serif" font-size="10.00">/Scene.cpp</text>
</a>
</g>
</g>
<!-- Node11&#45;&gt;Node12 -->
<g id="edge13" class="edge">
<title>Node11&#45;&gt;Node12</title>
<path fill="none" stroke="midnightblue" d="M576.57,-124.11C576.57,-115.15 576.57,-105.32 576.57,-97.58"/>
<polygon fill="midnightblue" stroke="midnightblue" points="573.07,-124.4 576.57,-134.4 580.07,-124.4 573.07,-124.4"/>
</g>
<!-- Node13&#45;&gt;Node11 -->
<g id="edge16" class="edge">
<title>Node13&#45;&gt;Node11</title>
<path fill="none" stroke="midnightblue" d="M783.01,-199.12C737.85,-188.48 679.6,-174.76 636.49,-164.61"/>
<polygon fill="midnightblue" stroke="midnightblue" points="782.49,-202.59 793.02,-201.48 784.09,-195.78 782.49,-202.59"/>
</g>
<!-- Node14 -->
<g id="node14" class="node">
<title>Node14</title>
<g id="a_node14"><a xlink:href="_picture_8cpp.html" target="_top" xlink:title=" ">
<polygon fill="white" stroke="black" points="789.07,-134.5 789.07,-164.5 916.07,-164.5 916.07,-134.5 789.07,-134.5"/>
<text text-anchor="start" x="797.07" y="-152.5" font-family="Helvetica,sans-Serif" font-size="10.00">D:/PathTracer/PathTracer</text>
<text text-anchor="middle" x="852.57" y="-141.5" font-family="Helvetica,sans-Serif" font-size="10.00">/Picture.cpp</text>
</a>
</g>
</g>
<!-- Node13&#45;&gt;Node14 -->
<g id="edge15" class="edge">
<title>Node13&#45;&gt;Node14</title>
<path fill="none" stroke="midnightblue" d="M852.57,-191.11C852.57,-182.15 852.57,-172.32 852.57,-164.58"/>
<polygon fill="midnightblue" stroke="midnightblue" points="849.07,-191.4 852.57,-201.4 856.07,-191.4 849.07,-191.4"/>
</g>
<!-- Node15&#45;&gt;Node4 -->
<g id="edge19" class="edge">
<title>Node15&#45;&gt;Node4</title>
<path fill="none" stroke="midnightblue" d="M632.63,-392.35C629.64,-375.84 627.74,-353.65 633.57,-335 637.84,-321.36 647.23,-308.16 655.21,-298.68"/>
<polygon fill="midnightblue" stroke="midnightblue" points="629.23,-393.2 634.69,-402.29 636.09,-391.79 629.23,-393.2"/>
</g>
<!-- Node15&#45;&gt;Node9 -->
<g id="edge21" class="edge">
<title>Node15&#45;&gt;Node9</title>
<path fill="none" stroke="midnightblue" d="M712.37,-409.56C784.69,-401.68 888.95,-387.12 923.57,-366 978.33,-332.59 1015.98,-262.03 1030.23,-231.77"/>
<polygon fill="midnightblue" stroke="midnightblue" points="711.96,-406.09 702.39,-410.63 712.7,-413.05 711.96,-406.09"/>
</g>
<!-- Node15&#45;&gt;Node11 -->
<g id="edge26" class="edge">
<title>Node15&#45;&gt;Node11</title>
<path fill="none" stroke="midnightblue" d="M628.05,-392.83C613.4,-358.31 587.72,-291.74 579.57,-232 576.38,-208.57 576.07,-181.03 576.25,-164.71"/>
<polygon fill="midnightblue" stroke="midnightblue" points="624.87,-394.28 632.04,-402.08 631.3,-391.51 624.87,-394.28"/>
</g>
<!-- Node16 -->
<g id="node16" class="node">
<title>Node16</title>
<g id="a_node16"><a xlink:href="_object3_d_8cpp.html" target="_top" xlink:title=" ">
<polygon fill="white" stroke="black" points="643.07,-335.5 643.07,-365.5 770.07,-365.5 770.07,-335.5 643.07,-335.5"/>
<text text-anchor="start" x="651.07" y="-353.5" font-family="Helvetica,sans-Serif" font-size="10.00">D:/PathTracer/PathTracer</text>
<text text-anchor="middle" x="706.57" y="-342.5" font-family="Helvetica,sans-Serif" font-size="10.00">/Object3D.cpp</text>
</a>
</g>
</g>
<!-- Node15&#45;&gt;Node16 -->
<g id="edge20" class="edge">
<title>Node15&#45;&gt;Node16</title>
<path fill="none" stroke="midnightblue" d="M660.74,-395.31C670.94,-385.56 682.76,-374.26 691.85,-365.58"/>
<polygon fill="midnightblue" stroke="midnightblue" points="658.14,-392.96 653.33,-402.4 662.97,-398.02 658.14,-392.96"/>
</g>
<!-- Node17 -->
<g id="node17" class="node">
<title>Node17</title>
<g id="a_node17"><a xlink:href="_refractive_material_8h.html" target="_top" xlink:title="Defines the RefractiveMaterial class.">
<polygon fill="white" stroke="black" points="788.07,-335.5 788.07,-365.5 915.07,-365.5 915.07,-335.5 788.07,-335.5"/>
<text text-anchor="start" x="796.07" y="-353.5" font-family="Helvetica,sans-Serif" font-size="10.00">D:/PathTracer/PathTracer</text>
<text text-anchor="middle" x="851.57" y="-342.5" font-family="Helvetica,sans-Serif" font-size="10.00">/RefractiveMaterial.h</text>
</a>
</g>
</g>
<!-- Node15&#45;&gt;Node17 -->
<g id="edge22" class="edge">
<title>Node15&#45;&gt;Node17</title>
<path fill="none" stroke="midnightblue" d="M694.46,-399.44C728.99,-388.91 772.76,-375.55 805.33,-365.61"/>
<polygon fill="midnightblue" stroke="midnightblue" points="693.07,-396.21 684.53,-402.48 695.11,-402.9 693.07,-396.21"/>
</g>
<!-- Node19 -->
<g id="node19" class="node">
<title>Node19</title>
<g id="a_node19"><a xlink:href="_specular_material_8h.html" target="_top" xlink:title="Defines the SpecularMaterial class.">
<polygon fill="white" stroke="black" points="383.07,-335.5 383.07,-365.5 510.07,-365.5 510.07,-335.5 383.07,-335.5"/>
<text text-anchor="start" x="391.07" y="-353.5" font-family="Helvetica,sans-Serif" font-size="10.00">D:/PathTracer/PathTracer</text>
<text text-anchor="middle" x="446.57" y="-342.5" font-family="Helvetica,sans-Serif" font-size="10.00">/SpecularMaterial.h</text>
</a>
</g>
</g>
<!-- Node15&#45;&gt;Node19 -->
<g id="edge27" class="edge">
<title>Node15&#45;&gt;Node19</title>
<path fill="none" stroke="midnightblue" d="M587.15,-399.09C556.16,-388.6 517.19,-375.41 488.15,-365.58"/>
<polygon fill="midnightblue" stroke="midnightblue" points="586.32,-402.5 596.91,-402.4 588.56,-395.87 586.32,-402.5"/>
</g>
<!-- Node15&#45;&gt;Node21 -->
<g id="edge31" class="edge">
<title>Node15&#45;&gt;Node21</title>
<path fill="none" stroke="midnightblue" d="M564.88,-407.48C460.16,-394.66 270.05,-371.39 171.17,-359.28"/>
<polygon fill="midnightblue" stroke="midnightblue" points="564.7,-410.98 575.05,-408.72 565.55,-404.03 564.7,-410.98"/>
</g>
<!-- Node15&#45;&gt;Node23 -->
<g id="edge35" class="edge">
<title>Node15&#45;&gt;Node23</title>
<path fill="none" stroke="midnightblue" d="M564.8,-402.6C511.62,-392.54 438.14,-378.56 373.57,-366 370.53,-365.41 367.41,-364.8 364.27,-364.18"/>
<polygon fill="midnightblue" stroke="midnightblue" points="564.35,-406.08 574.83,-404.5 565.65,-399.2 564.35,-406.08"/>
</g>
<!-- Node17&#45;&gt;Node4 -->
<g id="edge23" class="edge">
<title>Node17&#45;&gt;Node4</title>
<path fill="none" stroke="midnightblue" d="M802.18,-331.96C772.7,-321.48 735.76,-308.37 708.2,-298.58"/>
<polygon fill="midnightblue" stroke="midnightblue" points="801.27,-335.35 811.86,-335.4 803.61,-328.75 801.27,-335.35"/>
</g>
<!-- Node17&#45;&gt;Node11 -->
<g id="edge25" class="edge">
<title>Node17&#45;&gt;Node11</title>
<path fill="none" stroke="midnightblue" d="M815.38,-330.02C802.72,-321.79 789.27,-311.26 779.57,-299 750.5,-262.23 775.02,-232.8 740.57,-201 713.32,-175.84 673.78,-163.21 640.36,-156.87"/>
<polygon fill="midnightblue" stroke="midnightblue" points="813.61,-333.04 823.96,-335.33 817.3,-327.09 813.61,-333.04"/>
</g>
<!-- Node18 -->
<g id="node18" class="node">
<title>Node18</title>
<g id="a_node18"><a xlink:href="_refractive_material_8cpp.html" target="_top" xlink:title=" ">
<polygon fill="white" stroke="black" points="789.07,-268.5 789.07,-298.5 916.07,-298.5 916.07,-268.5 789.07,-268.5"/>
<text text-anchor="start" x="797.07" y="-286.5" font-family="Helvetica,sans-Serif" font-size="10.00">D:/PathTracer/PathTracer</text>
<text text-anchor="middle" x="852.57" y="-275.5" font-family="Helvetica,sans-Serif" font-size="10.00">/RefractiveMaterial.cpp</text>
</a>
</g>
</g>
<!-- Node17&#45;&gt;Node18 -->
<g id="edge24" class="edge">
<title>Node17&#45;&gt;Node18</title>
<path fill="none" stroke="midnightblue" d="M851.95,-325.11C852.09,-316.15 852.24,-306.32 852.36,-298.58"/>
<polygon fill="midnightblue" stroke="midnightblue" points="848.44,-325.34 851.79,-335.4 855.44,-325.45 848.44,-325.34"/>
</g>
<!-- Node19&#45;&gt;Node4 -->
<g id="edge28" class="edge">
<title>Node19&#45;&gt;Node4</title>
<path fill="none" stroke="midnightblue" d="M504.36,-332.58C540.42,-322.02 586.29,-308.59 620.38,-298.61"/>
<polygon fill="midnightblue" stroke="midnightblue" points="503.08,-329.31 494.47,-335.48 505.05,-336.02 503.08,-329.31"/>
</g>
<!-- Node19&#45;&gt;Node11 -->
<g id="edge29" class="edge">
<title>Node19&#45;&gt;Node11</title>
<path fill="none" stroke="midnightblue" d="M426.25,-327.34C413.6,-310.73 401.48,-287.58 411.57,-268 438.32,-216.11 499.76,-182.11 539.65,-164.62"/>
<polygon fill="midnightblue" stroke="midnightblue" points="423.77,-329.84 432.81,-335.38 429.2,-325.42 423.77,-329.84"/>
</g>
<!-- Node20 -->
<g id="node20" class="node">
<title>Node20</title>
<g id="a_node20"><a xlink:href="_specular_material_8cpp.html" target="_top" xlink:title=" ">
<polygon fill="white" stroke="black" points="421.07,-268.5 421.07,-298.5 548.07,-298.5 548.07,-268.5 421.07,-268.5"/>
<text text-anchor="start" x="429.07" y="-286.5" font-family="Helvetica,sans-Serif" font-size="10.00">D:/PathTracer/PathTracer</text>
<text text-anchor="middle" x="484.57" y="-275.5" font-family="Helvetica,sans-Serif" font-size="10.00">/SpecularMaterial.cpp</text>
</a>
</g>
</g>
<!-- Node19&#45;&gt;Node20 -->
<g id="edge30" class="edge">
<title>Node19&#45;&gt;Node20</title>
<path fill="none" stroke="midnightblue" d="M459.97,-326.58C465.43,-317.24 471.57,-306.75 476.34,-298.58"/>
<polygon fill="midnightblue" stroke="midnightblue" points="456.84,-325 454.82,-335.4 462.89,-328.53 456.84,-325"/>
</g>
<!-- Node21&#45;&gt;Node4 -->
<g id="edge32" class="edge">
<title>Node21&#45;&gt;Node4</title>
<path fill="none" stroke="midnightblue" d="M181.05,-340.49C196.42,-338.64 212.52,-336.73 227.57,-335 373.7,-318.18 410.52,-316.44 556.57,-299 572.24,-297.13 589.13,-295 604.93,-292.96"/>
<polygon fill="midnightblue" stroke="midnightblue" points="180.59,-337.02 171.08,-341.69 181.43,-343.97 180.59,-337.02"/>
</g>
<!-- Node21&#45;&gt;Node11 -->
<g id="edge33" class="edge">
<title>Node21&#45;&gt;Node11</title>
<path fill="none" stroke="midnightblue" d="M43.85,-331.18C28.75,-323.7 14.46,-313.32 5.57,-299 -1.69,-287.29 -1.94,-279.55 5.57,-268 60.54,-183.47 375.85,-159.34 512.94,-152.8"/>
<polygon fill="midnightblue" stroke="midnightblue" points="42.77,-334.54 53.32,-335.48 45.66,-328.16 42.77,-334.54"/>
</g>
<!-- Node22 -->
<g id="node22" class="node">
<title>Node22</title>
<g id="a_node22"><a xlink:href="_sphere_8cpp.html" target="_top" xlink:title=" ">
<polygon fill="white" stroke="black" points="15.07,-268.5 15.07,-298.5 142.07,-298.5 142.07,-268.5 15.07,-268.5"/>
<text text-anchor="start" x="23.07" y="-286.5" font-family="Helvetica,sans-Serif" font-size="10.00">D:/PathTracer/PathTracer</text>
<text text-anchor="middle" x="78.57" y="-275.5" font-family="Helvetica,sans-Serif" font-size="10.00">/Sphere.cpp</text>
</a>
</g>
</g>
<!-- Node21&#45;&gt;Node22 -->
<g id="edge34" class="edge">
<title>Node21&#45;&gt;Node22</title>
<path fill="none" stroke="midnightblue" d="M97.08,-325.99C92.98,-316.8 88.42,-306.58 84.85,-298.58"/>
<polygon fill="midnightblue" stroke="midnightblue" points="94.01,-327.69 101.28,-335.4 100.4,-324.84 94.01,-327.69"/>
</g>
<!-- Node23&#45;&gt;Node4 -->
<g id="edge36" class="edge">
<title>Node23&#45;&gt;Node4</title>
<path fill="none" stroke="midnightblue" d="M374.16,-334.92C459.93,-319.14 547.31,-304.42 604.9,-294.9"/>
<polygon fill="midnightblue" stroke="midnightblue" points="373.45,-331.49 364.25,-336.75 374.72,-338.37 373.45,-331.49"/>
</g>
<!-- Node23&#45;&gt;Node11 -->
<g id="edge37" class="edge">
<title>Node23&#45;&gt;Node11</title>
<path fill="none" stroke="midnightblue" d="M258.32,-330.08C246.16,-322.25 234.37,-311.96 227.57,-299 221.18,-286.8 219.53,-279.19 227.57,-268 292.67,-177.4 431.18,-155.72 512.77,-151.1"/>
<polygon fill="midnightblue" stroke="midnightblue" points="256.78,-333.23 267.16,-335.34 260.36,-327.22 256.78,-333.23"/>
</g>
<!-- Node24 -->
<g id="node24" class="node">
<title>Node24</title>
<g id="a_node24"><a xlink:href="_triangle_8cpp.html" target="_top" xlink:title=" ">
<polygon fill="white" stroke="black" points="237.07,-268.5 237.07,-298.5 364.07,-298.5 364.07,-268.5 237.07,-268.5"/>
<text text-anchor="start" x="245.07" y="-286.5" font-family="Helvetica,sans-Serif" font-size="10.00">D:/PathTracer/PathTracer</text>
<text text-anchor="middle" x="300.57" y="-275.5" font-family="Helvetica,sans-Serif" font-size="10.00">/Triangle.cpp</text>
</a>
</g>
</g>
<!-- Node23&#45;&gt;Node24 -->
<g id="edge38" class="edge">
<title>Node23&#45;&gt;Node24</title>
<path fill="none" stroke="midnightblue" d="M300.57,-325.11C300.57,-316.15 300.57,-306.32 300.57,-298.58"/>
<polygon fill="midnightblue" stroke="midnightblue" points="297.07,-325.4 300.57,-335.4 304.07,-325.4 297.07,-325.4"/>
</g>
<!-- Node26&#45;&gt;Node2 -->
<g id="edge43" class="edge">
<title>Node26&#45;&gt;Node2</title>
<path fill="none" stroke="midnightblue" d="M374.35,-594.47C378.88,-586.15 383.28,-576.47 385.57,-567 388.82,-553.61 389.59,-549.18 385.57,-536 381.44,-522.45 372.32,-509.25 364.56,-499.75"/>
<polygon fill="midnightblue" stroke="midnightblue" points="371.27,-592.8 369.27,-603.21 377.32,-596.32 371.27,-592.8"/>
</g>
<!-- Node26&#45;&gt;Node15 -->
<g id="edge53" class="edge">
<title>Node26&#45;&gt;Node15</title>
<path fill="none" stroke="midnightblue" d="M433.04,-601.28C488.42,-588.81 556.92,-572.77 569.57,-567 616.26,-545.72 640.07,-545.61 663.57,-500 675.03,-477.77 660.46,-449.37 649.24,-432.64"/>
<polygon fill="midnightblue" stroke="midnightblue" points="432.21,-597.88 423.22,-603.48 433.74,-604.71 432.21,-597.88"/>
</g>
<!-- Node26&#45;&gt;Node17 -->
<g id="edge59" class="edge">
<title>Node26&#45;&gt;Node17</title>
<path fill="none" stroke="midnightblue" d="M433.25,-602.75C515.81,-587.74 542.92,-599.66 616.57,-567 707.42,-526.71 726.74,-504.68 795.57,-433 815.79,-411.95 833.85,-382.92 843.7,-365.79"/>
<polygon fill="midnightblue" stroke="midnightblue" points="432.34,-599.36 423.17,-604.67 433.65,-606.24 432.34,-599.36"/>
</g>
<!-- Node26&#45;&gt;Node19 -->
<g id="edge60" class="edge">
<title>Node26&#45;&gt;Node19</title>
<path fill="none" stroke="midnightblue" d="M286.47,-601.78C268.49,-594.29 251.33,-583.26 240.57,-567 211.75,-523.45 203.49,-478.27 278.57,-402 293.42,-386.92 341.67,-373.32 382.68,-364.05"/>
<polygon fill="midnightblue" stroke="midnightblue" points="285.32,-605.09 295.91,-605.39 287.81,-598.55 285.32,-605.09"/>
</g>
<!-- Node26&#45;&gt;Node21 -->
<g id="edge61" class="edge">
<title>Node26&#45;&gt;Node21</title>
<path fill="none" stroke="midnightblue" d="M286.42,-601.69C263.74,-594.08 239.91,-582.99 221.57,-567 155.38,-509.28 121.6,-403.55 111.17,-365.56"/>
<polygon fill="midnightblue" stroke="midnightblue" points="285.46,-605.06 296.05,-604.75 287.58,-598.39 285.46,-605.06"/>
</g>
<!-- Node27 -->
<g id="node27" class="node">
<title>Node27</title>
<g id="a_node27"><a xlink:href="_material_8h.html" target="_top" xlink:title="Defines the Material class and the functions around it.">
<polygon fill="white" stroke="black" points="434.07,-536.5 434.07,-566.5 561.07,-566.5 561.07,-536.5 434.07,-536.5"/>
<text text-anchor="start" x="442.07" y="-554.5" font-family="Helvetica,sans-Serif" font-size="10.00">D:/PathTracer/PathTracer</text>
<text text-anchor="middle" x="497.57" y="-543.5" font-family="Helvetica,sans-Serif" font-size="10.00">/Material.h</text>
</a>
</g>
</g>
<!-- Node26&#45;&gt;Node27 -->
<g id="edge44" class="edge">
<title>Node26&#45;&gt;Node27</title>
<path fill="none" stroke="midnightblue" d="M398.57,-599.13C420.5,-588.8 447.45,-576.11 467.69,-566.58"/>
<polygon fill="midnightblue" stroke="midnightblue" points="397.07,-595.97 389.52,-603.4 400.05,-602.3 397.07,-595.97"/>
</g>
<!-- Node29 -->
<g id="node29" class="node">
<title>Node29</title>
<g id="a_node29"><a xlink:href="_perspective_camera_8h.html" target="_top" xlink:title="Defines the PerspectiveCamera class.">
<polygon fill="white" stroke="black" points="1137.07,-201.5 1137.07,-231.5 1264.07,-231.5 1264.07,-201.5 1137.07,-201.5"/>
<text text-anchor="start" x="1145.07" y="-219.5" font-family="Helvetica,sans-Serif" font-size="10.00">D:/PathTracer/PathTracer</text>
<text text-anchor="middle" x="1200.57" y="-208.5" font-family="Helvetica,sans-Serif" font-size="10.00">/PerspectiveCamera.h</text>
</a>
</g>
</g>
<!-- Node26&#45;&gt;Node29 -->
<g id="edge54" class="edge">
<title>Node26&#45;&gt;Node29</title>
<path fill="none" stroke="midnightblue" d="M433.35,-602.91C588.27,-580.64 1040.57,-620.23 1040.57,-485.5 1040.57,-485.5 1040.57,-485.5 1040.57,-349.5 1040.57,-288.46 1110.71,-250.38 1158.12,-231.62"/>
<polygon fill="midnightblue" stroke="midnightblue" points="432.47,-599.5 423.15,-604.54 433.57,-606.41 432.47,-599.5"/>
</g>
<!-- Node31 -->
<g id="node31" class="node">
<title>Node31</title>
<g id="a_node31"><a xlink:href="_ray_8cpp.html" target="_top" xlink:title=" ">
<polygon fill="white" stroke="black" points="250.07,-536.5 250.07,-566.5 377.07,-566.5 377.07,-536.5 250.07,-536.5"/>
<text text-anchor="start" x="258.07" y="-554.5" font-family="Helvetica,sans-Serif" font-size="10.00">D:/PathTracer/PathTracer</text>
<text text-anchor="middle" x="313.57" y="-543.5" font-family="Helvetica,sans-Serif" font-size="10.00">/Ray.cpp</text>
</a>
</g>
</g>
<!-- Node26&#45;&gt;Node31 -->
<g id="edge58" class="edge">
<title>Node26&#45;&gt;Node31</title>
<path fill="none" stroke="midnightblue" d="M343.76,-595.16C337.05,-585.68 329.44,-574.92 323.53,-566.58"/>
<polygon fill="midnightblue" stroke="midnightblue" points="340.96,-597.26 349.59,-603.4 346.67,-593.21 340.96,-597.26"/>
</g>
<!-- Node27&#45;&gt;Node2 -->
<g id="edge45" class="edge">
<title>Node27&#45;&gt;Node2</title>
<path fill="none" stroke="midnightblue" d="M456.62,-532.27C433.37,-521.92 404.7,-509.15 383.19,-499.58"/>
<polygon fill="midnightblue" stroke="midnightblue" points="455.33,-535.53 465.89,-536.4 458.18,-529.13 455.33,-535.53"/>
</g>
<!-- Node27&#45;&gt;Node4 -->
<g id="edge46" class="edge">
<title>Node27&#45;&gt;Node4</title>
<path fill="none" stroke="midnightblue" d="M571.42,-544.48C673.41,-531.61 852.81,-491.37 923.57,-366 930.34,-354 932.32,-345.65 923.57,-335 911.43,-320.22 803.58,-302.87 732.08,-292.84"/>
<polygon fill="midnightblue" stroke="midnightblue" points="570.7,-541.04 561.19,-545.71 571.54,-547.99 570.7,-541.04"/>
</g>
<!-- Node27&#45;&gt;Node15 -->
<g id="edge48" class="edge">
<title>Node27&#45;&gt;Node15</title>
<path fill="none" stroke="midnightblue" d="M571.14,-543.42C599.14,-536.72 628.4,-524 645.57,-500 659.78,-480.13 651.74,-450.17 644.93,-432.65"/>
<polygon fill="midnightblue" stroke="midnightblue" points="570.34,-540.01 561.31,-545.54 571.82,-546.85 570.34,-540.01"/>
</g>
<!-- Node27&#45;&gt;Node17 -->
<g id="edge49" class="edge">
<title>Node27&#45;&gt;Node17</title>
<path fill="none" stroke="midnightblue" d="M571.12,-534.46C600.81,-526.38 634.79,-515.05 663.57,-500 735.81,-462.21 807.64,-395.24 837.34,-365.92"/>
<polygon fill="midnightblue" stroke="midnightblue" points="570,-531.13 561.22,-537.07 571.79,-537.9 570,-531.13"/>
</g>
<!-- Node27&#45;&gt;Node19 -->
<g id="edge50" class="edge">
<title>Node27&#45;&gt;Node19</title>
<path fill="none" stroke="midnightblue" d="M491.36,-526.27C480.6,-484.29 458.83,-399.33 450.21,-365.68"/>
<polygon fill="midnightblue" stroke="midnightblue" points="488.03,-527.37 493.9,-536.19 494.81,-525.63 488.03,-527.37"/>
</g>
<!-- Node27&#45;&gt;Node21 -->
<g id="edge51" class="edge">
<title>Node27&#45;&gt;Node21</title>
<path fill="none" stroke="midnightblue" d="M423.84,-542.62C379.84,-535.74 323.9,-523.07 278.57,-500 209.54,-464.86 145.49,-395.86 119.63,-365.93"/>
<polygon fill="midnightblue" stroke="midnightblue" points="423.49,-546.11 433.9,-544.12 424.52,-539.18 423.49,-546.11"/>
</g>
<!-- Node27&#45;&gt;Node23 -->
<g id="edge52" class="edge">
<title>Node27&#45;&gt;Node23</title>
<path fill="none" stroke="midnightblue" d="M486.45,-527.11C467.04,-486.46 428.59,-406.67 423.57,-402 405.31,-385.02 380.57,-373.38 358.06,-365.6"/>
<polygon fill="midnightblue" stroke="midnightblue" points="483.37,-528.78 490.83,-536.3 489.68,-525.76 483.37,-528.78"/>
</g>
<!-- Node28 -->
<g id="node28" class="node">
<title>Node28</title>
<g id="a_node28"><a xlink:href="_material_8cpp.html" target="_top" xlink:title=" ">
<polygon fill="white" stroke="black" points="510.07,-469.5 510.07,-499.5 637.07,-499.5 637.07,-469.5 510.07,-469.5"/>
<text text-anchor="start" x="518.07" y="-487.5" font-family="Helvetica,sans-Serif" font-size="10.00">D:/PathTracer/PathTracer</text>
<text text-anchor="middle" x="573.57" y="-476.5" font-family="Helvetica,sans-Serif" font-size="10.00">/Material.cpp</text>
</a>
</g>
</g>
<!-- Node27&#45;&gt;Node28 -->
<g id="edge47" class="edge">
<title>Node27&#45;&gt;Node28</title>
<path fill="none" stroke="midnightblue" d="M521.68,-529.88C533.23,-520.01 546.76,-508.43 557.11,-499.58"/>
<polygon fill="midnightblue" stroke="midnightblue" points="519.39,-527.24 514.06,-536.4 523.94,-532.56 519.39,-527.24"/>
</g>
<!-- Node29&#45;&gt;Node5 -->
<g id="edge55" class="edge">
<title>Node29&#45;&gt;Node5</title>
<path fill="none" stroke="midnightblue" d="M1246.63,-197.13C1279.01,-181.57 1313.19,-158.02 1292.57,-134 1259.08,-94.97 1113.1,-85.8 1027.26,-83.84"/>
<polygon fill="midnightblue" stroke="midnightblue" points="1244.76,-194.14 1237.14,-201.5 1247.69,-200.49 1244.76,-194.14"/>
</g>
<!-- Node29&#45;&gt;Node11 -->
<g id="edge57" class="edge">
<title>Node29&#45;&gt;Node11</title>
<path fill="none" stroke="midnightblue" d="M1127.06,-203.38C1121.15,-202.53 1115.27,-201.72 1109.57,-201 940.6,-179.55 740.43,-162.94 640.3,-155.22"/>
<polygon fill="midnightblue" stroke="midnightblue" points="1126.6,-206.85 1137,-204.84 1127.62,-199.92 1126.6,-206.85"/>
</g>
<!-- Node30 -->
<g id="node30" class="node">
<title>Node30</title>
<g id="a_node30"><a xlink:href="_perspective_camera_8cpp.html" target="_top" xlink:title=" ">
<polygon fill="white" stroke="black" points="1156.07,-134.5 1156.07,-164.5 1283.07,-164.5 1283.07,-134.5 1156.07,-134.5"/>
<text text-anchor="start" x="1164.07" y="-152.5" font-family="Helvetica,sans-Serif" font-size="10.00">D:/PathTracer/PathTracer</text>
<text text-anchor="middle" x="1219.57" y="-141.5" font-family="Helvetica,sans-Serif" font-size="10.00">/PerspectiveCamera.cpp</text>
</a>
</g>
</g>
<!-- Node29&#45;&gt;Node30 -->
<g id="edge56" class="edge">
<title>Node29&#45;&gt;Node30</title>
<path fill="none" stroke="midnightblue" d="M1207.53,-191.7C1210.19,-182.59 1213.14,-172.49 1215.46,-164.58"/>
<polygon fill="midnightblue" stroke="midnightblue" points="1204.14,-190.82 1204.69,-201.4 1210.86,-192.78 1204.14,-190.82"/>
</g>
</g>
</svg>
        <g id="navigator" transform="translate(0 0)" fill="#404254">
                <rect fill="#f2f5e9" fill-opacity="0.5" stroke="#606060" stroke-width=".5" x="0" y="0" width="60" height="60"/>
                <use id="zoomplus" xlink:href="#zoomPlus" x="17" y="9" onmousedown="handleZoom(evt,'in')"/>
                <use id="zoomminus" xlink:href="#zoomMin" x="42" y="9" onmousedown="handleZoom(evt,'out')"/>
                <use id="reset" xlink:href="#resetDef" x="30" y="36" onmousedown="handleReset()"/>
                <g id="arrowUp" xlink:href="#dirArrow" transform="translate(30 24)" onmousedown="handlePan(0,-1)">
                  <use xlink:href="#rim" fill="#404040">
                        <set attributeName="fill" to="#808080" begin="arrowUp.mouseover" end="arrowUp.mouseout"/>
                  </use>
                  <path fill="none" stroke="white" stroke-width="1.5" d="M0,-3.0v7 M-2.5,-0.5L0,-3.0L2.5,-0.5"/>
                </g>
                <g id="arrowRight" xlink:href="#dirArrow" transform="rotate(90) translate(36 -43)" onmousedown="handlePan(1,0)">
                  <use xlink:href="#rim" fill="#404040">
                        <set attributeName="fill" to="#808080" begin="arrowRight.mouseover" end="arrowRight.mouseout"/>
                  </use>
                  <path fill="none" stroke="white" stroke-width="1.5" d="M0,-3.0v7 M-2.5,-0.5L0,-3.0L2.5,-0.5"/>
                </g>
                <g id="arrowDown" xlink:href="#dirArrow" transform="rotate(180) translate(-30 -48)" onmousedown="handlePan(0,1)">
                  <use xlink:href="#rim" fill="#404040">
                        <set attributeName="fill" to="#808080" begin="arrowDown.mouseover" end="arrowDown.mouseout"/>
                  </use>
                  <path fill="none" stroke="white" stroke-width="1.5" d="M0,-3.0v7 M-2.5,-0.5L0,-3.0L2.5,-0.5"/>
                </g>
                <g id="arrowLeft" xlink:href="#dirArrow" transform="rotate(270) translate(-36 17)" onmousedown="handlePan(-1,0)">
                  <use xlink:href="#rim" fill="#404040">
                        <set attributeName="fill" to="#808080" begin="arrowLeft.mouseover" end="arrowLeft.mouseout"/>
                  </use>
                  <path fill="none" stroke="white" stroke-width="1.5" d="M0,-3.0v7 M-2.5,-0.5L0,-3.0L2.5,-0.5"/>
                </g>
        </g>
        <svg viewBox="0 0 15 15" width="100%" height="30px" preserveAspectRatio="xMaxYMin meet">
         <g id="arrow_out" transform="scale(0.3 0.3)">
          <a xlink:href="_double_unit_vec3_d_8h__dep__incl_org.svg" target="_base">
           <rect id="button" ry="5" rx="5" y="6" x="6" height="38" width="38"
                fill="#f2f5e9" fill-opacity="0.5" stroke="#606060" stroke-width="1.0"/>
           <path id="arrow"
             d="M 11.500037,31.436501 C 11.940474,20.09759 22.043105,11.32322 32.158766,21.979434 L 37.068811,17.246167 C 37.068811,17.246167 37.088388,32 37.088388,32 L 22.160133,31.978069 C 22.160133,31.978069 26.997745,27.140456 26.997745,27.140456 C 18.528582,18.264221 13.291696,25.230495 11.500037,31.436501 z"
             style="fill:#404040;"/>
          </a>
         </g>
        </svg>
</svg>
