<?xml version="1.0" encoding="UTF-8" standalone="no"?>
<!DOCTYPE svg PUBLIC "-//W3C//DTD SVG 1.1//EN"
 "http://www.w3.org/Graphics/SVG/1.1/DTD/svg11.dtd">
<!-- Generated by graphviz version 2.44.1 (20200629.0800)
 -->
<!-- Title: D:/PathTracer/PathTracer/InterfaceGestion.h Pages: 1 -->
<svg width="589pt" height="307pt"
 viewBox="0.00 0.00 589.00 307.00" xmlns="http://www.w3.org/2000/svg" xmlns:xlink="http://www.w3.org/1999/xlink">
<g id="graph0" class="graph" transform="scale(1 1) rotate(0) translate(4 303)">
<title>D:/PathTracer/PathTracer/InterfaceGestion.h</title>
<polygon fill="white" stroke="transparent" points="-4,4 -4,-303 585,-303 585,4 -4,4"/>
<!-- Node1 -->
<g id="node1" class="node">
<title>Node1</title>
<g id="a_node1"><a xlink:title="Defines functions that are used when drawing the interface.">
<polygon fill="#bfbfbf" stroke="black" points="217,-268.5 217,-298.5 344,-298.5 344,-268.5 217,-268.5"/>
<text text-anchor="start" x="225" y="-286.5" font-family="Helvetica,sans-Serif" font-size="10.00">D:/PathTracer/PathTracer</text>
<text text-anchor="middle" x="280.5" y="-275.5" font-family="Helvetica,sans-Serif" font-size="10.00">/InterfaceGestion.h</text>
</a>
</g>
</g>
<!-- Node2 -->
<g id="node2" class="node">
<title>Node2</title>
<g id="a_node2"><a xlink:href="_interface_8h.html" target="_top" xlink:title="Defines some functions for the interface.">
<polygon fill="white" stroke="black" points="72,-67.5 72,-97.5 199,-97.5 199,-67.5 72,-67.5"/>
<text text-anchor="start" x="80" y="-85.5" font-family="Helvetica,sans-Serif" font-size="10.00">D:/PathTracer/PathTracer</text>
<text text-anchor="middle" x="135.5" y="-74.5" font-family="Helvetica,sans-Serif" font-size="10.00">/Interface.h</text>
</a>
</g>
</g>
<!-- Node1&#45;&gt;Node2 -->
<g id="edge1" class="edge">
<title>Node1&#45;&gt;Node2</title>
<path fill="none" stroke="midnightblue" d="M207.05,-275.22C151,-267.97 80.46,-254.59 62.5,-232 27.82,-188.37 87.63,-125.59 118.63,-97.73"/>
<polygon fill="midnightblue" stroke="midnightblue" points="206.61,-278.69 216.97,-276.46 207.48,-271.75 206.61,-278.69"/>
</g>
<!-- Node5 -->
<g id="node5" class="node">
<title>Node5</title>
<g id="a_node5"><a xlink:href="_interface_gestion_8cpp.html" target="_top" xlink:title=" ">
<polygon fill="white" stroke="black" points="72,-201.5 72,-231.5 199,-231.5 199,-201.5 72,-201.5"/>
<text text-anchor="start" x="80" y="-219.5" font-family="Helvetica,sans-Serif" font-size="10.00">D:/PathTracer/PathTracer</text>
<text text-anchor="middle" x="135.5" y="-208.5" font-family="Helvetica,sans-Serif" font-size="10.00">/InterfaceGestion.cpp</text>
</a>
</g>
</g>
<!-- Node1&#45;&gt;Node5 -->
<g id="edge4" class="edge">
<title>Node1&#45;&gt;Node5</title>
<path fill="none" stroke="midnightblue" d="M239.83,-264.27C216.74,-253.92 188.26,-241.15 166.9,-231.58"/>
<polygon fill="midnightblue" stroke="midnightblue" points="238.48,-267.5 249.04,-268.4 241.34,-261.11 238.48,-267.5"/>
</g>
<!-- Node6 -->
<g id="node6" class="node">
<title>Node6</title>
<g id="a_node6"><a xlink:href="_object3_d_group_8h.html" target="_top" xlink:title="Defines the Object3DGroup class and the functions around it.">
<polygon fill="white" stroke="black" points="217,-201.5 217,-231.5 344,-231.5 344,-201.5 217,-201.5"/>
<text text-anchor="start" x="225" y="-219.5" font-family="Helvetica,sans-Serif" font-size="10.00">D:/PathTracer/PathTracer</text>
<text text-anchor="middle" x="280.5" y="-208.5" font-family="Helvetica,sans-Serif" font-size="10.00">/Object3DGroup.h</text>
</a>
</g>
</g>
<!-- Node1&#45;&gt;Node6 -->
<g id="edge5" class="edge">
<title>Node1&#45;&gt;Node6</title>
<path fill="none" stroke="midnightblue" d="M280.5,-258.11C280.5,-249.15 280.5,-239.32 280.5,-231.58"/>
<polygon fill="midnightblue" stroke="midnightblue" points="277,-258.4 280.5,-268.4 284,-258.4 277,-258.4"/>
</g>
<!-- Node8 -->
<g id="node8" class="node">
<title>Node8</title>
<g id="a_node8"><a xlink:href="_scene_8h.html" target="_top" xlink:title="Defines the Scene class and the functions around it.">
<polygon fill="white" stroke="black" points="309,-134.5 309,-164.5 436,-164.5 436,-134.5 309,-134.5"/>
<text text-anchor="start" x="317" y="-152.5" font-family="Helvetica,sans-Serif" font-size="10.00">D:/PathTracer/PathTracer</text>
<text text-anchor="middle" x="372.5" y="-141.5" font-family="Helvetica,sans-Serif" font-size="10.00">/Scene.h</text>
</a>
</g>
</g>
<!-- Node1&#45;&gt;Node8 -->
<g id="edge14" class="edge">
<title>Node1&#45;&gt;Node8</title>
<path fill="none" stroke="midnightblue" d="M319.15,-263.28C331.81,-255.22 344.84,-244.73 353.5,-232 367.47,-211.46 371.26,-181.99 372.23,-164.69"/>
<polygon fill="midnightblue" stroke="midnightblue" points="317.28,-260.32 310.51,-268.46 320.88,-266.32 317.28,-260.32"/>
</g>
<!-- Node10 -->
<g id="node10" class="node">
<title>Node10</title>
<g id="a_node10"><a xlink:href="_picture_8h.html" target="_top" xlink:title="Defines the Picture class and the functions around it.">
<polygon fill="white" stroke="black" points="401,-201.5 401,-231.5 528,-231.5 528,-201.5 401,-201.5"/>
<text text-anchor="start" x="409" y="-219.5" font-family="Helvetica,sans-Serif" font-size="10.00">D:/PathTracer/PathTracer</text>
<text text-anchor="middle" x="464.5" y="-208.5" font-family="Helvetica,sans-Serif" font-size="10.00">/Picture.h</text>
</a>
</g>
</g>
<!-- Node1&#45;&gt;Node10 -->
<g id="edge11" class="edge">
<title>Node1&#45;&gt;Node10</title>
<path fill="none" stroke="midnightblue" d="M330.17,-264.96C359.8,-254.48 396.94,-241.37 424.65,-231.58"/>
<polygon fill="midnightblue" stroke="midnightblue" points="328.69,-261.76 320.43,-268.4 331.02,-268.37 328.69,-261.76"/>
</g>
<!-- Node3 -->
<g id="node3" class="node">
<title>Node3</title>
<g id="a_node3"><a xlink:href="_interface_8cpp.html" target="_top" xlink:title=" ">
<polygon fill="white" stroke="black" points="0,-0.5 0,-30.5 127,-30.5 127,-0.5 0,-0.5"/>
<text text-anchor="start" x="8" y="-18.5" font-family="Helvetica,sans-Serif" font-size="10.00">D:/PathTracer/PathTracer</text>
<text text-anchor="middle" x="63.5" y="-7.5" font-family="Helvetica,sans-Serif" font-size="10.00">/Interface.cpp</text>
</a>
</g>
</g>
<!-- Node2&#45;&gt;Node3 -->
<g id="edge2" class="edge">
<title>Node2&#45;&gt;Node3</title>
<path fill="none" stroke="midnightblue" d="M112.35,-60.6C101.48,-50.78 88.8,-39.34 79.09,-30.58"/>
<polygon fill="midnightblue" stroke="midnightblue" points="110.11,-63.29 119.88,-67.4 114.8,-58.1 110.11,-63.29"/>
</g>
<!-- Node4 -->
<g id="node4" class="node">
<title>Node4</title>
<g id="a_node4"><a xlink:href="main_8cpp.html" target="_top" xlink:title=" ">
<polygon fill="white" stroke="black" points="145,-0.5 145,-30.5 272,-30.5 272,-0.5 145,-0.5"/>
<text text-anchor="start" x="153" y="-18.5" font-family="Helvetica,sans-Serif" font-size="10.00">D:/PathTracer/PathTracer</text>
<text text-anchor="middle" x="208.5" y="-7.5" font-family="Helvetica,sans-Serif" font-size="10.00">/main.cpp</text>
</a>
</g>
</g>
<!-- Node2&#45;&gt;Node4 -->
<g id="edge3" class="edge">
<title>Node2&#45;&gt;Node4</title>
<path fill="none" stroke="midnightblue" d="M158.97,-60.6C170,-50.78 182.84,-39.34 192.69,-30.58"/>
<polygon fill="midnightblue" stroke="midnightblue" points="156.48,-58.13 151.34,-67.4 161.14,-63.36 156.48,-58.13"/>
</g>
<!-- Node6&#45;&gt;Node2 -->
<g id="edge6" class="edge">
<title>Node6&#45;&gt;Node2</title>
<path fill="none" stroke="midnightblue" d="M207.28,-199.48C187.72,-191.96 168.22,-180.98 154.5,-165 138.13,-145.93 135.21,-115.41 135.03,-97.63"/>
<polygon fill="midnightblue" stroke="midnightblue" points="206.28,-202.84 216.87,-202.9 208.63,-196.24 206.28,-202.84"/>
</g>
<!-- Node7 -->
<g id="node7" class="node">
<title>Node7</title>
<g id="a_node7"><a xlink:href="_object3_d_group_8cpp.html" target="_top" xlink:title=" ">
<polygon fill="white" stroke="black" points="164,-134.5 164,-164.5 291,-164.5 291,-134.5 164,-134.5"/>
<text text-anchor="start" x="172" y="-152.5" font-family="Helvetica,sans-Serif" font-size="10.00">D:/PathTracer/PathTracer</text>
<text text-anchor="middle" x="227.5" y="-141.5" font-family="Helvetica,sans-Serif" font-size="10.00">/Object3DGroup.cpp</text>
</a>
</g>
</g>
<!-- Node6&#45;&gt;Node7 -->
<g id="edge7" class="edge">
<title>Node6&#45;&gt;Node7</title>
<path fill="none" stroke="midnightblue" d="M262.52,-193.45C254.73,-183.9 245.85,-173 238.98,-164.58"/>
<polygon fill="midnightblue" stroke="midnightblue" points="259.97,-195.86 269,-201.4 265.39,-191.43 259.97,-195.86"/>
</g>
<!-- Node6&#45;&gt;Node8 -->
<g id="edge8" class="edge">
<title>Node6&#45;&gt;Node8</title>
<path fill="none" stroke="midnightblue" d="M308.88,-195.45C323.03,-185.45 339.81,-173.6 352.58,-164.58"/>
<polygon fill="midnightblue" stroke="midnightblue" points="306.61,-192.77 300.46,-201.4 310.65,-198.48 306.61,-192.77"/>
</g>
<!-- Node8&#45;&gt;Node2 -->
<g id="edge9" class="edge">
<title>Node8&#45;&gt;Node2</title>
<path fill="none" stroke="midnightblue" d="M311.3,-131.71C272.73,-121.14 223.5,-107.63 186.95,-97.61"/>
<polygon fill="midnightblue" stroke="midnightblue" points="310.8,-135.21 321.37,-134.48 312.65,-128.46 310.8,-135.21"/>
</g>
<!-- Node9 -->
<g id="node9" class="node">
<title>Node9</title>
<g id="a_node9"><a xlink:href="_scene_8cpp.html" target="_top" xlink:title=" ">
<polygon fill="white" stroke="black" points="309,-67.5 309,-97.5 436,-97.5 436,-67.5 309,-67.5"/>
<text text-anchor="start" x="317" y="-85.5" font-family="Helvetica,sans-Serif" font-size="10.00">D:/PathTracer/PathTracer</text>
<text text-anchor="middle" x="372.5" y="-74.5" font-family="Helvetica,sans-Serif" font-size="10.00">/Scene.cpp</text>
</a>
</g>
</g>
<!-- Node8&#45;&gt;Node9 -->
<g id="edge10" class="edge">
<title>Node8&#45;&gt;Node9</title>
<path fill="none" stroke="midnightblue" d="M372.5,-124.11C372.5,-115.15 372.5,-105.32 372.5,-97.58"/>
<polygon fill="midnightblue" stroke="midnightblue" points="369,-124.4 372.5,-134.4 376,-124.4 369,-124.4"/>
</g>
<!-- Node10&#45;&gt;Node8 -->
<g id="edge13" class="edge">
<title>Node10&#45;&gt;Node8</title>
<path fill="none" stroke="midnightblue" d="M436.12,-195.45C421.97,-185.45 405.19,-173.6 392.42,-164.58"/>
<polygon fill="midnightblue" stroke="midnightblue" points="434.35,-198.48 444.54,-201.4 438.39,-192.77 434.35,-198.48"/>
</g>
<!-- Node11 -->
<g id="node11" class="node">
<title>Node11</title>
<g id="a_node11"><a xlink:href="_picture_8cpp.html" target="_top" xlink:title=" ">
<polygon fill="white" stroke="black" points="454,-134.5 454,-164.5 581,-164.5 581,-134.5 454,-134.5"/>
<text text-anchor="start" x="462" y="-152.5" font-family="Helvetica,sans-Serif" font-size="10.00">D:/PathTracer/PathTracer</text>
<text text-anchor="middle" x="517.5" y="-141.5" font-family="Helvetica,sans-Serif" font-size="10.00">/Picture.cpp</text>
</a>
</g>
</g>
<!-- Node10&#45;&gt;Node11 -->
<g id="edge12" class="edge">
<title>Node10&#45;&gt;Node11</title>
<path fill="none" stroke="midnightblue" d="M482.48,-193.45C490.27,-183.9 499.15,-173 506.02,-164.58"/>
<polygon fill="midnightblue" stroke="midnightblue" points="479.61,-191.43 476,-201.4 485.03,-195.86 479.61,-191.43"/>
</g>
</g>
</svg>
