<?xml version="1.0" encoding="UTF-8" standalone="no"?>
<!DOCTYPE svg PUBLIC "-//W3C//DTD SVG 1.1//EN"
 "http://www.w3.org/Graphics/SVG/1.1/DTD/svg11.dtd">
<!-- Generated by graphviz version 2.44.1 (20200629.0800)
 -->
<!-- Title: D:/PathTracer/PathTracer/Material.cpp Pages: 1 -->
<svg width="316pt" height="319pt"
 viewBox="0.00 0.00 315.50 319.00" xmlns="http://www.w3.org/2000/svg" xmlns:xlink="http://www.w3.org/1999/xlink">
<g id="graph0" class="graph" transform="scale(1 1) rotate(0) translate(4 315)">
<title>D:/PathTracer/PathTracer/Material.cpp</title>
<polygon fill="white" stroke="transparent" points="-4,4 -4,-315 311.5,-315 311.5,4 -4,4"/>
<!-- Node1 -->
<g id="node1" class="node">
<title>Node1</title>
<g id="a_node1"><a xlink:title=" ">
<polygon fill="#bfbfbf" stroke="black" points="63.5,-280.5 63.5,-310.5 190.5,-310.5 190.5,-280.5 63.5,-280.5"/>
<text text-anchor="start" x="71.5" y="-298.5" font-family="Helvetica,sans-Serif" font-size="10.00">D:/PathTracer/PathTracer</text>
<text text-anchor="middle" x="127" y="-287.5" font-family="Helvetica,sans-Serif" font-size="10.00">/Material.cpp</text>
</a>
</g>
</g>
<!-- Node2 -->
<g id="node2" class="node">
<title>Node2</title>
<g id="a_node2"><a xlink:href="_material_8h.html" target="_top" xlink:title="Defines the Material class and the functions around it.">
<polygon fill="white" stroke="black" points="97.5,-224.5 97.5,-243.5 156.5,-243.5 156.5,-224.5 97.5,-224.5"/>
<text text-anchor="middle" x="127" y="-231.5" font-family="Helvetica,sans-Serif" font-size="10.00">Material.h</text>
</a>
</g>
</g>
<!-- Node1&#45;&gt;Node2 -->
<g id="edge1" class="edge">
<title>Node1&#45;&gt;Node2</title>
<path fill="none" stroke="midnightblue" d="M127,-280.4C127,-272.47 127,-262.46 127,-253.86"/>
<polygon fill="midnightblue" stroke="midnightblue" points="130.5,-253.66 127,-243.66 123.5,-253.66 130.5,-253.66"/>
</g>
<!-- Node3 -->
<g id="node3" class="node">
<title>Node3</title>
<g id="a_node3"><a xlink:href="_double_vec3_d_8h.html" target="_top" xlink:title="Defines the DoubleVec3D class and the functions around it.">
<polygon fill="white" stroke="black" points="99,-56.5 99,-75.5 183,-75.5 183,-56.5 99,-56.5"/>
<text text-anchor="middle" x="141" y="-63.5" font-family="Helvetica,sans-Serif" font-size="10.00">DoubleVec3D.h</text>
</a>
</g>
</g>
<!-- Node2&#45;&gt;Node3 -->
<g id="edge2" class="edge">
<title>Node2&#45;&gt;Node3</title>
<path fill="none" stroke="midnightblue" d="M125.76,-224.4C124.52,-215.36 122.7,-200.71 122,-188 119.97,-151.34 129.32,-109.09 135.62,-85.47"/>
<polygon fill="midnightblue" stroke="midnightblue" points="139.02,-86.31 138.33,-75.74 132.28,-84.44 139.02,-86.31"/>
</g>
<!-- Node8 -->
<g id="node8" class="node">
<title>Node8</title>
<g id="a_node8"><a xlink:href="_ray_8h.html" target="_top" xlink:title="Defines the Ray class.">
<polygon fill="white" stroke="black" points="131,-168.5 131,-187.5 173,-187.5 173,-168.5 131,-168.5"/>
<text text-anchor="middle" x="152" y="-175.5" font-family="Helvetica,sans-Serif" font-size="10.00">Ray.h</text>
</a>
</g>
</g>
<!-- Node2&#45;&gt;Node8 -->
<g id="edge7" class="edge">
<title>Node2&#45;&gt;Node8</title>
<path fill="none" stroke="midnightblue" d="M131.13,-224.08C134.51,-216.77 139.42,-206.18 143.62,-197.1"/>
<polygon fill="midnightblue" stroke="midnightblue" points="146.92,-198.3 147.95,-187.75 140.57,-195.36 146.92,-198.3"/>
</g>
<!-- Node4 -->
<g id="node4" class="node">
<title>Node4</title>
<g id="a_node4"><a xlink:title=" ">
<polygon fill="white" stroke="#bfbfbf" points="0,-0.5 0,-19.5 54,-19.5 54,-0.5 0,-0.5"/>
<text text-anchor="middle" x="27" y="-7.5" font-family="Helvetica,sans-Serif" font-size="10.00">iostream</text>
</a>
</g>
</g>
<!-- Node3&#45;&gt;Node4 -->
<g id="edge3" class="edge">
<title>Node3&#45;&gt;Node4</title>
<path fill="none" stroke="midnightblue" d="M122.94,-56.44C104.43,-47.68 75.42,-33.94 54.14,-23.86"/>
<polygon fill="midnightblue" stroke="midnightblue" points="55.51,-20.63 44.98,-19.52 52.52,-26.96 55.51,-20.63"/>
</g>
<!-- Node5 -->
<g id="node5" class="node">
<title>Node5</title>
<g id="a_node5"><a xlink:title=" ">
<polygon fill="white" stroke="#bfbfbf" points="72.5,-0.5 72.5,-19.5 119.5,-19.5 119.5,-0.5 72.5,-0.5"/>
<text text-anchor="middle" x="96" y="-7.5" font-family="Helvetica,sans-Serif" font-size="10.00">math.h</text>
</a>
</g>
</g>
<!-- Node3&#45;&gt;Node5 -->
<g id="edge4" class="edge">
<title>Node3&#45;&gt;Node5</title>
<path fill="none" stroke="midnightblue" d="M133.57,-56.08C127.15,-48.38 117.69,-37.03 109.88,-27.65"/>
<polygon fill="midnightblue" stroke="midnightblue" points="112.38,-25.19 103.29,-19.75 107.01,-29.67 112.38,-25.19"/>
</g>
<!-- Node6 -->
<g id="node6" class="node">
<title>Node6</title>
<g id="a_node6"><a xlink:title=" ">
<polygon fill="white" stroke="#bfbfbf" points="138,-0.5 138,-19.5 236,-19.5 236,-0.5 138,-0.5"/>
<text text-anchor="middle" x="187" y="-7.5" font-family="Helvetica,sans-Serif" font-size="10.00">nlohmann/json.hpp</text>
</a>
</g>
</g>
<!-- Node3&#45;&gt;Node6 -->
<g id="edge5" class="edge">
<title>Node3&#45;&gt;Node6</title>
<path fill="none" stroke="midnightblue" d="M148.6,-56.08C155.23,-48.3 165.02,-36.8 173.06,-27.37"/>
<polygon fill="midnightblue" stroke="midnightblue" points="175.73,-29.63 179.55,-19.75 170.4,-25.09 175.73,-29.63"/>
</g>
<!-- Node7 -->
<g id="node7" class="node">
<title>Node7</title>
<g id="a_node7"><a xlink:title=" ">
<polygon fill="white" stroke="#bfbfbf" points="254.5,-0.5 254.5,-19.5 307.5,-19.5 307.5,-0.5 254.5,-0.5"/>
<text text-anchor="middle" x="281" y="-7.5" font-family="Helvetica,sans-Serif" font-size="10.00">fbxsdk.h</text>
</a>
</g>
</g>
<!-- Node3&#45;&gt;Node7 -->
<g id="edge6" class="edge">
<title>Node3&#45;&gt;Node7</title>
<path fill="none" stroke="midnightblue" d="M163.18,-56.44C186.43,-47.48 223.15,-33.31 249.42,-23.18"/>
<polygon fill="midnightblue" stroke="midnightblue" points="250.85,-26.38 258.92,-19.52 248.33,-19.85 250.85,-26.38"/>
</g>
<!-- Node8&#45;&gt;Node3 -->
<g id="edge8" class="edge">
<title>Node8&#45;&gt;Node3</title>
<path fill="none" stroke="midnightblue" d="M151.14,-168.37C149.36,-150.62 145.27,-109.67 142.86,-85.6"/>
<polygon fill="midnightblue" stroke="midnightblue" points="146.34,-85.19 141.86,-75.59 139.37,-85.89 146.34,-85.19"/>
</g>
<!-- Node9 -->
<g id="node9" class="node">
<title>Node9</title>
<g id="a_node9"><a xlink:href="_double_unit_vec3_d_8h.html" target="_top" xlink:title="Defines the DoubleUnitVec3D class and the functions around it.">
<polygon fill="white" stroke="black" points="169.5,-112.5 169.5,-131.5 270.5,-131.5 270.5,-112.5 169.5,-112.5"/>
<text text-anchor="middle" x="220" y="-119.5" font-family="Helvetica,sans-Serif" font-size="10.00">DoubleUnitVec3D.h</text>
</a>
</g>
</g>
<!-- Node8&#45;&gt;Node9 -->
<g id="edge9" class="edge">
<title>Node8&#45;&gt;Node9</title>
<path fill="none" stroke="midnightblue" d="M162.93,-168.32C173.17,-160.18 188.72,-147.84 201,-138.09"/>
<polygon fill="midnightblue" stroke="midnightblue" points="203.22,-140.79 208.88,-131.83 198.87,-135.31 203.22,-140.79"/>
</g>
<!-- Node9&#45;&gt;Node3 -->
<g id="edge10" class="edge">
<title>Node9&#45;&gt;Node3</title>
<path fill="none" stroke="midnightblue" d="M207.31,-112.32C195.1,-103.98 176.42,-91.21 162,-81.35"/>
<polygon fill="midnightblue" stroke="midnightblue" points="163.89,-78.41 153.66,-75.65 159.94,-84.19 163.89,-78.41"/>
</g>
</g>
</svg>
