<?xml version="1.0" encoding="UTF-8" standalone="no"?>
<!DOCTYPE svg PUBLIC "-//W3C//DTD SVG 1.1//EN"
 "http://www.w3.org/Graphics/SVG/1.1/DTD/svg11.dtd">
<!-- Generated by graphviz version 2.44.1 (20200629.0800)
 -->
<!-- Title: D:/PathTracer/PathTracer/Material.h Pages: 1 -->
<svg width="1206pt" height="575pt"
 viewBox="0.00 0.00 1206.00 575.00" xmlns="http://www.w3.org/2000/svg" xmlns:xlink="http://www.w3.org/1999/xlink">
<g id="graph0" class="graph" transform="scale(1 1) rotate(0) translate(4 571)">
<title>D:/PathTracer/PathTracer/Material.h</title>
<polygon fill="white" stroke="transparent" points="-4,4 -4,-571 1202,-571 1202,4 -4,4"/>
<!-- Node1 -->
<g id="node1" class="node">
<title>Node1</title>
<g id="a_node1"><a xlink:title="Defines the Material class and the functions around it.">
<polygon fill="#bfbfbf" stroke="black" points="592,-536.5 592,-566.5 719,-566.5 719,-536.5 592,-536.5"/>
<text text-anchor="start" x="600" y="-554.5" font-family="Helvetica,sans-Serif" font-size="10.00">D:/PathTracer/PathTracer</text>
<text text-anchor="middle" x="655.5" y="-543.5" font-family="Helvetica,sans-Serif" font-size="10.00">/Material.h</text>
</a>
</g>
</g>
<!-- Node2 -->
<g id="node2" class="node">
<title>Node2</title>
<g id="a_node2"><a xlink:href="_diffuse_material_8h.html" target="_top" xlink:title="Defines the DiffuseMaterial class.">
<polygon fill="white" stroke="black" points="431,-469.5 431,-499.5 558,-499.5 558,-469.5 431,-469.5"/>
<text text-anchor="start" x="439" y="-487.5" font-family="Helvetica,sans-Serif" font-size="10.00">D:/PathTracer/PathTracer</text>
<text text-anchor="middle" x="494.5" y="-476.5" font-family="Helvetica,sans-Serif" font-size="10.00">/DiffuseMaterial.h</text>
</a>
</g>
</g>
<!-- Node1&#45;&gt;Node2 -->
<g id="edge1" class="edge">
<title>Node1&#45;&gt;Node2</title>
<path fill="none" stroke="midnightblue" d="M611.02,-532.54C585.26,-522.14 553.3,-509.24 529.37,-499.58"/>
<polygon fill="midnightblue" stroke="midnightblue" points="609.98,-535.9 620.57,-536.4 612.6,-529.41 609.98,-535.9"/>
</g>
<!-- Node4 -->
<g id="node4" class="node">
<title>Node4</title>
<g id="a_node4"><a xlink:href="_interface_gestion_8h.html" target="_top" xlink:title="Defines functions that are used when drawing the interface.">
<polygon fill="white" stroke="black" points="397,-268.5 397,-298.5 524,-298.5 524,-268.5 397,-268.5"/>
<text text-anchor="start" x="405" y="-286.5" font-family="Helvetica,sans-Serif" font-size="10.00">D:/PathTracer/PathTracer</text>
<text text-anchor="middle" x="460.5" y="-275.5" font-family="Helvetica,sans-Serif" font-size="10.00">/InterfaceGestion.h</text>
</a>
</g>
</g>
<!-- Node1&#45;&gt;Node4 -->
<g id="edge40" class="edge">
<title>Node1&#45;&gt;Node4</title>
<path fill="none" stroke="midnightblue" d="M581.83,-538.13C484.84,-520.06 323.01,-483.05 292.5,-433 285.33,-421.24 285.85,-414.07 292.5,-402 306.96,-375.76 324.74,-382.88 349.5,-366 382.69,-343.38 420.12,-315.35 441.93,-298.75"/>
<polygon fill="midnightblue" stroke="midnightblue" points="581.4,-541.61 591.87,-539.98 582.67,-534.73 581.4,-541.61"/>
</g>
<!-- Node15 -->
<g id="node15" class="node">
<title>Node15</title>
<g id="a_node15"><a xlink:href="_object3_d_8h.html" target="_top" xlink:title="Defines the Object3D class and the functions around it.">
<polygon fill="white" stroke="black" points="523,-402.5 523,-432.5 650,-432.5 650,-402.5 523,-402.5"/>
<text text-anchor="start" x="531" y="-420.5" font-family="Helvetica,sans-Serif" font-size="10.00">D:/PathTracer/PathTracer</text>
<text text-anchor="middle" x="586.5" y="-409.5" font-family="Helvetica,sans-Serif" font-size="10.00">/Object3D.h</text>
</a>
</g>
</g>
<!-- Node1&#45;&gt;Node15 -->
<g id="edge42" class="edge">
<title>Node1&#45;&gt;Node15</title>
<path fill="none" stroke="midnightblue" d="M643.46,-527.48C629.14,-500.07 605.68,-455.19 593.83,-432.52"/>
<polygon fill="midnightblue" stroke="midnightblue" points="640.38,-529.13 648.12,-536.37 646.58,-525.89 640.38,-529.13"/>
</g>
<!-- Node17 -->
<g id="node17" class="node">
<title>Node17</title>
<g id="a_node17"><a xlink:href="_refractive_material_8h.html" target="_top" xlink:title="Defines the RefractiveMaterial class.">
<polygon fill="white" stroke="black" points="955,-335.5 955,-365.5 1082,-365.5 1082,-335.5 955,-335.5"/>
<text text-anchor="start" x="963" y="-353.5" font-family="Helvetica,sans-Serif" font-size="10.00">D:/PathTracer/PathTracer</text>
<text text-anchor="middle" x="1018.5" y="-342.5" font-family="Helvetica,sans-Serif" font-size="10.00">/RefractiveMaterial.h</text>
</a>
</g>
</g>
<!-- Node1&#45;&gt;Node17 -->
<g id="edge43" class="edge">
<title>Node1&#45;&gt;Node17</title>
<path fill="none" stroke="midnightblue" d="M682.43,-530.31C706.06,-513.03 741.69,-487.99 774.5,-469 847.34,-426.84 937.61,-386.19 985.33,-365.55"/>
<polygon fill="midnightblue" stroke="midnightblue" points="680.27,-527.56 674.29,-536.31 684.42,-533.19 680.27,-527.56"/>
</g>
<!-- Node19 -->
<g id="node19" class="node">
<title>Node19</title>
<g id="a_node19"><a xlink:href="_specular_material_8h.html" target="_top" xlink:title="Defines the SpecularMaterial class.">
<polygon fill="white" stroke="black" points="213,-335.5 213,-365.5 340,-365.5 340,-335.5 213,-335.5"/>
<text text-anchor="start" x="221" y="-353.5" font-family="Helvetica,sans-Serif" font-size="10.00">D:/PathTracer/PathTracer</text>
<text text-anchor="middle" x="276.5" y="-342.5" font-family="Helvetica,sans-Serif" font-size="10.00">/SpecularMaterial.h</text>
</a>
</g>
</g>
<!-- Node1&#45;&gt;Node19 -->
<g id="edge44" class="edge">
<title>Node1&#45;&gt;Node19</title>
<path fill="none" stroke="midnightblue" d="M581.49,-546.3C472.52,-539.34 279.47,-523.8 258.5,-500 224.85,-461.8 253.28,-395.05 268.45,-365.85"/>
<polygon fill="midnightblue" stroke="midnightblue" points="581.57,-549.81 591.77,-546.94 582.01,-542.82 581.57,-549.81"/>
</g>
<!-- Node21 -->
<g id="node21" class="node">
<title>Node21</title>
<g id="a_node21"><a xlink:href="_sphere_8h.html" target="_top" xlink:title="Defines the Sphere class.">
<polygon fill="white" stroke="black" points="665,-335.5 665,-365.5 792,-365.5 792,-335.5 665,-335.5"/>
<text text-anchor="start" x="673" y="-353.5" font-family="Helvetica,sans-Serif" font-size="10.00">D:/PathTracer/PathTracer</text>
<text text-anchor="middle" x="728.5" y="-342.5" font-family="Helvetica,sans-Serif" font-size="10.00">/Sphere.h</text>
</a>
</g>
</g>
<!-- Node1&#45;&gt;Node21 -->
<g id="edge45" class="edge">
<title>Node1&#45;&gt;Node21</title>
<path fill="none" stroke="midnightblue" d="M661.78,-526.4C669.83,-496.65 684.88,-444.75 702.5,-402 707.69,-389.42 714.84,-375.73 720.33,-365.78"/>
<polygon fill="midnightblue" stroke="midnightblue" points="658.33,-525.73 659.13,-536.3 665.09,-527.54 658.33,-525.73"/>
</g>
<!-- Node23 -->
<g id="node23" class="node">
<title>Node23</title>
<g id="a_node23"><a xlink:href="_triangle_8h.html" target="_top" xlink:title="Defines the Triangle class.">
<polygon fill="white" stroke="black" points="810,-335.5 810,-365.5 937,-365.5 937,-335.5 810,-335.5"/>
<text text-anchor="start" x="818" y="-353.5" font-family="Helvetica,sans-Serif" font-size="10.00">D:/PathTracer/PathTracer</text>
<text text-anchor="middle" x="873.5" y="-342.5" font-family="Helvetica,sans-Serif" font-size="10.00">/Triangle.h</text>
</a>
</g>
</g>
<!-- Node1&#45;&gt;Node23 -->
<g id="edge46" class="edge">
<title>Node1&#45;&gt;Node23</title>
<path fill="none" stroke="midnightblue" d="M670.6,-527.41C676.06,-518.88 682.18,-509.07 687.5,-500 712.54,-457.28 703.24,-434.61 740.5,-402 760.11,-384.84 786.14,-373.25 809.98,-365.55"/>
<polygon fill="midnightblue" stroke="midnightblue" points="667.49,-525.78 665.01,-536.08 673.37,-529.57 667.49,-525.78"/>
</g>
<!-- Node25 -->
<g id="node25" class="node">
<title>Node25</title>
<g id="a_node25"><a xlink:href="_material_8cpp.html" target="_top" xlink:title=" ">
<polygon fill="white" stroke="black" points="783,-469.5 783,-499.5 910,-499.5 910,-469.5 783,-469.5"/>
<text text-anchor="start" x="791" y="-487.5" font-family="Helvetica,sans-Serif" font-size="10.00">D:/PathTracer/PathTracer</text>
<text text-anchor="middle" x="846.5" y="-476.5" font-family="Helvetica,sans-Serif" font-size="10.00">/Material.cpp</text>
</a>
</g>
</g>
<!-- Node1&#45;&gt;Node25 -->
<g id="edge41" class="edge">
<title>Node1&#45;&gt;Node25</title>
<path fill="none" stroke="midnightblue" d="M706.65,-533.09C737.49,-522.6 776.25,-509.41 805.14,-499.58"/>
<polygon fill="midnightblue" stroke="midnightblue" points="705.28,-529.86 696.94,-536.4 707.54,-536.49 705.28,-529.86"/>
</g>
<!-- Node3 -->
<g id="node3" class="node">
<title>Node3</title>
<g id="a_node3"><a xlink:href="_diffuse_material_8cpp.html" target="_top" xlink:title=" ">
<polygon fill="white" stroke="black" points="301,-402.5 301,-432.5 428,-432.5 428,-402.5 301,-402.5"/>
<text text-anchor="start" x="309" y="-420.5" font-family="Helvetica,sans-Serif" font-size="10.00">D:/PathTracer/PathTracer</text>
<text text-anchor="middle" x="364.5" y="-409.5" font-family="Helvetica,sans-Serif" font-size="10.00">/DiffuseMaterial.cpp</text>
</a>
</g>
</g>
<!-- Node2&#45;&gt;Node3 -->
<g id="edge2" class="edge">
<title>Node2&#45;&gt;Node3</title>
<path fill="none" stroke="midnightblue" d="M457.21,-464.85C436.65,-454.58 411.55,-442.03 392.65,-432.58"/>
<polygon fill="midnightblue" stroke="midnightblue" points="455.78,-468.05 466.29,-469.4 458.91,-461.79 455.78,-468.05"/>
</g>
<!-- Node2&#45;&gt;Node4 -->
<g id="edge3" class="edge">
<title>Node2&#45;&gt;Node4</title>
<path fill="none" stroke="midnightblue" d="M488.14,-459.38C483.65,-443.05 477.25,-421.05 470.5,-402 464.71,-385.66 458.9,-383 455.5,-366 452.8,-352.49 454.82,-348.76 455.5,-335 456.11,-322.68 457.55,-308.73 458.73,-298.62"/>
<polygon fill="midnightblue" stroke="midnightblue" points="484.81,-460.48 490.8,-469.22 491.57,-458.65 484.81,-460.48"/>
</g>
<!-- Node11 -->
<g id="node11" class="node">
<title>Node11</title>
<g id="a_node11"><a xlink:href="_scene_8h.html" target="_top" xlink:title="Defines the Scene class and the functions around it.">
<polygon fill="white" stroke="black" points="489,-134.5 489,-164.5 616,-164.5 616,-134.5 489,-134.5"/>
<text text-anchor="start" x="497" y="-152.5" font-family="Helvetica,sans-Serif" font-size="10.00">D:/PathTracer/PathTracer</text>
<text text-anchor="middle" x="552.5" y="-141.5" font-family="Helvetica,sans-Serif" font-size="10.00">/Scene.h</text>
</a>
</g>
</g>
<!-- Node2&#45;&gt;Node11 -->
<g id="edge39" class="edge">
<title>Node2&#45;&gt;Node11</title>
<path fill="none" stroke="midnightblue" d="M484.56,-460.14C475.25,-441.27 459.47,-415.67 437.5,-402 348.16,-346.41 272.01,-445.86 203.5,-366 175.14,-332.94 185.58,-307.7 203.5,-268 222.03,-226.96 239.01,-220.7 279.5,-201 315.58,-183.45 420.21,-167.37 488.96,-158.27"/>
<polygon fill="midnightblue" stroke="midnightblue" points="481.44,-461.72 488.84,-469.3 487.78,-458.76 481.44,-461.72"/>
</g>
<!-- Node2&#45;&gt;Node15 -->
<g id="edge18" class="edge">
<title>Node2&#45;&gt;Node15</title>
<path fill="none" stroke="midnightblue" d="M522.88,-463.45C537.03,-453.45 553.81,-441.6 566.58,-432.58"/>
<polygon fill="midnightblue" stroke="midnightblue" points="520.61,-460.77 514.46,-469.4 524.65,-466.48 520.61,-460.77"/>
</g>
<!-- Node5 -->
<g id="node5" class="node">
<title>Node5</title>
<g id="a_node5"><a xlink:href="_interface_8h.html" target="_top" xlink:title="Defines some functions for the interface.">
<polygon fill="white" stroke="black" points="130,-67.5 130,-97.5 257,-97.5 257,-67.5 130,-67.5"/>
<text text-anchor="start" x="138" y="-85.5" font-family="Helvetica,sans-Serif" font-size="10.00">D:/PathTracer/PathTracer</text>
<text text-anchor="middle" x="193.5" y="-74.5" font-family="Helvetica,sans-Serif" font-size="10.00">/Interface.h</text>
</a>
</g>
</g>
<!-- Node4&#45;&gt;Node5 -->
<g id="edge4" class="edge">
<title>Node4&#45;&gt;Node5</title>
<path fill="none" stroke="midnightblue" d="M386.89,-272.58C354.59,-265.4 317.7,-253.08 289.5,-232 241.06,-195.78 210.33,-127.37 198.73,-97.76"/>
<polygon fill="midnightblue" stroke="midnightblue" points="386.25,-276.02 396.75,-274.65 387.68,-269.17 386.25,-276.02"/>
</g>
<!-- Node8 -->
<g id="node8" class="node">
<title>Node8</title>
<g id="a_node8"><a xlink:href="_interface_gestion_8cpp.html" target="_top" xlink:title=" ">
<polygon fill="white" stroke="black" points="443,-201.5 443,-231.5 570,-231.5 570,-201.5 443,-201.5"/>
<text text-anchor="start" x="451" y="-219.5" font-family="Helvetica,sans-Serif" font-size="10.00">D:/PathTracer/PathTracer</text>
<text text-anchor="middle" x="506.5" y="-208.5" font-family="Helvetica,sans-Serif" font-size="10.00">/InterfaceGestion.cpp</text>
</a>
</g>
</g>
<!-- Node4&#45;&gt;Node8 -->
<g id="edge7" class="edge">
<title>Node4&#45;&gt;Node8</title>
<path fill="none" stroke="midnightblue" d="M476.31,-260.16C483.02,-250.68 490.63,-239.92 496.54,-231.58"/>
<polygon fill="midnightblue" stroke="midnightblue" points="473.4,-258.21 470.48,-268.4 479.12,-262.26 473.4,-258.21"/>
</g>
<!-- Node9 -->
<g id="node9" class="node">
<title>Node9</title>
<g id="a_node9"><a xlink:href="_object3_d_group_8h.html" target="_top" xlink:title="Defines the Object3DGroup class and the functions around it.">
<polygon fill="white" stroke="black" points="38,-201.5 38,-231.5 165,-231.5 165,-201.5 38,-201.5"/>
<text text-anchor="start" x="46" y="-219.5" font-family="Helvetica,sans-Serif" font-size="10.00">D:/PathTracer/PathTracer</text>
<text text-anchor="middle" x="101.5" y="-208.5" font-family="Helvetica,sans-Serif" font-size="10.00">/Object3DGroup.h</text>
</a>
</g>
</g>
<!-- Node4&#45;&gt;Node9 -->
<g id="edge8" class="edge">
<title>Node4&#45;&gt;Node9</title>
<path fill="none" stroke="midnightblue" d="M386.92,-269.4C330.22,-259.28 249.87,-244.86 179.5,-232 174.89,-231.16 170.13,-230.28 165.34,-229.4"/>
<polygon fill="midnightblue" stroke="midnightblue" points="386.41,-272.86 396.87,-271.18 387.64,-265.97 386.41,-272.86"/>
</g>
<!-- Node4&#45;&gt;Node11 -->
<g id="edge17" class="edge">
<title>Node4&#45;&gt;Node11</title>
<path fill="none" stroke="midnightblue" d="M533.61,-266.78C551.58,-259.29 568.74,-248.26 579.5,-232 593.49,-210.87 576.99,-181.86 564.33,-164.76"/>
<polygon fill="midnightblue" stroke="midnightblue" points="532.26,-263.55 524.16,-270.39 534.75,-270.09 532.26,-263.55"/>
</g>
<!-- Node13 -->
<g id="node13" class="node">
<title>Node13</title>
<g id="a_node13"><a xlink:href="_picture_8h.html" target="_top" xlink:title="Defines the Picture class and the functions around it.">
<polygon fill="white" stroke="black" points="298,-201.5 298,-231.5 425,-231.5 425,-201.5 298,-201.5"/>
<text text-anchor="start" x="306" y="-219.5" font-family="Helvetica,sans-Serif" font-size="10.00">D:/PathTracer/PathTracer</text>
<text text-anchor="middle" x="361.5" y="-208.5" font-family="Helvetica,sans-Serif" font-size="10.00">/Picture.h</text>
</a>
</g>
</g>
<!-- Node4&#45;&gt;Node13 -->
<g id="edge14" class="edge">
<title>Node4&#45;&gt;Node13</title>
<path fill="none" stroke="midnightblue" d="M430.39,-262.73C415.08,-252.68 396.81,-240.68 382.94,-231.58"/>
<polygon fill="midnightblue" stroke="midnightblue" points="428.74,-265.83 439.02,-268.4 432.58,-259.98 428.74,-265.83"/>
</g>
<!-- Node6 -->
<g id="node6" class="node">
<title>Node6</title>
<g id="a_node6"><a xlink:href="_interface_8cpp.html" target="_top" xlink:title=" ">
<polygon fill="white" stroke="black" points="58,-0.5 58,-30.5 185,-30.5 185,-0.5 58,-0.5"/>
<text text-anchor="start" x="66" y="-18.5" font-family="Helvetica,sans-Serif" font-size="10.00">D:/PathTracer/PathTracer</text>
<text text-anchor="middle" x="121.5" y="-7.5" font-family="Helvetica,sans-Serif" font-size="10.00">/Interface.cpp</text>
</a>
</g>
</g>
<!-- Node5&#45;&gt;Node6 -->
<g id="edge5" class="edge">
<title>Node5&#45;&gt;Node6</title>
<path fill="none" stroke="midnightblue" d="M170.35,-60.6C159.48,-50.78 146.8,-39.34 137.09,-30.58"/>
<polygon fill="midnightblue" stroke="midnightblue" points="168.11,-63.29 177.88,-67.4 172.8,-58.1 168.11,-63.29"/>
</g>
<!-- Node7 -->
<g id="node7" class="node">
<title>Node7</title>
<g id="a_node7"><a xlink:href="main_8cpp.html" target="_top" xlink:title=" ">
<polygon fill="white" stroke="black" points="203,-0.5 203,-30.5 330,-30.5 330,-0.5 203,-0.5"/>
<text text-anchor="start" x="211" y="-18.5" font-family="Helvetica,sans-Serif" font-size="10.00">D:/PathTracer/PathTracer</text>
<text text-anchor="middle" x="266.5" y="-7.5" font-family="Helvetica,sans-Serif" font-size="10.00">/main.cpp</text>
</a>
</g>
</g>
<!-- Node5&#45;&gt;Node7 -->
<g id="edge6" class="edge">
<title>Node5&#45;&gt;Node7</title>
<path fill="none" stroke="midnightblue" d="M216.97,-60.6C228,-50.78 240.84,-39.34 250.69,-30.58"/>
<polygon fill="midnightblue" stroke="midnightblue" points="214.48,-58.13 209.34,-67.4 219.14,-63.36 214.48,-58.13"/>
</g>
<!-- Node9&#45;&gt;Node5 -->
<g id="edge9" class="edge">
<title>Node9&#45;&gt;Node5</title>
<path fill="none" stroke="midnightblue" d="M117.3,-192.83C136.37,-165.47 167.86,-120.28 183.73,-97.52"/>
<polygon fill="midnightblue" stroke="midnightblue" points="114.19,-191.17 111.35,-201.37 119.93,-195.17 114.19,-191.17"/>
</g>
<!-- Node10 -->
<g id="node10" class="node">
<title>Node10</title>
<g id="a_node10"><a xlink:href="_object3_d_group_8cpp.html" target="_top" xlink:title=" ">
<polygon fill="white" stroke="black" points="0,-134.5 0,-164.5 127,-164.5 127,-134.5 0,-134.5"/>
<text text-anchor="start" x="8" y="-152.5" font-family="Helvetica,sans-Serif" font-size="10.00">D:/PathTracer/PathTracer</text>
<text text-anchor="middle" x="63.5" y="-141.5" font-family="Helvetica,sans-Serif" font-size="10.00">/Object3DGroup.cpp</text>
</a>
</g>
</g>
<!-- Node9&#45;&gt;Node10 -->
<g id="edge10" class="edge">
<title>Node9&#45;&gt;Node10</title>
<path fill="none" stroke="midnightblue" d="M88.1,-192.58C82.64,-183.24 76.51,-172.75 71.73,-164.58"/>
<polygon fill="midnightblue" stroke="midnightblue" points="85.19,-194.53 93.25,-201.4 91.23,-191 85.19,-194.53"/>
</g>
<!-- Node9&#45;&gt;Node11 -->
<g id="edge11" class="edge">
<title>Node9&#45;&gt;Node11</title>
<path fill="none" stroke="midnightblue" d="M175.25,-204.87C262.47,-192.3 406.22,-171.58 488.8,-159.68"/>
<polygon fill="midnightblue" stroke="midnightblue" points="174.56,-201.43 165.16,-206.32 175.56,-208.36 174.56,-201.43"/>
</g>
<!-- Node11&#45;&gt;Node5 -->
<g id="edge12" class="edge">
<title>Node11&#45;&gt;Node5</title>
<path fill="none" stroke="midnightblue" d="M478.52,-135.11C413.29,-123.3 319.25,-106.27 257.28,-95.05"/>
<polygon fill="midnightblue" stroke="midnightblue" points="478.27,-138.62 488.73,-136.95 479.52,-131.73 478.27,-138.62"/>
</g>
<!-- Node12 -->
<g id="node12" class="node">
<title>Node12</title>
<g id="a_node12"><a xlink:href="_scene_8cpp.html" target="_top" xlink:title=" ">
<polygon fill="white" stroke="black" points="489,-67.5 489,-97.5 616,-97.5 616,-67.5 489,-67.5"/>
<text text-anchor="start" x="497" y="-85.5" font-family="Helvetica,sans-Serif" font-size="10.00">D:/PathTracer/PathTracer</text>
<text text-anchor="middle" x="552.5" y="-74.5" font-family="Helvetica,sans-Serif" font-size="10.00">/Scene.cpp</text>
</a>
</g>
</g>
<!-- Node11&#45;&gt;Node12 -->
<g id="edge13" class="edge">
<title>Node11&#45;&gt;Node12</title>
<path fill="none" stroke="midnightblue" d="M552.5,-124.11C552.5,-115.15 552.5,-105.32 552.5,-97.58"/>
<polygon fill="midnightblue" stroke="midnightblue" points="549,-124.4 552.5,-134.4 556,-124.4 549,-124.4"/>
</g>
<!-- Node13&#45;&gt;Node11 -->
<g id="edge16" class="edge">
<title>Node13&#45;&gt;Node11</title>
<path fill="none" stroke="midnightblue" d="M412.65,-198.09C443.49,-187.6 482.25,-174.41 511.14,-164.58"/>
<polygon fill="midnightblue" stroke="midnightblue" points="411.28,-194.86 402.94,-201.4 413.54,-201.49 411.28,-194.86"/>
</g>
<!-- Node14 -->
<g id="node14" class="node">
<title>Node14</title>
<g id="a_node14"><a xlink:href="_picture_8cpp.html" target="_top" xlink:title=" ">
<polygon fill="white" stroke="black" points="298,-134.5 298,-164.5 425,-164.5 425,-134.5 298,-134.5"/>
<text text-anchor="start" x="306" y="-152.5" font-family="Helvetica,sans-Serif" font-size="10.00">D:/PathTracer/PathTracer</text>
<text text-anchor="middle" x="361.5" y="-141.5" font-family="Helvetica,sans-Serif" font-size="10.00">/Picture.cpp</text>
</a>
</g>
</g>
<!-- Node13&#45;&gt;Node14 -->
<g id="edge15" class="edge">
<title>Node13&#45;&gt;Node14</title>
<path fill="none" stroke="midnightblue" d="M361.5,-191.11C361.5,-182.15 361.5,-172.32 361.5,-164.58"/>
<polygon fill="midnightblue" stroke="midnightblue" points="358,-191.4 361.5,-201.4 365,-191.4 358,-191.4"/>
</g>
<!-- Node15&#45;&gt;Node4 -->
<g id="edge19" class="edge">
<title>Node15&#45;&gt;Node4</title>
<path fill="none" stroke="midnightblue" d="M516.64,-398.56C499.87,-391.09 483.61,-380.61 472.5,-366 457.61,-346.42 457.31,-316.36 458.72,-298.74"/>
<polygon fill="midnightblue" stroke="midnightblue" points="515.41,-401.83 525.99,-402.41 518.07,-395.36 515.41,-401.83"/>
</g>
<!-- Node15&#45;&gt;Node9 -->
<g id="edge21" class="edge">
<title>Node15&#45;&gt;Node9</title>
<path fill="none" stroke="midnightblue" d="M512.57,-407.13C402.19,-393.09 206.78,-368.01 203.5,-366 150.7,-333.63 118.56,-262.5 106.7,-231.93"/>
<polygon fill="midnightblue" stroke="midnightblue" points="512.29,-410.62 522.65,-408.41 513.17,-403.68 512.29,-410.62"/>
</g>
<!-- Node15&#45;&gt;Node11 -->
<g id="edge26" class="edge">
<title>Node15&#45;&gt;Node11</title>
<path fill="none" stroke="midnightblue" d="M603.91,-394.09C609.38,-385.75 614.71,-375.89 617.5,-366 621.24,-352.74 618.62,-348.73 617.5,-335 612.59,-274.85 620.88,-255.76 595.5,-201 589.11,-187.21 577.88,-174.21 568.49,-164.86"/>
<polygon fill="midnightblue" stroke="midnightblue" points="600.9,-392.29 598.04,-402.49 606.64,-396.3 600.9,-392.29"/>
</g>
<!-- Node16 -->
<g id="node16" class="node">
<title>Node16</title>
<g id="a_node16"><a xlink:href="_object3_d_8cpp.html" target="_top" xlink:title=" ">
<polygon fill="white" stroke="black" points="481,-335.5 481,-365.5 608,-365.5 608,-335.5 481,-335.5"/>
<text text-anchor="start" x="489" y="-353.5" font-family="Helvetica,sans-Serif" font-size="10.00">D:/PathTracer/PathTracer</text>
<text text-anchor="middle" x="544.5" y="-342.5" font-family="Helvetica,sans-Serif" font-size="10.00">/Object3D.cpp</text>
</a>
</g>
</g>
<!-- Node15&#45;&gt;Node16 -->
<g id="edge20" class="edge">
<title>Node15&#45;&gt;Node16</title>
<path fill="none" stroke="midnightblue" d="M571.88,-393.87C565.8,-384.46 558.93,-373.83 553.6,-365.58"/>
<polygon fill="midnightblue" stroke="midnightblue" points="569.02,-395.9 577.39,-402.4 574.9,-392.1 569.02,-395.9"/>
</g>
<!-- Node15&#45;&gt;Node17 -->
<g id="edge22" class="edge">
<title>Node15&#45;&gt;Node17</title>
<path fill="none" stroke="midnightblue" d="M660.08,-407.48C732.98,-398.23 847.72,-382.86 946.5,-366 949.27,-365.53 952.09,-365.03 954.93,-364.51"/>
<polygon fill="midnightblue" stroke="midnightblue" points="659.56,-404.01 650.08,-408.74 660.44,-410.96 659.56,-404.01"/>
</g>
<!-- Node15&#45;&gt;Node19 -->
<g id="edge27" class="edge">
<title>Node15&#45;&gt;Node19</title>
<path fill="none" stroke="midnightblue" d="M512.7,-401.03C460.1,-390 390.12,-375.32 340.01,-364.82"/>
<polygon fill="midnightblue" stroke="midnightblue" points="512.14,-404.48 522.64,-403.11 513.57,-397.63 512.14,-404.48"/>
</g>
<!-- Node15&#45;&gt;Node21 -->
<g id="edge31" class="edge">
<title>Node15&#45;&gt;Node21</title>
<path fill="none" stroke="midnightblue" d="M626.63,-398.13C649.19,-387.8 676.92,-375.11 697.75,-365.58"/>
<polygon fill="midnightblue" stroke="midnightblue" points="624.95,-395.05 617.31,-402.4 627.86,-401.42 624.95,-395.05"/>
</g>
<!-- Node15&#45;&gt;Node23 -->
<g id="edge35" class="edge">
<title>Node15&#45;&gt;Node23</title>
<path fill="none" stroke="midnightblue" d="M658.24,-400.25C705.28,-389.6 766.18,-375.81 811.19,-365.61"/>
<polygon fill="midnightblue" stroke="midnightblue" points="657.4,-396.85 648.42,-402.48 658.95,-403.68 657.4,-396.85"/>
</g>
<!-- Node17&#45;&gt;Node4 -->
<g id="edge23" class="edge">
<title>Node17&#45;&gt;Node4</title>
<path fill="none" stroke="midnightblue" d="M944.67,-334.81C788.12,-311.38 615.1,-296.27 524.04,-289.16"/>
<polygon fill="midnightblue" stroke="midnightblue" points="944.54,-338.33 954.96,-336.36 945.59,-331.41 944.54,-338.33"/>
</g>
<!-- Node17&#45;&gt;Node11 -->
<g id="edge25" class="edge">
<title>Node17&#45;&gt;Node11</title>
<path fill="none" stroke="midnightblue" d="M1027.66,-325.59C1032.76,-307.92 1035.86,-284.21 1023.5,-268 974.38,-203.58 733.41,-169.65 616.44,-156.75"/>
<polygon fill="midnightblue" stroke="midnightblue" points="1024.3,-324.6 1024.54,-335.2 1030.96,-326.77 1024.3,-324.6"/>
</g>
<!-- Node18 -->
<g id="node18" class="node">
<title>Node18</title>
<g id="a_node18"><a xlink:href="_refractive_material_8cpp.html" target="_top" xlink:title=" ">
<polygon fill="white" stroke="black" points="1071,-268.5 1071,-298.5 1198,-298.5 1198,-268.5 1071,-268.5"/>
<text text-anchor="start" x="1079" y="-286.5" font-family="Helvetica,sans-Serif" font-size="10.00">D:/PathTracer/PathTracer</text>
<text text-anchor="middle" x="1134.5" y="-275.5" font-family="Helvetica,sans-Serif" font-size="10.00">/RefractiveMaterial.cpp</text>
</a>
</g>
</g>
<!-- Node17&#45;&gt;Node18 -->
<g id="edge24" class="edge">
<title>Node17&#45;&gt;Node18</title>
<path fill="none" stroke="midnightblue" d="M1052.77,-330.3C1070.92,-320.12 1092.82,-307.85 1109.38,-298.58"/>
<polygon fill="midnightblue" stroke="midnightblue" points="1050.68,-327.45 1043.67,-335.4 1054.1,-333.56 1050.68,-327.45"/>
</g>
<!-- Node19&#45;&gt;Node4 -->
<g id="edge28" class="edge">
<title>Node19&#45;&gt;Node4</title>
<path fill="none" stroke="midnightblue" d="M326.17,-331.96C355.8,-321.48 392.94,-308.37 420.65,-298.58"/>
<polygon fill="midnightblue" stroke="midnightblue" points="324.69,-328.76 316.43,-335.4 327.02,-335.37 324.69,-328.76"/>
</g>
<!-- Node19&#45;&gt;Node11 -->
<g id="edge29" class="edge">
<title>Node19&#45;&gt;Node11</title>
<path fill="none" stroke="midnightblue" d="M318.76,-330.08C330.91,-322.25 342.71,-311.96 349.5,-299 355.9,-286.8 356.29,-279.99 349.5,-268 334.18,-240.94 304.82,-259.06 289.5,-232 282.71,-220.01 280.72,-211.62 289.5,-201 302.16,-185.68 415.25,-168.29 488.96,-158.44"/>
<polygon fill="midnightblue" stroke="midnightblue" points="316.71,-327.22 309.91,-335.34 320.29,-333.23 316.71,-327.22"/>
</g>
<!-- Node20 -->
<g id="node20" class="node">
<title>Node20</title>
<g id="a_node20"><a xlink:href="_specular_material_8cpp.html" target="_top" xlink:title=" ">
<polygon fill="white" stroke="black" points="213,-268.5 213,-298.5 340,-298.5 340,-268.5 213,-268.5"/>
<text text-anchor="start" x="221" y="-286.5" font-family="Helvetica,sans-Serif" font-size="10.00">D:/PathTracer/PathTracer</text>
<text text-anchor="middle" x="276.5" y="-275.5" font-family="Helvetica,sans-Serif" font-size="10.00">/SpecularMaterial.cpp</text>
</a>
</g>
</g>
<!-- Node19&#45;&gt;Node20 -->
<g id="edge30" class="edge">
<title>Node19&#45;&gt;Node20</title>
<path fill="none" stroke="midnightblue" d="M276.5,-325.11C276.5,-316.15 276.5,-306.32 276.5,-298.58"/>
<polygon fill="midnightblue" stroke="midnightblue" points="273,-325.4 276.5,-335.4 280,-325.4 273,-325.4"/>
</g>
<!-- Node21&#45;&gt;Node4 -->
<g id="edge32" class="edge">
<title>Node21&#45;&gt;Node4</title>
<path fill="none" stroke="midnightblue" d="M660.96,-333.12C617.11,-322.48 560.54,-308.76 518.68,-298.61"/>
<polygon fill="midnightblue" stroke="midnightblue" points="660.13,-336.52 670.68,-335.48 661.78,-329.72 660.13,-336.52"/>
</g>
<!-- Node21&#45;&gt;Node11 -->
<g id="edge33" class="edge">
<title>Node21&#45;&gt;Node11</title>
<path fill="none" stroke="midnightblue" d="M712.15,-327C706.25,-318.44 699.76,-308.46 694.5,-299 671.31,-257.27 683.34,-235.66 650.5,-201 635.1,-184.74 613.3,-172.8 594.18,-164.62"/>
<polygon fill="midnightblue" stroke="midnightblue" points="709.39,-329.16 718,-335.33 715.12,-325.13 709.39,-329.16"/>
</g>
<!-- Node22 -->
<g id="node22" class="node">
<title>Node22</title>
<g id="a_node22"><a xlink:href="_sphere_8cpp.html" target="_top" xlink:title=" ">
<polygon fill="white" stroke="black" points="703,-268.5 703,-298.5 830,-298.5 830,-268.5 703,-268.5"/>
<text text-anchor="start" x="711" y="-286.5" font-family="Helvetica,sans-Serif" font-size="10.00">D:/PathTracer/PathTracer</text>
<text text-anchor="middle" x="766.5" y="-275.5" font-family="Helvetica,sans-Serif" font-size="10.00">/Sphere.cpp</text>
</a>
</g>
</g>
<!-- Node21&#45;&gt;Node22 -->
<g id="edge34" class="edge">
<title>Node21&#45;&gt;Node22</title>
<path fill="none" stroke="midnightblue" d="M741.9,-326.58C747.36,-317.24 753.49,-306.75 758.27,-298.58"/>
<polygon fill="midnightblue" stroke="midnightblue" points="738.77,-325 736.75,-335.4 744.81,-328.53 738.77,-325"/>
</g>
<!-- Node23&#45;&gt;Node4 -->
<g id="edge36" class="edge">
<title>Node23&#45;&gt;Node4</title>
<path fill="none" stroke="midnightblue" d="M799.77,-334.75C697.91,-317.15 590.54,-301.94 524.13,-292.92"/>
<polygon fill="midnightblue" stroke="midnightblue" points="799.48,-338.25 809.93,-336.51 800.68,-331.35 799.48,-338.25"/>
</g>
<!-- Node23&#45;&gt;Node11 -->
<g id="edge37" class="edge">
<title>Node23&#45;&gt;Node11</title>
<path fill="none" stroke="midnightblue" d="M868.72,-325.51C864.04,-307.61 855.23,-283.63 839.5,-268 777.91,-206.81 680.04,-176.09 616.03,-161.73"/>
<polygon fill="midnightblue" stroke="midnightblue" points="865.32,-326.32 871.03,-335.25 872.13,-324.71 865.32,-326.32"/>
</g>
<!-- Node24 -->
<g id="node24" class="node">
<title>Node24</title>
<g id="a_node24"><a xlink:href="_triangle_8cpp.html" target="_top" xlink:title=" ">
<polygon fill="white" stroke="black" points="887,-268.5 887,-298.5 1014,-298.5 1014,-268.5 887,-268.5"/>
<text text-anchor="start" x="895" y="-286.5" font-family="Helvetica,sans-Serif" font-size="10.00">D:/PathTracer/PathTracer</text>
<text text-anchor="middle" x="950.5" y="-275.5" font-family="Helvetica,sans-Serif" font-size="10.00">/Triangle.cpp</text>
</a>
</g>
</g>
<!-- Node23&#45;&gt;Node24 -->
<g id="edge38" class="edge">
<title>Node23&#45;&gt;Node24</title>
<path fill="none" stroke="midnightblue" d="M897.92,-328.88C909.62,-319.01 923.34,-307.43 933.82,-298.58"/>
<polygon fill="midnightblue" stroke="midnightblue" points="895.59,-326.27 890.21,-335.4 900.11,-331.62 895.59,-326.27"/>
</g>
</g>
</svg>
