<?xml version="1.0" encoding="UTF-8" standalone="no"?>
<!DOCTYPE svg PUBLIC "-//W3C//DTD SVG 1.1//EN"
 "http://www.w3.org/Graphics/SVG/1.1/DTD/svg11.dtd">
<!-- Generated by graphviz version 2.44.1 (20200629.0800)
 -->
<!-- Title: D:/PathTracer/PathTracer/Object3D.h Pages: 1 -->
<!--zoomable 441 -->
<svg id="main" version="1.1" xmlns="http://www.w3.org/2000/svg" xmlns:xlink="http://www.w3.org/1999/xlink" xml:space="preserve" onload="init(evt)">
<style type="text/css"><![CDATA[
.edge:hover path { stroke: red; }
.edge:hover polygon { stroke: red; fill: red; }
]]></style>
<script type="text/javascript"><![CDATA[
var edges = document.getElementsByTagName('g');
if (edges && edges.length) {
  for (var i=0;i<edges.length;i++) {
    if (edges[i].id.substr(0,4)=='edge') {
      edges[i].setAttribute('class','edge');
    }
  }
}
]]></script>
        <defs>
                <circle id="rim" cx="0" cy="0" r="7"/>
                <circle id="rim2" cx="0" cy="0" r="3.5"/>
                <g id="zoomPlus">
                        <use xlink:href="#rim" fill="#404040">
                                <set attributeName="fill" to="#808080" begin="zoomplus.mouseover" end="zoomplus.mouseout"/>
                        </use>
                        <path d="M-4,0h8M0,-4v8" fill="none" stroke="white" stroke-width="1.5" pointer-events="none"/>
                </g>
                <g id="zoomMin">
                        <use xlink:href="#rim" fill="#404040">
                                <set attributeName="fill" to="#808080" begin="zoomminus.mouseover" end="zoomminus.mouseout"/>
                        </use>
                        <path d="M-4,0h8" fill="none" stroke="white" stroke-width="1.5" pointer-events="none"/>
                </g>
                <g id="dirArrow">
                        <path fill="none" stroke="white" stroke-width="1.5" d="M0,-3.0v7 M-2.5,-0.5L0,-3.0L2.5,-0.5"/>
                </g>
               <g id="resetDef">
                       <use xlink:href="#rim2" fill="#404040">
                               <set attributeName="fill" to="#808080" begin="reset.mouseover" end="reset.mouseout"/>
                       </use>
               </g>
        </defs>

<script type="text/javascript">
var viewWidth = 977;
var viewHeight = 441;
var sectionId = 'dynsection-1';
</script>
<script xlink:href="svgpan.js"/>
<svg id="graph" class="graph">
<g id="viewport">
<title>D:/PathTracer/PathTracer/Object3D.h</title>
<polygon fill="white" stroke="transparent" points="-4,4 -4,-437 973.08,-437 973.08,4 -4,4"/>
<!-- Node1 -->
<g id="node1" class="node">
<title>Node1</title>
<g id="a_node1"><a xlink:title="Defines the Object3D class and the functions around it.">
<polygon fill="#bfbfbf" stroke="black" points="387.2,-402.5 387.2,-432.5 514.2,-432.5 514.2,-402.5 387.2,-402.5"/>
<text text-anchor="start" x="395.2" y="-420.5" font-family="Helvetica,sans-Serif" font-size="10.00">D:/PathTracer/PathTracer</text>
<text text-anchor="middle" x="450.7" y="-409.5" font-family="Helvetica,sans-Serif" font-size="10.00">/Object3D.h</text>
</a>
</g>
</g>
<!-- Node2 -->
<g id="node2" class="node">
<title>Node2</title>
<g id="a_node2"><a xlink:href="_interface_gestion_8h.html" target="_top" xlink:title="Defines functions that are used when drawing the interface.">
<polygon fill="white" stroke="black" points="421.2,-268.5 421.2,-298.5 548.2,-298.5 548.2,-268.5 421.2,-268.5"/>
<text text-anchor="start" x="429.2" y="-286.5" font-family="Helvetica,sans-Serif" font-size="10.00">D:/PathTracer/PathTracer</text>
<text text-anchor="middle" x="484.7" y="-275.5" font-family="Helvetica,sans-Serif" font-size="10.00">/InterfaceGestion.h</text>
</a>
</g>
</g>
<!-- Node1&#45;&gt;Node2 -->
<g id="edge1" class="edge">
<title>Node1&#45;&gt;Node2</title>
<path fill="none" stroke="midnightblue" d="M376.92,-402.29C329.35,-389.68 280.67,-368.07 305.7,-335 312.96,-325.41 372.4,-309.88 420.83,-298.57"/>
<polygon fill="midnightblue" stroke="midnightblue" points="376.16,-405.7 386.71,-404.76 377.87,-398.92 376.16,-405.7"/>
</g>
<!-- Node7 -->
<g id="node7" class="node">
<title>Node7</title>
<g id="a_node7"><a xlink:href="_object3_d_group_8h.html" target="_top" xlink:title="Defines the Object3DGroup class and the functions around it.">
<polygon fill="white" stroke="black" points="15.2,-201.5 15.2,-231.5 142.2,-231.5 142.2,-201.5 15.2,-201.5"/>
<text text-anchor="start" x="23.2" y="-219.5" font-family="Helvetica,sans-Serif" font-size="10.00">D:/PathTracer/PathTracer</text>
<text text-anchor="middle" x="78.7" y="-208.5" font-family="Helvetica,sans-Serif" font-size="10.00">/Object3DGroup.h</text>
</a>
</g>
</g>
<!-- Node1&#45;&gt;Node7 -->
<g id="edge17" class="edge">
<title>Node1&#45;&gt;Node7</title>
<path fill="none" stroke="midnightblue" d="M377.06,-412.53C293.07,-406.75 162.14,-393.55 121.7,-366 77.55,-335.93 76.05,-262.88 77.58,-231.84"/>
<polygon fill="midnightblue" stroke="midnightblue" points="376.85,-416.02 387.06,-413.2 377.31,-409.04 376.85,-416.02"/>
</g>
<!-- Node9 -->
<g id="node9" class="node">
<title>Node9</title>
<g id="a_node9"><a xlink:href="_scene_8h.html" target="_top" xlink:title="Defines the Scene class and the functions around it.">
<polygon fill="white" stroke="black" points="475.2,-134.5 475.2,-164.5 602.2,-164.5 602.2,-134.5 475.2,-134.5"/>
<text text-anchor="start" x="483.2" y="-152.5" font-family="Helvetica,sans-Serif" font-size="10.00">D:/PathTracer/PathTracer</text>
<text text-anchor="middle" x="538.7" y="-141.5" font-family="Helvetica,sans-Serif" font-size="10.00">/Scene.h</text>
</a>
</g>
</g>
<!-- Node1&#45;&gt;Node9 -->
<g id="edge22" class="edge">
<title>Node1&#45;&gt;Node9</title>
<path fill="none" stroke="midnightblue" d="M524.51,-413.22C631.45,-407.59 823.55,-393.87 886.7,-366 928.2,-347.68 944.89,-340.28 963.7,-299 969.41,-286.46 971.93,-279.05 963.7,-268 920.51,-210.08 709.97,-173.69 602.33,-158.57"/>
<polygon fill="midnightblue" stroke="midnightblue" points="524.24,-409.73 514.44,-413.74 524.61,-416.72 524.24,-409.73"/>
</g>
<!-- Node13 -->
<g id="node13" class="node">
<title>Node13</title>
<g id="a_node13"><a xlink:href="_object3_d_8cpp.html" target="_top" xlink:title=" ">
<polygon fill="white" stroke="black" points="315.2,-335.5 315.2,-365.5 442.2,-365.5 442.2,-335.5 315.2,-335.5"/>
<text text-anchor="start" x="323.2" y="-353.5" font-family="Helvetica,sans-Serif" font-size="10.00">D:/PathTracer/PathTracer</text>
<text text-anchor="middle" x="378.7" y="-342.5" font-family="Helvetica,sans-Serif" font-size="10.00">/Object3D.cpp</text>
</a>
</g>
</g>
<!-- Node1&#45;&gt;Node13 -->
<g id="edge16" class="edge">
<title>Node1&#45;&gt;Node13</title>
<path fill="none" stroke="midnightblue" d="M427.54,-395.6C416.67,-385.78 404,-374.34 394.29,-365.58"/>
<polygon fill="midnightblue" stroke="midnightblue" points="425.3,-398.29 435.07,-402.4 430,-393.1 425.3,-398.29"/>
</g>
<!-- Node14 -->
<g id="node14" class="node">
<title>Node14</title>
<g id="a_node14"><a xlink:href="_refractive_material_8h.html" target="_top" xlink:title="Defines the RefractiveMaterial class.">
<polygon fill="white" stroke="black" points="460.2,-335.5 460.2,-365.5 587.2,-365.5 587.2,-335.5 460.2,-335.5"/>
<text text-anchor="start" x="468.2" y="-353.5" font-family="Helvetica,sans-Serif" font-size="10.00">D:/PathTracer/PathTracer</text>
<text text-anchor="middle" x="523.7" y="-342.5" font-family="Helvetica,sans-Serif" font-size="10.00">/RefractiveMaterial.h</text>
</a>
</g>
</g>
<!-- Node1&#45;&gt;Node14 -->
<g id="edge18" class="edge">
<title>Node1&#45;&gt;Node14</title>
<path fill="none" stroke="midnightblue" d="M474.17,-395.6C485.19,-385.78 498.04,-374.34 507.89,-365.58"/>
<polygon fill="midnightblue" stroke="midnightblue" points="471.68,-393.13 466.54,-402.4 476.33,-398.36 471.68,-393.13"/>
</g>
<!-- Node16 -->
<g id="node16" class="node">
<title>Node16</title>
<g id="a_node16"><a xlink:href="_specular_material_8h.html" target="_top" xlink:title="Defines the SpecularMaterial class.">
<polygon fill="white" stroke="black" points="605.2,-335.5 605.2,-365.5 732.2,-365.5 732.2,-335.5 605.2,-335.5"/>
<text text-anchor="start" x="613.2" y="-353.5" font-family="Helvetica,sans-Serif" font-size="10.00">D:/PathTracer/PathTracer</text>
<text text-anchor="middle" x="668.7" y="-342.5" font-family="Helvetica,sans-Serif" font-size="10.00">/SpecularMaterial.h</text>
</a>
</g>
</g>
<!-- Node1&#45;&gt;Node16 -->
<g id="edge23" class="edge">
<title>Node1&#45;&gt;Node16</title>
<path fill="none" stroke="midnightblue" d="M507.44,-399.58C542.85,-389.02 587.89,-375.59 621.37,-365.61"/>
<polygon fill="midnightblue" stroke="midnightblue" points="506.31,-396.26 497.73,-402.48 508.31,-402.97 506.31,-396.26"/>
</g>
<!-- Node18 -->
<g id="node18" class="node">
<title>Node18</title>
<g id="a_node18"><a xlink:href="_sphere_8h.html" target="_top" xlink:title="Defines the Sphere class.">
<polygon fill="white" stroke="black" points="131.2,-335.5 131.2,-365.5 258.2,-365.5 258.2,-335.5 131.2,-335.5"/>
<text text-anchor="start" x="139.2" y="-353.5" font-family="Helvetica,sans-Serif" font-size="10.00">D:/PathTracer/PathTracer</text>
<text text-anchor="middle" x="194.7" y="-342.5" font-family="Helvetica,sans-Serif" font-size="10.00">/Sphere.h</text>
</a>
</g>
</g>
<!-- Node1&#45;&gt;Node18 -->
<g id="edge27" class="edge">
<title>Node1&#45;&gt;Node18</title>
<path fill="none" stroke="midnightblue" d="M385.65,-399.98C343.84,-389.37 290.09,-375.72 250.27,-365.61"/>
<polygon fill="midnightblue" stroke="midnightblue" points="384.91,-403.41 395.46,-402.48 386.63,-396.62 384.91,-403.41"/>
</g>
<!-- Node20 -->
<g id="node20" class="node">
<title>Node20</title>
<g id="a_node20"><a xlink:href="_triangle_8h.html" target="_top" xlink:title="Defines the Triangle class.">
<polygon fill="white" stroke="black" points="750.2,-335.5 750.2,-365.5 877.2,-365.5 877.2,-335.5 750.2,-335.5"/>
<text text-anchor="start" x="758.2" y="-353.5" font-family="Helvetica,sans-Serif" font-size="10.00">D:/PathTracer/PathTracer</text>
<text text-anchor="middle" x="813.7" y="-342.5" font-family="Helvetica,sans-Serif" font-size="10.00">/Triangle.h</text>
</a>
</g>
</g>
<!-- Node1&#45;&gt;Node20 -->
<g id="edge31" class="edge">
<title>Node1&#45;&gt;Node20</title>
<path fill="none" stroke="midnightblue" d="M524.34,-404.17C583.01,-394.23 667.2,-379.7 740.7,-366 743.74,-365.43 746.86,-364.84 750.01,-364.24"/>
<polygon fill="midnightblue" stroke="midnightblue" points="523.69,-400.73 514.42,-405.85 524.86,-407.63 523.69,-400.73"/>
</g>
<!-- Node3 -->
<g id="node3" class="node">
<title>Node3</title>
<g id="a_node3"><a xlink:href="_interface_8h.html" target="_top" xlink:title="Defines some functions for the interface.">
<polygon fill="white" stroke="black" points="107.2,-67.5 107.2,-97.5 234.2,-97.5 234.2,-67.5 107.2,-67.5"/>
<text text-anchor="start" x="115.2" y="-85.5" font-family="Helvetica,sans-Serif" font-size="10.00">D:/PathTracer/PathTracer</text>
<text text-anchor="middle" x="170.7" y="-74.5" font-family="Helvetica,sans-Serif" font-size="10.00">/Interface.h</text>
</a>
</g>
</g>
<!-- Node2&#45;&gt;Node3 -->
<g id="edge2" class="edge">
<title>Node2&#45;&gt;Node3</title>
<path fill="none" stroke="midnightblue" d="M411.13,-268.19C348.24,-259.93 222.61,-266.03 189.7,-232 154.1,-195.19 162.04,-127.1 167.59,-97.66"/>
<polygon fill="midnightblue" stroke="midnightblue" points="410.6,-271.65 421.02,-269.71 411.67,-264.73 410.6,-271.65"/>
</g>
<!-- Node6 -->
<g id="node6" class="node">
<title>Node6</title>
<g id="a_node6"><a xlink:href="_interface_gestion_8cpp.html" target="_top" xlink:title=" ">
<polygon fill="white" stroke="black" points="383.2,-201.5 383.2,-231.5 510.2,-231.5 510.2,-201.5 383.2,-201.5"/>
<text text-anchor="start" x="391.2" y="-219.5" font-family="Helvetica,sans-Serif" font-size="10.00">D:/PathTracer/PathTracer</text>
<text text-anchor="middle" x="446.7" y="-208.5" font-family="Helvetica,sans-Serif" font-size="10.00">/InterfaceGestion.cpp</text>
</a>
</g>
</g>
<!-- Node2&#45;&gt;Node6 -->
<g id="edge5" class="edge">
<title>Node2&#45;&gt;Node6</title>
<path fill="none" stroke="midnightblue" d="M471.29,-259.58C465.84,-250.24 459.7,-239.75 454.93,-231.58"/>
<polygon fill="midnightblue" stroke="midnightblue" points="468.38,-261.53 476.45,-268.4 474.43,-258 468.38,-261.53"/>
</g>
<!-- Node2&#45;&gt;Node7 -->
<g id="edge6" class="edge">
<title>Node2&#45;&gt;Node7</title>
<path fill="none" stroke="midnightblue" d="M410.87,-267.92C297.13,-248.92 266.46,-249.94 156.7,-232 152.07,-231.24 147.3,-230.43 142.51,-229.6"/>
<polygon fill="midnightblue" stroke="midnightblue" points="410.59,-271.43 421.03,-269.64 411.75,-264.52 410.59,-271.43"/>
</g>
<!-- Node2&#45;&gt;Node9 -->
<g id="edge15" class="edge">
<title>Node2&#45;&gt;Node9</title>
<path fill="none" stroke="midnightblue" d="M502.26,-260.1C508.18,-251.67 514.38,-241.76 518.7,-232 528.66,-209.48 534.18,-181.18 536.79,-164.54"/>
<polygon fill="midnightblue" stroke="midnightblue" points="499.35,-258.14 496.27,-268.28 505,-262.28 499.35,-258.14"/>
</g>
<!-- Node11 -->
<g id="node11" class="node">
<title>Node11</title>
<g id="a_node11"><a xlink:href="_picture_8h.html" target="_top" xlink:title="Defines the Picture class and the functions around it.">
<polygon fill="white" stroke="black" points="199.2,-201.5 199.2,-231.5 326.2,-231.5 326.2,-201.5 199.2,-201.5"/>
<text text-anchor="start" x="207.2" y="-219.5" font-family="Helvetica,sans-Serif" font-size="10.00">D:/PathTracer/PathTracer</text>
<text text-anchor="middle" x="262.7" y="-208.5" font-family="Helvetica,sans-Serif" font-size="10.00">/Picture.h</text>
</a>
</g>
</g>
<!-- Node2&#45;&gt;Node11 -->
<g id="edge12" class="edge">
<title>Node2&#45;&gt;Node11</title>
<path fill="none" stroke="midnightblue" d="M426.91,-265.58C390.85,-255.02 344.98,-241.59 310.89,-231.61"/>
<polygon fill="midnightblue" stroke="midnightblue" points="426.22,-269.02 436.8,-268.48 428.19,-262.31 426.22,-269.02"/>
</g>
<!-- Node4 -->
<g id="node4" class="node">
<title>Node4</title>
<g id="a_node4"><a xlink:href="_interface_8cpp.html" target="_top" xlink:title=" ">
<polygon fill="white" stroke="black" points="35.2,-0.5 35.2,-30.5 162.2,-30.5 162.2,-0.5 35.2,-0.5"/>
<text text-anchor="start" x="43.2" y="-18.5" font-family="Helvetica,sans-Serif" font-size="10.00">D:/PathTracer/PathTracer</text>
<text text-anchor="middle" x="98.7" y="-7.5" font-family="Helvetica,sans-Serif" font-size="10.00">/Interface.cpp</text>
</a>
</g>
</g>
<!-- Node3&#45;&gt;Node4 -->
<g id="edge3" class="edge">
<title>Node3&#45;&gt;Node4</title>
<path fill="none" stroke="midnightblue" d="M147.54,-60.6C136.67,-50.78 124,-39.34 114.29,-30.58"/>
<polygon fill="midnightblue" stroke="midnightblue" points="145.3,-63.29 155.07,-67.4 150,-58.1 145.3,-63.29"/>
</g>
<!-- Node5 -->
<g id="node5" class="node">
<title>Node5</title>
<g id="a_node5"><a xlink:href="main_8cpp.html" target="_top" xlink:title=" ">
<polygon fill="white" stroke="black" points="180.2,-0.5 180.2,-30.5 307.2,-30.5 307.2,-0.5 180.2,-0.5"/>
<text text-anchor="start" x="188.2" y="-18.5" font-family="Helvetica,sans-Serif" font-size="10.00">D:/PathTracer/PathTracer</text>
<text text-anchor="middle" x="243.7" y="-7.5" font-family="Helvetica,sans-Serif" font-size="10.00">/main.cpp</text>
</a>
</g>
</g>
<!-- Node3&#45;&gt;Node5 -->
<g id="edge4" class="edge">
<title>Node3&#45;&gt;Node5</title>
<path fill="none" stroke="midnightblue" d="M194.17,-60.6C205.19,-50.78 218.04,-39.34 227.89,-30.58"/>
<polygon fill="midnightblue" stroke="midnightblue" points="191.68,-58.13 186.54,-67.4 196.33,-63.36 191.68,-58.13"/>
</g>
<!-- Node7&#45;&gt;Node3 -->
<g id="edge7" class="edge">
<title>Node7&#45;&gt;Node3</title>
<path fill="none" stroke="midnightblue" d="M36.44,-196.08C24.29,-188.25 12.49,-177.96 5.7,-165 -0.7,-152.8 -2.5,-145.08 5.7,-134 28.86,-102.69 71.04,-90.16 106.96,-85.4"/>
<polygon fill="midnightblue" stroke="midnightblue" points="34.9,-199.23 45.29,-201.34 38.48,-193.22 34.9,-199.23"/>
</g>
<!-- Node8 -->
<g id="node8" class="node">
<title>Node8</title>
<g id="a_node8"><a xlink:href="_object3_d_group_8cpp.html" target="_top" xlink:title=" ">
<polygon fill="white" stroke="black" points="15.2,-134.5 15.2,-164.5 142.2,-164.5 142.2,-134.5 15.2,-134.5"/>
<text text-anchor="start" x="23.2" y="-152.5" font-family="Helvetica,sans-Serif" font-size="10.00">D:/PathTracer/PathTracer</text>
<text text-anchor="middle" x="78.7" y="-141.5" font-family="Helvetica,sans-Serif" font-size="10.00">/Object3DGroup.cpp</text>
</a>
</g>
</g>
<!-- Node7&#45;&gt;Node8 -->
<g id="edge8" class="edge">
<title>Node7&#45;&gt;Node8</title>
<path fill="none" stroke="midnightblue" d="M78.7,-191.11C78.7,-182.15 78.7,-172.32 78.7,-164.58"/>
<polygon fill="midnightblue" stroke="midnightblue" points="75.2,-191.4 78.7,-201.4 82.2,-191.4 75.2,-191.4"/>
</g>
<!-- Node7&#45;&gt;Node9 -->
<g id="edge9" class="edge">
<title>Node7&#45;&gt;Node9</title>
<path fill="none" stroke="midnightblue" d="M152.71,-205.04C241.96,-192.43 390.49,-171.44 474.91,-159.51"/>
<polygon fill="midnightblue" stroke="midnightblue" points="152.07,-201.6 142.66,-206.46 153.05,-208.53 152.07,-201.6"/>
</g>
<!-- Node9&#45;&gt;Node3 -->
<g id="edge10" class="edge">
<title>Node9&#45;&gt;Node3</title>
<path fill="none" stroke="midnightblue" d="M464.87,-135.46C397.29,-123.52 298.33,-106.04 234.21,-94.72"/>
<polygon fill="midnightblue" stroke="midnightblue" points="464.56,-138.96 475.02,-137.25 465.78,-132.07 464.56,-138.96"/>
</g>
<!-- Node10 -->
<g id="node10" class="node">
<title>Node10</title>
<g id="a_node10"><a xlink:href="_scene_8cpp.html" target="_top" xlink:title=" ">
<polygon fill="white" stroke="black" points="475.2,-67.5 475.2,-97.5 602.2,-97.5 602.2,-67.5 475.2,-67.5"/>
<text text-anchor="start" x="483.2" y="-85.5" font-family="Helvetica,sans-Serif" font-size="10.00">D:/PathTracer/PathTracer</text>
<text text-anchor="middle" x="538.7" y="-74.5" font-family="Helvetica,sans-Serif" font-size="10.00">/Scene.cpp</text>
</a>
</g>
</g>
<!-- Node9&#45;&gt;Node10 -->
<g id="edge11" class="edge">
<title>Node9&#45;&gt;Node10</title>
<path fill="none" stroke="midnightblue" d="M538.7,-124.11C538.7,-115.15 538.7,-105.32 538.7,-97.58"/>
<polygon fill="midnightblue" stroke="midnightblue" points="535.2,-124.4 538.7,-134.4 542.2,-124.4 535.2,-124.4"/>
</g>
<!-- Node11&#45;&gt;Node9 -->
<g id="edge14" class="edge">
<title>Node11&#45;&gt;Node9</title>
<path fill="none" stroke="midnightblue" d="M332.25,-199.12C377.42,-188.48 435.67,-174.76 478.78,-164.61"/>
<polygon fill="midnightblue" stroke="midnightblue" points="331.18,-195.78 322.24,-201.48 332.78,-202.59 331.18,-195.78"/>
</g>
<!-- Node12 -->
<g id="node12" class="node">
<title>Node12</title>
<g id="a_node12"><a xlink:href="_picture_8cpp.html" target="_top" xlink:title=" ">
<polygon fill="white" stroke="black" points="199.2,-134.5 199.2,-164.5 326.2,-164.5 326.2,-134.5 199.2,-134.5"/>
<text text-anchor="start" x="207.2" y="-152.5" font-family="Helvetica,sans-Serif" font-size="10.00">D:/PathTracer/PathTracer</text>
<text text-anchor="middle" x="262.7" y="-141.5" font-family="Helvetica,sans-Serif" font-size="10.00">/Picture.cpp</text>
</a>
</g>
</g>
<!-- Node11&#45;&gt;Node12 -->
<g id="edge13" class="edge">
<title>Node11&#45;&gt;Node12</title>
<path fill="none" stroke="midnightblue" d="M262.7,-191.11C262.7,-182.15 262.7,-172.32 262.7,-164.58"/>
<polygon fill="midnightblue" stroke="midnightblue" points="259.2,-191.4 262.7,-201.4 266.2,-191.4 259.2,-191.4"/>
</g>
<!-- Node14&#45;&gt;Node2 -->
<g id="edge19" class="edge">
<title>Node14&#45;&gt;Node2</title>
<path fill="none" stroke="midnightblue" d="M509.94,-326.58C504.34,-317.24 498.04,-306.75 493.14,-298.58"/>
<polygon fill="midnightblue" stroke="midnightblue" points="507.09,-328.62 515.23,-335.4 513.09,-325.02 507.09,-328.62"/>
</g>
<!-- Node14&#45;&gt;Node9 -->
<g id="edge21" class="edge">
<title>Node14&#45;&gt;Node9</title>
<path fill="none" stroke="midnightblue" d="M542.29,-327.14C548.08,-318.83 553.72,-308.98 556.7,-299 570.93,-251.21 553.69,-191.57 544.18,-164.74"/>
<polygon fill="midnightblue" stroke="midnightblue" points="539.47,-325.07 536.31,-335.19 545.08,-329.25 539.47,-325.07"/>
</g>
<!-- Node15 -->
<g id="node15" class="node">
<title>Node15</title>
<g id="a_node15"><a xlink:href="_refractive_material_8cpp.html" target="_top" xlink:title=" ">
<polygon fill="white" stroke="black" points="276.2,-268.5 276.2,-298.5 403.2,-298.5 403.2,-268.5 276.2,-268.5"/>
<text text-anchor="start" x="284.2" y="-286.5" font-family="Helvetica,sans-Serif" font-size="10.00">D:/PathTracer/PathTracer</text>
<text text-anchor="middle" x="339.7" y="-275.5" font-family="Helvetica,sans-Serif" font-size="10.00">/RefractiveMaterial.cpp</text>
</a>
</g>
</g>
<!-- Node14&#45;&gt;Node15 -->
<g id="edge20" class="edge">
<title>Node14&#45;&gt;Node15</title>
<path fill="none" stroke="midnightblue" d="M474.03,-331.96C444.39,-321.48 407.25,-308.37 379.54,-298.58"/>
<polygon fill="midnightblue" stroke="midnightblue" points="473.18,-335.37 483.77,-335.4 475.51,-328.76 473.18,-335.37"/>
</g>
<!-- Node16&#45;&gt;Node2 -->
<g id="edge24" class="edge">
<title>Node16&#45;&gt;Node2</title>
<path fill="none" stroke="midnightblue" d="M619.03,-331.96C589.39,-321.48 552.25,-308.37 524.54,-298.58"/>
<polygon fill="midnightblue" stroke="midnightblue" points="618.18,-335.37 628.77,-335.4 620.51,-328.76 618.18,-335.37"/>
</g>
<!-- Node16&#45;&gt;Node9 -->
<g id="edge25" class="edge">
<title>Node16&#45;&gt;Node9</title>
<path fill="none" stroke="midnightblue" d="M710.08,-330.16C722.18,-322.3 733.95,-311.97 740.7,-299 747.05,-286.78 747.57,-279.94 740.7,-268 708.74,-212.43 639.28,-180.7 590.79,-164.55"/>
<polygon fill="midnightblue" stroke="midnightblue" points="708.06,-327.29 701.28,-335.44 711.66,-333.29 708.06,-327.29"/>
</g>
<!-- Node17 -->
<g id="node17" class="node">
<title>Node17</title>
<g id="a_node17"><a xlink:href="_specular_material_8cpp.html" target="_top" xlink:title=" ">
<polygon fill="white" stroke="black" points="605.2,-268.5 605.2,-298.5 732.2,-298.5 732.2,-268.5 605.2,-268.5"/>
<text text-anchor="start" x="613.2" y="-286.5" font-family="Helvetica,sans-Serif" font-size="10.00">D:/PathTracer/PathTracer</text>
<text text-anchor="middle" x="668.7" y="-275.5" font-family="Helvetica,sans-Serif" font-size="10.00">/SpecularMaterial.cpp</text>
</a>
</g>
</g>
<!-- Node16&#45;&gt;Node17 -->
<g id="edge26" class="edge">
<title>Node16&#45;&gt;Node17</title>
<path fill="none" stroke="midnightblue" d="M668.7,-325.11C668.7,-316.15 668.7,-306.32 668.7,-298.58"/>
<polygon fill="midnightblue" stroke="midnightblue" points="665.2,-325.4 668.7,-335.4 672.2,-325.4 665.2,-325.4"/>
</g>
<!-- Node18&#45;&gt;Node2 -->
<g id="edge28" class="edge">
<title>Node18&#45;&gt;Node2</title>
<path fill="none" stroke="midnightblue" d="M267.18,-333.25C314.72,-322.6 376.26,-308.81 421.74,-298.61"/>
<polygon fill="midnightblue" stroke="midnightblue" points="266.26,-329.87 257.26,-335.48 267.79,-336.7 266.26,-329.87"/>
</g>
<!-- Node18&#45;&gt;Node9 -->
<g id="edge29" class="edge">
<title>Node18&#45;&gt;Node9</title>
<path fill="none" stroke="midnightblue" d="M210.66,-327.39C224.16,-309.76 244.77,-285.27 266.7,-268 293.56,-246.84 306.08,-250.72 334.7,-232 353.23,-219.88 354.1,-211.31 373.7,-201 405.38,-184.33 443.44,-172.22 475.01,-164.05"/>
<polygon fill="midnightblue" stroke="midnightblue" points="207.83,-325.32 204.62,-335.42 213.43,-329.53 207.83,-325.32"/>
</g>
<!-- Node19 -->
<g id="node19" class="node">
<title>Node19</title>
<g id="a_node19"><a xlink:href="_sphere_8cpp.html" target="_top" xlink:title=" ">
<polygon fill="white" stroke="black" points="92.2,-268.5 92.2,-298.5 219.2,-298.5 219.2,-268.5 92.2,-268.5"/>
<text text-anchor="start" x="100.2" y="-286.5" font-family="Helvetica,sans-Serif" font-size="10.00">D:/PathTracer/PathTracer</text>
<text text-anchor="middle" x="155.7" y="-275.5" font-family="Helvetica,sans-Serif" font-size="10.00">/Sphere.cpp</text>
</a>
</g>
</g>
<!-- Node18&#45;&gt;Node19 -->
<g id="edge30" class="edge">
<title>Node18&#45;&gt;Node19</title>
<path fill="none" stroke="midnightblue" d="M180.94,-326.58C175.34,-317.24 169.04,-306.75 164.14,-298.58"/>
<polygon fill="midnightblue" stroke="midnightblue" points="178.09,-328.62 186.23,-335.4 184.09,-325.02 178.09,-328.62"/>
</g>
<!-- Node20&#45;&gt;Node2 -->
<g id="edge32" class="edge">
<title>Node20&#45;&gt;Node2</title>
<path fill="none" stroke="midnightblue" d="M739.91,-334.85C668.46,-320.71 597.82,-306.78 548.35,-297.03"/>
<polygon fill="midnightblue" stroke="midnightblue" points="739.51,-338.33 750,-336.84 740.87,-331.47 739.51,-338.33"/>
</g>
<!-- Node20&#45;&gt;Node9 -->
<g id="edge33" class="edge">
<title>Node20&#45;&gt;Node9</title>
<path fill="none" stroke="midnightblue" d="M803.04,-325.81C786.95,-292.78 753.32,-233.32 706.7,-201 675.78,-179.57 635.6,-167.07 602.28,-159.86"/>
<polygon fill="midnightblue" stroke="midnightblue" points="800.02,-327.61 807.46,-335.16 806.35,-324.62 800.02,-327.61"/>
</g>
<!-- Node21 -->
<g id="node21" class="node">
<title>Node21</title>
<g id="a_node21"><a xlink:href="_triangle_8cpp.html" target="_top" xlink:title=" ">
<polygon fill="white" stroke="black" points="827.2,-268.5 827.2,-298.5 954.2,-298.5 954.2,-268.5 827.2,-268.5"/>
<text text-anchor="start" x="835.2" y="-286.5" font-family="Helvetica,sans-Serif" font-size="10.00">D:/PathTracer/PathTracer</text>
<text text-anchor="middle" x="890.7" y="-275.5" font-family="Helvetica,sans-Serif" font-size="10.00">/Triangle.cpp</text>
</a>
</g>
</g>
<!-- Node20&#45;&gt;Node21 -->
<g id="edge34" class="edge">
<title>Node20&#45;&gt;Node21</title>
<path fill="none" stroke="midnightblue" d="M838.12,-328.88C849.82,-319.01 863.53,-307.43 874.02,-298.58"/>
<polygon fill="midnightblue" stroke="midnightblue" points="835.79,-326.27 830.4,-335.4 840.3,-331.62 835.79,-326.27"/>
</g>
</g>
</svg>
        <g id="navigator" transform="translate(0 0)" fill="#404254">
                <rect fill="#f2f5e9" fill-opacity="0.5" stroke="#606060" stroke-width=".5" x="0" y="0" width="60" height="60"/>
                <use id="zoomplus" xlink:href="#zoomPlus" x="17" y="9" onmousedown="handleZoom(evt,'in')"/>
                <use id="zoomminus" xlink:href="#zoomMin" x="42" y="9" onmousedown="handleZoom(evt,'out')"/>
                <use id="reset" xlink:href="#resetDef" x="30" y="36" onmousedown="handleReset()"/>
                <g id="arrowUp" xlink:href="#dirArrow" transform="translate(30 24)" onmousedown="handlePan(0,-1)">
                  <use xlink:href="#rim" fill="#404040">
                        <set attributeName="fill" to="#808080" begin="arrowUp.mouseover" end="arrowUp.mouseout"/>
                  </use>
                  <path fill="none" stroke="white" stroke-width="1.5" d="M0,-3.0v7 M-2.5,-0.5L0,-3.0L2.5,-0.5"/>
                </g>
                <g id="arrowRight" xlink:href="#dirArrow" transform="rotate(90) translate(36 -43)" onmousedown="handlePan(1,0)">
                  <use xlink:href="#rim" fill="#404040">
                        <set attributeName="fill" to="#808080" begin="arrowRight.mouseover" end="arrowRight.mouseout"/>
                  </use>
                  <path fill="none" stroke="white" stroke-width="1.5" d="M0,-3.0v7 M-2.5,-0.5L0,-3.0L2.5,-0.5"/>
                </g>
                <g id="arrowDown" xlink:href="#dirArrow" transform="rotate(180) translate(-30 -48)" onmousedown="handlePan(0,1)">
                  <use xlink:href="#rim" fill="#404040">
                        <set attributeName="fill" to="#808080" begin="arrowDown.mouseover" end="arrowDown.mouseout"/>
                  </use>
                  <path fill="none" stroke="white" stroke-width="1.5" d="M0,-3.0v7 M-2.5,-0.5L0,-3.0L2.5,-0.5"/>
                </g>
                <g id="arrowLeft" xlink:href="#dirArrow" transform="rotate(270) translate(-36 17)" onmousedown="handlePan(-1,0)">
                  <use xlink:href="#rim" fill="#404040">
                        <set attributeName="fill" to="#808080" begin="arrowLeft.mouseover" end="arrowLeft.mouseout"/>
                  </use>
                  <path fill="none" stroke="white" stroke-width="1.5" d="M0,-3.0v7 M-2.5,-0.5L0,-3.0L2.5,-0.5"/>
                </g>
        </g>
        <svg viewBox="0 0 15 15" width="100%" height="30px" preserveAspectRatio="xMaxYMin meet">
         <g id="arrow_out" transform="scale(0.3 0.3)">
          <a xlink:href="_object3_d_8h__dep__incl_org.svg" target="_base">
           <rect id="button" ry="5" rx="5" y="6" x="6" height="38" width="38"
                fill="#f2f5e9" fill-opacity="0.5" stroke="#606060" stroke-width="1.0"/>
           <path id="arrow"
             d="M 11.500037,31.436501 C 11.940474,20.09759 22.043105,11.32322 32.158766,21.979434 L 37.068811,17.246167 C 37.068811,17.246167 37.088388,32 37.088388,32 L 22.160133,31.978069 C 22.160133,31.978069 26.997745,27.140456 26.997745,27.140456 C 18.528582,18.264221 13.291696,25.230495 11.500037,31.436501 z"
             style="fill:#404040;"/>
          </a>
         </g>
        </svg>
</svg>
