<?xml version="1.0" encoding="UTF-8" standalone="no"?>
<!DOCTYPE svg PUBLIC "-//W3C//DTD SVG 1.1//EN"
 "http://www.w3.org/Graphics/SVG/1.1/DTD/svg11.dtd">
<!-- Generated by graphviz version 2.44.1 (20200629.0800)
 -->
<!-- Title: D:/PathTracer/PathTracer/Object3D.cpp Pages: 1 -->
<svg width="338pt" height="431pt"
 viewBox="0.00 0.00 337.50 431.00" xmlns="http://www.w3.org/2000/svg" xmlns:xlink="http://www.w3.org/1999/xlink">
<g id="graph0" class="graph" transform="scale(1 1) rotate(0) translate(4 427)">
<title>D:/PathTracer/PathTracer/Object3D.cpp</title>
<polygon fill="white" stroke="transparent" points="-4,4 -4,-427 333.5,-427 333.5,4 -4,4"/>
<!-- Node1 -->
<g id="node1" class="node">
<title>Node1</title>
<g id="a_node1"><a xlink:title=" ">
<polygon fill="#bfbfbf" stroke="black" points="153,-392.5 153,-422.5 280,-422.5 280,-392.5 153,-392.5"/>
<text text-anchor="start" x="161" y="-410.5" font-family="Helvetica,sans-Serif" font-size="10.00">D:/PathTracer/PathTracer</text>
<text text-anchor="middle" x="216.5" y="-399.5" font-family="Helvetica,sans-Serif" font-size="10.00">/Object3D.cpp</text>
</a>
</g>
</g>
<!-- Node2 -->
<g id="node2" class="node">
<title>Node2</title>
<g id="a_node2"><a xlink:href="_object3_d_8h.html" target="_top" xlink:title="Defines the Object3D class and the functions around it.">
<polygon fill="white" stroke="black" points="184,-336.5 184,-355.5 249,-355.5 249,-336.5 184,-336.5"/>
<text text-anchor="middle" x="216.5" y="-343.5" font-family="Helvetica,sans-Serif" font-size="10.00">Object3D.h</text>
</a>
</g>
</g>
<!-- Node1&#45;&gt;Node2 -->
<g id="edge1" class="edge">
<title>Node1&#45;&gt;Node2</title>
<path fill="none" stroke="midnightblue" d="M216.5,-392.4C216.5,-384.47 216.5,-374.46 216.5,-365.86"/>
<polygon fill="midnightblue" stroke="midnightblue" points="220,-365.66 216.5,-355.66 213,-365.66 220,-365.66"/>
</g>
<!-- Node3 -->
<g id="node3" class="node">
<title>Node3</title>
<g id="a_node3"><a xlink:title=" ">
<polygon fill="white" stroke="#bfbfbf" points="38,-280.5 38,-299.5 79,-299.5 79,-280.5 38,-280.5"/>
<text text-anchor="middle" x="58.5" y="-287.5" font-family="Helvetica,sans-Serif" font-size="10.00">string</text>
</a>
</g>
</g>
<!-- Node2&#45;&gt;Node3 -->
<g id="edge2" class="edge">
<title>Node2&#45;&gt;Node3</title>
<path fill="none" stroke="midnightblue" d="M191.46,-336.44C163.63,-326.93 118.69,-311.57 88.87,-301.38"/>
<polygon fill="midnightblue" stroke="midnightblue" points="89.98,-298.06 79.38,-298.14 87.71,-304.68 89.98,-298.06"/>
</g>
<!-- Node4 -->
<g id="node4" class="node">
<title>Node4</title>
<g id="a_node4"><a xlink:href="_diffuse_material_8h.html" target="_top" xlink:title="Defines the DiffuseMaterial class.">
<polygon fill="white" stroke="black" points="136,-280.5 136,-299.5 225,-299.5 225,-280.5 136,-280.5"/>
<text text-anchor="middle" x="180.5" y="-287.5" font-family="Helvetica,sans-Serif" font-size="10.00">DiffuseMaterial.h</text>
</a>
</g>
</g>
<!-- Node2&#45;&gt;Node4 -->
<g id="edge3" class="edge">
<title>Node2&#45;&gt;Node4</title>
<path fill="none" stroke="midnightblue" d="M210.56,-336.08C205.52,-328.53 198.16,-317.49 191.99,-308.23"/>
<polygon fill="midnightblue" stroke="midnightblue" points="194.79,-306.13 186.33,-299.75 188.97,-310.01 194.79,-306.13"/>
</g>
<!-- Node6 -->
<g id="node6" class="node">
<title>Node6</title>
<g id="a_node6"><a xlink:href="_double_vec3_d_8h.html" target="_top" xlink:title="Defines the DoubleVec3D class and the functions around it.">
<polygon fill="white" stroke="black" points="113.5,-56.5 113.5,-75.5 197.5,-75.5 197.5,-56.5 113.5,-56.5"/>
<text text-anchor="middle" x="155.5" y="-63.5" font-family="Helvetica,sans-Serif" font-size="10.00">DoubleVec3D.h</text>
</a>
</g>
</g>
<!-- Node2&#45;&gt;Node6 -->
<g id="edge18" class="edge">
<title>Node2&#45;&gt;Node6</title>
<path fill="none" stroke="midnightblue" d="M236.7,-336.49C269.2,-321.29 329.5,-286.2 329.5,-235 329.5,-235 329.5,-235 329.5,-177 329.5,-144.19 319.7,-133.01 294.5,-112 269.95,-91.53 235.88,-80.31 207.62,-74.19"/>
<polygon fill="midnightblue" stroke="midnightblue" points="207.99,-70.7 197.5,-72.16 206.62,-77.56 207.99,-70.7"/>
</g>
<!-- Node10 -->
<g id="node10" class="node">
<title>Node10</title>
<g id="a_node10"><a xlink:href="_double_unit_vec3_d_8h.html" target="_top" xlink:title="Defines the DoubleUnitVec3D class and the functions around it.">
<polygon fill="white" stroke="black" points="184,-112.5 184,-131.5 285,-131.5 285,-112.5 184,-112.5"/>
<text text-anchor="middle" x="234.5" y="-119.5" font-family="Helvetica,sans-Serif" font-size="10.00">DoubleUnitVec3D.h</text>
</a>
</g>
</g>
<!-- Node2&#45;&gt;Node10 -->
<g id="edge19" class="edge">
<title>Node2&#45;&gt;Node10</title>
<path fill="none" stroke="midnightblue" d="M225.25,-336.29C233.06,-327.84 243.95,-314.25 248.5,-300 266.27,-244.33 250.05,-174.05 240.43,-141.32"/>
<polygon fill="midnightblue" stroke="midnightblue" points="243.77,-140.27 237.48,-131.74 237.08,-142.33 243.77,-140.27"/>
</g>
<!-- Node11 -->
<g id="node11" class="node">
<title>Node11</title>
<g id="a_node11"><a xlink:href="_material_8h.html" target="_top" xlink:title="Defines the Material class and the functions around it.">
<polygon fill="white" stroke="black" points="90,-224.5 90,-243.5 149,-243.5 149,-224.5 90,-224.5"/>
<text text-anchor="middle" x="119.5" y="-231.5" font-family="Helvetica,sans-Serif" font-size="10.00">Material.h</text>
</a>
</g>
</g>
<!-- Node2&#45;&gt;Node11 -->
<g id="edge20" class="edge">
<title>Node2&#45;&gt;Node11</title>
<path fill="none" stroke="midnightblue" d="M183.78,-336.87C164.25,-330.25 140.74,-318.84 127.5,-300 118.2,-286.77 116.77,-268.19 117.33,-254.28"/>
<polygon fill="midnightblue" stroke="midnightblue" points="120.85,-254.15 118.14,-243.91 113.87,-253.61 120.85,-254.15"/>
</g>
<!-- Node12 -->
<g id="node12" class="node">
<title>Node12</title>
<g id="a_node12"><a xlink:href="_ray_8h.html" target="_top" xlink:title="Defines the Ray class.">
<polygon fill="white" stroke="black" points="145.5,-168.5 145.5,-187.5 187.5,-187.5 187.5,-168.5 145.5,-168.5"/>
<text text-anchor="middle" x="166.5" y="-175.5" font-family="Helvetica,sans-Serif" font-size="10.00">Ray.h</text>
</a>
</g>
</g>
<!-- Node2&#45;&gt;Node12 -->
<g id="edge21" class="edge">
<title>Node2&#45;&gt;Node12</title>
<path fill="none" stroke="midnightblue" d="M222.19,-336.13C229.51,-323.57 240.59,-299.93 234.5,-280 224.22,-246.34 198.55,-213.74 181.85,-195.06"/>
<polygon fill="midnightblue" stroke="midnightblue" points="184.25,-192.49 174.9,-187.5 179.1,-197.23 184.25,-192.49"/>
</g>
<!-- Node5 -->
<g id="node5" class="node">
<title>Node5</title>
<g id="a_node5"><a xlink:title=" ">
<polygon fill="white" stroke="#bfbfbf" points="0,-0.5 0,-19.5 47,-19.5 47,-0.5 0,-0.5"/>
<text text-anchor="middle" x="23.5" y="-7.5" font-family="Helvetica,sans-Serif" font-size="10.00">math.h</text>
</a>
</g>
</g>
<!-- Node4&#45;&gt;Node5 -->
<g id="edge4" class="edge">
<title>Node4&#45;&gt;Node5</title>
<path fill="none" stroke="midnightblue" d="M143.29,-280.42C96.87,-267.26 23.5,-237.24 23.5,-179 23.5,-179 23.5,-179 23.5,-121 23.5,-88.95 23.5,-51.64 23.5,-29.75"/>
<polygon fill="midnightblue" stroke="midnightblue" points="27,-29.56 23.5,-19.56 20,-29.56 27,-29.56"/>
</g>
<!-- Node4&#45;&gt;Node6 -->
<g id="edge5" class="edge">
<title>Node4&#45;&gt;Node6</title>
<path fill="none" stroke="midnightblue" d="M136.49,-280.44C116.1,-274.03 93.71,-262.97 81.5,-244 46.26,-189.27 107.95,-114.95 139.12,-82.84"/>
<polygon fill="midnightblue" stroke="midnightblue" points="141.73,-85.18 146.31,-75.63 136.77,-80.24 141.73,-85.18"/>
</g>
<!-- Node4&#45;&gt;Node10 -->
<g id="edge10" class="edge">
<title>Node4&#45;&gt;Node10</title>
<path fill="none" stroke="midnightblue" d="M183.4,-280.08C191.94,-253.83 217.08,-176.55 228.61,-141.12"/>
<polygon fill="midnightblue" stroke="midnightblue" points="231.95,-142.16 231.71,-131.57 225.29,-139.99 231.95,-142.16"/>
</g>
<!-- Node4&#45;&gt;Node11 -->
<g id="edge12" class="edge">
<title>Node4&#45;&gt;Node11</title>
<path fill="none" stroke="midnightblue" d="M170.7,-280.32C161.68,-272.34 148.09,-260.31 137.18,-250.65"/>
<polygon fill="midnightblue" stroke="midnightblue" points="139.29,-247.84 129.48,-243.83 134.65,-253.08 139.29,-247.84"/>
</g>
<!-- Node4&#45;&gt;Node12 -->
<g id="edge17" class="edge">
<title>Node4&#45;&gt;Node12</title>
<path fill="none" stroke="midnightblue" d="M179.4,-280.37C177.14,-262.62 171.93,-221.67 168.87,-197.6"/>
<polygon fill="midnightblue" stroke="midnightblue" points="172.33,-197.07 167.59,-187.59 165.38,-197.95 172.33,-197.07"/>
</g>
<!-- Node6&#45;&gt;Node5 -->
<g id="edge7" class="edge">
<title>Node6&#45;&gt;Node5</title>
<path fill="none" stroke="midnightblue" d="M134.58,-56.44C112.76,-47.52 78.35,-33.44 53.61,-23.32"/>
<polygon fill="midnightblue" stroke="midnightblue" points="54.9,-20.06 44.32,-19.52 52.25,-26.54 54.9,-20.06"/>
</g>
<!-- Node7 -->
<g id="node7" class="node">
<title>Node7</title>
<g id="a_node7"><a xlink:title=" ">
<polygon fill="white" stroke="#bfbfbf" points="65.5,-0.5 65.5,-19.5 119.5,-19.5 119.5,-0.5 65.5,-0.5"/>
<text text-anchor="middle" x="92.5" y="-7.5" font-family="Helvetica,sans-Serif" font-size="10.00">iostream</text>
</a>
</g>
</g>
<!-- Node6&#45;&gt;Node7 -->
<g id="edge6" class="edge">
<title>Node6&#45;&gt;Node7</title>
<path fill="none" stroke="midnightblue" d="M145.38,-56.32C135.97,-48.26 121.76,-36.08 110.43,-26.37"/>
<polygon fill="midnightblue" stroke="midnightblue" points="112.68,-23.68 102.81,-19.83 108.12,-29 112.68,-23.68"/>
</g>
<!-- Node8 -->
<g id="node8" class="node">
<title>Node8</title>
<g id="a_node8"><a xlink:title=" ">
<polygon fill="white" stroke="#bfbfbf" points="137.5,-0.5 137.5,-19.5 235.5,-19.5 235.5,-0.5 137.5,-0.5"/>
<text text-anchor="middle" x="186.5" y="-7.5" font-family="Helvetica,sans-Serif" font-size="10.00">nlohmann/json.hpp</text>
</a>
</g>
</g>
<!-- Node6&#45;&gt;Node8 -->
<g id="edge8" class="edge">
<title>Node6&#45;&gt;Node8</title>
<path fill="none" stroke="midnightblue" d="M160.62,-56.08C164.91,-48.61 171.16,-37.72 176.44,-28.52"/>
<polygon fill="midnightblue" stroke="midnightblue" points="179.53,-30.17 181.48,-19.75 173.46,-26.68 179.53,-30.17"/>
</g>
<!-- Node9 -->
<g id="node9" class="node">
<title>Node9</title>
<g id="a_node9"><a xlink:title=" ">
<polygon fill="white" stroke="#bfbfbf" points="254,-0.5 254,-19.5 307,-19.5 307,-0.5 254,-0.5"/>
<text text-anchor="middle" x="280.5" y="-7.5" font-family="Helvetica,sans-Serif" font-size="10.00">fbxsdk.h</text>
</a>
</g>
</g>
<!-- Node6&#45;&gt;Node9 -->
<g id="edge9" class="edge">
<title>Node6&#45;&gt;Node9</title>
<path fill="none" stroke="midnightblue" d="M175.31,-56.44C195.79,-47.6 227.98,-33.69 251.36,-23.59"/>
<polygon fill="midnightblue" stroke="midnightblue" points="252.99,-26.7 260.79,-19.52 250.22,-20.27 252.99,-26.7"/>
</g>
<!-- Node10&#45;&gt;Node6 -->
<g id="edge11" class="edge">
<title>Node10&#45;&gt;Node6</title>
<path fill="none" stroke="midnightblue" d="M221.81,-112.32C209.6,-103.98 190.92,-91.21 176.5,-81.35"/>
<polygon fill="midnightblue" stroke="midnightblue" points="178.39,-78.41 168.16,-75.65 174.44,-84.19 178.39,-78.41"/>
</g>
<!-- Node11&#45;&gt;Node6 -->
<g id="edge13" class="edge">
<title>Node11&#45;&gt;Node6</title>
<path fill="none" stroke="midnightblue" d="M121.44,-224.08C127.1,-197.95 143.74,-121.21 151.47,-85.58"/>
<polygon fill="midnightblue" stroke="midnightblue" points="154.94,-86.08 153.64,-75.57 148.1,-84.6 154.94,-86.08"/>
</g>
<!-- Node11&#45;&gt;Node12 -->
<g id="edge14" class="edge">
<title>Node11&#45;&gt;Node12</title>
<path fill="none" stroke="midnightblue" d="M127.26,-224.08C134.04,-216.3 144.04,-204.8 152.26,-195.37"/>
<polygon fill="midnightblue" stroke="midnightblue" points="154.96,-197.59 158.88,-187.75 149.68,-193 154.96,-197.59"/>
</g>
<!-- Node12&#45;&gt;Node6 -->
<g id="edge15" class="edge">
<title>Node12&#45;&gt;Node6</title>
<path fill="none" stroke="midnightblue" d="M165.64,-168.37C163.86,-150.62 159.77,-109.67 157.36,-85.6"/>
<polygon fill="midnightblue" stroke="midnightblue" points="160.84,-85.19 156.36,-75.59 153.87,-85.89 160.84,-85.19"/>
</g>
<!-- Node12&#45;&gt;Node10 -->
<g id="edge16" class="edge">
<title>Node12&#45;&gt;Node10</title>
<path fill="none" stroke="midnightblue" d="M177.43,-168.32C187.67,-160.18 203.22,-147.84 215.5,-138.09"/>
<polygon fill="midnightblue" stroke="midnightblue" points="217.72,-140.79 223.38,-131.83 213.37,-135.31 217.72,-140.79"/>
</g>
</g>
</svg>
