<?xml version="1.0" encoding="UTF-8" standalone="no"?>
<!DOCTYPE svg PUBLIC "-//W3C//DTD SVG 1.1//EN"
 "http://www.w3.org/Graphics/SVG/1.1/DTD/svg11.dtd">
<!-- Generated by graphviz version 2.44.1 (20200629.0800)
 -->
<!-- Title: D:/PathTracer/PathTracer/PerspectiveCamera.h Pages: 1 -->
<svg width="317pt" height="263pt"
 viewBox="0.00 0.00 317.00 263.00" xmlns="http://www.w3.org/2000/svg" xmlns:xlink="http://www.w3.org/1999/xlink">
<g id="graph0" class="graph" transform="scale(1 1) rotate(0) translate(4 259)">
<title>D:/PathTracer/PathTracer/PerspectiveCamera.h</title>
<polygon fill="white" stroke="transparent" points="-4,4 -4,-259 313,-259 313,4 -4,4"/>
<!-- Node1 -->
<g id="node1" class="node">
<title>Node1</title>
<g id="a_node1"><a xlink:title="Defines the PerspectiveCamera class.">
<polygon fill="#bfbfbf" stroke="black" points="0,-224.5 0,-254.5 127,-254.5 127,-224.5 0,-224.5"/>
<text text-anchor="start" x="8" y="-242.5" font-family="Helvetica,sans-Serif" font-size="10.00">D:/PathTracer/PathTracer</text>
<text text-anchor="middle" x="63.5" y="-231.5" font-family="Helvetica,sans-Serif" font-size="10.00">/PerspectiveCamera.h</text>
</a>
</g>
</g>
<!-- Node2 -->
<g id="node2" class="node">
<title>Node2</title>
<g id="a_node2"><a xlink:title=" ">
<polygon fill="white" stroke="#bfbfbf" points="2,-0.5 2,-19.5 49,-19.5 49,-0.5 2,-0.5"/>
<text text-anchor="middle" x="25.5" y="-7.5" font-family="Helvetica,sans-Serif" font-size="10.00">math.h</text>
</a>
</g>
</g>
<!-- Node1&#45;&gt;Node2 -->
<g id="edge1" class="edge">
<title>Node1&#45;&gt;Node2</title>
<path fill="none" stroke="midnightblue" d="M61.12,-224.27C54.55,-184.89 36.1,-74.49 28.67,-29.97"/>
<polygon fill="midnightblue" stroke="midnightblue" points="32.09,-29.21 26.99,-19.93 25.19,-30.37 32.09,-29.21"/>
</g>
<!-- Node3 -->
<g id="node3" class="node">
<title>Node3</title>
<g id="a_node3"><a xlink:href="_double_vec3_d_8h.html" target="_top" xlink:title="Defines the DoubleVec3D class and the functions around it.">
<polygon fill="white" stroke="black" points="59.5,-56.5 59.5,-75.5 143.5,-75.5 143.5,-56.5 59.5,-56.5"/>
<text text-anchor="middle" x="101.5" y="-63.5" font-family="Helvetica,sans-Serif" font-size="10.00">DoubleVec3D.h</text>
</a>
</g>
</g>
<!-- Node1&#45;&gt;Node3 -->
<g id="edge2" class="edge">
<title>Node1&#45;&gt;Node3</title>
<path fill="none" stroke="midnightblue" d="M66.61,-224.47C73.43,-193.7 89.68,-120.33 97.36,-85.7"/>
<polygon fill="midnightblue" stroke="midnightblue" points="100.86,-86.08 99.6,-75.56 94.02,-84.57 100.86,-86.08"/>
</g>
<!-- Node7 -->
<g id="node7" class="node">
<title>Node7</title>
<g id="a_node7"><a xlink:href="_ray_8h.html" target="_top" xlink:title="Defines the Ray class.">
<polygon fill="white" stroke="black" points="91.5,-168.5 91.5,-187.5 133.5,-187.5 133.5,-168.5 91.5,-168.5"/>
<text text-anchor="middle" x="112.5" y="-175.5" font-family="Helvetica,sans-Serif" font-size="10.00">Ray.h</text>
</a>
</g>
</g>
<!-- Node1&#45;&gt;Node7 -->
<g id="edge7" class="edge">
<title>Node1&#45;&gt;Node7</title>
<path fill="none" stroke="midnightblue" d="M75.11,-224.4C82.23,-215.75 91.38,-204.64 98.85,-195.58"/>
<polygon fill="midnightblue" stroke="midnightblue" points="101.71,-197.6 105.37,-187.66 96.31,-193.15 101.71,-197.6"/>
</g>
<!-- Node3&#45;&gt;Node2 -->
<g id="edge4" class="edge">
<title>Node3&#45;&gt;Node2</title>
<path fill="none" stroke="midnightblue" d="M89.29,-56.32C77.72,-48.11 60.12,-35.6 46.34,-25.81"/>
<polygon fill="midnightblue" stroke="midnightblue" points="48.11,-22.77 37.93,-19.83 44.06,-28.48 48.11,-22.77"/>
</g>
<!-- Node4 -->
<g id="node4" class="node">
<title>Node4</title>
<g id="a_node4"><a xlink:title=" ">
<polygon fill="white" stroke="#bfbfbf" points="67.5,-0.5 67.5,-19.5 121.5,-19.5 121.5,-0.5 67.5,-0.5"/>
<text text-anchor="middle" x="94.5" y="-7.5" font-family="Helvetica,sans-Serif" font-size="10.00">iostream</text>
</a>
</g>
</g>
<!-- Node3&#45;&gt;Node4 -->
<g id="edge3" class="edge">
<title>Node3&#45;&gt;Node4</title>
<path fill="none" stroke="midnightblue" d="M100.34,-56.08C99.42,-48.93 98.08,-38.64 96.92,-29.69"/>
<polygon fill="midnightblue" stroke="midnightblue" points="100.39,-29.22 95.63,-19.75 93.45,-30.12 100.39,-29.22"/>
</g>
<!-- Node5 -->
<g id="node5" class="node">
<title>Node5</title>
<g id="a_node5"><a xlink:title=" ">
<polygon fill="white" stroke="#bfbfbf" points="139.5,-0.5 139.5,-19.5 237.5,-19.5 237.5,-0.5 139.5,-0.5"/>
<text text-anchor="middle" x="188.5" y="-7.5" font-family="Helvetica,sans-Serif" font-size="10.00">nlohmann/json.hpp</text>
</a>
</g>
</g>
<!-- Node3&#45;&gt;Node5 -->
<g id="edge5" class="edge">
<title>Node3&#45;&gt;Node5</title>
<path fill="none" stroke="midnightblue" d="M115.48,-56.32C129.05,-47.9 149.88,-34.97 165.82,-25.07"/>
<polygon fill="midnightblue" stroke="midnightblue" points="167.91,-27.9 174.56,-19.65 164.21,-21.95 167.91,-27.9"/>
</g>
<!-- Node6 -->
<g id="node6" class="node">
<title>Node6</title>
<g id="a_node6"><a xlink:title=" ">
<polygon fill="white" stroke="#bfbfbf" points="256,-0.5 256,-19.5 309,-19.5 309,-0.5 256,-0.5"/>
<text text-anchor="middle" x="282.5" y="-7.5" font-family="Helvetica,sans-Serif" font-size="10.00">fbxsdk.h</text>
</a>
</g>
</g>
<!-- Node3&#45;&gt;Node6 -->
<g id="edge6" class="edge">
<title>Node3&#45;&gt;Node6</title>
<path fill="none" stroke="midnightblue" d="M130.18,-56.44C161.57,-47.08 211.97,-32.04 246.12,-21.85"/>
<polygon fill="midnightblue" stroke="midnightblue" points="247.14,-25.2 255.72,-18.99 245.14,-18.49 247.14,-25.2"/>
</g>
<!-- Node7&#45;&gt;Node3 -->
<g id="edge8" class="edge">
<title>Node7&#45;&gt;Node3</title>
<path fill="none" stroke="midnightblue" d="M111.64,-168.37C109.86,-150.62 105.77,-109.67 103.36,-85.6"/>
<polygon fill="midnightblue" stroke="midnightblue" points="106.84,-85.19 102.36,-75.59 99.87,-85.89 106.84,-85.19"/>
</g>
<!-- Node8 -->
<g id="node8" class="node">
<title>Node8</title>
<g id="a_node8"><a xlink:href="_double_unit_vec3_d_8h.html" target="_top" xlink:title="Defines the DoubleUnitVec3D class and the functions around it.">
<polygon fill="white" stroke="black" points="130,-112.5 130,-131.5 231,-131.5 231,-112.5 130,-112.5"/>
<text text-anchor="middle" x="180.5" y="-119.5" font-family="Helvetica,sans-Serif" font-size="10.00">DoubleUnitVec3D.h</text>
</a>
</g>
</g>
<!-- Node7&#45;&gt;Node8 -->
<g id="edge9" class="edge">
<title>Node7&#45;&gt;Node8</title>
<path fill="none" stroke="midnightblue" d="M123.43,-168.32C133.67,-160.18 149.22,-147.84 161.5,-138.09"/>
<polygon fill="midnightblue" stroke="midnightblue" points="163.72,-140.79 169.38,-131.83 159.37,-135.31 163.72,-140.79"/>
</g>
<!-- Node8&#45;&gt;Node3 -->
<g id="edge10" class="edge">
<title>Node8&#45;&gt;Node3</title>
<path fill="none" stroke="midnightblue" d="M167.81,-112.32C155.6,-103.98 136.92,-91.21 122.5,-81.35"/>
<polygon fill="midnightblue" stroke="midnightblue" points="124.39,-78.41 114.16,-75.65 120.44,-84.19 124.39,-78.41"/>
</g>
</g>
</svg>
