<?xml version="1.0" encoding="UTF-8" standalone="no"?>
<!DOCTYPE svg PUBLIC "-//W3C//DTD SVG 1.1//EN"
 "http://www.w3.org/Graphics/SVG/1.1/DTD/svg11.dtd">
<!-- Generated by graphviz version 2.44.1 (20200629.0800)
 -->
<!-- Title: D:/PathTracer/PathTracer/Picture.h Pages: 1 -->
<!--zoomable 543 -->
<svg id="main" version="1.1" xmlns="http://www.w3.org/2000/svg" xmlns:xlink="http://www.w3.org/1999/xlink" xml:space="preserve" onload="init(evt)">
<style type="text/css"><![CDATA[
.edge:hover path { stroke: red; }
.edge:hover polygon { stroke: red; fill: red; }
]]></style>
<script type="text/javascript"><![CDATA[
var edges = document.getElementsByTagName('g');
if (edges && edges.length) {
  for (var i=0;i<edges.length;i++) {
    if (edges[i].id.substr(0,4)=='edge') {
      edges[i].setAttribute('class','edge');
    }
  }
}
]]></script>
        <defs>
                <circle id="rim" cx="0" cy="0" r="7"/>
                <circle id="rim2" cx="0" cy="0" r="3.5"/>
                <g id="zoomPlus">
                        <use xlink:href="#rim" fill="#404040">
                                <set attributeName="fill" to="#808080" begin="zoomplus.mouseover" end="zoomplus.mouseout"/>
                        </use>
                        <path d="M-4,0h8M0,-4v8" fill="none" stroke="white" stroke-width="1.5" pointer-events="none"/>
                </g>
                <g id="zoomMin">
                        <use xlink:href="#rim" fill="#404040">
                                <set attributeName="fill" to="#808080" begin="zoomminus.mouseover" end="zoomminus.mouseout"/>
                        </use>
                        <path d="M-4,0h8" fill="none" stroke="white" stroke-width="1.5" pointer-events="none"/>
                </g>
                <g id="dirArrow">
                        <path fill="none" stroke="white" stroke-width="1.5" d="M0,-3.0v7 M-2.5,-0.5L0,-3.0L2.5,-0.5"/>
                </g>
               <g id="resetDef">
                       <use xlink:href="#rim2" fill="#404040">
                               <set attributeName="fill" to="#808080" begin="reset.mouseover" end="reset.mouseout"/>
                       </use>
               </g>
        </defs>

<script type="text/javascript">
var viewWidth = 1244;
var viewHeight = 543;
var sectionId = 'dynsection-0';
</script>
<script xlink:href="svgpan.js"/>
<svg id="graph" class="graph">
<g id="viewport">
<title>D:/PathTracer/PathTracer/Picture.h</title>
<polygon fill="white" stroke="transparent" points="-4,4 -4,-539 1239.5,-539 1239.5,4 -4,4"/>
<!-- Node1 -->
<g id="node1" class="node">
<title>Node1</title>
<g id="a_node1"><a xlink:title="Defines the Picture class and the functions around it.">
<polygon fill="#bfbfbf" stroke="black" points="175.5,-504.5 175.5,-534.5 302.5,-534.5 302.5,-504.5 175.5,-504.5"/>
<text text-anchor="start" x="183.5" y="-522.5" font-family="Helvetica,sans-Serif" font-size="10.00">D:/PathTracer/PathTracer</text>
<text text-anchor="middle" x="239" y="-511.5" font-family="Helvetica,sans-Serif" font-size="10.00">/Picture.h</text>
</a>
</g>
</g>
<!-- Node2 -->
<g id="node2" class="node">
<title>Node2</title>
<g id="a_node2"><a xlink:title=" ">
<polygon fill="white" stroke="#bfbfbf" points="0,-448.5 0,-467.5 56,-467.5 56,-448.5 0,-448.5"/>
<text text-anchor="middle" x="28" y="-455.5" font-family="Helvetica,sans-Serif" font-size="10.00">algorithm</text>
</a>
</g>
</g>
<!-- Node1&#45;&gt;Node2 -->
<g id="edge1" class="edge">
<title>Node1&#45;&gt;Node2</title>
<path fill="none" stroke="midnightblue" d="M189.26,-504.47C151.45,-493.81 100.22,-479.37 65.74,-469.64"/>
<polygon fill="midnightblue" stroke="midnightblue" points="66.62,-466.25 56.05,-466.91 64.72,-472.99 66.62,-466.25"/>
</g>
<!-- Node3 -->
<g id="node3" class="node">
<title>Node3</title>
<g id="a_node3"><a xlink:title=" ">
<polygon fill="white" stroke="#bfbfbf" points="150,-392.5 150,-411.5 196,-411.5 196,-392.5 150,-392.5"/>
<text text-anchor="middle" x="173" y="-399.5" font-family="Helvetica,sans-Serif" font-size="10.00">chrono</text>
</a>
</g>
</g>
<!-- Node1&#45;&gt;Node3 -->
<g id="edge2" class="edge">
<title>Node1&#45;&gt;Node3</title>
<path fill="none" stroke="midnightblue" d="M230.91,-504.34C218.85,-483.24 196.2,-443.6 183.08,-420.65"/>
<polygon fill="midnightblue" stroke="midnightblue" points="185.95,-418.62 177.95,-411.67 179.88,-422.09 185.95,-418.62"/>
</g>
<!-- Node4 -->
<g id="node4" class="node">
<title>Node4</title>
<g id="a_node4"><a xlink:title=" ">
<polygon fill="white" stroke="#bfbfbf" points="214.5,-392.5 214.5,-411.5 263.5,-411.5 263.5,-392.5 214.5,-392.5"/>
<text text-anchor="middle" x="239" y="-399.5" font-family="Helvetica,sans-Serif" font-size="10.00">fstream</text>
</a>
</g>
</g>
<!-- Node1&#45;&gt;Node4 -->
<g id="edge3" class="edge">
<title>Node1&#45;&gt;Node4</title>
<path fill="none" stroke="midnightblue" d="M239,-504.34C239,-483.62 239,-445.02 239,-421.9"/>
<polygon fill="midnightblue" stroke="midnightblue" points="242.5,-421.67 239,-411.67 235.5,-421.67 242.5,-421.67"/>
</g>
<!-- Node5 -->
<g id="node5" class="node">
<title>Node5</title>
<g id="a_node5"><a xlink:title=" ">
<polygon fill="white" stroke="#bfbfbf" points="1094,-448.5 1094,-467.5 1144,-467.5 1144,-448.5 1094,-448.5"/>
<text text-anchor="middle" x="1119" y="-455.5" font-family="Helvetica,sans-Serif" font-size="10.00">iomanip</text>
</a>
</g>
</g>
<!-- Node1&#45;&gt;Node5 -->
<g id="edge4" class="edge">
<title>Node1&#45;&gt;Node5</title>
<path fill="none" stroke="midnightblue" d="M302.67,-518.29C443.52,-517.04 791.91,-509.59 1080,-468 1081.28,-467.82 1082.57,-467.61 1083.88,-467.39"/>
<polygon fill="midnightblue" stroke="midnightblue" points="1084.79,-470.78 1093.94,-465.43 1083.46,-463.91 1084.79,-470.78"/>
</g>
<!-- Node6 -->
<g id="node6" class="node">
<title>Node6</title>
<g id="a_node6"><a xlink:title=" ">
<polygon fill="white" stroke="#bfbfbf" points="269,-0.5 269,-19.5 323,-19.5 323,-0.5 269,-0.5"/>
<text text-anchor="middle" x="296" y="-7.5" font-family="Helvetica,sans-Serif" font-size="10.00">iostream</text>
</a>
</g>
</g>
<!-- Node1&#45;&gt;Node6 -->
<g id="edge5" class="edge">
<title>Node1&#45;&gt;Node6</title>
<path fill="none" stroke="midnightblue" d="M189.53,-504.46C144.17,-488.19 84,-456.53 84,-403 84,-403 84,-403 84,-121 84,-43.19 197.9,-20.35 258.73,-13.7"/>
<polygon fill="midnightblue" stroke="midnightblue" points="259.12,-17.18 268.72,-12.7 258.42,-10.21 259.12,-17.18"/>
</g>
<!-- Node7 -->
<g id="node7" class="node">
<title>Node7</title>
<g id="a_node7"><a xlink:title=" ">
<polygon fill="white" stroke="#bfbfbf" points="128.5,-280.5 128.5,-299.5 169.5,-299.5 169.5,-280.5 128.5,-280.5"/>
<text text-anchor="middle" x="149" y="-287.5" font-family="Helvetica,sans-Serif" font-size="10.00">string</text>
</a>
</g>
</g>
<!-- Node1&#45;&gt;Node7 -->
<g id="edge6" class="edge">
<title>Node1&#45;&gt;Node7</title>
<path fill="none" stroke="midnightblue" d="M218.93,-504.31C195.09,-486.1 156.61,-452.03 141,-412 127.6,-377.64 136.28,-333.65 143.1,-309.29"/>
<polygon fill="midnightblue" stroke="midnightblue" points="146.49,-310.18 146.02,-299.59 139.79,-308.16 146.49,-310.18"/>
</g>
<!-- Node8 -->
<g id="node8" class="node">
<title>Node8</title>
<g id="a_node8"><a xlink:title=" ">
<polygon fill="white" stroke="#bfbfbf" points="1162.5,-448.5 1162.5,-467.5 1235.5,-467.5 1235.5,-448.5 1162.5,-448.5"/>
<text text-anchor="middle" x="1199" y="-455.5" font-family="Helvetica,sans-Serif" font-size="10.00">CImg/CImg.h</text>
</a>
</g>
</g>
<!-- Node1&#45;&gt;Node8 -->
<g id="edge7" class="edge">
<title>Node1&#45;&gt;Node8</title>
<path fill="none" stroke="midnightblue" d="M302.71,-518C450.39,-516.19 827.59,-507.82 1152.34,-467.88"/>
<polygon fill="midnightblue" stroke="midnightblue" points="1152.92,-471.34 1162.42,-466.63 1152.06,-464.39 1152.92,-471.34"/>
</g>
<!-- Node9 -->
<g id="node9" class="node">
<title>Node9</title>
<g id="a_node9"><a xlink:href="_double_vec3_d_8h.html" target="_top" xlink:title="Defines the DoubleVec3D class and the functions around it.">
<polygon fill="white" stroke="black" points="632,-56.5 632,-75.5 716,-75.5 716,-56.5 632,-56.5"/>
<text text-anchor="middle" x="674" y="-63.5" font-family="Helvetica,sans-Serif" font-size="10.00">DoubleVec3D.h</text>
</a>
</g>
</g>
<!-- Node1&#45;&gt;Node9 -->
<g id="edge8" class="edge">
<title>Node1&#45;&gt;Node9</title>
<path fill="none" stroke="midnightblue" d="M302.52,-516.3C496.17,-508.76 1066,-480.02 1066,-403 1066,-403 1066,-403 1066,-177 1066,-130.15 1026.07,-130.44 983,-112 898.14,-75.67 789.47,-67.76 726.2,-66.54"/>
<polygon fill="midnightblue" stroke="midnightblue" points="726.12,-63.04 716.07,-66.39 726.02,-70.04 726.12,-63.04"/>
</g>
<!-- Node13 -->
<g id="node13" class="node">
<title>Node13</title>
<g id="a_node13"><a xlink:href="_interface_gestion_8h.html" target="_top" xlink:title="Defines functions that are used when drawing the interface.">
<polygon fill="white" stroke="black" points="444.5,-448.5 444.5,-467.5 539.5,-467.5 539.5,-448.5 444.5,-448.5"/>
<text text-anchor="middle" x="492" y="-455.5" font-family="Helvetica,sans-Serif" font-size="10.00">InterfaceGestion.h</text>
</a>
</g>
</g>
<!-- Node1&#45;&gt;Node13 -->
<g id="edge13" class="edge">
<title>Node1&#45;&gt;Node13</title>
<path fill="none" stroke="midnightblue" d="M298.64,-504.47C343.71,-493.87 404.69,-479.53 446.03,-469.81"/>
<polygon fill="midnightblue" stroke="midnightblue" points="446.9,-473.2 455.83,-467.51 445.29,-466.39 446.9,-473.2"/>
</g>
<!-- Node9&#45;&gt;Node6 -->
<g id="edge9" class="edge">
<title>Node9&#45;&gt;Node6</title>
<path fill="none" stroke="midnightblue" d="M631.74,-58.96C557.34,-48.33 404.17,-26.45 333.38,-16.34"/>
<polygon fill="midnightblue" stroke="midnightblue" points="333.55,-12.83 323.16,-14.88 332.56,-19.76 333.55,-12.83"/>
</g>
<!-- Node10 -->
<g id="node10" class="node">
<title>Node10</title>
<g id="a_node10"><a xlink:title=" ">
<polygon fill="white" stroke="#bfbfbf" points="650.5,-0.5 650.5,-19.5 697.5,-19.5 697.5,-0.5 650.5,-0.5"/>
<text text-anchor="middle" x="674" y="-7.5" font-family="Helvetica,sans-Serif" font-size="10.00">math.h</text>
</a>
</g>
</g>
<!-- Node9&#45;&gt;Node10 -->
<g id="edge10" class="edge">
<title>Node9&#45;&gt;Node10</title>
<path fill="none" stroke="midnightblue" d="M674,-56.08C674,-49.01 674,-38.86 674,-29.99"/>
<polygon fill="midnightblue" stroke="midnightblue" points="677.5,-29.75 674,-19.75 670.5,-29.75 677.5,-29.75"/>
</g>
<!-- Node11 -->
<g id="node11" class="node">
<title>Node11</title>
<g id="a_node11"><a xlink:title=" ">
<polygon fill="white" stroke="#bfbfbf" points="716,-0.5 716,-19.5 814,-19.5 814,-0.5 716,-0.5"/>
<text text-anchor="middle" x="765" y="-7.5" font-family="Helvetica,sans-Serif" font-size="10.00">nlohmann/json.hpp</text>
</a>
</g>
</g>
<!-- Node9&#45;&gt;Node11 -->
<g id="edge11" class="edge">
<title>Node9&#45;&gt;Node11</title>
<path fill="none" stroke="midnightblue" d="M688.62,-56.32C702.95,-47.82 725.01,-34.73 741.75,-24.8"/>
<polygon fill="midnightblue" stroke="midnightblue" points="743.6,-27.77 750.42,-19.65 740.03,-21.75 743.6,-27.77"/>
</g>
<!-- Node12 -->
<g id="node12" class="node">
<title>Node12</title>
<g id="a_node12"><a xlink:title=" ">
<polygon fill="white" stroke="#bfbfbf" points="579.5,-0.5 579.5,-19.5 632.5,-19.5 632.5,-0.5 579.5,-0.5"/>
<text text-anchor="middle" x="606" y="-7.5" font-family="Helvetica,sans-Serif" font-size="10.00">fbxsdk.h</text>
</a>
</g>
</g>
<!-- Node9&#45;&gt;Node12 -->
<g id="edge12" class="edge">
<title>Node9&#45;&gt;Node12</title>
<path fill="none" stroke="midnightblue" d="M663.07,-56.32C652.83,-48.18 637.28,-35.84 625,-26.09"/>
<polygon fill="midnightblue" stroke="midnightblue" points="627.13,-23.31 617.12,-19.83 622.78,-28.79 627.13,-23.31"/>
</g>
<!-- Node13&#45;&gt;Node3 -->
<g id="edge14" class="edge">
<title>Node13&#45;&gt;Node3</title>
<path fill="none" stroke="midnightblue" d="M444.45,-451.3C389.33,-444.31 295.6,-431.22 206.35,-412.09"/>
<polygon fill="midnightblue" stroke="midnightblue" points="206.85,-408.61 196.34,-409.91 205.37,-415.45 206.85,-408.61"/>
</g>
<!-- Node13&#45;&gt;Node4 -->
<g id="edge15" class="edge">
<title>Node13&#45;&gt;Node4</title>
<path fill="none" stroke="midnightblue" d="M450.12,-448.45C406.94,-439.57 337.69,-425.16 278,-412 276.56,-411.68 275.09,-411.35 273.6,-411.02"/>
<polygon fill="midnightblue" stroke="midnightblue" points="274.27,-407.58 263.74,-408.79 272.72,-414.41 274.27,-407.58"/>
</g>
<!-- Node13&#45;&gt;Node7 -->
<g id="edge17" class="edge">
<title>Node13&#45;&gt;Node7</title>
<path fill="none" stroke="midnightblue" d="M445.36,-448.49C408.27,-440.99 355.42,-428.66 311,-412 292.76,-405.16 289.7,-400.14 272,-392 233.61,-374.34 215.42,-384.26 184,-356 170.03,-343.43 160.58,-323.94 155.06,-309.57"/>
<polygon fill="midnightblue" stroke="midnightblue" points="158.23,-308.05 151.59,-299.79 151.63,-310.38 158.23,-308.05"/>
</g>
<!-- Node13&#45;&gt;Node9 -->
<g id="edge59" class="edge">
<title>Node13&#45;&gt;Node9</title>
<path fill="none" stroke="midnightblue" d="M539.57,-457.28C670.75,-456.77 1028,-446.27 1028,-347 1028,-347 1028,-347 1028,-177 1028,-128.73 985.38,-130.99 941,-112 870.76,-81.95 782.09,-71.91 726.7,-68.6"/>
<polygon fill="midnightblue" stroke="midnightblue" points="726.6,-65.09 716.42,-68.03 726.22,-72.08 726.6,-65.09"/>
</g>
<!-- Node14 -->
<g id="node14" class="node">
<title>Node14</title>
<g id="a_node14"><a xlink:title=" ">
<polygon fill="white" stroke="#bfbfbf" points="320.5,-392.5 320.5,-411.5 369.5,-411.5 369.5,-392.5 320.5,-392.5"/>
<text text-anchor="middle" x="345" y="-399.5" font-family="Helvetica,sans-Serif" font-size="10.00">random</text>
</a>
</g>
</g>
<!-- Node13&#45;&gt;Node14 -->
<g id="edge16" class="edge">
<title>Node13&#45;&gt;Node14</title>
<path fill="none" stroke="midnightblue" d="M468.71,-448.44C444.19,-439.44 405.4,-425.19 377.8,-415.05"/>
<polygon fill="midnightblue" stroke="midnightblue" points="378.78,-411.68 368.18,-411.52 376.36,-418.25 378.78,-411.68"/>
</g>
<!-- Node15 -->
<g id="node15" class="node">
<title>Node15</title>
<g id="a_node15"><a xlink:href="_material_8h.html" target="_top" xlink:title="Defines the Material class and the functions around it.">
<polygon fill="white" stroke="black" points="598.5,-224.5 598.5,-243.5 657.5,-243.5 657.5,-224.5 598.5,-224.5"/>
<text text-anchor="middle" x="628" y="-231.5" font-family="Helvetica,sans-Serif" font-size="10.00">Material.h</text>
</a>
</g>
</g>
<!-- Node13&#45;&gt;Node15 -->
<g id="edge18" class="edge">
<title>Node13&#45;&gt;Node15</title>
<path fill="none" stroke="midnightblue" d="M500.11,-448.44C508.19,-439.68 520.72,-425.47 530,-412 567.95,-356.94 603.66,-285.87 619.47,-253.07"/>
<polygon fill="midnightblue" stroke="midnightblue" points="622.73,-254.36 623.88,-243.83 616.41,-251.34 622.73,-254.36"/>
</g>
<!-- Node18 -->
<g id="node18" class="node">
<title>Node18</title>
<g id="a_node18"><a xlink:href="_diffuse_material_8h.html" target="_top" xlink:title="Defines the DiffuseMaterial class.">
<polygon fill="white" stroke="black" points="834.5,-280.5 834.5,-299.5 923.5,-299.5 923.5,-280.5 834.5,-280.5"/>
<text text-anchor="middle" x="879" y="-287.5" font-family="Helvetica,sans-Serif" font-size="10.00">DiffuseMaterial.h</text>
</a>
</g>
</g>
<!-- Node13&#45;&gt;Node18 -->
<g id="edge24" class="edge">
<title>Node13&#45;&gt;Node18</title>
<path fill="none" stroke="midnightblue" d="M539.72,-454.4C634.51,-448.79 839.37,-434.21 862,-412 889.29,-385.21 886.58,-336.16 882.58,-309.48"/>
<polygon fill="midnightblue" stroke="midnightblue" points="886.02,-308.8 880.88,-299.54 879.12,-309.99 886.02,-308.8"/>
</g>
<!-- Node19 -->
<g id="node19" class="node">
<title>Node19</title>
<g id="a_node19"><a xlink:href="_specular_material_8h.html" target="_top" xlink:title="Defines the SpecularMaterial class.">
<polygon fill="white" stroke="black" points="755,-392.5 755,-411.5 853,-411.5 853,-392.5 755,-392.5"/>
<text text-anchor="middle" x="804" y="-399.5" font-family="Helvetica,sans-Serif" font-size="10.00">SpecularMaterial.h</text>
</a>
</g>
</g>
<!-- Node13&#45;&gt;Node19 -->
<g id="edge30" class="edge">
<title>Node13&#45;&gt;Node19</title>
<path fill="none" stroke="midnightblue" d="M539.73,-448.74C594.83,-439.2 685.51,-423.51 745,-413.21"/>
<polygon fill="midnightblue" stroke="midnightblue" points="745.74,-416.64 754.99,-411.48 744.54,-409.74 745.74,-416.64"/>
</g>
<!-- Node20 -->
<g id="node20" class="node">
<title>Node20</title>
<g id="a_node20"><a xlink:href="_object3_d_8h.html" target="_top" xlink:title="Defines the Object3D class and the functions around it.">
<polygon fill="white" stroke="black" points="587.5,-336.5 587.5,-355.5 652.5,-355.5 652.5,-336.5 587.5,-336.5"/>
<text text-anchor="middle" x="620" y="-343.5" font-family="Helvetica,sans-Serif" font-size="10.00">Object3D.h</text>
</a>
</g>
</g>
<!-- Node13&#45;&gt;Node20 -->
<g id="edge46" class="edge">
<title>Node13&#45;&gt;Node20</title>
<path fill="none" stroke="midnightblue" d="M512.88,-448.48C530.25,-440.71 554.95,-428.02 573,-412 588.4,-398.33 601.69,-378.76 610.17,-364.68"/>
<polygon fill="midnightblue" stroke="midnightblue" points="613.25,-366.34 615.24,-355.94 607.2,-362.83 613.25,-366.34"/>
</g>
<!-- Node21 -->
<g id="node21" class="node">
<title>Node21</title>
<g id="a_node21"><a xlink:href="_refractive_material_8h.html" target="_top" xlink:title="Defines the RefractiveMaterial class.">
<polygon fill="white" stroke="black" points="635.5,-392.5 635.5,-411.5 736.5,-411.5 736.5,-392.5 635.5,-392.5"/>
<text text-anchor="middle" x="686" y="-399.5" font-family="Helvetica,sans-Serif" font-size="10.00">RefractiveMaterial.h</text>
</a>
</g>
</g>
<!-- Node13&#45;&gt;Node21 -->
<g id="edge41" class="edge">
<title>Node13&#45;&gt;Node21</title>
<path fill="none" stroke="midnightblue" d="M522.74,-448.44C555.94,-439.2 608.99,-424.44 645.56,-414.26"/>
<polygon fill="midnightblue" stroke="midnightblue" points="646.71,-417.57 655.4,-411.52 644.83,-410.83 646.71,-417.57"/>
</g>
<!-- Node22 -->
<g id="node22" class="node">
<title>Node22</title>
<g id="a_node22"><a xlink:href="_sphere_8h.html" target="_top" xlink:title="Defines the Sphere class.">
<polygon fill="white" stroke="black" points="388,-392.5 388,-411.5 444,-411.5 444,-392.5 388,-392.5"/>
<text text-anchor="middle" x="416" y="-399.5" font-family="Helvetica,sans-Serif" font-size="10.00">Sphere.h</text>
</a>
</g>
</g>
<!-- Node13&#45;&gt;Node22 -->
<g id="edge47" class="edge">
<title>Node13&#45;&gt;Node22</title>
<path fill="none" stroke="midnightblue" d="M479.79,-448.32C468.22,-440.11 450.62,-427.6 436.84,-417.81"/>
<polygon fill="midnightblue" stroke="midnightblue" points="438.61,-414.77 428.43,-411.83 434.56,-420.48 438.61,-414.77"/>
</g>
<!-- Node23 -->
<g id="node23" class="node">
<title>Node23</title>
<g id="a_node23"><a xlink:href="_triangle_8h.html" target="_top" xlink:title="Defines the Triangle class.">
<polygon fill="white" stroke="black" points="462.5,-392.5 462.5,-411.5 521.5,-411.5 521.5,-392.5 462.5,-392.5"/>
<text text-anchor="middle" x="492" y="-399.5" font-family="Helvetica,sans-Serif" font-size="10.00">Triangle.h</text>
</a>
</g>
</g>
<!-- Node13&#45;&gt;Node23 -->
<g id="edge54" class="edge">
<title>Node13&#45;&gt;Node23</title>
<path fill="none" stroke="midnightblue" d="M492,-448.08C492,-441.01 492,-430.86 492,-421.99"/>
<polygon fill="midnightblue" stroke="midnightblue" points="495.5,-421.75 492,-411.75 488.5,-421.75 495.5,-421.75"/>
</g>
<!-- Node15&#45;&gt;Node9 -->
<g id="edge19" class="edge">
<title>Node15&#45;&gt;Node9</title>
<path fill="none" stroke="midnightblue" d="M630.47,-224.08C637.71,-197.95 658.98,-121.21 668.85,-85.58"/>
<polygon fill="midnightblue" stroke="midnightblue" points="672.33,-86.14 671.63,-75.57 665.58,-84.27 672.33,-86.14"/>
</g>
<!-- Node16 -->
<g id="node16" class="node">
<title>Node16</title>
<g id="a_node16"><a xlink:href="_ray_8h.html" target="_top" xlink:title="Defines the Ray class.">
<polygon fill="white" stroke="black" points="680,-168.5 680,-187.5 722,-187.5 722,-168.5 680,-168.5"/>
<text text-anchor="middle" x="701" y="-175.5" font-family="Helvetica,sans-Serif" font-size="10.00">Ray.h</text>
</a>
</g>
</g>
<!-- Node15&#45;&gt;Node16 -->
<g id="edge20" class="edge">
<title>Node15&#45;&gt;Node16</title>
<path fill="none" stroke="midnightblue" d="M639.73,-224.32C650.84,-216.11 667.74,-203.6 680.98,-193.81"/>
<polygon fill="midnightblue" stroke="midnightblue" points="683.1,-196.59 689.06,-187.83 678.94,-190.97 683.1,-196.59"/>
</g>
<!-- Node16&#45;&gt;Node9 -->
<g id="edge21" class="edge">
<title>Node16&#45;&gt;Node9</title>
<path fill="none" stroke="midnightblue" d="M698.88,-168.37C694.52,-150.62 684.47,-109.67 678.56,-85.6"/>
<polygon fill="midnightblue" stroke="midnightblue" points="681.89,-84.47 676.11,-75.59 675.09,-86.14 681.89,-84.47"/>
</g>
<!-- Node17 -->
<g id="node17" class="node">
<title>Node17</title>
<g id="a_node17"><a xlink:href="_double_unit_vec3_d_8h.html" target="_top" xlink:title="Defines the DoubleUnitVec3D class and the functions around it.">
<polygon fill="white" stroke="black" points="522.5,-112.5 522.5,-131.5 623.5,-131.5 623.5,-112.5 522.5,-112.5"/>
<text text-anchor="middle" x="573" y="-119.5" font-family="Helvetica,sans-Serif" font-size="10.00">DoubleUnitVec3D.h</text>
</a>
</g>
</g>
<!-- Node16&#45;&gt;Node17 -->
<g id="edge22" class="edge">
<title>Node16&#45;&gt;Node17</title>
<path fill="none" stroke="midnightblue" d="M680.72,-168.44C659.65,-159.56 626.48,-145.56 602.51,-135.45"/>
<polygon fill="midnightblue" stroke="midnightblue" points="603.76,-132.18 593.19,-131.52 601.04,-138.63 603.76,-132.18"/>
</g>
<!-- Node17&#45;&gt;Node9 -->
<g id="edge23" class="edge">
<title>Node17&#45;&gt;Node9</title>
<path fill="none" stroke="midnightblue" d="M589.23,-112.32C605.35,-103.7 630.3,-90.36 648.96,-80.39"/>
<polygon fill="midnightblue" stroke="midnightblue" points="650.64,-83.46 657.81,-75.65 647.34,-77.28 650.64,-83.46"/>
</g>
<!-- Node18&#45;&gt;Node9 -->
<g id="edge26" class="edge">
<title>Node18&#45;&gt;Node9</title>
<path fill="none" stroke="midnightblue" d="M873.34,-280.25C864.91,-267.45 848.29,-243.05 832,-224 784.69,-168.65 721.49,-109.79 691.38,-82.52"/>
<polygon fill="midnightblue" stroke="midnightblue" points="693.58,-79.79 683.8,-75.7 688.89,-84.99 693.58,-79.79"/>
</g>
<!-- Node18&#45;&gt;Node10 -->
<g id="edge25" class="edge">
<title>Node18&#45;&gt;Node10</title>
<path fill="none" stroke="midnightblue" d="M883.72,-280.46C893.27,-262.34 914,-218.48 914,-179 914,-179 914,-179 914,-121 914,-98.55 773.4,-46.02 707.43,-22.61"/>
<polygon fill="midnightblue" stroke="midnightblue" points="708.48,-19.28 697.89,-19.25 706.15,-25.88 708.48,-19.28"/>
</g>
<!-- Node18&#45;&gt;Node15 -->
<g id="edge28" class="edge">
<title>Node18&#45;&gt;Node15</title>
<path fill="none" stroke="midnightblue" d="M839.23,-280.44C792.22,-270.33 714.48,-253.61 667.57,-243.51"/>
<polygon fill="midnightblue" stroke="midnightblue" points="668.27,-240.08 657.76,-241.4 666.8,-246.93 668.27,-240.08"/>
</g>
<!-- Node18&#45;&gt;Node16 -->
<g id="edge29" class="edge">
<title>Node18&#45;&gt;Node16</title>
<path fill="none" stroke="midnightblue" d="M865.73,-280.49C846.17,-267.98 808.41,-243.95 776,-224 758.81,-213.42 739.26,-201.7 724.43,-192.87"/>
<polygon fill="midnightblue" stroke="midnightblue" points="725.82,-189.63 715.44,-187.53 722.25,-195.65 725.82,-189.63"/>
</g>
<!-- Node18&#45;&gt;Node17 -->
<g id="edge27" class="edge">
<title>Node18&#45;&gt;Node17</title>
<path fill="none" stroke="midnightblue" d="M869.78,-280.32C856.14,-267.6 829.67,-243.31 806,-224 773.77,-197.7 768.29,-186.45 731,-168 698.82,-152.08 660.09,-140.94 629.02,-133.72"/>
<polygon fill="midnightblue" stroke="midnightblue" points="629.75,-130.3 619.23,-131.51 628.21,-137.13 629.75,-130.3"/>
</g>
<!-- Node19&#45;&gt;Node9 -->
<g id="edge31" class="edge">
<title>Node19&#45;&gt;Node9</title>
<path fill="none" stroke="midnightblue" d="M828.32,-392.5C878.73,-373.13 990,-320.7 990,-235 990,-235 990,-235 990,-177 990,-126.94 943.98,-131.8 898,-112 842.12,-87.93 772.78,-76.55 726.17,-71.29"/>
<polygon fill="midnightblue" stroke="midnightblue" points="726.32,-67.79 716,-70.2 725.57,-74.75 726.32,-67.79"/>
</g>
<!-- Node19&#45;&gt;Node15 -->
<g id="edge32" class="edge">
<title>Node19&#45;&gt;Node15</title>
<path fill="none" stroke="midnightblue" d="M794.54,-392.08C765.99,-365.15 680.5,-284.51 644.38,-250.45"/>
<polygon fill="midnightblue" stroke="midnightblue" points="646.76,-247.88 637.08,-243.57 641.96,-252.98 646.76,-247.88"/>
</g>
<!-- Node19&#45;&gt;Node16 -->
<g id="edge40" class="edge">
<title>Node19&#45;&gt;Node16</title>
<path fill="none" stroke="midnightblue" d="M799.96,-392.3C784.71,-359.42 730.41,-242.39 709.39,-197.09"/>
<polygon fill="midnightblue" stroke="midnightblue" points="712.51,-195.48 705.12,-187.88 706.16,-198.43 712.51,-195.48"/>
</g>
<!-- Node19&#45;&gt;Node20 -->
<g id="edge33" class="edge">
<title>Node19&#45;&gt;Node20</title>
<path fill="none" stroke="midnightblue" d="M774.84,-392.44C743.49,-383.24 693.47,-368.56 658.8,-358.39"/>
<polygon fill="midnightblue" stroke="midnightblue" points="659.6,-354.97 649.02,-355.52 657.63,-361.69 659.6,-354.97"/>
</g>
<!-- Node20&#45;&gt;Node7 -->
<g id="edge34" class="edge">
<title>Node20&#45;&gt;Node7</title>
<path fill="none" stroke="midnightblue" d="M587.25,-341.25C500.23,-331.27 264.08,-304.19 179.58,-294.51"/>
<polygon fill="midnightblue" stroke="midnightblue" points="179.93,-291.02 169.6,-293.36 179.13,-297.98 179.93,-291.02"/>
</g>
<!-- Node20&#45;&gt;Node9 -->
<g id="edge36" class="edge">
<title>Node20&#45;&gt;Node9</title>
<path fill="none" stroke="midnightblue" d="M609.75,-336.23C573.18,-303.91 454.34,-189.3 513,-112 526.25,-94.54 579.91,-82.02 621.69,-74.68"/>
<polygon fill="midnightblue" stroke="midnightblue" points="622.47,-78.1 631.75,-72.98 621.3,-71.2 622.47,-78.1"/>
</g>
<!-- Node20&#45;&gt;Node15 -->
<g id="edge38" class="edge">
<title>Node20&#45;&gt;Node15</title>
<path fill="none" stroke="midnightblue" d="M620.63,-336.37C621.92,-318.62 624.9,-277.67 626.65,-253.6"/>
<polygon fill="midnightblue" stroke="midnightblue" points="630.14,-253.82 627.38,-243.59 623.16,-253.31 630.14,-253.82"/>
</g>
<!-- Node20&#45;&gt;Node16 -->
<g id="edge39" class="edge">
<title>Node20&#45;&gt;Node16</title>
<path fill="none" stroke="midnightblue" d="M624.35,-336.08C637.22,-309.72 675.2,-231.88 692.38,-196.66"/>
<polygon fill="midnightblue" stroke="midnightblue" points="695.58,-198.09 696.82,-187.57 689.29,-195.02 695.58,-198.09"/>
</g>
<!-- Node20&#45;&gt;Node17 -->
<g id="edge37" class="edge">
<title>Node20&#45;&gt;Node17</title>
<path fill="none" stroke="midnightblue" d="M616.86,-336.48C610.62,-319.26 596.62,-278.95 589,-244 581.2,-208.24 576.64,-165.65 574.5,-141.73"/>
<polygon fill="midnightblue" stroke="midnightblue" points="577.98,-141.26 573.64,-131.59 571,-141.85 577.98,-141.26"/>
</g>
<!-- Node20&#45;&gt;Node18 -->
<g id="edge35" class="edge">
<title>Node20&#45;&gt;Node18</title>
<path fill="none" stroke="midnightblue" d="M652.54,-338.22C696.61,-329.03 775.74,-312.53 827.81,-301.67"/>
<polygon fill="midnightblue" stroke="midnightblue" points="828.77,-305.05 837.85,-299.58 827.34,-298.2 828.77,-305.05"/>
</g>
<!-- Node21&#45;&gt;Node9 -->
<g id="edge42" class="edge">
<title>Node21&#45;&gt;Node9</title>
<path fill="none" stroke="midnightblue" d="M736.52,-393.61C792.41,-382.79 881.36,-357.3 933,-300 953.15,-277.64 952,-265.1 952,-235 952,-235 952,-235 952,-177 952,-128.97 806.69,-92.89 726.18,-76.59"/>
<polygon fill="midnightblue" stroke="midnightblue" points="726.71,-73.13 716.22,-74.61 725.35,-79.99 726.71,-73.13"/>
</g>
<!-- Node21&#45;&gt;Node15 -->
<g id="edge43" class="edge">
<title>Node21&#45;&gt;Node15</title>
<path fill="none" stroke="midnightblue" d="M682.88,-392.08C673.71,-365.83 646.71,-288.55 634.33,-253.12"/>
<polygon fill="midnightblue" stroke="midnightblue" points="637.6,-251.85 630.99,-243.57 630.99,-254.16 637.6,-251.85"/>
</g>
<!-- Node21&#45;&gt;Node16 -->
<g id="edge45" class="edge">
<title>Node21&#45;&gt;Node16</title>
<path fill="none" stroke="midnightblue" d="M686.59,-392.3C688.8,-359.63 696.62,-243.87 699.72,-197.96"/>
<polygon fill="midnightblue" stroke="midnightblue" points="703.22,-198.1 700.4,-187.88 696.23,-197.63 703.22,-198.1"/>
</g>
<!-- Node21&#45;&gt;Node20 -->
<g id="edge44" class="edge">
<title>Node21&#45;&gt;Node20</title>
<path fill="none" stroke="midnightblue" d="M675.4,-392.32C665.54,-384.26 650.65,-372.08 638.78,-362.37"/>
<polygon fill="midnightblue" stroke="midnightblue" points="640.75,-359.46 630.8,-355.83 636.32,-364.88 640.75,-359.46"/>
</g>
<!-- Node22&#45;&gt;Node9 -->
<g id="edge49" class="edge">
<title>Node22&#45;&gt;Node9</title>
<path fill="none" stroke="midnightblue" d="M393.2,-392.49C344.77,-373.7 236,-327.44 236,-291 236,-291 236,-291 236,-177 236,-98.33 505.19,-75.4 621.5,-69.17"/>
<polygon fill="midnightblue" stroke="midnightblue" points="621.8,-72.66 631.6,-68.65 621.44,-65.67 621.8,-72.66"/>
</g>
<!-- Node22&#45;&gt;Node10 -->
<g id="edge48" class="edge">
<title>Node22&#45;&gt;Node10</title>
<path fill="none" stroke="midnightblue" d="M387.8,-393.32C352.81,-383.55 295.41,-366.67 276,-356 236.46,-334.25 198,-336.13 198,-291 198,-291 198,-291 198,-121 198,-22.99 523.13,-43.18 640.22,-19.85"/>
<polygon fill="midnightblue" stroke="midnightblue" points="641.24,-23.2 650.24,-17.61 639.72,-16.37 641.24,-23.2"/>
</g>
<!-- Node22&#45;&gt;Node15 -->
<g id="edge51" class="edge">
<title>Node22&#45;&gt;Node15</title>
<path fill="none" stroke="midnightblue" d="M423.8,-392.28C442.96,-371.19 494.45,-316.48 545,-280 562.22,-267.57 583.27,-256.2 599.87,-247.99"/>
<polygon fill="midnightblue" stroke="midnightblue" points="601.58,-251.05 609.06,-243.54 598.53,-244.75 601.58,-251.05"/>
</g>
<!-- Node22&#45;&gt;Node16 -->
<g id="edge53" class="edge">
<title>Node22&#45;&gt;Node16</title>
<path fill="none" stroke="midnightblue" d="M420.08,-392.48C426.49,-379.55 439.79,-354.5 455,-336 504.31,-276.05 521.7,-262.67 589,-224 615.11,-208.99 647.21,-196.65 670.34,-188.72"/>
<polygon fill="midnightblue" stroke="midnightblue" points="671.6,-191.98 679.97,-185.49 669.38,-185.35 671.6,-191.98"/>
</g>
<!-- Node22&#45;&gt;Node17 -->
<g id="edge50" class="edge">
<title>Node22&#45;&gt;Node17</title>
<path fill="none" stroke="midnightblue" d="M418.05,-392.32C421.22,-379.6 427.9,-355.31 437,-336 473.57,-258.4 533.61,-175.08 559.94,-140.05"/>
<polygon fill="midnightblue" stroke="midnightblue" points="562.9,-141.94 566.15,-131.85 557.32,-137.71 562.9,-141.94"/>
</g>
<!-- Node22&#45;&gt;Node20 -->
<g id="edge52" class="edge">
<title>Node22&#45;&gt;Node20</title>
<path fill="none" stroke="midnightblue" d="M444.37,-393.49C479.08,-384.3 538.17,-368.66 578.13,-358.08"/>
<polygon fill="midnightblue" stroke="midnightblue" points="579.07,-361.45 587.84,-355.51 577.28,-354.69 579.07,-361.45"/>
</g>
<!-- Node23&#45;&gt;Node9 -->
<g id="edge55" class="edge">
<title>Node23&#45;&gt;Node9</title>
<path fill="none" stroke="midnightblue" d="M488.8,-392.34C475.23,-353.99 426.39,-197.5 499,-112 514.81,-93.38 576.14,-80.76 621.76,-73.73"/>
<polygon fill="midnightblue" stroke="midnightblue" points="622.44,-77.17 631.81,-72.24 621.41,-70.25 622.44,-77.17"/>
</g>
<!-- Node23&#45;&gt;Node15 -->
<g id="edge57" class="edge">
<title>Node23&#45;&gt;Node15</title>
<path fill="none" stroke="midnightblue" d="M495.64,-392.27C504.76,-371.16 530.27,-316.4 564,-280 575.37,-267.73 590.6,-256.86 603.36,-248.87"/>
<polygon fill="midnightblue" stroke="midnightblue" points="605.36,-251.75 612.12,-243.59 601.75,-245.76 605.36,-251.75"/>
</g>
<!-- Node23&#45;&gt;Node17 -->
<g id="edge56" class="edge">
<title>Node23&#45;&gt;Node17</title>
<path fill="none" stroke="midnightblue" d="M494.4,-392.15C497.8,-379.64 504.26,-356.04 510,-336 530.68,-263.77 556.38,-178.1 567.47,-141.29"/>
<polygon fill="midnightblue" stroke="midnightblue" points="570.89,-142.09 570.43,-131.51 564.19,-140.07 570.89,-142.09"/>
</g>
<!-- Node23&#45;&gt;Node20 -->
<g id="edge58" class="edge">
<title>Node23&#45;&gt;Node20</title>
<path fill="none" stroke="midnightblue" d="M512.28,-392.44C533.35,-383.56 566.52,-369.56 590.49,-359.45"/>
<polygon fill="midnightblue" stroke="midnightblue" points="591.96,-362.63 599.81,-355.52 589.24,-356.18 591.96,-362.63"/>
</g>
</g>
</svg>
        <g id="navigator" transform="translate(0 0)" fill="#404254">
                <rect fill="#f2f5e9" fill-opacity="0.5" stroke="#606060" stroke-width=".5" x="0" y="0" width="60" height="60"/>
                <use id="zoomplus" xlink:href="#zoomPlus" x="17" y="9" onmousedown="handleZoom(evt,'in')"/>
                <use id="zoomminus" xlink:href="#zoomMin" x="42" y="9" onmousedown="handleZoom(evt,'out')"/>
                <use id="reset" xlink:href="#resetDef" x="30" y="36" onmousedown="handleReset()"/>
                <g id="arrowUp" xlink:href="#dirArrow" transform="translate(30 24)" onmousedown="handlePan(0,-1)">
                  <use xlink:href="#rim" fill="#404040">
                        <set attributeName="fill" to="#808080" begin="arrowUp.mouseover" end="arrowUp.mouseout"/>
                  </use>
                  <path fill="none" stroke="white" stroke-width="1.5" d="M0,-3.0v7 M-2.5,-0.5L0,-3.0L2.5,-0.5"/>
                </g>
                <g id="arrowRight" xlink:href="#dirArrow" transform="rotate(90) translate(36 -43)" onmousedown="handlePan(1,0)">
                  <use xlink:href="#rim" fill="#404040">
                        <set attributeName="fill" to="#808080" begin="arrowRight.mouseover" end="arrowRight.mouseout"/>
                  </use>
                  <path fill="none" stroke="white" stroke-width="1.5" d="M0,-3.0v7 M-2.5,-0.5L0,-3.0L2.5,-0.5"/>
                </g>
                <g id="arrowDown" xlink:href="#dirArrow" transform="rotate(180) translate(-30 -48)" onmousedown="handlePan(0,1)">
                  <use xlink:href="#rim" fill="#404040">
                        <set attributeName="fill" to="#808080" begin="arrowDown.mouseover" end="arrowDown.mouseout"/>
                  </use>
                  <path fill="none" stroke="white" stroke-width="1.5" d="M0,-3.0v7 M-2.5,-0.5L0,-3.0L2.5,-0.5"/>
                </g>
                <g id="arrowLeft" xlink:href="#dirArrow" transform="rotate(270) translate(-36 17)" onmousedown="handlePan(-1,0)">
                  <use xlink:href="#rim" fill="#404040">
                        <set attributeName="fill" to="#808080" begin="arrowLeft.mouseover" end="arrowLeft.mouseout"/>
                  </use>
                  <path fill="none" stroke="white" stroke-width="1.5" d="M0,-3.0v7 M-2.5,-0.5L0,-3.0L2.5,-0.5"/>
                </g>
        </g>
        <svg viewBox="0 0 15 15" width="100%" height="30px" preserveAspectRatio="xMaxYMin meet">
         <g id="arrow_out" transform="scale(0.3 0.3)">
          <a xlink:href="_picture_8h__incl_org.svg" target="_base">
           <rect id="button" ry="5" rx="5" y="6" x="6" height="38" width="38"
                fill="#f2f5e9" fill-opacity="0.5" stroke="#606060" stroke-width="1.0"/>
           <path id="arrow"
             d="M 11.500037,31.436501 C 11.940474,20.09759 22.043105,11.32322 32.158766,21.979434 L 37.068811,17.246167 C 37.068811,17.246167 37.088388,32 37.088388,32 L 22.160133,31.978069 C 22.160133,31.978069 26.997745,27.140456 26.997745,27.140456 C 18.528582,18.264221 13.291696,25.230495 11.500037,31.436501 z"
             style="fill:#404040;"/>
          </a>
         </g>
        </svg>
</svg>
