<?xml version="1.0" encoding="UTF-8" standalone="no"?>
<!DOCTYPE svg PUBLIC "-//W3C//DTD SVG 1.1//EN"
 "http://www.w3.org/Graphics/SVG/1.1/DTD/svg11.dtd">
<!-- Generated by graphviz version 2.44.1 (20200629.0800)
 -->
<!-- Title: D:/PathTracer/PathTracer/Ray.h Pages: 1 -->
<svg width="1113pt" height="642pt"
 viewBox="0.00 0.00 1113.13 642.00" xmlns="http://www.w3.org/2000/svg" xmlns:xlink="http://www.w3.org/1999/xlink">
<g id="graph0" class="graph" transform="scale(1 1) rotate(0) translate(4 638)">
<title>D:/PathTracer/PathTracer/Ray.h</title>
<polygon fill="white" stroke="transparent" points="-4,4 -4,-638 1109.13,-638 1109.13,4 -4,4"/>
<!-- Node1 -->
<g id="node1" class="node">
<title>Node1</title>
<g id="a_node1"><a xlink:title="Defines the Ray class.">
<polygon fill="#bfbfbf" stroke="black" points="609,-603.5 609,-633.5 736,-633.5 736,-603.5 609,-603.5"/>
<text text-anchor="start" x="617" y="-621.5" font-family="Helvetica,sans-Serif" font-size="10.00">D:/PathTracer/PathTracer</text>
<text text-anchor="middle" x="672.5" y="-610.5" font-family="Helvetica,sans-Serif" font-size="10.00">/Ray.h</text>
</a>
</g>
</g>
<!-- Node2 -->
<g id="node2" class="node">
<title>Node2</title>
<g id="a_node2"><a xlink:href="_diffuse_material_8h.html" target="_top" xlink:title="Defines the DiffuseMaterial class.">
<polygon fill="white" stroke="black" points="238,-469.5 238,-499.5 365,-499.5 365,-469.5 238,-469.5"/>
<text text-anchor="start" x="246" y="-487.5" font-family="Helvetica,sans-Serif" font-size="10.00">D:/PathTracer/PathTracer</text>
<text text-anchor="middle" x="301.5" y="-476.5" font-family="Helvetica,sans-Serif" font-size="10.00">/DiffuseMaterial.h</text>
</a>
</g>
</g>
<!-- Node1&#45;&gt;Node2 -->
<g id="edge1" class="edge">
<title>Node1&#45;&gt;Node2</title>
<path fill="none" stroke="midnightblue" d="M607.94,-600.75C574.66,-591.64 533.6,-579.67 497.5,-567 438.04,-546.13 370.56,-516.78 332.31,-499.59"/>
<polygon fill="midnightblue" stroke="midnightblue" points="607.43,-604.24 618,-603.48 609.27,-597.48 607.43,-604.24"/>
</g>
<!-- Node15 -->
<g id="node15" class="node">
<title>Node15</title>
<g id="a_node15"><a xlink:href="_object3_d_8h.html" target="_top" xlink:title="Defines the Object3D class and the functions around it.">
<polygon fill="white" stroke="black" points="548,-402.5 548,-432.5 675,-432.5 675,-402.5 548,-402.5"/>
<text text-anchor="start" x="556" y="-420.5" font-family="Helvetica,sans-Serif" font-size="10.00">D:/PathTracer/PathTracer</text>
<text text-anchor="middle" x="611.5" y="-409.5" font-family="Helvetica,sans-Serif" font-size="10.00">/Object3D.h</text>
</a>
</g>
</g>
<!-- Node1&#45;&gt;Node15 -->
<g id="edge49" class="edge">
<title>Node1&#45;&gt;Node15</title>
<path fill="none" stroke="midnightblue" d="M674.58,-593.12C676.19,-562.68 675.65,-509.67 657.5,-469 651.12,-454.7 639.09,-441.72 628.93,-432.5"/>
<polygon fill="midnightblue" stroke="midnightblue" points="671.08,-593.04 673.92,-603.24 678.07,-593.49 671.08,-593.04"/>
</g>
<!-- Node17 -->
<g id="node17" class="node">
<title>Node17</title>
<g id="a_node17"><a xlink:href="_refractive_material_8h.html" target="_top" xlink:title="Defines the RefractiveMaterial class.">
<polygon fill="white" stroke="black" points="200,-335.5 200,-365.5 327,-365.5 327,-335.5 200,-335.5"/>
<text text-anchor="start" x="208" y="-353.5" font-family="Helvetica,sans-Serif" font-size="10.00">D:/PathTracer/PathTracer</text>
<text text-anchor="middle" x="263.5" y="-342.5" font-family="Helvetica,sans-Serif" font-size="10.00">/RefractiveMaterial.h</text>
</a>
</g>
</g>
<!-- Node1&#45;&gt;Node17 -->
<g id="edge55" class="edge">
<title>Node1&#45;&gt;Node17</title>
<path fill="none" stroke="midnightblue" d="M598.97,-607.87C508.14,-593.81 350.78,-562.26 229.5,-500 182.89,-476.07 156.84,-479.4 132.5,-433 126.1,-420.8 124.7,-413.36 132.5,-402 147.81,-379.69 174.47,-367.23 199.76,-360.28"/>
<polygon fill="midnightblue" stroke="midnightblue" points="598.49,-611.34 608.9,-609.38 599.54,-604.42 598.49,-611.34"/>
</g>
<!-- Node19 -->
<g id="node19" class="node">
<title>Node19</title>
<g id="a_node19"><a xlink:href="_specular_material_8h.html" target="_top" xlink:title="Defines the SpecularMaterial class.">
<polygon fill="white" stroke="black" points="934,-335.5 934,-365.5 1061,-365.5 1061,-335.5 934,-335.5"/>
<text text-anchor="start" x="942" y="-353.5" font-family="Helvetica,sans-Serif" font-size="10.00">D:/PathTracer/PathTracer</text>
<text text-anchor="middle" x="997.5" y="-342.5" font-family="Helvetica,sans-Serif" font-size="10.00">/SpecularMaterial.h</text>
</a>
</g>
</g>
<!-- Node1&#45;&gt;Node19 -->
<g id="edge56" class="edge">
<title>Node1&#45;&gt;Node19</title>
<path fill="none" stroke="midnightblue" d="M697.92,-596.7C761.58,-544.59 926.63,-409.51 980.33,-365.55"/>
<polygon fill="midnightblue" stroke="midnightblue" points="695.5,-594.16 689.97,-603.2 699.93,-599.57 695.5,-594.16"/>
</g>
<!-- Node21 -->
<g id="node21" class="node">
<title>Node21</title>
<g id="a_node21"><a xlink:href="_sphere_8h.html" target="_top" xlink:title="Defines the Sphere class.">
<polygon fill="white" stroke="black" points="789,-335.5 789,-365.5 916,-365.5 916,-335.5 789,-335.5"/>
<text text-anchor="start" x="797" y="-353.5" font-family="Helvetica,sans-Serif" font-size="10.00">D:/PathTracer/PathTracer</text>
<text text-anchor="middle" x="852.5" y="-342.5" font-family="Helvetica,sans-Serif" font-size="10.00">/Sphere.h</text>
</a>
</g>
</g>
<!-- Node1&#45;&gt;Node21 -->
<g id="edge57" class="edge">
<title>Node1&#45;&gt;Node21</title>
<path fill="none" stroke="midnightblue" d="M687.9,-594.75C724.07,-541.3 813.61,-408.97 842.99,-365.55"/>
<polygon fill="midnightblue" stroke="midnightblue" points="684.88,-592.96 682.18,-603.2 690.68,-596.88 684.88,-592.96"/>
</g>
<!-- Node25 -->
<g id="node25" class="node">
<title>Node25</title>
<g id="a_node25"><a xlink:href="_material_8h.html" target="_top" xlink:title="Defines the Material class and the functions around it.">
<polygon fill="white" stroke="black" points="506,-536.5 506,-566.5 633,-566.5 633,-536.5 506,-536.5"/>
<text text-anchor="start" x="514" y="-554.5" font-family="Helvetica,sans-Serif" font-size="10.00">D:/PathTracer/PathTracer</text>
<text text-anchor="middle" x="569.5" y="-543.5" font-family="Helvetica,sans-Serif" font-size="10.00">/Material.h</text>
</a>
</g>
</g>
<!-- Node1&#45;&gt;Node25 -->
<g id="edge40" class="edge">
<title>Node1&#45;&gt;Node25</title>
<path fill="none" stroke="midnightblue" d="M641.62,-598.02C625.6,-587.9 606.37,-575.77 591.81,-566.58"/>
<polygon fill="midnightblue" stroke="midnightblue" points="639.83,-601.02 650.15,-603.4 643.56,-595.1 639.83,-601.02"/>
</g>
<!-- Node27 -->
<g id="node27" class="node">
<title>Node27</title>
<g id="a_node27"><a xlink:href="_perspective_camera_8h.html" target="_top" xlink:title="Defines the PerspectiveCamera class.">
<polygon fill="white" stroke="black" points="0,-201.5 0,-231.5 127,-231.5 127,-201.5 0,-201.5"/>
<text text-anchor="start" x="8" y="-219.5" font-family="Helvetica,sans-Serif" font-size="10.00">D:/PathTracer/PathTracer</text>
<text text-anchor="middle" x="63.5" y="-208.5" font-family="Helvetica,sans-Serif" font-size="10.00">/PerspectiveCamera.h</text>
</a>
</g>
</g>
<!-- Node1&#45;&gt;Node27 -->
<g id="edge50" class="edge">
<title>Node1&#45;&gt;Node27</title>
<path fill="none" stroke="midnightblue" d="M598.47,-616.64C437.81,-612.78 71.5,-592.25 71.5,-485.5 71.5,-485.5 71.5,-485.5 71.5,-349.5 71.5,-306.57 67.23,-255.92 64.93,-231.74"/>
<polygon fill="midnightblue" stroke="midnightblue" points="598.68,-620.15 608.75,-616.87 598.83,-613.15 598.68,-620.15"/>
</g>
<!-- Node29 -->
<g id="node29" class="node">
<title>Node29</title>
<g id="a_node29"><a xlink:href="_ray_8cpp.html" target="_top" xlink:title=" ">
<polygon fill="white" stroke="black" points="884,-536.5 884,-566.5 1011,-566.5 1011,-536.5 884,-536.5"/>
<text text-anchor="start" x="892" y="-554.5" font-family="Helvetica,sans-Serif" font-size="10.00">D:/PathTracer/PathTracer</text>
<text text-anchor="middle" x="947.5" y="-543.5" font-family="Helvetica,sans-Serif" font-size="10.00">/Ray.cpp</text>
</a>
</g>
</g>
<!-- Node1&#45;&gt;Node29 -->
<g id="edge54" class="edge">
<title>Node1&#45;&gt;Node29</title>
<path fill="none" stroke="midnightblue" d="M741.81,-601.12C786.8,-590.48 844.85,-576.76 887.8,-566.61"/>
<polygon fill="midnightblue" stroke="midnightblue" points="740.76,-597.77 731.83,-603.48 742.37,-604.58 740.76,-597.77"/>
</g>
<!-- Node3 -->
<g id="node3" class="node">
<title>Node3</title>
<g id="a_node3"><a xlink:href="_diffuse_material_8cpp.html" target="_top" xlink:title=" ">
<polygon fill="white" stroke="black" points="142,-402.5 142,-432.5 269,-432.5 269,-402.5 142,-402.5"/>
<text text-anchor="start" x="150" y="-420.5" font-family="Helvetica,sans-Serif" font-size="10.00">D:/PathTracer/PathTracer</text>
<text text-anchor="middle" x="205.5" y="-409.5" font-family="Helvetica,sans-Serif" font-size="10.00">/DiffuseMaterial.cpp</text>
</a>
</g>
</g>
<!-- Node2&#45;&gt;Node3 -->
<g id="edge2" class="edge">
<title>Node2&#45;&gt;Node3</title>
<path fill="none" stroke="midnightblue" d="M272.31,-463.73C257.45,-453.68 239.74,-441.68 226.29,-432.58"/>
<polygon fill="midnightblue" stroke="midnightblue" points="270.43,-466.69 280.67,-469.4 274.35,-460.89 270.43,-466.69"/>
</g>
<!-- Node4 -->
<g id="node4" class="node">
<title>Node4</title>
<g id="a_node4"><a xlink:href="_interface_gestion_8h.html" target="_top" xlink:title="Defines functions that are used when drawing the interface.">
<polygon fill="white" stroke="black" points="368,-268.5 368,-298.5 495,-298.5 495,-268.5 368,-268.5"/>
<text text-anchor="start" x="376" y="-286.5" font-family="Helvetica,sans-Serif" font-size="10.00">D:/PathTracer/PathTracer</text>
<text text-anchor="middle" x="431.5" y="-275.5" font-family="Helvetica,sans-Serif" font-size="10.00">/InterfaceGestion.h</text>
</a>
</g>
</g>
<!-- Node2&#45;&gt;Node4 -->
<g id="edge3" class="edge">
<title>Node2&#45;&gt;Node4</title>
<path fill="none" stroke="midnightblue" d="M311.18,-459.73C324.21,-429.23 349.27,-375.45 379.5,-335 389.6,-321.49 403.37,-308.29 414.21,-298.77"/>
<polygon fill="midnightblue" stroke="midnightblue" points="307.88,-458.55 307.23,-469.13 314.33,-461.26 307.88,-458.55"/>
</g>
<!-- Node11 -->
<g id="node11" class="node">
<title>Node11</title>
<g id="a_node11"><a xlink:href="_scene_8h.html" target="_top" xlink:title="Defines the Scene class and the functions around it.">
<polygon fill="white" stroke="black" points="498,-134.5 498,-164.5 625,-164.5 625,-134.5 498,-134.5"/>
<text text-anchor="start" x="506" y="-152.5" font-family="Helvetica,sans-Serif" font-size="10.00">D:/PathTracer/PathTracer</text>
<text text-anchor="middle" x="561.5" y="-141.5" font-family="Helvetica,sans-Serif" font-size="10.00">/Scene.h</text>
</a>
</g>
</g>
<!-- Node2&#45;&gt;Node11 -->
<g id="edge39" class="edge">
<title>Node2&#45;&gt;Node11</title>
<path fill="none" stroke="midnightblue" d="M300.19,-459.16C298.03,-441.39 292.5,-417.74 278.5,-402 250.7,-370.73 218.66,-397.83 191.5,-366 143.48,-309.72 152.42,-242.74 213.5,-201 236.53,-185.26 404.02,-166.26 497.99,-156.67"/>
<polygon fill="midnightblue" stroke="midnightblue" points="296.73,-459.72 301.14,-469.35 303.7,-459.07 296.73,-459.72"/>
</g>
<!-- Node2&#45;&gt;Node15 -->
<g id="edge18" class="edge">
<title>Node2&#45;&gt;Node15</title>
<path fill="none" stroke="midnightblue" d="M375.3,-468.03C427.9,-457 497.88,-442.32 547.99,-431.82"/>
<polygon fill="midnightblue" stroke="midnightblue" points="374.43,-464.63 365.36,-470.11 375.86,-471.48 374.43,-464.63"/>
</g>
<!-- Node5 -->
<g id="node5" class="node">
<title>Node5</title>
<g id="a_node5"><a xlink:href="_interface_8h.html" target="_top" xlink:title="Defines some functions for the interface.">
<polygon fill="white" stroke="black" points="242,-67.5 242,-97.5 369,-97.5 369,-67.5 242,-67.5"/>
<text text-anchor="start" x="250" y="-85.5" font-family="Helvetica,sans-Serif" font-size="10.00">D:/PathTracer/PathTracer</text>
<text text-anchor="middle" x="305.5" y="-74.5" font-family="Helvetica,sans-Serif" font-size="10.00">/Interface.h</text>
</a>
</g>
</g>
<!-- Node4&#45;&gt;Node5 -->
<g id="edge4" class="edge">
<title>Node4&#45;&gt;Node5</title>
<path fill="none" stroke="midnightblue" d="M357.57,-270.03C298.01,-259.23 222.7,-243.57 213.5,-232 186.4,-197.9 191.32,-171.48 213.5,-134 223.52,-117.07 241.46,-105.43 258.86,-97.64"/>
<polygon fill="midnightblue" stroke="midnightblue" points="357.28,-273.53 367.74,-271.86 358.51,-266.64 357.28,-273.53"/>
</g>
<!-- Node8 -->
<g id="node8" class="node">
<title>Node8</title>
<g id="a_node8"><a xlink:href="_interface_gestion_8cpp.html" target="_top" xlink:title=" ">
<polygon fill="white" stroke="black" points="406,-201.5 406,-231.5 533,-231.5 533,-201.5 406,-201.5"/>
<text text-anchor="start" x="414" y="-219.5" font-family="Helvetica,sans-Serif" font-size="10.00">D:/PathTracer/PathTracer</text>
<text text-anchor="middle" x="469.5" y="-208.5" font-family="Helvetica,sans-Serif" font-size="10.00">/InterfaceGestion.cpp</text>
</a>
</g>
</g>
<!-- Node4&#45;&gt;Node8 -->
<g id="edge7" class="edge">
<title>Node4&#45;&gt;Node8</title>
<path fill="none" stroke="midnightblue" d="M444.9,-259.58C450.36,-250.24 456.49,-239.75 461.27,-231.58"/>
<polygon fill="midnightblue" stroke="midnightblue" points="441.77,-258 439.75,-268.4 447.81,-261.53 441.77,-258"/>
</g>
<!-- Node9 -->
<g id="node9" class="node">
<title>Node9</title>
<g id="a_node9"><a xlink:href="_object3_d_group_8h.html" target="_top" xlink:title="Defines the Object3DGroup class and the functions around it.">
<polygon fill="white" stroke="black" points="957,-201.5 957,-231.5 1084,-231.5 1084,-201.5 957,-201.5"/>
<text text-anchor="start" x="965" y="-219.5" font-family="Helvetica,sans-Serif" font-size="10.00">D:/PathTracer/PathTracer</text>
<text text-anchor="middle" x="1020.5" y="-208.5" font-family="Helvetica,sans-Serif" font-size="10.00">/Object3DGroup.h</text>
</a>
</g>
</g>
<!-- Node4&#45;&gt;Node9 -->
<g id="edge8" class="edge">
<title>Node4&#45;&gt;Node9</title>
<path fill="none" stroke="midnightblue" d="M505.2,-268C674.04,-243.44 860.9,-228.49 956.7,-221.71"/>
<polygon fill="midnightblue" stroke="midnightblue" points="504.52,-264.56 495.14,-269.48 505.54,-271.49 504.52,-264.56"/>
</g>
<!-- Node4&#45;&gt;Node11 -->
<g id="edge17" class="edge">
<title>Node4&#45;&gt;Node11</title>
<path fill="none" stroke="midnightblue" d="M496.57,-264.57C513.66,-257.02 530.61,-246.51 542.5,-232 558.43,-212.56 561.51,-182.17 561.83,-164.51"/>
<polygon fill="midnightblue" stroke="midnightblue" points="495.01,-261.43 487.09,-268.47 497.67,-267.9 495.01,-261.43"/>
</g>
<!-- Node13 -->
<g id="node13" class="node">
<title>Node13</title>
<g id="a_node13"><a xlink:href="_picture_8h.html" target="_top" xlink:title="Defines the Picture class and the functions around it.">
<polygon fill="white" stroke="black" points="222,-201.5 222,-231.5 349,-231.5 349,-201.5 222,-201.5"/>
<text text-anchor="start" x="230" y="-219.5" font-family="Helvetica,sans-Serif" font-size="10.00">D:/PathTracer/PathTracer</text>
<text text-anchor="middle" x="285.5" y="-208.5" font-family="Helvetica,sans-Serif" font-size="10.00">/Picture.h</text>
</a>
</g>
</g>
<!-- Node4&#45;&gt;Node13 -->
<g id="edge14" class="edge">
<title>Node4&#45;&gt;Node13</title>
<path fill="none" stroke="midnightblue" d="M390.55,-264.27C367.3,-253.92 338.63,-241.15 317.12,-231.58"/>
<polygon fill="midnightblue" stroke="midnightblue" points="389.26,-267.53 399.82,-268.4 392.11,-261.13 389.26,-267.53"/>
</g>
<!-- Node6 -->
<g id="node6" class="node">
<title>Node6</title>
<g id="a_node6"><a xlink:href="_interface_8cpp.html" target="_top" xlink:title=" ">
<polygon fill="white" stroke="black" points="170,-0.5 170,-30.5 297,-30.5 297,-0.5 170,-0.5"/>
<text text-anchor="start" x="178" y="-18.5" font-family="Helvetica,sans-Serif" font-size="10.00">D:/PathTracer/PathTracer</text>
<text text-anchor="middle" x="233.5" y="-7.5" font-family="Helvetica,sans-Serif" font-size="10.00">/Interface.cpp</text>
</a>
</g>
</g>
<!-- Node5&#45;&gt;Node6 -->
<g id="edge5" class="edge">
<title>Node5&#45;&gt;Node6</title>
<path fill="none" stroke="midnightblue" d="M282.35,-60.6C271.48,-50.78 258.8,-39.34 249.09,-30.58"/>
<polygon fill="midnightblue" stroke="midnightblue" points="280.11,-63.29 289.88,-67.4 284.8,-58.1 280.11,-63.29"/>
</g>
<!-- Node7 -->
<g id="node7" class="node">
<title>Node7</title>
<g id="a_node7"><a xlink:href="main_8cpp.html" target="_top" xlink:title=" ">
<polygon fill="white" stroke="black" points="315,-0.5 315,-30.5 442,-30.5 442,-0.5 315,-0.5"/>
<text text-anchor="start" x="323" y="-18.5" font-family="Helvetica,sans-Serif" font-size="10.00">D:/PathTracer/PathTracer</text>
<text text-anchor="middle" x="378.5" y="-7.5" font-family="Helvetica,sans-Serif" font-size="10.00">/main.cpp</text>
</a>
</g>
</g>
<!-- Node5&#45;&gt;Node7 -->
<g id="edge6" class="edge">
<title>Node5&#45;&gt;Node7</title>
<path fill="none" stroke="midnightblue" d="M328.97,-60.6C340,-50.78 352.84,-39.34 362.69,-30.58"/>
<polygon fill="midnightblue" stroke="midnightblue" points="326.48,-58.13 321.34,-67.4 331.14,-63.36 326.48,-58.13"/>
</g>
<!-- Node9&#45;&gt;Node5 -->
<g id="edge9" class="edge">
<title>Node9&#45;&gt;Node5</title>
<path fill="none" stroke="midnightblue" d="M949.1,-199.18C871.8,-181.8 744.77,-154.09 634.5,-134 542.54,-117.25 435.45,-101.5 369.05,-92.18"/>
<polygon fill="midnightblue" stroke="midnightblue" points="948.68,-202.67 959.2,-201.45 950.22,-195.84 948.68,-202.67"/>
</g>
<!-- Node10 -->
<g id="node10" class="node">
<title>Node10</title>
<g id="a_node10"><a xlink:href="_object3_d_group_8cpp.html" target="_top" xlink:title=" ">
<polygon fill="white" stroke="black" points="957,-134.5 957,-164.5 1084,-164.5 1084,-134.5 957,-134.5"/>
<text text-anchor="start" x="965" y="-152.5" font-family="Helvetica,sans-Serif" font-size="10.00">D:/PathTracer/PathTracer</text>
<text text-anchor="middle" x="1020.5" y="-141.5" font-family="Helvetica,sans-Serif" font-size="10.00">/Object3DGroup.cpp</text>
</a>
</g>
</g>
<!-- Node9&#45;&gt;Node10 -->
<g id="edge10" class="edge">
<title>Node9&#45;&gt;Node10</title>
<path fill="none" stroke="midnightblue" d="M1020.5,-191.11C1020.5,-182.15 1020.5,-172.32 1020.5,-164.58"/>
<polygon fill="midnightblue" stroke="midnightblue" points="1017,-191.4 1020.5,-201.4 1024,-191.4 1017,-191.4"/>
</g>
<!-- Node9&#45;&gt;Node11 -->
<g id="edge11" class="edge">
<title>Node9&#45;&gt;Node11</title>
<path fill="none" stroke="midnightblue" d="M946.43,-201.63C945.11,-201.42 943.8,-201.21 942.5,-201 831.14,-183.28 700.77,-166.95 625.02,-157.89"/>
<polygon fill="midnightblue" stroke="midnightblue" points="946.25,-205.15 956.7,-203.36 947.41,-198.25 946.25,-205.15"/>
</g>
<!-- Node11&#45;&gt;Node5 -->
<g id="edge12" class="edge">
<title>Node11&#45;&gt;Node5</title>
<path fill="none" stroke="midnightblue" d="M496.45,-131.98C454.64,-121.37 400.89,-107.72 361.08,-97.61"/>
<polygon fill="midnightblue" stroke="midnightblue" points="495.71,-135.41 506.27,-134.48 497.44,-128.62 495.71,-135.41"/>
</g>
<!-- Node12 -->
<g id="node12" class="node">
<title>Node12</title>
<g id="a_node12"><a xlink:href="_scene_8cpp.html" target="_top" xlink:title=" ">
<polygon fill="white" stroke="black" points="498,-67.5 498,-97.5 625,-97.5 625,-67.5 498,-67.5"/>
<text text-anchor="start" x="506" y="-85.5" font-family="Helvetica,sans-Serif" font-size="10.00">D:/PathTracer/PathTracer</text>
<text text-anchor="middle" x="561.5" y="-74.5" font-family="Helvetica,sans-Serif" font-size="10.00">/Scene.cpp</text>
</a>
</g>
</g>
<!-- Node11&#45;&gt;Node12 -->
<g id="edge13" class="edge">
<title>Node11&#45;&gt;Node12</title>
<path fill="none" stroke="midnightblue" d="M561.5,-124.11C561.5,-115.15 561.5,-105.32 561.5,-97.58"/>
<polygon fill="midnightblue" stroke="midnightblue" points="558,-124.4 561.5,-134.4 565,-124.4 558,-124.4"/>
</g>
<!-- Node13&#45;&gt;Node11 -->
<g id="edge16" class="edge">
<title>Node13&#45;&gt;Node11</title>
<path fill="none" stroke="midnightblue" d="M355.06,-199.12C400.22,-188.48 458.48,-174.76 501.58,-164.61"/>
<polygon fill="midnightblue" stroke="midnightblue" points="353.98,-195.78 345.05,-201.48 355.58,-202.59 353.98,-195.78"/>
</g>
<!-- Node14 -->
<g id="node14" class="node">
<title>Node14</title>
<g id="a_node14"><a xlink:href="_picture_8cpp.html" target="_top" xlink:title=" ">
<polygon fill="white" stroke="black" points="222,-134.5 222,-164.5 349,-164.5 349,-134.5 222,-134.5"/>
<text text-anchor="start" x="230" y="-152.5" font-family="Helvetica,sans-Serif" font-size="10.00">D:/PathTracer/PathTracer</text>
<text text-anchor="middle" x="285.5" y="-141.5" font-family="Helvetica,sans-Serif" font-size="10.00">/Picture.cpp</text>
</a>
</g>
</g>
<!-- Node13&#45;&gt;Node14 -->
<g id="edge15" class="edge">
<title>Node13&#45;&gt;Node14</title>
<path fill="none" stroke="midnightblue" d="M285.5,-191.11C285.5,-182.15 285.5,-172.32 285.5,-164.58"/>
<polygon fill="midnightblue" stroke="midnightblue" points="282,-191.4 285.5,-201.4 289,-191.4 282,-191.4"/>
</g>
<!-- Node15&#45;&gt;Node4 -->
<g id="edge19" class="edge">
<title>Node15&#45;&gt;Node4</title>
<path fill="none" stroke="midnightblue" d="M538.03,-409.2C507.42,-402.53 473.87,-389.88 451.5,-366 434.17,-347.5 431.16,-316.5 431.01,-298.53"/>
<polygon fill="midnightblue" stroke="midnightblue" points="537.35,-412.63 547.85,-411.16 538.73,-405.77 537.35,-412.63"/>
</g>
<!-- Node15&#45;&gt;Node9 -->
<g id="edge21" class="edge">
<title>Node15&#45;&gt;Node9</title>
<path fill="none" stroke="midnightblue" d="M685.29,-412.68C807.41,-405.74 1041.09,-389.54 1070.5,-366 1105.43,-338.05 1114.27,-307.63 1093.5,-268 1085.06,-251.89 1068.89,-239.91 1053.91,-231.66"/>
<polygon fill="midnightblue" stroke="midnightblue" points="685.05,-409.19 675.26,-413.25 685.44,-416.18 685.05,-409.19"/>
</g>
<!-- Node15&#45;&gt;Node11 -->
<g id="edge26" class="edge">
<title>Node15&#45;&gt;Node11</title>
<path fill="none" stroke="midnightblue" d="M615.75,-392.09C619.37,-375.3 625.58,-352.88 635.5,-335 645.89,-316.28 659.89,-319.01 667.5,-299 672.4,-286.12 669.49,-281.63 667.5,-268 663.01,-237.25 666.67,-225.46 647.5,-201 634.89,-184.92 615.64,-172.94 598.54,-164.69"/>
<polygon fill="midnightblue" stroke="midnightblue" points="612.26,-391.72 613.74,-402.21 619.12,-393.09 612.26,-391.72"/>
</g>
<!-- Node16 -->
<g id="node16" class="node">
<title>Node16</title>
<g id="a_node16"><a xlink:href="_object3_d_8cpp.html" target="_top" xlink:title=" ">
<polygon fill="white" stroke="black" points="644,-335.5 644,-365.5 771,-365.5 771,-335.5 644,-335.5"/>
<text text-anchor="start" x="652" y="-353.5" font-family="Helvetica,sans-Serif" font-size="10.00">D:/PathTracer/PathTracer</text>
<text text-anchor="middle" x="707.5" y="-342.5" font-family="Helvetica,sans-Serif" font-size="10.00">/Object3D.cpp</text>
</a>
</g>
</g>
<!-- Node15&#45;&gt;Node16 -->
<g id="edge20" class="edge">
<title>Node15&#45;&gt;Node16</title>
<path fill="none" stroke="midnightblue" d="M640.69,-396.73C655.55,-386.68 673.26,-374.68 686.71,-365.58"/>
<polygon fill="midnightblue" stroke="midnightblue" points="638.65,-393.89 632.33,-402.4 642.57,-399.69 638.65,-393.89"/>
</g>
<!-- Node15&#45;&gt;Node17 -->
<g id="edge22" class="edge">
<title>Node15&#45;&gt;Node17</title>
<path fill="none" stroke="midnightblue" d="M537.49,-402.68C475.04,-391.01 386.57,-374.49 327.22,-363.4"/>
<polygon fill="midnightblue" stroke="midnightblue" points="537.2,-406.18 547.67,-404.58 538.48,-399.3 537.2,-406.18"/>
</g>
<!-- Node15&#45;&gt;Node19 -->
<g id="edge27" class="edge">
<title>Node15&#45;&gt;Node19</title>
<path fill="none" stroke="midnightblue" d="M685.03,-405.51C748.75,-395.79 843.37,-380.87 925.5,-366 928.26,-365.5 931.08,-364.98 933.92,-364.44"/>
<polygon fill="midnightblue" stroke="midnightblue" points="684.43,-402.06 675.07,-407.02 685.49,-408.98 684.43,-402.06"/>
</g>
<!-- Node15&#45;&gt;Node21 -->
<g id="edge31" class="edge">
<title>Node15&#45;&gt;Node21</title>
<path fill="none" stroke="midnightblue" d="M673.23,-399.85C712.53,-389.25 762.86,-375.68 800.18,-365.61"/>
<polygon fill="midnightblue" stroke="midnightblue" points="672.24,-396.49 663.5,-402.48 674.06,-403.25 672.24,-396.49"/>
</g>
<!-- Node23 -->
<g id="node23" class="node">
<title>Node23</title>
<g id="a_node23"><a xlink:href="_triangle_8h.html" target="_top" xlink:title="Defines the Triangle class.">
<polygon fill="white" stroke="black" points="460,-335.5 460,-365.5 587,-365.5 587,-335.5 460,-335.5"/>
<text text-anchor="start" x="468" y="-353.5" font-family="Helvetica,sans-Serif" font-size="10.00">D:/PathTracer/PathTracer</text>
<text text-anchor="middle" x="523.5" y="-342.5" font-family="Helvetica,sans-Serif" font-size="10.00">/Triangle.h</text>
</a>
</g>
</g>
<!-- Node15&#45;&gt;Node23 -->
<g id="edge35" class="edge">
<title>Node15&#45;&gt;Node23</title>
<path fill="none" stroke="midnightblue" d="M584.36,-396.45C570.82,-386.45 554.77,-374.6 542.56,-365.58"/>
<polygon fill="midnightblue" stroke="midnightblue" points="582.28,-399.27 592.41,-402.4 586.44,-393.64 582.28,-399.27"/>
</g>
<!-- Node17&#45;&gt;Node4 -->
<g id="edge23" class="edge">
<title>Node17&#45;&gt;Node4</title>
<path fill="none" stroke="midnightblue" d="M309.55,-331.68C336.5,-321.26 370.04,-308.28 395.12,-298.58"/>
<polygon fill="midnightblue" stroke="midnightblue" points="308.02,-328.52 299.95,-335.4 310.54,-335.05 308.02,-328.52"/>
</g>
<!-- Node17&#45;&gt;Node11 -->
<g id="edge25" class="edge">
<title>Node17&#45;&gt;Node11</title>
<path fill="none" stroke="midnightblue" d="M288.78,-328.82C299.01,-320.02 310.7,-309.4 320.5,-299 358.49,-258.69 351.84,-232.36 397.5,-201 427.34,-180.51 465.8,-168.09 497.97,-160.7"/>
<polygon fill="midnightblue" stroke="midnightblue" points="286.32,-326.32 280.95,-335.45 290.84,-331.66 286.32,-326.32"/>
</g>
<!-- Node18 -->
<g id="node18" class="node">
<title>Node18</title>
<g id="a_node18"><a xlink:href="_refractive_material_8cpp.html" target="_top" xlink:title=" ">
<polygon fill="white" stroke="black" points="184,-268.5 184,-298.5 311,-298.5 311,-268.5 184,-268.5"/>
<text text-anchor="start" x="192" y="-286.5" font-family="Helvetica,sans-Serif" font-size="10.00">D:/PathTracer/PathTracer</text>
<text text-anchor="middle" x="247.5" y="-275.5" font-family="Helvetica,sans-Serif" font-size="10.00">/RefractiveMaterial.cpp</text>
</a>
</g>
</g>
<!-- Node17&#45;&gt;Node18 -->
<g id="edge24" class="edge">
<title>Node17&#45;&gt;Node18</title>
<path fill="none" stroke="midnightblue" d="M257.57,-325.4C255.34,-316.37 252.89,-306.41 250.96,-298.58"/>
<polygon fill="midnightblue" stroke="midnightblue" points="254.24,-326.52 260.03,-335.4 261.04,-324.85 254.24,-326.52"/>
</g>
<!-- Node19&#45;&gt;Node4 -->
<g id="edge28" class="edge">
<title>Node19&#45;&gt;Node4</title>
<path fill="none" stroke="midnightblue" d="M923.85,-334.87C737.83,-309 687.17,-324.87 504.5,-299 501.43,-298.57 498.29,-298.08 495.13,-297.57"/>
<polygon fill="midnightblue" stroke="midnightblue" points="923.57,-338.36 933.96,-336.3 924.55,-331.43 923.57,-338.36"/>
</g>
<!-- Node19&#45;&gt;Node11 -->
<g id="edge29" class="edge">
<title>Node19&#45;&gt;Node11</title>
<path fill="none" stroke="midnightblue" d="M976.07,-327.95C954.89,-306.98 923.67,-276.99 909.5,-268 842.32,-225.38 818.84,-226.57 743.5,-201 702.2,-186.99 654.69,-173.9 618.57,-164.57"/>
<polygon fill="midnightblue" stroke="midnightblue" points="973.81,-330.64 983.36,-335.21 978.75,-325.68 973.81,-330.64"/>
</g>
<!-- Node20 -->
<g id="node20" class="node">
<title>Node20</title>
<g id="a_node20"><a xlink:href="_specular_material_8cpp.html" target="_top" xlink:title=" ">
<polygon fill="white" stroke="black" points="957,-268.5 957,-298.5 1084,-298.5 1084,-268.5 957,-268.5"/>
<text text-anchor="start" x="965" y="-286.5" font-family="Helvetica,sans-Serif" font-size="10.00">D:/PathTracer/PathTracer</text>
<text text-anchor="middle" x="1020.5" y="-275.5" font-family="Helvetica,sans-Serif" font-size="10.00">/SpecularMaterial.cpp</text>
</a>
</g>
</g>
<!-- Node19&#45;&gt;Node20 -->
<g id="edge30" class="edge">
<title>Node19&#45;&gt;Node20</title>
<path fill="none" stroke="midnightblue" d="M1005.92,-325.7C1009.15,-316.59 1012.72,-306.49 1015.52,-298.58"/>
<polygon fill="midnightblue" stroke="midnightblue" points="1002.53,-324.8 1002.49,-335.4 1009.13,-327.14 1002.53,-324.8"/>
</g>
<!-- Node21&#45;&gt;Node4 -->
<g id="edge32" class="edge">
<title>Node21&#45;&gt;Node4</title>
<path fill="none" stroke="midnightblue" d="M778.82,-334.79C656.71,-314.99 623.35,-318.53 504.5,-299 501.44,-298.5 498.31,-297.96 495.16,-297.4"/>
<polygon fill="midnightblue" stroke="midnightblue" points="778.51,-338.29 788.94,-336.45 779.64,-331.38 778.51,-338.29"/>
</g>
<!-- Node21&#45;&gt;Node11 -->
<g id="edge33" class="edge">
<title>Node21&#45;&gt;Node11</title>
<path fill="none" stroke="midnightblue" d="M807.56,-330.69C792.4,-322.66 776.35,-312.08 764.5,-299 732.45,-263.61 756.14,-232.77 720.5,-201 705.69,-187.8 661.2,-174.26 623.03,-164.53"/>
<polygon fill="midnightblue" stroke="midnightblue" points="806.32,-333.99 816.83,-335.36 809.47,-327.74 806.32,-333.99"/>
</g>
<!-- Node22 -->
<g id="node22" class="node">
<title>Node22</title>
<g id="a_node22"><a xlink:href="_sphere_8cpp.html" target="_top" xlink:title=" ">
<polygon fill="white" stroke="black" points="773,-268.5 773,-298.5 900,-298.5 900,-268.5 773,-268.5"/>
<text text-anchor="start" x="781" y="-286.5" font-family="Helvetica,sans-Serif" font-size="10.00">D:/PathTracer/PathTracer</text>
<text text-anchor="middle" x="836.5" y="-275.5" font-family="Helvetica,sans-Serif" font-size="10.00">/Sphere.cpp</text>
</a>
</g>
</g>
<!-- Node21&#45;&gt;Node22 -->
<g id="edge34" class="edge">
<title>Node21&#45;&gt;Node22</title>
<path fill="none" stroke="midnightblue" d="M846.57,-325.4C844.34,-316.37 841.89,-306.41 839.96,-298.58"/>
<polygon fill="midnightblue" stroke="midnightblue" points="843.24,-326.52 849.03,-335.4 850.04,-324.85 843.24,-326.52"/>
</g>
<!-- Node23&#45;&gt;Node4 -->
<g id="edge36" class="edge">
<title>Node23&#45;&gt;Node4</title>
<path fill="none" stroke="midnightblue" d="M495.12,-329.45C480.97,-319.45 464.19,-307.6 451.42,-298.58"/>
<polygon fill="midnightblue" stroke="midnightblue" points="493.35,-332.48 503.54,-335.4 497.39,-326.77 493.35,-332.48"/>
</g>
<!-- Node23&#45;&gt;Node11 -->
<g id="edge37" class="edge">
<title>Node23&#45;&gt;Node11</title>
<path fill="none" stroke="midnightblue" d="M596.89,-336.18C617.32,-328.73 637.25,-317.11 649.5,-299 681.83,-251.22 615.78,-191.33 581.02,-164.56"/>
<polygon fill="midnightblue" stroke="midnightblue" points="595.56,-332.94 587.18,-339.42 597.77,-339.58 595.56,-332.94"/>
</g>
<!-- Node24 -->
<g id="node24" class="node">
<title>Node24</title>
<g id="a_node24"><a xlink:href="_triangle_8cpp.html" target="_top" xlink:title=" ">
<polygon fill="white" stroke="black" points="513,-268.5 513,-298.5 640,-298.5 640,-268.5 513,-268.5"/>
<text text-anchor="start" x="521" y="-286.5" font-family="Helvetica,sans-Serif" font-size="10.00">D:/PathTracer/PathTracer</text>
<text text-anchor="middle" x="576.5" y="-275.5" font-family="Helvetica,sans-Serif" font-size="10.00">/Triangle.cpp</text>
</a>
</g>
</g>
<!-- Node23&#45;&gt;Node24 -->
<g id="edge38" class="edge">
<title>Node23&#45;&gt;Node24</title>
<path fill="none" stroke="midnightblue" d="M541.48,-327.45C549.27,-317.9 558.15,-307 565.02,-298.58"/>
<polygon fill="midnightblue" stroke="midnightblue" points="538.61,-325.43 535,-335.4 544.03,-329.86 538.61,-325.43"/>
</g>
<!-- Node25&#45;&gt;Node2 -->
<g id="edge41" class="edge">
<title>Node25&#45;&gt;Node2</title>
<path fill="none" stroke="midnightblue" d="M501.96,-534.12C458.11,-523.48 401.54,-509.76 359.68,-499.61"/>
<polygon fill="midnightblue" stroke="midnightblue" points="501.13,-537.52 511.68,-536.48 502.78,-530.72 501.13,-537.52"/>
</g>
<!-- Node25&#45;&gt;Node4 -->
<g id="edge42" class="edge">
<title>Node25&#45;&gt;Node4</title>
<path fill="none" stroke="midnightblue" d="M525.77,-531.7C511.1,-523.67 495.65,-513.09 484.5,-500 442.96,-451.25 443.49,-428.91 431.5,-366 427.08,-342.79 428.42,-315.18 429.9,-298.79"/>
<polygon fill="midnightblue" stroke="midnightblue" points="524.27,-534.87 534.75,-536.37 527.49,-528.65 524.27,-534.87"/>
</g>
<!-- Node25&#45;&gt;Node15 -->
<g id="edge44" class="edge">
<title>Node25&#45;&gt;Node15</title>
<path fill="none" stroke="midnightblue" d="M611.76,-531.08C623.91,-523.25 635.71,-512.96 642.5,-500 654.31,-477.47 637.27,-449.41 624.16,-432.79"/>
<polygon fill="midnightblue" stroke="midnightblue" points="609.71,-528.22 602.91,-536.34 613.29,-534.23 609.71,-528.22"/>
</g>
<!-- Node25&#45;&gt;Node17 -->
<g id="edge45" class="edge">
<title>Node25&#45;&gt;Node17</title>
<path fill="none" stroke="midnightblue" d="M496.99,-533.59C470.81,-525.67 441.76,-514.68 417.5,-500 401.21,-490.15 312.26,-400.85 277.46,-365.66"/>
<polygon fill="midnightblue" stroke="midnightblue" points="496.28,-537.03 506.86,-536.48 498.25,-530.31 496.28,-537.03"/>
</g>
<!-- Node25&#45;&gt;Node19 -->
<g id="edge46" class="edge">
<title>Node25&#45;&gt;Node19</title>
<path fill="none" stroke="midnightblue" d="M613.99,-532.48C635.34,-523.41 661.09,-511.84 683.5,-500 756.56,-461.4 766.53,-436.76 841.5,-402 874.17,-386.85 912.64,-374.34 943.21,-365.57"/>
<polygon fill="midnightblue" stroke="midnightblue" points="612.37,-529.37 604.51,-536.47 615.09,-535.82 612.37,-529.37"/>
</g>
<!-- Node25&#45;&gt;Node21 -->
<g id="edge47" class="edge">
<title>Node25&#45;&gt;Node21</title>
<path fill="none" stroke="midnightblue" d="M610.4,-531.75C626.14,-523.38 643.64,-512.55 657.5,-500 697.18,-464.08 685.45,-435.12 727.5,-402 748.55,-385.42 775.78,-373.56 799.44,-365.53"/>
<polygon fill="midnightblue" stroke="midnightblue" points="608.67,-528.7 601.38,-536.39 611.88,-534.93 608.67,-528.7"/>
</g>
<!-- Node25&#45;&gt;Node23 -->
<g id="edge48" class="edge">
<title>Node25&#45;&gt;Node23</title>
<path fill="none" stroke="midnightblue" d="M528.11,-531.16C516.02,-523.3 504.25,-512.97 497.5,-500 474.19,-455.18 500.81,-393.54 515.32,-365.91"/>
<polygon fill="midnightblue" stroke="midnightblue" points="526.54,-534.29 536.91,-536.44 530.14,-528.29 526.54,-534.29"/>
</g>
<!-- Node26 -->
<g id="node26" class="node">
<title>Node26</title>
<g id="a_node26"><a xlink:href="_material_8cpp.html" target="_top" xlink:title=" ">
<polygon fill="white" stroke="black" points="506,-469.5 506,-499.5 633,-499.5 633,-469.5 506,-469.5"/>
<text text-anchor="start" x="514" y="-487.5" font-family="Helvetica,sans-Serif" font-size="10.00">D:/PathTracer/PathTracer</text>
<text text-anchor="middle" x="569.5" y="-476.5" font-family="Helvetica,sans-Serif" font-size="10.00">/Material.cpp</text>
</a>
</g>
</g>
<!-- Node25&#45;&gt;Node26 -->
<g id="edge43" class="edge">
<title>Node25&#45;&gt;Node26</title>
<path fill="none" stroke="midnightblue" d="M569.5,-526.11C569.5,-517.15 569.5,-507.32 569.5,-499.58"/>
<polygon fill="midnightblue" stroke="midnightblue" points="566,-526.4 569.5,-536.4 573,-526.4 566,-526.4"/>
</g>
<!-- Node27&#45;&gt;Node5 -->
<g id="edge51" class="edge">
<title>Node27&#45;&gt;Node5</title>
<path fill="none" stroke="midnightblue" d="M91.95,-195.57C105.19,-186.28 121.16,-175.08 135.5,-165 155.07,-151.24 158.48,-145.42 179.5,-134 206.42,-119.38 238.49,-106.59 263.54,-97.53"/>
<polygon fill="midnightblue" stroke="midnightblue" points="89.86,-192.76 83.68,-201.36 93.88,-198.49 89.86,-192.76"/>
</g>
<!-- Node27&#45;&gt;Node11 -->
<g id="edge53" class="edge">
<title>Node27&#45;&gt;Node11</title>
<path fill="none" stroke="midnightblue" d="M137.56,-201.61C138.88,-201.4 140.2,-201.2 141.5,-201 267.28,-181.77 415.17,-165.44 497.64,-156.89"/>
<polygon fill="midnightblue" stroke="midnightblue" points="136.6,-198.22 127.29,-203.3 137.73,-205.13 136.6,-198.22"/>
</g>
<!-- Node28 -->
<g id="node28" class="node">
<title>Node28</title>
<g id="a_node28"><a xlink:href="_perspective_camera_8cpp.html" target="_top" xlink:title=" ">
<polygon fill="white" stroke="black" points="0,-134.5 0,-164.5 127,-164.5 127,-134.5 0,-134.5"/>
<text text-anchor="start" x="8" y="-152.5" font-family="Helvetica,sans-Serif" font-size="10.00">D:/PathTracer/PathTracer</text>
<text text-anchor="middle" x="63.5" y="-141.5" font-family="Helvetica,sans-Serif" font-size="10.00">/PerspectiveCamera.cpp</text>
</a>
</g>
</g>
<!-- Node27&#45;&gt;Node28 -->
<g id="edge52" class="edge">
<title>Node27&#45;&gt;Node28</title>
<path fill="none" stroke="midnightblue" d="M63.5,-191.11C63.5,-182.15 63.5,-172.32 63.5,-164.58"/>
<polygon fill="midnightblue" stroke="midnightblue" points="60,-191.4 63.5,-201.4 67,-191.4 60,-191.4"/>
</g>
</g>
</svg>
