<?xml version="1.0" encoding="UTF-8" standalone="no"?>
<!DOCTYPE svg PUBLIC "-//W3C//DTD SVG 1.1//EN"
 "http://www.w3.org/Graphics/SVG/1.1/DTD/svg11.dtd">
<!-- Generated by graphviz version 2.44.1 (20200629.0800)
 -->
<!-- Title: D:/PathTracer/PathTracer/Scene.cpp Pages: 1 -->
<!--zoomable 655 -->
<svg id="main" version="1.1" xmlns="http://www.w3.org/2000/svg" xmlns:xlink="http://www.w3.org/1999/xlink" xml:space="preserve" onload="init(evt)">
<style type="text/css"><![CDATA[
.edge:hover path { stroke: red; }
.edge:hover polygon { stroke: red; fill: red; }
]]></style>
<script type="text/javascript"><![CDATA[
var edges = document.getElementsByTagName('g');
if (edges && edges.length) {
  for (var i=0;i<edges.length;i++) {
    if (edges[i].id.substr(0,4)=='edge') {
      edges[i].setAttribute('class','edge');
    }
  }
}
]]></script>
        <defs>
                <circle id="rim" cx="0" cy="0" r="7"/>
                <circle id="rim2" cx="0" cy="0" r="3.5"/>
                <g id="zoomPlus">
                        <use xlink:href="#rim" fill="#404040">
                                <set attributeName="fill" to="#808080" begin="zoomplus.mouseover" end="zoomplus.mouseout"/>
                        </use>
                        <path d="M-4,0h8M0,-4v8" fill="none" stroke="white" stroke-width="1.5" pointer-events="none"/>
                </g>
                <g id="zoomMin">
                        <use xlink:href="#rim" fill="#404040">
                                <set attributeName="fill" to="#808080" begin="zoomminus.mouseover" end="zoomminus.mouseout"/>
                        </use>
                        <path d="M-4,0h8" fill="none" stroke="white" stroke-width="1.5" pointer-events="none"/>
                </g>
                <g id="dirArrow">
                        <path fill="none" stroke="white" stroke-width="1.5" d="M0,-3.0v7 M-2.5,-0.5L0,-3.0L2.5,-0.5"/>
                </g>
               <g id="resetDef">
                       <use xlink:href="#rim2" fill="#404040">
                               <set attributeName="fill" to="#808080" begin="reset.mouseover" end="reset.mouseout"/>
                       </use>
               </g>
        </defs>

<script type="text/javascript">
var viewWidth = 1974;
var viewHeight = 655;
var sectionId = 'dynsection-0';
</script>
<script xlink:href="svgpan.js"/>
<svg id="graph" class="graph">
<g id="viewport">
<title>D:/PathTracer/PathTracer/Scene.cpp</title>
<polygon fill="white" stroke="transparent" points="-4,4 -4,-651 1970,-651 1970,4 -4,4"/>
<!-- Node1 -->
<g id="node1" class="node">
<title>Node1</title>
<g id="a_node1"><a xlink:title=" ">
<polygon fill="#bfbfbf" stroke="black" points="738.5,-616.5 738.5,-646.5 865.5,-646.5 865.5,-616.5 738.5,-616.5"/>
<text text-anchor="start" x="746.5" y="-634.5" font-family="Helvetica,sans-Serif" font-size="10.00">D:/PathTracer/PathTracer</text>
<text text-anchor="middle" x="802" y="-623.5" font-family="Helvetica,sans-Serif" font-size="10.00">/Scene.cpp</text>
</a>
</g>
</g>
<!-- Node2 -->
<g id="node2" class="node">
<title>Node2</title>
<g id="a_node2"><a xlink:href="_scene_8h.html" target="_top" xlink:title="Defines the Scene class and the functions around it.">
<polygon fill="white" stroke="black" points="775.5,-560.5 775.5,-579.5 828.5,-579.5 828.5,-560.5 775.5,-560.5"/>
<text text-anchor="middle" x="802" y="-567.5" font-family="Helvetica,sans-Serif" font-size="10.00">Scene.h</text>
</a>
</g>
</g>
<!-- Node1&#45;&gt;Node2 -->
<g id="edge1" class="edge">
<title>Node1&#45;&gt;Node2</title>
<path fill="none" stroke="midnightblue" d="M802,-616.4C802,-608.47 802,-598.46 802,-589.86"/>
<polygon fill="midnightblue" stroke="midnightblue" points="805.5,-589.66 802,-579.66 798.5,-589.66 805.5,-589.66"/>
</g>
<!-- Node3 -->
<g id="node3" class="node">
<title>Node3</title>
<g id="a_node3"><a xlink:title=" ">
<polygon fill="white" stroke="#bfbfbf" points="658,-448.5 658,-467.5 700,-467.5 700,-448.5 658,-448.5"/>
<text text-anchor="middle" x="679" y="-455.5" font-family="Helvetica,sans-Serif" font-size="10.00">vector</text>
</a>
</g>
</g>
<!-- Node2&#45;&gt;Node3 -->
<g id="edge2" class="edge">
<title>Node2&#45;&gt;Node3</title>
<path fill="none" stroke="midnightblue" d="M775.34,-561.29C755.25,-554.32 728.14,-542.32 710,-524 697.1,-510.97 688.81,-491.55 684.08,-477.32"/>
<polygon fill="midnightblue" stroke="midnightblue" points="687.39,-476.2 681.14,-467.65 680.7,-478.24 687.39,-476.2"/>
</g>
<!-- Node4 -->
<g id="node4" class="node">
<title>Node4</title>
<g id="a_node4"><a xlink:title=" ">
<polygon fill="white" stroke="#bfbfbf" points="1582,-504.5 1582,-523.5 1626,-523.5 1626,-504.5 1582,-504.5"/>
<text text-anchor="middle" x="1604" y="-511.5" font-family="Helvetica,sans-Serif" font-size="10.00">omp.h</text>
</a>
</g>
</g>
<!-- Node2&#45;&gt;Node4 -->
<g id="edge3" class="edge">
<title>Node2&#45;&gt;Node4</title>
<path fill="none" stroke="midnightblue" d="M828.65,-569.22C927.3,-569.67 1280.93,-567.92 1568,-524 1569.25,-523.81 1570.53,-523.59 1571.81,-523.36"/>
<polygon fill="midnightblue" stroke="midnightblue" points="1572.61,-526.77 1581.66,-521.27 1571.15,-519.92 1572.61,-526.77"/>
</g>
<!-- Node5 -->
<g id="node5" class="node">
<title>Node5</title>
<g id="a_node5"><a xlink:href="_diffuse_material_8h.html" target="_top" xlink:title="Defines the DiffuseMaterial class.">
<polygon fill="white" stroke="black" points="384.5,-280.5 384.5,-299.5 473.5,-299.5 473.5,-280.5 384.5,-280.5"/>
<text text-anchor="middle" x="429" y="-287.5" font-family="Helvetica,sans-Serif" font-size="10.00">DiffuseMaterial.h</text>
</a>
</g>
</g>
<!-- Node2&#45;&gt;Node5 -->
<g id="edge4" class="edge">
<title>Node2&#45;&gt;Node5</title>
<path fill="none" stroke="midnightblue" d="M775.39,-567.75C646.13,-561.36 90,-529.75 90,-459 90,-459 90,-459 90,-401 90,-341.97 278.31,-309.83 374.23,-297.28"/>
<polygon fill="midnightblue" stroke="midnightblue" points="374.86,-300.73 384.33,-295.99 373.97,-293.79 374.86,-300.73"/>
</g>
<!-- Node10 -->
<g id="node10" class="node">
<title>Node10</title>
<g id="a_node10"><a xlink:title=" ">
<polygon fill="white" stroke="#bfbfbf" points="1333.5,-0.5 1333.5,-19.5 1386.5,-19.5 1386.5,-0.5 1333.5,-0.5"/>
<text text-anchor="middle" x="1360" y="-7.5" font-family="Helvetica,sans-Serif" font-size="10.00">fbxsdk.h</text>
</a>
</g>
</g>
<!-- Node2&#45;&gt;Node10 -->
<g id="edge83" class="edge">
<title>Node2&#45;&gt;Node10</title>
<path fill="none" stroke="midnightblue" d="M828.76,-567.97C962.72,-562.45 1554,-533.88 1554,-459 1554,-459 1554,-459 1554,-121 1554,-49.38 1452.7,-23.83 1396.5,-15.16"/>
<polygon fill="midnightblue" stroke="midnightblue" points="1396.96,-11.69 1386.57,-13.73 1395.97,-18.62 1396.96,-11.69"/>
</g>
<!-- Node14 -->
<g id="node14" class="node">
<title>Node14</title>
<g id="a_node14"><a xlink:href="_double_matrix33_8h.html" target="_top" xlink:title="Defines the DoubleMatrix33 class and the functions around it.">
<polygon fill="white" stroke="black" points="1434,-336.5 1434,-355.5 1526,-355.5 1526,-336.5 1434,-336.5"/>
<text text-anchor="middle" x="1480" y="-343.5" font-family="Helvetica,sans-Serif" font-size="10.00">DoubleMatrix33.h</text>
</a>
</g>
</g>
<!-- Node2&#45;&gt;Node14 -->
<g id="edge19" class="edge">
<title>Node2&#45;&gt;Node14</title>
<path fill="none" stroke="midnightblue" d="M828.83,-567.19C950.86,-558.69 1449.33,-520.88 1492,-468 1515.77,-438.54 1500.36,-390.99 1488.99,-365.15"/>
<polygon fill="midnightblue" stroke="midnightblue" points="1492.03,-363.39 1484.63,-355.8 1485.68,-366.34 1492.03,-363.39"/>
</g>
<!-- Node15 -->
<g id="node15" class="node">
<title>Node15</title>
<g id="a_node15"><a xlink:href="_object3_d_8h.html" target="_top" xlink:title="Defines the Object3D class and the functions around it.">
<polygon fill="white" stroke="black" points="576.5,-336.5 576.5,-355.5 641.5,-355.5 641.5,-336.5 576.5,-336.5"/>
<text text-anchor="middle" x="609" y="-343.5" font-family="Helvetica,sans-Serif" font-size="10.00">Object3D.h</text>
</a>
</g>
</g>
<!-- Node2&#45;&gt;Node15 -->
<g id="edge21" class="edge">
<title>Node2&#45;&gt;Node15</title>
<path fill="none" stroke="midnightblue" d="M775.39,-565.12C746.11,-559.82 698.73,-548.06 665,-524 614.12,-487.72 599.93,-471.23 580,-412 574.3,-395.06 584.3,-376.52 594.07,-363.59"/>
<polygon fill="midnightblue" stroke="midnightblue" points="596.97,-365.57 600.61,-355.62 591.56,-361.13 596.97,-365.57"/>
</g>
<!-- Node17 -->
<g id="node17" class="node">
<title>Node17</title>
<g id="a_node17"><a xlink:href="_object3_d_group_8h.html" target="_top" xlink:title="Defines the Object3DGroup class and the functions around it.">
<polygon fill="white" stroke="black" points="719,-504.5 719,-523.5 811,-523.5 811,-504.5 719,-504.5"/>
<text text-anchor="middle" x="765" y="-511.5" font-family="Helvetica,sans-Serif" font-size="10.00">Object3DGroup.h</text>
</a>
</g>
</g>
<!-- Node2&#45;&gt;Node17 -->
<g id="edge28" class="edge">
<title>Node2&#45;&gt;Node17</title>
<path fill="none" stroke="midnightblue" d="M795.89,-560.08C790.72,-552.53 783.15,-541.49 776.81,-532.23"/>
<polygon fill="midnightblue" stroke="midnightblue" points="779.54,-530.02 771,-523.75 773.76,-533.98 779.54,-530.02"/>
</g>
<!-- Node18 -->
<g id="node18" class="node">
<title>Node18</title>
<g id="a_node18"><a xlink:href="_interface_gestion_8h.html" target="_top" xlink:title="Defines functions that are used when drawing the interface.">
<polygon fill="white" stroke="black" points="756.5,-448.5 756.5,-467.5 851.5,-467.5 851.5,-448.5 756.5,-448.5"/>
<text text-anchor="middle" x="804" y="-455.5" font-family="Helvetica,sans-Serif" font-size="10.00">InterfaceGestion.h</text>
</a>
</g>
</g>
<!-- Node2&#45;&gt;Node18 -->
<g id="edge82" class="edge">
<title>Node2&#45;&gt;Node18</title>
<path fill="none" stroke="midnightblue" d="M806.62,-560.34C811.06,-551.49 817.45,-537.22 820,-524 823.09,-507.97 817.97,-489.97 812.72,-476.98"/>
<polygon fill="midnightblue" stroke="midnightblue" points="815.89,-475.49 808.64,-467.77 809.49,-478.33 815.89,-475.49"/>
</g>
<!-- Node22 -->
<g id="node22" class="node">
<title>Node22</title>
<g id="a_node22"><a xlink:href="_specular_material_8h.html" target="_top" xlink:title="Defines the SpecularMaterial class.">
<polygon fill="white" stroke="black" points="832,-392.5 832,-411.5 930,-411.5 930,-392.5 832,-392.5"/>
<text text-anchor="middle" x="881" y="-399.5" font-family="Helvetica,sans-Serif" font-size="10.00">SpecularMaterial.h</text>
</a>
</g>
</g>
<!-- Node2&#45;&gt;Node22 -->
<g id="edge80" class="edge">
<title>Node2&#45;&gt;Node22</title>
<path fill="none" stroke="midnightblue" d="M809.16,-560.42C816.27,-551.63 827.21,-537.4 835,-524 854.78,-489.96 869.03,-445.85 876.05,-421.39"/>
<polygon fill="midnightblue" stroke="midnightblue" points="879.46,-422.21 878.77,-411.64 872.71,-420.34 879.46,-422.21"/>
</g>
<!-- Node23 -->
<g id="node23" class="node">
<title>Node23</title>
<g id="a_node23"><a xlink:href="_refractive_material_8h.html" target="_top" xlink:title="Defines the RefractiveMaterial class.">
<polygon fill="white" stroke="black" points="607.5,-392.5 607.5,-411.5 708.5,-411.5 708.5,-392.5 607.5,-392.5"/>
<text text-anchor="middle" x="658" y="-399.5" font-family="Helvetica,sans-Serif" font-size="10.00">RefractiveMaterial.h</text>
</a>
</g>
</g>
<!-- Node2&#45;&gt;Node23 -->
<g id="edge79" class="edge">
<title>Node2&#45;&gt;Node23</title>
<path fill="none" stroke="midnightblue" d="M775.39,-562.19C752.03,-555.29 717.97,-542.91 693,-524 667.77,-504.89 659.35,-497.91 649,-468 643.76,-452.86 647,-434.74 650.97,-421.48"/>
<polygon fill="midnightblue" stroke="midnightblue" points="654.41,-422.26 654.32,-411.66 647.78,-420 654.41,-422.26"/>
</g>
<!-- Node24 -->
<g id="node24" class="node">
<title>Node24</title>
<g id="a_node24"><a xlink:href="_sphere_8h.html" target="_top" xlink:title="Defines the Sphere class.">
<polygon fill="white" stroke="black" points="278,-392.5 278,-411.5 334,-411.5 334,-392.5 278,-392.5"/>
<text text-anchor="middle" x="306" y="-399.5" font-family="Helvetica,sans-Serif" font-size="10.00">Sphere.h</text>
</a>
</g>
</g>
<!-- Node2&#45;&gt;Node24 -->
<g id="edge81" class="edge">
<title>Node2&#45;&gt;Node24</title>
<path fill="none" stroke="midnightblue" d="M775.45,-567.99C700.96,-564.81 491.38,-553.41 430,-524 379.77,-499.94 337.33,-447.38 317.69,-420.14"/>
<polygon fill="midnightblue" stroke="midnightblue" points="320.33,-417.81 311.72,-411.65 314.61,-421.84 320.33,-417.81"/>
</g>
<!-- Node25 -->
<g id="node25" class="node">
<title>Node25</title>
<g id="a_node25"><a xlink:href="_triangle_8h.html" target="_top" xlink:title="Defines the Triangle class.">
<polygon fill="white" stroke="black" points="377.5,-392.5 377.5,-411.5 436.5,-411.5 436.5,-392.5 377.5,-392.5"/>
<text text-anchor="middle" x="407" y="-399.5" font-family="Helvetica,sans-Serif" font-size="10.00">Triangle.h</text>
</a>
</g>
</g>
<!-- Node2&#45;&gt;Node25 -->
<g id="edge64" class="edge">
<title>Node2&#45;&gt;Node25</title>
<path fill="none" stroke="midnightblue" d="M775.4,-569.06C702.39,-568.7 501.01,-564.01 451,-524 419.54,-498.83 410.57,-449.12 408.01,-421.9"/>
<polygon fill="midnightblue" stroke="midnightblue" points="411.49,-421.47 407.26,-411.75 404.51,-421.98 411.49,-421.47"/>
</g>
<!-- Node26 -->
<g id="node26" class="node">
<title>Node26</title>
<g id="a_node26"><a xlink:href="_perspective_camera_8h.html" target="_top" xlink:title="Defines the PerspectiveCamera class.">
<polygon fill="white" stroke="black" points="28.5,-224.5 28.5,-243.5 137.5,-243.5 137.5,-224.5 28.5,-224.5"/>
<text text-anchor="middle" x="83" y="-231.5" font-family="Helvetica,sans-Serif" font-size="10.00">PerspectiveCamera.h</text>
</a>
</g>
</g>
<!-- Node2&#45;&gt;Node26 -->
<g id="edge65" class="edge">
<title>Node2&#45;&gt;Node26</title>
<path fill="none" stroke="midnightblue" d="M775.49,-568.55C671.38,-566.55 290.54,-557.09 175,-524 115.56,-506.98 52,-520.83 52,-459 52,-459 52,-459 52,-345 52,-311.41 65.56,-274.14 74.74,-252.75"/>
<polygon fill="midnightblue" stroke="midnightblue" points="77.94,-254.17 78.82,-243.61 71.55,-251.31 77.94,-254.17"/>
</g>
<!-- Node27 -->
<g id="node27" class="node">
<title>Node27</title>
<g id="a_node27"><a xlink:href="_picture_8h.html" target="_top" xlink:title="Defines the Picture class and the functions around it.">
<polygon fill="white" stroke="black" points="1168,-504.5 1168,-523.5 1224,-523.5 1224,-504.5 1168,-504.5"/>
<text text-anchor="middle" x="1196" y="-511.5" font-family="Helvetica,sans-Serif" font-size="10.00">Picture.h</text>
</a>
</g>
</g>
<!-- Node2&#45;&gt;Node27 -->
<g id="edge69" class="edge">
<title>Node2&#45;&gt;Node27</title>
<path fill="none" stroke="midnightblue" d="M828.77,-565.33C897.15,-555.96 1078.4,-531.12 1157.82,-520.23"/>
<polygon fill="midnightblue" stroke="midnightblue" points="1158.45,-523.68 1167.88,-518.85 1157.5,-516.74 1158.45,-523.68"/>
</g>
<!-- Node31 -->
<g id="node31" class="node">
<title>Node31</title>
<g id="a_node31"><a xlink:title=" ">
<polygon fill="white" stroke="#bfbfbf" points="1644,-504.5 1644,-523.5 1778,-523.5 1778,-504.5 1644,-504.5"/>
<text text-anchor="middle" x="1711" y="-511.5" font-family="Helvetica,sans-Serif" font-size="10.00">fbxsdk/fileio/fbxiosettings.h</text>
</a>
</g>
</g>
<!-- Node2&#45;&gt;Node31 -->
<g id="edge84" class="edge">
<title>Node2&#45;&gt;Node31</title>
<path fill="none" stroke="midnightblue" d="M828.66,-568.18C931.22,-564.9 1310.39,-551.56 1633.85,-524.04"/>
<polygon fill="midnightblue" stroke="midnightblue" points="1634.22,-527.52 1643.89,-523.18 1633.62,-520.55 1634.22,-527.52"/>
</g>
<!-- Node32 -->
<g id="node32" class="node">
<title>Node32</title>
<g id="a_node32"><a xlink:title=" ">
<polygon fill="white" stroke="#bfbfbf" points="1796,-504.5 1796,-523.5 1966,-523.5 1966,-504.5 1796,-504.5"/>
<text text-anchor="middle" x="1881" y="-511.5" font-family="Helvetica,sans-Serif" font-size="10.00">fbxsdk/utils/fbxgeometryconverter.h</text>
</a>
</g>
</g>
<!-- Node2&#45;&gt;Node32 -->
<g id="edge85" class="edge">
<title>Node2&#45;&gt;Node32</title>
<path fill="none" stroke="midnightblue" d="M828.67,-568.27C942.51,-565.05 1399.16,-551.09 1785.98,-524.04"/>
<polygon fill="midnightblue" stroke="midnightblue" points="1786.23,-527.53 1795.96,-523.33 1785.74,-520.54 1786.23,-527.53"/>
</g>
<!-- Node6 -->
<g id="node6" class="node">
<title>Node6</title>
<g id="a_node6"><a xlink:title=" ">
<polygon fill="white" stroke="#bfbfbf" points="234.5,-0.5 234.5,-19.5 281.5,-19.5 281.5,-0.5 234.5,-0.5"/>
<text text-anchor="middle" x="258" y="-7.5" font-family="Helvetica,sans-Serif" font-size="10.00">math.h</text>
</a>
</g>
</g>
<!-- Node5&#45;&gt;Node6 -->
<g id="edge5" class="edge">
<title>Node5&#45;&gt;Node6</title>
<path fill="none" stroke="midnightblue" d="M429.39,-280.44C430.21,-261.94 432,-216.83 432,-179 432,-179 432,-179 432,-121 432,-55.3 342.27,-27.23 291.69,-16.63"/>
<polygon fill="midnightblue" stroke="midnightblue" points="292.32,-13.19 281.83,-14.68 290.96,-20.06 292.32,-13.19"/>
</g>
<!-- Node7 -->
<g id="node7" class="node">
<title>Node7</title>
<g id="a_node7"><a xlink:href="_double_vec3_d_8h.html" target="_top" xlink:title="Defines the DoubleVec3D class and the functions around it.">
<polygon fill="white" stroke="black" points="664,-56.5 664,-75.5 748,-75.5 748,-56.5 664,-56.5"/>
<text text-anchor="middle" x="706" y="-63.5" font-family="Helvetica,sans-Serif" font-size="10.00">DoubleVec3D.h</text>
</a>
</g>
</g>
<!-- Node5&#45;&gt;Node7 -->
<g id="edge6" class="edge">
<title>Node5&#45;&gt;Node7</title>
<path fill="none" stroke="midnightblue" d="M433.82,-280.32C445.78,-259.32 478.52,-204.79 516,-168 560.7,-124.12 628.35,-94.39 669.72,-79.1"/>
<polygon fill="midnightblue" stroke="midnightblue" points="671.17,-82.3 679.39,-75.61 668.79,-75.72 671.17,-82.3"/>
</g>
<!-- Node11 -->
<g id="node11" class="node">
<title>Node11</title>
<g id="a_node11"><a xlink:href="_double_unit_vec3_d_8h.html" target="_top" xlink:title="Defines the DoubleUnitVec3D class and the functions around it.">
<polygon fill="white" stroke="black" points="302.5,-112.5 302.5,-131.5 403.5,-131.5 403.5,-112.5 302.5,-112.5"/>
<text text-anchor="middle" x="353" y="-119.5" font-family="Helvetica,sans-Serif" font-size="10.00">DoubleUnitVec3D.h</text>
</a>
</g>
</g>
<!-- Node5&#45;&gt;Node11 -->
<g id="edge11" class="edge">
<title>Node5&#45;&gt;Node11</title>
<path fill="none" stroke="midnightblue" d="M424.91,-280.08C412.85,-253.72 377.21,-175.88 361.09,-140.66"/>
<polygon fill="midnightblue" stroke="midnightblue" points="364.27,-139.2 356.92,-131.57 357.9,-142.12 364.27,-139.2"/>
</g>
<!-- Node12 -->
<g id="node12" class="node">
<title>Node12</title>
<g id="a_node12"><a xlink:href="_material_8h.html" target="_top" xlink:title="Defines the Material class and the functions around it.">
<polygon fill="white" stroke="black" points="580.5,-224.5 580.5,-243.5 639.5,-243.5 639.5,-224.5 580.5,-224.5"/>
<text text-anchor="middle" x="610" y="-231.5" font-family="Helvetica,sans-Serif" font-size="10.00">Material.h</text>
</a>
</g>
</g>
<!-- Node5&#45;&gt;Node12 -->
<g id="edge13" class="edge">
<title>Node5&#45;&gt;Node12</title>
<path fill="none" stroke="midnightblue" d="M457.68,-280.44C488.53,-271.24 537.73,-256.56 571.83,-246.39"/>
<polygon fill="midnightblue" stroke="midnightblue" points="572.87,-249.73 581.45,-243.52 570.87,-243.02 572.87,-249.73"/>
</g>
<!-- Node13 -->
<g id="node13" class="node">
<title>Node13</title>
<g id="a_node13"><a xlink:href="_ray_8h.html" target="_top" xlink:title="Defines the Ray class.">
<polygon fill="white" stroke="black" points="525,-168.5 525,-187.5 567,-187.5 567,-168.5 525,-168.5"/>
<text text-anchor="middle" x="546" y="-175.5" font-family="Helvetica,sans-Serif" font-size="10.00">Ray.h</text>
</a>
</g>
</g>
<!-- Node5&#45;&gt;Node13 -->
<g id="edge18" class="edge">
<title>Node5&#45;&gt;Node13</title>
<path fill="none" stroke="midnightblue" d="M440.29,-280.42C451.66,-271.64 469.52,-257.42 484,-244 501.05,-228.2 519.27,-208.76 531.51,-195.28"/>
<polygon fill="midnightblue" stroke="midnightblue" points="534.21,-197.51 538.3,-187.74 529,-192.83 534.21,-197.51"/>
</g>
<!-- Node7&#45;&gt;Node6 -->
<g id="edge8" class="edge">
<title>Node7&#45;&gt;Node6</title>
<path fill="none" stroke="midnightblue" d="M663.85,-59.92C575.47,-49.27 372.25,-24.77 291.74,-15.07"/>
<polygon fill="midnightblue" stroke="midnightblue" points="292.01,-11.57 281.66,-13.85 291.17,-18.52 292.01,-11.57"/>
</g>
<!-- Node8 -->
<g id="node8" class="node">
<title>Node8</title>
<g id="a_node8"><a xlink:title=" ">
<polygon fill="white" stroke="#bfbfbf" points="1073,-0.5 1073,-19.5 1127,-19.5 1127,-0.5 1073,-0.5"/>
<text text-anchor="middle" x="1100" y="-7.5" font-family="Helvetica,sans-Serif" font-size="10.00">iostream</text>
</a>
</g>
</g>
<!-- Node7&#45;&gt;Node8 -->
<g id="edge7" class="edge">
<title>Node7&#45;&gt;Node8</title>
<path fill="none" stroke="midnightblue" d="M748.16,-59.22C825.55,-48.61 989.06,-26.21 1062.68,-16.11"/>
<polygon fill="midnightblue" stroke="midnightblue" points="1063.44,-19.54 1072.87,-14.72 1062.49,-12.61 1063.44,-19.54"/>
</g>
<!-- Node9 -->
<g id="node9" class="node">
<title>Node9</title>
<g id="a_node9"><a xlink:title=" ">
<polygon fill="white" stroke="#bfbfbf" points="657,-0.5 657,-19.5 755,-19.5 755,-0.5 657,-0.5"/>
<text text-anchor="middle" x="706" y="-7.5" font-family="Helvetica,sans-Serif" font-size="10.00">nlohmann/json.hpp</text>
</a>
</g>
</g>
<!-- Node7&#45;&gt;Node9 -->
<g id="edge9" class="edge">
<title>Node7&#45;&gt;Node9</title>
<path fill="none" stroke="midnightblue" d="M706,-56.08C706,-49.01 706,-38.86 706,-29.99"/>
<polygon fill="midnightblue" stroke="midnightblue" points="709.5,-29.75 706,-19.75 702.5,-29.75 709.5,-29.75"/>
</g>
<!-- Node7&#45;&gt;Node10 -->
<g id="edge10" class="edge">
<title>Node7&#45;&gt;Node10</title>
<path fill="none" stroke="midnightblue" d="M748.16,-61.52C868.16,-51.61 1210.21,-23.37 1323.24,-14.03"/>
<polygon fill="midnightblue" stroke="midnightblue" points="1323.77,-17.5 1333.45,-13.19 1323.2,-10.53 1323.77,-17.5"/>
</g>
<!-- Node11&#45;&gt;Node7 -->
<g id="edge12" class="edge">
<title>Node11&#45;&gt;Node7</title>
<path fill="none" stroke="midnightblue" d="M403.58,-113.26C470.12,-103.08 586.51,-85.28 653.84,-74.98"/>
<polygon fill="midnightblue" stroke="midnightblue" points="654.45,-78.43 663.81,-73.45 653.39,-71.51 654.45,-78.43"/>
</g>
<!-- Node12&#45;&gt;Node7 -->
<g id="edge14" class="edge">
<title>Node12&#45;&gt;Node7</title>
<path fill="none" stroke="midnightblue" d="M615.16,-224.08C630.4,-197.72 675.42,-119.88 695.79,-84.66"/>
<polygon fill="midnightblue" stroke="midnightblue" points="699.07,-85.98 701.04,-75.57 693.01,-82.47 699.07,-85.98"/>
</g>
<!-- Node12&#45;&gt;Node13 -->
<g id="edge15" class="edge">
<title>Node12&#45;&gt;Node13</title>
<path fill="none" stroke="midnightblue" d="M599.72,-224.32C590.16,-216.26 575.72,-204.08 564.22,-194.37"/>
<polygon fill="midnightblue" stroke="midnightblue" points="566.37,-191.61 556.47,-187.83 561.86,-196.96 566.37,-191.61"/>
</g>
<!-- Node13&#45;&gt;Node7 -->
<g id="edge16" class="edge">
<title>Node13&#45;&gt;Node7</title>
<path fill="none" stroke="midnightblue" d="M555.29,-168.41C569.62,-155.37 598.28,-130.19 625,-112 642.45,-100.12 663.3,-88.59 679.47,-80.18"/>
<polygon fill="midnightblue" stroke="midnightblue" points="681.09,-83.28 688.39,-75.61 677.9,-77.05 681.09,-83.28"/>
</g>
<!-- Node13&#45;&gt;Node11 -->
<g id="edge17" class="edge">
<title>Node13&#45;&gt;Node11</title>
<path fill="none" stroke="midnightblue" d="M524.98,-171.12C493.46,-162.3 433.36,-145.49 393.23,-134.26"/>
<polygon fill="midnightblue" stroke="midnightblue" points="394.06,-130.85 383.49,-131.53 392.17,-137.59 394.06,-130.85"/>
</g>
<!-- Node14&#45;&gt;Node7 -->
<g id="edge20" class="edge">
<title>Node14&#45;&gt;Node7</title>
<path fill="none" stroke="midnightblue" d="M1451.61,-336.42C1411.49,-322.34 1343,-290.21 1343,-235 1343,-235 1343,-235 1343,-177 1343,-140.82 1325.74,-129.36 1294,-112 1247.66,-86.65 893.91,-72.93 758.5,-68.56"/>
<polygon fill="midnightblue" stroke="midnightblue" points="758.48,-65.06 748.37,-68.24 758.25,-72.05 758.48,-65.06"/>
</g>
<!-- Node15&#45;&gt;Node5 -->
<g id="edge23" class="edge">
<title>Node15&#45;&gt;Node5</title>
<path fill="none" stroke="midnightblue" d="M580.48,-336.44C549.93,-327.28 501.29,-312.69 467.4,-302.52"/>
<polygon fill="midnightblue" stroke="midnightblue" points="467.97,-299.04 457.39,-299.52 465.96,-305.74 467.97,-299.04"/>
</g>
<!-- Node15&#45;&gt;Node7 -->
<g id="edge24" class="edge">
<title>Node15&#45;&gt;Node7</title>
<path fill="none" stroke="midnightblue" d="M612.8,-336.21C625.19,-307.38 664.97,-212.88 690,-132 694.78,-116.54 699.1,-98.67 702.03,-85.59"/>
<polygon fill="midnightblue" stroke="midnightblue" points="705.52,-86.02 704.24,-75.5 698.69,-84.52 705.52,-86.02"/>
</g>
<!-- Node15&#45;&gt;Node11 -->
<g id="edge25" class="edge">
<title>Node15&#45;&gt;Node11</title>
<path fill="none" stroke="midnightblue" d="M576.17,-343.32C518.35,-339.64 401.92,-328.77 375,-300 334.14,-256.34 342.41,-177.84 348.93,-141.9"/>
<polygon fill="midnightblue" stroke="midnightblue" points="352.42,-142.31 350.93,-131.82 345.55,-140.95 352.42,-142.31"/>
</g>
<!-- Node15&#45;&gt;Node12 -->
<g id="edge26" class="edge">
<title>Node15&#45;&gt;Node12</title>
<path fill="none" stroke="midnightblue" d="M609.08,-336.37C609.24,-318.62 609.61,-277.67 609.83,-253.6"/>
<polygon fill="midnightblue" stroke="midnightblue" points="613.33,-253.62 609.92,-243.59 606.33,-253.56 613.33,-253.62"/>
</g>
<!-- Node15&#45;&gt;Node13 -->
<g id="edge27" class="edge">
<title>Node15&#45;&gt;Node13</title>
<path fill="none" stroke="midnightblue" d="M605.61,-336.08C595.65,-309.83 566.32,-232.55 552.88,-197.12"/>
<polygon fill="midnightblue" stroke="midnightblue" points="556.07,-195.68 549.25,-187.57 549.53,-198.16 556.07,-195.68"/>
</g>
<!-- Node16 -->
<g id="node16" class="node">
<title>Node16</title>
<g id="a_node16"><a xlink:title=" ">
<polygon fill="white" stroke="#bfbfbf" points="999.5,-280.5 999.5,-299.5 1040.5,-299.5 1040.5,-280.5 999.5,-280.5"/>
<text text-anchor="middle" x="1020" y="-287.5" font-family="Helvetica,sans-Serif" font-size="10.00">string</text>
</a>
</g>
</g>
<!-- Node15&#45;&gt;Node16 -->
<g id="edge22" class="edge">
<title>Node15&#45;&gt;Node16</title>
<path fill="none" stroke="midnightblue" d="M641.59,-340.72C719.05,-330.54 913.3,-305.02 989.06,-295.07"/>
<polygon fill="midnightblue" stroke="midnightblue" points="989.89,-298.49 999.35,-293.71 988.98,-291.55 989.89,-298.49"/>
</g>
<!-- Node17&#45;&gt;Node3 -->
<g id="edge30" class="edge">
<title>Node17&#45;&gt;Node3</title>
<path fill="none" stroke="midnightblue" d="M751.18,-504.32C737.77,-495.9 717.18,-482.97 701.41,-473.07"/>
<polygon fill="midnightblue" stroke="midnightblue" points="703.11,-470.01 692.78,-467.65 699.39,-475.94 703.11,-470.01"/>
</g>
<!-- Node17&#45;&gt;Node7 -->
<g id="edge31" class="edge">
<title>Node17&#45;&gt;Node7</title>
<path fill="none" stroke="midnightblue" d="M811.1,-507.65C908.33,-495.49 1129.95,-462.8 1184,-412 1206.02,-391.3 1204,-377.23 1204,-347 1204,-347 1204,-347 1204,-177 1204,-86.47 886.21,-70.38 758.35,-67.57"/>
<polygon fill="midnightblue" stroke="midnightblue" points="758.1,-64.07 748.03,-67.37 757.96,-71.07 758.1,-64.07"/>
</g>
<!-- Node17&#45;&gt;Node15 -->
<g id="edge32" class="edge">
<title>Node17&#45;&gt;Node15</title>
<path fill="none" stroke="midnightblue" d="M759.95,-504.45C751.28,-490.55 732.26,-463.05 709,-448 661.9,-417.51 621.54,-456.98 588,-412 577.42,-397.81 586.32,-378.06 595.58,-364.07"/>
<polygon fill="midnightblue" stroke="midnightblue" points="598.52,-365.98 601.52,-355.82 592.83,-361.89 598.52,-365.98"/>
</g>
<!-- Node17&#45;&gt;Node16 -->
<g id="edge29" class="edge">
<title>Node17&#45;&gt;Node16</title>
<path fill="none" stroke="midnightblue" d="M806.29,-504.49C856.76,-492.13 941.95,-464.72 995,-412 1022.17,-385 1023.6,-336.79 1021.98,-310.1"/>
<polygon fill="midnightblue" stroke="midnightblue" points="1025.44,-309.48 1021.13,-299.8 1018.46,-310.06 1025.44,-309.48"/>
</g>
<!-- Node17&#45;&gt;Node18 -->
<g id="edge33" class="edge">
<title>Node17&#45;&gt;Node18</title>
<path fill="none" stroke="midnightblue" d="M771.44,-504.08C776.95,-496.46 785.03,-485.26 791.76,-475.94"/>
<polygon fill="midnightblue" stroke="midnightblue" points="794.66,-477.91 797.68,-467.75 788.99,-473.81 794.66,-477.91"/>
</g>
<!-- Node18&#45;&gt;Node5 -->
<g id="edge39" class="edge">
<title>Node18&#45;&gt;Node5</title>
<path fill="none" stroke="midnightblue" d="M756.19,-453.17C711.12,-448.16 642.54,-436.88 588,-412 529.08,-385.12 471.54,-333.1 444.7,-306.9"/>
<polygon fill="midnightblue" stroke="midnightblue" points="446.95,-304.2 437.39,-299.65 442.03,-309.18 446.95,-304.2"/>
</g>
<!-- Node18&#45;&gt;Node7 -->
<g id="edge63" class="edge">
<title>Node18&#45;&gt;Node7</title>
<path fill="none" stroke="midnightblue" d="M851.76,-452.21C880.66,-446.89 916.2,-435.66 939,-412 959.88,-390.32 958,-377.1 958,-347 958,-347 958,-347 958,-177 958,-90.6 832.04,-71.39 758.23,-67.54"/>
<polygon fill="midnightblue" stroke="midnightblue" points="758.32,-64.05 748.18,-67.1 758.01,-71.04 758.32,-64.05"/>
</g>
<!-- Node18&#45;&gt;Node12 -->
<g id="edge38" class="edge">
<title>Node18&#45;&gt;Node12</title>
<path fill="none" stroke="midnightblue" d="M802.85,-448.39C800.79,-435.33 795.55,-410.12 784,-392 743.27,-328.11 669.72,-274.1 632.66,-249.4"/>
<polygon fill="midnightblue" stroke="midnightblue" points="634.34,-246.32 624.06,-243.76 630.51,-252.17 634.34,-246.32"/>
</g>
<!-- Node18&#45;&gt;Node15 -->
<g id="edge50" class="edge">
<title>Node18&#45;&gt;Node15</title>
<path fill="none" stroke="midnightblue" d="M756.21,-449.77C698.51,-440.55 607.93,-424.33 598,-412 587.37,-398.8 592.72,-379.13 599.11,-364.88"/>
<polygon fill="midnightblue" stroke="midnightblue" points="602.39,-366.15 603.75,-355.64 596.14,-363.01 602.39,-366.15"/>
</g>
<!-- Node18&#45;&gt;Node16 -->
<g id="edge37" class="edge">
<title>Node18&#45;&gt;Node16</title>
<path fill="none" stroke="midnightblue" d="M851.78,-455.49C888.72,-451.9 938.96,-441.41 972,-412 1002.29,-385.03 1013.7,-336.42 1017.82,-309.76"/>
<polygon fill="midnightblue" stroke="midnightblue" points="1021.33,-309.88 1019.2,-299.5 1014.39,-308.94 1021.33,-309.88"/>
</g>
<!-- Node19 -->
<g id="node19" class="node">
<title>Node19</title>
<g id="a_node19"><a xlink:title=" ">
<polygon fill="white" stroke="#bfbfbf" points="1062,-392.5 1062,-411.5 1108,-411.5 1108,-392.5 1062,-392.5"/>
<text text-anchor="middle" x="1085" y="-399.5" font-family="Helvetica,sans-Serif" font-size="10.00">chrono</text>
</a>
</g>
</g>
<!-- Node18&#45;&gt;Node19 -->
<g id="edge34" class="edge">
<title>Node18&#45;&gt;Node19</title>
<path fill="none" stroke="midnightblue" d="M848.53,-448.44C905.02,-437.59 1001.16,-419.11 1051.7,-409.4"/>
<polygon fill="midnightblue" stroke="midnightblue" points="1052.6,-412.79 1061.76,-407.47 1051.28,-405.92 1052.6,-412.79"/>
</g>
<!-- Node20 -->
<g id="node20" class="node">
<title>Node20</title>
<g id="a_node20"><a xlink:title=" ">
<polygon fill="white" stroke="#bfbfbf" points="1126.5,-392.5 1126.5,-411.5 1175.5,-411.5 1175.5,-392.5 1126.5,-392.5"/>
<text text-anchor="middle" x="1151" y="-399.5" font-family="Helvetica,sans-Serif" font-size="10.00">fstream</text>
</a>
</g>
</g>
<!-- Node18&#45;&gt;Node20 -->
<g id="edge35" class="edge">
<title>Node18&#45;&gt;Node20</title>
<path fill="none" stroke="midnightblue" d="M851.75,-451.88C911.41,-445.1 1016.73,-431.86 1116.27,-411.93"/>
<polygon fill="midnightblue" stroke="midnightblue" points="1117.09,-415.34 1126.2,-409.92 1115.7,-408.48 1117.09,-415.34"/>
</g>
<!-- Node21 -->
<g id="node21" class="node">
<title>Node21</title>
<g id="a_node21"><a xlink:title=" ">
<polygon fill="white" stroke="#bfbfbf" points="726.5,-392.5 726.5,-411.5 775.5,-411.5 775.5,-392.5 726.5,-392.5"/>
<text text-anchor="middle" x="751" y="-399.5" font-family="Helvetica,sans-Serif" font-size="10.00">random</text>
</a>
</g>
</g>
<!-- Node18&#45;&gt;Node21 -->
<g id="edge36" class="edge">
<title>Node18&#45;&gt;Node21</title>
<path fill="none" stroke="midnightblue" d="M795.25,-448.08C787.53,-440.22 776.1,-428.57 766.78,-419.08"/>
<polygon fill="midnightblue" stroke="midnightblue" points="769.09,-416.44 759.59,-411.75 764.1,-421.34 769.09,-416.44"/>
</g>
<!-- Node18&#45;&gt;Node22 -->
<g id="edge40" class="edge">
<title>Node18&#45;&gt;Node22</title>
<path fill="none" stroke="midnightblue" d="M816.37,-448.32C828.16,-440.06 846.13,-427.45 860.14,-417.63"/>
<polygon fill="midnightblue" stroke="midnightblue" points="862.48,-420.26 868.66,-411.65 858.46,-414.53 862.48,-420.26"/>
</g>
<!-- Node18&#45;&gt;Node23 -->
<g id="edge45" class="edge">
<title>Node18&#45;&gt;Node23</title>
<path fill="none" stroke="midnightblue" d="M780.87,-448.44C756.52,-439.44 717.99,-425.19 690.58,-415.05"/>
<polygon fill="midnightblue" stroke="midnightblue" points="691.62,-411.7 681.03,-411.52 689.19,-418.27 691.62,-411.7"/>
</g>
<!-- Node18&#45;&gt;Node24 -->
<g id="edge51" class="edge">
<title>Node18&#45;&gt;Node24</title>
<path fill="none" stroke="midnightblue" d="M756.31,-452.33C659.37,-442.79 442.2,-421.21 368,-412 360.27,-411.04 352.01,-409.91 344.13,-408.79"/>
<polygon fill="midnightblue" stroke="midnightblue" points="344.45,-405.3 334.05,-407.32 343.45,-412.23 344.45,-405.3"/>
</g>
<!-- Node18&#45;&gt;Node25 -->
<g id="edge58" class="edge">
<title>Node18&#45;&gt;Node25</title>
<path fill="none" stroke="midnightblue" d="M756.11,-450.49C677,-439.72 520.44,-418.43 446.91,-408.43"/>
<polygon fill="midnightblue" stroke="midnightblue" points="447.06,-404.92 436.68,-407.04 446.12,-411.85 447.06,-404.92"/>
</g>
<!-- Node22&#45;&gt;Node7 -->
<g id="edge41" class="edge">
<title>Node22&#45;&gt;Node7</title>
<path fill="none" stroke="midnightblue" d="M886.42,-392.25C897.14,-374.1 920,-330.71 920,-291 920,-291 920,-291 920,-177 920,-104.49 821.61,-79.74 758.26,-71.32"/>
<polygon fill="midnightblue" stroke="midnightblue" points="758.38,-67.8 748.02,-70.06 757.52,-74.75 758.38,-67.8"/>
</g>
<!-- Node22&#45;&gt;Node12 -->
<g id="edge42" class="edge">
<title>Node22&#45;&gt;Node12</title>
<path fill="none" stroke="midnightblue" d="M873.56,-392.38C854.3,-370.55 800.33,-312.53 744,-280 714.28,-262.84 677.05,-251 649.38,-243.79"/>
<polygon fill="midnightblue" stroke="midnightblue" points="650.2,-240.39 639.65,-241.34 648.49,-247.17 650.2,-240.39"/>
</g>
<!-- Node22&#45;&gt;Node13 -->
<g id="edge44" class="edge">
<title>Node22&#45;&gt;Node13</title>
<path fill="none" stroke="midnightblue" d="M877.37,-392.34C871.61,-379.21 859.41,-353.92 844,-336 769.93,-249.87 636.68,-204.05 576.71,-186.96"/>
<polygon fill="midnightblue" stroke="midnightblue" points="577.64,-183.59 567.07,-184.28 575.77,-190.33 577.64,-183.59"/>
</g>
<!-- Node22&#45;&gt;Node15 -->
<g id="edge43" class="edge">
<title>Node22&#45;&gt;Node15</title>
<path fill="none" stroke="midnightblue" d="M837.9,-392.44C786.89,-382.32 702.47,-365.56 651.66,-355.47"/>
<polygon fill="midnightblue" stroke="midnightblue" points="652.14,-352 641.65,-353.48 650.78,-358.86 652.14,-352"/>
</g>
<!-- Node23&#45;&gt;Node7 -->
<g id="edge46" class="edge">
<title>Node23&#45;&gt;Node7</title>
<path fill="none" stroke="midnightblue" d="M690.85,-392.46C734.45,-378.91 806,-347.99 806,-291 806,-291 806,-291 806,-177 806,-132.98 761.62,-98.8 731.99,-80.87"/>
<polygon fill="midnightblue" stroke="midnightblue" points="733.37,-77.63 722.96,-75.64 729.86,-83.68 733.37,-77.63"/>
</g>
<!-- Node23&#45;&gt;Node12 -->
<g id="edge47" class="edge">
<title>Node23&#45;&gt;Node12</title>
<path fill="none" stroke="midnightblue" d="M657.64,-392.46C656.96,-379.91 655.06,-355.83 650,-336 642.3,-305.81 627.88,-272.52 618.62,-252.71"/>
<polygon fill="midnightblue" stroke="midnightblue" points="621.77,-251.19 614.31,-243.66 615.45,-254.2 621.77,-251.19"/>
</g>
<!-- Node23&#45;&gt;Node13 -->
<g id="edge49" class="edge">
<title>Node23&#45;&gt;Node13</title>
<path fill="none" stroke="midnightblue" d="M660.53,-392.48C668.19,-364.79 688.24,-276.14 648,-224 630.87,-201.81 600.48,-190.33 577.31,-184.53"/>
<polygon fill="midnightblue" stroke="midnightblue" points="577.78,-181.05 567.25,-182.26 576.23,-187.88 577.78,-181.05"/>
</g>
<!-- Node23&#45;&gt;Node15 -->
<g id="edge48" class="edge">
<title>Node23&#45;&gt;Node15</title>
<path fill="none" stroke="midnightblue" d="M649.91,-392.08C642.84,-384.3 632.41,-372.8 623.85,-363.37"/>
<polygon fill="midnightblue" stroke="midnightblue" points="626.25,-360.8 616.94,-355.75 621.07,-365.51 626.25,-360.8"/>
</g>
<!-- Node24&#45;&gt;Node6 -->
<g id="edge52" class="edge">
<title>Node24&#45;&gt;Node6</title>
<path fill="none" stroke="midnightblue" d="M277.76,-394.91C202.01,-376.75 0,-315.52 0,-179 0,-179 0,-179 0,-121 0,-24.66 154.09,-11.53 224.11,-10.54"/>
<polygon fill="midnightblue" stroke="midnightblue" points="224.21,-14.04 234.19,-10.47 224.17,-7.04 224.21,-14.04"/>
</g>
<!-- Node24&#45;&gt;Node7 -->
<g id="edge53" class="edge">
<title>Node24&#45;&gt;Node7</title>
<path fill="none" stroke="midnightblue" d="M277.67,-392.84C236.76,-379.12 166,-347.26 166,-291 166,-291 166,-291 166,-177 166,-78.16 517.76,-67.21 653.47,-66.67"/>
<polygon fill="midnightblue" stroke="midnightblue" points="653.64,-70.17 663.63,-66.64 653.62,-63.17 653.64,-70.17"/>
</g>
<!-- Node24&#45;&gt;Node11 -->
<g id="edge54" class="edge">
<title>Node24&#45;&gt;Node11</title>
<path fill="none" stroke="midnightblue" d="M303.54,-392.46C294.92,-360.93 268.53,-248.74 304,-168 309.39,-155.73 319.96,-145.34 329.9,-137.65"/>
<polygon fill="midnightblue" stroke="midnightblue" points="332.25,-140.27 338.34,-131.6 328.17,-134.58 332.25,-140.27"/>
</g>
<!-- Node24&#45;&gt;Node12 -->
<g id="edge55" class="edge">
<title>Node24&#45;&gt;Node12</title>
<path fill="none" stroke="midnightblue" d="M321.92,-392.31C371.78,-365.08 525.23,-281.29 585.41,-248.43"/>
<polygon fill="midnightblue" stroke="midnightblue" points="587.14,-251.47 594.24,-243.61 583.79,-245.33 587.14,-251.47"/>
</g>
<!-- Node24&#45;&gt;Node13 -->
<g id="edge57" class="edge">
<title>Node24&#45;&gt;Node13</title>
<path fill="none" stroke="midnightblue" d="M309.1,-392.4C317.12,-371.12 340.38,-315.15 375,-280 416.31,-238.06 478.58,-207.13 515.48,-191.19"/>
<polygon fill="midnightblue" stroke="midnightblue" points="516.88,-194.4 524.73,-187.28 514.16,-187.95 516.88,-194.4"/>
</g>
<!-- Node24&#45;&gt;Node15 -->
<g id="edge56" class="edge">
<title>Node24&#45;&gt;Node15</title>
<path fill="none" stroke="midnightblue" d="M334.23,-395.97C387.53,-386.47 503.26,-365.84 566.18,-354.63"/>
<polygon fill="midnightblue" stroke="midnightblue" points="566.95,-358.05 576.18,-352.85 565.72,-351.16 566.95,-358.05"/>
</g>
<!-- Node25&#45;&gt;Node7 -->
<g id="edge59" class="edge">
<title>Node25&#45;&gt;Node7</title>
<path fill="none" stroke="midnightblue" d="M394.87,-392.38C356.76,-364.86 242,-278.38 242,-235 242,-235 242,-235 242,-177 242,-140.28 260.9,-129.83 293,-112 353.68,-78.29 556.6,-69.83 653.56,-67.71"/>
<polygon fill="midnightblue" stroke="midnightblue" points="653.79,-71.21 663.72,-67.5 653.65,-64.21 653.79,-71.21"/>
</g>
<!-- Node25&#45;&gt;Node11 -->
<g id="edge60" class="edge">
<title>Node25&#45;&gt;Node11</title>
<path fill="none" stroke="midnightblue" d="M401.52,-392.26C387.44,-369.16 350.48,-304.17 341,-244 335.74,-210.63 335.27,-201.45 340,-168 341.27,-159.04 343.89,-149.37 346.45,-141.3"/>
<polygon fill="midnightblue" stroke="midnightblue" points="349.77,-142.4 349.66,-131.8 343.14,-140.16 349.77,-142.4"/>
</g>
<!-- Node25&#45;&gt;Node12 -->
<g id="edge61" class="edge">
<title>Node25&#45;&gt;Node12</title>
<path fill="none" stroke="midnightblue" d="M422.1,-392.41C449.81,-376.27 509.96,-339.48 554,-300 570.56,-285.16 586.85,-265.52 597.55,-251.73"/>
<polygon fill="midnightblue" stroke="midnightblue" points="600.46,-253.69 603.73,-243.62 594.89,-249.45 600.46,-253.69"/>
</g>
<!-- Node25&#45;&gt;Node15 -->
<g id="edge62" class="edge">
<title>Node25&#45;&gt;Node15</title>
<path fill="none" stroke="midnightblue" d="M436.81,-393.03C471.26,-383.82 528.2,-368.6 567.1,-358.2"/>
<polygon fill="midnightblue" stroke="midnightblue" points="568.31,-361.5 577.07,-355.54 566.5,-354.74 568.31,-361.5"/>
</g>
<!-- Node26&#45;&gt;Node6 -->
<g id="edge66" class="edge">
<title>Node26&#45;&gt;Node6</title>
<path fill="none" stroke="midnightblue" d="M84.48,-224.43C88.52,-203.22 101.46,-147.4 131,-112 161.65,-75.27 207.51,-42.83 234.93,-25.15"/>
<polygon fill="midnightblue" stroke="midnightblue" points="236.89,-28.04 243.47,-19.73 233.15,-22.13 236.89,-28.04"/>
</g>
<!-- Node26&#45;&gt;Node7 -->
<g id="edge67" class="edge">
<title>Node26&#45;&gt;Node7</title>
<path fill="none" stroke="midnightblue" d="M86.65,-224.37C97.56,-199.02 130.48,-125.7 152,-112 193.71,-85.45 523.71,-72.57 653.67,-68.49"/>
<polygon fill="midnightblue" stroke="midnightblue" points="653.89,-71.98 663.78,-68.18 653.68,-64.99 653.89,-71.98"/>
</g>
<!-- Node26&#45;&gt;Node13 -->
<g id="edge68" class="edge">
<title>Node26&#45;&gt;Node13</title>
<path fill="none" stroke="midnightblue" d="M137.93,-226.59C235.85,-215.17 437.52,-191.65 514.87,-182.63"/>
<polygon fill="midnightblue" stroke="midnightblue" points="515.4,-186.09 524.93,-181.46 514.59,-179.14 515.4,-186.09"/>
</g>
<!-- Node27&#45;&gt;Node7 -->
<g id="edge77" class="edge">
<title>Node27&#45;&gt;Node7</title>
<path fill="none" stroke="midnightblue" d="M1214.9,-504.37C1229.52,-496.77 1249.2,-484.36 1261,-468 1278.61,-443.59 1280,-433.1 1280,-403 1280,-403 1280,-403 1280,-177 1280,-118.29 1220.98,-129.69 1165,-112 1090.45,-88.44 862.52,-74.64 758.62,-69.42"/>
<polygon fill="midnightblue" stroke="midnightblue" points="758.52,-65.91 748.36,-68.91 758.17,-72.9 758.52,-65.91"/>
</g>
<!-- Node27&#45;&gt;Node8 -->
<g id="edge74" class="edge">
<title>Node27&#45;&gt;Node8</title>
<path fill="none" stroke="midnightblue" d="M1224.07,-509.16C1290.13,-500 1450.45,-476.95 1458,-468 1463.73,-461.2 1459.52,-456.76 1458,-448 1445.4,-375.58 1406,-364.51 1406,-291 1406,-291 1406,-291 1406,-121 1406,-64.54 1219.2,-29.16 1137.5,-16.38"/>
<polygon fill="midnightblue" stroke="midnightblue" points="1137.57,-12.85 1127.16,-14.8 1136.51,-19.77 1137.57,-12.85"/>
</g>
<!-- Node27&#45;&gt;Node16 -->
<g id="edge75" class="edge">
<title>Node27&#45;&gt;Node16</title>
<path fill="none" stroke="midnightblue" d="M1193.87,-504.44C1191.72,-495.43 1188.52,-480.82 1187,-468 1183.01,-434.43 1201.06,-421.18 1184,-392 1154.56,-341.65 1089.11,-313.03 1050.38,-299.9"/>
<polygon fill="midnightblue" stroke="midnightblue" points="1051.28,-296.51 1040.69,-296.74 1049.11,-303.16 1051.28,-296.51"/>
</g>
<!-- Node27&#45;&gt;Node18 -->
<g id="edge78" class="edge">
<title>Node27&#45;&gt;Node18</title>
<path fill="none" stroke="midnightblue" d="M1167.81,-509.12C1103.96,-500.32 947.23,-478.73 861.8,-466.96"/>
<polygon fill="midnightblue" stroke="midnightblue" points="862.14,-463.48 851.75,-465.58 861.18,-470.41 862.14,-463.48"/>
</g>
<!-- Node27&#45;&gt;Node19 -->
<g id="edge71" class="edge">
<title>Node27&#45;&gt;Node19</title>
<path fill="none" stroke="midnightblue" d="M1185.81,-504.28C1175.54,-495.38 1159.35,-481.07 1146,-468 1129.52,-451.86 1111.55,-432.48 1099.41,-419.1"/>
<polygon fill="midnightblue" stroke="midnightblue" points="1101.97,-416.71 1092.67,-411.63 1096.77,-421.4 1101.97,-416.71"/>
</g>
<!-- Node27&#45;&gt;Node20 -->
<g id="edge72" class="edge">
<title>Node27&#45;&gt;Node20</title>
<path fill="none" stroke="midnightblue" d="M1184.35,-504.48C1174.29,-496.37 1160.39,-483.17 1154,-468 1147.84,-453.36 1147.54,-435.19 1148.52,-421.79"/>
<polygon fill="midnightblue" stroke="midnightblue" points="1152,-422.14 1149.55,-411.83 1145.04,-421.42 1152,-422.14"/>
</g>
<!-- Node28 -->
<g id="node28" class="node">
<title>Node28</title>
<g id="a_node28"><a xlink:title=" ">
<polygon fill="white" stroke="#bfbfbf" points="1196,-448.5 1196,-467.5 1252,-467.5 1252,-448.5 1196,-448.5"/>
<text text-anchor="middle" x="1224" y="-455.5" font-family="Helvetica,sans-Serif" font-size="10.00">algorithm</text>
</a>
</g>
</g>
<!-- Node27&#45;&gt;Node28 -->
<g id="edge70" class="edge">
<title>Node27&#45;&gt;Node28</title>
<path fill="none" stroke="midnightblue" d="M1200.62,-504.08C1204.46,-496.69 1210.02,-485.95 1214.76,-476.81"/>
<polygon fill="midnightblue" stroke="midnightblue" points="1217.97,-478.24 1219.46,-467.75 1211.75,-475.02 1217.97,-478.24"/>
</g>
<!-- Node29 -->
<g id="node29" class="node">
<title>Node29</title>
<g id="a_node29"><a xlink:title=" ">
<polygon fill="white" stroke="#bfbfbf" points="1308,-448.5 1308,-467.5 1358,-467.5 1358,-448.5 1308,-448.5"/>
<text text-anchor="middle" x="1333" y="-455.5" font-family="Helvetica,sans-Serif" font-size="10.00">iomanip</text>
</a>
</g>
</g>
<!-- Node27&#45;&gt;Node29 -->
<g id="edge73" class="edge">
<title>Node27&#45;&gt;Node29</title>
<path fill="none" stroke="midnightblue" d="M1217.71,-504.44C1240.35,-495.52 1276.07,-481.44 1301.75,-471.32"/>
<polygon fill="midnightblue" stroke="midnightblue" points="1303.37,-474.44 1311.39,-467.52 1300.81,-467.93 1303.37,-474.44"/>
</g>
<!-- Node30 -->
<g id="node30" class="node">
<title>Node30</title>
<g id="a_node30"><a xlink:title=" ">
<polygon fill="white" stroke="#bfbfbf" points="1376.5,-448.5 1376.5,-467.5 1449.5,-467.5 1449.5,-448.5 1376.5,-448.5"/>
<text text-anchor="middle" x="1413" y="-455.5" font-family="Helvetica,sans-Serif" font-size="10.00">CImg/CImg.h</text>
</a>
</g>
</g>
<!-- Node27&#45;&gt;Node30 -->
<g id="edge76" class="edge">
<title>Node27&#45;&gt;Node30</title>
<path fill="none" stroke="midnightblue" d="M1224.37,-505.94C1261.06,-496.81 1325.38,-480.8 1368.58,-470.05"/>
<polygon fill="midnightblue" stroke="midnightblue" points="1369.68,-473.39 1378.54,-467.58 1367.99,-466.59 1369.68,-473.39"/>
</g>
</g>
</svg>
        <g id="navigator" transform="translate(0 0)" fill="#404254">
                <rect fill="#f2f5e9" fill-opacity="0.5" stroke="#606060" stroke-width=".5" x="0" y="0" width="60" height="60"/>
                <use id="zoomplus" xlink:href="#zoomPlus" x="17" y="9" onmousedown="handleZoom(evt,'in')"/>
                <use id="zoomminus" xlink:href="#zoomMin" x="42" y="9" onmousedown="handleZoom(evt,'out')"/>
                <use id="reset" xlink:href="#resetDef" x="30" y="36" onmousedown="handleReset()"/>
                <g id="arrowUp" xlink:href="#dirArrow" transform="translate(30 24)" onmousedown="handlePan(0,-1)">
                  <use xlink:href="#rim" fill="#404040">
                        <set attributeName="fill" to="#808080" begin="arrowUp.mouseover" end="arrowUp.mouseout"/>
                  </use>
                  <path fill="none" stroke="white" stroke-width="1.5" d="M0,-3.0v7 M-2.5,-0.5L0,-3.0L2.5,-0.5"/>
                </g>
                <g id="arrowRight" xlink:href="#dirArrow" transform="rotate(90) translate(36 -43)" onmousedown="handlePan(1,0)">
                  <use xlink:href="#rim" fill="#404040">
                        <set attributeName="fill" to="#808080" begin="arrowRight.mouseover" end="arrowRight.mouseout"/>
                  </use>
                  <path fill="none" stroke="white" stroke-width="1.5" d="M0,-3.0v7 M-2.5,-0.5L0,-3.0L2.5,-0.5"/>
                </g>
                <g id="arrowDown" xlink:href="#dirArrow" transform="rotate(180) translate(-30 -48)" onmousedown="handlePan(0,1)">
                  <use xlink:href="#rim" fill="#404040">
                        <set attributeName="fill" to="#808080" begin="arrowDown.mouseover" end="arrowDown.mouseout"/>
                  </use>
                  <path fill="none" stroke="white" stroke-width="1.5" d="M0,-3.0v7 M-2.5,-0.5L0,-3.0L2.5,-0.5"/>
                </g>
                <g id="arrowLeft" xlink:href="#dirArrow" transform="rotate(270) translate(-36 17)" onmousedown="handlePan(-1,0)">
                  <use xlink:href="#rim" fill="#404040">
                        <set attributeName="fill" to="#808080" begin="arrowLeft.mouseover" end="arrowLeft.mouseout"/>
                  </use>
                  <path fill="none" stroke="white" stroke-width="1.5" d="M0,-3.0v7 M-2.5,-0.5L0,-3.0L2.5,-0.5"/>
                </g>
        </g>
        <svg viewBox="0 0 15 15" width="100%" height="30px" preserveAspectRatio="xMaxYMin meet">
         <g id="arrow_out" transform="scale(0.3 0.3)">
          <a xlink:href="_scene_8cpp__incl_org.svg" target="_base">
           <rect id="button" ry="5" rx="5" y="6" x="6" height="38" width="38"
                fill="#f2f5e9" fill-opacity="0.5" stroke="#606060" stroke-width="1.0"/>
           <path id="arrow"
             d="M 11.500037,31.436501 C 11.940474,20.09759 22.043105,11.32322 32.158766,21.979434 L 37.068811,17.246167 C 37.068811,17.246167 37.088388,32 37.088388,32 L 22.160133,31.978069 C 22.160133,31.978069 26.997745,27.140456 26.997745,27.140456 C 18.528582,18.264221 13.291696,25.230495 11.500037,31.436501 z"
             style="fill:#404040;"/>
          </a>
         </g>
        </svg>
</svg>
