<?xml version="1.0" encoding="UTF-8" standalone="no"?>
<!DOCTYPE svg PUBLIC "-//W3C//DTD SVG 1.1//EN"
 "http://www.w3.org/Graphics/SVG/1.1/DTD/svg11.dtd">
<!-- Generated by graphviz version 2.44.1 (20200629.0800)
 -->
<!-- Title: D:/PathTracer/PathTracer/Triangle.cpp Pages: 1 -->
<svg width="419pt" height="487pt"
 viewBox="0.00 0.00 418.50 487.00" xmlns="http://www.w3.org/2000/svg" xmlns:xlink="http://www.w3.org/1999/xlink">
<g id="graph0" class="graph" transform="scale(1 1) rotate(0) translate(4 483)">
<title>D:/PathTracer/PathTracer/Triangle.cpp</title>
<polygon fill="white" stroke="transparent" points="-4,4 -4,-483 414.5,-483 414.5,4 -4,4"/>
<!-- Node1 -->
<g id="node1" class="node">
<title>Node1</title>
<g id="a_node1"><a xlink:title=" ">
<polygon fill="#bfbfbf" stroke="black" points="246,-448.5 246,-478.5 373,-478.5 373,-448.5 246,-448.5"/>
<text text-anchor="start" x="254" y="-466.5" font-family="Helvetica,sans-Serif" font-size="10.00">D:/PathTracer/PathTracer</text>
<text text-anchor="middle" x="309.5" y="-455.5" font-family="Helvetica,sans-Serif" font-size="10.00">/Triangle.cpp</text>
</a>
</g>
</g>
<!-- Node2 -->
<g id="node2" class="node">
<title>Node2</title>
<g id="a_node2"><a xlink:href="_triangle_8h.html" target="_top" xlink:title="Defines the Triangle class.">
<polygon fill="white" stroke="black" points="280,-392.5 280,-411.5 339,-411.5 339,-392.5 280,-392.5"/>
<text text-anchor="middle" x="309.5" y="-399.5" font-family="Helvetica,sans-Serif" font-size="10.00">Triangle.h</text>
</a>
</g>
</g>
<!-- Node1&#45;&gt;Node2 -->
<g id="edge1" class="edge">
<title>Node1&#45;&gt;Node2</title>
<path fill="none" stroke="midnightblue" d="M309.5,-448.4C309.5,-440.47 309.5,-430.46 309.5,-421.86"/>
<polygon fill="midnightblue" stroke="midnightblue" points="313,-421.66 309.5,-411.66 306,-421.66 313,-421.66"/>
</g>
<!-- Node3 -->
<g id="node3" class="node">
<title>Node3</title>
<g id="a_node3"><a xlink:href="_double_vec3_d_8h.html" target="_top" xlink:title="Defines the DoubleVec3D class and the functions around it.">
<polygon fill="white" stroke="black" points="173.5,-56.5 173.5,-75.5 257.5,-75.5 257.5,-56.5 173.5,-56.5"/>
<text text-anchor="middle" x="215.5" y="-63.5" font-family="Helvetica,sans-Serif" font-size="10.00">DoubleVec3D.h</text>
</a>
</g>
</g>
<!-- Node2&#45;&gt;Node3 -->
<g id="edge2" class="edge">
<title>Node2&#45;&gt;Node3</title>
<path fill="none" stroke="midnightblue" d="M326.63,-392.41C355.45,-376.61 410.5,-340 410.5,-291 410.5,-291 410.5,-291 410.5,-177 410.5,-111.37 325.66,-84.46 267.9,-73.74"/>
<polygon fill="midnightblue" stroke="midnightblue" points="268.26,-70.26 257.81,-71.98 267.06,-77.15 268.26,-70.26"/>
</g>
<!-- Node8 -->
<g id="node8" class="node">
<title>Node8</title>
<g id="a_node8"><a xlink:href="_double_unit_vec3_d_8h.html" target="_top" xlink:title="Defines the DoubleUnitVec3D class and the functions around it.">
<polygon fill="white" stroke="black" points="203,-112.5 203,-131.5 304,-131.5 304,-112.5 203,-112.5"/>
<text text-anchor="middle" x="253.5" y="-119.5" font-family="Helvetica,sans-Serif" font-size="10.00">DoubleUnitVec3D.h</text>
</a>
</g>
</g>
<!-- Node2&#45;&gt;Node8 -->
<g id="edge7" class="edge">
<title>Node2&#45;&gt;Node8</title>
<path fill="none" stroke="midnightblue" d="M318.8,-392.28C336.32,-374.85 372.5,-333.69 372.5,-291 372.5,-291 372.5,-291 372.5,-233 372.5,-185.3 320.3,-152.53 285.04,-135.84"/>
<polygon fill="midnightblue" stroke="midnightblue" points="286.16,-132.5 275.6,-131.56 283.27,-138.88 286.16,-132.5"/>
</g>
<!-- Node9 -->
<g id="node9" class="node">
<title>Node9</title>
<g id="a_node9"><a xlink:href="_material_8h.html" target="_top" xlink:title="Defines the Material class and the functions around it.">
<polygon fill="white" stroke="black" points="0,-224.5 0,-243.5 59,-243.5 59,-224.5 0,-224.5"/>
<text text-anchor="middle" x="29.5" y="-231.5" font-family="Helvetica,sans-Serif" font-size="10.00">Material.h</text>
</a>
</g>
</g>
<!-- Node2&#45;&gt;Node9 -->
<g id="edge9" class="edge">
<title>Node2&#45;&gt;Node9</title>
<path fill="none" stroke="midnightblue" d="M279.91,-397.87C226.23,-390.61 112.5,-367.71 49.5,-300 37.82,-287.45 32.96,-268.23 30.93,-253.94"/>
<polygon fill="midnightblue" stroke="midnightblue" points="34.39,-253.33 29.84,-243.76 27.43,-254.07 34.39,-253.33"/>
</g>
<!-- Node11 -->
<g id="node11" class="node">
<title>Node11</title>
<g id="a_node11"><a xlink:href="_object3_d_8h.html" target="_top" xlink:title="Defines the Object3D class and the functions around it.">
<polygon fill="white" stroke="black" points="215,-336.5 215,-355.5 280,-355.5 280,-336.5 215,-336.5"/>
<text text-anchor="middle" x="247.5" y="-343.5" font-family="Helvetica,sans-Serif" font-size="10.00">Object3D.h</text>
</a>
</g>
</g>
<!-- Node2&#45;&gt;Node11 -->
<g id="edge14" class="edge">
<title>Node2&#45;&gt;Node11</title>
<path fill="none" stroke="midnightblue" d="M299.54,-392.32C290.37,-384.34 276.56,-372.31 265.47,-362.65"/>
<polygon fill="midnightblue" stroke="midnightblue" points="267.48,-359.76 257.64,-355.83 262.88,-365.04 267.48,-359.76"/>
</g>
<!-- Node4 -->
<g id="node4" class="node">
<title>Node4</title>
<g id="a_node4"><a xlink:title=" ">
<polygon fill="white" stroke="#bfbfbf" points="317.5,-0.5 317.5,-19.5 371.5,-19.5 371.5,-0.5 317.5,-0.5"/>
<text text-anchor="middle" x="344.5" y="-7.5" font-family="Helvetica,sans-Serif" font-size="10.00">iostream</text>
</a>
</g>
</g>
<!-- Node3&#45;&gt;Node4 -->
<g id="edge3" class="edge">
<title>Node3&#45;&gt;Node4</title>
<path fill="none" stroke="midnightblue" d="M235.94,-56.44C257.17,-47.56 290.6,-33.56 314.75,-23.45"/>
<polygon fill="midnightblue" stroke="midnightblue" points="316.28,-26.61 324.16,-19.52 313.58,-20.15 316.28,-26.61"/>
</g>
<!-- Node5 -->
<g id="node5" class="node">
<title>Node5</title>
<g id="a_node5"><a xlink:title=" ">
<polygon fill="white" stroke="#bfbfbf" points="64,-0.5 64,-19.5 111,-19.5 111,-0.5 64,-0.5"/>
<text text-anchor="middle" x="87.5" y="-7.5" font-family="Helvetica,sans-Serif" font-size="10.00">math.h</text>
</a>
</g>
</g>
<!-- Node3&#45;&gt;Node5 -->
<g id="edge4" class="edge">
<title>Node3&#45;&gt;Node5</title>
<path fill="none" stroke="midnightblue" d="M195.22,-56.44C174.15,-47.56 140.98,-33.56 117.01,-23.45"/>
<polygon fill="midnightblue" stroke="midnightblue" points="118.26,-20.18 107.69,-19.52 115.54,-26.63 118.26,-20.18"/>
</g>
<!-- Node6 -->
<g id="node6" class="node">
<title>Node6</title>
<g id="a_node6"><a xlink:title=" ">
<polygon fill="white" stroke="#bfbfbf" points="129.5,-0.5 129.5,-19.5 227.5,-19.5 227.5,-0.5 129.5,-0.5"/>
<text text-anchor="middle" x="178.5" y="-7.5" font-family="Helvetica,sans-Serif" font-size="10.00">nlohmann/json.hpp</text>
</a>
</g>
</g>
<!-- Node3&#45;&gt;Node6 -->
<g id="edge5" class="edge">
<title>Node3&#45;&gt;Node6</title>
<path fill="none" stroke="midnightblue" d="M209.39,-56.08C204.22,-48.53 196.65,-37.49 190.31,-28.23"/>
<polygon fill="midnightblue" stroke="midnightblue" points="193.04,-26.02 184.5,-19.75 187.26,-29.98 193.04,-26.02"/>
</g>
<!-- Node7 -->
<g id="node7" class="node">
<title>Node7</title>
<g id="a_node7"><a xlink:title=" ">
<polygon fill="white" stroke="#bfbfbf" points="246,-0.5 246,-19.5 299,-19.5 299,-0.5 246,-0.5"/>
<text text-anchor="middle" x="272.5" y="-7.5" font-family="Helvetica,sans-Serif" font-size="10.00">fbxsdk.h</text>
</a>
</g>
</g>
<!-- Node3&#45;&gt;Node7 -->
<g id="edge6" class="edge">
<title>Node3&#45;&gt;Node7</title>
<path fill="none" stroke="midnightblue" d="M224.66,-56.32C233,-48.42 245.53,-36.55 255.68,-26.94"/>
<polygon fill="midnightblue" stroke="midnightblue" points="258.32,-29.25 263.18,-19.83 253.51,-24.17 258.32,-29.25"/>
</g>
<!-- Node8&#45;&gt;Node3 -->
<g id="edge8" class="edge">
<title>Node8&#45;&gt;Node3</title>
<path fill="none" stroke="midnightblue" d="M247.23,-112.08C241.86,-104.46 233.98,-93.26 227.42,-83.94"/>
<polygon fill="midnightblue" stroke="midnightblue" points="230.28,-81.91 221.66,-75.75 224.55,-85.94 230.28,-81.91"/>
</g>
<!-- Node9&#45;&gt;Node3 -->
<g id="edge10" class="edge">
<title>Node9&#45;&gt;Node3</title>
<path fill="none" stroke="midnightblue" d="M33.2,-224.46C42.96,-202.81 71.44,-145.19 111.5,-112 129.73,-96.9 153.79,-86.05 174.18,-78.8"/>
<polygon fill="midnightblue" stroke="midnightblue" points="175.51,-82.05 183.86,-75.52 173.26,-75.42 175.51,-82.05"/>
</g>
<!-- Node10 -->
<g id="node10" class="node">
<title>Node10</title>
<g id="a_node10"><a xlink:href="_ray_8h.html" target="_top" xlink:title="Defines the Ray class.">
<polygon fill="white" stroke="black" points="153.5,-168.5 153.5,-187.5 195.5,-187.5 195.5,-168.5 153.5,-168.5"/>
<text text-anchor="middle" x="174.5" y="-175.5" font-family="Helvetica,sans-Serif" font-size="10.00">Ray.h</text>
</a>
</g>
</g>
<!-- Node9&#45;&gt;Node10 -->
<g id="edge11" class="edge">
<title>Node9&#45;&gt;Node10</title>
<path fill="none" stroke="midnightblue" d="M52.48,-224.44C77.08,-215.28 116.27,-200.68 143.58,-190.52"/>
<polygon fill="midnightblue" stroke="midnightblue" points="144.9,-193.76 153.05,-186.99 142.46,-187.2 144.9,-193.76"/>
</g>
<!-- Node10&#45;&gt;Node3 -->
<g id="edge12" class="edge">
<title>Node10&#45;&gt;Node3</title>
<path fill="none" stroke="midnightblue" d="M176.72,-168.46C180.08,-155.91 186.86,-131.83 194.5,-112 197.99,-102.95 202.46,-93.16 206.39,-85.03"/>
<polygon fill="midnightblue" stroke="midnightblue" points="209.65,-86.32 210.95,-75.81 203.38,-83.22 209.65,-86.32"/>
</g>
<!-- Node10&#45;&gt;Node8 -->
<g id="edge13" class="edge">
<title>Node10&#45;&gt;Node8</title>
<path fill="none" stroke="midnightblue" d="M187.19,-168.32C199.4,-159.98 218.08,-147.21 232.5,-137.35"/>
<polygon fill="midnightblue" stroke="midnightblue" points="234.56,-140.19 240.84,-131.65 230.61,-134.41 234.56,-140.19"/>
</g>
<!-- Node11&#45;&gt;Node3 -->
<g id="edge22" class="edge">
<title>Node11&#45;&gt;Node3</title>
<path fill="none" stroke="midnightblue" d="M261.48,-336.32C286.07,-319.85 334.5,-281.51 334.5,-235 334.5,-235 334.5,-235 334.5,-177 334.5,-146.64 333.66,-134.7 313.5,-112 299.63,-96.39 279.24,-85.84 260.64,-78.9"/>
<polygon fill="midnightblue" stroke="midnightblue" points="261.72,-75.57 251.13,-75.6 259.42,-82.18 261.72,-75.57"/>
</g>
<!-- Node11&#45;&gt;Node8 -->
<g id="edge23" class="edge">
<title>Node11&#45;&gt;Node8</title>
<path fill="none" stroke="midnightblue" d="M255.71,-336.18C263.04,-327.66 273.26,-314.02 277.5,-300 294.54,-243.74 273.18,-173.74 260.95,-141.2"/>
<polygon fill="midnightblue" stroke="midnightblue" points="264.13,-139.72 257.22,-131.68 257.61,-142.27 264.13,-139.72"/>
</g>
<!-- Node11&#45;&gt;Node9 -->
<g id="edge24" class="edge">
<title>Node11&#45;&gt;Node9</title>
<path fill="none" stroke="midnightblue" d="M214.99,-343.7C177.24,-340.71 114.64,-331.04 71.5,-300 55.18,-288.25 43.58,-268.03 36.77,-253.25"/>
<polygon fill="midnightblue" stroke="midnightblue" points="39.81,-251.46 32.65,-243.65 33.38,-254.22 39.81,-251.46"/>
</g>
<!-- Node11&#45;&gt;Node10 -->
<g id="edge25" class="edge">
<title>Node11&#45;&gt;Node10</title>
<path fill="none" stroke="midnightblue" d="M241.11,-336.38C234.79,-327.57 225.11,-313.32 218.5,-300 201.18,-265.1 187.05,-221.63 179.79,-197.44"/>
<polygon fill="midnightblue" stroke="midnightblue" points="183.13,-196.39 176.95,-187.78 176.42,-198.36 183.13,-196.39"/>
</g>
<!-- Node12 -->
<g id="node12" class="node">
<title>Node12</title>
<g id="a_node12"><a xlink:title=" ">
<polygon fill="white" stroke="#bfbfbf" points="227,-280.5 227,-299.5 268,-299.5 268,-280.5 227,-280.5"/>
<text text-anchor="middle" x="247.5" y="-287.5" font-family="Helvetica,sans-Serif" font-size="10.00">string</text>
</a>
</g>
</g>
<!-- Node11&#45;&gt;Node12 -->
<g id="edge15" class="edge">
<title>Node11&#45;&gt;Node12</title>
<path fill="none" stroke="midnightblue" d="M247.5,-336.08C247.5,-329.01 247.5,-318.86 247.5,-309.99"/>
<polygon fill="midnightblue" stroke="midnightblue" points="251,-309.75 247.5,-299.75 244,-309.75 251,-309.75"/>
</g>
<!-- Node13 -->
<g id="node13" class="node">
<title>Node13</title>
<g id="a_node13"><a xlink:href="_diffuse_material_8h.html" target="_top" xlink:title="Defines the DiffuseMaterial class.">
<polygon fill="white" stroke="black" points="81,-280.5 81,-299.5 170,-299.5 170,-280.5 81,-280.5"/>
<text text-anchor="middle" x="125.5" y="-287.5" font-family="Helvetica,sans-Serif" font-size="10.00">DiffuseMaterial.h</text>
</a>
</g>
</g>
<!-- Node11&#45;&gt;Node13 -->
<g id="edge16" class="edge">
<title>Node11&#45;&gt;Node13</title>
<path fill="none" stroke="midnightblue" d="M228.17,-336.44C208.18,-327.6 176.76,-313.69 153.94,-303.59"/>
<polygon fill="midnightblue" stroke="midnightblue" points="155.3,-300.36 144.74,-299.52 152.47,-306.76 155.3,-300.36"/>
</g>
<!-- Node13&#45;&gt;Node3 -->
<g id="edge18" class="edge">
<title>Node13&#45;&gt;Node3</title>
<path fill="none" stroke="midnightblue" d="M125.54,-280.44C125.91,-260.15 128.49,-207.86 144.5,-168 157.8,-134.89 183.84,-102.12 200.41,-83.26"/>
<polygon fill="midnightblue" stroke="midnightblue" points="203.2,-85.4 207.28,-75.62 197.99,-80.72 203.2,-85.4"/>
</g>
<!-- Node13&#45;&gt;Node5 -->
<g id="edge17" class="edge">
<title>Node13&#45;&gt;Node5</title>
<path fill="none" stroke="midnightblue" d="M120.22,-280.23C109.77,-262.04 87.5,-218.6 87.5,-179 87.5,-179 87.5,-179 87.5,-121 87.5,-88.95 87.5,-51.64 87.5,-29.75"/>
<polygon fill="midnightblue" stroke="midnightblue" points="91,-29.56 87.5,-19.56 84,-29.56 91,-29.56"/>
</g>
<!-- Node13&#45;&gt;Node8 -->
<g id="edge19" class="edge">
<title>Node13&#45;&gt;Node8</title>
<path fill="none" stroke="midnightblue" d="M133.48,-280.21C141.52,-271.27 154.17,-256.92 164.5,-244 193.38,-207.85 224.99,-163.68 241.66,-139.98"/>
<polygon fill="midnightblue" stroke="midnightblue" points="244.6,-141.88 247.47,-131.69 238.87,-137.87 244.6,-141.88"/>
</g>
<!-- Node13&#45;&gt;Node9 -->
<g id="edge20" class="edge">
<title>Node13&#45;&gt;Node9</title>
<path fill="none" stroke="midnightblue" d="M110.08,-280.32C94.96,-271.82 71.68,-258.73 54.03,-248.8"/>
<polygon fill="midnightblue" stroke="midnightblue" points="55.32,-245.51 44.89,-243.65 51.89,-251.61 55.32,-245.51"/>
</g>
<!-- Node13&#45;&gt;Node10 -->
<g id="edge21" class="edge">
<title>Node13&#45;&gt;Node10</title>
<path fill="none" stroke="midnightblue" d="M129.34,-280.37C137.32,-262.46 155.83,-220.92 166.5,-196.95"/>
<polygon fill="midnightblue" stroke="midnightblue" points="169.8,-198.15 170.67,-187.59 163.41,-195.3 169.8,-198.15"/>
</g>
</g>
</svg>
