<?xml version="1.0" encoding="UTF-8" standalone="no"?>
<!DOCTYPE svg PUBLIC "-//W3C//DTD SVG 1.1//EN"
 "http://www.w3.org/Graphics/SVG/1.1/DTD/svg11.dtd">
<!-- Generated by graphviz version 2.44.1 (20200629.0800)
 -->
<!-- Title: D:/PathTracer/PathTracer/DiffuseMaterial.h Pages: 1 -->
<svg width="315pt" height="319pt"
 viewBox="0.00 0.00 315.00 319.00" xmlns="http://www.w3.org/2000/svg" xmlns:xlink="http://www.w3.org/1999/xlink">
<g id="graph0" class="graph" transform="scale(1 1) rotate(0) translate(4 315)">
<title>D:/PathTracer/PathTracer/DiffuseMaterial.h</title>
<polygon fill="white" stroke="transparent" points="-4,4 -4,-315 311,-315 311,4 -4,4"/>
<!-- Node1 -->
<g id="node1" class="node">
<title>Node1</title>
<g id="a_node1"><a xlink:title="Defines the DiffuseMaterial class.">
<polygon fill="#bfbfbf" stroke="black" points="42,-280.5 42,-310.5 169,-310.5 169,-280.5 42,-280.5"/>
<text text-anchor="start" x="50" y="-298.5" font-family="Helvetica,sans-Serif" font-size="10.00">D:/PathTracer/PathTracer</text>
<text text-anchor="middle" x="105.5" y="-287.5" font-family="Helvetica,sans-Serif" font-size="10.00">/DiffuseMaterial.h</text>
</a>
</g>
</g>
<!-- Node2 -->
<g id="node2" class="node">
<title>Node2</title>
<g id="a_node2"><a xlink:title=" ">
<polygon fill="white" stroke="#bfbfbf" points="0,-0.5 0,-19.5 47,-19.5 47,-0.5 0,-0.5"/>
<text text-anchor="middle" x="23.5" y="-7.5" font-family="Helvetica,sans-Serif" font-size="10.00">math.h</text>
</a>
</g>
</g>
<!-- Node1&#45;&gt;Node2 -->
<g id="edge1" class="edge">
<title>Node1&#45;&gt;Node2</title>
<path fill="none" stroke="midnightblue" d="M86.48,-280.39C62.26,-260.64 23.5,-222.28 23.5,-179 23.5,-179 23.5,-179 23.5,-121 23.5,-88.95 23.5,-51.64 23.5,-29.75"/>
<polygon fill="midnightblue" stroke="midnightblue" points="27,-29.56 23.5,-19.56 20,-29.56 27,-29.56"/>
</g>
<!-- Node3 -->
<g id="node3" class="node">
<title>Node3</title>
<g id="a_node3"><a xlink:href="_double_vec3_d_8h.html" target="_top" xlink:title="Defines the DoubleVec3D class and the functions around it.">
<polygon fill="white" stroke="black" points="121.5,-56.5 121.5,-75.5 205.5,-75.5 205.5,-56.5 121.5,-56.5"/>
<text text-anchor="middle" x="163.5" y="-63.5" font-family="Helvetica,sans-Serif" font-size="10.00">DoubleVec3D.h</text>
</a>
</g>
</g>
<!-- Node1&#45;&gt;Node3 -->
<g id="edge2" class="edge">
<title>Node1&#45;&gt;Node3</title>
<path fill="none" stroke="midnightblue" d="M97.98,-280.5C81.78,-248.24 47.62,-167.23 80.5,-112 89.6,-96.72 105.89,-86.31 121.64,-79.39"/>
<polygon fill="midnightblue" stroke="midnightblue" points="123.33,-82.48 131.32,-75.51 120.73,-75.98 123.33,-82.48"/>
</g>
<!-- Node7 -->
<g id="node7" class="node">
<title>Node7</title>
<g id="a_node7"><a xlink:href="_double_unit_vec3_d_8h.html" target="_top" xlink:title="Defines the DoubleUnitVec3D class and the functions around it.">
<polygon fill="white" stroke="black" points="90,-112.5 90,-131.5 191,-131.5 191,-112.5 90,-112.5"/>
<text text-anchor="middle" x="140.5" y="-119.5" font-family="Helvetica,sans-Serif" font-size="10.00">DoubleUnitVec3D.h</text>
</a>
</g>
</g>
<!-- Node1&#45;&gt;Node7 -->
<g id="edge7" class="edge">
<title>Node1&#45;&gt;Node7</title>
<path fill="none" stroke="midnightblue" d="M108.36,-280.47C114.64,-249.7 129.62,-176.33 136.68,-141.7"/>
<polygon fill="midnightblue" stroke="midnightblue" points="140.18,-142.06 138.75,-131.56 133.32,-140.66 140.18,-142.06"/>
</g>
<!-- Node8 -->
<g id="node8" class="node">
<title>Node8</title>
<g id="a_node8"><a xlink:href="_material_8h.html" target="_top" xlink:title="Defines the Material class and the functions around it.">
<polygon fill="white" stroke="black" points="172,-224.5 172,-243.5 231,-243.5 231,-224.5 172,-224.5"/>
<text text-anchor="middle" x="201.5" y="-231.5" font-family="Helvetica,sans-Serif" font-size="10.00">Material.h</text>
</a>
</g>
</g>
<!-- Node1&#45;&gt;Node8 -->
<g id="edge9" class="edge">
<title>Node1&#45;&gt;Node8</title>
<path fill="none" stroke="midnightblue" d="M128.25,-280.4C143.49,-270.95 163.49,-258.56 178.74,-249.11"/>
<polygon fill="midnightblue" stroke="midnightblue" points="180.88,-251.9 187.53,-243.66 177.19,-245.95 180.88,-251.9"/>
</g>
<!-- Node9 -->
<g id="node9" class="node">
<title>Node9</title>
<g id="a_node9"><a xlink:href="_ray_8h.html" target="_top" xlink:title="Defines the Ray class.">
<polygon fill="white" stroke="black" points="157.5,-168.5 157.5,-187.5 199.5,-187.5 199.5,-168.5 157.5,-168.5"/>
<text text-anchor="middle" x="178.5" y="-175.5" font-family="Helvetica,sans-Serif" font-size="10.00">Ray.h</text>
</a>
</g>
</g>
<!-- Node1&#45;&gt;Node9 -->
<g id="edge14" class="edge">
<title>Node1&#45;&gt;Node9</title>
<path fill="none" stroke="midnightblue" d="M114.45,-280.34C127.84,-259.15 153.06,-219.24 167.54,-196.34"/>
<polygon fill="midnightblue" stroke="midnightblue" points="170.64,-197.99 173.02,-187.67 164.72,-194.25 170.64,-197.99"/>
</g>
<!-- Node3&#45;&gt;Node2 -->
<g id="edge4" class="edge">
<title>Node3&#45;&gt;Node2</title>
<path fill="none" stroke="midnightblue" d="M141.32,-56.44C118.07,-47.48 81.35,-33.31 55.08,-23.18"/>
<polygon fill="midnightblue" stroke="midnightblue" points="56.17,-19.85 45.58,-19.52 53.65,-26.38 56.17,-19.85"/>
</g>
<!-- Node4 -->
<g id="node4" class="node">
<title>Node4</title>
<g id="a_node4"><a xlink:title=" ">
<polygon fill="white" stroke="#bfbfbf" points="65.5,-0.5 65.5,-19.5 119.5,-19.5 119.5,-0.5 65.5,-0.5"/>
<text text-anchor="middle" x="92.5" y="-7.5" font-family="Helvetica,sans-Serif" font-size="10.00">iostream</text>
</a>
</g>
</g>
<!-- Node3&#45;&gt;Node4 -->
<g id="edge3" class="edge">
<title>Node3&#45;&gt;Node4</title>
<path fill="none" stroke="midnightblue" d="M152.09,-56.32C141.39,-48.18 125.16,-35.84 112.34,-26.09"/>
<polygon fill="midnightblue" stroke="midnightblue" points="114.19,-23.1 104.11,-19.83 109.96,-28.67 114.19,-23.1"/>
</g>
<!-- Node5 -->
<g id="node5" class="node">
<title>Node5</title>
<g id="a_node5"><a xlink:title=" ">
<polygon fill="white" stroke="#bfbfbf" points="137.5,-0.5 137.5,-19.5 235.5,-19.5 235.5,-0.5 137.5,-0.5"/>
<text text-anchor="middle" x="186.5" y="-7.5" font-family="Helvetica,sans-Serif" font-size="10.00">nlohmann/json.hpp</text>
</a>
</g>
</g>
<!-- Node3&#45;&gt;Node5 -->
<g id="edge5" class="edge">
<title>Node3&#45;&gt;Node5</title>
<path fill="none" stroke="midnightblue" d="M167.3,-56.08C170.41,-48.77 174.92,-38.18 178.79,-29.1"/>
<polygon fill="midnightblue" stroke="midnightblue" points="182.07,-30.32 182.77,-19.75 175.63,-27.58 182.07,-30.32"/>
</g>
<!-- Node6 -->
<g id="node6" class="node">
<title>Node6</title>
<g id="a_node6"><a xlink:title=" ">
<polygon fill="white" stroke="#bfbfbf" points="254,-0.5 254,-19.5 307,-19.5 307,-0.5 254,-0.5"/>
<text text-anchor="middle" x="280.5" y="-7.5" font-family="Helvetica,sans-Serif" font-size="10.00">fbxsdk.h</text>
</a>
</g>
</g>
<!-- Node3&#45;&gt;Node6 -->
<g id="edge6" class="edge">
<title>Node3&#45;&gt;Node6</title>
<path fill="none" stroke="midnightblue" d="M182.04,-56.44C201.12,-47.64 231.07,-33.81 252.94,-23.72"/>
<polygon fill="midnightblue" stroke="midnightblue" points="254.43,-26.88 262.05,-19.52 251.5,-20.53 254.43,-26.88"/>
</g>
<!-- Node7&#45;&gt;Node3 -->
<g id="edge8" class="edge">
<title>Node7&#45;&gt;Node3</title>
<path fill="none" stroke="midnightblue" d="M144.3,-112.08C147.41,-104.77 151.92,-94.18 155.79,-85.1"/>
<polygon fill="midnightblue" stroke="midnightblue" points="159.07,-86.32 159.77,-75.75 152.63,-83.58 159.07,-86.32"/>
</g>
<!-- Node8&#45;&gt;Node3 -->
<g id="edge10" class="edge">
<title>Node8&#45;&gt;Node3</title>
<path fill="none" stroke="midnightblue" d="M205.48,-224.31C214.27,-203.73 233.26,-150.85 215.5,-112 209.72,-99.36 198.45,-88.91 187.87,-81.27"/>
<polygon fill="midnightblue" stroke="midnightblue" points="189.54,-78.18 179.28,-75.53 185.65,-84 189.54,-78.18"/>
</g>
<!-- Node8&#45;&gt;Node9 -->
<g id="edge11" class="edge">
<title>Node8&#45;&gt;Node9</title>
<path fill="none" stroke="midnightblue" d="M197.7,-224.08C194.59,-216.77 190.08,-206.18 186.21,-197.1"/>
<polygon fill="midnightblue" stroke="midnightblue" points="189.37,-195.58 182.23,-187.75 182.93,-198.32 189.37,-195.58"/>
</g>
<!-- Node9&#45;&gt;Node3 -->
<g id="edge12" class="edge">
<title>Node9&#45;&gt;Node3</title>
<path fill="none" stroke="midnightblue" d="M185.11,-168.12C193.61,-155.56 206.49,-131.92 199.5,-112 195.71,-101.21 188.13,-91.08 180.9,-83.18"/>
<polygon fill="midnightblue" stroke="midnightblue" points="183.17,-80.49 173.66,-75.81 178.17,-85.4 183.17,-80.49"/>
</g>
<!-- Node9&#45;&gt;Node7 -->
<g id="edge13" class="edge">
<title>Node9&#45;&gt;Node7</title>
<path fill="none" stroke="midnightblue" d="M172.23,-168.08C166.86,-160.46 158.98,-149.26 152.42,-139.94"/>
<polygon fill="midnightblue" stroke="midnightblue" points="155.28,-137.91 146.66,-131.75 149.55,-141.94 155.28,-137.91"/>
</g>
</g>
</svg>
