<?xml version="1.0" encoding="UTF-8" standalone="no"?>
<!DOCTYPE svg PUBLIC "-//W3C//DTD SVG 1.1//EN"
 "http://www.w3.org/Graphics/SVG/1.1/DTD/svg11.dtd">
<!-- Generated by graphviz version 2.44.1 (20200629.0800)
 -->
<!-- Title: D:/PathTracer/PathTracer/DiffuseMaterial.h Pages: 1 -->
<svg width="1114pt" height="508pt"
 viewBox="0.00 0.00 1113.50 508.00" xmlns="http://www.w3.org/2000/svg" xmlns:xlink="http://www.w3.org/1999/xlink">
<g id="graph0" class="graph" transform="scale(1 1) rotate(0) translate(4 504)">
<title>D:/PathTracer/PathTracer/DiffuseMaterial.h</title>
<polygon fill="white" stroke="transparent" points="-4,4 -4,-504 1109.5,-504 1109.5,4 -4,4"/>
<!-- Node1 -->
<g id="node1" class="node">
<title>Node1</title>
<g id="a_node1"><a xlink:title="Defines the DiffuseMaterial class.">
<polygon fill="#bfbfbf" stroke="black" points="339,-469.5 339,-499.5 466,-499.5 466,-469.5 339,-469.5"/>
<text text-anchor="start" x="347" y="-487.5" font-family="Helvetica,sans-Serif" font-size="10.00">D:/PathTracer/PathTracer</text>
<text text-anchor="middle" x="402.5" y="-476.5" font-family="Helvetica,sans-Serif" font-size="10.00">/DiffuseMaterial.h</text>
</a>
</g>
</g>
<!-- Node2 -->
<g id="node2" class="node">
<title>Node2</title>
<g id="a_node2"><a xlink:href="_diffuse_material_8cpp.html" target="_top" xlink:title=" ">
<polygon fill="white" stroke="black" points="109,-402.5 109,-432.5 236,-432.5 236,-402.5 109,-402.5"/>
<text text-anchor="start" x="117" y="-420.5" font-family="Helvetica,sans-Serif" font-size="10.00">D:/PathTracer/PathTracer</text>
<text text-anchor="middle" x="172.5" y="-409.5" font-family="Helvetica,sans-Serif" font-size="10.00">/DiffuseMaterial.cpp</text>
</a>
</g>
</g>
<!-- Node1&#45;&gt;Node2 -->
<g id="edge1" class="edge">
<title>Node1&#45;&gt;Node2</title>
<path fill="none" stroke="midnightblue" d="M343.11,-466.71C305.68,-456.14 257.9,-442.63 222.43,-432.61"/>
<polygon fill="midnightblue" stroke="midnightblue" points="342.3,-470.12 352.88,-469.48 344.21,-463.39 342.3,-470.12"/>
</g>
<!-- Node3 -->
<g id="node3" class="node">
<title>Node3</title>
<g id="a_node3"><a xlink:href="_interface_gestion_8h.html" target="_top" xlink:title="Defines functions that are used when drawing the interface.">
<polygon fill="white" stroke="black" points="308,-268.5 308,-298.5 435,-298.5 435,-268.5 308,-268.5"/>
<text text-anchor="start" x="316" y="-286.5" font-family="Helvetica,sans-Serif" font-size="10.00">D:/PathTracer/PathTracer</text>
<text text-anchor="middle" x="371.5" y="-275.5" font-family="Helvetica,sans-Serif" font-size="10.00">/InterfaceGestion.h</text>
</a>
</g>
</g>
<!-- Node1&#45;&gt;Node3 -->
<g id="edge2" class="edge">
<title>Node1&#45;&gt;Node3</title>
<path fill="none" stroke="midnightblue" d="M371.14,-463.51C342.21,-443.03 301.15,-408.24 283.5,-366 278.19,-353.29 276.6,-346.92 283.5,-335 293.21,-318.23 310.82,-306.55 327.75,-298.68"/>
<polygon fill="midnightblue" stroke="midnightblue" points="369.47,-466.61 379.69,-469.4 373.44,-460.85 369.47,-466.61"/>
</g>
<!-- Node10 -->
<g id="node10" class="node">
<title>Node10</title>
<g id="a_node10"><a xlink:href="_scene_8h.html" target="_top" xlink:title="Defines the Scene class and the functions around it.">
<polygon fill="white" stroke="black" points="565,-134.5 565,-164.5 692,-164.5 692,-134.5 565,-134.5"/>
<text text-anchor="start" x="573" y="-152.5" font-family="Helvetica,sans-Serif" font-size="10.00">D:/PathTracer/PathTracer</text>
<text text-anchor="middle" x="628.5" y="-141.5" font-family="Helvetica,sans-Serif" font-size="10.00">/Scene.h</text>
</a>
</g>
</g>
<!-- Node1&#45;&gt;Node10 -->
<g id="edge38" class="edge">
<title>Node1&#45;&gt;Node10</title>
<path fill="none" stroke="midnightblue" d="M476.33,-477.34C656.77,-461.29 1105.5,-415 1105.5,-351.5 1105.5,-351.5 1105.5,-351.5 1105.5,-282.5 1105.5,-197.76 822.31,-165.24 692.34,-154.78"/>
<polygon fill="midnightblue" stroke="midnightblue" points="475.78,-473.87 466.13,-478.24 476.4,-480.85 475.78,-473.87"/>
</g>
<!-- Node14 -->
<g id="node14" class="node">
<title>Node14</title>
<g id="a_node14"><a xlink:href="_object3_d_8h.html" target="_top" xlink:title="Defines the Object3D class and the functions around it.">
<polygon fill="white" stroke="black" points="477,-402.5 477,-432.5 604,-432.5 604,-402.5 477,-402.5"/>
<text text-anchor="start" x="485" y="-420.5" font-family="Helvetica,sans-Serif" font-size="10.00">D:/PathTracer/PathTracer</text>
<text text-anchor="middle" x="540.5" y="-409.5" font-family="Helvetica,sans-Serif" font-size="10.00">/Object3D.h</text>
</a>
</g>
</g>
<!-- Node1&#45;&gt;Node14 -->
<g id="edge17" class="edge">
<title>Node1&#45;&gt;Node14</title>
<path fill="none" stroke="midnightblue" d="M441.5,-465.13C463.43,-454.8 490.37,-442.11 510.61,-432.58"/>
<polygon fill="midnightblue" stroke="midnightblue" points="440,-461.97 432.44,-469.4 442.98,-468.3 440,-461.97"/>
</g>
<!-- Node4 -->
<g id="node4" class="node">
<title>Node4</title>
<g id="a_node4"><a xlink:href="_interface_8h.html" target="_top" xlink:title="Defines some functions for the interface.">
<polygon fill="white" stroke="black" points="72,-67.5 72,-97.5 199,-97.5 199,-67.5 72,-67.5"/>
<text text-anchor="start" x="80" y="-85.5" font-family="Helvetica,sans-Serif" font-size="10.00">D:/PathTracer/PathTracer</text>
<text text-anchor="middle" x="135.5" y="-74.5" font-family="Helvetica,sans-Serif" font-size="10.00">/Interface.h</text>
</a>
</g>
</g>
<!-- Node3&#45;&gt;Node4 -->
<g id="edge3" class="edge">
<title>Node3&#45;&gt;Node4</title>
<path fill="none" stroke="midnightblue" d="M297.93,-268.1C213.99,-255.07 166.9,-293.35 116.5,-232 84.16,-192.64 112.48,-126.5 127.53,-97.66"/>
<polygon fill="midnightblue" stroke="midnightblue" points="297.34,-271.55 307.8,-269.84 298.56,-264.66 297.34,-271.55"/>
</g>
<!-- Node7 -->
<g id="node7" class="node">
<title>Node7</title>
<g id="a_node7"><a xlink:href="_interface_gestion_8cpp.html" target="_top" xlink:title=" ">
<polygon fill="white" stroke="black" points="416,-201.5 416,-231.5 543,-231.5 543,-201.5 416,-201.5"/>
<text text-anchor="start" x="424" y="-219.5" font-family="Helvetica,sans-Serif" font-size="10.00">D:/PathTracer/PathTracer</text>
<text text-anchor="middle" x="479.5" y="-208.5" font-family="Helvetica,sans-Serif" font-size="10.00">/InterfaceGestion.cpp</text>
</a>
</g>
</g>
<!-- Node3&#45;&gt;Node7 -->
<g id="edge6" class="edge">
<title>Node3&#45;&gt;Node7</title>
<path fill="none" stroke="midnightblue" d="M403.87,-263.02C420.68,-252.9 440.84,-240.77 456.11,-231.58"/>
<polygon fill="midnightblue" stroke="midnightblue" points="401.7,-260.24 394.93,-268.4 405.31,-266.24 401.7,-260.24"/>
</g>
<!-- Node8 -->
<g id="node8" class="node">
<title>Node8</title>
<g id="a_node8"><a xlink:href="_object3_d_group_8h.html" target="_top" xlink:title="Defines the Object3DGroup class and the functions around it.">
<polygon fill="white" stroke="black" points="126,-201.5 126,-231.5 253,-231.5 253,-201.5 126,-201.5"/>
<text text-anchor="start" x="134" y="-219.5" font-family="Helvetica,sans-Serif" font-size="10.00">D:/PathTracer/PathTracer</text>
<text text-anchor="middle" x="189.5" y="-208.5" font-family="Helvetica,sans-Serif" font-size="10.00">/Object3DGroup.h</text>
</a>
</g>
</g>
<!-- Node3&#45;&gt;Node8 -->
<g id="edge7" class="edge">
<title>Node3&#45;&gt;Node8</title>
<path fill="none" stroke="midnightblue" d="M322.37,-264.96C293.06,-254.48 256.32,-241.37 228.91,-231.58"/>
<polygon fill="midnightblue" stroke="midnightblue" points="321.41,-268.33 332.01,-268.4 323.77,-261.74 321.41,-268.33"/>
</g>
<!-- Node3&#45;&gt;Node10 -->
<g id="edge16" class="edge">
<title>Node3&#45;&gt;Node10</title>
<path fill="none" stroke="midnightblue" d="M444.89,-266.11C486.27,-256.05 533.24,-243.04 551.5,-232 580.65,-214.38 605.93,-182.76 619.01,-164.52"/>
<polygon fill="midnightblue" stroke="midnightblue" points="443.97,-262.73 435.06,-268.47 445.6,-269.54 443.97,-262.73"/>
</g>
<!-- Node12 -->
<g id="node12" class="node">
<title>Node12</title>
<g id="a_node12"><a xlink:href="_picture_8h.html" target="_top" xlink:title="Defines the Picture class and the functions around it.">
<polygon fill="white" stroke="black" points="271,-201.5 271,-231.5 398,-231.5 398,-201.5 271,-201.5"/>
<text text-anchor="start" x="279" y="-219.5" font-family="Helvetica,sans-Serif" font-size="10.00">D:/PathTracer/PathTracer</text>
<text text-anchor="middle" x="334.5" y="-208.5" font-family="Helvetica,sans-Serif" font-size="10.00">/Picture.h</text>
</a>
</g>
</g>
<!-- Node3&#45;&gt;Node12 -->
<g id="edge13" class="edge">
<title>Node3&#45;&gt;Node12</title>
<path fill="none" stroke="midnightblue" d="M358.45,-259.58C353.14,-250.24 347.16,-239.75 342.51,-231.58"/>
<polygon fill="midnightblue" stroke="midnightblue" points="355.48,-261.44 363.47,-268.4 361.57,-257.97 355.48,-261.44"/>
</g>
<!-- Node5 -->
<g id="node5" class="node">
<title>Node5</title>
<g id="a_node5"><a xlink:href="_interface_8cpp.html" target="_top" xlink:title=" ">
<polygon fill="white" stroke="black" points="0,-0.5 0,-30.5 127,-30.5 127,-0.5 0,-0.5"/>
<text text-anchor="start" x="8" y="-18.5" font-family="Helvetica,sans-Serif" font-size="10.00">D:/PathTracer/PathTracer</text>
<text text-anchor="middle" x="63.5" y="-7.5" font-family="Helvetica,sans-Serif" font-size="10.00">/Interface.cpp</text>
</a>
</g>
</g>
<!-- Node4&#45;&gt;Node5 -->
<g id="edge4" class="edge">
<title>Node4&#45;&gt;Node5</title>
<path fill="none" stroke="midnightblue" d="M112.35,-60.6C101.48,-50.78 88.8,-39.34 79.09,-30.58"/>
<polygon fill="midnightblue" stroke="midnightblue" points="110.11,-63.29 119.88,-67.4 114.8,-58.1 110.11,-63.29"/>
</g>
<!-- Node6 -->
<g id="node6" class="node">
<title>Node6</title>
<g id="a_node6"><a xlink:href="main_8cpp.html" target="_top" xlink:title=" ">
<polygon fill="white" stroke="black" points="145,-0.5 145,-30.5 272,-30.5 272,-0.5 145,-0.5"/>
<text text-anchor="start" x="153" y="-18.5" font-family="Helvetica,sans-Serif" font-size="10.00">D:/PathTracer/PathTracer</text>
<text text-anchor="middle" x="208.5" y="-7.5" font-family="Helvetica,sans-Serif" font-size="10.00">/main.cpp</text>
</a>
</g>
</g>
<!-- Node4&#45;&gt;Node6 -->
<g id="edge5" class="edge">
<title>Node4&#45;&gt;Node6</title>
<path fill="none" stroke="midnightblue" d="M158.97,-60.6C170,-50.78 182.84,-39.34 192.69,-30.58"/>
<polygon fill="midnightblue" stroke="midnightblue" points="156.48,-58.13 151.34,-67.4 161.14,-63.36 156.48,-58.13"/>
</g>
<!-- Node8&#45;&gt;Node4 -->
<g id="edge8" class="edge">
<title>Node8&#45;&gt;Node4</title>
<path fill="none" stroke="midnightblue" d="M171.34,-193.19C165.23,-184.77 158.87,-174.84 154.5,-165 144.54,-142.56 139.45,-114.23 137.14,-97.56"/>
<polygon fill="midnightblue" stroke="midnightblue" points="168.69,-195.49 177.52,-201.36 174.27,-191.27 168.69,-195.49"/>
</g>
<!-- Node9 -->
<g id="node9" class="node">
<title>Node9</title>
<g id="a_node9"><a xlink:href="_object3_d_group_8cpp.html" target="_top" xlink:title=" ">
<polygon fill="white" stroke="black" points="164,-134.5 164,-164.5 291,-164.5 291,-134.5 164,-134.5"/>
<text text-anchor="start" x="172" y="-152.5" font-family="Helvetica,sans-Serif" font-size="10.00">D:/PathTracer/PathTracer</text>
<text text-anchor="middle" x="227.5" y="-141.5" font-family="Helvetica,sans-Serif" font-size="10.00">/Object3DGroup.cpp</text>
</a>
</g>
</g>
<!-- Node8&#45;&gt;Node9 -->
<g id="edge9" class="edge">
<title>Node8&#45;&gt;Node9</title>
<path fill="none" stroke="midnightblue" d="M202.9,-192.58C208.36,-183.24 214.49,-172.75 219.27,-164.58"/>
<polygon fill="midnightblue" stroke="midnightblue" points="199.77,-191 197.75,-201.4 205.81,-194.53 199.77,-191"/>
</g>
<!-- Node8&#45;&gt;Node10 -->
<g id="edge10" class="edge">
<title>Node8&#45;&gt;Node10</title>
<path fill="none" stroke="midnightblue" d="M263.15,-200.78C374.79,-182.11 493.83,-166.73 565,-158.02"/>
<polygon fill="midnightblue" stroke="midnightblue" points="262.34,-197.36 253.06,-202.48 263.51,-204.27 262.34,-197.36"/>
</g>
<!-- Node10&#45;&gt;Node4 -->
<g id="edge11" class="edge">
<title>Node10&#45;&gt;Node4</title>
<path fill="none" stroke="midnightblue" d="M554.82,-138.79C458.21,-126.05 290.3,-103.91 199.02,-91.87"/>
<polygon fill="midnightblue" stroke="midnightblue" points="554.43,-142.27 564.81,-140.1 555.35,-135.33 554.43,-142.27"/>
</g>
<!-- Node11 -->
<g id="node11" class="node">
<title>Node11</title>
<g id="a_node11"><a xlink:href="_scene_8cpp.html" target="_top" xlink:title=" ">
<polygon fill="white" stroke="black" points="565,-67.5 565,-97.5 692,-97.5 692,-67.5 565,-67.5"/>
<text text-anchor="start" x="573" y="-85.5" font-family="Helvetica,sans-Serif" font-size="10.00">D:/PathTracer/PathTracer</text>
<text text-anchor="middle" x="628.5" y="-74.5" font-family="Helvetica,sans-Serif" font-size="10.00">/Scene.cpp</text>
</a>
</g>
</g>
<!-- Node10&#45;&gt;Node11 -->
<g id="edge12" class="edge">
<title>Node10&#45;&gt;Node11</title>
<path fill="none" stroke="midnightblue" d="M628.5,-124.11C628.5,-115.15 628.5,-105.32 628.5,-97.58"/>
<polygon fill="midnightblue" stroke="midnightblue" points="625,-124.4 628.5,-134.4 632,-124.4 625,-124.4"/>
</g>
<!-- Node12&#45;&gt;Node10 -->
<g id="edge15" class="edge">
<title>Node12&#45;&gt;Node10</title>
<path fill="none" stroke="midnightblue" d="M407.7,-199.32C456.02,-188.63 518.7,-174.77 564.93,-164.55"/>
<polygon fill="midnightblue" stroke="midnightblue" points="406.94,-195.9 397.93,-201.48 408.45,-202.73 406.94,-195.9"/>
</g>
<!-- Node13 -->
<g id="node13" class="node">
<title>Node13</title>
<g id="a_node13"><a xlink:href="_picture_8cpp.html" target="_top" xlink:title=" ">
<polygon fill="white" stroke="black" points="309,-134.5 309,-164.5 436,-164.5 436,-134.5 309,-134.5"/>
<text text-anchor="start" x="317" y="-152.5" font-family="Helvetica,sans-Serif" font-size="10.00">D:/PathTracer/PathTracer</text>
<text text-anchor="middle" x="372.5" y="-141.5" font-family="Helvetica,sans-Serif" font-size="10.00">/Picture.cpp</text>
</a>
</g>
</g>
<!-- Node12&#45;&gt;Node13 -->
<g id="edge14" class="edge">
<title>Node12&#45;&gt;Node13</title>
<path fill="none" stroke="midnightblue" d="M347.9,-192.58C353.36,-183.24 359.49,-172.75 364.27,-164.58"/>
<polygon fill="midnightblue" stroke="midnightblue" points="344.77,-191 342.75,-201.4 350.81,-194.53 344.77,-191"/>
</g>
<!-- Node14&#45;&gt;Node3 -->
<g id="edge18" class="edge">
<title>Node14&#45;&gt;Node3</title>
<path fill="none" stroke="midnightblue" d="M510.62,-396.8C497.21,-387.72 481.34,-376.62 467.5,-366 438.19,-343.51 405.74,-315.19 387.07,-298.55"/>
<polygon fill="midnightblue" stroke="midnightblue" points="508.77,-399.78 519.02,-402.46 512.68,-393.97 508.77,-399.78"/>
</g>
<!-- Node14&#45;&gt;Node8 -->
<g id="edge20" class="edge">
<title>Node14&#45;&gt;Node8</title>
<path fill="none" stroke="midnightblue" d="M466.72,-405.78C363.89,-389.03 186.35,-352.89 153.5,-299 139.89,-276.68 159.94,-248.31 175.14,-231.61"/>
<polygon fill="midnightblue" stroke="midnightblue" points="466.31,-409.26 476.74,-407.39 467.42,-402.35 466.31,-409.26"/>
</g>
<!-- Node14&#45;&gt;Node10 -->
<g id="edge25" class="edge">
<title>Node14&#45;&gt;Node10</title>
<path fill="none" stroke="midnightblue" d="M614.53,-414.52C748.48,-410.17 1019.95,-397.53 1048.5,-366 1111.17,-296.8 1004.64,-237 918.5,-201 844.59,-170.11 752.46,-158.12 692.14,-153.46"/>
<polygon fill="midnightblue" stroke="midnightblue" points="614.23,-411.03 604.34,-414.85 614.45,-418.03 614.23,-411.03"/>
</g>
<!-- Node15 -->
<g id="node15" class="node">
<title>Node15</title>
<g id="a_node15"><a xlink:href="_object3_d_8cpp.html" target="_top" xlink:title=" ">
<polygon fill="white" stroke="black" points="912,-335.5 912,-365.5 1039,-365.5 1039,-335.5 912,-335.5"/>
<text text-anchor="start" x="920" y="-353.5" font-family="Helvetica,sans-Serif" font-size="10.00">D:/PathTracer/PathTracer</text>
<text text-anchor="middle" x="975.5" y="-342.5" font-family="Helvetica,sans-Serif" font-size="10.00">/Object3D.cpp</text>
</a>
</g>
</g>
<!-- Node14&#45;&gt;Node15 -->
<g id="edge19" class="edge">
<title>Node14&#45;&gt;Node15</title>
<path fill="none" stroke="midnightblue" d="M614.37,-407.55C687.86,-398.34 803.75,-382.97 903.5,-366 906.27,-365.53 909.09,-365.03 911.94,-364.52"/>
<polygon fill="midnightblue" stroke="midnightblue" points="613.77,-404.1 604.29,-408.81 614.64,-411.05 613.77,-404.1"/>
</g>
<!-- Node16 -->
<g id="node16" class="node">
<title>Node16</title>
<g id="a_node16"><a xlink:href="_refractive_material_8h.html" target="_top" xlink:title="Defines the RefractiveMaterial class.">
<polygon fill="white" stroke="black" points="293,-335.5 293,-365.5 420,-365.5 420,-335.5 293,-335.5"/>
<text text-anchor="start" x="301" y="-353.5" font-family="Helvetica,sans-Serif" font-size="10.00">D:/PathTracer/PathTracer</text>
<text text-anchor="middle" x="356.5" y="-342.5" font-family="Helvetica,sans-Serif" font-size="10.00">/RefractiveMaterial.h</text>
</a>
</g>
</g>
<!-- Node14&#45;&gt;Node16 -->
<g id="edge21" class="edge">
<title>Node14&#45;&gt;Node16</title>
<path fill="none" stroke="midnightblue" d="M490.83,-398.96C461.2,-388.48 424.06,-375.37 396.35,-365.58"/>
<polygon fill="midnightblue" stroke="midnightblue" points="489.98,-402.37 500.57,-402.4 492.31,-395.76 489.98,-402.37"/>
</g>
<!-- Node18 -->
<g id="node18" class="node">
<title>Node18</title>
<g id="a_node18"><a xlink:href="_specular_material_8h.html" target="_top" xlink:title="Defines the SpecularMaterial class.">
<polygon fill="white" stroke="black" points="477,-335.5 477,-365.5 604,-365.5 604,-335.5 477,-335.5"/>
<text text-anchor="start" x="485" y="-353.5" font-family="Helvetica,sans-Serif" font-size="10.00">D:/PathTracer/PathTracer</text>
<text text-anchor="middle" x="540.5" y="-342.5" font-family="Helvetica,sans-Serif" font-size="10.00">/SpecularMaterial.h</text>
</a>
</g>
</g>
<!-- Node14&#45;&gt;Node18 -->
<g id="edge26" class="edge">
<title>Node14&#45;&gt;Node18</title>
<path fill="none" stroke="midnightblue" d="M540.5,-392.11C540.5,-383.15 540.5,-373.32 540.5,-365.58"/>
<polygon fill="midnightblue" stroke="midnightblue" points="537,-392.4 540.5,-402.4 544,-392.4 537,-392.4"/>
</g>
<!-- Node20 -->
<g id="node20" class="node">
<title>Node20</title>
<g id="a_node20"><a xlink:href="_sphere_8h.html" target="_top" xlink:title="Defines the Sphere class.">
<polygon fill="white" stroke="black" points="767,-335.5 767,-365.5 894,-365.5 894,-335.5 767,-335.5"/>
<text text-anchor="start" x="775" y="-353.5" font-family="Helvetica,sans-Serif" font-size="10.00">D:/PathTracer/PathTracer</text>
<text text-anchor="middle" x="830.5" y="-342.5" font-family="Helvetica,sans-Serif" font-size="10.00">/Sphere.h</text>
</a>
</g>
</g>
<!-- Node14&#45;&gt;Node20 -->
<g id="edge30" class="edge">
<title>Node14&#45;&gt;Node20</title>
<path fill="none" stroke="midnightblue" d="M612.99,-400.25C660.52,-389.6 722.06,-375.81 767.54,-365.61"/>
<polygon fill="midnightblue" stroke="midnightblue" points="612.06,-396.87 603.07,-402.48 613.59,-403.7 612.06,-396.87"/>
</g>
<!-- Node22 -->
<g id="node22" class="node">
<title>Node22</title>
<g id="a_node22"><a xlink:href="_triangle_8h.html" target="_top" xlink:title="Defines the Triangle class.">
<polygon fill="white" stroke="black" points="622,-335.5 622,-365.5 749,-365.5 749,-335.5 622,-335.5"/>
<text text-anchor="start" x="630" y="-353.5" font-family="Helvetica,sans-Serif" font-size="10.00">D:/PathTracer/PathTracer</text>
<text text-anchor="middle" x="685.5" y="-342.5" font-family="Helvetica,sans-Serif" font-size="10.00">/Triangle.h</text>
</a>
</g>
</g>
<!-- Node14&#45;&gt;Node22 -->
<g id="edge34" class="edge">
<title>Node14&#45;&gt;Node22</title>
<path fill="none" stroke="midnightblue" d="M581.17,-398.27C604.26,-387.92 632.74,-375.15 654.1,-365.58"/>
<polygon fill="midnightblue" stroke="midnightblue" points="579.66,-395.11 571.96,-402.4 582.52,-401.5 579.66,-395.11"/>
</g>
<!-- Node16&#45;&gt;Node3 -->
<g id="edge22" class="edge">
<title>Node16&#45;&gt;Node3</title>
<path fill="none" stroke="midnightblue" d="M362.06,-325.4C364.15,-316.37 366.44,-306.41 368.25,-298.58"/>
<polygon fill="midnightblue" stroke="midnightblue" points="358.59,-324.87 359.75,-335.4 365.41,-326.44 358.59,-324.87"/>
</g>
<!-- Node16&#45;&gt;Node10 -->
<g id="edge24" class="edge">
<title>Node16&#45;&gt;Node10</title>
<path fill="none" stroke="midnightblue" d="M392.06,-330.41C408.11,-321.4 427.1,-310.19 443.5,-299 461.79,-286.52 463.14,-278.75 482.5,-268 524.16,-244.86 547.19,-262.86 583.5,-232 604.93,-213.79 618.02,-182.68 624.2,-164.62"/>
<polygon fill="midnightblue" stroke="midnightblue" points="390.04,-327.53 382.99,-335.44 393.44,-333.65 390.04,-327.53"/>
</g>
<!-- Node17 -->
<g id="node17" class="node">
<title>Node17</title>
<g id="a_node17"><a xlink:href="_refractive_material_8cpp.html" target="_top" xlink:title=" ">
<polygon fill="white" stroke="black" points="163,-268.5 163,-298.5 290,-298.5 290,-268.5 163,-268.5"/>
<text text-anchor="start" x="171" y="-286.5" font-family="Helvetica,sans-Serif" font-size="10.00">D:/PathTracer/PathTracer</text>
<text text-anchor="middle" x="226.5" y="-275.5" font-family="Helvetica,sans-Serif" font-size="10.00">/RefractiveMaterial.cpp</text>
</a>
</g>
</g>
<!-- Node16&#45;&gt;Node17 -->
<g id="edge23" class="edge">
<title>Node16&#45;&gt;Node17</title>
<path fill="none" stroke="midnightblue" d="M319.21,-330.85C298.65,-320.58 273.55,-308.03 254.65,-298.58"/>
<polygon fill="midnightblue" stroke="midnightblue" points="317.78,-334.05 328.29,-335.4 320.91,-327.79 317.78,-334.05"/>
</g>
<!-- Node18&#45;&gt;Node3 -->
<g id="edge27" class="edge">
<title>Node18&#45;&gt;Node3</title>
<path fill="none" stroke="midnightblue" d="M494.17,-331.68C467.07,-321.26 433.33,-308.28 408.1,-298.58"/>
<polygon fill="midnightblue" stroke="midnightblue" points="493.24,-335.07 503.83,-335.4 495.75,-328.54 493.24,-335.07"/>
</g>
<!-- Node18&#45;&gt;Node10 -->
<g id="edge28" class="edge">
<title>Node18&#45;&gt;Node10</title>
<path fill="none" stroke="midnightblue" d="M592.37,-330.75C606.21,-323.11 619.52,-312.75 627.5,-299 652.6,-255.74 640.23,-192.77 632.77,-164.8"/>
<polygon fill="midnightblue" stroke="midnightblue" points="590.58,-327.74 583.25,-335.39 593.75,-333.98 590.58,-327.74"/>
</g>
<!-- Node19 -->
<g id="node19" class="node">
<title>Node19</title>
<g id="a_node19"><a xlink:href="_specular_material_8cpp.html" target="_top" xlink:title=" ">
<polygon fill="white" stroke="black" points="492,-268.5 492,-298.5 619,-298.5 619,-268.5 492,-268.5"/>
<text text-anchor="start" x="500" y="-286.5" font-family="Helvetica,sans-Serif" font-size="10.00">D:/PathTracer/PathTracer</text>
<text text-anchor="middle" x="555.5" y="-275.5" font-family="Helvetica,sans-Serif" font-size="10.00">/SpecularMaterial.cpp</text>
</a>
</g>
</g>
<!-- Node18&#45;&gt;Node19 -->
<g id="edge29" class="edge">
<title>Node18&#45;&gt;Node19</title>
<path fill="none" stroke="midnightblue" d="M546.06,-325.4C548.15,-316.37 550.44,-306.41 552.25,-298.58"/>
<polygon fill="midnightblue" stroke="midnightblue" points="542.59,-324.87 543.75,-335.4 549.41,-326.44 542.59,-324.87"/>
</g>
<!-- Node20&#45;&gt;Node3 -->
<g id="edge31" class="edge">
<title>Node20&#45;&gt;Node3</title>
<path fill="none" stroke="midnightblue" d="M756.65,-335.14C711.34,-328.9 532.69,-305.56 435.28,-292.83"/>
<polygon fill="midnightblue" stroke="midnightblue" points="756.45,-338.65 766.84,-336.6 757.44,-331.72 756.45,-338.65"/>
</g>
<!-- Node20&#45;&gt;Node10 -->
<g id="edge32" class="edge">
<title>Node20&#45;&gt;Node10</title>
<path fill="none" stroke="midnightblue" d="M897.94,-332.89C940.76,-321.67 989.28,-307.41 995.5,-299 1003.69,-287.92 1003.62,-279.13 995.5,-268 959.41,-218.55 787.38,-179.76 692.2,-161.65"/>
<polygon fill="midnightblue" stroke="midnightblue" points="896.86,-329.56 888.06,-335.46 898.61,-336.33 896.86,-329.56"/>
</g>
<!-- Node21 -->
<g id="node21" class="node">
<title>Node21</title>
<g id="a_node21"><a xlink:href="_sphere_8cpp.html" target="_top" xlink:title=" ">
<polygon fill="white" stroke="black" points="859,-268.5 859,-298.5 986,-298.5 986,-268.5 859,-268.5"/>
<text text-anchor="start" x="867" y="-286.5" font-family="Helvetica,sans-Serif" font-size="10.00">D:/PathTracer/PathTracer</text>
<text text-anchor="middle" x="922.5" y="-275.5" font-family="Helvetica,sans-Serif" font-size="10.00">/Sphere.cpp</text>
</a>
</g>
</g>
<!-- Node20&#45;&gt;Node21 -->
<g id="edge33" class="edge">
<title>Node20&#45;&gt;Node21</title>
<path fill="none" stroke="midnightblue" d="M858.88,-329.45C873.03,-319.45 889.81,-307.6 902.58,-298.58"/>
<polygon fill="midnightblue" stroke="midnightblue" points="856.61,-326.77 850.46,-335.4 860.65,-332.48 856.61,-326.77"/>
</g>
<!-- Node22&#45;&gt;Node3 -->
<g id="edge35" class="edge">
<title>Node22&#45;&gt;Node3</title>
<path fill="none" stroke="midnightblue" d="M612.16,-334.32C558.52,-323.21 486.47,-308.3 435.22,-297.69"/>
<polygon fill="midnightblue" stroke="midnightblue" points="611.46,-337.75 621.96,-336.35 612.87,-330.89 611.46,-337.75"/>
</g>
<!-- Node22&#45;&gt;Node10 -->
<g id="edge36" class="edge">
<title>Node22&#45;&gt;Node10</title>
<path fill="none" stroke="midnightblue" d="M684.66,-325.1C682.93,-295 677.64,-242.68 661.5,-201 656.36,-187.72 647.36,-174.3 640.06,-164.63"/>
<polygon fill="midnightblue" stroke="midnightblue" points="681.18,-325.67 685.16,-335.49 688.17,-325.33 681.18,-325.67"/>
</g>
<!-- Node23 -->
<g id="node23" class="node">
<title>Node23</title>
<g id="a_node23"><a xlink:href="_triangle_8cpp.html" target="_top" xlink:title=" ">
<polygon fill="white" stroke="black" points="714,-268.5 714,-298.5 841,-298.5 841,-268.5 714,-268.5"/>
<text text-anchor="start" x="722" y="-286.5" font-family="Helvetica,sans-Serif" font-size="10.00">D:/PathTracer/PathTracer</text>
<text text-anchor="middle" x="777.5" y="-275.5" font-family="Helvetica,sans-Serif" font-size="10.00">/Triangle.cpp</text>
</a>
</g>
</g>
<!-- Node22&#45;&gt;Node23 -->
<g id="edge37" class="edge">
<title>Node22&#45;&gt;Node23</title>
<path fill="none" stroke="midnightblue" d="M713.88,-329.45C728.03,-319.45 744.81,-307.6 757.58,-298.58"/>
<polygon fill="midnightblue" stroke="midnightblue" points="711.61,-326.77 705.46,-335.4 715.65,-332.48 711.61,-326.77"/>
</g>
</g>
</svg>
