<?xml version="1.0" encoding="UTF-8" standalone="no"?>
<!DOCTYPE svg PUBLIC "-//W3C//DTD SVG 1.1//EN"
 "http://www.w3.org/Graphics/SVG/1.1/DTD/svg11.dtd">
<!-- Generated by graphviz version 2.44.1 (20200629.0800)
 -->
<!-- Title: D:/PathTracer/PathTracer/DoubleVec3D.h Pages: 1 -->
<!--zoomable 776 -->
<svg id="main" version="1.1" xmlns="http://www.w3.org/2000/svg" xmlns:xlink="http://www.w3.org/1999/xlink" xml:space="preserve" onload="init(evt)">
<style type="text/css"><![CDATA[
.edge:hover path { stroke: red; }
.edge:hover polygon { stroke: red; fill: red; }
]]></style>
<script type="text/javascript"><![CDATA[
var edges = document.getElementsByTagName('g');
if (edges && edges.length) {
  for (var i=0;i<edges.length;i++) {
    if (edges[i].id.substr(0,4)=='edge') {
      edges[i].setAttribute('class','edge');
    }
  }
}
]]></script>
        <defs>
                <circle id="rim" cx="0" cy="0" r="7"/>
                <circle id="rim2" cx="0" cy="0" r="3.5"/>
                <g id="zoomPlus">
                        <use xlink:href="#rim" fill="#404040">
                                <set attributeName="fill" to="#808080" begin="zoomplus.mouseover" end="zoomplus.mouseout"/>
                        </use>
                        <path d="M-4,0h8M0,-4v8" fill="none" stroke="white" stroke-width="1.5" pointer-events="none"/>
                </g>
                <g id="zoomMin">
                        <use xlink:href="#rim" fill="#404040">
                                <set attributeName="fill" to="#808080" begin="zoomminus.mouseover" end="zoomminus.mouseout"/>
                        </use>
                        <path d="M-4,0h8" fill="none" stroke="white" stroke-width="1.5" pointer-events="none"/>
                </g>
                <g id="dirArrow">
                        <path fill="none" stroke="white" stroke-width="1.5" d="M0,-3.0v7 M-2.5,-0.5L0,-3.0L2.5,-0.5"/>
                </g>
               <g id="resetDef">
                       <use xlink:href="#rim2" fill="#404040">
                               <set attributeName="fill" to="#808080" begin="reset.mouseover" end="reset.mouseout"/>
                       </use>
               </g>
        </defs>

<script type="text/javascript">
var viewWidth = 1219;
var viewHeight = 776;
var sectionId = 'dynsection-1';
</script>
<script xlink:href="svgpan.js"/>
<svg id="graph" class="graph">
<g id="viewport">
<title>D:/PathTracer/PathTracer/DoubleVec3D.h</title>
<polygon fill="white" stroke="transparent" points="-4,4 -4,-772 1215,-772 1215,4 -4,4"/>
<!-- Node1 -->
<g id="node1" class="node">
<title>Node1</title>
<g id="a_node1"><a xlink:title="Defines the DoubleVec3D class and the functions around it.">
<polygon fill="#bfbfbf" stroke="black" points="794,-737.5 794,-767.5 921,-767.5 921,-737.5 794,-737.5"/>
<text text-anchor="start" x="802" y="-755.5" font-family="Helvetica,sans-Serif" font-size="10.00">D:/PathTracer/PathTracer</text>
<text text-anchor="middle" x="857.5" y="-744.5" font-family="Helvetica,sans-Serif" font-size="10.00">/DoubleVec3D.h</text>
</a>
</g>
</g>
<!-- Node2 -->
<g id="node2" class="node">
<title>Node2</title>
<g id="a_node2"><a xlink:href="_double_matrix33_8h.html" target="_top" xlink:title="Defines the DoubleMatrix33 class and the functions around it.">
<polygon fill="white" stroke="black" points="794,-670.5 794,-700.5 921,-700.5 921,-670.5 794,-670.5"/>
<text text-anchor="start" x="802" y="-688.5" font-family="Helvetica,sans-Serif" font-size="10.00">D:/PathTracer/PathTracer</text>
<text text-anchor="middle" x="857.5" y="-677.5" font-family="Helvetica,sans-Serif" font-size="10.00">/DoubleMatrix33.h</text>
</a>
</g>
</g>
<!-- Node1&#45;&gt;Node2 -->
<g id="edge1" class="edge">
<title>Node1&#45;&gt;Node2</title>
<path fill="none" stroke="midnightblue" d="M857.5,-727.11C857.5,-718.15 857.5,-708.32 857.5,-700.58"/>
<polygon fill="midnightblue" stroke="midnightblue" points="854,-727.4 857.5,-737.4 861,-727.4 854,-727.4"/>
</g>
<!-- Node9 -->
<g id="node9" class="node">
<title>Node9</title>
<g id="a_node9"><a xlink:href="_double_unit_vec3_d_8h.html" target="_top" xlink:title="Defines the DoubleUnitVec3D class and the functions around it.">
<polygon fill="white" stroke="black" points="649,-670.5 649,-700.5 776,-700.5 776,-670.5 649,-670.5"/>
<text text-anchor="start" x="657" y="-688.5" font-family="Helvetica,sans-Serif" font-size="10.00">D:/PathTracer/PathTracer</text>
<text text-anchor="middle" x="712.5" y="-677.5" font-family="Helvetica,sans-Serif" font-size="10.00">/DoubleUnitVec3D.h</text>
</a>
</g>
</g>
<!-- Node1&#45;&gt;Node9 -->
<g id="edge8" class="edge">
<title>Node1&#45;&gt;Node9</title>
<path fill="none" stroke="midnightblue" d="M816.83,-733.27C793.74,-722.92 765.26,-710.15 743.9,-700.58"/>
<polygon fill="midnightblue" stroke="midnightblue" points="815.48,-736.5 826.04,-737.4 818.34,-730.11 815.48,-736.5"/>
</g>
<!-- Node11 -->
<g id="node11" class="node">
<title>Node11</title>
<g id="a_node11"><a xlink:href="_ray_8h.html" target="_top" xlink:title="Defines the Ray class.">
<polygon fill="white" stroke="black" points="504,-603.5 504,-633.5 631,-633.5 631,-603.5 504,-603.5"/>
<text text-anchor="start" x="512" y="-621.5" font-family="Helvetica,sans-Serif" font-size="10.00">D:/PathTracer/PathTracer</text>
<text text-anchor="middle" x="567.5" y="-610.5" font-family="Helvetica,sans-Serif" font-size="10.00">/Ray.h</text>
</a>
</g>
</g>
<!-- Node1&#45;&gt;Node11 -->
<g id="edge45" class="edge">
<title>Node1&#45;&gt;Node11</title>
<path fill="none" stroke="midnightblue" d="M783.41,-745.75C739.12,-739.63 683.16,-727.02 639.5,-701 611.12,-684.09 587.89,-652.21 576.04,-633.73"/>
<polygon fill="midnightblue" stroke="midnightblue" points="783.17,-749.24 793.54,-747.06 784.07,-742.3 783.17,-749.24"/>
</g>
<!-- Node35 -->
<g id="node35" class="node">
<title>Node35</title>
<g id="a_node35"><a xlink:href="_double_vec3_d_8cpp.html" target="_top" xlink:title=" ">
<polygon fill="white" stroke="black" points="1084,-670.5 1084,-700.5 1211,-700.5 1211,-670.5 1084,-670.5"/>
<text text-anchor="start" x="1092" y="-688.5" font-family="Helvetica,sans-Serif" font-size="10.00">D:/PathTracer/PathTracer</text>
<text text-anchor="middle" x="1147.5" y="-677.5" font-family="Helvetica,sans-Serif" font-size="10.00">/DoubleVec3D.cpp</text>
</a>
</g>
</g>
<!-- Node1&#45;&gt;Node35 -->
<g id="edge41" class="edge">
<title>Node1&#45;&gt;Node35</title>
<path fill="none" stroke="midnightblue" d="M929.99,-735.25C977.52,-724.6 1039.06,-710.81 1084.54,-700.61"/>
<polygon fill="midnightblue" stroke="midnightblue" points="929.06,-731.87 920.07,-737.48 930.59,-738.7 929.06,-731.87"/>
</g>
<!-- Node36 -->
<g id="node36" class="node">
<title>Node36</title>
<g id="a_node36"><a xlink:href="_picture_8h.html" target="_top" xlink:title="Defines the Picture class and the functions around it.">
<polygon fill="white" stroke="black" points="939,-670.5 939,-700.5 1066,-700.5 1066,-670.5 939,-670.5"/>
<text text-anchor="start" x="947" y="-688.5" font-family="Helvetica,sans-Serif" font-size="10.00">D:/PathTracer/PathTracer</text>
<text text-anchor="middle" x="1002.5" y="-677.5" font-family="Helvetica,sans-Serif" font-size="10.00">/Picture.h</text>
</a>
</g>
</g>
<!-- Node1&#45;&gt;Node36 -->
<g id="edge42" class="edge">
<title>Node1&#45;&gt;Node36</title>
<path fill="none" stroke="midnightblue" d="M898.17,-733.27C921.26,-722.92 949.74,-710.15 971.1,-700.58"/>
<polygon fill="midnightblue" stroke="midnightblue" points="896.66,-730.11 888.96,-737.4 899.52,-736.5 896.66,-730.11"/>
</g>
<!-- Node3 -->
<g id="node3" class="node">
<title>Node3</title>
<g id="a_node3"><a xlink:href="_double_matrix33_8cpp.html" target="_top" xlink:title=" ">
<polygon fill="white" stroke="black" points="794,-603.5 794,-633.5 921,-633.5 921,-603.5 794,-603.5"/>
<text text-anchor="start" x="802" y="-621.5" font-family="Helvetica,sans-Serif" font-size="10.00">D:/PathTracer/PathTracer</text>
<text text-anchor="middle" x="857.5" y="-610.5" font-family="Helvetica,sans-Serif" font-size="10.00">/DoubleMatrix33.cpp</text>
</a>
</g>
</g>
<!-- Node2&#45;&gt;Node3 -->
<g id="edge2" class="edge">
<title>Node2&#45;&gt;Node3</title>
<path fill="none" stroke="midnightblue" d="M857.5,-660.11C857.5,-651.15 857.5,-641.32 857.5,-633.58"/>
<polygon fill="midnightblue" stroke="midnightblue" points="854,-660.4 857.5,-670.4 861,-660.4 854,-660.4"/>
</g>
<!-- Node4 -->
<g id="node4" class="node">
<title>Node4</title>
<g id="a_node4"><a xlink:href="_scene_8h.html" target="_top" xlink:title="Defines the Scene class and the functions around it.">
<polygon fill="white" stroke="black" points="702,-134.5 702,-164.5 829,-164.5 829,-134.5 702,-134.5"/>
<text text-anchor="start" x="710" y="-152.5" font-family="Helvetica,sans-Serif" font-size="10.00">D:/PathTracer/PathTracer</text>
<text text-anchor="middle" x="765.5" y="-141.5" font-family="Helvetica,sans-Serif" font-size="10.00">/Scene.h</text>
</a>
</g>
</g>
<!-- Node2&#45;&gt;Node4 -->
<g id="edge3" class="edge">
<title>Node2&#45;&gt;Node4</title>
<path fill="none" stroke="midnightblue" d="M895.91,-664.89C908.27,-656.85 920.97,-646.47 929.5,-634 950.56,-603.22 949.5,-589.8 949.5,-552.5 949.5,-552.5 949.5,-552.5 949.5,-282.5 949.5,-218.22 874.45,-182.21 820.21,-164.57"/>
<polygon fill="midnightblue" stroke="midnightblue" points="893.73,-662.12 887.02,-670.32 897.38,-668.09 893.73,-662.12"/>
</g>
<!-- Node5 -->
<g id="node5" class="node">
<title>Node5</title>
<g id="a_node5"><a xlink:href="_interface_8h.html" target="_top" xlink:title="Defines some functions for the interface.">
<polygon fill="white" stroke="black" points="629,-67.5 629,-97.5 756,-97.5 756,-67.5 629,-67.5"/>
<text text-anchor="start" x="637" y="-85.5" font-family="Helvetica,sans-Serif" font-size="10.00">D:/PathTracer/PathTracer</text>
<text text-anchor="middle" x="692.5" y="-74.5" font-family="Helvetica,sans-Serif" font-size="10.00">/Interface.h</text>
</a>
</g>
</g>
<!-- Node4&#45;&gt;Node5 -->
<g id="edge4" class="edge">
<title>Node4&#45;&gt;Node5</title>
<path fill="none" stroke="midnightblue" d="M742.03,-127.6C731,-117.78 718.16,-106.34 708.31,-97.58"/>
<polygon fill="midnightblue" stroke="midnightblue" points="739.86,-130.36 749.66,-134.4 744.52,-125.13 739.86,-130.36"/>
</g>
<!-- Node8 -->
<g id="node8" class="node">
<title>Node8</title>
<g id="a_node8"><a xlink:href="_scene_8cpp.html" target="_top" xlink:title=" ">
<polygon fill="white" stroke="black" points="774,-67.5 774,-97.5 901,-97.5 901,-67.5 774,-67.5"/>
<text text-anchor="start" x="782" y="-85.5" font-family="Helvetica,sans-Serif" font-size="10.00">D:/PathTracer/PathTracer</text>
<text text-anchor="middle" x="837.5" y="-74.5" font-family="Helvetica,sans-Serif" font-size="10.00">/Scene.cpp</text>
</a>
</g>
</g>
<!-- Node4&#45;&gt;Node8 -->
<g id="edge7" class="edge">
<title>Node4&#45;&gt;Node8</title>
<path fill="none" stroke="midnightblue" d="M788.65,-127.6C799.52,-117.78 812.2,-106.34 821.91,-97.58"/>
<polygon fill="midnightblue" stroke="midnightblue" points="786.2,-125.1 781.12,-134.4 790.89,-130.29 786.2,-125.1"/>
</g>
<!-- Node6 -->
<g id="node6" class="node">
<title>Node6</title>
<g id="a_node6"><a xlink:href="_interface_8cpp.html" target="_top" xlink:title=" ">
<polygon fill="white" stroke="black" points="557,-0.5 557,-30.5 684,-30.5 684,-0.5 557,-0.5"/>
<text text-anchor="start" x="565" y="-18.5" font-family="Helvetica,sans-Serif" font-size="10.00">D:/PathTracer/PathTracer</text>
<text text-anchor="middle" x="620.5" y="-7.5" font-family="Helvetica,sans-Serif" font-size="10.00">/Interface.cpp</text>
</a>
</g>
</g>
<!-- Node5&#45;&gt;Node6 -->
<g id="edge5" class="edge">
<title>Node5&#45;&gt;Node6</title>
<path fill="none" stroke="midnightblue" d="M669.35,-60.6C658.48,-50.78 645.8,-39.34 636.09,-30.58"/>
<polygon fill="midnightblue" stroke="midnightblue" points="667.11,-63.29 676.88,-67.4 671.8,-58.1 667.11,-63.29"/>
</g>
<!-- Node7 -->
<g id="node7" class="node">
<title>Node7</title>
<g id="a_node7"><a xlink:href="main_8cpp.html" target="_top" xlink:title=" ">
<polygon fill="white" stroke="black" points="702,-0.5 702,-30.5 829,-30.5 829,-0.5 702,-0.5"/>
<text text-anchor="start" x="710" y="-18.5" font-family="Helvetica,sans-Serif" font-size="10.00">D:/PathTracer/PathTracer</text>
<text text-anchor="middle" x="765.5" y="-7.5" font-family="Helvetica,sans-Serif" font-size="10.00">/main.cpp</text>
</a>
</g>
</g>
<!-- Node5&#45;&gt;Node7 -->
<g id="edge6" class="edge">
<title>Node5&#45;&gt;Node7</title>
<path fill="none" stroke="midnightblue" d="M715.97,-60.6C727,-50.78 739.84,-39.34 749.69,-30.58"/>
<polygon fill="midnightblue" stroke="midnightblue" points="713.48,-58.13 708.34,-67.4 718.14,-63.36 713.48,-58.13"/>
</g>
<!-- Node10 -->
<g id="node10" class="node">
<title>Node10</title>
<g id="a_node10"><a xlink:href="_double_unit_vec3_d_8cpp.html" target="_top" xlink:title=" ">
<polygon fill="white" stroke="black" points="649,-603.5 649,-633.5 776,-633.5 776,-603.5 649,-603.5"/>
<text text-anchor="start" x="657" y="-621.5" font-family="Helvetica,sans-Serif" font-size="10.00">D:/PathTracer/PathTracer</text>
<text text-anchor="middle" x="712.5" y="-610.5" font-family="Helvetica,sans-Serif" font-size="10.00">/DoubleUnitVec3D.cpp</text>
</a>
</g>
</g>
<!-- Node9&#45;&gt;Node10 -->
<g id="edge9" class="edge">
<title>Node9&#45;&gt;Node10</title>
<path fill="none" stroke="midnightblue" d="M712.5,-660.11C712.5,-651.15 712.5,-641.32 712.5,-633.58"/>
<polygon fill="midnightblue" stroke="midnightblue" points="709,-660.4 712.5,-670.4 716,-660.4 709,-660.4"/>
</g>
<!-- Node9&#45;&gt;Node11 -->
<g id="edge10" class="edge">
<title>Node9&#45;&gt;Node11</title>
<path fill="none" stroke="midnightblue" d="M671.83,-666.27C648.74,-655.92 620.26,-643.15 598.9,-633.58"/>
<polygon fill="midnightblue" stroke="midnightblue" points="670.48,-669.5 681.04,-670.4 673.34,-663.11 670.48,-669.5"/>
</g>
<!-- Node12 -->
<g id="node12" class="node">
<title>Node12</title>
<g id="a_node12"><a xlink:href="_material_8h.html" target="_top" xlink:title="Defines the Material class and the functions around it.">
<polygon fill="white" stroke="black" points="290,-536.5 290,-566.5 417,-566.5 417,-536.5 290,-536.5"/>
<text text-anchor="start" x="298" y="-554.5" font-family="Helvetica,sans-Serif" font-size="10.00">D:/PathTracer/PathTracer</text>
<text text-anchor="middle" x="353.5" y="-543.5" font-family="Helvetica,sans-Serif" font-size="10.00">/Material.h</text>
</a>
</g>
</g>
<!-- Node11&#45;&gt;Node12 -->
<g id="edge11" class="edge">
<title>Node11&#45;&gt;Node12</title>
<path fill="none" stroke="midnightblue" d="M511.35,-600.44C476.66,-589.91 432.68,-576.55 399.96,-566.61"/>
<polygon fill="midnightblue" stroke="midnightblue" points="510.74,-603.92 521.33,-603.48 512.78,-597.22 510.74,-603.92"/>
</g>
<!-- Node32 -->
<g id="node32" class="node">
<title>Node32</title>
<g id="a_node32"><a xlink:href="_perspective_camera_8h.html" target="_top" xlink:title="Defines the PerspectiveCamera class.">
<polygon fill="white" stroke="black" points="577,-536.5 577,-566.5 704,-566.5 704,-536.5 577,-536.5"/>
<text text-anchor="start" x="585" y="-554.5" font-family="Helvetica,sans-Serif" font-size="10.00">D:/PathTracer/PathTracer</text>
<text text-anchor="middle" x="640.5" y="-543.5" font-family="Helvetica,sans-Serif" font-size="10.00">/PerspectiveCamera.h</text>
</a>
</g>
</g>
<!-- Node11&#45;&gt;Node32 -->
<g id="edge37" class="edge">
<title>Node11&#45;&gt;Node32</title>
<path fill="none" stroke="midnightblue" d="M590.97,-596.6C602,-586.78 614.84,-575.34 624.69,-566.58"/>
<polygon fill="midnightblue" stroke="midnightblue" points="588.48,-594.13 583.34,-603.4 593.14,-599.36 588.48,-594.13"/>
</g>
<!-- Node34 -->
<g id="node34" class="node">
<title>Node34</title>
<g id="a_node34"><a xlink:href="_ray_8cpp.html" target="_top" xlink:title=" ">
<polygon fill="white" stroke="black" points="722,-536.5 722,-566.5 849,-566.5 849,-536.5 722,-536.5"/>
<text text-anchor="start" x="730" y="-554.5" font-family="Helvetica,sans-Serif" font-size="10.00">D:/PathTracer/PathTracer</text>
<text text-anchor="middle" x="785.5" y="-543.5" font-family="Helvetica,sans-Serif" font-size="10.00">/Ray.cpp</text>
</a>
</g>
</g>
<!-- Node11&#45;&gt;Node34 -->
<g id="edge40" class="edge">
<title>Node11&#45;&gt;Node34</title>
<path fill="none" stroke="midnightblue" d="M624.25,-600.58C659.66,-590.02 704.7,-576.59 738.17,-566.61"/>
<polygon fill="midnightblue" stroke="midnightblue" points="623.12,-597.26 614.53,-603.48 625.12,-603.97 623.12,-597.26"/>
</g>
<!-- Node13 -->
<g id="node13" class="node">
<title>Node13</title>
<g id="a_node13"><a xlink:href="_diffuse_material_8h.html" target="_top" xlink:title="Defines the DiffuseMaterial class.">
<polygon fill="white" stroke="black" points="507,-469.5 507,-499.5 634,-499.5 634,-469.5 507,-469.5"/>
<text text-anchor="start" x="515" y="-487.5" font-family="Helvetica,sans-Serif" font-size="10.00">D:/PathTracer/PathTracer</text>
<text text-anchor="middle" x="570.5" y="-476.5" font-family="Helvetica,sans-Serif" font-size="10.00">/DiffuseMaterial.h</text>
</a>
</g>
</g>
<!-- Node12&#45;&gt;Node13 -->
<g id="edge12" class="edge">
<title>Node12&#45;&gt;Node13</title>
<path fill="none" stroke="midnightblue" d="M409.99,-533.58C445.23,-523.02 490.07,-509.59 523.39,-499.61"/>
<polygon fill="midnightblue" stroke="midnightblue" points="408.89,-530.25 400.32,-536.48 410.9,-536.96 408.89,-530.25"/>
</g>
<!-- Node27 -->
<g id="node27" class="node">
<title>Node27</title>
<g id="a_node27"><a xlink:href="_material_8cpp.html" target="_top" xlink:title=" ">
<polygon fill="white" stroke="black" points="0,-469.5 0,-499.5 127,-499.5 127,-469.5 0,-469.5"/>
<text text-anchor="start" x="8" y="-487.5" font-family="Helvetica,sans-Serif" font-size="10.00">D:/PathTracer/PathTracer</text>
<text text-anchor="middle" x="63.5" y="-476.5" font-family="Helvetica,sans-Serif" font-size="10.00">/Material.cpp</text>
</a>
</g>
</g>
<!-- Node12&#45;&gt;Node27 -->
<g id="edge30" class="edge">
<title>Node12&#45;&gt;Node27</title>
<path fill="none" stroke="midnightblue" d="M281.01,-534.25C233.48,-523.6 171.94,-509.81 126.46,-499.61"/>
<polygon fill="midnightblue" stroke="midnightblue" points="280.41,-537.7 290.93,-536.48 281.94,-530.87 280.41,-537.7"/>
</g>
<!-- Node28 -->
<g id="node28" class="node">
<title>Node28</title>
<g id="a_node28"><a xlink:href="_refractive_material_8h.html" target="_top" xlink:title="Defines the RefractiveMaterial class.">
<polygon fill="white" stroke="black" points="290,-469.5 290,-499.5 417,-499.5 417,-469.5 290,-469.5"/>
<text text-anchor="start" x="298" y="-487.5" font-family="Helvetica,sans-Serif" font-size="10.00">D:/PathTracer/PathTracer</text>
<text text-anchor="middle" x="353.5" y="-476.5" font-family="Helvetica,sans-Serif" font-size="10.00">/RefractiveMaterial.h</text>
</a>
</g>
</g>
<!-- Node12&#45;&gt;Node28 -->
<g id="edge31" class="edge">
<title>Node12&#45;&gt;Node28</title>
<path fill="none" stroke="midnightblue" d="M353.5,-526.11C353.5,-517.15 353.5,-507.32 353.5,-499.58"/>
<polygon fill="midnightblue" stroke="midnightblue" points="350,-526.4 353.5,-536.4 357,-526.4 350,-526.4"/>
</g>
<!-- Node30 -->
<g id="node30" class="node">
<title>Node30</title>
<g id="a_node30"><a xlink:href="_specular_material_8h.html" target="_top" xlink:title="Defines the SpecularMaterial class.">
<polygon fill="white" stroke="black" points="145,-469.5 145,-499.5 272,-499.5 272,-469.5 145,-469.5"/>
<text text-anchor="start" x="153" y="-487.5" font-family="Helvetica,sans-Serif" font-size="10.00">D:/PathTracer/PathTracer</text>
<text text-anchor="middle" x="208.5" y="-476.5" font-family="Helvetica,sans-Serif" font-size="10.00">/SpecularMaterial.h</text>
</a>
</g>
</g>
<!-- Node12&#45;&gt;Node30 -->
<g id="edge34" class="edge">
<title>Node12&#45;&gt;Node30</title>
<path fill="none" stroke="midnightblue" d="M312.83,-532.27C289.74,-521.92 261.26,-509.15 239.9,-499.58"/>
<polygon fill="midnightblue" stroke="midnightblue" points="311.48,-535.5 322.04,-536.4 314.34,-529.11 311.48,-535.5"/>
</g>
<!-- Node14 -->
<g id="node14" class="node">
<title>Node14</title>
<g id="a_node14"><a xlink:href="_diffuse_material_8cpp.html" target="_top" xlink:title=" ">
<polygon fill="white" stroke="black" points="427,-402.5 427,-432.5 554,-432.5 554,-402.5 427,-402.5"/>
<text text-anchor="start" x="435" y="-420.5" font-family="Helvetica,sans-Serif" font-size="10.00">D:/PathTracer/PathTracer</text>
<text text-anchor="middle" x="490.5" y="-409.5" font-family="Helvetica,sans-Serif" font-size="10.00">/DiffuseMaterial.cpp</text>
</a>
</g>
</g>
<!-- Node13&#45;&gt;Node14 -->
<g id="edge13" class="edge">
<title>Node13&#45;&gt;Node14</title>
<path fill="none" stroke="midnightblue" d="M545.13,-462.88C532.97,-453.01 518.72,-441.43 507.82,-432.58"/>
<polygon fill="midnightblue" stroke="midnightblue" points="543.17,-465.81 553.14,-469.4 547.59,-460.37 543.17,-465.81"/>
</g>
<!-- Node15 -->
<g id="node15" class="node">
<title>Node15</title>
<g id="a_node15"><a xlink:href="_interface_creation_8h.html" target="_top" xlink:title="Defines functions that are used to interactively create 3D objects and materials.">
<polygon fill="white" stroke="black" points="282,-268.5 282,-298.5 409,-298.5 409,-268.5 282,-268.5"/>
<text text-anchor="start" x="290" y="-286.5" font-family="Helvetica,sans-Serif" font-size="10.00">D:/PathTracer/PathTracer</text>
<text text-anchor="middle" x="345.5" y="-275.5" font-family="Helvetica,sans-Serif" font-size="10.00">/InterfaceCreation.h</text>
</a>
</g>
</g>
<!-- Node13&#45;&gt;Node15 -->
<g id="edge14" class="edge">
<title>Node13&#45;&gt;Node15</title>
<path fill="none" stroke="midnightblue" d="M644.2,-473.49C668.41,-466.31 692.85,-454.02 707.5,-433 732.41,-397.27 736.34,-367.64 707.5,-335 664.5,-286.33 481.6,-309.42 417.5,-299 414.73,-298.55 411.91,-298.07 409.06,-297.57"/>
<polygon fill="midnightblue" stroke="midnightblue" points="642.97,-470.2 634.23,-476.18 644.79,-476.96 642.97,-470.2"/>
</g>
<!-- Node21 -->
<g id="node21" class="node">
<title>Node21</title>
<g id="a_node21"><a xlink:href="_object3_d_8h.html" target="_top" xlink:title="Defines the Object3D class and the functions around it.">
<polygon fill="white" stroke="black" points="572,-402.5 572,-432.5 699,-432.5 699,-402.5 572,-402.5"/>
<text text-anchor="start" x="580" y="-420.5" font-family="Helvetica,sans-Serif" font-size="10.00">D:/PathTracer/PathTracer</text>
<text text-anchor="middle" x="635.5" y="-409.5" font-family="Helvetica,sans-Serif" font-size="10.00">/Object3D.h</text>
</a>
</g>
</g>
<!-- Node13&#45;&gt;Node21 -->
<g id="edge22" class="edge">
<title>Node13&#45;&gt;Node21</title>
<path fill="none" stroke="midnightblue" d="M591.69,-462.31C601.44,-452.56 612.74,-441.26 621.42,-432.58"/>
<polygon fill="midnightblue" stroke="midnightblue" points="589.2,-459.85 584.6,-469.4 594.15,-464.8 589.2,-459.85"/>
</g>
<!-- Node16 -->
<g id="node16" class="node">
<title>Node16</title>
<g id="a_node16"><a xlink:href="_interface_creation_8cpp.html" target="_top" xlink:title=" ">
<polygon fill="white" stroke="black" points="572,-201.5 572,-231.5 699,-231.5 699,-201.5 572,-201.5"/>
<text text-anchor="start" x="580" y="-219.5" font-family="Helvetica,sans-Serif" font-size="10.00">D:/PathTracer/PathTracer</text>
<text text-anchor="middle" x="635.5" y="-208.5" font-family="Helvetica,sans-Serif" font-size="10.00">/InterfaceCreation.cpp</text>
</a>
</g>
</g>
<!-- Node15&#45;&gt;Node16 -->
<g id="edge15" class="edge">
<title>Node15&#45;&gt;Node16</title>
<path fill="none" stroke="midnightblue" d="M417.99,-266.25C465.52,-255.6 527.06,-241.81 572.54,-231.61"/>
<polygon fill="midnightblue" stroke="midnightblue" points="417.06,-262.87 408.07,-268.48 418.59,-269.7 417.06,-262.87"/>
</g>
<!-- Node17 -->
<g id="node17" class="node">
<title>Node17</title>
<g id="a_node17"><a xlink:href="_k_d_tree_node_8h.html" target="_top" xlink:title="Defines the KDTreeNode class and the functions around it.">
<polygon fill="white" stroke="black" points="282,-201.5 282,-231.5 409,-231.5 409,-201.5 282,-201.5"/>
<text text-anchor="start" x="290" y="-219.5" font-family="Helvetica,sans-Serif" font-size="10.00">D:/PathTracer/PathTracer</text>
<text text-anchor="middle" x="345.5" y="-208.5" font-family="Helvetica,sans-Serif" font-size="10.00">/KDTreeNode.h</text>
</a>
</g>
</g>
<!-- Node15&#45;&gt;Node17 -->
<g id="edge16" class="edge">
<title>Node15&#45;&gt;Node17</title>
<path fill="none" stroke="midnightblue" d="M345.5,-258.11C345.5,-249.15 345.5,-239.32 345.5,-231.58"/>
<polygon fill="midnightblue" stroke="midnightblue" points="342,-258.4 345.5,-268.4 349,-258.4 342,-258.4"/>
</g>
<!-- Node19 -->
<g id="node19" class="node">
<title>Node19</title>
<g id="a_node19"><a xlink:href="_object3_d_group_8h.html" target="_top" xlink:title="Defines the Object3DGroup class and the functions around it.">
<polygon fill="white" stroke="black" points="427,-201.5 427,-231.5 554,-231.5 554,-201.5 427,-201.5"/>
<text text-anchor="start" x="435" y="-219.5" font-family="Helvetica,sans-Serif" font-size="10.00">D:/PathTracer/PathTracer</text>
<text text-anchor="middle" x="490.5" y="-208.5" font-family="Helvetica,sans-Serif" font-size="10.00">/Object3DGroup.h</text>
</a>
</g>
</g>
<!-- Node15&#45;&gt;Node19 -->
<g id="edge19" class="edge">
<title>Node15&#45;&gt;Node19</title>
<path fill="none" stroke="midnightblue" d="M386.17,-264.27C409.26,-253.92 437.74,-241.15 459.1,-231.58"/>
<polygon fill="midnightblue" stroke="midnightblue" points="384.66,-261.11 376.96,-268.4 387.52,-267.5 384.66,-261.11"/>
</g>
<!-- Node17&#45;&gt;Node4 -->
<g id="edge18" class="edge">
<title>Node17&#45;&gt;Node4</title>
<path fill="none" stroke="midnightblue" d="M419.16,-200.76C523.63,-182.88 634.11,-167.61 701.83,-158.68"/>
<polygon fill="midnightblue" stroke="midnightblue" points="418.33,-197.35 409.07,-202.5 419.52,-204.25 418.33,-197.35"/>
</g>
<!-- Node18 -->
<g id="node18" class="node">
<title>Node18</title>
<g id="a_node18"><a xlink:href="_k_d_tree_node_8cpp.html" target="_top" xlink:title=" ">
<polygon fill="white" stroke="black" points="282,-134.5 282,-164.5 409,-164.5 409,-134.5 282,-134.5"/>
<text text-anchor="start" x="290" y="-152.5" font-family="Helvetica,sans-Serif" font-size="10.00">D:/PathTracer/PathTracer</text>
<text text-anchor="middle" x="345.5" y="-141.5" font-family="Helvetica,sans-Serif" font-size="10.00">/KDTreeNode.cpp</text>
</a>
</g>
</g>
<!-- Node17&#45;&gt;Node18 -->
<g id="edge17" class="edge">
<title>Node17&#45;&gt;Node18</title>
<path fill="none" stroke="midnightblue" d="M345.5,-191.11C345.5,-182.15 345.5,-172.32 345.5,-164.58"/>
<polygon fill="midnightblue" stroke="midnightblue" points="342,-191.4 345.5,-201.4 349,-191.4 342,-191.4"/>
</g>
<!-- Node19&#45;&gt;Node4 -->
<g id="edge21" class="edge">
<title>Node19&#45;&gt;Node4</title>
<path fill="none" stroke="midnightblue" d="M559.81,-199.12C604.8,-188.48 662.85,-174.76 705.8,-164.61"/>
<polygon fill="midnightblue" stroke="midnightblue" points="558.76,-195.77 549.83,-201.48 560.37,-202.58 558.76,-195.77"/>
</g>
<!-- Node20 -->
<g id="node20" class="node">
<title>Node20</title>
<g id="a_node20"><a xlink:href="_object3_d_group_8cpp.html" target="_top" xlink:title=" ">
<polygon fill="white" stroke="black" points="427,-134.5 427,-164.5 554,-164.5 554,-134.5 427,-134.5"/>
<text text-anchor="start" x="435" y="-152.5" font-family="Helvetica,sans-Serif" font-size="10.00">D:/PathTracer/PathTracer</text>
<text text-anchor="middle" x="490.5" y="-141.5" font-family="Helvetica,sans-Serif" font-size="10.00">/Object3DGroup.cpp</text>
</a>
</g>
</g>
<!-- Node19&#45;&gt;Node20 -->
<g id="edge20" class="edge">
<title>Node19&#45;&gt;Node20</title>
<path fill="none" stroke="midnightblue" d="M490.5,-191.11C490.5,-182.15 490.5,-172.32 490.5,-164.58"/>
<polygon fill="midnightblue" stroke="midnightblue" points="487,-191.4 490.5,-201.4 494,-191.4 487,-191.4"/>
</g>
<!-- Node22 -->
<g id="node22" class="node">
<title>Node22</title>
<g id="a_node22"><a xlink:href="_object3_d_8cpp.html" target="_top" xlink:title=" ">
<polygon fill="white" stroke="black" points="427,-335.5 427,-365.5 554,-365.5 554,-335.5 427,-335.5"/>
<text text-anchor="start" x="435" y="-353.5" font-family="Helvetica,sans-Serif" font-size="10.00">D:/PathTracer/PathTracer</text>
<text text-anchor="middle" x="490.5" y="-342.5" font-family="Helvetica,sans-Serif" font-size="10.00">/Object3D.cpp</text>
</a>
</g>
</g>
<!-- Node21&#45;&gt;Node22 -->
<g id="edge23" class="edge">
<title>Node21&#45;&gt;Node22</title>
<path fill="none" stroke="midnightblue" d="M594.83,-398.27C571.74,-387.92 543.26,-375.15 521.9,-365.58"/>
<polygon fill="midnightblue" stroke="midnightblue" points="593.48,-401.5 604.04,-402.4 596.34,-395.11 593.48,-401.5"/>
</g>
<!-- Node23 -->
<g id="node23" class="node">
<title>Node23</title>
<g id="a_node23"><a xlink:href="_sphere_8h.html" target="_top" xlink:title="Defines the Sphere class.">
<polygon fill="white" stroke="black" points="572,-335.5 572,-365.5 699,-365.5 699,-335.5 572,-335.5"/>
<text text-anchor="start" x="580" y="-353.5" font-family="Helvetica,sans-Serif" font-size="10.00">D:/PathTracer/PathTracer</text>
<text text-anchor="middle" x="635.5" y="-342.5" font-family="Helvetica,sans-Serif" font-size="10.00">/Sphere.h</text>
</a>
</g>
</g>
<!-- Node21&#45;&gt;Node23 -->
<g id="edge24" class="edge">
<title>Node21&#45;&gt;Node23</title>
<path fill="none" stroke="midnightblue" d="M635.5,-392.11C635.5,-383.15 635.5,-373.32 635.5,-365.58"/>
<polygon fill="midnightblue" stroke="midnightblue" points="632,-392.4 635.5,-402.4 639,-392.4 632,-392.4"/>
</g>
<!-- Node25 -->
<g id="node25" class="node">
<title>Node25</title>
<g id="a_node25"><a xlink:href="_triangle_8h.html" target="_top" xlink:title="Defines the Triangle class.">
<polygon fill="white" stroke="black" points="282,-335.5 282,-365.5 409,-365.5 409,-335.5 282,-335.5"/>
<text text-anchor="start" x="290" y="-353.5" font-family="Helvetica,sans-Serif" font-size="10.00">D:/PathTracer/PathTracer</text>
<text text-anchor="middle" x="345.5" y="-342.5" font-family="Helvetica,sans-Serif" font-size="10.00">/Triangle.h</text>
</a>
</g>
</g>
<!-- Node21&#45;&gt;Node25 -->
<g id="edge27" class="edge">
<title>Node21&#45;&gt;Node25</title>
<path fill="none" stroke="midnightblue" d="M563.01,-400.25C515.48,-389.6 453.94,-375.81 408.46,-365.61"/>
<polygon fill="midnightblue" stroke="midnightblue" points="562.41,-403.7 572.93,-402.48 563.94,-396.87 562.41,-403.7"/>
</g>
<!-- Node23&#45;&gt;Node15 -->
<g id="edge25" class="edge">
<title>Node23&#45;&gt;Node15</title>
<path fill="none" stroke="midnightblue" d="M563.01,-333.25C515.48,-322.6 453.94,-308.81 408.46,-298.61"/>
<polygon fill="midnightblue" stroke="midnightblue" points="562.41,-336.7 572.93,-335.48 563.94,-329.87 562.41,-336.7"/>
</g>
<!-- Node24 -->
<g id="node24" class="node">
<title>Node24</title>
<g id="a_node24"><a xlink:href="_sphere_8cpp.html" target="_top" xlink:title=" ">
<polygon fill="white" stroke="black" points="572,-268.5 572,-298.5 699,-298.5 699,-268.5 572,-268.5"/>
<text text-anchor="start" x="580" y="-286.5" font-family="Helvetica,sans-Serif" font-size="10.00">D:/PathTracer/PathTracer</text>
<text text-anchor="middle" x="635.5" y="-275.5" font-family="Helvetica,sans-Serif" font-size="10.00">/Sphere.cpp</text>
</a>
</g>
</g>
<!-- Node23&#45;&gt;Node24 -->
<g id="edge26" class="edge">
<title>Node23&#45;&gt;Node24</title>
<path fill="none" stroke="midnightblue" d="M635.5,-325.11C635.5,-316.15 635.5,-306.32 635.5,-298.58"/>
<polygon fill="midnightblue" stroke="midnightblue" points="632,-325.4 635.5,-335.4 639,-325.4 632,-325.4"/>
</g>
<!-- Node25&#45;&gt;Node15 -->
<g id="edge28" class="edge">
<title>Node25&#45;&gt;Node15</title>
<path fill="none" stroke="midnightblue" d="M345.5,-325.11C345.5,-316.15 345.5,-306.32 345.5,-298.58"/>
<polygon fill="midnightblue" stroke="midnightblue" points="342,-325.4 345.5,-335.4 349,-325.4 342,-325.4"/>
</g>
<!-- Node26 -->
<g id="node26" class="node">
<title>Node26</title>
<g id="a_node26"><a xlink:href="_triangle_8cpp.html" target="_top" xlink:title=" ">
<polygon fill="white" stroke="black" points="427,-268.5 427,-298.5 554,-298.5 554,-268.5 427,-268.5"/>
<text text-anchor="start" x="435" y="-286.5" font-family="Helvetica,sans-Serif" font-size="10.00">D:/PathTracer/PathTracer</text>
<text text-anchor="middle" x="490.5" y="-275.5" font-family="Helvetica,sans-Serif" font-size="10.00">/Triangle.cpp</text>
</a>
</g>
</g>
<!-- Node25&#45;&gt;Node26 -->
<g id="edge29" class="edge">
<title>Node25&#45;&gt;Node26</title>
<path fill="none" stroke="midnightblue" d="M386.17,-331.27C409.26,-320.92 437.74,-308.15 459.1,-298.58"/>
<polygon fill="midnightblue" stroke="midnightblue" points="384.66,-328.11 376.96,-335.4 387.52,-334.5 384.66,-328.11"/>
</g>
<!-- Node28&#45;&gt;Node15 -->
<g id="edge32" class="edge">
<title>Node28&#45;&gt;Node15</title>
<path fill="none" stroke="midnightblue" d="M305.74,-464.45C292.61,-456.74 279.95,-446.42 272.5,-433 251.36,-394.92 252.28,-373.58 272.5,-335 280.94,-318.89 297.11,-306.91 312.09,-298.66"/>
<polygon fill="midnightblue" stroke="midnightblue" points="304.38,-467.69 314.84,-469.37 307.71,-461.54 304.38,-467.69"/>
</g>
<!-- Node29 -->
<g id="node29" class="node">
<title>Node29</title>
<g id="a_node29"><a xlink:href="_refractive_material_8cpp.html" target="_top" xlink:title=" ">
<polygon fill="white" stroke="black" points="282,-402.5 282,-432.5 409,-432.5 409,-402.5 282,-402.5"/>
<text text-anchor="start" x="290" y="-420.5" font-family="Helvetica,sans-Serif" font-size="10.00">D:/PathTracer/PathTracer</text>
<text text-anchor="middle" x="345.5" y="-409.5" font-family="Helvetica,sans-Serif" font-size="10.00">/RefractiveMaterial.cpp</text>
</a>
</g>
</g>
<!-- Node28&#45;&gt;Node29 -->
<g id="edge33" class="edge">
<title>Node28&#45;&gt;Node29</title>
<path fill="none" stroke="midnightblue" d="M350.53,-459.4C349.42,-450.37 348.2,-440.41 347.23,-432.58"/>
<polygon fill="midnightblue" stroke="midnightblue" points="347.07,-459.9 351.76,-469.4 354.02,-459.04 347.07,-459.9"/>
</g>
<!-- Node30&#45;&gt;Node15 -->
<g id="edge35" class="edge">
<title>Node30&#45;&gt;Node15</title>
<path fill="none" stroke="midnightblue" d="M210.92,-459.04C215.19,-427.29 226.65,-371.64 256.5,-335 269.74,-318.75 289.68,-306.75 307.34,-298.53"/>
<polygon fill="midnightblue" stroke="midnightblue" points="207.42,-458.85 209.69,-469.2 214.37,-459.69 207.42,-458.85"/>
</g>
<!-- Node31 -->
<g id="node31" class="node">
<title>Node31</title>
<g id="a_node31"><a xlink:href="_specular_material_8cpp.html" target="_top" xlink:title=" ">
<polygon fill="white" stroke="black" points="60,-402.5 60,-432.5 187,-432.5 187,-402.5 60,-402.5"/>
<text text-anchor="start" x="68" y="-420.5" font-family="Helvetica,sans-Serif" font-size="10.00">D:/PathTracer/PathTracer</text>
<text text-anchor="middle" x="123.5" y="-409.5" font-family="Helvetica,sans-Serif" font-size="10.00">/SpecularMaterial.cpp</text>
</a>
</g>
</g>
<!-- Node30&#45;&gt;Node31 -->
<g id="edge36" class="edge">
<title>Node30&#45;&gt;Node31</title>
<path fill="none" stroke="midnightblue" d="M181.91,-463.17C168.91,-453.23 153.6,-441.51 141.91,-432.58"/>
<polygon fill="midnightblue" stroke="midnightblue" points="179.99,-466.1 190.06,-469.4 184.24,-460.54 179.99,-466.1"/>
</g>
<!-- Node32&#45;&gt;Node4 -->
<g id="edge39" class="edge">
<title>Node32&#45;&gt;Node4</title>
<path fill="none" stroke="midnightblue" d="M678.2,-531.15C715,-509.25 765.5,-469.85 765.5,-418.5 765.5,-418.5 765.5,-418.5 765.5,-282.5 765.5,-239.65 765.5,-188.97 765.5,-164.76"/>
<polygon fill="midnightblue" stroke="midnightblue" points="676.1,-528.32 669.18,-536.33 679.59,-534.38 676.1,-528.32"/>
</g>
<!-- Node33 -->
<g id="node33" class="node">
<title>Node33</title>
<g id="a_node33"><a xlink:href="_perspective_camera_8cpp.html" target="_top" xlink:title=" ">
<polygon fill="white" stroke="black" points="794,-469.5 794,-499.5 921,-499.5 921,-469.5 794,-469.5"/>
<text text-anchor="start" x="802" y="-487.5" font-family="Helvetica,sans-Serif" font-size="10.00">D:/PathTracer/PathTracer</text>
<text text-anchor="middle" x="857.5" y="-476.5" font-family="Helvetica,sans-Serif" font-size="10.00">/PerspectiveCamera.cpp</text>
</a>
</g>
</g>
<!-- Node32&#45;&gt;Node33 -->
<g id="edge38" class="edge">
<title>Node32&#45;&gt;Node33</title>
<path fill="none" stroke="midnightblue" d="M696.99,-533.58C732.23,-523.02 777.07,-509.59 810.39,-499.61"/>
<polygon fill="midnightblue" stroke="midnightblue" points="695.89,-530.25 687.32,-536.48 697.9,-536.96 695.89,-530.25"/>
</g>
<!-- Node36&#45;&gt;Node4 -->
<g id="edge44" class="edge">
<title>Node36&#45;&gt;Node4</title>
<path fill="none" stroke="midnightblue" d="M998.11,-660.44C993.68,-634.05 987.5,-590.41 987.5,-552.5 987.5,-552.5 987.5,-552.5 987.5,-282.5 987.5,-208.29 894.72,-174.86 829.12,-160.5"/>
<polygon fill="midnightblue" stroke="midnightblue" points="994.66,-661.05 999.82,-670.3 1001.56,-659.85 994.66,-661.05"/>
</g>
<!-- Node37 -->
<g id="node37" class="node">
<title>Node37</title>
<g id="a_node37"><a xlink:href="_picture_8cpp.html" target="_top" xlink:title=" ">
<polygon fill="white" stroke="black" points="1016,-603.5 1016,-633.5 1143,-633.5 1143,-603.5 1016,-603.5"/>
<text text-anchor="start" x="1024" y="-621.5" font-family="Helvetica,sans-Serif" font-size="10.00">D:/PathTracer/PathTracer</text>
<text text-anchor="middle" x="1079.5" y="-610.5" font-family="Helvetica,sans-Serif" font-size="10.00">/Picture.cpp</text>
</a>
</g>
</g>
<!-- Node36&#45;&gt;Node37 -->
<g id="edge43" class="edge">
<title>Node36&#45;&gt;Node37</title>
<path fill="none" stroke="midnightblue" d="M1026.92,-663.88C1038.62,-654.01 1052.34,-642.43 1062.82,-633.58"/>
<polygon fill="midnightblue" stroke="midnightblue" points="1024.59,-661.27 1019.21,-670.4 1029.11,-666.62 1024.59,-661.27"/>
</g>
</g>
</svg>
        <g id="navigator" transform="translate(0 0)" fill="#404254">
                <rect fill="#f2f5e9" fill-opacity="0.5" stroke="#606060" stroke-width=".5" x="0" y="0" width="60" height="60"/>
                <use id="zoomplus" xlink:href="#zoomPlus" x="17" y="9" onmousedown="handleZoom(evt,'in')"/>
                <use id="zoomminus" xlink:href="#zoomMin" x="42" y="9" onmousedown="handleZoom(evt,'out')"/>
                <use id="reset" xlink:href="#resetDef" x="30" y="36" onmousedown="handleReset()"/>
                <g id="arrowUp" xlink:href="#dirArrow" transform="translate(30 24)" onmousedown="handlePan(0,-1)">
                  <use xlink:href="#rim" fill="#404040">
                        <set attributeName="fill" to="#808080" begin="arrowUp.mouseover" end="arrowUp.mouseout"/>
                  </use>
                  <path fill="none" stroke="white" stroke-width="1.5" d="M0,-3.0v7 M-2.5,-0.5L0,-3.0L2.5,-0.5"/>
                </g>
                <g id="arrowRight" xlink:href="#dirArrow" transform="rotate(90) translate(36 -43)" onmousedown="handlePan(1,0)">
                  <use xlink:href="#rim" fill="#404040">
                        <set attributeName="fill" to="#808080" begin="arrowRight.mouseover" end="arrowRight.mouseout"/>
                  </use>
                  <path fill="none" stroke="white" stroke-width="1.5" d="M0,-3.0v7 M-2.5,-0.5L0,-3.0L2.5,-0.5"/>
                </g>
                <g id="arrowDown" xlink:href="#dirArrow" transform="rotate(180) translate(-30 -48)" onmousedown="handlePan(0,1)">
                  <use xlink:href="#rim" fill="#404040">
                        <set attributeName="fill" to="#808080" begin="arrowDown.mouseover" end="arrowDown.mouseout"/>
                  </use>
                  <path fill="none" stroke="white" stroke-width="1.5" d="M0,-3.0v7 M-2.5,-0.5L0,-3.0L2.5,-0.5"/>
                </g>
                <g id="arrowLeft" xlink:href="#dirArrow" transform="rotate(270) translate(-36 17)" onmousedown="handlePan(-1,0)">
                  <use xlink:href="#rim" fill="#404040">
                        <set attributeName="fill" to="#808080" begin="arrowLeft.mouseover" end="arrowLeft.mouseout"/>
                  </use>
                  <path fill="none" stroke="white" stroke-width="1.5" d="M0,-3.0v7 M-2.5,-0.5L0,-3.0L2.5,-0.5"/>
                </g>
        </g>
        <svg viewBox="0 0 15 15" width="100%" height="30px" preserveAspectRatio="xMaxYMin meet">
         <g id="arrow_out" transform="scale(0.3 0.3)">
          <a xlink:href="_double_vec3_d_8h__dep__incl_org.svg" target="_base">
           <rect id="button" ry="5" rx="5" y="6" x="6" height="38" width="38"
                fill="#f2f5e9" fill-opacity="0.5" stroke="#606060" stroke-width="1.0"/>
           <path id="arrow"
             d="M 11.500037,31.436501 C 11.940474,20.09759 22.043105,11.32322 32.158766,21.979434 L 37.068811,17.246167 C 37.068811,17.246167 37.088388,32 37.088388,32 L 22.160133,31.978069 C 22.160133,31.978069 26.997745,27.140456 26.997745,27.140456 C 18.528582,18.264221 13.291696,25.230495 11.500037,31.436501 z"
             style="fill:#404040;"/>
          </a>
         </g>
        </svg>
</svg>
