<?xml version="1.0" encoding="UTF-8" standalone="no"?>
<!DOCTYPE svg PUBLIC "-//W3C//DTD SVG 1.1//EN"
 "http://www.w3.org/Graphics/SVG/1.1/DTD/svg11.dtd">
<!-- Generated by graphviz version 2.44.1 (20200629.0800)
 -->
<!-- Title: D:/PathTracer/PathTracer/DoubleVec3D.h Pages: 1 -->
<!--zoomable 776 -->
<svg id="main" version="1.1" xmlns="http://www.w3.org/2000/svg" xmlns:xlink="http://www.w3.org/1999/xlink" xml:space="preserve" onload="init(evt)">
<style type="text/css"><![CDATA[
.edge:hover path { stroke: red; }
.edge:hover polygon { stroke: red; fill: red; }
]]></style>
<script type="text/javascript"><![CDATA[
var edges = document.getElementsByTagName('g');
if (edges && edges.length) {
  for (var i=0;i<edges.length;i++) {
    if (edges[i].id.substr(0,4)=='edge') {
      edges[i].setAttribute('class','edge');
    }
  }
}
]]></script>
        <defs>
                <circle id="rim" cx="0" cy="0" r="7"/>
                <circle id="rim2" cx="0" cy="0" r="3.5"/>
                <g id="zoomPlus">
                        <use xlink:href="#rim" fill="#404040">
                                <set attributeName="fill" to="#808080" begin="zoomplus.mouseover" end="zoomplus.mouseout"/>
                        </use>
                        <path d="M-4,0h8M0,-4v8" fill="none" stroke="white" stroke-width="1.5" pointer-events="none"/>
                </g>
                <g id="zoomMin">
                        <use xlink:href="#rim" fill="#404040">
                                <set attributeName="fill" to="#808080" begin="zoomminus.mouseover" end="zoomminus.mouseout"/>
                        </use>
                        <path d="M-4,0h8" fill="none" stroke="white" stroke-width="1.5" pointer-events="none"/>
                </g>
                <g id="dirArrow">
                        <path fill="none" stroke="white" stroke-width="1.5" d="M0,-3.0v7 M-2.5,-0.5L0,-3.0L2.5,-0.5"/>
                </g>
               <g id="resetDef">
                       <use xlink:href="#rim2" fill="#404040">
                               <set attributeName="fill" to="#808080" begin="reset.mouseover" end="reset.mouseout"/>
                       </use>
               </g>
        </defs>

<script type="text/javascript">
var viewWidth = 1225;
var viewHeight = 776;
var sectionId = 'dynsection-1';
</script>
<script xlink:href="svgpan.js"/>
<svg id="graph" class="graph">
<g id="viewport">
<title>D:/PathTracer/PathTracer/DoubleVec3D.h</title>
<polygon fill="white" stroke="transparent" points="-4,4 -4,-772 1221,-772 1221,4 -4,4"/>
<!-- Node1 -->
<g id="node1" class="node">
<title>Node1</title>
<g id="a_node1"><a xlink:title="Defines the DoubleVec3D class and some functions around it.">
<polygon fill="#bfbfbf" stroke="black" points="230,-737.5 230,-767.5 357,-767.5 357,-737.5 230,-737.5"/>
<text text-anchor="start" x="238" y="-755.5" font-family="Helvetica,sans-Serif" font-size="10.00">D:/PathTracer/PathTracer</text>
<text text-anchor="middle" x="293.5" y="-744.5" font-family="Helvetica,sans-Serif" font-size="10.00">/DoubleVec3D.h</text>
</a>
</g>
</g>
<!-- Node2 -->
<g id="node2" class="node">
<title>Node2</title>
<g id="a_node2"><a xlink:href="_double_matrix33_8h.html" target="_top" xlink:title="Defines the DoubleMatrix33 class and some functions around it.">
<polygon fill="white" stroke="black" points="92,-670.5 92,-700.5 219,-700.5 219,-670.5 92,-670.5"/>
<text text-anchor="start" x="100" y="-688.5" font-family="Helvetica,sans-Serif" font-size="10.00">D:/PathTracer/PathTracer</text>
<text text-anchor="middle" x="155.5" y="-677.5" font-family="Helvetica,sans-Serif" font-size="10.00">/DoubleMatrix33.h</text>
</a>
</g>
</g>
<!-- Node1&#45;&gt;Node2 -->
<g id="edge1" class="edge">
<title>Node1&#45;&gt;Node2</title>
<path fill="none" stroke="midnightblue" d="M254.5,-733.13C232.57,-722.8 205.63,-710.11 185.39,-700.58"/>
<polygon fill="midnightblue" stroke="midnightblue" points="253.02,-736.3 263.56,-737.4 256,-729.97 253.02,-736.3"/>
</g>
<!-- Node9 -->
<g id="node9" class="node">
<title>Node9</title>
<g id="a_node9"><a xlink:href="_double_unit_vec3_d_8h.html" target="_top" xlink:title="Defines the DoubleUnitVec3D class and some functions around it.">
<polygon fill="white" stroke="black" points="276,-670.5 276,-700.5 403,-700.5 403,-670.5 276,-670.5"/>
<text text-anchor="start" x="284" y="-688.5" font-family="Helvetica,sans-Serif" font-size="10.00">D:/PathTracer/PathTracer</text>
<text text-anchor="middle" x="339.5" y="-677.5" font-family="Helvetica,sans-Serif" font-size="10.00">/DoubleUnitVec3D.h</text>
</a>
</g>
</g>
<!-- Node1&#45;&gt;Node9 -->
<g id="edge8" class="edge">
<title>Node1&#45;&gt;Node9</title>
<path fill="none" stroke="midnightblue" d="M309.31,-729.16C316.02,-719.68 323.63,-708.92 329.54,-700.58"/>
<polygon fill="midnightblue" stroke="midnightblue" points="306.4,-727.21 303.48,-737.4 312.12,-731.26 306.4,-727.21"/>
</g>
<!-- Node11 -->
<g id="node11" class="node">
<title>Node11</title>
<g id="a_node11"><a xlink:href="_ray_8h.html" target="_top" xlink:title="Defines the Ray class.">
<polygon fill="white" stroke="black" points="230,-603.5 230,-633.5 357,-633.5 357,-603.5 230,-603.5"/>
<text text-anchor="start" x="238" y="-621.5" font-family="Helvetica,sans-Serif" font-size="10.00">D:/PathTracer/PathTracer</text>
<text text-anchor="middle" x="293.5" y="-610.5" font-family="Helvetica,sans-Serif" font-size="10.00">/Ray.h</text>
</a>
</g>
</g>
<!-- Node1&#45;&gt;Node11 -->
<g id="edge45" class="edge">
<title>Node1&#45;&gt;Node11</title>
<path fill="none" stroke="midnightblue" d="M278.16,-728.54C273.45,-720.23 268.89,-710.53 266.5,-701 263.15,-687.64 263.15,-683.36 266.5,-670 269.79,-656.88 277.2,-643.45 283.43,-633.74"/>
<polygon fill="midnightblue" stroke="midnightblue" points="275.26,-730.51 283.43,-737.26 281.25,-726.89 275.26,-730.51"/>
</g>
<!-- Node37 -->
<g id="node37" class="node">
<title>Node37</title>
<g id="a_node37"><a xlink:href="_double_vec3_d_8cpp.html" target="_top" xlink:title=" ">
<polygon fill="white" stroke="black" points="421,-670.5 421,-700.5 548,-700.5 548,-670.5 421,-670.5"/>
<text text-anchor="start" x="429" y="-688.5" font-family="Helvetica,sans-Serif" font-size="10.00">D:/PathTracer/PathTracer</text>
<text text-anchor="middle" x="484.5" y="-677.5" font-family="Helvetica,sans-Serif" font-size="10.00">/DoubleVec3D.cpp</text>
</a>
</g>
</g>
<!-- Node1&#45;&gt;Node37 -->
<g id="edge44" class="edge">
<title>Node1&#45;&gt;Node37</title>
<path fill="none" stroke="midnightblue" d="M344.65,-734.09C375.49,-723.6 414.25,-710.41 443.14,-700.58"/>
<polygon fill="midnightblue" stroke="midnightblue" points="343.28,-730.86 334.94,-737.4 345.54,-737.49 343.28,-730.86"/>
</g>
<!-- Node3 -->
<g id="node3" class="node">
<title>Node3</title>
<g id="a_node3"><a xlink:href="_double_matrix33_8cpp.html" target="_top" xlink:title=" ">
<polygon fill="white" stroke="black" points="0,-603.5 0,-633.5 127,-633.5 127,-603.5 0,-603.5"/>
<text text-anchor="start" x="8" y="-621.5" font-family="Helvetica,sans-Serif" font-size="10.00">D:/PathTracer/PathTracer</text>
<text text-anchor="middle" x="63.5" y="-610.5" font-family="Helvetica,sans-Serif" font-size="10.00">/DoubleMatrix33.cpp</text>
</a>
</g>
</g>
<!-- Node2&#45;&gt;Node3 -->
<g id="edge2" class="edge">
<title>Node2&#45;&gt;Node3</title>
<path fill="none" stroke="midnightblue" d="M127.12,-664.45C112.97,-654.45 96.19,-642.6 83.42,-633.58"/>
<polygon fill="midnightblue" stroke="midnightblue" points="125.35,-667.48 135.54,-670.4 129.39,-661.77 125.35,-667.48"/>
</g>
<!-- Node4 -->
<g id="node4" class="node">
<title>Node4</title>
<g id="a_node4"><a xlink:href="_scene_8h.html" target="_top" xlink:title="Defines the Scene class and some functions around it.">
<polygon fill="white" stroke="black" points="290,-134.5 290,-164.5 417,-164.5 417,-134.5 290,-134.5"/>
<text text-anchor="start" x="298" y="-152.5" font-family="Helvetica,sans-Serif" font-size="10.00">D:/PathTracer/PathTracer</text>
<text text-anchor="middle" x="353.5" y="-141.5" font-family="Helvetica,sans-Serif" font-size="10.00">/Scene.h</text>
</a>
</g>
</g>
<!-- Node2&#45;&gt;Node4 -->
<g id="edge3" class="edge">
<title>Node2&#45;&gt;Node4</title>
<path fill="none" stroke="midnightblue" d="M155.5,-659.99C155.5,-633.49 155.5,-590 155.5,-552.5 155.5,-552.5 155.5,-552.5 155.5,-282.5 155.5,-216.6 232.36,-181.58 290.31,-164.54"/>
<polygon fill="midnightblue" stroke="midnightblue" points="152,-660.24 155.5,-670.24 159,-660.24 152,-660.24"/>
</g>
<!-- Node5 -->
<g id="node5" class="node">
<title>Node5</title>
<g id="a_node5"><a xlink:href="_interface_8h.html" target="_top" xlink:title="Defines some functions for the interface.">
<polygon fill="white" stroke="black" points="218,-67.5 218,-97.5 345,-97.5 345,-67.5 218,-67.5"/>
<text text-anchor="start" x="226" y="-85.5" font-family="Helvetica,sans-Serif" font-size="10.00">D:/PathTracer/PathTracer</text>
<text text-anchor="middle" x="281.5" y="-74.5" font-family="Helvetica,sans-Serif" font-size="10.00">/Interface.h</text>
</a>
</g>
</g>
<!-- Node4&#45;&gt;Node5 -->
<g id="edge4" class="edge">
<title>Node4&#45;&gt;Node5</title>
<path fill="none" stroke="midnightblue" d="M330.35,-127.6C319.48,-117.78 306.8,-106.34 297.09,-97.58"/>
<polygon fill="midnightblue" stroke="midnightblue" points="328.11,-130.29 337.88,-134.4 332.8,-125.1 328.11,-130.29"/>
</g>
<!-- Node8 -->
<g id="node8" class="node">
<title>Node8</title>
<g id="a_node8"><a xlink:href="_scene_8cpp.html" target="_top" xlink:title=" ">
<polygon fill="white" stroke="black" points="363,-67.5 363,-97.5 490,-97.5 490,-67.5 363,-67.5"/>
<text text-anchor="start" x="371" y="-85.5" font-family="Helvetica,sans-Serif" font-size="10.00">D:/PathTracer/PathTracer</text>
<text text-anchor="middle" x="426.5" y="-74.5" font-family="Helvetica,sans-Serif" font-size="10.00">/Scene.cpp</text>
</a>
</g>
</g>
<!-- Node4&#45;&gt;Node8 -->
<g id="edge7" class="edge">
<title>Node4&#45;&gt;Node8</title>
<path fill="none" stroke="midnightblue" d="M376.97,-127.6C388,-117.78 400.84,-106.34 410.69,-97.58"/>
<polygon fill="midnightblue" stroke="midnightblue" points="374.48,-125.13 369.34,-134.4 379.14,-130.36 374.48,-125.13"/>
</g>
<!-- Node6 -->
<g id="node6" class="node">
<title>Node6</title>
<g id="a_node6"><a xlink:href="_interface_8cpp.html" target="_top" xlink:title=" ">
<polygon fill="white" stroke="black" points="146,-0.5 146,-30.5 273,-30.5 273,-0.5 146,-0.5"/>
<text text-anchor="start" x="154" y="-18.5" font-family="Helvetica,sans-Serif" font-size="10.00">D:/PathTracer/PathTracer</text>
<text text-anchor="middle" x="209.5" y="-7.5" font-family="Helvetica,sans-Serif" font-size="10.00">/Interface.cpp</text>
</a>
</g>
</g>
<!-- Node5&#45;&gt;Node6 -->
<g id="edge5" class="edge">
<title>Node5&#45;&gt;Node6</title>
<path fill="none" stroke="midnightblue" d="M258.35,-60.6C247.48,-50.78 234.8,-39.34 225.09,-30.58"/>
<polygon fill="midnightblue" stroke="midnightblue" points="256.11,-63.29 265.88,-67.4 260.8,-58.1 256.11,-63.29"/>
</g>
<!-- Node7 -->
<g id="node7" class="node">
<title>Node7</title>
<g id="a_node7"><a xlink:href="main_8cpp.html" target="_top" xlink:title=" ">
<polygon fill="white" stroke="black" points="291,-0.5 291,-30.5 418,-30.5 418,-0.5 291,-0.5"/>
<text text-anchor="start" x="299" y="-18.5" font-family="Helvetica,sans-Serif" font-size="10.00">D:/PathTracer/PathTracer</text>
<text text-anchor="middle" x="354.5" y="-7.5" font-family="Helvetica,sans-Serif" font-size="10.00">/main.cpp</text>
</a>
</g>
</g>
<!-- Node5&#45;&gt;Node7 -->
<g id="edge6" class="edge">
<title>Node5&#45;&gt;Node7</title>
<path fill="none" stroke="midnightblue" d="M304.97,-60.6C316,-50.78 328.84,-39.34 338.69,-30.58"/>
<polygon fill="midnightblue" stroke="midnightblue" points="302.48,-58.13 297.34,-67.4 307.14,-63.36 302.48,-58.13"/>
</g>
<!-- Node10 -->
<g id="node10" class="node">
<title>Node10</title>
<g id="a_node10"><a xlink:href="_double_unit_vec3_d_8cpp.html" target="_top" xlink:title=" ">
<polygon fill="white" stroke="black" points="375,-603.5 375,-633.5 502,-633.5 502,-603.5 375,-603.5"/>
<text text-anchor="start" x="383" y="-621.5" font-family="Helvetica,sans-Serif" font-size="10.00">D:/PathTracer/PathTracer</text>
<text text-anchor="middle" x="438.5" y="-610.5" font-family="Helvetica,sans-Serif" font-size="10.00">/DoubleUnitVec3D.cpp</text>
</a>
</g>
</g>
<!-- Node9&#45;&gt;Node10 -->
<g id="edge9" class="edge">
<title>Node9&#45;&gt;Node10</title>
<path fill="none" stroke="midnightblue" d="M369.61,-664.73C384.92,-654.68 403.19,-642.68 417.06,-633.58"/>
<polygon fill="midnightblue" stroke="midnightblue" points="367.42,-661.98 360.98,-670.4 371.26,-667.83 367.42,-661.98"/>
</g>
<!-- Node9&#45;&gt;Node11 -->
<g id="edge10" class="edge">
<title>Node9&#45;&gt;Node11</title>
<path fill="none" stroke="midnightblue" d="M323.69,-662.16C316.98,-652.68 309.37,-641.92 303.46,-633.58"/>
<polygon fill="midnightblue" stroke="midnightblue" points="320.88,-664.26 329.52,-670.4 326.6,-660.21 320.88,-664.26"/>
</g>
<!-- Node12 -->
<g id="node12" class="node">
<title>Node12</title>
<g id="a_node12"><a xlink:href="_material_8h.html" target="_top" xlink:title="Defines the Material class and some functions around it.">
<polygon fill="white" stroke="black" points="604,-536.5 604,-566.5 731,-566.5 731,-536.5 604,-536.5"/>
<text text-anchor="start" x="612" y="-554.5" font-family="Helvetica,sans-Serif" font-size="10.00">D:/PathTracer/PathTracer</text>
<text text-anchor="middle" x="667.5" y="-543.5" font-family="Helvetica,sans-Serif" font-size="10.00">/Material.h</text>
</a>
</g>
</g>
<!-- Node11&#45;&gt;Node12 -->
<g id="edge11" class="edge">
<title>Node11&#45;&gt;Node12</title>
<path fill="none" stroke="midnightblue" d="M367.07,-602.93C455.13,-586.89 545.2,-572.06 603.98,-562.59"/>
<polygon fill="midnightblue" stroke="midnightblue" points="366.39,-599.49 357.18,-604.73 367.65,-606.38 366.39,-599.49"/>
</g>
<!-- Node34 -->
<g id="node34" class="node">
<title>Node34</title>
<g id="a_node34"><a xlink:href="_perspective_camera_8h.html" target="_top" xlink:title="Defines the PerspectiveCamera class.">
<polygon fill="white" stroke="black" points="329,-536.5 329,-566.5 456,-566.5 456,-536.5 329,-536.5"/>
<text text-anchor="start" x="337" y="-554.5" font-family="Helvetica,sans-Serif" font-size="10.00">D:/PathTracer/PathTracer</text>
<text text-anchor="middle" x="392.5" y="-543.5" font-family="Helvetica,sans-Serif" font-size="10.00">/PerspectiveCamera.h</text>
</a>
</g>
</g>
<!-- Node11&#45;&gt;Node34 -->
<g id="edge40" class="edge">
<title>Node11&#45;&gt;Node34</title>
<path fill="none" stroke="midnightblue" d="M323.61,-597.73C338.92,-587.68 357.19,-575.68 371.06,-566.58"/>
<polygon fill="midnightblue" stroke="midnightblue" points="321.42,-594.98 314.98,-603.4 325.26,-600.83 321.42,-594.98"/>
</g>
<!-- Node36 -->
<g id="node36" class="node">
<title>Node36</title>
<g id="a_node36"><a xlink:href="_ray_8cpp.html" target="_top" xlink:title=" ">
<polygon fill="white" stroke="black" points="184,-536.5 184,-566.5 311,-566.5 311,-536.5 184,-536.5"/>
<text text-anchor="start" x="192" y="-554.5" font-family="Helvetica,sans-Serif" font-size="10.00">D:/PathTracer/PathTracer</text>
<text text-anchor="middle" x="247.5" y="-543.5" font-family="Helvetica,sans-Serif" font-size="10.00">/Ray.cpp</text>
</a>
</g>
</g>
<!-- Node11&#45;&gt;Node36 -->
<g id="edge43" class="edge">
<title>Node11&#45;&gt;Node36</title>
<path fill="none" stroke="midnightblue" d="M277.69,-595.16C270.98,-585.68 263.37,-574.92 257.46,-566.58"/>
<polygon fill="midnightblue" stroke="midnightblue" points="274.88,-597.26 283.52,-603.4 280.6,-593.21 274.88,-597.26"/>
</g>
<!-- Node13 -->
<g id="node13" class="node">
<title>Node13</title>
<g id="a_node13"><a xlink:href="_diffuse_material_8h.html" target="_top" xlink:title="Defines the DiffuseMaterial class.">
<polygon fill="white" stroke="black" points="749,-469.5 749,-499.5 876,-499.5 876,-469.5 749,-469.5"/>
<text text-anchor="start" x="757" y="-487.5" font-family="Helvetica,sans-Serif" font-size="10.00">D:/PathTracer/PathTracer</text>
<text text-anchor="middle" x="812.5" y="-476.5" font-family="Helvetica,sans-Serif" font-size="10.00">/DiffuseMaterial.h</text>
</a>
</g>
</g>
<!-- Node12&#45;&gt;Node13 -->
<g id="edge12" class="edge">
<title>Node12&#45;&gt;Node13</title>
<path fill="none" stroke="midnightblue" d="M708.17,-532.27C731.26,-521.92 759.74,-509.15 781.1,-499.58"/>
<polygon fill="midnightblue" stroke="midnightblue" points="706.66,-529.11 698.96,-536.4 709.52,-535.5 706.66,-529.11"/>
</g>
<!-- Node29 -->
<g id="node29" class="node">
<title>Node29</title>
<g id="a_node29"><a xlink:href="_material_8cpp.html" target="_top" xlink:title=" ">
<polygon fill="white" stroke="black" points="894,-469.5 894,-499.5 1021,-499.5 1021,-469.5 894,-469.5"/>
<text text-anchor="start" x="902" y="-487.5" font-family="Helvetica,sans-Serif" font-size="10.00">D:/PathTracer/PathTracer</text>
<text text-anchor="middle" x="957.5" y="-476.5" font-family="Helvetica,sans-Serif" font-size="10.00">/Material.cpp</text>
</a>
</g>
</g>
<!-- Node12&#45;&gt;Node29 -->
<g id="edge33" class="edge">
<title>Node12&#45;&gt;Node29</title>
<path fill="none" stroke="midnightblue" d="M739.99,-534.25C787.52,-523.6 849.06,-509.81 894.54,-499.61"/>
<polygon fill="midnightblue" stroke="midnightblue" points="739.06,-530.87 730.07,-536.48 740.59,-537.7 739.06,-530.87"/>
</g>
<!-- Node30 -->
<g id="node30" class="node">
<title>Node30</title>
<g id="a_node30"><a xlink:href="_refractive_material_8h.html" target="_top" xlink:title="Defines the RefractiveMaterial class.">
<polygon fill="white" stroke="black" points="604,-469.5 604,-499.5 731,-499.5 731,-469.5 604,-469.5"/>
<text text-anchor="start" x="612" y="-487.5" font-family="Helvetica,sans-Serif" font-size="10.00">D:/PathTracer/PathTracer</text>
<text text-anchor="middle" x="667.5" y="-476.5" font-family="Helvetica,sans-Serif" font-size="10.00">/RefractiveMaterial.h</text>
</a>
</g>
</g>
<!-- Node12&#45;&gt;Node30 -->
<g id="edge34" class="edge">
<title>Node12&#45;&gt;Node30</title>
<path fill="none" stroke="midnightblue" d="M667.5,-526.11C667.5,-517.15 667.5,-507.32 667.5,-499.58"/>
<polygon fill="midnightblue" stroke="midnightblue" points="664,-526.4 667.5,-536.4 671,-526.4 664,-526.4"/>
</g>
<!-- Node32 -->
<g id="node32" class="node">
<title>Node32</title>
<g id="a_node32"><a xlink:href="_specular_material_8h.html" target="_top" xlink:title="Defines the SpecularMaterial class.">
<polygon fill="white" stroke="black" points="459,-469.5 459,-499.5 586,-499.5 586,-469.5 459,-469.5"/>
<text text-anchor="start" x="467" y="-487.5" font-family="Helvetica,sans-Serif" font-size="10.00">D:/PathTracer/PathTracer</text>
<text text-anchor="middle" x="522.5" y="-476.5" font-family="Helvetica,sans-Serif" font-size="10.00">/SpecularMaterial.h</text>
</a>
</g>
</g>
<!-- Node12&#45;&gt;Node32 -->
<g id="edge37" class="edge">
<title>Node12&#45;&gt;Node32</title>
<path fill="none" stroke="midnightblue" d="M626.83,-532.27C603.74,-521.92 575.26,-509.15 553.9,-499.58"/>
<polygon fill="midnightblue" stroke="midnightblue" points="625.48,-535.5 636.04,-536.4 628.34,-529.11 625.48,-535.5"/>
</g>
<!-- Node14 -->
<g id="node14" class="node">
<title>Node14</title>
<g id="a_node14"><a xlink:href="_diffuse_material_8cpp.html" target="_top" xlink:title=" ">
<polygon fill="white" stroke="black" points="800,-402.5 800,-432.5 927,-432.5 927,-402.5 800,-402.5"/>
<text text-anchor="start" x="808" y="-420.5" font-family="Helvetica,sans-Serif" font-size="10.00">D:/PathTracer/PathTracer</text>
<text text-anchor="middle" x="863.5" y="-409.5" font-family="Helvetica,sans-Serif" font-size="10.00">/DiffuseMaterial.cpp</text>
</a>
</g>
</g>
<!-- Node13&#45;&gt;Node14 -->
<g id="edge13" class="edge">
<title>Node13&#45;&gt;Node14</title>
<path fill="none" stroke="midnightblue" d="M829.8,-461.45C837.29,-451.9 845.84,-441 852.46,-432.58"/>
<polygon fill="midnightblue" stroke="midnightblue" points="826.99,-459.37 823.57,-469.4 832.49,-463.69 826.99,-459.37"/>
</g>
<!-- Node15 -->
<g id="node15" class="node">
<title>Node15</title>
<g id="a_node15"><a xlink:href="_interface_creation_8h.html" target="_top" xlink:title="Defines functions that are used to ask for values to the user, and to interactively create 3D objects...">
<polygon fill="white" stroke="black" points="689,-268.5 689,-298.5 816,-298.5 816,-268.5 689,-268.5"/>
<text text-anchor="start" x="697" y="-286.5" font-family="Helvetica,sans-Serif" font-size="10.00">D:/PathTracer/PathTracer</text>
<text text-anchor="middle" x="752.5" y="-275.5" font-family="Helvetica,sans-Serif" font-size="10.00">/InterfaceCreation.h</text>
</a>
</g>
</g>
<!-- Node13&#45;&gt;Node15 -->
<g id="edge14" class="edge">
<title>Node13&#45;&gt;Node15</title>
<path fill="none" stroke="midnightblue" d="M801.9,-459.91C798.34,-451.51 794.51,-441.92 791.5,-433 775.14,-384.51 761.38,-325.22 755.53,-298.61"/>
<polygon fill="midnightblue" stroke="midnightblue" points="798.71,-461.34 805.9,-469.12 805.13,-458.55 798.71,-461.34"/>
</g>
<!-- Node23 -->
<g id="node23" class="node">
<title>Node23</title>
<g id="a_node23"><a xlink:href="_object3_d_8h.html" target="_top" xlink:title="Defines the Object3D class and some functions around it.">
<polygon fill="white" stroke="black" points="945,-402.5 945,-432.5 1072,-432.5 1072,-402.5 945,-402.5"/>
<text text-anchor="start" x="953" y="-420.5" font-family="Helvetica,sans-Serif" font-size="10.00">D:/PathTracer/PathTracer</text>
<text text-anchor="middle" x="1008.5" y="-409.5" font-family="Helvetica,sans-Serif" font-size="10.00">/Object3D.h</text>
</a>
</g>
</g>
<!-- Node13&#45;&gt;Node23 -->
<g id="edge25" class="edge">
<title>Node13&#45;&gt;Node23</title>
<path fill="none" stroke="midnightblue" d="M864.58,-466.23C896.29,-455.71 936.28,-442.45 966.05,-432.58"/>
<polygon fill="midnightblue" stroke="midnightblue" points="863.42,-462.93 855.03,-469.4 865.62,-469.57 863.42,-462.93"/>
</g>
<!-- Node16 -->
<g id="node16" class="node">
<title>Node16</title>
<g id="a_node16"><a xlink:href="_interface_creation_8cpp.html" target="_top" xlink:title=" ">
<polygon fill="white" stroke="black" points="846,-201.5 846,-231.5 973,-231.5 973,-201.5 846,-201.5"/>
<text text-anchor="start" x="854" y="-219.5" font-family="Helvetica,sans-Serif" font-size="10.00">D:/PathTracer/PathTracer</text>
<text text-anchor="middle" x="909.5" y="-208.5" font-family="Helvetica,sans-Serif" font-size="10.00">/InterfaceCreation.cpp</text>
</a>
</g>
</g>
<!-- Node15&#45;&gt;Node16 -->
<g id="edge15" class="edge">
<title>Node15&#45;&gt;Node16</title>
<path fill="none" stroke="midnightblue" d="M795.87,-264.54C820.99,-254.14 852.16,-241.24 875.5,-231.58"/>
<polygon fill="midnightblue" stroke="midnightblue" points="794.47,-261.34 786.57,-268.4 797.14,-267.8 794.47,-261.34"/>
</g>
<!-- Node17 -->
<g id="node17" class="node">
<title>Node17</title>
<g id="a_node17"><a xlink:href="_k_d_tree_node_8h.html" target="_top" xlink:title="Defines the KDTreeNode class and some functions around it.">
<polygon fill="white" stroke="black" points="701,-201.5 701,-231.5 828,-231.5 828,-201.5 701,-201.5"/>
<text text-anchor="start" x="709" y="-219.5" font-family="Helvetica,sans-Serif" font-size="10.00">D:/PathTracer/PathTracer</text>
<text text-anchor="middle" x="764.5" y="-208.5" font-family="Helvetica,sans-Serif" font-size="10.00">/KDTreeNode.h</text>
</a>
</g>
</g>
<!-- Node15&#45;&gt;Node17 -->
<g id="edge16" class="edge">
<title>Node15&#45;&gt;Node17</title>
<path fill="none" stroke="midnightblue" d="M756.95,-258.4C758.62,-249.37 760.46,-239.41 761.9,-231.58"/>
<polygon fill="midnightblue" stroke="midnightblue" points="753.48,-257.93 755.1,-268.4 760.36,-259.2 753.48,-257.93"/>
</g>
<!-- Node19 -->
<g id="node19" class="node">
<title>Node19</title>
<g id="a_node19"><a xlink:href="_object3_d_group_8h.html" target="_top" xlink:title="Defines the Object3DGroup class and some functions around it.">
<polygon fill="white" stroke="black" points="411,-201.5 411,-231.5 538,-231.5 538,-201.5 411,-201.5"/>
<text text-anchor="start" x="419" y="-219.5" font-family="Helvetica,sans-Serif" font-size="10.00">D:/PathTracer/PathTracer</text>
<text text-anchor="middle" x="474.5" y="-208.5" font-family="Helvetica,sans-Serif" font-size="10.00">/Object3DGroup.h</text>
</a>
</g>
</g>
<!-- Node15&#45;&gt;Node19 -->
<g id="edge19" class="edge">
<title>Node15&#45;&gt;Node19</title>
<path fill="none" stroke="midnightblue" d="M682.72,-266.19C637.2,-255.54 578.36,-241.78 534.85,-231.61"/>
<polygon fill="midnightblue" stroke="midnightblue" points="681.99,-269.61 692.52,-268.48 683.58,-262.79 681.99,-269.61"/>
</g>
<!-- Node21 -->
<g id="node21" class="node">
<title>Node21</title>
<g id="a_node21"><a xlink:href="_picture_8h.html" target="_top" xlink:title="Defines the Picture class and some functions around it.">
<polygon fill="white" stroke="black" points="556,-201.5 556,-231.5 683,-231.5 683,-201.5 556,-201.5"/>
<text text-anchor="start" x="564" y="-219.5" font-family="Helvetica,sans-Serif" font-size="10.00">D:/PathTracer/PathTracer</text>
<text text-anchor="middle" x="619.5" y="-208.5" font-family="Helvetica,sans-Serif" font-size="10.00">/Picture.h</text>
</a>
</g>
</g>
<!-- Node15&#45;&gt;Node21 -->
<g id="edge22" class="edge">
<title>Node15&#45;&gt;Node21</title>
<path fill="none" stroke="midnightblue" d="M714.63,-263.99C693.55,-253.69 667.72,-241.07 648.3,-231.58"/>
<polygon fill="midnightblue" stroke="midnightblue" points="713.12,-267.15 723.64,-268.4 716.19,-260.86 713.12,-267.15"/>
</g>
<!-- Node17&#45;&gt;Node4 -->
<g id="edge18" class="edge">
<title>Node17&#45;&gt;Node4</title>
<path fill="none" stroke="midnightblue" d="M690.81,-200.78C573.11,-181.38 540.96,-184.09 426.5,-165 423.44,-164.49 420.31,-163.95 417.16,-163.38"/>
<polygon fill="midnightblue" stroke="midnightblue" points="690.5,-204.28 700.94,-202.47 691.65,-197.37 690.5,-204.28"/>
</g>
<!-- Node18 -->
<g id="node18" class="node">
<title>Node18</title>
<g id="a_node18"><a xlink:href="_k_d_tree_node_8cpp.html" target="_top" xlink:title=" ">
<polygon fill="white" stroke="black" points="725,-134.5 725,-164.5 852,-164.5 852,-134.5 725,-134.5"/>
<text text-anchor="start" x="733" y="-152.5" font-family="Helvetica,sans-Serif" font-size="10.00">D:/PathTracer/PathTracer</text>
<text text-anchor="middle" x="788.5" y="-141.5" font-family="Helvetica,sans-Serif" font-size="10.00">/KDTreeNode.cpp</text>
</a>
</g>
</g>
<!-- Node17&#45;&gt;Node18 -->
<g id="edge17" class="edge">
<title>Node17&#45;&gt;Node18</title>
<path fill="none" stroke="midnightblue" d="M773.18,-191.99C776.57,-182.8 780.35,-172.58 783.3,-164.58"/>
<polygon fill="midnightblue" stroke="midnightblue" points="769.89,-190.8 769.71,-201.4 776.45,-193.23 769.89,-190.8"/>
</g>
<!-- Node19&#45;&gt;Node4 -->
<g id="edge21" class="edge">
<title>Node19&#45;&gt;Node4</title>
<path fill="none" stroke="midnightblue" d="M439.27,-196.57C420.24,-186.35 397.13,-173.94 379.7,-164.58"/>
<polygon fill="midnightblue" stroke="midnightblue" points="437.78,-199.75 448.24,-201.4 441.09,-193.58 437.78,-199.75"/>
</g>
<!-- Node20 -->
<g id="node20" class="node">
<title>Node20</title>
<g id="a_node20"><a xlink:href="_object3_d_group_8cpp.html" target="_top" xlink:title=" ">
<polygon fill="white" stroke="black" points="435,-134.5 435,-164.5 562,-164.5 562,-134.5 435,-134.5"/>
<text text-anchor="start" x="443" y="-152.5" font-family="Helvetica,sans-Serif" font-size="10.00">D:/PathTracer/PathTracer</text>
<text text-anchor="middle" x="498.5" y="-141.5" font-family="Helvetica,sans-Serif" font-size="10.00">/Object3DGroup.cpp</text>
</a>
</g>
</g>
<!-- Node19&#45;&gt;Node20 -->
<g id="edge20" class="edge">
<title>Node19&#45;&gt;Node20</title>
<path fill="none" stroke="midnightblue" d="M483.18,-191.99C486.57,-182.8 490.35,-172.58 493.3,-164.58"/>
<polygon fill="midnightblue" stroke="midnightblue" points="479.89,-190.8 479.71,-201.4 486.45,-193.23 479.89,-190.8"/>
</g>
<!-- Node21&#45;&gt;Node4 -->
<g id="edge24" class="edge">
<title>Node21&#45;&gt;Node4</title>
<path fill="none" stroke="midnightblue" d="M552.19,-199.05C508.7,-188.43 452.7,-174.74 411.25,-164.61"/>
<polygon fill="midnightblue" stroke="midnightblue" points="551.56,-202.5 562.11,-201.48 553.23,-195.7 551.56,-202.5"/>
</g>
<!-- Node22 -->
<g id="node22" class="node">
<title>Node22</title>
<g id="a_node22"><a xlink:href="_picture_8cpp.html" target="_top" xlink:title=" ">
<polygon fill="white" stroke="black" points="580,-134.5 580,-164.5 707,-164.5 707,-134.5 580,-134.5"/>
<text text-anchor="start" x="588" y="-152.5" font-family="Helvetica,sans-Serif" font-size="10.00">D:/PathTracer/PathTracer</text>
<text text-anchor="middle" x="643.5" y="-141.5" font-family="Helvetica,sans-Serif" font-size="10.00">/Picture.cpp</text>
</a>
</g>
</g>
<!-- Node21&#45;&gt;Node22 -->
<g id="edge23" class="edge">
<title>Node21&#45;&gt;Node22</title>
<path fill="none" stroke="midnightblue" d="M628.18,-191.99C631.57,-182.8 635.35,-172.58 638.3,-164.58"/>
<polygon fill="midnightblue" stroke="midnightblue" points="624.89,-190.8 624.71,-201.4 631.45,-193.23 624.89,-190.8"/>
</g>
<!-- Node24 -->
<g id="node24" class="node">
<title>Node24</title>
<g id="a_node24"><a xlink:href="_object3_d_8cpp.html" target="_top" xlink:title=" ">
<polygon fill="white" stroke="black" points="945,-335.5 945,-365.5 1072,-365.5 1072,-335.5 945,-335.5"/>
<text text-anchor="start" x="953" y="-353.5" font-family="Helvetica,sans-Serif" font-size="10.00">D:/PathTracer/PathTracer</text>
<text text-anchor="middle" x="1008.5" y="-342.5" font-family="Helvetica,sans-Serif" font-size="10.00">/Object3D.cpp</text>
</a>
</g>
</g>
<!-- Node23&#45;&gt;Node24 -->
<g id="edge26" class="edge">
<title>Node23&#45;&gt;Node24</title>
<path fill="none" stroke="midnightblue" d="M1008.5,-392.11C1008.5,-383.15 1008.5,-373.32 1008.5,-365.58"/>
<polygon fill="midnightblue" stroke="midnightblue" points="1005,-392.4 1008.5,-402.4 1012,-392.4 1005,-392.4"/>
</g>
<!-- Node25 -->
<g id="node25" class="node">
<title>Node25</title>
<g id="a_node25"><a xlink:href="_sphere_8h.html" target="_top" xlink:title="Defines the Sphere class.">
<polygon fill="white" stroke="black" points="800,-335.5 800,-365.5 927,-365.5 927,-335.5 800,-335.5"/>
<text text-anchor="start" x="808" y="-353.5" font-family="Helvetica,sans-Serif" font-size="10.00">D:/PathTracer/PathTracer</text>
<text text-anchor="middle" x="863.5" y="-342.5" font-family="Helvetica,sans-Serif" font-size="10.00">/Sphere.h</text>
</a>
</g>
</g>
<!-- Node23&#45;&gt;Node25 -->
<g id="edge27" class="edge">
<title>Node23&#45;&gt;Node25</title>
<path fill="none" stroke="midnightblue" d="M967.83,-398.27C944.74,-387.92 916.26,-375.15 894.9,-365.58"/>
<polygon fill="midnightblue" stroke="midnightblue" points="966.48,-401.5 977.04,-402.4 969.34,-395.11 966.48,-401.5"/>
</g>
<!-- Node27 -->
<g id="node27" class="node">
<title>Node27</title>
<g id="a_node27"><a xlink:href="_triangle_8h.html" target="_top" xlink:title="Defines the Triangle class.">
<polygon fill="white" stroke="black" points="1090,-335.5 1090,-365.5 1217,-365.5 1217,-335.5 1090,-335.5"/>
<text text-anchor="start" x="1098" y="-353.5" font-family="Helvetica,sans-Serif" font-size="10.00">D:/PathTracer/PathTracer</text>
<text text-anchor="middle" x="1153.5" y="-342.5" font-family="Helvetica,sans-Serif" font-size="10.00">/Triangle.h</text>
</a>
</g>
</g>
<!-- Node23&#45;&gt;Node27 -->
<g id="edge30" class="edge">
<title>Node23&#45;&gt;Node27</title>
<path fill="none" stroke="midnightblue" d="M1049.17,-398.27C1072.26,-387.92 1100.74,-375.15 1122.1,-365.58"/>
<polygon fill="midnightblue" stroke="midnightblue" points="1047.66,-395.11 1039.96,-402.4 1050.52,-401.5 1047.66,-395.11"/>
</g>
<!-- Node25&#45;&gt;Node15 -->
<g id="edge28" class="edge">
<title>Node25&#45;&gt;Node15</title>
<path fill="none" stroke="midnightblue" d="M830.7,-330.3C813.34,-320.12 792.38,-307.85 776.54,-298.58"/>
<polygon fill="midnightblue" stroke="midnightblue" points="829.02,-333.36 839.41,-335.4 832.55,-327.32 829.02,-333.36"/>
</g>
<!-- Node26 -->
<g id="node26" class="node">
<title>Node26</title>
<g id="a_node26"><a xlink:href="_sphere_8cpp.html" target="_top" xlink:title=" ">
<polygon fill="white" stroke="black" points="834,-268.5 834,-298.5 961,-298.5 961,-268.5 834,-268.5"/>
<text text-anchor="start" x="842" y="-286.5" font-family="Helvetica,sans-Serif" font-size="10.00">D:/PathTracer/PathTracer</text>
<text text-anchor="middle" x="897.5" y="-275.5" font-family="Helvetica,sans-Serif" font-size="10.00">/Sphere.cpp</text>
</a>
</g>
</g>
<!-- Node25&#45;&gt;Node26 -->
<g id="edge29" class="edge">
<title>Node25&#45;&gt;Node26</title>
<path fill="none" stroke="midnightblue" d="M875.64,-326.28C880.49,-317.02 885.91,-306.66 890.14,-298.58"/>
<polygon fill="midnightblue" stroke="midnightblue" points="872.41,-324.91 870.88,-335.4 878.61,-328.16 872.41,-324.91"/>
</g>
<!-- Node27&#45;&gt;Node15 -->
<g id="edge31" class="edge">
<title>Node27&#45;&gt;Node15</title>
<path fill="none" stroke="midnightblue" d="M1079.81,-334.77C966.51,-315.78 935.57,-317.66 825.5,-299 822.44,-298.48 819.32,-297.93 816.16,-297.36"/>
<polygon fill="midnightblue" stroke="midnightblue" points="1079.49,-338.27 1089.93,-336.49 1080.66,-331.37 1079.49,-338.27"/>
</g>
<!-- Node28 -->
<g id="node28" class="node">
<title>Node28</title>
<g id="a_node28"><a xlink:href="_triangle_8cpp.html" target="_top" xlink:title=" ">
<polygon fill="white" stroke="black" points="1090,-268.5 1090,-298.5 1217,-298.5 1217,-268.5 1090,-268.5"/>
<text text-anchor="start" x="1098" y="-286.5" font-family="Helvetica,sans-Serif" font-size="10.00">D:/PathTracer/PathTracer</text>
<text text-anchor="middle" x="1153.5" y="-275.5" font-family="Helvetica,sans-Serif" font-size="10.00">/Triangle.cpp</text>
</a>
</g>
</g>
<!-- Node27&#45;&gt;Node28 -->
<g id="edge32" class="edge">
<title>Node27&#45;&gt;Node28</title>
<path fill="none" stroke="midnightblue" d="M1153.5,-325.11C1153.5,-316.15 1153.5,-306.32 1153.5,-298.58"/>
<polygon fill="midnightblue" stroke="midnightblue" points="1150,-325.4 1153.5,-335.4 1157,-325.4 1150,-325.4"/>
</g>
<!-- Node30&#45;&gt;Node15 -->
<g id="edge35" class="edge">
<title>Node30&#45;&gt;Node15</title>
<path fill="none" stroke="midnightblue" d="M691.93,-462.07C700.15,-453.73 708.7,-443.62 714.5,-433 739.12,-387.93 748.22,-326.41 751.2,-298.86"/>
<polygon fill="midnightblue" stroke="midnightblue" points="689.32,-459.73 684.56,-469.2 694.18,-464.76 689.32,-459.73"/>
</g>
<!-- Node31 -->
<g id="node31" class="node">
<title>Node31</title>
<g id="a_node31"><a xlink:href="_refractive_material_8cpp.html" target="_top" xlink:title=" ">
<polygon fill="white" stroke="black" points="578,-402.5 578,-432.5 705,-432.5 705,-402.5 578,-402.5"/>
<text text-anchor="start" x="586" y="-420.5" font-family="Helvetica,sans-Serif" font-size="10.00">D:/PathTracer/PathTracer</text>
<text text-anchor="middle" x="641.5" y="-409.5" font-family="Helvetica,sans-Serif" font-size="10.00">/RefractiveMaterial.cpp</text>
</a>
</g>
</g>
<!-- Node30&#45;&gt;Node31 -->
<g id="edge36" class="edge">
<title>Node30&#45;&gt;Node31</title>
<path fill="none" stroke="midnightblue" d="M658.1,-459.99C654.42,-450.8 650.33,-440.58 647.13,-432.58"/>
<polygon fill="midnightblue" stroke="midnightblue" points="654.89,-461.41 661.86,-469.4 661.39,-458.81 654.89,-461.41"/>
</g>
<!-- Node32&#45;&gt;Node15 -->
<g id="edge38" class="edge">
<title>Node32&#45;&gt;Node15</title>
<path fill="none" stroke="midnightblue" d="M532.48,-459.74C540.62,-442.34 553.39,-418.9 569.5,-402 614.57,-354.73 682.3,-317.69 721.48,-298.64"/>
<polygon fill="midnightblue" stroke="midnightblue" points="529.13,-458.64 528.23,-469.2 535.52,-461.51 529.13,-458.64"/>
</g>
<!-- Node33 -->
<g id="node33" class="node">
<title>Node33</title>
<g id="a_node33"><a xlink:href="_specular_material_8cpp.html" target="_top" xlink:title=" ">
<polygon fill="white" stroke="black" points="394,-402.5 394,-432.5 521,-432.5 521,-402.5 394,-402.5"/>
<text text-anchor="start" x="402" y="-420.5" font-family="Helvetica,sans-Serif" font-size="10.00">D:/PathTracer/PathTracer</text>
<text text-anchor="middle" x="457.5" y="-409.5" font-family="Helvetica,sans-Serif" font-size="10.00">/SpecularMaterial.cpp</text>
</a>
</g>
</g>
<!-- Node32&#45;&gt;Node33 -->
<g id="edge39" class="edge">
<title>Node32&#45;&gt;Node33</title>
<path fill="none" stroke="midnightblue" d="M501.31,-462.31C491.56,-452.56 480.26,-441.26 471.58,-432.58"/>
<polygon fill="midnightblue" stroke="midnightblue" points="498.85,-464.8 508.4,-469.4 503.8,-459.85 498.85,-464.8"/>
</g>
<!-- Node34&#45;&gt;Node4 -->
<g id="edge42" class="edge">
<title>Node34&#45;&gt;Node4</title>
<path fill="none" stroke="midnightblue" d="M384.6,-526.64C376.63,-500.43 365.5,-456.94 365.5,-418.5 365.5,-418.5 365.5,-418.5 365.5,-282.5 365.5,-239.47 359.1,-188.87 355.65,-164.72"/>
<polygon fill="midnightblue" stroke="midnightblue" points="381.34,-527.94 387.67,-536.43 388.01,-525.84 381.34,-527.94"/>
</g>
<!-- Node35 -->
<g id="node35" class="node">
<title>Node35</title>
<g id="a_node35"><a xlink:href="_perspective_camera_8cpp.html" target="_top" xlink:title=" ">
<polygon fill="white" stroke="black" points="210,-469.5 210,-499.5 337,-499.5 337,-469.5 210,-469.5"/>
<text text-anchor="start" x="218" y="-487.5" font-family="Helvetica,sans-Serif" font-size="10.00">D:/PathTracer/PathTracer</text>
<text text-anchor="middle" x="273.5" y="-476.5" font-family="Helvetica,sans-Serif" font-size="10.00">/PerspectiveCamera.cpp</text>
</a>
</g>
</g>
<!-- Node34&#45;&gt;Node35 -->
<g id="edge41" class="edge">
<title>Node34&#45;&gt;Node35</title>
<path fill="none" stroke="midnightblue" d="M357.85,-531.57C339.13,-521.35 316.41,-508.94 299.27,-499.58"/>
<polygon fill="midnightblue" stroke="midnightblue" points="356.22,-534.67 366.68,-536.4 359.58,-528.53 356.22,-534.67"/>
</g>
</g>
</svg>
        <g id="navigator" transform="translate(0 0)" fill="#404254">
                <rect fill="#f2f5e9" fill-opacity="0.5" stroke="#606060" stroke-width=".5" x="0" y="0" width="60" height="60"/>
                <use id="zoomplus" xlink:href="#zoomPlus" x="17" y="9" onmousedown="handleZoom(evt,'in')"/>
                <use id="zoomminus" xlink:href="#zoomMin" x="42" y="9" onmousedown="handleZoom(evt,'out')"/>
                <use id="reset" xlink:href="#resetDef" x="30" y="36" onmousedown="handleReset()"/>
                <g id="arrowUp" xlink:href="#dirArrow" transform="translate(30 24)" onmousedown="handlePan(0,-1)">
                  <use xlink:href="#rim" fill="#404040">
                        <set attributeName="fill" to="#808080" begin="arrowUp.mouseover" end="arrowUp.mouseout"/>
                  </use>
                  <path fill="none" stroke="white" stroke-width="1.5" d="M0,-3.0v7 M-2.5,-0.5L0,-3.0L2.5,-0.5"/>
                </g>
                <g id="arrowRight" xlink:href="#dirArrow" transform="rotate(90) translate(36 -43)" onmousedown="handlePan(1,0)">
                  <use xlink:href="#rim" fill="#404040">
                        <set attributeName="fill" to="#808080" begin="arrowRight.mouseover" end="arrowRight.mouseout"/>
                  </use>
                  <path fill="none" stroke="white" stroke-width="1.5" d="M0,-3.0v7 M-2.5,-0.5L0,-3.0L2.5,-0.5"/>
                </g>
                <g id="arrowDown" xlink:href="#dirArrow" transform="rotate(180) translate(-30 -48)" onmousedown="handlePan(0,1)">
                  <use xlink:href="#rim" fill="#404040">
                        <set attributeName="fill" to="#808080" begin="arrowDown.mouseover" end="arrowDown.mouseout"/>
                  </use>
                  <path fill="none" stroke="white" stroke-width="1.5" d="M0,-3.0v7 M-2.5,-0.5L0,-3.0L2.5,-0.5"/>
                </g>
                <g id="arrowLeft" xlink:href="#dirArrow" transform="rotate(270) translate(-36 17)" onmousedown="handlePan(-1,0)">
                  <use xlink:href="#rim" fill="#404040">
                        <set attributeName="fill" to="#808080" begin="arrowLeft.mouseover" end="arrowLeft.mouseout"/>
                  </use>
                  <path fill="none" stroke="white" stroke-width="1.5" d="M0,-3.0v7 M-2.5,-0.5L0,-3.0L2.5,-0.5"/>
                </g>
        </g>
        <svg viewBox="0 0 15 15" width="100%" height="30px" preserveAspectRatio="xMaxYMin meet">
         <g id="arrow_out" transform="scale(0.3 0.3)">
          <a xlink:href="_double_vec3_d_8h__dep__incl_org.svg" target="_base">
           <rect id="button" ry="5" rx="5" y="6" x="6" height="38" width="38"
                fill="#f2f5e9" fill-opacity="0.5" stroke="#606060" stroke-width="1.0"/>
           <path id="arrow"
             d="M 11.500037,31.436501 C 11.940474,20.09759 22.043105,11.32322 32.158766,21.979434 L 37.068811,17.246167 C 37.068811,17.246167 37.088388,32 37.088388,32 L 22.160133,31.978069 C 22.160133,31.978069 26.997745,27.140456 26.997745,27.140456 C 18.528582,18.264221 13.291696,25.230495 11.500037,31.436501 z"
             style="fill:#404040;"/>
          </a>
         </g>
        </svg>
</svg>
