<?xml version="1.0" encoding="UTF-8" standalone="no"?>
<!DOCTYPE svg PUBLIC "-//W3C//DTD SVG 1.1//EN"
 "http://www.w3.org/Graphics/SVG/1.1/DTD/svg11.dtd">
<!-- Generated by graphviz version 2.44.1 (20200629.0800)
 -->
<!-- Title: D:/PathTracer/PathTracer/DoubleMatrix33.cpp Pages: 1 -->
<svg width="595pt" height="263pt"
 viewBox="0.00 0.00 595.00 263.00" xmlns="http://www.w3.org/2000/svg" xmlns:xlink="http://www.w3.org/1999/xlink">
<g id="graph0" class="graph" transform="scale(1 1) rotate(0) translate(4 259)">
<title>D:/PathTracer/PathTracer/DoubleMatrix33.cpp</title>
<polygon fill="white" stroke="transparent" points="-4,4 -4,-259 591,-259 591,4 -4,4"/>
<!-- Node1 -->
<g id="node1" class="node">
<title>Node1</title>
<g id="a_node1"><a xlink:title=" ">
<polygon fill="#bfbfbf" stroke="black" points="196.5,-224.5 196.5,-254.5 323.5,-254.5 323.5,-224.5 196.5,-224.5"/>
<text text-anchor="start" x="204.5" y="-242.5" font-family="Helvetica,sans-Serif" font-size="10.00">D:/PathTracer/PathTracer</text>
<text text-anchor="middle" x="260" y="-231.5" font-family="Helvetica,sans-Serif" font-size="10.00">/DoubleMatrix33.cpp</text>
</a>
</g>
</g>
<!-- Node2 -->
<g id="node2" class="node">
<title>Node2</title>
<g id="a_node2"><a xlink:href="_double_matrix33_8h.html" target="_top" xlink:title="Defines the DoubleMatrix33 class and the functions around it.">
<polygon fill="white" stroke="black" points="214,-168.5 214,-187.5 306,-187.5 306,-168.5 214,-168.5"/>
<text text-anchor="middle" x="260" y="-175.5" font-family="Helvetica,sans-Serif" font-size="10.00">DoubleMatrix33.h</text>
</a>
</g>
</g>
<!-- Node1&#45;&gt;Node2 -->
<g id="edge1" class="edge">
<title>Node1&#45;&gt;Node2</title>
<path fill="none" stroke="midnightblue" d="M260,-224.4C260,-216.47 260,-206.46 260,-197.86"/>
<polygon fill="midnightblue" stroke="midnightblue" points="263.5,-197.66 260,-187.66 256.5,-197.66 263.5,-197.66"/>
</g>
<!-- Node3 -->
<g id="node3" class="node">
<title>Node3</title>
<g id="a_node3"><a xlink:href="_double_vec3_d_8h.html" target="_top" xlink:title="Defines the DoubleVec3D class and the functions around it.">
<polygon fill="white" stroke="black" points="218,-112.5 218,-131.5 302,-131.5 302,-112.5 218,-112.5"/>
<text text-anchor="middle" x="260" y="-119.5" font-family="Helvetica,sans-Serif" font-size="10.00">DoubleVec3D.h</text>
</a>
</g>
</g>
<!-- Node2&#45;&gt;Node3 -->
<g id="edge2" class="edge">
<title>Node2&#45;&gt;Node3</title>
<path fill="none" stroke="midnightblue" d="M260,-168.08C260,-161.01 260,-150.86 260,-141.99"/>
<polygon fill="midnightblue" stroke="midnightblue" points="263.5,-141.75 260,-131.75 256.5,-141.75 263.5,-141.75"/>
</g>
<!-- Node4 -->
<g id="node4" class="node">
<title>Node4</title>
<g id="a_node4"><a xlink:href="_interface_gestion_8h.html" target="_top" xlink:title="Defines functions that are used when drawing the interface.">
<polygon fill="white" stroke="black" points="212.5,-56.5 212.5,-75.5 307.5,-75.5 307.5,-56.5 212.5,-56.5"/>
<text text-anchor="middle" x="260" y="-63.5" font-family="Helvetica,sans-Serif" font-size="10.00">InterfaceGestion.h</text>
</a>
</g>
</g>
<!-- Node3&#45;&gt;Node4 -->
<g id="edge3" class="edge">
<title>Node3&#45;&gt;Node4</title>
<path fill="none" stroke="midnightblue" d="M260,-112.08C260,-105.01 260,-94.86 260,-85.99"/>
<polygon fill="midnightblue" stroke="midnightblue" points="263.5,-85.75 260,-75.75 256.5,-85.75 263.5,-85.75"/>
</g>
<!-- Node5 -->
<g id="node5" class="node">
<title>Node5</title>
<g id="a_node5"><a xlink:title=" ">
<polygon fill="white" stroke="#bfbfbf" points="0,-0.5 0,-19.5 46,-19.5 46,-0.5 0,-0.5"/>
<text text-anchor="middle" x="23" y="-7.5" font-family="Helvetica,sans-Serif" font-size="10.00">chrono</text>
</a>
</g>
</g>
<!-- Node4&#45;&gt;Node5 -->
<g id="edge4" class="edge">
<title>Node4&#45;&gt;Node5</title>
<path fill="none" stroke="midnightblue" d="M217.82,-56.49C178.37,-48.36 117.59,-35.41 55.93,-20.12"/>
<polygon fill="midnightblue" stroke="midnightblue" points="56.58,-16.68 46.03,-17.65 54.88,-23.47 56.58,-16.68"/>
</g>
<!-- Node6 -->
<g id="node6" class="node">
<title>Node6</title>
<g id="a_node6"><a xlink:title=" ">
<polygon fill="white" stroke="#bfbfbf" points="64.5,-0.5 64.5,-19.5 113.5,-19.5 113.5,-0.5 64.5,-0.5"/>
<text text-anchor="middle" x="89" y="-7.5" font-family="Helvetica,sans-Serif" font-size="10.00">fstream</text>
</a>
</g>
</g>
<!-- Node4&#45;&gt;Node6 -->
<g id="edge5" class="edge">
<title>Node4&#45;&gt;Node6</title>
<path fill="none" stroke="midnightblue" d="M232.9,-56.44C203.33,-47.1 155.9,-32.13 123.65,-21.94"/>
<polygon fill="midnightblue" stroke="midnightblue" points="124.34,-18.49 113.75,-18.82 122.23,-25.16 124.34,-18.49"/>
</g>
<!-- Node7 -->
<g id="node7" class="node">
<title>Node7</title>
<g id="a_node7"><a xlink:title=" ">
<polygon fill="white" stroke="#bfbfbf" points="131.5,-0.5 131.5,-19.5 180.5,-19.5 180.5,-0.5 131.5,-0.5"/>
<text text-anchor="middle" x="156" y="-7.5" font-family="Helvetica,sans-Serif" font-size="10.00">random</text>
</a>
</g>
</g>
<!-- Node4&#45;&gt;Node7 -->
<g id="edge6" class="edge">
<title>Node4&#45;&gt;Node7</title>
<path fill="none" stroke="midnightblue" d="M243.29,-56.32C226.69,-47.7 201,-34.36 181.78,-24.39"/>
<polygon fill="midnightblue" stroke="midnightblue" points="183.16,-21.16 172.67,-19.65 179.93,-27.37 183.16,-21.16"/>
</g>
<!-- Node8 -->
<g id="node8" class="node">
<title>Node8</title>
<g id="a_node8"><a xlink:title=" ">
<polygon fill="white" stroke="#bfbfbf" points="199,-0.5 199,-19.5 253,-19.5 253,-0.5 199,-0.5"/>
<text text-anchor="middle" x="226" y="-7.5" font-family="Helvetica,sans-Serif" font-size="10.00">iostream</text>
</a>
</g>
</g>
<!-- Node4&#45;&gt;Node8 -->
<g id="edge7" class="edge">
<title>Node4&#45;&gt;Node8</title>
<path fill="none" stroke="midnightblue" d="M254.39,-56.08C249.63,-48.53 242.68,-37.49 236.85,-28.23"/>
<polygon fill="midnightblue" stroke="midnightblue" points="239.8,-26.35 231.51,-19.75 233.88,-30.08 239.8,-26.35"/>
</g>
<!-- Node9 -->
<g id="node9" class="node">
<title>Node9</title>
<g id="a_node9"><a xlink:title=" ">
<polygon fill="white" stroke="#bfbfbf" points="271.5,-0.5 271.5,-19.5 318.5,-19.5 318.5,-0.5 271.5,-0.5"/>
<text text-anchor="middle" x="295" y="-7.5" font-family="Helvetica,sans-Serif" font-size="10.00">math.h</text>
</a>
</g>
</g>
<!-- Node4&#45;&gt;Node9 -->
<g id="edge8" class="edge">
<title>Node4&#45;&gt;Node9</title>
<path fill="none" stroke="midnightblue" d="M265.78,-56.08C270.67,-48.53 277.83,-37.49 283.83,-28.23"/>
<polygon fill="midnightblue" stroke="midnightblue" points="286.83,-30.05 289.33,-19.75 280.95,-26.24 286.83,-30.05"/>
</g>
<!-- Node10 -->
<g id="node10" class="node">
<title>Node10</title>
<g id="a_node10"><a xlink:title=" ">
<polygon fill="white" stroke="#bfbfbf" points="337,-0.5 337,-19.5 435,-19.5 435,-0.5 337,-0.5"/>
<text text-anchor="middle" x="386" y="-7.5" font-family="Helvetica,sans-Serif" font-size="10.00">nlohmann/json.hpp</text>
</a>
</g>
</g>
<!-- Node4&#45;&gt;Node10 -->
<g id="edge9" class="edge">
<title>Node4&#45;&gt;Node10</title>
<path fill="none" stroke="midnightblue" d="M279.97,-56.44C300.61,-47.6 333.06,-33.69 356.63,-23.59"/>
<polygon fill="midnightblue" stroke="midnightblue" points="358.32,-26.67 366.13,-19.52 355.56,-20.24 358.32,-26.67"/>
</g>
<!-- Node11 -->
<g id="node11" class="node">
<title>Node11</title>
<g id="a_node11"><a xlink:title=" ">
<polygon fill="white" stroke="#bfbfbf" points="453.5,-0.5 453.5,-19.5 506.5,-19.5 506.5,-0.5 453.5,-0.5"/>
<text text-anchor="middle" x="480" y="-7.5" font-family="Helvetica,sans-Serif" font-size="10.00">fbxsdk.h</text>
</a>
</g>
</g>
<!-- Node4&#45;&gt;Node11 -->
<g id="edge10" class="edge">
<title>Node4&#45;&gt;Node11</title>
<path fill="none" stroke="midnightblue" d="M295.29,-56.43C330.31,-47.91 385.79,-34.37 443.28,-20.17"/>
<polygon fill="midnightblue" stroke="midnightblue" points="444.4,-23.5 453.27,-17.7 442.72,-16.7 444.4,-23.5"/>
</g>
<!-- Node12 -->
<g id="node12" class="node">
<title>Node12</title>
<g id="a_node12"><a xlink:title=" ">
<polygon fill="white" stroke="#bfbfbf" points="525,-0.5 525,-19.5 587,-19.5 587,-0.5 525,-0.5"/>
<text text-anchor="middle" x="556" y="-7.5" font-family="Helvetica,sans-Serif" font-size="10.00">windows.h</text>
</a>
</g>
</g>
<!-- Node4&#45;&gt;Node12 -->
<g id="edge11" class="edge">
<title>Node4&#45;&gt;Node12</title>
<path fill="none" stroke="midnightblue" d="M307.78,-57.3C357.18,-49.17 436.79,-35.65 514.61,-20.21"/>
<polygon fill="midnightblue" stroke="midnightblue" points="515.47,-23.61 524.59,-18.22 514.1,-16.74 515.47,-23.61"/>
</g>
</g>
</svg>
