<?xml version="1.0" encoding="UTF-8" standalone="no"?>
<!DOCTYPE svg PUBLIC "-//W3C//DTD SVG 1.1//EN"
 "http://www.w3.org/Graphics/SVG/1.1/DTD/svg11.dtd">
<!-- Generated by graphviz version 2.44.1 (20200629.0800)
 -->
<!-- Title: D:/PathTracer/PathTracer/InterfaceGestion.cpp Pages: 1 -->
<svg width="1130pt" height="543pt"
 viewBox="0.00 0.00 1130.00 543.00" xmlns="http://www.w3.org/2000/svg" xmlns:xlink="http://www.w3.org/1999/xlink">
<g id="graph0" class="graph" transform="scale(1 1) rotate(0) translate(4 539)">
<title>D:/PathTracer/PathTracer/InterfaceGestion.cpp</title>
<polygon fill="white" stroke="transparent" points="-4,4 -4,-539 1126,-539 1126,4 -4,4"/>
<!-- Node1 -->
<g id="node1" class="node">
<title>Node1</title>
<g id="a_node1"><a xlink:title=" ">
<polygon fill="#bfbfbf" stroke="black" points="399.5,-504.5 399.5,-534.5 526.5,-534.5 526.5,-504.5 399.5,-504.5"/>
<text text-anchor="start" x="407.5" y="-522.5" font-family="Helvetica,sans-Serif" font-size="10.00">D:/PathTracer/PathTracer</text>
<text text-anchor="middle" x="463" y="-511.5" font-family="Helvetica,sans-Serif" font-size="10.00">/InterfaceGestion.cpp</text>
</a>
</g>
</g>
<!-- Node2 -->
<g id="node2" class="node">
<title>Node2</title>
<g id="a_node2"><a xlink:href="_interface_gestion_8h.html" target="_top" xlink:title="Defines functions that are used when drawing the interface.">
<polygon fill="white" stroke="black" points="415.5,-448.5 415.5,-467.5 510.5,-467.5 510.5,-448.5 415.5,-448.5"/>
<text text-anchor="middle" x="463" y="-455.5" font-family="Helvetica,sans-Serif" font-size="10.00">InterfaceGestion.h</text>
</a>
</g>
</g>
<!-- Node1&#45;&gt;Node2 -->
<g id="edge1" class="edge">
<title>Node1&#45;&gt;Node2</title>
<path fill="none" stroke="midnightblue" d="M463,-504.4C463,-496.47 463,-486.46 463,-477.86"/>
<polygon fill="midnightblue" stroke="midnightblue" points="466.5,-477.66 463,-467.66 459.5,-477.66 466.5,-477.66"/>
</g>
<!-- Node3 -->
<g id="node3" class="node">
<title>Node3</title>
<g id="a_node3"><a xlink:title=" ">
<polygon fill="white" stroke="#bfbfbf" points="0,-392.5 0,-411.5 46,-411.5 46,-392.5 0,-392.5"/>
<text text-anchor="middle" x="23" y="-399.5" font-family="Helvetica,sans-Serif" font-size="10.00">chrono</text>
</a>
</g>
</g>
<!-- Node2&#45;&gt;Node3 -->
<g id="edge2" class="edge">
<title>Node2&#45;&gt;Node3</title>
<path fill="none" stroke="midnightblue" d="M415.19,-454.28C340.46,-449.48 191.4,-437.65 56.42,-411.99"/>
<polygon fill="midnightblue" stroke="midnightblue" points="56.79,-408.5 46.31,-410.03 55.47,-415.37 56.79,-408.5"/>
</g>
<!-- Node4 -->
<g id="node4" class="node">
<title>Node4</title>
<g id="a_node4"><a xlink:title=" ">
<polygon fill="white" stroke="#bfbfbf" points="64.5,-392.5 64.5,-411.5 113.5,-411.5 113.5,-392.5 64.5,-392.5"/>
<text text-anchor="middle" x="89" y="-399.5" font-family="Helvetica,sans-Serif" font-size="10.00">fstream</text>
</a>
</g>
</g>
<!-- Node2&#45;&gt;Node4 -->
<g id="edge3" class="edge">
<title>Node2&#45;&gt;Node4</title>
<path fill="none" stroke="midnightblue" d="M415.22,-452.75C350.9,-446.58 232.79,-433.65 123.64,-412.12"/>
<polygon fill="midnightblue" stroke="midnightblue" points="124.27,-408.68 113.78,-410.14 122.9,-415.54 124.27,-408.68"/>
</g>
<!-- Node5 -->
<g id="node5" class="node">
<title>Node5</title>
<g id="a_node5"><a xlink:title=" ">
<polygon fill="white" stroke="#bfbfbf" points="131.5,-392.5 131.5,-411.5 180.5,-411.5 180.5,-392.5 131.5,-392.5"/>
<text text-anchor="middle" x="156" y="-399.5" font-family="Helvetica,sans-Serif" font-size="10.00">random</text>
</a>
</g>
</g>
<!-- Node2&#45;&gt;Node5 -->
<g id="edge4" class="edge">
<title>Node2&#45;&gt;Node5</title>
<path fill="none" stroke="midnightblue" d="M415.2,-450.68C362.39,-443.36 274.66,-430.19 190.75,-412.22"/>
<polygon fill="midnightblue" stroke="midnightblue" points="191.31,-408.76 180.8,-410.06 189.83,-415.6 191.31,-408.76"/>
</g>
<!-- Node6 -->
<g id="node6" class="node">
<title>Node6</title>
<g id="a_node6"><a xlink:title=" ">
<polygon fill="white" stroke="#bfbfbf" points="450.5,-280.5 450.5,-299.5 491.5,-299.5 491.5,-280.5 450.5,-280.5"/>
<text text-anchor="middle" x="471" y="-287.5" font-family="Helvetica,sans-Serif" font-size="10.00">string</text>
</a>
</g>
</g>
<!-- Node2&#45;&gt;Node6 -->
<g id="edge5" class="edge">
<title>Node2&#45;&gt;Node6</title>
<path fill="none" stroke="midnightblue" d="M463.43,-448.08C464.69,-421.95 468.39,-345.21 470.1,-309.58"/>
<polygon fill="midnightblue" stroke="midnightblue" points="473.6,-309.73 470.59,-299.57 466.61,-309.39 473.6,-309.73"/>
</g>
<!-- Node7 -->
<g id="node7" class="node">
<title>Node7</title>
<g id="a_node7"><a xlink:href="_material_8h.html" target="_top" xlink:title="Defines the Material class and the functions around it.">
<polygon fill="white" stroke="black" points="501.5,-224.5 501.5,-243.5 560.5,-243.5 560.5,-224.5 501.5,-224.5"/>
<text text-anchor="middle" x="531" y="-231.5" font-family="Helvetica,sans-Serif" font-size="10.00">Material.h</text>
</a>
</g>
</g>
<!-- Node2&#45;&gt;Node7 -->
<g id="edge6" class="edge">
<title>Node2&#45;&gt;Node7</title>
<path fill="none" stroke="midnightblue" d="M458.5,-448.45C444.94,-421.39 407.47,-336.15 442,-280 452.92,-262.25 473.24,-251.24 491.72,-244.56"/>
<polygon fill="midnightblue" stroke="midnightblue" points="493.03,-247.81 501.43,-241.36 490.84,-241.16 493.03,-247.81"/>
</g>
<!-- Node8 -->
<g id="node8" class="node">
<title>Node8</title>
<g id="a_node8"><a xlink:href="_double_vec3_d_8h.html" target="_top" xlink:title="Defines the DoubleVec3D class and the functions around it.">
<polygon fill="white" stroke="black" points="702,-56.5 702,-75.5 786,-75.5 786,-56.5 702,-56.5"/>
<text text-anchor="middle" x="744" y="-63.5" font-family="Helvetica,sans-Serif" font-size="10.00">DoubleVec3D.h</text>
</a>
</g>
</g>
<!-- Node2&#45;&gt;Node8 -->
<g id="edge51" class="edge">
<title>Node2&#45;&gt;Node8</title>
<path fill="none" stroke="midnightblue" d="M510.9,-455.32C620.04,-451.09 884.26,-438.36 969,-412 1025.06,-394.56 1084,-405.71 1084,-347 1084,-347 1084,-347 1084,-233 1084,-167.02 1053.75,-147.28 998,-112 965.22,-91.26 860.5,-77.98 796.2,-71.57"/>
<polygon fill="midnightblue" stroke="midnightblue" points="796.54,-68.08 786.25,-70.59 795.86,-75.05 796.54,-68.08"/>
</g>
<!-- Node15 -->
<g id="node15" class="node">
<title>Node15</title>
<g id="a_node15"><a xlink:href="_diffuse_material_8h.html" target="_top" xlink:title="Defines the DiffuseMaterial class.">
<polygon fill="white" stroke="black" points="738.5,-280.5 738.5,-299.5 827.5,-299.5 827.5,-280.5 738.5,-280.5"/>
<text text-anchor="middle" x="783" y="-287.5" font-family="Helvetica,sans-Serif" font-size="10.00">DiffuseMaterial.h</text>
</a>
</g>
</g>
<!-- Node2&#45;&gt;Node15 -->
<g id="edge16" class="edge">
<title>Node2&#45;&gt;Node15</title>
<path fill="none" stroke="midnightblue" d="M508.57,-448.48C540.79,-441.39 584.41,-429.58 620,-412 678.7,-383 738.05,-332.37 766.19,-306.77"/>
<polygon fill="midnightblue" stroke="midnightblue" points="768.9,-309.03 773.88,-299.68 764.16,-303.88 768.9,-309.03"/>
</g>
<!-- Node16 -->
<g id="node16" class="node">
<title>Node16</title>
<g id="a_node16"><a xlink:href="_specular_material_8h.html" target="_top" xlink:title="Defines the SpecularMaterial class.">
<polygon fill="white" stroke="black" points="318,-392.5 318,-411.5 416,-411.5 416,-392.5 318,-392.5"/>
<text text-anchor="middle" x="367" y="-399.5" font-family="Helvetica,sans-Serif" font-size="10.00">SpecularMaterial.h</text>
</a>
</g>
</g>
<!-- Node2&#45;&gt;Node16 -->
<g id="edge22" class="edge">
<title>Node2&#45;&gt;Node16</title>
<path fill="none" stroke="midnightblue" d="M447.58,-448.32C432.46,-439.82 409.18,-426.73 391.53,-416.8"/>
<polygon fill="midnightblue" stroke="midnightblue" points="392.82,-413.51 382.39,-411.65 389.39,-419.61 392.82,-413.51"/>
</g>
<!-- Node17 -->
<g id="node17" class="node">
<title>Node17</title>
<g id="a_node17"><a xlink:href="_object3_d_8h.html" target="_top" xlink:title="Defines the Object3D class and the functions around it.">
<polygon fill="white" stroke="black" points="548.5,-336.5 548.5,-355.5 613.5,-355.5 613.5,-336.5 548.5,-336.5"/>
<text text-anchor="middle" x="581" y="-343.5" font-family="Helvetica,sans-Serif" font-size="10.00">Object3D.h</text>
</a>
</g>
</g>
<!-- Node2&#45;&gt;Node17 -->
<g id="edge38" class="edge">
<title>Node2&#45;&gt;Node17</title>
<path fill="none" stroke="midnightblue" d="M472.26,-448.37C492.16,-429.81 539.26,-385.91 564.44,-362.44"/>
<polygon fill="midnightblue" stroke="midnightblue" points="566.86,-364.97 571.78,-355.59 562.08,-359.85 566.86,-364.97"/>
</g>
<!-- Node18 -->
<g id="node18" class="node">
<title>Node18</title>
<g id="a_node18"><a xlink:href="_refractive_material_8h.html" target="_top" xlink:title="Defines the RefractiveMaterial class.">
<polygon fill="white" stroke="black" points="198.5,-392.5 198.5,-411.5 299.5,-411.5 299.5,-392.5 198.5,-392.5"/>
<text text-anchor="middle" x="249" y="-399.5" font-family="Helvetica,sans-Serif" font-size="10.00">RefractiveMaterial.h</text>
</a>
</g>
</g>
<!-- Node2&#45;&gt;Node18 -->
<g id="edge33" class="edge">
<title>Node2&#45;&gt;Node18</title>
<path fill="none" stroke="midnightblue" d="M429.09,-448.44C392.15,-439.12 332.95,-424.18 292.58,-414"/>
<polygon fill="midnightblue" stroke="midnightblue" points="293.3,-410.57 282.75,-411.52 291.59,-417.36 293.3,-410.57"/>
</g>
<!-- Node19 -->
<g id="node19" class="node">
<title>Node19</title>
<g id="a_node19"><a xlink:href="_sphere_8h.html" target="_top" xlink:title="Defines the Sphere class.">
<polygon fill="white" stroke="black" points="904,-392.5 904,-411.5 960,-411.5 960,-392.5 904,-392.5"/>
<text text-anchor="middle" x="932" y="-399.5" font-family="Helvetica,sans-Serif" font-size="10.00">Sphere.h</text>
</a>
</g>
</g>
<!-- Node2&#45;&gt;Node19 -->
<g id="edge39" class="edge">
<title>Node2&#45;&gt;Node19</title>
<path fill="none" stroke="midnightblue" d="M510.55,-451.53C603.77,-440.79 808.85,-417.18 893.89,-407.39"/>
<polygon fill="midnightblue" stroke="midnightblue" points="894.35,-410.86 903.89,-406.24 893.55,-403.9 894.35,-410.86"/>
</g>
<!-- Node20 -->
<g id="node20" class="node">
<title>Node20</title>
<g id="a_node20"><a xlink:href="_triangle_8h.html" target="_top" xlink:title="Defines the Triangle class.">
<polygon fill="white" stroke="black" points="551.5,-392.5 551.5,-411.5 610.5,-411.5 610.5,-392.5 551.5,-392.5"/>
<text text-anchor="middle" x="581" y="-399.5" font-family="Helvetica,sans-Serif" font-size="10.00">Triangle.h</text>
</a>
</g>
</g>
<!-- Node2&#45;&gt;Node20 -->
<g id="edge46" class="edge">
<title>Node2&#45;&gt;Node20</title>
<path fill="none" stroke="midnightblue" d="M481.7,-448.44C500.94,-439.64 531.15,-425.81 553.2,-415.72"/>
<polygon fill="midnightblue" stroke="midnightblue" points="554.75,-418.86 562.39,-411.52 551.84,-412.5 554.75,-418.86"/>
</g>
<!-- Node7&#45;&gt;Node8 -->
<g id="edge7" class="edge">
<title>Node7&#45;&gt;Node8</title>
<path fill="none" stroke="midnightblue" d="M535.66,-224.22C547.91,-202.02 583.19,-143.19 629,-112 651,-97.02 678.7,-85.99 701.41,-78.6"/>
<polygon fill="midnightblue" stroke="midnightblue" points="702.62,-81.88 711.12,-75.55 700.53,-75.2 702.62,-81.88"/>
</g>
<!-- Node13 -->
<g id="node13" class="node">
<title>Node13</title>
<g id="a_node13"><a xlink:href="_ray_8h.html" target="_top" xlink:title="Defines the Ray class.">
<polygon fill="white" stroke="black" points="586,-168.5 586,-187.5 628,-187.5 628,-168.5 586,-168.5"/>
<text text-anchor="middle" x="607" y="-175.5" font-family="Helvetica,sans-Serif" font-size="10.00">Ray.h</text>
</a>
</g>
</g>
<!-- Node7&#45;&gt;Node13 -->
<g id="edge12" class="edge">
<title>Node7&#45;&gt;Node13</title>
<path fill="none" stroke="midnightblue" d="M543.21,-224.32C554.78,-216.11 572.38,-203.6 586.16,-193.81"/>
<polygon fill="midnightblue" stroke="midnightblue" points="588.44,-196.48 594.57,-187.83 584.39,-190.77 588.44,-196.48"/>
</g>
<!-- Node9 -->
<g id="node9" class="node">
<title>Node9</title>
<g id="a_node9"><a xlink:title=" ">
<polygon fill="white" stroke="#bfbfbf" points="789,-0.5 789,-19.5 843,-19.5 843,-0.5 789,-0.5"/>
<text text-anchor="middle" x="816" y="-7.5" font-family="Helvetica,sans-Serif" font-size="10.00">iostream</text>
</a>
</g>
</g>
<!-- Node8&#45;&gt;Node9 -->
<g id="edge8" class="edge">
<title>Node8&#45;&gt;Node9</title>
<path fill="none" stroke="midnightblue" d="M755.57,-56.32C766.42,-48.18 782.88,-35.84 795.88,-26.09"/>
<polygon fill="midnightblue" stroke="midnightblue" points="798.32,-28.63 804.22,-19.83 794.12,-23.03 798.32,-28.63"/>
</g>
<!-- Node10 -->
<g id="node10" class="node">
<title>Node10</title>
<g id="a_node10"><a xlink:title=" ">
<polygon fill="white" stroke="#bfbfbf" points="1060.5,-0.5 1060.5,-19.5 1107.5,-19.5 1107.5,-0.5 1060.5,-0.5"/>
<text text-anchor="middle" x="1084" y="-7.5" font-family="Helvetica,sans-Serif" font-size="10.00">math.h</text>
</a>
</g>
</g>
<!-- Node8&#45;&gt;Node10 -->
<g id="edge9" class="edge">
<title>Node8&#45;&gt;Node10</title>
<path fill="none" stroke="midnightblue" d="M786.03,-58.32C854.22,-47.49 987.61,-26.31 1050.14,-16.38"/>
<polygon fill="midnightblue" stroke="midnightblue" points="1050.92,-19.8 1060.25,-14.77 1049.82,-12.88 1050.92,-19.8"/>
</g>
<!-- Node11 -->
<g id="node11" class="node">
<title>Node11</title>
<g id="a_node11"><a xlink:title=" ">
<polygon fill="white" stroke="#bfbfbf" points="601,-0.5 601,-19.5 699,-19.5 699,-0.5 601,-0.5"/>
<text text-anchor="middle" x="650" y="-7.5" font-family="Helvetica,sans-Serif" font-size="10.00">nlohmann/json.hpp</text>
</a>
</g>
</g>
<!-- Node8&#45;&gt;Node11 -->
<g id="edge10" class="edge">
<title>Node8&#45;&gt;Node11</title>
<path fill="none" stroke="midnightblue" d="M728.9,-56.32C714.1,-47.82 691.31,-34.73 674.02,-24.8"/>
<polygon fill="midnightblue" stroke="midnightblue" points="675.48,-21.6 665.07,-19.65 671.99,-27.67 675.48,-21.6"/>
</g>
<!-- Node12 -->
<g id="node12" class="node">
<title>Node12</title>
<g id="a_node12"><a xlink:title=" ">
<polygon fill="white" stroke="#bfbfbf" points="717.5,-0.5 717.5,-19.5 770.5,-19.5 770.5,-0.5 717.5,-0.5"/>
<text text-anchor="middle" x="744" y="-7.5" font-family="Helvetica,sans-Serif" font-size="10.00">fbxsdk.h</text>
</a>
</g>
</g>
<!-- Node8&#45;&gt;Node12 -->
<g id="edge11" class="edge">
<title>Node8&#45;&gt;Node12</title>
<path fill="none" stroke="midnightblue" d="M744,-56.08C744,-49.01 744,-38.86 744,-29.99"/>
<polygon fill="midnightblue" stroke="midnightblue" points="747.5,-29.75 744,-19.75 740.5,-29.75 747.5,-29.75"/>
</g>
<!-- Node13&#45;&gt;Node8 -->
<g id="edge13" class="edge">
<title>Node13&#45;&gt;Node8</title>
<path fill="none" stroke="midnightblue" d="M610.98,-168.36C617.6,-154.81 632.04,-128.4 651,-112 667.56,-97.68 689.47,-86.78 707.86,-79.3"/>
<polygon fill="midnightblue" stroke="midnightblue" points="709.34,-82.48 717.39,-75.6 706.8,-75.96 709.34,-82.48"/>
</g>
<!-- Node14 -->
<g id="node14" class="node">
<title>Node14</title>
<g id="a_node14"><a xlink:href="_double_unit_vec3_d_8h.html" target="_top" xlink:title="Defines the DoubleUnitVec3D class and the functions around it.">
<polygon fill="white" stroke="black" points="693.5,-112.5 693.5,-131.5 794.5,-131.5 794.5,-112.5 693.5,-112.5"/>
<text text-anchor="middle" x="744" y="-119.5" font-family="Helvetica,sans-Serif" font-size="10.00">DoubleUnitVec3D.h</text>
</a>
</g>
</g>
<!-- Node13&#45;&gt;Node14 -->
<g id="edge14" class="edge">
<title>Node13&#45;&gt;Node14</title>
<path fill="none" stroke="midnightblue" d="M628.11,-168.68C650.73,-159.76 686.9,-145.51 712.81,-135.29"/>
<polygon fill="midnightblue" stroke="midnightblue" points="714.17,-138.52 722.19,-131.6 711.6,-132.01 714.17,-138.52"/>
</g>
<!-- Node14&#45;&gt;Node8 -->
<g id="edge15" class="edge">
<title>Node14&#45;&gt;Node8</title>
<path fill="none" stroke="midnightblue" d="M744,-112.08C744,-105.01 744,-94.86 744,-85.99"/>
<polygon fill="midnightblue" stroke="midnightblue" points="747.5,-85.75 744,-75.75 740.5,-85.75 747.5,-85.75"/>
</g>
<!-- Node15&#45;&gt;Node7 -->
<g id="edge20" class="edge">
<title>Node15&#45;&gt;Node7</title>
<path fill="none" stroke="midnightblue" d="M743.07,-280.44C695.75,-270.3 617.4,-253.51 570.34,-243.43"/>
<polygon fill="midnightblue" stroke="midnightblue" points="571.02,-240 560.51,-241.32 569.55,-246.84 571.02,-240"/>
</g>
<!-- Node15&#45;&gt;Node8 -->
<g id="edge18" class="edge">
<title>Node15&#45;&gt;Node8</title>
<path fill="none" stroke="midnightblue" d="M787.25,-280.31C799.68,-253.56 833.34,-170.68 804,-112 797.27,-98.54 784.39,-88.07 772.29,-80.62"/>
<polygon fill="midnightblue" stroke="midnightblue" points="773.72,-77.41 763.3,-75.52 770.27,-83.5 773.72,-77.41"/>
</g>
<!-- Node15&#45;&gt;Node10 -->
<g id="edge17" class="edge">
<title>Node15&#45;&gt;Node10</title>
<path fill="none" stroke="midnightblue" d="M792.34,-280.38C835,-240.97 1011.67,-77.81 1067.21,-26.51"/>
<polygon fill="midnightblue" stroke="midnightblue" points="1069.8,-28.88 1074.77,-19.52 1065.05,-23.74 1069.8,-28.88"/>
</g>
<!-- Node15&#45;&gt;Node13 -->
<g id="edge21" class="edge">
<title>Node15&#45;&gt;Node13</title>
<path fill="none" stroke="midnightblue" d="M769.19,-280.37C738.86,-261.41 666.2,-216 629.31,-192.94"/>
<polygon fill="midnightblue" stroke="midnightblue" points="631.08,-189.92 620.75,-187.59 627.37,-195.86 631.08,-189.92"/>
</g>
<!-- Node15&#45;&gt;Node14 -->
<g id="edge19" class="edge">
<title>Node15&#45;&gt;Node14</title>
<path fill="none" stroke="midnightblue" d="M780.9,-280.08C774.76,-253.95 756.74,-177.21 748.36,-141.58"/>
<polygon fill="midnightblue" stroke="midnightblue" points="751.71,-140.5 746.01,-131.57 744.89,-142.1 751.71,-140.5"/>
</g>
<!-- Node16&#45;&gt;Node7 -->
<g id="edge24" class="edge">
<title>Node16&#45;&gt;Node7</title>
<path fill="none" stroke="midnightblue" d="M367.45,-392.38C369.05,-370.55 376.24,-312.54 408,-280 430.18,-257.28 464.77,-245.95 491.62,-240.36"/>
<polygon fill="midnightblue" stroke="midnightblue" points="492.33,-243.78 501.5,-238.48 491.02,-236.91 492.33,-243.78"/>
</g>
<!-- Node16&#45;&gt;Node8 -->
<g id="edge23" class="edge">
<title>Node16&#45;&gt;Node8</title>
<path fill="none" stroke="midnightblue" d="M339.35,-392.42C299.86,-378.23 232,-345.87 232,-291 232,-291 232,-291 232,-177 232,-83.72 560.94,-69.3 691.5,-67.26"/>
<polygon fill="midnightblue" stroke="midnightblue" points="691.71,-70.75 701.67,-67.12 691.62,-63.75 691.71,-70.75"/>
</g>
<!-- Node16&#45;&gt;Node13 -->
<g id="edge32" class="edge">
<title>Node16&#45;&gt;Node13</title>
<path fill="none" stroke="midnightblue" d="M365.87,-392.46C363.53,-370.82 360.47,-313.2 389,-280 438.67,-222.21 528.46,-195.47 575.82,-184.89"/>
<polygon fill="midnightblue" stroke="midnightblue" points="576.75,-188.27 585.8,-182.76 575.29,-181.42 576.75,-188.27"/>
</g>
<!-- Node16&#45;&gt;Node17 -->
<g id="edge25" class="edge">
<title>Node16&#45;&gt;Node17</title>
<path fill="none" stroke="midnightblue" d="M400.91,-392.44C438.18,-383.04 498.1,-367.92 538.48,-357.73"/>
<polygon fill="midnightblue" stroke="midnightblue" points="539.46,-361.09 548.3,-355.25 537.75,-354.3 539.46,-361.09"/>
</g>
<!-- Node17&#45;&gt;Node6 -->
<g id="edge26" class="edge">
<title>Node17&#45;&gt;Node6</title>
<path fill="none" stroke="midnightblue" d="M563.33,-336.32C545.61,-327.62 518.1,-314.12 497.71,-304.11"/>
<polygon fill="midnightblue" stroke="midnightblue" points="499.15,-300.92 488.63,-299.65 496.06,-307.2 499.15,-300.92"/>
</g>
<!-- Node17&#45;&gt;Node7 -->
<g id="edge30" class="edge">
<title>Node17&#45;&gt;Node7</title>
<path fill="none" stroke="midnightblue" d="M577.08,-336.37C568.93,-318.46 550.06,-276.92 539.16,-252.95"/>
<polygon fill="midnightblue" stroke="midnightblue" points="542.23,-251.25 534.91,-243.59 535.86,-254.14 542.23,-251.25"/>
</g>
<!-- Node17&#45;&gt;Node8 -->
<g id="edge28" class="edge">
<title>Node17&#45;&gt;Node8</title>
<path fill="none" stroke="midnightblue" d="M585.33,-336.43C589.85,-327.41 597.09,-312.79 603,-300 641.25,-217.26 628.73,-183.72 685,-112 694.63,-99.72 708.36,-88.99 720.15,-81.09"/>
<polygon fill="midnightblue" stroke="midnightblue" points="722.15,-83.96 728.68,-75.62 718.38,-78.07 722.15,-83.96"/>
</g>
<!-- Node17&#45;&gt;Node13 -->
<g id="edge31" class="edge">
<title>Node17&#45;&gt;Node13</title>
<path fill="none" stroke="midnightblue" d="M582.4,-336.08C586.49,-309.95 598.51,-233.21 604.09,-197.58"/>
<polygon fill="midnightblue" stroke="midnightblue" points="607.57,-197.99 605.66,-187.57 600.65,-196.91 607.57,-197.99"/>
</g>
<!-- Node17&#45;&gt;Node14 -->
<g id="edge29" class="edge">
<title>Node17&#45;&gt;Node14</title>
<path fill="none" stroke="midnightblue" d="M598.35,-336.37C612.95,-328.44 633.69,-315.59 648,-300 693.43,-250.5 724.75,-175.56 737.55,-141.28"/>
<polygon fill="midnightblue" stroke="midnightblue" points="740.92,-142.25 741.05,-131.66 734.34,-139.86 740.92,-142.25"/>
</g>
<!-- Node17&#45;&gt;Node15 -->
<g id="edge27" class="edge">
<title>Node17&#45;&gt;Node15</title>
<path fill="none" stroke="midnightblue" d="M613.01,-336.44C647.73,-327.16 703.29,-312.31 741.38,-302.13"/>
<polygon fill="midnightblue" stroke="midnightblue" points="742.39,-305.48 751.14,-299.52 740.58,-298.72 742.39,-305.48"/>
</g>
<!-- Node18&#45;&gt;Node7 -->
<g id="edge35" class="edge">
<title>Node18&#45;&gt;Node7</title>
<path fill="none" stroke="midnightblue" d="M256.61,-392.33C276.32,-370.4 331.52,-312.14 389,-280 421.31,-261.94 461.87,-250.01 491.37,-243"/>
<polygon fill="midnightblue" stroke="midnightblue" points="492.34,-246.36 501.31,-240.72 490.78,-239.54 492.34,-246.36"/>
</g>
<!-- Node18&#45;&gt;Node8 -->
<g id="edge34" class="edge">
<title>Node18&#45;&gt;Node8</title>
<path fill="none" stroke="midnightblue" d="M241.12,-392.33C225.91,-374.67 194,-332.64 194,-291 194,-291 194,-291 194,-177 194,-134.54 225.25,-129.35 264,-112 339.39,-78.25 583.88,-69.79 691.89,-67.69"/>
<polygon fill="midnightblue" stroke="midnightblue" points="691.97,-71.19 701.9,-67.5 691.84,-64.19 691.97,-71.19"/>
</g>
<!-- Node18&#45;&gt;Node13 -->
<g id="edge37" class="edge">
<title>Node18&#45;&gt;Node13</title>
<path fill="none" stroke="midnightblue" d="M253.1,-392.38C259.57,-379.32 273.06,-354.1 289,-336 341.44,-276.46 356.99,-259.38 428,-224 476.42,-199.87 538.83,-188 575.72,-182.71"/>
<polygon fill="midnightblue" stroke="midnightblue" points="576.42,-186.14 585.86,-181.33 575.47,-179.21 576.42,-186.14"/>
</g>
<!-- Node18&#45;&gt;Node17 -->
<g id="edge36" class="edge">
<title>Node18&#45;&gt;Node17</title>
<path fill="none" stroke="midnightblue" d="M299.79,-392.74C365.04,-382.13 477.15,-363.89 538.25,-353.95"/>
<polygon fill="midnightblue" stroke="midnightblue" points="539.02,-357.37 548.33,-352.31 537.89,-350.47 539.02,-357.37"/>
</g>
<!-- Node19&#45;&gt;Node7 -->
<g id="edge43" class="edge">
<title>Node19&#45;&gt;Node7</title>
<path fill="none" stroke="midnightblue" d="M911.28,-392.42C845.15,-365.05 638.87,-279.65 561.09,-247.45"/>
<polygon fill="midnightblue" stroke="midnightblue" points="562.41,-244.21 551.83,-243.62 559.73,-250.68 562.41,-244.21"/>
</g>
<!-- Node19&#45;&gt;Node8 -->
<g id="edge41" class="edge">
<title>Node19&#45;&gt;Node8</title>
<path fill="none" stroke="midnightblue" d="M943.54,-392.43C964.8,-375.57 1008,-335.8 1008,-291 1008,-291 1008,-291 1008,-177 1008,-86.3 873.6,-69.03 796.59,-66.58"/>
<polygon fill="midnightblue" stroke="midnightblue" points="796.21,-63.07 786.12,-66.33 796.04,-70.07 796.21,-63.07"/>
</g>
<!-- Node19&#45;&gt;Node10 -->
<g id="edge40" class="edge">
<title>Node19&#45;&gt;Node10</title>
<path fill="none" stroke="midnightblue" d="M948.2,-392.39C994.15,-366.67 1122,-285.53 1122,-179 1122,-179 1122,-179 1122,-121 1122,-86.81 1105.4,-49.76 1094.14,-28.57"/>
<polygon fill="midnightblue" stroke="midnightblue" points="1097.18,-26.83 1089.28,-19.77 1091.05,-30.22 1097.18,-26.83"/>
</g>
<!-- Node19&#45;&gt;Node13 -->
<g id="edge45" class="edge">
<title>Node19&#45;&gt;Node13</title>
<path fill="none" stroke="midnightblue" d="M927.16,-392.18C914.82,-370.4 880.06,-313.38 837,-280 774.36,-231.43 684.73,-200.92 638.01,-187.3"/>
<polygon fill="midnightblue" stroke="midnightblue" points="638.75,-183.88 628.18,-184.5 636.84,-190.61 638.75,-183.88"/>
</g>
<!-- Node19&#45;&gt;Node14 -->
<g id="edge42" class="edge">
<title>Node19&#45;&gt;Node14</title>
<path fill="none" stroke="midnightblue" d="M929.97,-392.12C921.84,-358.42 888.6,-236.86 818,-168 804.67,-155 786.91,-144.04 772.14,-136.2"/>
<polygon fill="midnightblue" stroke="midnightblue" points="773.43,-132.93 762.93,-131.5 770.25,-139.16 773.43,-132.93"/>
</g>
<!-- Node19&#45;&gt;Node17 -->
<g id="edge44" class="edge">
<title>Node19&#45;&gt;Node17</title>
<path fill="none" stroke="midnightblue" d="M903.87,-396.67C842.55,-387.24 696.5,-364.77 623.73,-353.57"/>
<polygon fill="midnightblue" stroke="midnightblue" points="623.96,-350.07 613.55,-352.01 622.9,-356.99 623.96,-350.07"/>
</g>
<!-- Node20&#45;&gt;Node7 -->
<g id="edge49" class="edge">
<title>Node20&#45;&gt;Node7</title>
<path fill="none" stroke="midnightblue" d="M569.73,-392.38C559.97,-384.2 546.44,-370.95 540,-356 525.47,-322.26 526.56,-278.34 528.73,-253.77"/>
<polygon fill="midnightblue" stroke="midnightblue" points="532.23,-253.97 529.79,-243.66 525.27,-253.25 532.23,-253.97"/>
</g>
<!-- Node20&#45;&gt;Node8 -->
<g id="edge47" class="edge">
<title>Node20&#45;&gt;Node8</title>
<path fill="none" stroke="midnightblue" d="M610.66,-400.43C654.79,-398.41 739.17,-390 801,-356 831.3,-339.34 842.06,-332.06 855,-300 886.78,-221.26 873.34,-178.86 821,-112 809.78,-97.66 792.62,-87 777.34,-79.67"/>
<polygon fill="midnightblue" stroke="midnightblue" points="778.7,-76.44 768.15,-75.52 775.83,-82.82 778.7,-76.44"/>
</g>
<!-- Node20&#45;&gt;Node14 -->
<g id="edge48" class="edge">
<title>Node20&#45;&gt;Node14</title>
<path fill="none" stroke="midnightblue" d="M610.89,-399.48C666.58,-394.83 785.26,-376.04 837,-300 875.31,-243.7 800.3,-169.76 763.15,-138.26"/>
<polygon fill="midnightblue" stroke="midnightblue" points="765.36,-135.56 755.43,-131.87 760.9,-140.95 765.36,-135.56"/>
</g>
<!-- Node20&#45;&gt;Node17 -->
<g id="edge50" class="edge">
<title>Node20&#45;&gt;Node17</title>
<path fill="none" stroke="midnightblue" d="M581,-392.08C581,-385.01 581,-374.86 581,-365.99"/>
<polygon fill="midnightblue" stroke="midnightblue" points="584.5,-365.75 581,-355.75 577.5,-365.75 584.5,-365.75"/>
</g>
</g>
</svg>
