<?xml version="1.0" encoding="UTF-8" standalone="no"?>
<!DOCTYPE svg PUBLIC "-//W3C//DTD SVG 1.1//EN"
 "http://www.w3.org/Graphics/SVG/1.1/DTD/svg11.dtd">
<!-- Generated by graphviz version 2.44.1 (20200629.0800)
 -->
<!-- Title: D:/PathTracer/PathTracer/InterfaceGestion.h Pages: 1 -->
<svg width="515pt" height="95pt"
 viewBox="0.00 0.00 514.50 95.00" xmlns="http://www.w3.org/2000/svg" xmlns:xlink="http://www.w3.org/1999/xlink">
<g id="graph0" class="graph" transform="scale(1 1) rotate(0) translate(4 91)">
<title>D:/PathTracer/PathTracer/InterfaceGestion.h</title>
<polygon fill="white" stroke="transparent" points="-4,4 -4,-91 510.5,-91 510.5,4 -4,4"/>
<!-- Node1 -->
<g id="node1" class="node">
<title>Node1</title>
<g id="a_node1"><a xlink:title="Defines functions that are used when drawing the interface.">
<polygon fill="#bfbfbf" stroke="black" points="162.5,-56.5 162.5,-86.5 289.5,-86.5 289.5,-56.5 162.5,-56.5"/>
<text text-anchor="start" x="170.5" y="-74.5" font-family="Helvetica,sans-Serif" font-size="10.00">D:/PathTracer/PathTracer</text>
<text text-anchor="middle" x="226" y="-63.5" font-family="Helvetica,sans-Serif" font-size="10.00">/InterfaceGestion.h</text>
</a>
</g>
</g>
<!-- Node2 -->
<g id="node2" class="node">
<title>Node2</title>
<g id="a_node2"><a xlink:title=" ">
<polygon fill="white" stroke="#bfbfbf" points="0,-0.5 0,-19.5 46,-19.5 46,-0.5 0,-0.5"/>
<text text-anchor="middle" x="23" y="-7.5" font-family="Helvetica,sans-Serif" font-size="10.00">chrono</text>
</a>
</g>
</g>
<!-- Node1&#45;&gt;Node2 -->
<g id="edge1" class="edge">
<title>Node1&#45;&gt;Node2</title>
<path fill="none" stroke="midnightblue" d="M178.15,-56.47C140.44,-45.42 88.86,-30.3 55.73,-20.59"/>
<polygon fill="midnightblue" stroke="midnightblue" points="56.66,-17.22 46.08,-17.76 54.69,-23.94 56.66,-17.22"/>
</g>
<!-- Node3 -->
<g id="node3" class="node">
<title>Node3</title>
<g id="a_node3"><a xlink:title=" ">
<polygon fill="white" stroke="#bfbfbf" points="64.5,-0.5 64.5,-19.5 113.5,-19.5 113.5,-0.5 64.5,-0.5"/>
<text text-anchor="middle" x="89" y="-7.5" font-family="Helvetica,sans-Serif" font-size="10.00">fstream</text>
</a>
</g>
</g>
<!-- Node1&#45;&gt;Node3 -->
<g id="edge2" class="edge">
<title>Node1&#45;&gt;Node3</title>
<path fill="none" stroke="midnightblue" d="M193.53,-56.4C170.65,-46.46 140.27,-33.26 118.16,-23.66"/>
<polygon fill="midnightblue" stroke="midnightblue" points="119.5,-20.43 108.93,-19.66 116.71,-26.85 119.5,-20.43"/>
</g>
<!-- Node4 -->
<g id="node4" class="node">
<title>Node4</title>
<g id="a_node4"><a xlink:title=" ">
<polygon fill="white" stroke="#bfbfbf" points="131.5,-0.5 131.5,-19.5 180.5,-19.5 180.5,-0.5 131.5,-0.5"/>
<text text-anchor="middle" x="156" y="-7.5" font-family="Helvetica,sans-Serif" font-size="10.00">random</text>
</a>
</g>
</g>
<!-- Node1&#45;&gt;Node4 -->
<g id="edge3" class="edge">
<title>Node1&#45;&gt;Node4</title>
<path fill="none" stroke="midnightblue" d="M209.41,-56.4C198.71,-47.31 184.81,-35.49 173.87,-26.19"/>
<polygon fill="midnightblue" stroke="midnightblue" points="176.07,-23.47 166.19,-19.66 171.54,-28.8 176.07,-23.47"/>
</g>
<!-- Node5 -->
<g id="node5" class="node">
<title>Node5</title>
<g id="a_node5"><a xlink:title=" ">
<polygon fill="white" stroke="#bfbfbf" points="199,-0.5 199,-19.5 253,-19.5 253,-0.5 199,-0.5"/>
<text text-anchor="middle" x="226" y="-7.5" font-family="Helvetica,sans-Serif" font-size="10.00">iostream</text>
</a>
</g>
</g>
<!-- Node1&#45;&gt;Node5 -->
<g id="edge4" class="edge">
<title>Node1&#45;&gt;Node5</title>
<path fill="none" stroke="midnightblue" d="M226,-56.4C226,-48.47 226,-38.46 226,-29.86"/>
<polygon fill="midnightblue" stroke="midnightblue" points="229.5,-29.66 226,-19.66 222.5,-29.66 229.5,-29.66"/>
</g>
<!-- Node6 -->
<g id="node6" class="node">
<title>Node6</title>
<g id="a_node6"><a xlink:title=" ">
<polygon fill="white" stroke="#bfbfbf" points="271.5,-0.5 271.5,-19.5 318.5,-19.5 318.5,-0.5 271.5,-0.5"/>
<text text-anchor="middle" x="295" y="-7.5" font-family="Helvetica,sans-Serif" font-size="10.00">math.h</text>
</a>
</g>
</g>
<!-- Node1&#45;&gt;Node6 -->
<g id="edge5" class="edge">
<title>Node1&#45;&gt;Node6</title>
<path fill="none" stroke="midnightblue" d="M242.35,-56.4C252.9,-47.31 266.6,-35.49 277.38,-26.19"/>
<polygon fill="midnightblue" stroke="midnightblue" points="279.67,-28.84 284.96,-19.66 275.1,-23.54 279.67,-28.84"/>
</g>
<!-- Node7 -->
<g id="node7" class="node">
<title>Node7</title>
<g id="a_node7"><a xlink:title=" ">
<polygon fill="white" stroke="#bfbfbf" points="337,-0.5 337,-19.5 435,-19.5 435,-0.5 337,-0.5"/>
<text text-anchor="middle" x="386" y="-7.5" font-family="Helvetica,sans-Serif" font-size="10.00">nlohmann/json.hpp</text>
</a>
</g>
</g>
<!-- Node1&#45;&gt;Node7 -->
<g id="edge6" class="edge">
<title>Node1&#45;&gt;Node7</title>
<path fill="none" stroke="midnightblue" d="M263.92,-56.4C291.12,-46.28 327.4,-32.79 353.33,-23.15"/>
<polygon fill="midnightblue" stroke="midnightblue" points="354.57,-26.42 362.72,-19.66 352.13,-19.86 354.57,-26.42"/>
</g>
<!-- Node8 -->
<g id="node8" class="node">
<title>Node8</title>
<g id="a_node8"><a xlink:title=" ">
<polygon fill="white" stroke="#bfbfbf" points="453.5,-0.5 453.5,-19.5 506.5,-19.5 506.5,-0.5 453.5,-0.5"/>
<text text-anchor="middle" x="480" y="-7.5" font-family="Helvetica,sans-Serif" font-size="10.00">fbxsdk.h</text>
</a>
</g>
</g>
<!-- Node1&#45;&gt;Node8 -->
<g id="edge7" class="edge">
<title>Node1&#45;&gt;Node8</title>
<path fill="none" stroke="midnightblue" d="M288.09,-56.42C329.44,-46.97 385.24,-34.09 443.52,-20.08"/>
<polygon fill="midnightblue" stroke="midnightblue" points="444.37,-23.48 453.28,-17.74 442.73,-16.67 444.37,-23.48"/>
</g>
</g>
</svg>
