<?xml version="1.0" encoding="UTF-8" standalone="no"?>
<!DOCTYPE svg PUBLIC "-//W3C//DTD SVG 1.1//EN"
 "http://www.w3.org/Graphics/SVG/1.1/DTD/svg11.dtd">
<!-- Generated by graphviz version 2.44.1 (20200629.0800)
 -->
<!-- Title: D:/PathTracer/PathTracer/Interface.cpp Pages: 1 -->
<!--zoomable 767 -->
<svg id="main" version="1.1" xmlns="http://www.w3.org/2000/svg" xmlns:xlink="http://www.w3.org/1999/xlink" xml:space="preserve" onload="init(evt)">
<style type="text/css"><![CDATA[
.edge:hover path { stroke: red; }
.edge:hover polygon { stroke: red; fill: red; }
]]></style>
<script type="text/javascript"><![CDATA[
var edges = document.getElementsByTagName('g');
if (edges && edges.length) {
  for (var i=0;i<edges.length;i++) {
    if (edges[i].id.substr(0,4)=='edge') {
      edges[i].setAttribute('class','edge');
    }
  }
}
]]></script>
        <defs>
                <circle id="rim" cx="0" cy="0" r="7"/>
                <circle id="rim2" cx="0" cy="0" r="3.5"/>
                <g id="zoomPlus">
                        <use xlink:href="#rim" fill="#404040">
                                <set attributeName="fill" to="#808080" begin="zoomplus.mouseover" end="zoomplus.mouseout"/>
                        </use>
                        <path d="M-4,0h8M0,-4v8" fill="none" stroke="white" stroke-width="1.5" pointer-events="none"/>
                </g>
                <g id="zoomMin">
                        <use xlink:href="#rim" fill="#404040">
                                <set attributeName="fill" to="#808080" begin="zoomminus.mouseover" end="zoomminus.mouseout"/>
                        </use>
                        <path d="M-4,0h8" fill="none" stroke="white" stroke-width="1.5" pointer-events="none"/>
                </g>
                <g id="dirArrow">
                        <path fill="none" stroke="white" stroke-width="1.5" d="M0,-3.0v7 M-2.5,-0.5L0,-3.0L2.5,-0.5"/>
                </g>
               <g id="resetDef">
                       <use xlink:href="#rim2" fill="#404040">
                               <set attributeName="fill" to="#808080" begin="reset.mouseover" end="reset.mouseout"/>
                       </use>
               </g>
        </defs>

<script type="text/javascript">
var viewWidth = 995;
var viewHeight = 767;
var sectionId = 'dynsection-0';
</script>
<script xlink:href="svgpan.js"/>
<svg id="graph" class="graph">
<g id="viewport">
<title>D:/PathTracer/PathTracer/Interface.cpp</title>
<polygon fill="white" stroke="transparent" points="-4,4 -4,-763 990.5,-763 990.5,4 -4,4"/>
<!-- Node1 -->
<g id="node1" class="node">
<title>Node1</title>
<g id="a_node1"><a xlink:title=" ">
<polygon fill="#bfbfbf" stroke="black" points="386,-728.5 386,-758.5 513,-758.5 513,-728.5 386,-728.5"/>
<text text-anchor="start" x="394" y="-746.5" font-family="Helvetica,sans-Serif" font-size="10.00">D:/PathTracer/PathTracer</text>
<text text-anchor="middle" x="449.5" y="-735.5" font-family="Helvetica,sans-Serif" font-size="10.00">/Interface.cpp</text>
</a>
</g>
</g>
<!-- Node2 -->
<g id="node2" class="node">
<title>Node2</title>
<g id="a_node2"><a xlink:href="_interface_8h.html" target="_top" xlink:title="Defines some functions for the interface.">
<polygon fill="white" stroke="black" points="418.5,-672.5 418.5,-691.5 480.5,-691.5 480.5,-672.5 418.5,-672.5"/>
<text text-anchor="middle" x="449.5" y="-679.5" font-family="Helvetica,sans-Serif" font-size="10.00">Interface.h</text>
</a>
</g>
</g>
<!-- Node1&#45;&gt;Node2 -->
<g id="edge1" class="edge">
<title>Node1&#45;&gt;Node2</title>
<path fill="none" stroke="midnightblue" d="M449.5,-728.4C449.5,-720.47 449.5,-710.46 449.5,-701.86"/>
<polygon fill="midnightblue" stroke="midnightblue" points="453,-701.66 449.5,-691.66 446,-701.66 453,-701.66"/>
</g>
<!-- Node3 -->
<g id="node3" class="node">
<title>Node3</title>
<g id="a_node3"><a xlink:href="_scene_8h.html" target="_top" xlink:title="Defines the Scene class and the functions around it.">
<polygon fill="white" stroke="black" points="423,-616.5 423,-635.5 476,-635.5 476,-616.5 423,-616.5"/>
<text text-anchor="middle" x="449.5" y="-623.5" font-family="Helvetica,sans-Serif" font-size="10.00">Scene.h</text>
</a>
</g>
</g>
<!-- Node2&#45;&gt;Node3 -->
<g id="edge2" class="edge">
<title>Node2&#45;&gt;Node3</title>
<path fill="none" stroke="midnightblue" d="M449.5,-672.08C449.5,-665.01 449.5,-654.86 449.5,-645.99"/>
<polygon fill="midnightblue" stroke="midnightblue" points="453,-645.75 449.5,-635.75 446,-645.75 453,-645.75"/>
</g>
<!-- Node4 -->
<g id="node4" class="node">
<title>Node4</title>
<g id="a_node4"><a xlink:title=" ">
<polygon fill="white" stroke="#bfbfbf" points="27.5,-560.5 27.5,-579.5 71.5,-579.5 71.5,-560.5 27.5,-560.5"/>
<text text-anchor="middle" x="49.5" y="-567.5" font-family="Helvetica,sans-Serif" font-size="10.00">omp.h</text>
</a>
</g>
</g>
<!-- Node3&#45;&gt;Node4 -->
<g id="edge3" class="edge">
<title>Node3&#45;&gt;Node4</title>
<path fill="none" stroke="midnightblue" d="M422.84,-622.83C362.44,-617.66 210.7,-603.3 85.5,-580 84.25,-579.77 82.99,-579.52 81.71,-579.26"/>
<polygon fill="midnightblue" stroke="midnightblue" points="82.4,-575.82 71.88,-577.04 80.86,-582.65 82.4,-575.82"/>
</g>
<!-- Node5 -->
<g id="node5" class="node">
<title>Node5</title>
<g id="a_node5"><a xlink:href="_double_matrix33_8h.html" target="_top" xlink:title="Defines the DoubleMatrix33 class and the functions around it.">
<polygon fill="white" stroke="black" points="513.5,-392.5 513.5,-411.5 605.5,-411.5 605.5,-392.5 513.5,-392.5"/>
<text text-anchor="middle" x="559.5" y="-399.5" font-family="Helvetica,sans-Serif" font-size="10.00">DoubleMatrix33.h</text>
</a>
</g>
</g>
<!-- Node3&#45;&gt;Node5 -->
<g id="edge4" class="edge">
<title>Node3&#45;&gt;Node5</title>
<path fill="none" stroke="midnightblue" d="M469.82,-616.39C500.27,-602.23 556.57,-570.85 579.5,-524 596.04,-490.2 580.21,-445.39 568.82,-420.89"/>
<polygon fill="midnightblue" stroke="midnightblue" points="571.87,-419.16 564.32,-411.72 565.58,-422.24 571.87,-419.16"/>
</g>
<!-- Node14 -->
<g id="node14" class="node">
<title>Node14</title>
<g id="a_node14"><a xlink:title=" ">
<polygon fill="white" stroke="#bfbfbf" points="607,-0.5 607,-19.5 660,-19.5 660,-0.5 607,-0.5"/>
<text text-anchor="middle" x="633.5" y="-7.5" font-family="Helvetica,sans-Serif" font-size="10.00">fbxsdk.h</text>
</a>
</g>
</g>
<!-- Node3&#45;&gt;Node14 -->
<g id="edge43" class="edge">
<title>Node3&#45;&gt;Node14</title>
<path fill="none" stroke="midnightblue" d="M476.29,-621.75C528,-613.83 636.5,-588.45 636.5,-515 636.5,-515 636.5,-515 636.5,-121 636.5,-88.94 635.21,-51.63 634.32,-29.74"/>
<polygon fill="midnightblue" stroke="midnightblue" points="637.81,-29.4 633.89,-19.56 630.82,-29.69 637.81,-29.4"/>
</g>
<!-- Node15 -->
<g id="node15" class="node">
<title>Node15</title>
<g id="a_node15"><a xlink:href="_k_d_tree_node_8h.html" target="_top" xlink:title="Defines the KDTreeNode class and the functions around it.">
<polygon fill="white" stroke="black" points="316.5,-560.5 316.5,-579.5 396.5,-579.5 396.5,-560.5 316.5,-560.5"/>
<text text-anchor="middle" x="356.5" y="-567.5" font-family="Helvetica,sans-Serif" font-size="10.00">KDTreeNode.h</text>
</a>
</g>
</g>
<!-- Node3&#45;&gt;Node15 -->
<g id="edge14" class="edge">
<title>Node3&#45;&gt;Node15</title>
<path fill="none" stroke="midnightblue" d="M434.56,-616.32C419.91,-607.82 397.37,-594.73 380.26,-584.8"/>
<polygon fill="midnightblue" stroke="midnightblue" points="381.81,-581.65 371.4,-579.65 378.3,-587.7 381.81,-581.65"/>
</g>
<!-- Node27 -->
<g id="node27" class="node">
<title>Node27</title>
<g id="a_node27"><a xlink:href="_object3_d_group_8h.html" target="_top" xlink:title="Defines the Object3DGroup class and the functions around it.">
<polygon fill="white" stroke="black" points="203.5,-560.5 203.5,-579.5 295.5,-579.5 295.5,-560.5 203.5,-560.5"/>
<text text-anchor="middle" x="249.5" y="-567.5" font-family="Helvetica,sans-Serif" font-size="10.00">Object3DGroup.h</text>
</a>
</g>
</g>
<!-- Node3&#45;&gt;Node27 -->
<g id="edge33" class="edge">
<title>Node3&#45;&gt;Node27</title>
<path fill="none" stroke="midnightblue" d="M422.94,-617.83C389.22,-608.72 330.66,-592.91 291.01,-582.21"/>
<polygon fill="midnightblue" stroke="midnightblue" points="291.69,-578.76 281.12,-579.54 289.86,-585.52 291.69,-578.76"/>
</g>
<!-- Node29 -->
<g id="node29" class="node">
<title>Node29</title>
<g id="a_node29"><a xlink:href="_perspective_camera_8h.html" target="_top" xlink:title="Defines the PerspectiveCamera class.">
<polygon fill="white" stroke="black" points="0,-280.5 0,-299.5 109,-299.5 109,-280.5 0,-280.5"/>
<text text-anchor="middle" x="54.5" y="-287.5" font-family="Helvetica,sans-Serif" font-size="10.00">PerspectiveCamera.h</text>
</a>
</g>
</g>
<!-- Node3&#45;&gt;Node29 -->
<g id="edge36" class="edge">
<title>Node3&#45;&gt;Node29</title>
<path fill="none" stroke="midnightblue" d="M422.91,-622.44C341.23,-613.87 99.5,-582.75 99.5,-515 99.5,-515 99.5,-515 99.5,-401 99.5,-365.93 79.66,-328.94 66.33,-308.04"/>
<polygon fill="midnightblue" stroke="midnightblue" points="69.2,-306.03 60.76,-299.63 63.37,-309.9 69.2,-306.03"/>
</g>
<!-- Node30 -->
<g id="node30" class="node">
<title>Node30</title>
<g id="a_node30"><a xlink:href="_picture_8h.html" target="_top" xlink:title="Defines the Picture class and the functions around it.">
<polygon fill="white" stroke="black" points="421.5,-560.5 421.5,-579.5 477.5,-579.5 477.5,-560.5 421.5,-560.5"/>
<text text-anchor="middle" x="449.5" y="-567.5" font-family="Helvetica,sans-Serif" font-size="10.00">Picture.h</text>
</a>
</g>
</g>
<!-- Node3&#45;&gt;Node30 -->
<g id="edge38" class="edge">
<title>Node3&#45;&gt;Node30</title>
<path fill="none" stroke="midnightblue" d="M449.5,-616.08C449.5,-609.01 449.5,-598.86 449.5,-589.99"/>
<polygon fill="midnightblue" stroke="midnightblue" points="453,-589.75 449.5,-579.75 446,-589.75 453,-589.75"/>
</g>
<!-- Node34 -->
<g id="node34" class="node">
<title>Node34</title>
<g id="a_node34"><a xlink:title=" ">
<polygon fill="white" stroke="#bfbfbf" points="664.5,-560.5 664.5,-579.5 798.5,-579.5 798.5,-560.5 664.5,-560.5"/>
<text text-anchor="middle" x="731.5" y="-567.5" font-family="Helvetica,sans-Serif" font-size="10.00">fbxsdk/fileio/fbxiosettings.h</text>
</a>
</g>
</g>
<!-- Node3&#45;&gt;Node34 -->
<g id="edge44" class="edge">
<title>Node3&#45;&gt;Node34</title>
<path fill="none" stroke="midnightblue" d="M476.03,-619.92C521.78,-611.16 616.41,-593.04 676.78,-581.48"/>
<polygon fill="midnightblue" stroke="midnightblue" points="677.73,-584.86 686.89,-579.54 676.41,-577.99 677.73,-584.86"/>
</g>
<!-- Node35 -->
<g id="node35" class="node">
<title>Node35</title>
<g id="a_node35"><a xlink:title=" ">
<polygon fill="white" stroke="#bfbfbf" points="816.5,-560.5 816.5,-579.5 986.5,-579.5 986.5,-560.5 816.5,-560.5"/>
<text text-anchor="middle" x="901.5" y="-567.5" font-family="Helvetica,sans-Serif" font-size="10.00">fbxsdk/utils/fbxgeometryconverter.h</text>
</a>
</g>
</g>
<!-- Node3&#45;&gt;Node35 -->
<g id="edge45" class="edge">
<title>Node3&#45;&gt;Node35</title>
<path fill="none" stroke="midnightblue" d="M476.09,-621.82C542.2,-613.93 716.16,-593.14 820.01,-580.74"/>
<polygon fill="midnightblue" stroke="midnightblue" points="820.63,-584.19 830.15,-579.52 819.8,-577.24 820.63,-584.19"/>
</g>
<!-- Node6 -->
<g id="node6" class="node">
<title>Node6</title>
<g id="a_node6"><a xlink:href="_double_vec3_d_8h.html" target="_top" xlink:title="Defines the DoubleVec3D class and the functions around it.">
<polygon fill="white" stroke="black" points="352.5,-112.5 352.5,-131.5 436.5,-131.5 436.5,-112.5 352.5,-112.5"/>
<text text-anchor="middle" x="394.5" y="-119.5" font-family="Helvetica,sans-Serif" font-size="10.00">DoubleVec3D.h</text>
</a>
</g>
</g>
<!-- Node5&#45;&gt;Node6 -->
<g id="edge5" class="edge">
<title>Node5&#45;&gt;Node6</title>
<path fill="none" stroke="midnightblue" d="M557.93,-392.48C554.68,-374.04 547.5,-329.04 547.5,-291 547.5,-291 547.5,-291 547.5,-233 547.5,-199.76 535.67,-189.71 510.5,-168 491.99,-152.03 467.17,-141.39 445.25,-134.48"/>
<polygon fill="midnightblue" stroke="midnightblue" points="445.99,-131.05 435.41,-131.57 444,-137.76 445.99,-131.05"/>
</g>
<!-- Node7 -->
<g id="node7" class="node">
<title>Node7</title>
<g id="a_node7"><a xlink:href="_interface_gestion_8h.html" target="_top" xlink:title="Defines functions that are used when drawing the interface.">
<polygon fill="white" stroke="black" points="347,-56.5 347,-75.5 442,-75.5 442,-56.5 347,-56.5"/>
<text text-anchor="middle" x="394.5" y="-63.5" font-family="Helvetica,sans-Serif" font-size="10.00">InterfaceGestion.h</text>
</a>
</g>
</g>
<!-- Node6&#45;&gt;Node7 -->
<g id="edge6" class="edge">
<title>Node6&#45;&gt;Node7</title>
<path fill="none" stroke="midnightblue" d="M394.5,-112.08C394.5,-105.01 394.5,-94.86 394.5,-85.99"/>
<polygon fill="midnightblue" stroke="midnightblue" points="398,-85.75 394.5,-75.75 391,-85.75 398,-85.75"/>
</g>
<!-- Node8 -->
<g id="node8" class="node">
<title>Node8</title>
<g id="a_node8"><a xlink:title=" ">
<polygon fill="white" stroke="#bfbfbf" points="462.5,-0.5 462.5,-19.5 508.5,-19.5 508.5,-0.5 462.5,-0.5"/>
<text text-anchor="middle" x="485.5" y="-7.5" font-family="Helvetica,sans-Serif" font-size="10.00">chrono</text>
</a>
</g>
</g>
<!-- Node7&#45;&gt;Node8 -->
<g id="edge7" class="edge">
<title>Node7&#45;&gt;Node8</title>
<path fill="none" stroke="midnightblue" d="M409.12,-56.32C423.45,-47.82 445.51,-34.73 462.25,-24.8"/>
<polygon fill="midnightblue" stroke="midnightblue" points="464.1,-27.77 470.92,-19.65 460.53,-21.75 464.1,-27.77"/>
</g>
<!-- Node9 -->
<g id="node9" class="node">
<title>Node9</title>
<g id="a_node9"><a xlink:title=" ">
<polygon fill="white" stroke="#bfbfbf" points="527,-0.5 527,-19.5 576,-19.5 576,-0.5 527,-0.5"/>
<text text-anchor="middle" x="551.5" y="-7.5" font-family="Helvetica,sans-Serif" font-size="10.00">fstream</text>
</a>
</g>
</g>
<!-- Node7&#45;&gt;Node9 -->
<g id="edge8" class="edge">
<title>Node7&#45;&gt;Node9</title>
<path fill="none" stroke="midnightblue" d="M419.38,-56.44C445.87,-47.33 487.96,-32.85 517.5,-22.69"/>
<polygon fill="midnightblue" stroke="midnightblue" points="518.68,-25.99 527,-19.43 516.4,-19.37 518.68,-25.99"/>
</g>
<!-- Node10 -->
<g id="node10" class="node">
<title>Node10</title>
<g id="a_node10"><a xlink:title=" ">
<polygon fill="white" stroke="#bfbfbf" points="141,-0.5 141,-19.5 190,-19.5 190,-0.5 141,-0.5"/>
<text text-anchor="middle" x="165.5" y="-7.5" font-family="Helvetica,sans-Serif" font-size="10.00">random</text>
</a>
</g>
</g>
<!-- Node7&#45;&gt;Node10 -->
<g id="edge9" class="edge">
<title>Node7&#45;&gt;Node10</title>
<path fill="none" stroke="midnightblue" d="M355.93,-56.48C318.61,-48.15 260.2,-34.9 200.36,-20.15"/>
<polygon fill="midnightblue" stroke="midnightblue" points="200.91,-16.68 190.36,-17.68 199.23,-23.48 200.91,-16.68"/>
</g>
<!-- Node11 -->
<g id="node11" class="node">
<title>Node11</title>
<g id="a_node11"><a xlink:title=" ">
<polygon fill="white" stroke="#bfbfbf" points="208.5,-0.5 208.5,-19.5 262.5,-19.5 262.5,-0.5 208.5,-0.5"/>
<text text-anchor="middle" x="235.5" y="-7.5" font-family="Helvetica,sans-Serif" font-size="10.00">iostream</text>
</a>
</g>
</g>
<!-- Node7&#45;&gt;Node11 -->
<g id="edge10" class="edge">
<title>Node7&#45;&gt;Node11</title>
<path fill="none" stroke="midnightblue" d="M369.31,-56.44C342.56,-47.36 300.1,-32.94 270.19,-22.78"/>
<polygon fill="midnightblue" stroke="midnightblue" points="271.17,-19.42 260.58,-19.52 268.92,-26.05 271.17,-19.42"/>
</g>
<!-- Node12 -->
<g id="node12" class="node">
<title>Node12</title>
<g id="a_node12"><a xlink:title=" ">
<polygon fill="white" stroke="#bfbfbf" points="281,-0.5 281,-19.5 328,-19.5 328,-0.5 281,-0.5"/>
<text text-anchor="middle" x="304.5" y="-7.5" font-family="Helvetica,sans-Serif" font-size="10.00">math.h</text>
</a>
</g>
</g>
<!-- Node7&#45;&gt;Node12 -->
<g id="edge11" class="edge">
<title>Node7&#45;&gt;Node12</title>
<path fill="none" stroke="midnightblue" d="M380.04,-56.32C366,-47.9 344.45,-34.97 327.96,-25.07"/>
<polygon fill="midnightblue" stroke="midnightblue" points="329.3,-21.8 318.92,-19.65 325.7,-27.8 329.3,-21.8"/>
</g>
<!-- Node13 -->
<g id="node13" class="node">
<title>Node13</title>
<g id="a_node13"><a xlink:title=" ">
<polygon fill="white" stroke="#bfbfbf" points="346.5,-0.5 346.5,-19.5 444.5,-19.5 444.5,-0.5 346.5,-0.5"/>
<text text-anchor="middle" x="395.5" y="-7.5" font-family="Helvetica,sans-Serif" font-size="10.00">nlohmann/json.hpp</text>
</a>
</g>
</g>
<!-- Node7&#45;&gt;Node13 -->
<g id="edge12" class="edge">
<title>Node7&#45;&gt;Node13</title>
<path fill="none" stroke="midnightblue" d="M394.67,-56.08C394.8,-49.01 394.98,-38.86 395.15,-29.99"/>
<polygon fill="midnightblue" stroke="midnightblue" points="398.65,-29.81 395.34,-19.75 391.65,-29.68 398.65,-29.81"/>
</g>
<!-- Node7&#45;&gt;Node14 -->
<g id="edge13" class="edge">
<title>Node7&#45;&gt;Node14</title>
<path fill="none" stroke="midnightblue" d="M432.37,-56.44C477.55,-46.24 552.55,-29.29 597.08,-19.23"/>
<polygon fill="midnightblue" stroke="midnightblue" points="597.92,-22.63 606.91,-17.01 596.38,-15.8 597.92,-22.63"/>
</g>
<!-- Node16 -->
<g id="node16" class="node">
<title>Node16</title>
<g id="a_node16"><a xlink:href="_interface_creation_8h.html" target="_top" xlink:title="Defines functions that are used to interactively create 3D objects and materials.">
<polygon fill="white" stroke="black" points="200.5,-504.5 200.5,-523.5 298.5,-523.5 298.5,-504.5 200.5,-504.5"/>
<text text-anchor="middle" x="249.5" y="-511.5" font-family="Helvetica,sans-Serif" font-size="10.00">InterfaceCreation.h</text>
</a>
</g>
</g>
<!-- Node15&#45;&gt;Node16 -->
<g id="edge15" class="edge">
<title>Node15&#45;&gt;Node16</title>
<path fill="none" stroke="midnightblue" d="M339.31,-560.32C322.15,-551.66 295.55,-538.24 275.75,-528.25"/>
<polygon fill="midnightblue" stroke="midnightblue" points="277.15,-525.04 266.65,-523.65 274,-531.28 277.15,-525.04"/>
</g>
<!-- Node16&#45;&gt;Node7 -->
<g id="edge16" class="edge">
<title>Node16&#45;&gt;Node7</title>
<path fill="none" stroke="midnightblue" d="M229.48,-504.44C197.26,-489.17 137.5,-453.97 137.5,-403 137.5,-403 137.5,-403 137.5,-177 137.5,-91.02 260.59,-71.36 336.4,-67.41"/>
<polygon fill="midnightblue" stroke="midnightblue" points="336.93,-70.89 346.76,-66.95 336.62,-63.89 336.93,-70.89"/>
</g>
<!-- Node17 -->
<g id="node17" class="node">
<title>Node17</title>
<g id="a_node17"><a xlink:href="_diffuse_material_8h.html" target="_top" xlink:title="Defines the DiffuseMaterial class.">
<polygon fill="white" stroke="black" points="379,-336.5 379,-355.5 468,-355.5 468,-336.5 379,-336.5"/>
<text text-anchor="middle" x="423.5" y="-343.5" font-family="Helvetica,sans-Serif" font-size="10.00">DiffuseMaterial.h</text>
</a>
</g>
</g>
<!-- Node16&#45;&gt;Node17 -->
<g id="edge17" class="edge">
<title>Node16&#45;&gt;Node17</title>
<path fill="none" stroke="midnightblue" d="M298.86,-505.53C340.98,-498.07 396.98,-485.26 411.5,-468 435.77,-439.15 432.02,-391.67 427.53,-365.59"/>
<polygon fill="midnightblue" stroke="midnightblue" points="430.92,-364.7 425.58,-355.55 424.05,-366.03 430.92,-364.7"/>
</g>
<!-- Node21 -->
<g id="node21" class="node">
<title>Node21</title>
<g id="a_node21"><a xlink:href="_refractive_material_8h.html" target="_top" xlink:title="Defines the RefractiveMaterial class.">
<polygon fill="white" stroke="black" points="220,-392.5 220,-411.5 321,-411.5 321,-392.5 220,-392.5"/>
<text text-anchor="middle" x="270.5" y="-399.5" font-family="Helvetica,sans-Serif" font-size="10.00">RefractiveMaterial.h</text>
</a>
</g>
</g>
<!-- Node16&#45;&gt;Node21 -->
<g id="edge23" class="edge">
<title>Node16&#45;&gt;Node21</title>
<path fill="none" stroke="midnightblue" d="M250.85,-504.14C252.8,-491.61 256.59,-467.99 260.5,-448 262.21,-439.25 264.33,-429.6 266.17,-421.48"/>
<polygon fill="midnightblue" stroke="midnightblue" points="269.61,-422.13 268.45,-411.6 262.79,-420.56 269.61,-422.13"/>
</g>
<!-- Node22 -->
<g id="node22" class="node">
<title>Node22</title>
<g id="a_node22"><a xlink:href="_specular_material_8h.html" target="_top" xlink:title="Defines the SpecularMaterial class.">
<polygon fill="white" stroke="black" points="165.5,-336.5 165.5,-355.5 263.5,-355.5 263.5,-336.5 165.5,-336.5"/>
<text text-anchor="middle" x="214.5" y="-343.5" font-family="Helvetica,sans-Serif" font-size="10.00">SpecularMaterial.h</text>
</a>
</g>
</g>
<!-- Node16&#45;&gt;Node22 -->
<g id="edge25" class="edge">
<title>Node16&#45;&gt;Node22</title>
<path fill="none" stroke="midnightblue" d="M244.92,-504.41C236.13,-487.37 217.18,-447.85 210.5,-412 208.87,-403.26 210.11,-400.88 210.5,-392 210.88,-383.37 211.68,-373.84 212.46,-365.78"/>
<polygon fill="midnightblue" stroke="midnightblue" points="215.96,-365.92 213.51,-355.61 209,-365.2 215.96,-365.92"/>
</g>
<!-- Node23 -->
<g id="node23" class="node">
<title>Node23</title>
<g id="a_node23"><a xlink:href="_triangle_8h.html" target="_top" xlink:title="Defines the Triangle class.">
<polygon fill="white" stroke="black" points="344,-448.5 344,-467.5 403,-467.5 403,-448.5 344,-448.5"/>
<text text-anchor="middle" x="373.5" y="-455.5" font-family="Helvetica,sans-Serif" font-size="10.00">Triangle.h</text>
</a>
</g>
</g>
<!-- Node16&#45;&gt;Node23 -->
<g id="edge27" class="edge">
<title>Node16&#45;&gt;Node23</title>
<path fill="none" stroke="midnightblue" d="M269.15,-504.44C289.46,-495.6 321.4,-481.69 344.6,-471.59"/>
<polygon fill="midnightblue" stroke="midnightblue" points="346.17,-474.72 353.94,-467.52 343.38,-468.3 346.17,-474.72"/>
</g>
<!-- Node26 -->
<g id="node26" class="node">
<title>Node26</title>
<g id="a_node26"><a xlink:href="_sphere_8h.html" target="_top" xlink:title="Defines the Sphere class.">
<polygon fill="white" stroke="black" points="269.5,-448.5 269.5,-467.5 325.5,-467.5 325.5,-448.5 269.5,-448.5"/>
<text text-anchor="middle" x="297.5" y="-455.5" font-family="Helvetica,sans-Serif" font-size="10.00">Sphere.h</text>
</a>
</g>
</g>
<!-- Node16&#45;&gt;Node26 -->
<g id="edge31" class="edge">
<title>Node16&#45;&gt;Node26</title>
<path fill="none" stroke="midnightblue" d="M257.43,-504.08C264.35,-496.3 274.57,-484.8 282.95,-475.37"/>
<polygon fill="midnightblue" stroke="midnightblue" points="285.69,-477.55 289.72,-467.75 280.46,-472.9 285.69,-477.55"/>
</g>
<!-- Node18 -->
<g id="node18" class="node">
<title>Node18</title>
<g id="a_node18"><a xlink:href="_material_8h.html" target="_top" xlink:title="Defines the Material class and the functions around it.">
<polygon fill="white" stroke="black" points="262,-280.5 262,-299.5 321,-299.5 321,-280.5 262,-280.5"/>
<text text-anchor="middle" x="291.5" y="-287.5" font-family="Helvetica,sans-Serif" font-size="10.00">Material.h</text>
</a>
</g>
</g>
<!-- Node17&#45;&gt;Node18 -->
<g id="edge18" class="edge">
<title>Node17&#45;&gt;Node18</title>
<path fill="none" stroke="midnightblue" d="M402.58,-336.44C380.76,-327.52 346.35,-313.44 321.61,-303.32"/>
<polygon fill="midnightblue" stroke="midnightblue" points="322.9,-300.06 312.32,-299.52 320.25,-306.54 322.9,-300.06"/>
</g>
<!-- Node19 -->
<g id="node19" class="node">
<title>Node19</title>
<g id="a_node19"><a xlink:href="_ray_8h.html" target="_top" xlink:title="Defines the Ray class.">
<polygon fill="white" stroke="black" points="272.5,-224.5 272.5,-243.5 314.5,-243.5 314.5,-224.5 272.5,-224.5"/>
<text text-anchor="middle" x="293.5" y="-231.5" font-family="Helvetica,sans-Serif" font-size="10.00">Ray.h</text>
</a>
</g>
</g>
<!-- Node18&#45;&gt;Node19 -->
<g id="edge19" class="edge">
<title>Node18&#45;&gt;Node19</title>
<path fill="none" stroke="midnightblue" d="M291.83,-280.08C292.09,-273.01 292.47,-262.86 292.8,-253.99"/>
<polygon fill="midnightblue" stroke="midnightblue" points="296.3,-253.87 293.18,-243.75 289.31,-253.61 296.3,-253.87"/>
</g>
<!-- Node19&#45;&gt;Node6 -->
<g id="edge20" class="edge">
<title>Node19&#45;&gt;Node6</title>
<path fill="none" stroke="midnightblue" d="M314.15,-224.48C330.25,-216.94 352.19,-204.56 366.5,-188 378.04,-174.65 385.44,-155.82 389.72,-141.86"/>
<polygon fill="midnightblue" stroke="midnightblue" points="393.18,-142.48 392.5,-131.91 386.44,-140.6 393.18,-142.48"/>
</g>
<!-- Node20 -->
<g id="node20" class="node">
<title>Node20</title>
<g id="a_node20"><a xlink:href="_double_unit_vec3_d_8h.html" target="_top" xlink:title="Defines the DoubleUnitVec3D class and the functions around it.">
<polygon fill="white" stroke="black" points="257,-168.5 257,-187.5 358,-187.5 358,-168.5 257,-168.5"/>
<text text-anchor="middle" x="307.5" y="-175.5" font-family="Helvetica,sans-Serif" font-size="10.00">DoubleUnitVec3D.h</text>
</a>
</g>
</g>
<!-- Node19&#45;&gt;Node20 -->
<g id="edge21" class="edge">
<title>Node19&#45;&gt;Node20</title>
<path fill="none" stroke="midnightblue" d="M295.81,-224.08C297.67,-216.93 300.34,-206.64 302.65,-197.69"/>
<polygon fill="midnightblue" stroke="midnightblue" points="306.11,-198.31 305.23,-187.75 299.33,-196.55 306.11,-198.31"/>
</g>
<!-- Node20&#45;&gt;Node6 -->
<g id="edge22" class="edge">
<title>Node20&#45;&gt;Node6</title>
<path fill="none" stroke="midnightblue" d="M321.48,-168.32C335.05,-159.9 355.88,-146.97 371.82,-137.07"/>
<polygon fill="midnightblue" stroke="midnightblue" points="373.91,-139.9 380.56,-131.65 370.21,-133.95 373.91,-139.9"/>
</g>
<!-- Node21&#45;&gt;Node18 -->
<g id="edge24" class="edge">
<title>Node21&#45;&gt;Node18</title>
<path fill="none" stroke="midnightblue" d="M272.15,-392.37C275.54,-374.62 283.35,-333.67 287.95,-309.6"/>
<polygon fill="midnightblue" stroke="midnightblue" points="291.42,-310.07 289.86,-299.59 284.55,-308.76 291.42,-310.07"/>
</g>
<!-- Node22&#45;&gt;Node18 -->
<g id="edge26" class="edge">
<title>Node22&#45;&gt;Node18</title>
<path fill="none" stroke="midnightblue" d="M226.87,-336.32C238.66,-328.06 256.63,-315.45 270.64,-305.63"/>
<polygon fill="midnightblue" stroke="midnightblue" points="272.98,-308.26 279.16,-299.65 268.96,-302.53 272.98,-308.26"/>
</g>
<!-- Node24 -->
<g id="node24" class="node">
<title>Node24</title>
<g id="a_node24"><a xlink:href="_object3_d_8h.html" target="_top" xlink:title="Defines the Object3D class and the functions around it.">
<polygon fill="white" stroke="black" points="339,-392.5 339,-411.5 404,-411.5 404,-392.5 339,-392.5"/>
<text text-anchor="middle" x="371.5" y="-399.5" font-family="Helvetica,sans-Serif" font-size="10.00">Object3D.h</text>
</a>
</g>
</g>
<!-- Node23&#45;&gt;Node24 -->
<g id="edge28" class="edge">
<title>Node23&#45;&gt;Node24</title>
<path fill="none" stroke="midnightblue" d="M373.17,-448.08C372.91,-441.01 372.53,-430.86 372.2,-421.99"/>
<polygon fill="midnightblue" stroke="midnightblue" points="375.69,-421.61 371.82,-411.75 368.7,-421.87 375.69,-421.61"/>
</g>
<!-- Node24&#45;&gt;Node17 -->
<g id="edge30" class="edge">
<title>Node24&#45;&gt;Node17</title>
<path fill="none" stroke="midnightblue" d="M380.09,-392.08C387.66,-384.22 398.88,-372.57 408.01,-363.08"/>
<polygon fill="midnightblue" stroke="midnightblue" points="410.66,-365.38 415.07,-355.75 405.62,-360.53 410.66,-365.38"/>
</g>
<!-- Node25 -->
<g id="node25" class="node">
<title>Node25</title>
<g id="a_node25"><a xlink:title=" ">
<polygon fill="white" stroke="#bfbfbf" points="320,-336.5 320,-355.5 361,-355.5 361,-336.5 320,-336.5"/>
<text text-anchor="middle" x="340.5" y="-343.5" font-family="Helvetica,sans-Serif" font-size="10.00">string</text>
</a>
</g>
</g>
<!-- Node24&#45;&gt;Node25 -->
<g id="edge29" class="edge">
<title>Node24&#45;&gt;Node25</title>
<path fill="none" stroke="midnightblue" d="M366.38,-392.08C362.09,-384.61 355.84,-373.72 350.56,-364.52"/>
<polygon fill="midnightblue" stroke="midnightblue" points="353.54,-362.68 345.52,-355.75 347.47,-366.17 353.54,-362.68"/>
</g>
<!-- Node26&#45;&gt;Node24 -->
<g id="edge32" class="edge">
<title>Node26&#45;&gt;Node24</title>
<path fill="none" stroke="midnightblue" d="M309.39,-448.32C320.65,-440.11 337.79,-427.6 351.21,-417.81"/>
<polygon fill="midnightblue" stroke="midnightblue" points="353.38,-420.56 359.39,-411.83 349.25,-414.9 353.38,-420.56"/>
</g>
<!-- Node27&#45;&gt;Node16 -->
<g id="edge35" class="edge">
<title>Node27&#45;&gt;Node16</title>
<path fill="none" stroke="midnightblue" d="M249.5,-560.08C249.5,-553.01 249.5,-542.86 249.5,-533.99"/>
<polygon fill="midnightblue" stroke="midnightblue" points="253,-533.75 249.5,-523.75 246,-533.75 253,-533.75"/>
</g>
<!-- Node28 -->
<g id="node28" class="node">
<title>Node28</title>
<g id="a_node28"><a xlink:title=" ">
<polygon fill="white" stroke="#bfbfbf" points="140.5,-504.5 140.5,-523.5 182.5,-523.5 182.5,-504.5 140.5,-504.5"/>
<text text-anchor="middle" x="161.5" y="-511.5" font-family="Helvetica,sans-Serif" font-size="10.00">vector</text>
</a>
</g>
</g>
<!-- Node27&#45;&gt;Node28 -->
<g id="edge34" class="edge">
<title>Node27&#45;&gt;Node28</title>
<path fill="none" stroke="midnightblue" d="M235.36,-560.32C221.63,-551.9 200.56,-538.97 184.44,-529.07"/>
<polygon fill="midnightblue" stroke="midnightblue" points="185.96,-525.9 175.6,-523.65 182.3,-531.87 185.96,-525.9"/>
</g>
<!-- Node29&#45;&gt;Node19 -->
<g id="edge37" class="edge">
<title>Node29&#45;&gt;Node19</title>
<path fill="none" stroke="midnightblue" d="M92.37,-280.44C139.43,-269.81 218.84,-251.87 262.47,-242.01"/>
<polygon fill="midnightblue" stroke="midnightblue" points="263.51,-245.36 272.5,-239.75 261.97,-238.54 263.51,-245.36"/>
</g>
<!-- Node30&#45;&gt;Node6 -->
<g id="edge42" class="edge">
<title>Node30&#45;&gt;Node6</title>
<path fill="none" stroke="midnightblue" d="M421.2,-563.51C383.64,-554.87 324.39,-535.73 345.5,-504 368.46,-469.5 402.3,-497.4 431.5,-468 490.56,-408.54 496.5,-374.8 496.5,-291 496.5,-291 496.5,-291 496.5,-233 496.5,-188.39 450.84,-154.23 420.62,-136.51"/>
<polygon fill="midnightblue" stroke="midnightblue" points="422.23,-133.4 411.8,-131.55 418.8,-139.5 422.23,-133.4"/>
</g>
<!-- Node31 -->
<g id="node31" class="node">
<title>Node31</title>
<g id="a_node31"><a xlink:title=" ">
<polygon fill="white" stroke="#bfbfbf" points="354.5,-504.5 354.5,-523.5 410.5,-523.5 410.5,-504.5 354.5,-504.5"/>
<text text-anchor="middle" x="382.5" y="-511.5" font-family="Helvetica,sans-Serif" font-size="10.00">algorithm</text>
</a>
</g>
</g>
<!-- Node30&#45;&gt;Node31 -->
<g id="edge39" class="edge">
<title>Node30&#45;&gt;Node31</title>
<path fill="none" stroke="midnightblue" d="M438.74,-560.32C428.73,-552.26 413.61,-540.08 401.57,-530.37"/>
<polygon fill="midnightblue" stroke="midnightblue" points="403.44,-527.38 393.46,-523.83 399.05,-532.83 403.44,-527.38"/>
</g>
<!-- Node32 -->
<g id="node32" class="node">
<title>Node32</title>
<g id="a_node32"><a xlink:title=" ">
<polygon fill="white" stroke="#bfbfbf" points="428.5,-504.5 428.5,-523.5 478.5,-523.5 478.5,-504.5 428.5,-504.5"/>
<text text-anchor="middle" x="453.5" y="-511.5" font-family="Helvetica,sans-Serif" font-size="10.00">iomanip</text>
</a>
</g>
</g>
<!-- Node30&#45;&gt;Node32 -->
<g id="edge40" class="edge">
<title>Node30&#45;&gt;Node32</title>
<path fill="none" stroke="midnightblue" d="M450.16,-560.08C450.68,-553.01 451.44,-542.86 452.09,-533.99"/>
<polygon fill="midnightblue" stroke="midnightblue" points="455.6,-533.98 452.85,-523.75 448.62,-533.47 455.6,-533.98"/>
</g>
<!-- Node33 -->
<g id="node33" class="node">
<title>Node33</title>
<g id="a_node33"><a xlink:title=" ">
<polygon fill="white" stroke="#bfbfbf" points="497,-504.5 497,-523.5 570,-523.5 570,-504.5 497,-504.5"/>
<text text-anchor="middle" x="533.5" y="-511.5" font-family="Helvetica,sans-Serif" font-size="10.00">CImg/CImg.h</text>
</a>
</g>
</g>
<!-- Node30&#45;&gt;Node33 -->
<g id="edge41" class="edge">
<title>Node30&#45;&gt;Node33</title>
<path fill="none" stroke="midnightblue" d="M463,-560.32C476.1,-551.9 496.21,-538.97 511.61,-529.07"/>
<polygon fill="midnightblue" stroke="midnightblue" points="513.52,-532.01 520.04,-523.65 509.73,-526.12 513.52,-532.01"/>
</g>
</g>
</svg>
        <g id="navigator" transform="translate(0 0)" fill="#404254">
                <rect fill="#f2f5e9" fill-opacity="0.5" stroke="#606060" stroke-width=".5" x="0" y="0" width="60" height="60"/>
                <use id="zoomplus" xlink:href="#zoomPlus" x="17" y="9" onmousedown="handleZoom(evt,'in')"/>
                <use id="zoomminus" xlink:href="#zoomMin" x="42" y="9" onmousedown="handleZoom(evt,'out')"/>
                <use id="reset" xlink:href="#resetDef" x="30" y="36" onmousedown="handleReset()"/>
                <g id="arrowUp" xlink:href="#dirArrow" transform="translate(30 24)" onmousedown="handlePan(0,-1)">
                  <use xlink:href="#rim" fill="#404040">
                        <set attributeName="fill" to="#808080" begin="arrowUp.mouseover" end="arrowUp.mouseout"/>
                  </use>
                  <path fill="none" stroke="white" stroke-width="1.5" d="M0,-3.0v7 M-2.5,-0.5L0,-3.0L2.5,-0.5"/>
                </g>
                <g id="arrowRight" xlink:href="#dirArrow" transform="rotate(90) translate(36 -43)" onmousedown="handlePan(1,0)">
                  <use xlink:href="#rim" fill="#404040">
                        <set attributeName="fill" to="#808080" begin="arrowRight.mouseover" end="arrowRight.mouseout"/>
                  </use>
                  <path fill="none" stroke="white" stroke-width="1.5" d="M0,-3.0v7 M-2.5,-0.5L0,-3.0L2.5,-0.5"/>
                </g>
                <g id="arrowDown" xlink:href="#dirArrow" transform="rotate(180) translate(-30 -48)" onmousedown="handlePan(0,1)">
                  <use xlink:href="#rim" fill="#404040">
                        <set attributeName="fill" to="#808080" begin="arrowDown.mouseover" end="arrowDown.mouseout"/>
                  </use>
                  <path fill="none" stroke="white" stroke-width="1.5" d="M0,-3.0v7 M-2.5,-0.5L0,-3.0L2.5,-0.5"/>
                </g>
                <g id="arrowLeft" xlink:href="#dirArrow" transform="rotate(270) translate(-36 17)" onmousedown="handlePan(-1,0)">
                  <use xlink:href="#rim" fill="#404040">
                        <set attributeName="fill" to="#808080" begin="arrowLeft.mouseover" end="arrowLeft.mouseout"/>
                  </use>
                  <path fill="none" stroke="white" stroke-width="1.5" d="M0,-3.0v7 M-2.5,-0.5L0,-3.0L2.5,-0.5"/>
                </g>
        </g>
        <svg viewBox="0 0 15 15" width="100%" height="30px" preserveAspectRatio="xMaxYMin meet">
         <g id="arrow_out" transform="scale(0.3 0.3)">
          <a xlink:href="_interface_8cpp__incl_org.svg" target="_base">
           <rect id="button" ry="5" rx="5" y="6" x="6" height="38" width="38"
                fill="#f2f5e9" fill-opacity="0.5" stroke="#606060" stroke-width="1.0"/>
           <path id="arrow"
             d="M 11.500037,31.436501 C 11.940474,20.09759 22.043105,11.32322 32.158766,21.979434 L 37.068811,17.246167 C 37.068811,17.246167 37.088388,32 37.088388,32 L 22.160133,31.978069 C 22.160133,31.978069 26.997745,27.140456 26.997745,27.140456 C 18.528582,18.264221 13.291696,25.230495 11.500037,31.436501 z"
             style="fill:#404040;"/>
          </a>
         </g>
        </svg>
</svg>
