<?xml version="1.0" encoding="UTF-8" standalone="no"?>
<!DOCTYPE svg PUBLIC "-//W3C//DTD SVG 1.1//EN"
 "http://www.w3.org/Graphics/SVG/1.1/DTD/svg11.dtd">
<!-- Generated by graphviz version 2.44.1 (20200629.0800)
 -->
<!-- Title: D:/PathTracer/PathTracer/InterfaceCreation.cpp Pages: 1 -->
<!--zoomable 599 -->
<svg id="main" version="1.1" xmlns="http://www.w3.org/2000/svg" xmlns:xlink="http://www.w3.org/1999/xlink" xml:space="preserve" onload="init(evt)">
<style type="text/css"><![CDATA[
.edge:hover path { stroke: red; }
.edge:hover polygon { stroke: red; fill: red; }
]]></style>
<script type="text/javascript"><![CDATA[
var edges = document.getElementsByTagName('g');
if (edges && edges.length) {
  for (var i=0;i<edges.length;i++) {
    if (edges[i].id.substr(0,4)=='edge') {
      edges[i].setAttribute('class','edge');
    }
  }
}
]]></script>
        <defs>
                <circle id="rim" cx="0" cy="0" r="7"/>
                <circle id="rim2" cx="0" cy="0" r="3.5"/>
                <g id="zoomPlus">
                        <use xlink:href="#rim" fill="#404040">
                                <set attributeName="fill" to="#808080" begin="zoomplus.mouseover" end="zoomplus.mouseout"/>
                        </use>
                        <path d="M-4,0h8M0,-4v8" fill="none" stroke="white" stroke-width="1.5" pointer-events="none"/>
                </g>
                <g id="zoomMin">
                        <use xlink:href="#rim" fill="#404040">
                                <set attributeName="fill" to="#808080" begin="zoomminus.mouseover" end="zoomminus.mouseout"/>
                        </use>
                        <path d="M-4,0h8" fill="none" stroke="white" stroke-width="1.5" pointer-events="none"/>
                </g>
                <g id="dirArrow">
                        <path fill="none" stroke="white" stroke-width="1.5" d="M0,-3.0v7 M-2.5,-0.5L0,-3.0L2.5,-0.5"/>
                </g>
               <g id="resetDef">
                       <use xlink:href="#rim2" fill="#404040">
                               <set attributeName="fill" to="#808080" begin="reset.mouseover" end="reset.mouseout"/>
                       </use>
               </g>
        </defs>

<script type="text/javascript">
var viewWidth = 669;
var viewHeight = 599;
var sectionId = 'dynsection-0';
</script>
<script xlink:href="svgpan.js"/>
<svg id="graph" class="graph">
<g id="viewport">
<title>D:/PathTracer/PathTracer/InterfaceCreation.cpp</title>
<polygon fill="white" stroke="transparent" points="-4,4 -4,-595 665,-595 665,4 -4,4"/>
<!-- Node1 -->
<g id="node1" class="node">
<title>Node1</title>
<g id="a_node1"><a xlink:title=" ">
<polygon fill="#bfbfbf" stroke="black" points="415.5,-560.5 415.5,-590.5 542.5,-590.5 542.5,-560.5 415.5,-560.5"/>
<text text-anchor="start" x="423.5" y="-578.5" font-family="Helvetica,sans-Serif" font-size="10.00">D:/PathTracer/PathTracer</text>
<text text-anchor="middle" x="479" y="-567.5" font-family="Helvetica,sans-Serif" font-size="10.00">/InterfaceCreation.cpp</text>
</a>
</g>
</g>
<!-- Node2 -->
<g id="node2" class="node">
<title>Node2</title>
<g id="a_node2"><a xlink:href="_interface_creation_8h.html" target="_top" xlink:title="Defines functions that are used to interactively create 3D objects and materials.">
<polygon fill="white" stroke="black" points="430,-504.5 430,-523.5 528,-523.5 528,-504.5 430,-504.5"/>
<text text-anchor="middle" x="479" y="-511.5" font-family="Helvetica,sans-Serif" font-size="10.00">InterfaceCreation.h</text>
</a>
</g>
</g>
<!-- Node1&#45;&gt;Node2 -->
<g id="edge1" class="edge">
<title>Node1&#45;&gt;Node2</title>
<path fill="none" stroke="midnightblue" d="M479,-560.4C479,-552.47 479,-542.46 479,-533.86"/>
<polygon fill="midnightblue" stroke="midnightblue" points="482.5,-533.66 479,-523.66 475.5,-533.66 482.5,-533.66"/>
</g>
<!-- Node3 -->
<g id="node3" class="node">
<title>Node3</title>
<g id="a_node3"><a xlink:href="_interface_gestion_8h.html" target="_top" xlink:title="Defines functions that are used when drawing the interface.">
<polygon fill="white" stroke="black" points="212.5,-56.5 212.5,-75.5 307.5,-75.5 307.5,-56.5 212.5,-56.5"/>
<text text-anchor="middle" x="260" y="-63.5" font-family="Helvetica,sans-Serif" font-size="10.00">InterfaceGestion.h</text>
</a>
</g>
</g>
<!-- Node2&#45;&gt;Node3 -->
<g id="edge2" class="edge">
<title>Node2&#45;&gt;Node3</title>
<path fill="none" stroke="midnightblue" d="M429.73,-512.76C355.86,-509.51 225,-491.3 225,-403 225,-403 225,-403 225,-177 225,-143.07 240.31,-105.91 250.68,-84.63"/>
<polygon fill="midnightblue" stroke="midnightblue" points="253.88,-86.05 255.28,-75.54 247.64,-82.88 253.88,-86.05"/>
</g>
<!-- Node12 -->
<g id="node12" class="node">
<title>Node12</title>
<g id="a_node12"><a xlink:href="_diffuse_material_8h.html" target="_top" xlink:title="Defines the DiffuseMaterial class.">
<polygon fill="white" stroke="black" points="447.5,-336.5 447.5,-355.5 536.5,-355.5 536.5,-336.5 447.5,-336.5"/>
<text text-anchor="middle" x="492" y="-343.5" font-family="Helvetica,sans-Serif" font-size="10.00">DiffuseMaterial.h</text>
</a>
</g>
</g>
<!-- Node2&#45;&gt;Node12 -->
<g id="edge11" class="edge">
<title>Node2&#45;&gt;Node12</title>
<path fill="none" stroke="midnightblue" d="M479.7,-504.08C481.75,-477.95 487.75,-401.21 490.55,-365.58"/>
<polygon fill="midnightblue" stroke="midnightblue" points="494.04,-365.81 491.33,-355.57 487.06,-365.26 494.04,-365.81"/>
</g>
<!-- Node17 -->
<g id="node17" class="node">
<title>Node17</title>
<g id="a_node17"><a xlink:href="_refractive_material_8h.html" target="_top" xlink:title="Defines the RefractiveMaterial class.">
<polygon fill="white" stroke="black" points="369.5,-392.5 369.5,-411.5 470.5,-411.5 470.5,-392.5 369.5,-392.5"/>
<text text-anchor="middle" x="420" y="-399.5" font-family="Helvetica,sans-Serif" font-size="10.00">RefractiveMaterial.h</text>
</a>
</g>
</g>
<!-- Node2&#45;&gt;Node17 -->
<g id="edge18" class="edge">
<title>Node2&#45;&gt;Node17</title>
<path fill="none" stroke="midnightblue" d="M474.37,-504.37C464.72,-486.38 442.29,-444.55 429.45,-420.63"/>
<polygon fill="midnightblue" stroke="midnightblue" points="432.42,-418.75 424.61,-411.59 426.25,-422.06 432.42,-418.75"/>
</g>
<!-- Node18 -->
<g id="node18" class="node">
<title>Node18</title>
<g id="a_node18"><a xlink:href="_specular_material_8h.html" target="_top" xlink:title="Defines the SpecularMaterial class.">
<polygon fill="white" stroke="black" points="253,-392.5 253,-411.5 351,-411.5 351,-392.5 253,-392.5"/>
<text text-anchor="middle" x="302" y="-399.5" font-family="Helvetica,sans-Serif" font-size="10.00">SpecularMaterial.h</text>
</a>
</g>
</g>
<!-- Node2&#45;&gt;Node18 -->
<g id="edge20" class="edge">
<title>Node2&#45;&gt;Node18</title>
<path fill="none" stroke="midnightblue" d="M465.11,-504.37C434.61,-485.41 361.54,-440 324.43,-416.94"/>
<polygon fill="midnightblue" stroke="midnightblue" points="326.17,-413.9 315.82,-411.59 322.47,-419.84 326.17,-413.9"/>
</g>
<!-- Node19 -->
<g id="node19" class="node">
<title>Node19</title>
<g id="a_node19"><a xlink:href="_triangle_8h.html" target="_top" xlink:title="Defines the Triangle class.">
<polygon fill="white" stroke="black" points="527.5,-448.5 527.5,-467.5 586.5,-467.5 586.5,-448.5 527.5,-448.5"/>
<text text-anchor="middle" x="557" y="-455.5" font-family="Helvetica,sans-Serif" font-size="10.00">Triangle.h</text>
</a>
</g>
</g>
<!-- Node2&#45;&gt;Node19 -->
<g id="edge22" class="edge">
<title>Node2&#45;&gt;Node19</title>
<path fill="none" stroke="midnightblue" d="M491.53,-504.32C503.59,-495.98 522.03,-483.21 536.27,-473.35"/>
<polygon fill="midnightblue" stroke="midnightblue" points="538.27,-476.22 544.5,-467.65 534.28,-470.47 538.27,-476.22"/>
</g>
<!-- Node22 -->
<g id="node22" class="node">
<title>Node22</title>
<g id="a_node22"><a xlink:href="_sphere_8h.html" target="_top" xlink:title="Defines the Sphere class.">
<polygon fill="white" stroke="black" points="605,-448.5 605,-467.5 661,-467.5 661,-448.5 605,-448.5"/>
<text text-anchor="middle" x="633" y="-455.5" font-family="Helvetica,sans-Serif" font-size="10.00">Sphere.h</text>
</a>
</g>
</g>
<!-- Node2&#45;&gt;Node22 -->
<g id="edge26" class="edge">
<title>Node2&#45;&gt;Node22</title>
<path fill="none" stroke="midnightblue" d="M503.4,-504.44C529.2,-495.4 570.08,-481.06 599.02,-470.92"/>
<polygon fill="midnightblue" stroke="midnightblue" points="600.43,-474.13 608.71,-467.52 598.12,-467.52 600.43,-474.13"/>
</g>
<!-- Node4 -->
<g id="node4" class="node">
<title>Node4</title>
<g id="a_node4"><a xlink:title=" ">
<polygon fill="white" stroke="#bfbfbf" points="0,-0.5 0,-19.5 46,-19.5 46,-0.5 0,-0.5"/>
<text text-anchor="middle" x="23" y="-7.5" font-family="Helvetica,sans-Serif" font-size="10.00">chrono</text>
</a>
</g>
</g>
<!-- Node3&#45;&gt;Node4 -->
<g id="edge3" class="edge">
<title>Node3&#45;&gt;Node4</title>
<path fill="none" stroke="midnightblue" d="M217.82,-56.49C178.37,-48.36 117.59,-35.41 55.93,-20.12"/>
<polygon fill="midnightblue" stroke="midnightblue" points="56.58,-16.68 46.03,-17.65 54.88,-23.47 56.58,-16.68"/>
</g>
<!-- Node5 -->
<g id="node5" class="node">
<title>Node5</title>
<g id="a_node5"><a xlink:title=" ">
<polygon fill="white" stroke="#bfbfbf" points="64.5,-0.5 64.5,-19.5 113.5,-19.5 113.5,-0.5 64.5,-0.5"/>
<text text-anchor="middle" x="89" y="-7.5" font-family="Helvetica,sans-Serif" font-size="10.00">fstream</text>
</a>
</g>
</g>
<!-- Node3&#45;&gt;Node5 -->
<g id="edge4" class="edge">
<title>Node3&#45;&gt;Node5</title>
<path fill="none" stroke="midnightblue" d="M232.9,-56.44C203.33,-47.1 155.9,-32.13 123.65,-21.94"/>
<polygon fill="midnightblue" stroke="midnightblue" points="124.34,-18.49 113.75,-18.82 122.23,-25.16 124.34,-18.49"/>
</g>
<!-- Node6 -->
<g id="node6" class="node">
<title>Node6</title>
<g id="a_node6"><a xlink:title=" ">
<polygon fill="white" stroke="#bfbfbf" points="131.5,-0.5 131.5,-19.5 180.5,-19.5 180.5,-0.5 131.5,-0.5"/>
<text text-anchor="middle" x="156" y="-7.5" font-family="Helvetica,sans-Serif" font-size="10.00">random</text>
</a>
</g>
</g>
<!-- Node3&#45;&gt;Node6 -->
<g id="edge5" class="edge">
<title>Node3&#45;&gt;Node6</title>
<path fill="none" stroke="midnightblue" d="M243.29,-56.32C226.69,-47.7 201,-34.36 181.78,-24.39"/>
<polygon fill="midnightblue" stroke="midnightblue" points="183.16,-21.16 172.67,-19.65 179.93,-27.37 183.16,-21.16"/>
</g>
<!-- Node7 -->
<g id="node7" class="node">
<title>Node7</title>
<g id="a_node7"><a xlink:title=" ">
<polygon fill="white" stroke="#bfbfbf" points="199,-0.5 199,-19.5 253,-19.5 253,-0.5 199,-0.5"/>
<text text-anchor="middle" x="226" y="-7.5" font-family="Helvetica,sans-Serif" font-size="10.00">iostream</text>
</a>
</g>
</g>
<!-- Node3&#45;&gt;Node7 -->
<g id="edge6" class="edge">
<title>Node3&#45;&gt;Node7</title>
<path fill="none" stroke="midnightblue" d="M254.39,-56.08C249.63,-48.53 242.68,-37.49 236.85,-28.23"/>
<polygon fill="midnightblue" stroke="midnightblue" points="239.8,-26.35 231.51,-19.75 233.88,-30.08 239.8,-26.35"/>
</g>
<!-- Node8 -->
<g id="node8" class="node">
<title>Node8</title>
<g id="a_node8"><a xlink:title=" ">
<polygon fill="white" stroke="#bfbfbf" points="271.5,-0.5 271.5,-19.5 318.5,-19.5 318.5,-0.5 271.5,-0.5"/>
<text text-anchor="middle" x="295" y="-7.5" font-family="Helvetica,sans-Serif" font-size="10.00">math.h</text>
</a>
</g>
</g>
<!-- Node3&#45;&gt;Node8 -->
<g id="edge7" class="edge">
<title>Node3&#45;&gt;Node8</title>
<path fill="none" stroke="midnightblue" d="M265.78,-56.08C270.67,-48.53 277.83,-37.49 283.83,-28.23"/>
<polygon fill="midnightblue" stroke="midnightblue" points="286.83,-30.05 289.33,-19.75 280.95,-26.24 286.83,-30.05"/>
</g>
<!-- Node9 -->
<g id="node9" class="node">
<title>Node9</title>
<g id="a_node9"><a xlink:title=" ">
<polygon fill="white" stroke="#bfbfbf" points="337,-0.5 337,-19.5 435,-19.5 435,-0.5 337,-0.5"/>
<text text-anchor="middle" x="386" y="-7.5" font-family="Helvetica,sans-Serif" font-size="10.00">nlohmann/json.hpp</text>
</a>
</g>
</g>
<!-- Node3&#45;&gt;Node9 -->
<g id="edge8" class="edge">
<title>Node3&#45;&gt;Node9</title>
<path fill="none" stroke="midnightblue" d="M279.97,-56.44C300.61,-47.6 333.06,-33.69 356.63,-23.59"/>
<polygon fill="midnightblue" stroke="midnightblue" points="358.32,-26.67 366.13,-19.52 355.56,-20.24 358.32,-26.67"/>
</g>
<!-- Node10 -->
<g id="node10" class="node">
<title>Node10</title>
<g id="a_node10"><a xlink:title=" ">
<polygon fill="white" stroke="#bfbfbf" points="453.5,-0.5 453.5,-19.5 506.5,-19.5 506.5,-0.5 453.5,-0.5"/>
<text text-anchor="middle" x="480" y="-7.5" font-family="Helvetica,sans-Serif" font-size="10.00">fbxsdk.h</text>
</a>
</g>
</g>
<!-- Node3&#45;&gt;Node10 -->
<g id="edge9" class="edge">
<title>Node3&#45;&gt;Node10</title>
<path fill="none" stroke="midnightblue" d="M295.29,-56.43C330.31,-47.91 385.79,-34.37 443.28,-20.17"/>
<polygon fill="midnightblue" stroke="midnightblue" points="444.4,-23.5 453.27,-17.7 442.72,-16.7 444.4,-23.5"/>
</g>
<!-- Node11 -->
<g id="node11" class="node">
<title>Node11</title>
<g id="a_node11"><a xlink:title=" ">
<polygon fill="white" stroke="#bfbfbf" points="525,-0.5 525,-19.5 587,-19.5 587,-0.5 525,-0.5"/>
<text text-anchor="middle" x="556" y="-7.5" font-family="Helvetica,sans-Serif" font-size="10.00">windows.h</text>
</a>
</g>
</g>
<!-- Node3&#45;&gt;Node11 -->
<g id="edge10" class="edge">
<title>Node3&#45;&gt;Node11</title>
<path fill="none" stroke="midnightblue" d="M307.78,-57.3C357.18,-49.17 436.79,-35.65 514.61,-20.21"/>
<polygon fill="midnightblue" stroke="midnightblue" points="515.47,-23.61 524.59,-18.22 514.1,-16.74 515.47,-23.61"/>
</g>
<!-- Node13 -->
<g id="node13" class="node">
<title>Node13</title>
<g id="a_node13"><a xlink:href="_material_8h.html" target="_top" xlink:title="Defines the Material class and the functions around it.">
<polygon fill="white" stroke="black" points="358.5,-280.5 358.5,-299.5 417.5,-299.5 417.5,-280.5 358.5,-280.5"/>
<text text-anchor="middle" x="388" y="-287.5" font-family="Helvetica,sans-Serif" font-size="10.00">Material.h</text>
</a>
</g>
</g>
<!-- Node12&#45;&gt;Node13 -->
<g id="edge12" class="edge">
<title>Node12&#45;&gt;Node13</title>
<path fill="none" stroke="midnightblue" d="M475.29,-336.32C458.69,-327.7 433,-314.36 413.78,-304.39"/>
<polygon fill="midnightblue" stroke="midnightblue" points="415.16,-301.16 404.67,-299.65 411.93,-307.37 415.16,-301.16"/>
</g>
<!-- Node14 -->
<g id="node14" class="node">
<title>Node14</title>
<g id="a_node14"><a xlink:href="_ray_8h.html" target="_top" xlink:title="Defines the Ray class.">
<polygon fill="white" stroke="black" points="358,-224.5 358,-243.5 400,-243.5 400,-224.5 358,-224.5"/>
<text text-anchor="middle" x="379" y="-231.5" font-family="Helvetica,sans-Serif" font-size="10.00">Ray.h</text>
</a>
</g>
</g>
<!-- Node13&#45;&gt;Node14 -->
<g id="edge13" class="edge">
<title>Node13&#45;&gt;Node14</title>
<path fill="none" stroke="midnightblue" d="M386.51,-280.08C385.32,-272.93 383.61,-262.64 382.12,-253.69"/>
<polygon fill="midnightblue" stroke="midnightblue" points="385.55,-253.04 380.46,-243.75 378.65,-254.19 385.55,-253.04"/>
</g>
<!-- Node15 -->
<g id="node15" class="node">
<title>Node15</title>
<g id="a_node15"><a xlink:href="_double_vec3_d_8h.html" target="_top" xlink:title="Defines the DoubleVec3D class and the functions around it.">
<polygon fill="white" stroke="black" points="258,-112.5 258,-131.5 342,-131.5 342,-112.5 258,-112.5"/>
<text text-anchor="middle" x="300" y="-119.5" font-family="Helvetica,sans-Serif" font-size="10.00">DoubleVec3D.h</text>
</a>
</g>
</g>
<!-- Node14&#45;&gt;Node15 -->
<g id="edge14" class="edge">
<title>Node14&#45;&gt;Node15</title>
<path fill="none" stroke="midnightblue" d="M362.71,-224.4C349.41,-216.58 331.05,-203.85 320,-188 310.4,-174.23 305.29,-155.7 302.65,-141.95"/>
<polygon fill="midnightblue" stroke="midnightblue" points="306.05,-141.03 300.97,-131.74 299.14,-142.17 306.05,-141.03"/>
</g>
<!-- Node16 -->
<g id="node16" class="node">
<title>Node16</title>
<g id="a_node16"><a xlink:href="_double_unit_vec3_d_8h.html" target="_top" xlink:title="Defines the DoubleUnitVec3D class and the functions around it.">
<polygon fill="white" stroke="black" points="328.5,-168.5 328.5,-187.5 429.5,-187.5 429.5,-168.5 328.5,-168.5"/>
<text text-anchor="middle" x="379" y="-175.5" font-family="Helvetica,sans-Serif" font-size="10.00">DoubleUnitVec3D.h</text>
</a>
</g>
</g>
<!-- Node14&#45;&gt;Node16 -->
<g id="edge16" class="edge">
<title>Node14&#45;&gt;Node16</title>
<path fill="none" stroke="midnightblue" d="M379,-224.08C379,-217.01 379,-206.86 379,-197.99"/>
<polygon fill="midnightblue" stroke="midnightblue" points="382.5,-197.75 379,-187.75 375.5,-197.75 382.5,-197.75"/>
</g>
<!-- Node15&#45;&gt;Node3 -->
<g id="edge15" class="edge">
<title>Node15&#45;&gt;Node3</title>
<path fill="none" stroke="midnightblue" d="M293.39,-112.08C287.74,-104.46 279.46,-93.26 272.55,-83.94"/>
<polygon fill="midnightblue" stroke="midnightblue" points="275.25,-81.7 266.48,-75.75 269.62,-85.87 275.25,-81.7"/>
</g>
<!-- Node16&#45;&gt;Node15 -->
<g id="edge17" class="edge">
<title>Node16&#45;&gt;Node15</title>
<path fill="none" stroke="midnightblue" d="M366.31,-168.32C354.1,-159.98 335.42,-147.21 321,-137.35"/>
<polygon fill="midnightblue" stroke="midnightblue" points="322.89,-134.41 312.66,-131.65 318.94,-140.19 322.89,-134.41"/>
</g>
<!-- Node17&#45;&gt;Node13 -->
<g id="edge19" class="edge">
<title>Node17&#45;&gt;Node13</title>
<path fill="none" stroke="midnightblue" d="M417.49,-392.37C412.3,-374.54 400.3,-333.3 393.32,-309.27"/>
<polygon fill="midnightblue" stroke="midnightblue" points="396.65,-308.22 390.5,-299.59 389.93,-310.17 396.65,-308.22"/>
</g>
<!-- Node18&#45;&gt;Node13 -->
<g id="edge21" class="edge">
<title>Node18&#45;&gt;Node13</title>
<path fill="none" stroke="midnightblue" d="M308.75,-392.37C323,-374.14 356.39,-331.43 374.96,-307.68"/>
<polygon fill="midnightblue" stroke="midnightblue" points="377.88,-309.63 381.28,-299.59 372.37,-305.31 377.88,-309.63"/>
</g>
<!-- Node20 -->
<g id="node20" class="node">
<title>Node20</title>
<g id="a_node20"><a xlink:href="_object3_d_8h.html" target="_top" xlink:title="Defines the Object3D class and the functions around it.">
<polygon fill="white" stroke="black" points="535.5,-392.5 535.5,-411.5 600.5,-411.5 600.5,-392.5 535.5,-392.5"/>
<text text-anchor="middle" x="568" y="-399.5" font-family="Helvetica,sans-Serif" font-size="10.00">Object3D.h</text>
</a>
</g>
</g>
<!-- Node19&#45;&gt;Node20 -->
<g id="edge23" class="edge">
<title>Node19&#45;&gt;Node20</title>
<path fill="none" stroke="midnightblue" d="M558.82,-448.08C560.27,-440.93 562.37,-430.64 564.19,-421.69"/>
<polygon fill="midnightblue" stroke="midnightblue" points="567.65,-422.25 566.22,-411.75 560.79,-420.85 567.65,-422.25"/>
</g>
<!-- Node20&#45;&gt;Node12 -->
<g id="edge25" class="edge">
<title>Node20&#45;&gt;Node12</title>
<path fill="none" stroke="midnightblue" d="M555.79,-392.32C544.22,-384.11 526.62,-371.6 512.84,-361.81"/>
<polygon fill="midnightblue" stroke="midnightblue" points="514.61,-358.77 504.43,-355.83 510.56,-364.48 514.61,-358.77"/>
</g>
<!-- Node21 -->
<g id="node21" class="node">
<title>Node21</title>
<g id="a_node21"><a xlink:title=" ">
<polygon fill="white" stroke="#bfbfbf" points="554.5,-336.5 554.5,-355.5 595.5,-355.5 595.5,-336.5 554.5,-336.5"/>
<text text-anchor="middle" x="575" y="-343.5" font-family="Helvetica,sans-Serif" font-size="10.00">string</text>
</a>
</g>
</g>
<!-- Node20&#45;&gt;Node21 -->
<g id="edge24" class="edge">
<title>Node20&#45;&gt;Node21</title>
<path fill="none" stroke="midnightblue" d="M569.16,-392.08C570.08,-384.93 571.42,-374.64 572.58,-365.69"/>
<polygon fill="midnightblue" stroke="midnightblue" points="576.05,-366.12 573.87,-355.75 569.11,-365.22 576.05,-366.12"/>
</g>
<!-- Node22&#45;&gt;Node20 -->
<g id="edge27" class="edge">
<title>Node22&#45;&gt;Node20</title>
<path fill="none" stroke="midnightblue" d="M622.56,-448.32C612.85,-440.26 598.18,-428.08 586.5,-418.37"/>
<polygon fill="midnightblue" stroke="midnightblue" points="588.56,-415.53 578.63,-411.83 584.09,-420.92 588.56,-415.53"/>
</g>
</g>
</svg>
        <g id="navigator" transform="translate(0 0)" fill="#404254">
                <rect fill="#f2f5e9" fill-opacity="0.5" stroke="#606060" stroke-width=".5" x="0" y="0" width="60" height="60"/>
                <use id="zoomplus" xlink:href="#zoomPlus" x="17" y="9" onmousedown="handleZoom(evt,'in')"/>
                <use id="zoomminus" xlink:href="#zoomMin" x="42" y="9" onmousedown="handleZoom(evt,'out')"/>
                <use id="reset" xlink:href="#resetDef" x="30" y="36" onmousedown="handleReset()"/>
                <g id="arrowUp" xlink:href="#dirArrow" transform="translate(30 24)" onmousedown="handlePan(0,-1)">
                  <use xlink:href="#rim" fill="#404040">
                        <set attributeName="fill" to="#808080" begin="arrowUp.mouseover" end="arrowUp.mouseout"/>
                  </use>
                  <path fill="none" stroke="white" stroke-width="1.5" d="M0,-3.0v7 M-2.5,-0.5L0,-3.0L2.5,-0.5"/>
                </g>
                <g id="arrowRight" xlink:href="#dirArrow" transform="rotate(90) translate(36 -43)" onmousedown="handlePan(1,0)">
                  <use xlink:href="#rim" fill="#404040">
                        <set attributeName="fill" to="#808080" begin="arrowRight.mouseover" end="arrowRight.mouseout"/>
                  </use>
                  <path fill="none" stroke="white" stroke-width="1.5" d="M0,-3.0v7 M-2.5,-0.5L0,-3.0L2.5,-0.5"/>
                </g>
                <g id="arrowDown" xlink:href="#dirArrow" transform="rotate(180) translate(-30 -48)" onmousedown="handlePan(0,1)">
                  <use xlink:href="#rim" fill="#404040">
                        <set attributeName="fill" to="#808080" begin="arrowDown.mouseover" end="arrowDown.mouseout"/>
                  </use>
                  <path fill="none" stroke="white" stroke-width="1.5" d="M0,-3.0v7 M-2.5,-0.5L0,-3.0L2.5,-0.5"/>
                </g>
                <g id="arrowLeft" xlink:href="#dirArrow" transform="rotate(270) translate(-36 17)" onmousedown="handlePan(-1,0)">
                  <use xlink:href="#rim" fill="#404040">
                        <set attributeName="fill" to="#808080" begin="arrowLeft.mouseover" end="arrowLeft.mouseout"/>
                  </use>
                  <path fill="none" stroke="white" stroke-width="1.5" d="M0,-3.0v7 M-2.5,-0.5L0,-3.0L2.5,-0.5"/>
                </g>
        </g>
        <svg viewBox="0 0 15 15" width="100%" height="30px" preserveAspectRatio="xMaxYMin meet">
         <g id="arrow_out" transform="scale(0.3 0.3)">
          <a xlink:href="_interface_creation_8cpp__incl_org.svg" target="_base">
           <rect id="button" ry="5" rx="5" y="6" x="6" height="38" width="38"
                fill="#f2f5e9" fill-opacity="0.5" stroke="#606060" stroke-width="1.0"/>
           <path id="arrow"
             d="M 11.500037,31.436501 C 11.940474,20.09759 22.043105,11.32322 32.158766,21.979434 L 37.068811,17.246167 C 37.068811,17.246167 37.088388,32 37.088388,32 L 22.160133,31.978069 C 22.160133,31.978069 26.997745,27.140456 26.997745,27.140456 C 18.528582,18.264221 13.291696,25.230495 11.500037,31.436501 z"
             style="fill:#404040;"/>
          </a>
         </g>
        </svg>
</svg>
