<?xml version="1.0" encoding="UTF-8" standalone="no"?>
<!DOCTYPE svg PUBLIC "-//W3C//DTD SVG 1.1//EN"
 "http://www.w3.org/Graphics/SVG/1.1/DTD/svg11.dtd">
<!-- Generated by graphviz version 2.44.1 (20200629.0800)
 -->
<!-- Title: D:/PathTracer/PathTracer/InterfaceGestion.h Pages: 1 -->
<!--zoomable 843 -->
<svg id="main" version="1.1" xmlns="http://www.w3.org/2000/svg" xmlns:xlink="http://www.w3.org/1999/xlink" xml:space="preserve" onload="init(evt)">
<style type="text/css"><![CDATA[
.edge:hover path { stroke: red; }
.edge:hover polygon { stroke: red; fill: red; }
]]></style>
<script type="text/javascript"><![CDATA[
var edges = document.getElementsByTagName('g');
if (edges && edges.length) {
  for (var i=0;i<edges.length;i++) {
    if (edges[i].id.substr(0,4)=='edge') {
      edges[i].setAttribute('class','edge');
    }
  }
}
]]></script>
        <defs>
                <circle id="rim" cx="0" cy="0" r="7"/>
                <circle id="rim2" cx="0" cy="0" r="3.5"/>
                <g id="zoomPlus">
                        <use xlink:href="#rim" fill="#404040">
                                <set attributeName="fill" to="#808080" begin="zoomplus.mouseover" end="zoomplus.mouseout"/>
                        </use>
                        <path d="M-4,0h8M0,-4v8" fill="none" stroke="white" stroke-width="1.5" pointer-events="none"/>
                </g>
                <g id="zoomMin">
                        <use xlink:href="#rim" fill="#404040">
                                <set attributeName="fill" to="#808080" begin="zoomminus.mouseover" end="zoomminus.mouseout"/>
                        </use>
                        <path d="M-4,0h8" fill="none" stroke="white" stroke-width="1.5" pointer-events="none"/>
                </g>
                <g id="dirArrow">
                        <path fill="none" stroke="white" stroke-width="1.5" d="M0,-3.0v7 M-2.5,-0.5L0,-3.0L2.5,-0.5"/>
                </g>
               <g id="resetDef">
                       <use xlink:href="#rim2" fill="#404040">
                               <set attributeName="fill" to="#808080" begin="reset.mouseover" end="reset.mouseout"/>
                       </use>
               </g>
        </defs>

<script type="text/javascript">
var viewWidth = 1118;
var viewHeight = 843;
var sectionId = 'dynsection-1';
</script>
<script xlink:href="svgpan.js"/>
<svg id="graph" class="graph">
<g id="viewport">
<title>D:/PathTracer/PathTracer/InterfaceGestion.h</title>
<polygon fill="white" stroke="transparent" points="-4,4 -4,-839 1113.5,-839 1113.5,4 -4,4"/>
<!-- Node1 -->
<g id="node1" class="node">
<title>Node1</title>
<g id="a_node1"><a xlink:title="Defines functions that are used when drawing the interface.">
<polygon fill="#bfbfbf" stroke="black" points="540.5,-804.5 540.5,-834.5 667.5,-834.5 667.5,-804.5 540.5,-804.5"/>
<text text-anchor="start" x="548.5" y="-822.5" font-family="Helvetica,sans-Serif" font-size="10.00">D:/PathTracer/PathTracer</text>
<text text-anchor="middle" x="604" y="-811.5" font-family="Helvetica,sans-Serif" font-size="10.00">/InterfaceGestion.h</text>
</a>
</g>
</g>
<!-- Node2 -->
<g id="node2" class="node">
<title>Node2</title>
<g id="a_node2"><a xlink:href="_double_vec3_d_8h.html" target="_top" xlink:title="Defines the DoubleVec3D class and the functions around it.">
<polygon fill="white" stroke="black" points="540.5,-737.5 540.5,-767.5 667.5,-767.5 667.5,-737.5 540.5,-737.5"/>
<text text-anchor="start" x="548.5" y="-755.5" font-family="Helvetica,sans-Serif" font-size="10.00">D:/PathTracer/PathTracer</text>
<text text-anchor="middle" x="604" y="-744.5" font-family="Helvetica,sans-Serif" font-size="10.00">/DoubleVec3D.h</text>
</a>
</g>
</g>
<!-- Node1&#45;&gt;Node2 -->
<g id="edge1" class="edge">
<title>Node1&#45;&gt;Node2</title>
<path fill="none" stroke="midnightblue" d="M604,-794.11C604,-785.15 604,-775.32 604,-767.58"/>
<polygon fill="midnightblue" stroke="midnightblue" points="600.5,-794.4 604,-804.4 607.5,-794.4 600.5,-794.4"/>
</g>
<!-- Node16 -->
<g id="node16" class="node">
<title>Node16</title>
<g id="a_node16"><a xlink:href="_interface_creation_8h.html" target="_top" xlink:title="Defines functions that are used to interactively create 3D objects and materials.">
<polygon fill="white" stroke="black" points="314.5,-268.5 314.5,-298.5 441.5,-298.5 441.5,-268.5 314.5,-268.5"/>
<text text-anchor="start" x="322.5" y="-286.5" font-family="Helvetica,sans-Serif" font-size="10.00">D:/PathTracer/PathTracer</text>
<text text-anchor="middle" x="378" y="-275.5" font-family="Helvetica,sans-Serif" font-size="10.00">/InterfaceCreation.h</text>
</a>
</g>
</g>
<!-- Node1&#45;&gt;Node16 -->
<g id="edge47" class="edge">
<title>Node1&#45;&gt;Node16</title>
<path fill="none" stroke="midnightblue" d="M529.9,-817.72C368.59,-814.02 0,-793.83 0,-686.5 0,-686.5 0,-686.5 0,-416.5 0,-350.72 206.58,-310.06 314.3,-293.33"/>
<polygon fill="midnightblue" stroke="midnightblue" points="530.15,-821.23 540.22,-817.94 530.3,-814.23 530.15,-821.23"/>
</g>
<!-- Node39 -->
<g id="node39" class="node">
<title>Node39</title>
<g id="a_node39"><a xlink:href="_interface_gestion_8cpp.html" target="_top" xlink:title=" ">
<polygon fill="white" stroke="black" points="685.5,-737.5 685.5,-767.5 812.5,-767.5 812.5,-737.5 685.5,-737.5"/>
<text text-anchor="start" x="693.5" y="-755.5" font-family="Helvetica,sans-Serif" font-size="10.00">D:/PathTracer/PathTracer</text>
<text text-anchor="middle" x="749" y="-744.5" font-family="Helvetica,sans-Serif" font-size="10.00">/InterfaceGestion.cpp</text>
</a>
</g>
</g>
<!-- Node1&#45;&gt;Node39 -->
<g id="edge48" class="edge">
<title>Node1&#45;&gt;Node39</title>
<path fill="none" stroke="midnightblue" d="M644.67,-800.27C667.76,-789.92 696.24,-777.15 717.6,-767.58"/>
<polygon fill="midnightblue" stroke="midnightblue" points="643.16,-797.11 635.46,-804.4 646.02,-803.5 643.16,-797.11"/>
</g>
<!-- Node3 -->
<g id="node3" class="node">
<title>Node3</title>
<g id="a_node3"><a xlink:href="_double_matrix33_8h.html" target="_top" xlink:title="Defines the DoubleMatrix33 class and the functions around it.">
<polygon fill="white" stroke="black" points="903.5,-670.5 903.5,-700.5 1030.5,-700.5 1030.5,-670.5 903.5,-670.5"/>
<text text-anchor="start" x="911.5" y="-688.5" font-family="Helvetica,sans-Serif" font-size="10.00">D:/PathTracer/PathTracer</text>
<text text-anchor="middle" x="967" y="-677.5" font-family="Helvetica,sans-Serif" font-size="10.00">/DoubleMatrix33.h</text>
</a>
</g>
</g>
<!-- Node2&#45;&gt;Node3 -->
<g id="edge2" class="edge">
<title>Node2&#45;&gt;Node3</title>
<path fill="none" stroke="midnightblue" d="M677.53,-736.76C774.71,-719.21 801.1,-718.17 895,-701 897.76,-700.5 900.58,-699.97 903.42,-699.43"/>
<polygon fill="midnightblue" stroke="midnightblue" points="676.79,-733.33 667.58,-738.57 678.04,-740.22 676.79,-733.33"/>
</g>
<!-- Node10 -->
<g id="node10" class="node">
<title>Node10</title>
<g id="a_node10"><a xlink:href="_double_unit_vec3_d_8h.html" target="_top" xlink:title="Defines the DoubleUnitVec3D class and the functions around it.">
<polygon fill="white" stroke="black" points="613.5,-670.5 613.5,-700.5 740.5,-700.5 740.5,-670.5 613.5,-670.5"/>
<text text-anchor="start" x="621.5" y="-688.5" font-family="Helvetica,sans-Serif" font-size="10.00">D:/PathTracer/PathTracer</text>
<text text-anchor="middle" x="677" y="-677.5" font-family="Helvetica,sans-Serif" font-size="10.00">/DoubleUnitVec3D.h</text>
</a>
</g>
</g>
<!-- Node2&#45;&gt;Node10 -->
<g id="edge9" class="edge">
<title>Node2&#45;&gt;Node10</title>
<path fill="none" stroke="midnightblue" d="M627.47,-730.6C638.5,-720.78 651.34,-709.34 661.19,-700.58"/>
<polygon fill="midnightblue" stroke="midnightblue" points="624.98,-728.13 619.84,-737.4 629.64,-733.36 624.98,-728.13"/>
</g>
<!-- Node12 -->
<g id="node12" class="node">
<title>Node12</title>
<g id="a_node12"><a xlink:href="_ray_8h.html" target="_top" xlink:title="Defines the Ray class.">
<polygon fill="white" stroke="black" points="464.5,-603.5 464.5,-633.5 591.5,-633.5 591.5,-603.5 464.5,-603.5"/>
<text text-anchor="start" x="472.5" y="-621.5" font-family="Helvetica,sans-Serif" font-size="10.00">D:/PathTracer/PathTracer</text>
<text text-anchor="middle" x="528" y="-610.5" font-family="Helvetica,sans-Serif" font-size="10.00">/Ray.h</text>
</a>
</g>
</g>
<!-- Node2&#45;&gt;Node12 -->
<g id="edge46" class="edge">
<title>Node2&#45;&gt;Node12</title>
<path fill="none" stroke="midnightblue" d="M530.51,-743.7C503.5,-736.86 475.5,-724.22 459,-701 451.02,-689.77 452.77,-682.29 459,-670 467.06,-654.11 482.72,-642.02 497.09,-633.66"/>
<polygon fill="midnightblue" stroke="midnightblue" points="529.87,-747.14 540.4,-745.96 531.44,-740.32 529.87,-747.14"/>
</g>
<!-- Node36 -->
<g id="node36" class="node">
<title>Node36</title>
<g id="a_node36"><a xlink:href="_double_vec3_d_8cpp.html" target="_top" xlink:title=" ">
<polygon fill="white" stroke="black" points="468.5,-670.5 468.5,-700.5 595.5,-700.5 595.5,-670.5 468.5,-670.5"/>
<text text-anchor="start" x="476.5" y="-688.5" font-family="Helvetica,sans-Serif" font-size="10.00">D:/PathTracer/PathTracer</text>
<text text-anchor="middle" x="532" y="-677.5" font-family="Helvetica,sans-Serif" font-size="10.00">/DoubleVec3D.cpp</text>
</a>
</g>
</g>
<!-- Node2&#45;&gt;Node36 -->
<g id="edge42" class="edge">
<title>Node2&#45;&gt;Node36</title>
<path fill="none" stroke="midnightblue" d="M580.85,-730.6C569.98,-720.78 557.3,-709.34 547.59,-700.58"/>
<polygon fill="midnightblue" stroke="midnightblue" points="578.61,-733.29 588.38,-737.4 583.3,-728.1 578.61,-733.29"/>
</g>
<!-- Node37 -->
<g id="node37" class="node">
<title>Node37</title>
<g id="a_node37"><a xlink:href="_picture_8h.html" target="_top" xlink:title="Defines the Picture class and the functions around it.">
<polygon fill="white" stroke="black" points="758.5,-670.5 758.5,-700.5 885.5,-700.5 885.5,-670.5 758.5,-670.5"/>
<text text-anchor="start" x="766.5" y="-688.5" font-family="Helvetica,sans-Serif" font-size="10.00">D:/PathTracer/PathTracer</text>
<text text-anchor="middle" x="822" y="-677.5" font-family="Helvetica,sans-Serif" font-size="10.00">/Picture.h</text>
</a>
</g>
</g>
<!-- Node2&#45;&gt;Node37 -->
<g id="edge43" class="edge">
<title>Node2&#45;&gt;Node37</title>
<path fill="none" stroke="midnightblue" d="M660.75,-734.58C696.16,-724.02 741.2,-710.59 774.67,-700.61"/>
<polygon fill="midnightblue" stroke="midnightblue" points="659.62,-731.26 651.03,-737.48 661.62,-737.97 659.62,-731.26"/>
</g>
<!-- Node4 -->
<g id="node4" class="node">
<title>Node4</title>
<g id="a_node4"><a xlink:href="_double_matrix33_8cpp.html" target="_top" xlink:title=" ">
<polygon fill="white" stroke="black" points="982.5,-603.5 982.5,-633.5 1109.5,-633.5 1109.5,-603.5 982.5,-603.5"/>
<text text-anchor="start" x="990.5" y="-621.5" font-family="Helvetica,sans-Serif" font-size="10.00">D:/PathTracer/PathTracer</text>
<text text-anchor="middle" x="1046" y="-610.5" font-family="Helvetica,sans-Serif" font-size="10.00">/DoubleMatrix33.cpp</text>
</a>
</g>
</g>
<!-- Node3&#45;&gt;Node4 -->
<g id="edge3" class="edge">
<title>Node3&#45;&gt;Node4</title>
<path fill="none" stroke="midnightblue" d="M992.06,-663.88C1004.06,-654.01 1018.13,-642.43 1028.89,-633.58"/>
<polygon fill="midnightblue" stroke="midnightblue" points="989.64,-661.34 984.14,-670.4 994.09,-666.75 989.64,-661.34"/>
</g>
<!-- Node5 -->
<g id="node5" class="node">
<title>Node5</title>
<g id="a_node5"><a xlink:href="_scene_8h.html" target="_top" xlink:title="Defines the Scene class and the functions around it.">
<polygon fill="white" stroke="black" points="778.5,-134.5 778.5,-164.5 905.5,-164.5 905.5,-134.5 778.5,-134.5"/>
<text text-anchor="start" x="786.5" y="-152.5" font-family="Helvetica,sans-Serif" font-size="10.00">D:/PathTracer/PathTracer</text>
<text text-anchor="middle" x="842" y="-141.5" font-family="Helvetica,sans-Serif" font-size="10.00">/Scene.h</text>
</a>
</g>
</g>
<!-- Node3&#45;&gt;Node5 -->
<g id="edge4" class="edge">
<title>Node3&#45;&gt;Node5</title>
<path fill="none" stroke="midnightblue" d="M963.14,-660.06C959.31,-633.62 954,-590.18 954,-552.5 954,-552.5 954,-552.5 954,-282.5 954,-228.7 899.24,-185.6 866.3,-164.54"/>
<polygon fill="midnightblue" stroke="midnightblue" points="959.73,-660.92 964.68,-670.29 966.66,-659.88 959.73,-660.92"/>
</g>
<!-- Node6 -->
<g id="node6" class="node">
<title>Node6</title>
<g id="a_node6"><a xlink:href="_interface_8h.html" target="_top" xlink:title="Defines some functions for the interface.">
<polygon fill="white" stroke="black" points="705.5,-67.5 705.5,-97.5 832.5,-97.5 832.5,-67.5 705.5,-67.5"/>
<text text-anchor="start" x="713.5" y="-85.5" font-family="Helvetica,sans-Serif" font-size="10.00">D:/PathTracer/PathTracer</text>
<text text-anchor="middle" x="769" y="-74.5" font-family="Helvetica,sans-Serif" font-size="10.00">/Interface.h</text>
</a>
</g>
</g>
<!-- Node5&#45;&gt;Node6 -->
<g id="edge5" class="edge">
<title>Node5&#45;&gt;Node6</title>
<path fill="none" stroke="midnightblue" d="M818.53,-127.6C807.5,-117.78 794.66,-106.34 784.81,-97.58"/>
<polygon fill="midnightblue" stroke="midnightblue" points="816.36,-130.36 826.16,-134.4 821.02,-125.13 816.36,-130.36"/>
</g>
<!-- Node9 -->
<g id="node9" class="node">
<title>Node9</title>
<g id="a_node9"><a xlink:href="_scene_8cpp.html" target="_top" xlink:title=" ">
<polygon fill="white" stroke="black" points="850.5,-67.5 850.5,-97.5 977.5,-97.5 977.5,-67.5 850.5,-67.5"/>
<text text-anchor="start" x="858.5" y="-85.5" font-family="Helvetica,sans-Serif" font-size="10.00">D:/PathTracer/PathTracer</text>
<text text-anchor="middle" x="914" y="-74.5" font-family="Helvetica,sans-Serif" font-size="10.00">/Scene.cpp</text>
</a>
</g>
</g>
<!-- Node5&#45;&gt;Node9 -->
<g id="edge8" class="edge">
<title>Node5&#45;&gt;Node9</title>
<path fill="none" stroke="midnightblue" d="M865.15,-127.6C876.02,-117.78 888.7,-106.34 898.41,-97.58"/>
<polygon fill="midnightblue" stroke="midnightblue" points="862.7,-125.1 857.62,-134.4 867.39,-130.29 862.7,-125.1"/>
</g>
<!-- Node7 -->
<g id="node7" class="node">
<title>Node7</title>
<g id="a_node7"><a xlink:href="_interface_8cpp.html" target="_top" xlink:title=" ">
<polygon fill="white" stroke="black" points="633.5,-0.5 633.5,-30.5 760.5,-30.5 760.5,-0.5 633.5,-0.5"/>
<text text-anchor="start" x="641.5" y="-18.5" font-family="Helvetica,sans-Serif" font-size="10.00">D:/PathTracer/PathTracer</text>
<text text-anchor="middle" x="697" y="-7.5" font-family="Helvetica,sans-Serif" font-size="10.00">/Interface.cpp</text>
</a>
</g>
</g>
<!-- Node6&#45;&gt;Node7 -->
<g id="edge6" class="edge">
<title>Node6&#45;&gt;Node7</title>
<path fill="none" stroke="midnightblue" d="M745.85,-60.6C734.98,-50.78 722.3,-39.34 712.59,-30.58"/>
<polygon fill="midnightblue" stroke="midnightblue" points="743.61,-63.29 753.38,-67.4 748.3,-58.1 743.61,-63.29"/>
</g>
<!-- Node8 -->
<g id="node8" class="node">
<title>Node8</title>
<g id="a_node8"><a xlink:href="main_8cpp.html" target="_top" xlink:title=" ">
<polygon fill="white" stroke="black" points="778.5,-0.5 778.5,-30.5 905.5,-30.5 905.5,-0.5 778.5,-0.5"/>
<text text-anchor="start" x="786.5" y="-18.5" font-family="Helvetica,sans-Serif" font-size="10.00">D:/PathTracer/PathTracer</text>
<text text-anchor="middle" x="842" y="-7.5" font-family="Helvetica,sans-Serif" font-size="10.00">/main.cpp</text>
</a>
</g>
</g>
<!-- Node6&#45;&gt;Node8 -->
<g id="edge7" class="edge">
<title>Node6&#45;&gt;Node8</title>
<path fill="none" stroke="midnightblue" d="M792.47,-60.6C803.5,-50.78 816.34,-39.34 826.19,-30.58"/>
<polygon fill="midnightblue" stroke="midnightblue" points="789.98,-58.13 784.84,-67.4 794.64,-63.36 789.98,-58.13"/>
</g>
<!-- Node11 -->
<g id="node11" class="node">
<title>Node11</title>
<g id="a_node11"><a xlink:href="_double_unit_vec3_d_8cpp.html" target="_top" xlink:title=" ">
<polygon fill="white" stroke="black" points="613.5,-603.5 613.5,-633.5 740.5,-633.5 740.5,-603.5 613.5,-603.5"/>
<text text-anchor="start" x="621.5" y="-621.5" font-family="Helvetica,sans-Serif" font-size="10.00">D:/PathTracer/PathTracer</text>
<text text-anchor="middle" x="677" y="-610.5" font-family="Helvetica,sans-Serif" font-size="10.00">/DoubleUnitVec3D.cpp</text>
</a>
</g>
</g>
<!-- Node10&#45;&gt;Node11 -->
<g id="edge10" class="edge">
<title>Node10&#45;&gt;Node11</title>
<path fill="none" stroke="midnightblue" d="M677,-660.11C677,-651.15 677,-641.32 677,-633.58"/>
<polygon fill="midnightblue" stroke="midnightblue" points="673.5,-660.4 677,-670.4 680.5,-660.4 673.5,-660.4"/>
</g>
<!-- Node10&#45;&gt;Node12 -->
<g id="edge11" class="edge">
<title>Node10&#45;&gt;Node12</title>
<path fill="none" stroke="midnightblue" d="M635.21,-666.27C611.48,-655.92 582.22,-643.15 560.27,-633.58"/>
<polygon fill="midnightblue" stroke="midnightblue" points="634.1,-669.61 644.67,-670.4 636.9,-663.19 634.1,-669.61"/>
</g>
<!-- Node13 -->
<g id="node13" class="node">
<title>Node13</title>
<g id="a_node13"><a xlink:href="_material_8h.html" target="_top" xlink:title="Defines the Material class and the functions around it.">
<polygon fill="white" stroke="black" points="318.5,-536.5 318.5,-566.5 445.5,-566.5 445.5,-536.5 318.5,-536.5"/>
<text text-anchor="start" x="326.5" y="-554.5" font-family="Helvetica,sans-Serif" font-size="10.00">D:/PathTracer/PathTracer</text>
<text text-anchor="middle" x="382" y="-543.5" font-family="Helvetica,sans-Serif" font-size="10.00">/Material.h</text>
</a>
</g>
</g>
<!-- Node12&#45;&gt;Node13 -->
<g id="edge12" class="edge">
<title>Node12&#45;&gt;Node13</title>
<path fill="none" stroke="midnightblue" d="M487.05,-599.27C463.8,-588.92 435.13,-576.15 413.62,-566.58"/>
<polygon fill="midnightblue" stroke="midnightblue" points="485.76,-602.53 496.32,-603.4 488.61,-596.13 485.76,-602.53"/>
</g>
<!-- Node33 -->
<g id="node33" class="node">
<title>Node33</title>
<g id="a_node33"><a xlink:href="_perspective_camera_8h.html" target="_top" xlink:title="Defines the PerspectiveCamera class.">
<polygon fill="white" stroke="black" points="668.5,-536.5 668.5,-566.5 795.5,-566.5 795.5,-536.5 668.5,-536.5"/>
<text text-anchor="start" x="676.5" y="-554.5" font-family="Helvetica,sans-Serif" font-size="10.00">D:/PathTracer/PathTracer</text>
<text text-anchor="middle" x="732" y="-543.5" font-family="Helvetica,sans-Serif" font-size="10.00">/PerspectiveCamera.h</text>
</a>
</g>
</g>
<!-- Node12&#45;&gt;Node33 -->
<g id="edge38" class="edge">
<title>Node12&#45;&gt;Node33</title>
<path fill="none" stroke="midnightblue" d="M581.96,-600.31C614.96,-589.79 656.66,-576.51 687.71,-566.61"/>
<polygon fill="midnightblue" stroke="midnightblue" points="580.48,-597.11 572.01,-603.48 582.6,-603.77 580.48,-597.11"/>
</g>
<!-- Node35 -->
<g id="node35" class="node">
<title>Node35</title>
<g id="a_node35"><a xlink:href="_ray_8cpp.html" target="_top" xlink:title=" ">
<polygon fill="white" stroke="black" points="464.5,-536.5 464.5,-566.5 591.5,-566.5 591.5,-536.5 464.5,-536.5"/>
<text text-anchor="start" x="472.5" y="-554.5" font-family="Helvetica,sans-Serif" font-size="10.00">D:/PathTracer/PathTracer</text>
<text text-anchor="middle" x="528" y="-543.5" font-family="Helvetica,sans-Serif" font-size="10.00">/Ray.cpp</text>
</a>
</g>
</g>
<!-- Node12&#45;&gt;Node35 -->
<g id="edge41" class="edge">
<title>Node12&#45;&gt;Node35</title>
<path fill="none" stroke="midnightblue" d="M528,-593.11C528,-584.15 528,-574.32 528,-566.58"/>
<polygon fill="midnightblue" stroke="midnightblue" points="524.5,-593.4 528,-603.4 531.5,-593.4 524.5,-593.4"/>
</g>
<!-- Node14 -->
<g id="node14" class="node">
<title>Node14</title>
<g id="a_node14"><a xlink:href="_diffuse_material_8h.html" target="_top" xlink:title="Defines the DiffuseMaterial class.">
<polygon fill="white" stroke="black" points="463.5,-469.5 463.5,-499.5 590.5,-499.5 590.5,-469.5 463.5,-469.5"/>
<text text-anchor="start" x="471.5" y="-487.5" font-family="Helvetica,sans-Serif" font-size="10.00">D:/PathTracer/PathTracer</text>
<text text-anchor="middle" x="527" y="-476.5" font-family="Helvetica,sans-Serif" font-size="10.00">/DiffuseMaterial.h</text>
</a>
</g>
</g>
<!-- Node13&#45;&gt;Node14 -->
<g id="edge13" class="edge">
<title>Node13&#45;&gt;Node14</title>
<path fill="none" stroke="midnightblue" d="M422.67,-532.27C445.76,-521.92 474.24,-509.15 495.6,-499.58"/>
<polygon fill="midnightblue" stroke="midnightblue" points="421.16,-529.11 413.46,-536.4 424.02,-535.5 421.16,-529.11"/>
</g>
<!-- Node28 -->
<g id="node28" class="node">
<title>Node28</title>
<g id="a_node28"><a xlink:href="_material_8cpp.html" target="_top" xlink:title=" ">
<polygon fill="white" stroke="black" points="173.5,-469.5 173.5,-499.5 300.5,-499.5 300.5,-469.5 173.5,-469.5"/>
<text text-anchor="start" x="181.5" y="-487.5" font-family="Helvetica,sans-Serif" font-size="10.00">D:/PathTracer/PathTracer</text>
<text text-anchor="middle" x="237" y="-476.5" font-family="Helvetica,sans-Serif" font-size="10.00">/Material.cpp</text>
</a>
</g>
</g>
<!-- Node13&#45;&gt;Node28 -->
<g id="edge31" class="edge">
<title>Node13&#45;&gt;Node28</title>
<path fill="none" stroke="midnightblue" d="M341.33,-532.27C318.24,-521.92 289.76,-509.15 268.4,-499.58"/>
<polygon fill="midnightblue" stroke="midnightblue" points="339.98,-535.5 350.54,-536.4 342.84,-529.11 339.98,-535.5"/>
</g>
<!-- Node29 -->
<g id="node29" class="node">
<title>Node29</title>
<g id="a_node29"><a xlink:href="_refractive_material_8h.html" target="_top" xlink:title="Defines the RefractiveMaterial class.">
<polygon fill="white" stroke="black" points="318.5,-469.5 318.5,-499.5 445.5,-499.5 445.5,-469.5 318.5,-469.5"/>
<text text-anchor="start" x="326.5" y="-487.5" font-family="Helvetica,sans-Serif" font-size="10.00">D:/PathTracer/PathTracer</text>
<text text-anchor="middle" x="382" y="-476.5" font-family="Helvetica,sans-Serif" font-size="10.00">/RefractiveMaterial.h</text>
</a>
</g>
</g>
<!-- Node13&#45;&gt;Node29 -->
<g id="edge32" class="edge">
<title>Node13&#45;&gt;Node29</title>
<path fill="none" stroke="midnightblue" d="M382,-526.11C382,-517.15 382,-507.32 382,-499.58"/>
<polygon fill="midnightblue" stroke="midnightblue" points="378.5,-526.4 382,-536.4 385.5,-526.4 378.5,-526.4"/>
</g>
<!-- Node31 -->
<g id="node31" class="node">
<title>Node31</title>
<g id="a_node31"><a xlink:href="_specular_material_8h.html" target="_top" xlink:title="Defines the SpecularMaterial class.">
<polygon fill="white" stroke="black" points="28.5,-469.5 28.5,-499.5 155.5,-499.5 155.5,-469.5 28.5,-469.5"/>
<text text-anchor="start" x="36.5" y="-487.5" font-family="Helvetica,sans-Serif" font-size="10.00">D:/PathTracer/PathTracer</text>
<text text-anchor="middle" x="92" y="-476.5" font-family="Helvetica,sans-Serif" font-size="10.00">/SpecularMaterial.h</text>
</a>
</g>
</g>
<!-- Node13&#45;&gt;Node31 -->
<g id="edge35" class="edge">
<title>Node13&#45;&gt;Node31</title>
<path fill="none" stroke="midnightblue" d="M309.51,-534.25C261.98,-523.6 200.44,-509.81 154.96,-499.61"/>
<polygon fill="midnightblue" stroke="midnightblue" points="308.91,-537.7 319.43,-536.48 310.44,-530.87 308.91,-537.7"/>
</g>
<!-- Node15 -->
<g id="node15" class="node">
<title>Node15</title>
<g id="a_node15"><a xlink:href="_diffuse_material_8cpp.html" target="_top" xlink:title=" ">
<polygon fill="white" stroke="black" points="434.5,-402.5 434.5,-432.5 561.5,-432.5 561.5,-402.5 434.5,-402.5"/>
<text text-anchor="start" x="442.5" y="-420.5" font-family="Helvetica,sans-Serif" font-size="10.00">D:/PathTracer/PathTracer</text>
<text text-anchor="middle" x="498" y="-409.5" font-family="Helvetica,sans-Serif" font-size="10.00">/DiffuseMaterial.cpp</text>
</a>
</g>
</g>
<!-- Node14&#45;&gt;Node15 -->
<g id="edge14" class="edge">
<title>Node14&#45;&gt;Node15</title>
<path fill="none" stroke="midnightblue" d="M516.51,-459.99C512.41,-450.8 507.85,-440.58 504.28,-432.58"/>
<polygon fill="midnightblue" stroke="midnightblue" points="513.44,-461.69 520.71,-469.4 519.83,-458.84 513.44,-461.69"/>
</g>
<!-- Node14&#45;&gt;Node16 -->
<g id="edge15" class="edge">
<title>Node14&#45;&gt;Node16</title>
<path fill="none" stroke="midnightblue" d="M475.74,-465.32C458.22,-457.34 439.42,-446.63 425,-433 400.12,-409.48 397.54,-398.57 387,-366 379.64,-343.25 378.06,-315.26 377.85,-298.7"/>
<polygon fill="midnightblue" stroke="midnightblue" points="474.74,-468.7 485.31,-469.47 477.53,-462.28 474.74,-468.7"/>
</g>
<!-- Node22 -->
<g id="node22" class="node">
<title>Node22</title>
<g id="a_node22"><a xlink:href="_object3_d_8h.html" target="_top" xlink:title="Defines the Object3D class and the functions around it.">
<polygon fill="white" stroke="black" points="579.5,-402.5 579.5,-432.5 706.5,-432.5 706.5,-402.5 579.5,-402.5"/>
<text text-anchor="start" x="587.5" y="-420.5" font-family="Helvetica,sans-Serif" font-size="10.00">D:/PathTracer/PathTracer</text>
<text text-anchor="middle" x="643" y="-409.5" font-family="Helvetica,sans-Serif" font-size="10.00">/Object3D.h</text>
</a>
</g>
</g>
<!-- Node14&#45;&gt;Node22 -->
<g id="edge23" class="edge">
<title>Node14&#45;&gt;Node22</title>
<path fill="none" stroke="midnightblue" d="M561.27,-464.3C579.42,-454.12 601.32,-441.85 617.88,-432.58"/>
<polygon fill="midnightblue" stroke="midnightblue" points="559.18,-461.45 552.17,-469.4 562.6,-467.56 559.18,-461.45"/>
</g>
<!-- Node17 -->
<g id="node17" class="node">
<title>Node17</title>
<g id="a_node17"><a xlink:href="_interface_creation_8cpp.html" target="_top" xlink:title=" ">
<polygon fill="white" stroke="black" points="459.5,-201.5 459.5,-231.5 586.5,-231.5 586.5,-201.5 459.5,-201.5"/>
<text text-anchor="start" x="467.5" y="-219.5" font-family="Helvetica,sans-Serif" font-size="10.00">D:/PathTracer/PathTracer</text>
<text text-anchor="middle" x="523" y="-208.5" font-family="Helvetica,sans-Serif" font-size="10.00">/InterfaceCreation.cpp</text>
</a>
</g>
</g>
<!-- Node16&#45;&gt;Node17 -->
<g id="edge16" class="edge">
<title>Node16&#45;&gt;Node17</title>
<path fill="none" stroke="midnightblue" d="M418.67,-264.27C441.76,-253.92 470.24,-241.15 491.6,-231.58"/>
<polygon fill="midnightblue" stroke="midnightblue" points="417.16,-261.11 409.46,-268.4 420.02,-267.5 417.16,-261.11"/>
</g>
<!-- Node18 -->
<g id="node18" class="node">
<title>Node18</title>
<g id="a_node18"><a xlink:href="_k_d_tree_node_8h.html" target="_top" xlink:title="Defines the KDTreeNode class and the functions around it.">
<polygon fill="white" stroke="black" points="314.5,-201.5 314.5,-231.5 441.5,-231.5 441.5,-201.5 314.5,-201.5"/>
<text text-anchor="start" x="322.5" y="-219.5" font-family="Helvetica,sans-Serif" font-size="10.00">D:/PathTracer/PathTracer</text>
<text text-anchor="middle" x="378" y="-208.5" font-family="Helvetica,sans-Serif" font-size="10.00">/KDTreeNode.h</text>
</a>
</g>
</g>
<!-- Node16&#45;&gt;Node18 -->
<g id="edge17" class="edge">
<title>Node16&#45;&gt;Node18</title>
<path fill="none" stroke="midnightblue" d="M378,-258.11C378,-249.15 378,-239.32 378,-231.58"/>
<polygon fill="midnightblue" stroke="midnightblue" points="374.5,-258.4 378,-268.4 381.5,-258.4 374.5,-258.4"/>
</g>
<!-- Node20 -->
<g id="node20" class="node">
<title>Node20</title>
<g id="a_node20"><a xlink:href="_object3_d_group_8h.html" target="_top" xlink:title="Defines the Object3DGroup class and the functions around it.">
<polygon fill="white" stroke="black" points="614.5,-201.5 614.5,-231.5 741.5,-231.5 741.5,-201.5 614.5,-201.5"/>
<text text-anchor="start" x="622.5" y="-219.5" font-family="Helvetica,sans-Serif" font-size="10.00">D:/PathTracer/PathTracer</text>
<text text-anchor="middle" x="678" y="-208.5" font-family="Helvetica,sans-Serif" font-size="10.00">/Object3DGroup.h</text>
</a>
</g>
</g>
<!-- Node16&#45;&gt;Node20 -->
<g id="edge20" class="edge">
<title>Node16&#45;&gt;Node20</title>
<path fill="none" stroke="midnightblue" d="M451.71,-266.53C501.61,-255.72 566.86,-241.58 614.47,-231.26"/>
<polygon fill="midnightblue" stroke="midnightblue" points="450.65,-263.18 441.62,-268.72 452.14,-270.02 450.65,-263.18"/>
</g>
<!-- Node18&#45;&gt;Node5 -->
<g id="edge19" class="edge">
<title>Node18&#45;&gt;Node5</title>
<path fill="none" stroke="midnightblue" d="M451.7,-200.8C584.33,-179.9 620.23,-183.01 750,-165 759.13,-163.73 768.75,-162.31 778.2,-160.87"/>
<polygon fill="midnightblue" stroke="midnightblue" points="450.88,-197.39 441.55,-202.42 451.98,-204.3 450.88,-197.39"/>
</g>
<!-- Node19 -->
<g id="node19" class="node">
<title>Node19</title>
<g id="a_node19"><a xlink:href="_k_d_tree_node_8cpp.html" target="_top" xlink:title=" ">
<polygon fill="white" stroke="black" points="314.5,-134.5 314.5,-164.5 441.5,-164.5 441.5,-134.5 314.5,-134.5"/>
<text text-anchor="start" x="322.5" y="-152.5" font-family="Helvetica,sans-Serif" font-size="10.00">D:/PathTracer/PathTracer</text>
<text text-anchor="middle" x="378" y="-141.5" font-family="Helvetica,sans-Serif" font-size="10.00">/KDTreeNode.cpp</text>
</a>
</g>
</g>
<!-- Node18&#45;&gt;Node19 -->
<g id="edge18" class="edge">
<title>Node18&#45;&gt;Node19</title>
<path fill="none" stroke="midnightblue" d="M378,-191.11C378,-182.15 378,-172.32 378,-164.58"/>
<polygon fill="midnightblue" stroke="midnightblue" points="374.5,-191.4 378,-201.4 381.5,-191.4 374.5,-191.4"/>
</g>
<!-- Node20&#45;&gt;Node5 -->
<g id="edge22" class="edge">
<title>Node20&#45;&gt;Node5</title>
<path fill="none" stroke="midnightblue" d="M722.96,-197.68C749.26,-187.26 782,-174.28 806.48,-164.58"/>
<polygon fill="midnightblue" stroke="midnightblue" points="721.59,-194.46 713.59,-201.4 724.17,-200.97 721.59,-194.46"/>
</g>
<!-- Node21 -->
<g id="node21" class="node">
<title>Node21</title>
<g id="a_node21"><a xlink:href="_object3_d_group_8cpp.html" target="_top" xlink:title=" ">
<polygon fill="white" stroke="black" points="614.5,-134.5 614.5,-164.5 741.5,-164.5 741.5,-134.5 614.5,-134.5"/>
<text text-anchor="start" x="622.5" y="-152.5" font-family="Helvetica,sans-Serif" font-size="10.00">D:/PathTracer/PathTracer</text>
<text text-anchor="middle" x="678" y="-141.5" font-family="Helvetica,sans-Serif" font-size="10.00">/Object3DGroup.cpp</text>
</a>
</g>
</g>
<!-- Node20&#45;&gt;Node21 -->
<g id="edge21" class="edge">
<title>Node20&#45;&gt;Node21</title>
<path fill="none" stroke="midnightblue" d="M678,-191.11C678,-182.15 678,-172.32 678,-164.58"/>
<polygon fill="midnightblue" stroke="midnightblue" points="674.5,-191.4 678,-201.4 681.5,-191.4 674.5,-191.4"/>
</g>
<!-- Node23 -->
<g id="node23" class="node">
<title>Node23</title>
<g id="a_node23"><a xlink:href="_object3_d_8cpp.html" target="_top" xlink:title=" ">
<polygon fill="white" stroke="black" points="396.5,-335.5 396.5,-365.5 523.5,-365.5 523.5,-335.5 396.5,-335.5"/>
<text text-anchor="start" x="404.5" y="-353.5" font-family="Helvetica,sans-Serif" font-size="10.00">D:/PathTracer/PathTracer</text>
<text text-anchor="middle" x="460" y="-342.5" font-family="Helvetica,sans-Serif" font-size="10.00">/Object3D.cpp</text>
</a>
</g>
</g>
<!-- Node22&#45;&gt;Node23 -->
<g id="edge24" class="edge">
<title>Node22&#45;&gt;Node23</title>
<path fill="none" stroke="midnightblue" d="M593.6,-398.96C564.13,-388.48 527.19,-375.37 499.63,-365.58"/>
<polygon fill="midnightblue" stroke="midnightblue" points="592.7,-402.35 603.29,-402.4 595.04,-395.75 592.7,-402.35"/>
</g>
<!-- Node24 -->
<g id="node24" class="node">
<title>Node24</title>
<g id="a_node24"><a xlink:href="_sphere_8h.html" target="_top" xlink:title="Defines the Sphere class.">
<polygon fill="white" stroke="black" points="686.5,-335.5 686.5,-365.5 813.5,-365.5 813.5,-335.5 686.5,-335.5"/>
<text text-anchor="start" x="694.5" y="-353.5" font-family="Helvetica,sans-Serif" font-size="10.00">D:/PathTracer/PathTracer</text>
<text text-anchor="middle" x="750" y="-342.5" font-family="Helvetica,sans-Serif" font-size="10.00">/Sphere.h</text>
</a>
</g>
</g>
<!-- Node22&#45;&gt;Node24 -->
<g id="edge25" class="edge">
<title>Node22&#45;&gt;Node24</title>
<path fill="none" stroke="midnightblue" d="M675.08,-397.02C691.73,-386.9 711.69,-374.77 726.83,-365.58"/>
<polygon fill="midnightblue" stroke="midnightblue" points="672.95,-394.21 666.22,-402.4 676.58,-400.2 672.95,-394.21"/>
</g>
<!-- Node26 -->
<g id="node26" class="node">
<title>Node26</title>
<g id="a_node26"><a xlink:href="_triangle_8h.html" target="_top" xlink:title="Defines the Triangle class.">
<polygon fill="white" stroke="black" points="541.5,-335.5 541.5,-365.5 668.5,-365.5 668.5,-335.5 541.5,-335.5"/>
<text text-anchor="start" x="549.5" y="-353.5" font-family="Helvetica,sans-Serif" font-size="10.00">D:/PathTracer/PathTracer</text>
<text text-anchor="middle" x="605" y="-342.5" font-family="Helvetica,sans-Serif" font-size="10.00">/Triangle.h</text>
</a>
</g>
</g>
<!-- Node22&#45;&gt;Node26 -->
<g id="edge28" class="edge">
<title>Node22&#45;&gt;Node26</title>
<path fill="none" stroke="midnightblue" d="M629.6,-393.58C624.14,-384.24 618.01,-373.75 613.23,-365.58"/>
<polygon fill="midnightblue" stroke="midnightblue" points="626.69,-395.53 634.75,-402.4 632.73,-392 626.69,-395.53"/>
</g>
<!-- Node24&#45;&gt;Node16 -->
<g id="edge26" class="edge">
<title>Node24&#45;&gt;Node16</title>
<path fill="none" stroke="midnightblue" d="M676.25,-334.89C589.06,-318.97 500.02,-304.19 441.67,-294.71"/>
<polygon fill="midnightblue" stroke="midnightblue" points="675.85,-338.38 686.32,-336.74 677.11,-331.49 675.85,-338.38"/>
</g>
<!-- Node25 -->
<g id="node25" class="node">
<title>Node25</title>
<g id="a_node25"><a xlink:href="_sphere_8cpp.html" target="_top" xlink:title=" ">
<polygon fill="white" stroke="black" points="686.5,-268.5 686.5,-298.5 813.5,-298.5 813.5,-268.5 686.5,-268.5"/>
<text text-anchor="start" x="694.5" y="-286.5" font-family="Helvetica,sans-Serif" font-size="10.00">D:/PathTracer/PathTracer</text>
<text text-anchor="middle" x="750" y="-275.5" font-family="Helvetica,sans-Serif" font-size="10.00">/Sphere.cpp</text>
</a>
</g>
</g>
<!-- Node24&#45;&gt;Node25 -->
<g id="edge27" class="edge">
<title>Node24&#45;&gt;Node25</title>
<path fill="none" stroke="midnightblue" d="M750,-325.11C750,-316.15 750,-306.32 750,-298.58"/>
<polygon fill="midnightblue" stroke="midnightblue" points="746.5,-325.4 750,-335.4 753.5,-325.4 746.5,-325.4"/>
</g>
<!-- Node26&#45;&gt;Node16 -->
<g id="edge29" class="edge">
<title>Node26&#45;&gt;Node16</title>
<path fill="none" stroke="midnightblue" d="M546.38,-332.71C509.44,-322.14 462.29,-308.63 427.28,-298.61"/>
<polygon fill="midnightblue" stroke="midnightblue" points="545.45,-336.09 556.02,-335.48 547.37,-329.36 545.45,-336.09"/>
</g>
<!-- Node27 -->
<g id="node27" class="node">
<title>Node27</title>
<g id="a_node27"><a xlink:href="_triangle_8cpp.html" target="_top" xlink:title=" ">
<polygon fill="white" stroke="black" points="541.5,-268.5 541.5,-298.5 668.5,-298.5 668.5,-268.5 541.5,-268.5"/>
<text text-anchor="start" x="549.5" y="-286.5" font-family="Helvetica,sans-Serif" font-size="10.00">D:/PathTracer/PathTracer</text>
<text text-anchor="middle" x="605" y="-275.5" font-family="Helvetica,sans-Serif" font-size="10.00">/Triangle.cpp</text>
</a>
</g>
</g>
<!-- Node26&#45;&gt;Node27 -->
<g id="edge30" class="edge">
<title>Node26&#45;&gt;Node27</title>
<path fill="none" stroke="midnightblue" d="M605,-325.11C605,-316.15 605,-306.32 605,-298.58"/>
<polygon fill="midnightblue" stroke="midnightblue" points="601.5,-325.4 605,-335.4 608.5,-325.4 601.5,-325.4"/>
</g>
<!-- Node29&#45;&gt;Node16 -->
<g id="edge33" class="edge">
<title>Node29&#45;&gt;Node16</title>
<path fill="none" stroke="midnightblue" d="M312.16,-466.59C281.29,-457.56 249.95,-445.71 241,-433 202.84,-378.79 295.7,-323.68 346.92,-298.55"/>
<polygon fill="midnightblue" stroke="midnightblue" points="311.56,-470.06 322.14,-469.42 313.47,-463.32 311.56,-470.06"/>
</g>
<!-- Node30 -->
<g id="node30" class="node">
<title>Node30</title>
<g id="a_node30"><a xlink:href="_refractive_material_8cpp.html" target="_top" xlink:title=" ">
<polygon fill="white" stroke="black" points="250.5,-402.5 250.5,-432.5 377.5,-432.5 377.5,-402.5 250.5,-402.5"/>
<text text-anchor="start" x="258.5" y="-420.5" font-family="Helvetica,sans-Serif" font-size="10.00">D:/PathTracer/PathTracer</text>
<text text-anchor="middle" x="314" y="-409.5" font-family="Helvetica,sans-Serif" font-size="10.00">/RefractiveMaterial.cpp</text>
</a>
</g>
</g>
<!-- Node29&#45;&gt;Node30 -->
<g id="edge34" class="edge">
<title>Node29&#45;&gt;Node30</title>
<path fill="none" stroke="midnightblue" d="M359.83,-462.31C349.63,-452.56 337.81,-441.26 328.73,-432.58"/>
<polygon fill="midnightblue" stroke="midnightblue" points="357.6,-465.02 367.25,-469.4 362.43,-459.96 357.6,-465.02"/>
</g>
<!-- Node31&#45;&gt;Node16 -->
<g id="edge36" class="edge">
<title>Node31&#45;&gt;Node16</title>
<path fill="none" stroke="midnightblue" d="M123.84,-463.74C136.87,-455.02 151.72,-444.21 164,-433 206.16,-394.52 200.48,-368.07 247,-335 270.04,-318.62 299.1,-306.71 323.99,-298.59"/>
<polygon fill="midnightblue" stroke="midnightblue" points="121.62,-461.01 115.18,-469.42 125.46,-466.87 121.62,-461.01"/>
</g>
<!-- Node32 -->
<g id="node32" class="node">
<title>Node32</title>
<g id="a_node32"><a xlink:href="_specular_material_8cpp.html" target="_top" xlink:title=" ">
<polygon fill="white" stroke="black" points="28.5,-402.5 28.5,-432.5 155.5,-432.5 155.5,-402.5 28.5,-402.5"/>
<text text-anchor="start" x="36.5" y="-420.5" font-family="Helvetica,sans-Serif" font-size="10.00">D:/PathTracer/PathTracer</text>
<text text-anchor="middle" x="92" y="-409.5" font-family="Helvetica,sans-Serif" font-size="10.00">/SpecularMaterial.cpp</text>
</a>
</g>
</g>
<!-- Node31&#45;&gt;Node32 -->
<g id="edge37" class="edge">
<title>Node31&#45;&gt;Node32</title>
<path fill="none" stroke="midnightblue" d="M92,-459.11C92,-450.15 92,-440.32 92,-432.58"/>
<polygon fill="midnightblue" stroke="midnightblue" points="88.5,-459.4 92,-469.4 95.5,-459.4 88.5,-459.4"/>
</g>
<!-- Node33&#45;&gt;Node5 -->
<g id="edge40" class="edge">
<title>Node33&#45;&gt;Node5</title>
<path fill="none" stroke="midnightblue" d="M735.18,-526.43C737.96,-509.79 742.86,-487.42 751,-469 773.48,-418.15 803.04,-418.27 822,-366 848.14,-293.94 845.32,-199.88 843.1,-164.64"/>
<polygon fill="midnightblue" stroke="midnightblue" points="731.7,-526.03 733.65,-536.44 738.62,-527.08 731.7,-526.03"/>
</g>
<!-- Node34 -->
<g id="node34" class="node">
<title>Node34</title>
<g id="a_node34"><a xlink:href="_perspective_camera_8cpp.html" target="_top" xlink:title=" ">
<polygon fill="white" stroke="black" points="760.5,-469.5 760.5,-499.5 887.5,-499.5 887.5,-469.5 760.5,-469.5"/>
<text text-anchor="start" x="768.5" y="-487.5" font-family="Helvetica,sans-Serif" font-size="10.00">D:/PathTracer/PathTracer</text>
<text text-anchor="middle" x="824" y="-476.5" font-family="Helvetica,sans-Serif" font-size="10.00">/PerspectiveCamera.cpp</text>
</a>
</g>
</g>
<!-- Node33&#45;&gt;Node34 -->
<g id="edge39" class="edge">
<title>Node33&#45;&gt;Node34</title>
<path fill="none" stroke="midnightblue" d="M760.38,-530.45C774.53,-520.45 791.31,-508.6 804.08,-499.58"/>
<polygon fill="midnightblue" stroke="midnightblue" points="758.11,-527.77 751.96,-536.4 762.15,-533.48 758.11,-527.77"/>
</g>
<!-- Node37&#45;&gt;Node5 -->
<g id="edge45" class="edge">
<title>Node37&#45;&gt;Node5</title>
<path fill="none" stroke="midnightblue" d="M860.49,-665.16C873.14,-657.1 886.19,-646.63 895,-634 916.39,-603.32 916,-589.91 916,-552.5 916,-552.5 916,-552.5 916,-282.5 916,-234.42 878.19,-187.63 856.62,-164.85"/>
<polygon fill="midnightblue" stroke="midnightblue" points="858.62,-662.2 851.86,-670.36 862.23,-668.2 858.62,-662.2"/>
</g>
<!-- Node38 -->
<g id="node38" class="node">
<title>Node38</title>
<g id="a_node38"><a xlink:href="_picture_8cpp.html" target="_top" xlink:title=" ">
<polygon fill="white" stroke="black" points="758.5,-603.5 758.5,-633.5 885.5,-633.5 885.5,-603.5 758.5,-603.5"/>
<text text-anchor="start" x="766.5" y="-621.5" font-family="Helvetica,sans-Serif" font-size="10.00">D:/PathTracer/PathTracer</text>
<text text-anchor="middle" x="822" y="-610.5" font-family="Helvetica,sans-Serif" font-size="10.00">/Picture.cpp</text>
</a>
</g>
</g>
<!-- Node37&#45;&gt;Node38 -->
<g id="edge44" class="edge">
<title>Node37&#45;&gt;Node38</title>
<path fill="none" stroke="midnightblue" d="M822,-660.11C822,-651.15 822,-641.32 822,-633.58"/>
<polygon fill="midnightblue" stroke="midnightblue" points="818.5,-660.4 822,-670.4 825.5,-660.4 818.5,-660.4"/>
</g>
</g>
</svg>
        <g id="navigator" transform="translate(0 0)" fill="#404254">
                <rect fill="#f2f5e9" fill-opacity="0.5" stroke="#606060" stroke-width=".5" x="0" y="0" width="60" height="60"/>
                <use id="zoomplus" xlink:href="#zoomPlus" x="17" y="9" onmousedown="handleZoom(evt,'in')"/>
                <use id="zoomminus" xlink:href="#zoomMin" x="42" y="9" onmousedown="handleZoom(evt,'out')"/>
                <use id="reset" xlink:href="#resetDef" x="30" y="36" onmousedown="handleReset()"/>
                <g id="arrowUp" xlink:href="#dirArrow" transform="translate(30 24)" onmousedown="handlePan(0,-1)">
                  <use xlink:href="#rim" fill="#404040">
                        <set attributeName="fill" to="#808080" begin="arrowUp.mouseover" end="arrowUp.mouseout"/>
                  </use>
                  <path fill="none" stroke="white" stroke-width="1.5" d="M0,-3.0v7 M-2.5,-0.5L0,-3.0L2.5,-0.5"/>
                </g>
                <g id="arrowRight" xlink:href="#dirArrow" transform="rotate(90) translate(36 -43)" onmousedown="handlePan(1,0)">
                  <use xlink:href="#rim" fill="#404040">
                        <set attributeName="fill" to="#808080" begin="arrowRight.mouseover" end="arrowRight.mouseout"/>
                  </use>
                  <path fill="none" stroke="white" stroke-width="1.5" d="M0,-3.0v7 M-2.5,-0.5L0,-3.0L2.5,-0.5"/>
                </g>
                <g id="arrowDown" xlink:href="#dirArrow" transform="rotate(180) translate(-30 -48)" onmousedown="handlePan(0,1)">
                  <use xlink:href="#rim" fill="#404040">
                        <set attributeName="fill" to="#808080" begin="arrowDown.mouseover" end="arrowDown.mouseout"/>
                  </use>
                  <path fill="none" stroke="white" stroke-width="1.5" d="M0,-3.0v7 M-2.5,-0.5L0,-3.0L2.5,-0.5"/>
                </g>
                <g id="arrowLeft" xlink:href="#dirArrow" transform="rotate(270) translate(-36 17)" onmousedown="handlePan(-1,0)">
                  <use xlink:href="#rim" fill="#404040">
                        <set attributeName="fill" to="#808080" begin="arrowLeft.mouseover" end="arrowLeft.mouseout"/>
                  </use>
                  <path fill="none" stroke="white" stroke-width="1.5" d="M0,-3.0v7 M-2.5,-0.5L0,-3.0L2.5,-0.5"/>
                </g>
        </g>
        <svg viewBox="0 0 15 15" width="100%" height="30px" preserveAspectRatio="xMaxYMin meet">
         <g id="arrow_out" transform="scale(0.3 0.3)">
          <a xlink:href="_interface_gestion_8h__dep__incl_org.svg" target="_base">
           <rect id="button" ry="5" rx="5" y="6" x="6" height="38" width="38"
                fill="#f2f5e9" fill-opacity="0.5" stroke="#606060" stroke-width="1.0"/>
           <path id="arrow"
             d="M 11.500037,31.436501 C 11.940474,20.09759 22.043105,11.32322 32.158766,21.979434 L 37.068811,17.246167 C 37.068811,17.246167 37.088388,32 37.088388,32 L 22.160133,31.978069 C 22.160133,31.978069 26.997745,27.140456 26.997745,27.140456 C 18.528582,18.264221 13.291696,25.230495 11.500037,31.436501 z"
             style="fill:#404040;"/>
          </a>
         </g>
        </svg>
</svg>
