<?xml version="1.0" encoding="UTF-8" standalone="no"?>
<!DOCTYPE svg PUBLIC "-//W3C//DTD SVG 1.1//EN"
 "http://www.w3.org/Graphics/SVG/1.1/DTD/svg11.dtd">
<!-- Generated by graphviz version 2.44.1 (20200629.0800)
 -->
<!-- Title: D:/PathTracer/PathTracer/Material.h Pages: 1 -->
<svg width="937pt" height="575pt"
 viewBox="0.00 0.00 937.00 575.00" xmlns="http://www.w3.org/2000/svg" xmlns:xlink="http://www.w3.org/1999/xlink">
<g id="graph0" class="graph" transform="scale(1 1) rotate(0) translate(4 571)">
<title>D:/PathTracer/PathTracer/Material.h</title>
<polygon fill="white" stroke="transparent" points="-4,4 -4,-571 933,-571 933,4 -4,4"/>
<!-- Node1 -->
<g id="node1" class="node">
<title>Node1</title>
<g id="a_node1"><a xlink:title="Defines the Material class and some functions around it.">
<polygon fill="#bfbfbf" stroke="black" points="584,-536.5 584,-566.5 711,-566.5 711,-536.5 584,-536.5"/>
<text text-anchor="start" x="592" y="-554.5" font-family="Helvetica,sans-Serif" font-size="10.00">D:/PathTracer/PathTracer</text>
<text text-anchor="middle" x="647.5" y="-543.5" font-family="Helvetica,sans-Serif" font-size="10.00">/Material.h</text>
</a>
</g>
</g>
<!-- Node2 -->
<g id="node2" class="node">
<title>Node2</title>
<g id="a_node2"><a xlink:href="_diffuse_material_8h.html" target="_top" xlink:title="Defines the DiffuseMaterial class.">
<polygon fill="white" stroke="black" points="329,-469.5 329,-499.5 456,-499.5 456,-469.5 329,-469.5"/>
<text text-anchor="start" x="337" y="-487.5" font-family="Helvetica,sans-Serif" font-size="10.00">D:/PathTracer/PathTracer</text>
<text text-anchor="middle" x="392.5" y="-476.5" font-family="Helvetica,sans-Serif" font-size="10.00">/DiffuseMaterial.h</text>
</a>
</g>
</g>
<!-- Node1&#45;&gt;Node2 -->
<g id="edge1" class="edge">
<title>Node1&#45;&gt;Node2</title>
<path fill="none" stroke="midnightblue" d="M582.71,-533.98C541.06,-523.37 487.52,-509.72 447.86,-499.61"/>
<polygon fill="midnightblue" stroke="midnightblue" points="581.93,-537.4 592.48,-536.48 583.66,-530.61 581.93,-537.4"/>
</g>
<!-- Node23 -->
<g id="node23" class="node">
<title>Node23</title>
<g id="a_node23"><a xlink:href="_material_8cpp.html" target="_top" xlink:title=" ">
<polygon fill="white" stroke="black" points="802,-469.5 802,-499.5 929,-499.5 929,-469.5 802,-469.5"/>
<text text-anchor="start" x="810" y="-487.5" font-family="Helvetica,sans-Serif" font-size="10.00">D:/PathTracer/PathTracer</text>
<text text-anchor="middle" x="865.5" y="-476.5" font-family="Helvetica,sans-Serif" font-size="10.00">/Material.cpp</text>
</a>
</g>
</g>
<!-- Node1&#45;&gt;Node23 -->
<g id="edge26" class="edge">
<title>Node1&#45;&gt;Node23</title>
<path fill="none" stroke="midnightblue" d="M704.25,-533.58C739.66,-523.02 784.7,-509.59 818.17,-499.61"/>
<polygon fill="midnightblue" stroke="midnightblue" points="703.12,-530.26 694.53,-536.48 705.12,-536.97 703.12,-530.26"/>
</g>
<!-- Node24 -->
<g id="node24" class="node">
<title>Node24</title>
<g id="a_node24"><a xlink:href="_refractive_material_8h.html" target="_top" xlink:title="Defines the RefractiveMaterial class.">
<polygon fill="white" stroke="black" points="512,-469.5 512,-499.5 639,-499.5 639,-469.5 512,-469.5"/>
<text text-anchor="start" x="520" y="-487.5" font-family="Helvetica,sans-Serif" font-size="10.00">D:/PathTracer/PathTracer</text>
<text text-anchor="middle" x="575.5" y="-476.5" font-family="Helvetica,sans-Serif" font-size="10.00">/RefractiveMaterial.h</text>
</a>
</g>
</g>
<!-- Node1&#45;&gt;Node24 -->
<g id="edge27" class="edge">
<title>Node1&#45;&gt;Node24</title>
<path fill="none" stroke="midnightblue" d="M624.35,-529.6C613.48,-519.78 600.8,-508.34 591.09,-499.58"/>
<polygon fill="midnightblue" stroke="midnightblue" points="622.11,-532.29 631.88,-536.4 626.8,-527.1 622.11,-532.29"/>
</g>
<!-- Node26 -->
<g id="node26" class="node">
<title>Node26</title>
<g id="a_node26"><a xlink:href="_specular_material_8h.html" target="_top" xlink:title="Defines the SpecularMaterial class.">
<polygon fill="white" stroke="black" points="657,-469.5 657,-499.5 784,-499.5 784,-469.5 657,-469.5"/>
<text text-anchor="start" x="665" y="-487.5" font-family="Helvetica,sans-Serif" font-size="10.00">D:/PathTracer/PathTracer</text>
<text text-anchor="middle" x="720.5" y="-476.5" font-family="Helvetica,sans-Serif" font-size="10.00">/SpecularMaterial.h</text>
</a>
</g>
</g>
<!-- Node1&#45;&gt;Node26 -->
<g id="edge30" class="edge">
<title>Node1&#45;&gt;Node26</title>
<path fill="none" stroke="midnightblue" d="M670.97,-529.6C682,-519.78 694.84,-508.34 704.69,-499.58"/>
<polygon fill="midnightblue" stroke="midnightblue" points="668.48,-527.13 663.34,-536.4 673.14,-532.36 668.48,-527.13"/>
</g>
<!-- Node3 -->
<g id="node3" class="node">
<title>Node3</title>
<g id="a_node3"><a xlink:href="_diffuse_material_8cpp.html" target="_top" xlink:title=" ">
<polygon fill="white" stroke="black" points="290,-402.5 290,-432.5 417,-432.5 417,-402.5 290,-402.5"/>
<text text-anchor="start" x="298" y="-420.5" font-family="Helvetica,sans-Serif" font-size="10.00">D:/PathTracer/PathTracer</text>
<text text-anchor="middle" x="353.5" y="-409.5" font-family="Helvetica,sans-Serif" font-size="10.00">/DiffuseMaterial.cpp</text>
</a>
</g>
</g>
<!-- Node2&#45;&gt;Node3 -->
<g id="edge2" class="edge">
<title>Node2&#45;&gt;Node3</title>
<path fill="none" stroke="midnightblue" d="M378.75,-460.58C373.14,-451.24 366.85,-440.75 361.95,-432.58"/>
<polygon fill="midnightblue" stroke="midnightblue" points="375.89,-462.62 384.04,-469.4 381.89,-459.02 375.89,-462.62"/>
</g>
<!-- Node4 -->
<g id="node4" class="node">
<title>Node4</title>
<g id="a_node4"><a xlink:href="_interface_creation_8h.html" target="_top" xlink:title="Defines functions that are used to ask for values to the user, and to interactively create 3D objects...">
<polygon fill="white" stroke="black" points="401,-268.5 401,-298.5 528,-298.5 528,-268.5 401,-268.5"/>
<text text-anchor="start" x="409" y="-286.5" font-family="Helvetica,sans-Serif" font-size="10.00">D:/PathTracer/PathTracer</text>
<text text-anchor="middle" x="464.5" y="-275.5" font-family="Helvetica,sans-Serif" font-size="10.00">/InterfaceCreation.h</text>
</a>
</g>
</g>
<!-- Node2&#45;&gt;Node4 -->
<g id="edge3" class="edge">
<title>Node2&#45;&gt;Node4</title>
<path fill="none" stroke="midnightblue" d="M409.43,-461C415.17,-452.56 421.21,-442.66 425.5,-433 446.37,-385.98 457.94,-325.45 462.37,-298.51"/>
<polygon fill="midnightblue" stroke="midnightblue" points="406.55,-459.01 403.65,-469.2 412.27,-463.04 406.55,-459.01"/>
</g>
<!-- Node17 -->
<g id="node17" class="node">
<title>Node17</title>
<g id="a_node17"><a xlink:href="_object3_d_8h.html" target="_top" xlink:title="Defines the Object3D class and some functions around it.">
<polygon fill="white" stroke="black" points="145,-402.5 145,-432.5 272,-432.5 272,-402.5 145,-402.5"/>
<text text-anchor="start" x="153" y="-420.5" font-family="Helvetica,sans-Serif" font-size="10.00">D:/PathTracer/PathTracer</text>
<text text-anchor="middle" x="208.5" y="-409.5" font-family="Helvetica,sans-Serif" font-size="10.00">/Object3D.h</text>
</a>
</g>
</g>
<!-- Node2&#45;&gt;Node17 -->
<g id="edge18" class="edge">
<title>Node2&#45;&gt;Node17</title>
<path fill="none" stroke="midnightblue" d="M342.83,-465.96C313.2,-455.48 276.06,-442.37 248.35,-432.58"/>
<polygon fill="midnightblue" stroke="midnightblue" points="341.98,-469.37 352.57,-469.4 344.31,-462.76 341.98,-469.37"/>
</g>
<!-- Node5 -->
<g id="node5" class="node">
<title>Node5</title>
<g id="a_node5"><a xlink:href="_interface_creation_8cpp.html" target="_top" xlink:title=" ">
<polygon fill="white" stroke="black" points="183,-201.5 183,-231.5 310,-231.5 310,-201.5 183,-201.5"/>
<text text-anchor="start" x="191" y="-219.5" font-family="Helvetica,sans-Serif" font-size="10.00">D:/PathTracer/PathTracer</text>
<text text-anchor="middle" x="246.5" y="-208.5" font-family="Helvetica,sans-Serif" font-size="10.00">/InterfaceCreation.cpp</text>
</a>
</g>
</g>
<!-- Node4&#45;&gt;Node5 -->
<g id="edge4" class="edge">
<title>Node4&#45;&gt;Node5</title>
<path fill="none" stroke="midnightblue" d="M407.75,-265.58C372.34,-255.02 327.3,-241.59 293.83,-231.61"/>
<polygon fill="midnightblue" stroke="midnightblue" points="406.88,-268.97 417.47,-268.48 408.88,-262.26 406.88,-268.97"/>
</g>
<!-- Node6 -->
<g id="node6" class="node">
<title>Node6</title>
<g id="a_node6"><a xlink:href="_k_d_tree_node_8h.html" target="_top" xlink:title="Defines the KDTreeNode class and some functions around it.">
<polygon fill="white" stroke="black" points="328,-201.5 328,-231.5 455,-231.5 455,-201.5 328,-201.5"/>
<text text-anchor="start" x="336" y="-219.5" font-family="Helvetica,sans-Serif" font-size="10.00">D:/PathTracer/PathTracer</text>
<text text-anchor="middle" x="391.5" y="-208.5" font-family="Helvetica,sans-Serif" font-size="10.00">/KDTreeNode.h</text>
</a>
</g>
</g>
<!-- Node4&#45;&gt;Node6 -->
<g id="edge5" class="edge">
<title>Node4&#45;&gt;Node6</title>
<path fill="none" stroke="midnightblue" d="M441.03,-261.6C430,-251.78 417.16,-240.34 407.31,-231.58"/>
<polygon fill="midnightblue" stroke="midnightblue" points="438.86,-264.36 448.66,-268.4 443.52,-259.13 438.86,-264.36"/>
</g>
<!-- Node13 -->
<g id="node13" class="node">
<title>Node13</title>
<g id="a_node13"><a xlink:href="_object3_d_group_8h.html" target="_top" xlink:title="Defines the Object3DGroup class and some functions around it.">
<polygon fill="white" stroke="black" points="473,-201.5 473,-231.5 600,-231.5 600,-201.5 473,-201.5"/>
<text text-anchor="start" x="481" y="-219.5" font-family="Helvetica,sans-Serif" font-size="10.00">D:/PathTracer/PathTracer</text>
<text text-anchor="middle" x="536.5" y="-208.5" font-family="Helvetica,sans-Serif" font-size="10.00">/Object3DGroup.h</text>
</a>
</g>
</g>
<!-- Node4&#45;&gt;Node13 -->
<g id="edge12" class="edge">
<title>Node4&#45;&gt;Node13</title>
<path fill="none" stroke="midnightblue" d="M487.65,-261.6C498.52,-251.78 511.2,-240.34 520.91,-231.58"/>
<polygon fill="midnightblue" stroke="midnightblue" points="485.2,-259.1 480.12,-268.4 489.89,-264.29 485.2,-259.1"/>
</g>
<!-- Node15 -->
<g id="node15" class="node">
<title>Node15</title>
<g id="a_node15"><a xlink:href="_picture_8h.html" target="_top" xlink:title="Defines the Picture class and some functions around it.">
<polygon fill="white" stroke="black" points="618,-201.5 618,-231.5 745,-231.5 745,-201.5 618,-201.5"/>
<text text-anchor="start" x="626" y="-219.5" font-family="Helvetica,sans-Serif" font-size="10.00">D:/PathTracer/PathTracer</text>
<text text-anchor="middle" x="681.5" y="-208.5" font-family="Helvetica,sans-Serif" font-size="10.00">/Picture.h</text>
</a>
</g>
</g>
<!-- Node4&#45;&gt;Node15 -->
<g id="edge15" class="edge">
<title>Node4&#45;&gt;Node15</title>
<path fill="none" stroke="midnightblue" d="M520.99,-265.58C556.23,-255.02 601.07,-241.59 634.39,-231.61"/>
<polygon fill="midnightblue" stroke="midnightblue" points="519.89,-262.25 511.32,-268.48 521.9,-268.96 519.89,-262.25"/>
</g>
<!-- Node7 -->
<g id="node7" class="node">
<title>Node7</title>
<g id="a_node7"><a xlink:href="_k_d_tree_node_8cpp.html" target="_top" xlink:title=" ">
<polygon fill="white" stroke="black" points="256,-134.5 256,-164.5 383,-164.5 383,-134.5 256,-134.5"/>
<text text-anchor="start" x="264" y="-152.5" font-family="Helvetica,sans-Serif" font-size="10.00">D:/PathTracer/PathTracer</text>
<text text-anchor="middle" x="319.5" y="-141.5" font-family="Helvetica,sans-Serif" font-size="10.00">/KDTreeNode.cpp</text>
</a>
</g>
</g>
<!-- Node6&#45;&gt;Node7 -->
<g id="edge6" class="edge">
<title>Node6&#45;&gt;Node7</title>
<path fill="none" stroke="midnightblue" d="M368.35,-194.6C357.48,-184.78 344.8,-173.34 335.09,-164.58"/>
<polygon fill="midnightblue" stroke="midnightblue" points="366.11,-197.29 375.88,-201.4 370.8,-192.1 366.11,-197.29"/>
</g>
<!-- Node8 -->
<g id="node8" class="node">
<title>Node8</title>
<g id="a_node8"><a xlink:href="_scene_8h.html" target="_top" xlink:title="Defines the Scene class and some functions around it.">
<polygon fill="white" stroke="black" points="401,-134.5 401,-164.5 528,-164.5 528,-134.5 401,-134.5"/>
<text text-anchor="start" x="409" y="-152.5" font-family="Helvetica,sans-Serif" font-size="10.00">D:/PathTracer/PathTracer</text>
<text text-anchor="middle" x="464.5" y="-141.5" font-family="Helvetica,sans-Serif" font-size="10.00">/Scene.h</text>
</a>
</g>
</g>
<!-- Node6&#45;&gt;Node8 -->
<g id="edge7" class="edge">
<title>Node6&#45;&gt;Node8</title>
<path fill="none" stroke="midnightblue" d="M414.97,-194.6C426,-184.78 438.84,-173.34 448.69,-164.58"/>
<polygon fill="midnightblue" stroke="midnightblue" points="412.48,-192.13 407.34,-201.4 417.14,-197.36 412.48,-192.13"/>
</g>
<!-- Node9 -->
<g id="node9" class="node">
<title>Node9</title>
<g id="a_node9"><a xlink:href="_interface_8h.html" target="_top" xlink:title="Defines some functions for the interface.">
<polygon fill="white" stroke="black" points="328,-67.5 328,-97.5 455,-97.5 455,-67.5 328,-67.5"/>
<text text-anchor="start" x="336" y="-85.5" font-family="Helvetica,sans-Serif" font-size="10.00">D:/PathTracer/PathTracer</text>
<text text-anchor="middle" x="391.5" y="-74.5" font-family="Helvetica,sans-Serif" font-size="10.00">/Interface.h</text>
</a>
</g>
</g>
<!-- Node8&#45;&gt;Node9 -->
<g id="edge8" class="edge">
<title>Node8&#45;&gt;Node9</title>
<path fill="none" stroke="midnightblue" d="M441.03,-127.6C430,-117.78 417.16,-106.34 407.31,-97.58"/>
<polygon fill="midnightblue" stroke="midnightblue" points="438.86,-130.36 448.66,-134.4 443.52,-125.13 438.86,-130.36"/>
</g>
<!-- Node12 -->
<g id="node12" class="node">
<title>Node12</title>
<g id="a_node12"><a xlink:href="_scene_8cpp.html" target="_top" xlink:title=" ">
<polygon fill="white" stroke="black" points="473,-67.5 473,-97.5 600,-97.5 600,-67.5 473,-67.5"/>
<text text-anchor="start" x="481" y="-85.5" font-family="Helvetica,sans-Serif" font-size="10.00">D:/PathTracer/PathTracer</text>
<text text-anchor="middle" x="536.5" y="-74.5" font-family="Helvetica,sans-Serif" font-size="10.00">/Scene.cpp</text>
</a>
</g>
</g>
<!-- Node8&#45;&gt;Node12 -->
<g id="edge11" class="edge">
<title>Node8&#45;&gt;Node12</title>
<path fill="none" stroke="midnightblue" d="M487.65,-127.6C498.52,-117.78 511.2,-106.34 520.91,-97.58"/>
<polygon fill="midnightblue" stroke="midnightblue" points="485.2,-125.1 480.12,-134.4 489.89,-130.29 485.2,-125.1"/>
</g>
<!-- Node10 -->
<g id="node10" class="node">
<title>Node10</title>
<g id="a_node10"><a xlink:href="_interface_8cpp.html" target="_top" xlink:title=" ">
<polygon fill="white" stroke="black" points="256,-0.5 256,-30.5 383,-30.5 383,-0.5 256,-0.5"/>
<text text-anchor="start" x="264" y="-18.5" font-family="Helvetica,sans-Serif" font-size="10.00">D:/PathTracer/PathTracer</text>
<text text-anchor="middle" x="319.5" y="-7.5" font-family="Helvetica,sans-Serif" font-size="10.00">/Interface.cpp</text>
</a>
</g>
</g>
<!-- Node9&#45;&gt;Node10 -->
<g id="edge9" class="edge">
<title>Node9&#45;&gt;Node10</title>
<path fill="none" stroke="midnightblue" d="M368.35,-60.6C357.48,-50.78 344.8,-39.34 335.09,-30.58"/>
<polygon fill="midnightblue" stroke="midnightblue" points="366.11,-63.29 375.88,-67.4 370.8,-58.1 366.11,-63.29"/>
</g>
<!-- Node11 -->
<g id="node11" class="node">
<title>Node11</title>
<g id="a_node11"><a xlink:href="main_8cpp.html" target="_top" xlink:title=" ">
<polygon fill="white" stroke="black" points="401,-0.5 401,-30.5 528,-30.5 528,-0.5 401,-0.5"/>
<text text-anchor="start" x="409" y="-18.5" font-family="Helvetica,sans-Serif" font-size="10.00">D:/PathTracer/PathTracer</text>
<text text-anchor="middle" x="464.5" y="-7.5" font-family="Helvetica,sans-Serif" font-size="10.00">/main.cpp</text>
</a>
</g>
</g>
<!-- Node9&#45;&gt;Node11 -->
<g id="edge10" class="edge">
<title>Node9&#45;&gt;Node11</title>
<path fill="none" stroke="midnightblue" d="M414.97,-60.6C426,-50.78 438.84,-39.34 448.69,-30.58"/>
<polygon fill="midnightblue" stroke="midnightblue" points="412.48,-58.13 407.34,-67.4 417.14,-63.36 412.48,-58.13"/>
</g>
<!-- Node13&#45;&gt;Node8 -->
<g id="edge14" class="edge">
<title>Node13&#45;&gt;Node8</title>
<path fill="none" stroke="midnightblue" d="M513.35,-194.6C502.48,-184.78 489.8,-173.34 480.09,-164.58"/>
<polygon fill="midnightblue" stroke="midnightblue" points="511.11,-197.29 520.88,-201.4 515.8,-192.1 511.11,-197.29"/>
</g>
<!-- Node14 -->
<g id="node14" class="node">
<title>Node14</title>
<g id="a_node14"><a xlink:href="_object3_d_group_8cpp.html" target="_top" xlink:title=" ">
<polygon fill="white" stroke="black" points="546,-134.5 546,-164.5 673,-164.5 673,-134.5 546,-134.5"/>
<text text-anchor="start" x="554" y="-152.5" font-family="Helvetica,sans-Serif" font-size="10.00">D:/PathTracer/PathTracer</text>
<text text-anchor="middle" x="609.5" y="-141.5" font-family="Helvetica,sans-Serif" font-size="10.00">/Object3DGroup.cpp</text>
</a>
</g>
</g>
<!-- Node13&#45;&gt;Node14 -->
<g id="edge13" class="edge">
<title>Node13&#45;&gt;Node14</title>
<path fill="none" stroke="midnightblue" d="M559.97,-194.6C571,-184.78 583.84,-173.34 593.69,-164.58"/>
<polygon fill="midnightblue" stroke="midnightblue" points="557.48,-192.13 552.34,-201.4 562.14,-197.36 557.48,-192.13"/>
</g>
<!-- Node15&#45;&gt;Node8 -->
<g id="edge17" class="edge">
<title>Node15&#45;&gt;Node8</title>
<path fill="none" stroke="midnightblue" d="M625.01,-198.58C589.77,-188.02 544.93,-174.59 511.61,-164.61"/>
<polygon fill="midnightblue" stroke="midnightblue" points="624.1,-201.96 634.68,-201.48 626.11,-195.25 624.1,-201.96"/>
</g>
<!-- Node16 -->
<g id="node16" class="node">
<title>Node16</title>
<g id="a_node16"><a xlink:href="_picture_8cpp.html" target="_top" xlink:title=" ">
<polygon fill="white" stroke="black" points="691,-134.5 691,-164.5 818,-164.5 818,-134.5 691,-134.5"/>
<text text-anchor="start" x="699" y="-152.5" font-family="Helvetica,sans-Serif" font-size="10.00">D:/PathTracer/PathTracer</text>
<text text-anchor="middle" x="754.5" y="-141.5" font-family="Helvetica,sans-Serif" font-size="10.00">/Picture.cpp</text>
</a>
</g>
</g>
<!-- Node15&#45;&gt;Node16 -->
<g id="edge16" class="edge">
<title>Node15&#45;&gt;Node16</title>
<path fill="none" stroke="midnightblue" d="M704.97,-194.6C716,-184.78 728.84,-173.34 738.69,-164.58"/>
<polygon fill="midnightblue" stroke="midnightblue" points="702.48,-192.13 697.34,-201.4 707.14,-197.36 702.48,-192.13"/>
</g>
<!-- Node18 -->
<g id="node18" class="node">
<title>Node18</title>
<g id="a_node18"><a xlink:href="_object3_d_8cpp.html" target="_top" xlink:title=" ">
<polygon fill="white" stroke="black" points="145,-335.5 145,-365.5 272,-365.5 272,-335.5 145,-335.5"/>
<text text-anchor="start" x="153" y="-353.5" font-family="Helvetica,sans-Serif" font-size="10.00">D:/PathTracer/PathTracer</text>
<text text-anchor="middle" x="208.5" y="-342.5" font-family="Helvetica,sans-Serif" font-size="10.00">/Object3D.cpp</text>
</a>
</g>
</g>
<!-- Node17&#45;&gt;Node18 -->
<g id="edge19" class="edge">
<title>Node17&#45;&gt;Node18</title>
<path fill="none" stroke="midnightblue" d="M208.5,-392.11C208.5,-383.15 208.5,-373.32 208.5,-365.58"/>
<polygon fill="midnightblue" stroke="midnightblue" points="205,-392.4 208.5,-402.4 212,-392.4 205,-392.4"/>
</g>
<!-- Node19 -->
<g id="node19" class="node">
<title>Node19</title>
<g id="a_node19"><a xlink:href="_sphere_8h.html" target="_top" xlink:title="Defines the Sphere class.">
<polygon fill="white" stroke="black" points="290,-335.5 290,-365.5 417,-365.5 417,-335.5 290,-335.5"/>
<text text-anchor="start" x="298" y="-353.5" font-family="Helvetica,sans-Serif" font-size="10.00">D:/PathTracer/PathTracer</text>
<text text-anchor="middle" x="353.5" y="-342.5" font-family="Helvetica,sans-Serif" font-size="10.00">/Sphere.h</text>
</a>
</g>
</g>
<!-- Node17&#45;&gt;Node19 -->
<g id="edge20" class="edge">
<title>Node17&#45;&gt;Node19</title>
<path fill="none" stroke="midnightblue" d="M249.17,-398.27C272.26,-387.92 300.74,-375.15 322.1,-365.58"/>
<polygon fill="midnightblue" stroke="midnightblue" points="247.66,-395.11 239.96,-402.4 250.52,-401.5 247.66,-395.11"/>
</g>
<!-- Node21 -->
<g id="node21" class="node">
<title>Node21</title>
<g id="a_node21"><a xlink:href="_triangle_8h.html" target="_top" xlink:title="Defines the Triangle class.">
<polygon fill="white" stroke="black" points="0,-335.5 0,-365.5 127,-365.5 127,-335.5 0,-335.5"/>
<text text-anchor="start" x="8" y="-353.5" font-family="Helvetica,sans-Serif" font-size="10.00">D:/PathTracer/PathTracer</text>
<text text-anchor="middle" x="63.5" y="-342.5" font-family="Helvetica,sans-Serif" font-size="10.00">/Triangle.h</text>
</a>
</g>
</g>
<!-- Node17&#45;&gt;Node21 -->
<g id="edge23" class="edge">
<title>Node17&#45;&gt;Node21</title>
<path fill="none" stroke="midnightblue" d="M167.83,-398.27C144.74,-387.92 116.26,-375.15 94.9,-365.58"/>
<polygon fill="midnightblue" stroke="midnightblue" points="166.48,-401.5 177.04,-402.4 169.34,-395.11 166.48,-401.5"/>
</g>
<!-- Node19&#45;&gt;Node4 -->
<g id="edge21" class="edge">
<title>Node19&#45;&gt;Node4</title>
<path fill="none" stroke="midnightblue" d="M386.3,-330.3C403.66,-320.12 424.62,-307.85 440.46,-298.58"/>
<polygon fill="midnightblue" stroke="midnightblue" points="384.45,-327.32 377.59,-335.4 387.98,-333.36 384.45,-327.32"/>
</g>
<!-- Node20 -->
<g id="node20" class="node">
<title>Node20</title>
<g id="a_node20"><a xlink:href="_sphere_8cpp.html" target="_top" xlink:title=" ">
<polygon fill="white" stroke="black" points="256,-268.5 256,-298.5 383,-298.5 383,-268.5 256,-268.5"/>
<text text-anchor="start" x="264" y="-286.5" font-family="Helvetica,sans-Serif" font-size="10.00">D:/PathTracer/PathTracer</text>
<text text-anchor="middle" x="319.5" y="-275.5" font-family="Helvetica,sans-Serif" font-size="10.00">/Sphere.cpp</text>
</a>
</g>
</g>
<!-- Node19&#45;&gt;Node20 -->
<g id="edge22" class="edge">
<title>Node19&#45;&gt;Node20</title>
<path fill="none" stroke="midnightblue" d="M341.36,-326.28C336.51,-317.02 331.09,-306.66 326.86,-298.58"/>
<polygon fill="midnightblue" stroke="midnightblue" points="338.39,-328.16 346.12,-335.4 344.59,-324.91 338.39,-328.16"/>
</g>
<!-- Node21&#45;&gt;Node4 -->
<g id="edge24" class="edge">
<title>Node21&#45;&gt;Node4</title>
<path fill="none" stroke="midnightblue" d="M137.19,-334.77C250.49,-315.78 281.43,-317.66 391.5,-299 394.56,-298.48 397.68,-297.93 400.84,-297.36"/>
<polygon fill="midnightblue" stroke="midnightblue" points="136.34,-331.37 127.07,-336.49 137.51,-338.27 136.34,-331.37"/>
</g>
<!-- Node22 -->
<g id="node22" class="node">
<title>Node22</title>
<g id="a_node22"><a xlink:href="_triangle_8cpp.html" target="_top" xlink:title=" ">
<polygon fill="white" stroke="black" points="0,-268.5 0,-298.5 127,-298.5 127,-268.5 0,-268.5"/>
<text text-anchor="start" x="8" y="-286.5" font-family="Helvetica,sans-Serif" font-size="10.00">D:/PathTracer/PathTracer</text>
<text text-anchor="middle" x="63.5" y="-275.5" font-family="Helvetica,sans-Serif" font-size="10.00">/Triangle.cpp</text>
</a>
</g>
</g>
<!-- Node21&#45;&gt;Node22 -->
<g id="edge25" class="edge">
<title>Node21&#45;&gt;Node22</title>
<path fill="none" stroke="midnightblue" d="M63.5,-325.11C63.5,-316.15 63.5,-306.32 63.5,-298.58"/>
<polygon fill="midnightblue" stroke="midnightblue" points="60,-325.4 63.5,-335.4 67,-325.4 60,-325.4"/>
</g>
<!-- Node24&#45;&gt;Node4 -->
<g id="edge28" class="edge">
<title>Node24&#45;&gt;Node4</title>
<path fill="none" stroke="midnightblue" d="M537,-464.17C524.35,-456.11 511.3,-445.64 502.5,-433 472.85,-390.41 466.32,-326.54 464.89,-298.52"/>
<polygon fill="midnightblue" stroke="midnightblue" points="535.26,-467.21 545.63,-469.37 538.87,-461.21 535.26,-467.21"/>
</g>
<!-- Node25 -->
<g id="node25" class="node">
<title>Node25</title>
<g id="a_node25"><a xlink:href="_refractive_material_8cpp.html" target="_top" xlink:title=" ">
<polygon fill="white" stroke="black" points="512,-402.5 512,-432.5 639,-432.5 639,-402.5 512,-402.5"/>
<text text-anchor="start" x="520" y="-420.5" font-family="Helvetica,sans-Serif" font-size="10.00">D:/PathTracer/PathTracer</text>
<text text-anchor="middle" x="575.5" y="-409.5" font-family="Helvetica,sans-Serif" font-size="10.00">/RefractiveMaterial.cpp</text>
</a>
</g>
</g>
<!-- Node24&#45;&gt;Node25 -->
<g id="edge29" class="edge">
<title>Node24&#45;&gt;Node25</title>
<path fill="none" stroke="midnightblue" d="M575.5,-459.11C575.5,-450.15 575.5,-440.32 575.5,-432.58"/>
<polygon fill="midnightblue" stroke="midnightblue" points="572,-459.4 575.5,-469.4 579,-459.4 572,-459.4"/>
</g>
<!-- Node26&#45;&gt;Node4 -->
<g id="edge31" class="edge">
<title>Node26&#45;&gt;Node4</title>
<path fill="none" stroke="midnightblue" d="M762.76,-464.08C774.91,-456.25 786.71,-445.96 793.5,-433 799.9,-420.8 801.44,-413.26 793.5,-402 733.41,-316.73 605.55,-293 528.11,-286.61"/>
<polygon fill="midnightblue" stroke="midnightblue" points="760.71,-461.22 753.91,-469.34 764.29,-467.23 760.71,-461.22"/>
</g>
<!-- Node27 -->
<g id="node27" class="node">
<title>Node27</title>
<g id="a_node27"><a xlink:href="_specular_material_8cpp.html" target="_top" xlink:title=" ">
<polygon fill="white" stroke="black" points="657,-402.5 657,-432.5 784,-432.5 784,-402.5 657,-402.5"/>
<text text-anchor="start" x="665" y="-420.5" font-family="Helvetica,sans-Serif" font-size="10.00">D:/PathTracer/PathTracer</text>
<text text-anchor="middle" x="720.5" y="-409.5" font-family="Helvetica,sans-Serif" font-size="10.00">/SpecularMaterial.cpp</text>
</a>
</g>
</g>
<!-- Node26&#45;&gt;Node27 -->
<g id="edge32" class="edge">
<title>Node26&#45;&gt;Node27</title>
<path fill="none" stroke="midnightblue" d="M720.5,-459.11C720.5,-450.15 720.5,-440.32 720.5,-432.58"/>
<polygon fill="midnightblue" stroke="midnightblue" points="717,-459.4 720.5,-469.4 724,-459.4 717,-459.4"/>
</g>
</g>
</svg>
