<?xml version="1.0" encoding="UTF-8" standalone="no"?>
<!DOCTYPE svg PUBLIC "-//W3C//DTD SVG 1.1//EN"
 "http://www.w3.org/Graphics/SVG/1.1/DTD/svg11.dtd">
<!-- Generated by graphviz version 2.44.1 (20200629.0800)
 -->
<!-- Title: D:/PathTracer/PathTracer/Object3D.h Pages: 1 -->
<!--zoomable 441 -->
<svg id="main" version="1.1" xmlns="http://www.w3.org/2000/svg" xmlns:xlink="http://www.w3.org/1999/xlink" xml:space="preserve" onload="init(evt)">
<style type="text/css"><![CDATA[
.edge:hover path { stroke: red; }
.edge:hover polygon { stroke: red; fill: red; }
]]></style>
<script type="text/javascript"><![CDATA[
var edges = document.getElementsByTagName('g');
if (edges && edges.length) {
  for (var i=0;i<edges.length;i++) {
    if (edges[i].id.substr(0,4)=='edge') {
      edges[i].setAttribute('class','edge');
    }
  }
}
]]></script>
        <defs>
                <circle id="rim" cx="0" cy="0" r="7"/>
                <circle id="rim2" cx="0" cy="0" r="3.5"/>
                <g id="zoomPlus">
                        <use xlink:href="#rim" fill="#404040">
                                <set attributeName="fill" to="#808080" begin="zoomplus.mouseover" end="zoomplus.mouseout"/>
                        </use>
                        <path d="M-4,0h8M0,-4v8" fill="none" stroke="white" stroke-width="1.5" pointer-events="none"/>
                </g>
                <g id="zoomMin">
                        <use xlink:href="#rim" fill="#404040">
                                <set attributeName="fill" to="#808080" begin="zoomminus.mouseover" end="zoomminus.mouseout"/>
                        </use>
                        <path d="M-4,0h8" fill="none" stroke="white" stroke-width="1.5" pointer-events="none"/>
                </g>
                <g id="dirArrow">
                        <path fill="none" stroke="white" stroke-width="1.5" d="M0,-3.0v7 M-2.5,-0.5L0,-3.0L2.5,-0.5"/>
                </g>
               <g id="resetDef">
                       <use xlink:href="#rim2" fill="#404040">
                               <set attributeName="fill" to="#808080" begin="reset.mouseover" end="reset.mouseout"/>
                       </use>
               </g>
        </defs>

<script type="text/javascript">
var viewWidth = 569;
var viewHeight = 441;
var sectionId = 'dynsection-1';
</script>
<script xlink:href="svgpan.js"/>
<svg id="graph" class="graph">
<g id="viewport">
<title>D:/PathTracer/PathTracer/Object3D.h</title>
<polygon fill="white" stroke="transparent" points="-4,4 -4,-437 565,-437 565,4 -4,4"/>
<!-- Node1 -->
<g id="node1" class="node">
<title>Node1</title>
<g id="a_node1"><a xlink:title="Defines the Object3D class and the functions around it.">
<polygon fill="#bfbfbf" stroke="black" points="145,-402.5 145,-432.5 272,-432.5 272,-402.5 145,-402.5"/>
<text text-anchor="start" x="153" y="-420.5" font-family="Helvetica,sans-Serif" font-size="10.00">D:/PathTracer/PathTracer</text>
<text text-anchor="middle" x="208.5" y="-409.5" font-family="Helvetica,sans-Serif" font-size="10.00">/Object3D.h</text>
</a>
</g>
</g>
<!-- Node2 -->
<g id="node2" class="node">
<title>Node2</title>
<g id="a_node2"><a xlink:href="_object3_d_8cpp.html" target="_top" xlink:title=" ">
<polygon fill="white" stroke="black" points="0,-335.5 0,-365.5 127,-365.5 127,-335.5 0,-335.5"/>
<text text-anchor="start" x="8" y="-353.5" font-family="Helvetica,sans-Serif" font-size="10.00">D:/PathTracer/PathTracer</text>
<text text-anchor="middle" x="63.5" y="-342.5" font-family="Helvetica,sans-Serif" font-size="10.00">/Object3D.cpp</text>
</a>
</g>
</g>
<!-- Node1&#45;&gt;Node2 -->
<g id="edge1" class="edge">
<title>Node1&#45;&gt;Node2</title>
<path fill="none" stroke="midnightblue" d="M167.83,-398.27C144.74,-387.92 116.26,-375.15 94.9,-365.58"/>
<polygon fill="midnightblue" stroke="midnightblue" points="166.48,-401.5 177.04,-402.4 169.34,-395.11 166.48,-401.5"/>
</g>
<!-- Node3 -->
<g id="node3" class="node">
<title>Node3</title>
<g id="a_node3"><a xlink:href="_sphere_8h.html" target="_top" xlink:title="Defines the Sphere class.">
<polygon fill="white" stroke="black" points="145,-335.5 145,-365.5 272,-365.5 272,-335.5 145,-335.5"/>
<text text-anchor="start" x="153" y="-353.5" font-family="Helvetica,sans-Serif" font-size="10.00">D:/PathTracer/PathTracer</text>
<text text-anchor="middle" x="208.5" y="-342.5" font-family="Helvetica,sans-Serif" font-size="10.00">/Sphere.h</text>
</a>
</g>
</g>
<!-- Node1&#45;&gt;Node3 -->
<g id="edge2" class="edge">
<title>Node1&#45;&gt;Node3</title>
<path fill="none" stroke="midnightblue" d="M208.5,-392.11C208.5,-383.15 208.5,-373.32 208.5,-365.58"/>
<polygon fill="midnightblue" stroke="midnightblue" points="205,-392.4 208.5,-402.4 212,-392.4 205,-392.4"/>
</g>
<!-- Node16 -->
<g id="node16" class="node">
<title>Node16</title>
<g id="a_node16"><a xlink:href="_triangle_8h.html" target="_top" xlink:title="Defines the Triangle class.">
<polygon fill="white" stroke="black" points="290,-335.5 290,-365.5 417,-365.5 417,-335.5 290,-335.5"/>
<text text-anchor="start" x="298" y="-353.5" font-family="Helvetica,sans-Serif" font-size="10.00">D:/PathTracer/PathTracer</text>
<text text-anchor="middle" x="353.5" y="-342.5" font-family="Helvetica,sans-Serif" font-size="10.00">/Triangle.h</text>
</a>
</g>
</g>
<!-- Node1&#45;&gt;Node16 -->
<g id="edge16" class="edge">
<title>Node1&#45;&gt;Node16</title>
<path fill="none" stroke="midnightblue" d="M249.17,-398.27C272.26,-387.92 300.74,-375.15 322.1,-365.58"/>
<polygon fill="midnightblue" stroke="midnightblue" points="247.66,-395.11 239.96,-402.4 250.52,-401.5 247.66,-395.11"/>
</g>
<!-- Node4 -->
<g id="node4" class="node">
<title>Node4</title>
<g id="a_node4"><a xlink:href="_interface_creation_8h.html" target="_top" xlink:title="Defines functions that are used to interactively create 3D objects and materials.">
<polygon fill="white" stroke="black" points="217,-268.5 217,-298.5 344,-298.5 344,-268.5 217,-268.5"/>
<text text-anchor="start" x="225" y="-286.5" font-family="Helvetica,sans-Serif" font-size="10.00">D:/PathTracer/PathTracer</text>
<text text-anchor="middle" x="280.5" y="-275.5" font-family="Helvetica,sans-Serif" font-size="10.00">/InterfaceCreation.h</text>
</a>
</g>
</g>
<!-- Node3&#45;&gt;Node4 -->
<g id="edge3" class="edge">
<title>Node3&#45;&gt;Node4</title>
<path fill="none" stroke="midnightblue" d="M231.65,-328.6C242.52,-318.78 255.2,-307.34 264.91,-298.58"/>
<polygon fill="midnightblue" stroke="midnightblue" points="229.2,-326.1 224.12,-335.4 233.89,-331.29 229.2,-326.1"/>
</g>
<!-- Node15 -->
<g id="node15" class="node">
<title>Node15</title>
<g id="a_node15"><a xlink:href="_sphere_8cpp.html" target="_top" xlink:title=" ">
<polygon fill="white" stroke="black" points="72,-268.5 72,-298.5 199,-298.5 199,-268.5 72,-268.5"/>
<text text-anchor="start" x="80" y="-286.5" font-family="Helvetica,sans-Serif" font-size="10.00">D:/PathTracer/PathTracer</text>
<text text-anchor="middle" x="135.5" y="-275.5" font-family="Helvetica,sans-Serif" font-size="10.00">/Sphere.cpp</text>
</a>
</g>
</g>
<!-- Node3&#45;&gt;Node15 -->
<g id="edge15" class="edge">
<title>Node3&#45;&gt;Node15</title>
<path fill="none" stroke="midnightblue" d="M185.03,-328.6C174,-318.78 161.16,-307.34 151.31,-298.58"/>
<polygon fill="midnightblue" stroke="midnightblue" points="182.86,-331.36 192.66,-335.4 187.52,-326.13 182.86,-331.36"/>
</g>
<!-- Node5 -->
<g id="node5" class="node">
<title>Node5</title>
<g id="a_node5"><a xlink:href="_interface_creation_8cpp.html" target="_top" xlink:title=" ">
<polygon fill="white" stroke="black" points="72,-201.5 72,-231.5 199,-231.5 199,-201.5 72,-201.5"/>
<text text-anchor="start" x="80" y="-219.5" font-family="Helvetica,sans-Serif" font-size="10.00">D:/PathTracer/PathTracer</text>
<text text-anchor="middle" x="135.5" y="-208.5" font-family="Helvetica,sans-Serif" font-size="10.00">/InterfaceCreation.cpp</text>
</a>
</g>
</g>
<!-- Node4&#45;&gt;Node5 -->
<g id="edge4" class="edge">
<title>Node4&#45;&gt;Node5</title>
<path fill="none" stroke="midnightblue" d="M239.83,-264.27C216.74,-253.92 188.26,-241.15 166.9,-231.58"/>
<polygon fill="midnightblue" stroke="midnightblue" points="238.48,-267.5 249.04,-268.4 241.34,-261.11 238.48,-267.5"/>
</g>
<!-- Node6 -->
<g id="node6" class="node">
<title>Node6</title>
<g id="a_node6"><a xlink:href="_k_d_tree_node_8h.html" target="_top" xlink:title="Defines the KDTreeNode class and the functions around it.">
<polygon fill="white" stroke="black" points="217,-201.5 217,-231.5 344,-231.5 344,-201.5 217,-201.5"/>
<text text-anchor="start" x="225" y="-219.5" font-family="Helvetica,sans-Serif" font-size="10.00">D:/PathTracer/PathTracer</text>
<text text-anchor="middle" x="280.5" y="-208.5" font-family="Helvetica,sans-Serif" font-size="10.00">/KDTreeNode.h</text>
</a>
</g>
</g>
<!-- Node4&#45;&gt;Node6 -->
<g id="edge5" class="edge">
<title>Node4&#45;&gt;Node6</title>
<path fill="none" stroke="midnightblue" d="M280.5,-258.11C280.5,-249.15 280.5,-239.32 280.5,-231.58"/>
<polygon fill="midnightblue" stroke="midnightblue" points="277,-258.4 280.5,-268.4 284,-258.4 277,-258.4"/>
</g>
<!-- Node13 -->
<g id="node13" class="node">
<title>Node13</title>
<g id="a_node13"><a xlink:href="_object3_d_group_8h.html" target="_top" xlink:title="Defines the Object3DGroup class and the functions around it.">
<polygon fill="white" stroke="black" points="362,-201.5 362,-231.5 489,-231.5 489,-201.5 362,-201.5"/>
<text text-anchor="start" x="370" y="-219.5" font-family="Helvetica,sans-Serif" font-size="10.00">D:/PathTracer/PathTracer</text>
<text text-anchor="middle" x="425.5" y="-208.5" font-family="Helvetica,sans-Serif" font-size="10.00">/Object3DGroup.h</text>
</a>
</g>
</g>
<!-- Node4&#45;&gt;Node13 -->
<g id="edge12" class="edge">
<title>Node4&#45;&gt;Node13</title>
<path fill="none" stroke="midnightblue" d="M321.17,-264.27C344.26,-253.92 372.74,-241.15 394.1,-231.58"/>
<polygon fill="midnightblue" stroke="midnightblue" points="319.66,-261.11 311.96,-268.4 322.52,-267.5 319.66,-261.11"/>
</g>
<!-- Node7 -->
<g id="node7" class="node">
<title>Node7</title>
<g id="a_node7"><a xlink:href="_k_d_tree_node_8cpp.html" target="_top" xlink:title=" ">
<polygon fill="white" stroke="black" points="144,-134.5 144,-164.5 271,-164.5 271,-134.5 144,-134.5"/>
<text text-anchor="start" x="152" y="-152.5" font-family="Helvetica,sans-Serif" font-size="10.00">D:/PathTracer/PathTracer</text>
<text text-anchor="middle" x="207.5" y="-141.5" font-family="Helvetica,sans-Serif" font-size="10.00">/KDTreeNode.cpp</text>
</a>
</g>
</g>
<!-- Node6&#45;&gt;Node7 -->
<g id="edge6" class="edge">
<title>Node6&#45;&gt;Node7</title>
<path fill="none" stroke="midnightblue" d="M257.03,-194.6C246,-184.78 233.16,-173.34 223.31,-164.58"/>
<polygon fill="midnightblue" stroke="midnightblue" points="254.86,-197.36 264.66,-201.4 259.52,-192.13 254.86,-197.36"/>
</g>
<!-- Node8 -->
<g id="node8" class="node">
<title>Node8</title>
<g id="a_node8"><a xlink:href="_scene_8h.html" target="_top" xlink:title="Defines the Scene class and the functions around it.">
<polygon fill="white" stroke="black" points="289,-134.5 289,-164.5 416,-164.5 416,-134.5 289,-134.5"/>
<text text-anchor="start" x="297" y="-152.5" font-family="Helvetica,sans-Serif" font-size="10.00">D:/PathTracer/PathTracer</text>
<text text-anchor="middle" x="352.5" y="-141.5" font-family="Helvetica,sans-Serif" font-size="10.00">/Scene.h</text>
</a>
</g>
</g>
<!-- Node6&#45;&gt;Node8 -->
<g id="edge7" class="edge">
<title>Node6&#45;&gt;Node8</title>
<path fill="none" stroke="midnightblue" d="M303.65,-194.6C314.52,-184.78 327.2,-173.34 336.91,-164.58"/>
<polygon fill="midnightblue" stroke="midnightblue" points="301.2,-192.1 296.12,-201.4 305.89,-197.29 301.2,-192.1"/>
</g>
<!-- Node9 -->
<g id="node9" class="node">
<title>Node9</title>
<g id="a_node9"><a xlink:href="_interface_8h.html" target="_top" xlink:title="Defines some functions for the interface.">
<polygon fill="white" stroke="black" points="216,-67.5 216,-97.5 343,-97.5 343,-67.5 216,-67.5"/>
<text text-anchor="start" x="224" y="-85.5" font-family="Helvetica,sans-Serif" font-size="10.00">D:/PathTracer/PathTracer</text>
<text text-anchor="middle" x="279.5" y="-74.5" font-family="Helvetica,sans-Serif" font-size="10.00">/Interface.h</text>
</a>
</g>
</g>
<!-- Node8&#45;&gt;Node9 -->
<g id="edge8" class="edge">
<title>Node8&#45;&gt;Node9</title>
<path fill="none" stroke="midnightblue" d="M329.03,-127.6C318,-117.78 305.16,-106.34 295.31,-97.58"/>
<polygon fill="midnightblue" stroke="midnightblue" points="326.86,-130.36 336.66,-134.4 331.52,-125.13 326.86,-130.36"/>
</g>
<!-- Node12 -->
<g id="node12" class="node">
<title>Node12</title>
<g id="a_node12"><a xlink:href="_scene_8cpp.html" target="_top" xlink:title=" ">
<polygon fill="white" stroke="black" points="361,-67.5 361,-97.5 488,-97.5 488,-67.5 361,-67.5"/>
<text text-anchor="start" x="369" y="-85.5" font-family="Helvetica,sans-Serif" font-size="10.00">D:/PathTracer/PathTracer</text>
<text text-anchor="middle" x="424.5" y="-74.5" font-family="Helvetica,sans-Serif" font-size="10.00">/Scene.cpp</text>
</a>
</g>
</g>
<!-- Node8&#45;&gt;Node12 -->
<g id="edge11" class="edge">
<title>Node8&#45;&gt;Node12</title>
<path fill="none" stroke="midnightblue" d="M375.65,-127.6C386.52,-117.78 399.2,-106.34 408.91,-97.58"/>
<polygon fill="midnightblue" stroke="midnightblue" points="373.2,-125.1 368.12,-134.4 377.89,-130.29 373.2,-125.1"/>
</g>
<!-- Node10 -->
<g id="node10" class="node">
<title>Node10</title>
<g id="a_node10"><a xlink:href="_interface_8cpp.html" target="_top" xlink:title=" ">
<polygon fill="white" stroke="black" points="144,-0.5 144,-30.5 271,-30.5 271,-0.5 144,-0.5"/>
<text text-anchor="start" x="152" y="-18.5" font-family="Helvetica,sans-Serif" font-size="10.00">D:/PathTracer/PathTracer</text>
<text text-anchor="middle" x="207.5" y="-7.5" font-family="Helvetica,sans-Serif" font-size="10.00">/Interface.cpp</text>
</a>
</g>
</g>
<!-- Node9&#45;&gt;Node10 -->
<g id="edge9" class="edge">
<title>Node9&#45;&gt;Node10</title>
<path fill="none" stroke="midnightblue" d="M256.35,-60.6C245.48,-50.78 232.8,-39.34 223.09,-30.58"/>
<polygon fill="midnightblue" stroke="midnightblue" points="254.11,-63.29 263.88,-67.4 258.8,-58.1 254.11,-63.29"/>
</g>
<!-- Node11 -->
<g id="node11" class="node">
<title>Node11</title>
<g id="a_node11"><a xlink:href="main_8cpp.html" target="_top" xlink:title=" ">
<polygon fill="white" stroke="black" points="289,-0.5 289,-30.5 416,-30.5 416,-0.5 289,-0.5"/>
<text text-anchor="start" x="297" y="-18.5" font-family="Helvetica,sans-Serif" font-size="10.00">D:/PathTracer/PathTracer</text>
<text text-anchor="middle" x="352.5" y="-7.5" font-family="Helvetica,sans-Serif" font-size="10.00">/main.cpp</text>
</a>
</g>
</g>
<!-- Node9&#45;&gt;Node11 -->
<g id="edge10" class="edge">
<title>Node9&#45;&gt;Node11</title>
<path fill="none" stroke="midnightblue" d="M302.97,-60.6C314,-50.78 326.84,-39.34 336.69,-30.58"/>
<polygon fill="midnightblue" stroke="midnightblue" points="300.48,-58.13 295.34,-67.4 305.14,-63.36 300.48,-58.13"/>
</g>
<!-- Node13&#45;&gt;Node8 -->
<g id="edge14" class="edge">
<title>Node13&#45;&gt;Node8</title>
<path fill="none" stroke="midnightblue" d="M402.03,-194.6C391,-184.78 378.16,-173.34 368.31,-164.58"/>
<polygon fill="midnightblue" stroke="midnightblue" points="399.86,-197.36 409.66,-201.4 404.52,-192.13 399.86,-197.36"/>
</g>
<!-- Node14 -->
<g id="node14" class="node">
<title>Node14</title>
<g id="a_node14"><a xlink:href="_object3_d_group_8cpp.html" target="_top" xlink:title=" ">
<polygon fill="white" stroke="black" points="434,-134.5 434,-164.5 561,-164.5 561,-134.5 434,-134.5"/>
<text text-anchor="start" x="442" y="-152.5" font-family="Helvetica,sans-Serif" font-size="10.00">D:/PathTracer/PathTracer</text>
<text text-anchor="middle" x="497.5" y="-141.5" font-family="Helvetica,sans-Serif" font-size="10.00">/Object3DGroup.cpp</text>
</a>
</g>
</g>
<!-- Node13&#45;&gt;Node14 -->
<g id="edge13" class="edge">
<title>Node13&#45;&gt;Node14</title>
<path fill="none" stroke="midnightblue" d="M448.65,-194.6C459.52,-184.78 472.2,-173.34 481.91,-164.58"/>
<polygon fill="midnightblue" stroke="midnightblue" points="446.2,-192.1 441.12,-201.4 450.89,-197.29 446.2,-192.1"/>
</g>
<!-- Node16&#45;&gt;Node4 -->
<g id="edge17" class="edge">
<title>Node16&#45;&gt;Node4</title>
<path fill="none" stroke="midnightblue" d="M330.03,-328.6C319,-318.78 306.16,-307.34 296.31,-298.58"/>
<polygon fill="midnightblue" stroke="midnightblue" points="327.86,-331.36 337.66,-335.4 332.52,-326.13 327.86,-331.36"/>
</g>
<!-- Node17 -->
<g id="node17" class="node">
<title>Node17</title>
<g id="a_node17"><a xlink:href="_triangle_8cpp.html" target="_top" xlink:title=" ">
<polygon fill="white" stroke="black" points="362,-268.5 362,-298.5 489,-298.5 489,-268.5 362,-268.5"/>
<text text-anchor="start" x="370" y="-286.5" font-family="Helvetica,sans-Serif" font-size="10.00">D:/PathTracer/PathTracer</text>
<text text-anchor="middle" x="425.5" y="-275.5" font-family="Helvetica,sans-Serif" font-size="10.00">/Triangle.cpp</text>
</a>
</g>
</g>
<!-- Node16&#45;&gt;Node17 -->
<g id="edge18" class="edge">
<title>Node16&#45;&gt;Node17</title>
<path fill="none" stroke="midnightblue" d="M376.65,-328.6C387.52,-318.78 400.2,-307.34 409.91,-298.58"/>
<polygon fill="midnightblue" stroke="midnightblue" points="374.2,-326.1 369.12,-335.4 378.89,-331.29 374.2,-326.1"/>
</g>
</g>
</svg>
        <g id="navigator" transform="translate(0 0)" fill="#404254">
                <rect fill="#f2f5e9" fill-opacity="0.5" stroke="#606060" stroke-width=".5" x="0" y="0" width="60" height="60"/>
                <use id="zoomplus" xlink:href="#zoomPlus" x="17" y="9" onmousedown="handleZoom(evt,'in')"/>
                <use id="zoomminus" xlink:href="#zoomMin" x="42" y="9" onmousedown="handleZoom(evt,'out')"/>
                <use id="reset" xlink:href="#resetDef" x="30" y="36" onmousedown="handleReset()"/>
                <g id="arrowUp" xlink:href="#dirArrow" transform="translate(30 24)" onmousedown="handlePan(0,-1)">
                  <use xlink:href="#rim" fill="#404040">
                        <set attributeName="fill" to="#808080" begin="arrowUp.mouseover" end="arrowUp.mouseout"/>
                  </use>
                  <path fill="none" stroke="white" stroke-width="1.5" d="M0,-3.0v7 M-2.5,-0.5L0,-3.0L2.5,-0.5"/>
                </g>
                <g id="arrowRight" xlink:href="#dirArrow" transform="rotate(90) translate(36 -43)" onmousedown="handlePan(1,0)">
                  <use xlink:href="#rim" fill="#404040">
                        <set attributeName="fill" to="#808080" begin="arrowRight.mouseover" end="arrowRight.mouseout"/>
                  </use>
                  <path fill="none" stroke="white" stroke-width="1.5" d="M0,-3.0v7 M-2.5,-0.5L0,-3.0L2.5,-0.5"/>
                </g>
                <g id="arrowDown" xlink:href="#dirArrow" transform="rotate(180) translate(-30 -48)" onmousedown="handlePan(0,1)">
                  <use xlink:href="#rim" fill="#404040">
                        <set attributeName="fill" to="#808080" begin="arrowDown.mouseover" end="arrowDown.mouseout"/>
                  </use>
                  <path fill="none" stroke="white" stroke-width="1.5" d="M0,-3.0v7 M-2.5,-0.5L0,-3.0L2.5,-0.5"/>
                </g>
                <g id="arrowLeft" xlink:href="#dirArrow" transform="rotate(270) translate(-36 17)" onmousedown="handlePan(-1,0)">
                  <use xlink:href="#rim" fill="#404040">
                        <set attributeName="fill" to="#808080" begin="arrowLeft.mouseover" end="arrowLeft.mouseout"/>
                  </use>
                  <path fill="none" stroke="white" stroke-width="1.5" d="M0,-3.0v7 M-2.5,-0.5L0,-3.0L2.5,-0.5"/>
                </g>
        </g>
        <svg viewBox="0 0 15 15" width="100%" height="30px" preserveAspectRatio="xMaxYMin meet">
         <g id="arrow_out" transform="scale(0.3 0.3)">
          <a xlink:href="_object3_d_8h__dep__incl_org.svg" target="_base">
           <rect id="button" ry="5" rx="5" y="6" x="6" height="38" width="38"
                fill="#f2f5e9" fill-opacity="0.5" stroke="#606060" stroke-width="1.0"/>
           <path id="arrow"
             d="M 11.500037,31.436501 C 11.940474,20.09759 22.043105,11.32322 32.158766,21.979434 L 37.068811,17.246167 C 37.068811,17.246167 37.088388,32 37.088388,32 L 22.160133,31.978069 C 22.160133,31.978069 26.997745,27.140456 26.997745,27.140456 C 18.528582,18.264221 13.291696,25.230495 11.500037,31.436501 z"
             style="fill:#404040;"/>
          </a>
         </g>
        </svg>
</svg>
