<?xml version="1.0" encoding="UTF-8" standalone="no"?>
<!DOCTYPE svg PUBLIC "-//W3C//DTD SVG 1.1//EN"
 "http://www.w3.org/Graphics/SVG/1.1/DTD/svg11.dtd">
<!-- Generated by graphviz version 2.44.1 (20200629.0800)
 -->
<!-- Title: D:/PathTracer/PathTracer/Object3DGroup.h Pages: 1 -->
<svg width="1096pt" height="543pt"
 viewBox="0.00 0.00 1095.50 543.00" xmlns="http://www.w3.org/2000/svg" xmlns:xlink="http://www.w3.org/1999/xlink">
<g id="graph0" class="graph" transform="scale(1 1) rotate(0) translate(4 539)">
<title>D:/PathTracer/PathTracer/Object3DGroup.h</title>
<polygon fill="white" stroke="transparent" points="-4,4 -4,-539 1091.5,-539 1091.5,4 -4,4"/>
<!-- Node1 -->
<g id="node1" class="node">
<title>Node1</title>
<g id="a_node1"><a xlink:title="Defines the Object3DGroup class and the functions around it.">
<polygon fill="#bfbfbf" stroke="black" points="389,-504.5 389,-534.5 516,-534.5 516,-504.5 389,-504.5"/>
<text text-anchor="start" x="397" y="-522.5" font-family="Helvetica,sans-Serif" font-size="10.00">D:/PathTracer/PathTracer</text>
<text text-anchor="middle" x="452.5" y="-511.5" font-family="Helvetica,sans-Serif" font-size="10.00">/Object3DGroup.h</text>
</a>
</g>
</g>
<!-- Node2 -->
<g id="node2" class="node">
<title>Node2</title>
<g id="a_node2"><a xlink:title=" ">
<polygon fill="white" stroke="#bfbfbf" points="0,-280.5 0,-299.5 41,-299.5 41,-280.5 0,-280.5"/>
<text text-anchor="middle" x="20.5" y="-287.5" font-family="Helvetica,sans-Serif" font-size="10.00">string</text>
</a>
</g>
</g>
<!-- Node1&#45;&gt;Node2 -->
<g id="edge1" class="edge">
<title>Node1&#45;&gt;Node2</title>
<path fill="none" stroke="midnightblue" d="M388.58,-511.09C281.44,-497.34 72.42,-464.42 22.5,-412 -3.61,-384.59 6.04,-335.82 14.05,-309.34"/>
<polygon fill="midnightblue" stroke="midnightblue" points="17.4,-310.37 17.17,-299.78 10.74,-308.2 17.4,-310.37"/>
</g>
<!-- Node3 -->
<g id="node3" class="node">
<title>Node3</title>
<g id="a_node3"><a xlink:title=" ">
<polygon fill="white" stroke="#bfbfbf" points="344.5,-448.5 344.5,-467.5 386.5,-467.5 386.5,-448.5 344.5,-448.5"/>
<text text-anchor="middle" x="365.5" y="-455.5" font-family="Helvetica,sans-Serif" font-size="10.00">vector</text>
</a>
</g>
</g>
<!-- Node1&#45;&gt;Node3 -->
<g id="edge2" class="edge">
<title>Node1&#45;&gt;Node3</title>
<path fill="none" stroke="midnightblue" d="M431.88,-504.4C418.2,-495.04 400.29,-482.79 386.52,-473.38"/>
<polygon fill="midnightblue" stroke="midnightblue" points="388.39,-470.41 378.16,-467.66 384.44,-476.19 388.39,-470.41"/>
</g>
<!-- Node4 -->
<g id="node4" class="node">
<title>Node4</title>
<g id="a_node4"><a xlink:href="_double_vec3_d_8h.html" target="_top" xlink:title="Defines the DoubleVec3D class and the functions around it.">
<polygon fill="white" stroke="black" points="635.5,-56.5 635.5,-75.5 719.5,-75.5 719.5,-56.5 635.5,-56.5"/>
<text text-anchor="middle" x="677.5" y="-63.5" font-family="Helvetica,sans-Serif" font-size="10.00">DoubleVec3D.h</text>
</a>
</g>
</g>
<!-- Node1&#45;&gt;Node4 -->
<g id="edge3" class="edge">
<title>Node1&#45;&gt;Node4</title>
<path fill="none" stroke="midnightblue" d="M516,-513.58C676.82,-500.28 1087.5,-460.67 1087.5,-403 1087.5,-403 1087.5,-403 1087.5,-289 1087.5,-182.06 1018.18,-163.59 924.5,-112 863.29,-78.29 781.88,-69.15 729.57,-67.03"/>
<polygon fill="midnightblue" stroke="midnightblue" points="729.63,-63.53 719.52,-66.7 729.39,-70.53 729.63,-63.53"/>
</g>
<!-- Node9 -->
<g id="node9" class="node">
<title>Node9</title>
<g id="a_node9"><a xlink:href="_object3_d_8h.html" target="_top" xlink:title="Defines the Object3D class and the functions around it.">
<polygon fill="white" stroke="black" points="438,-336.5 438,-355.5 503,-355.5 503,-336.5 438,-336.5"/>
<text text-anchor="middle" x="470.5" y="-343.5" font-family="Helvetica,sans-Serif" font-size="10.00">Object3D.h</text>
</a>
</g>
</g>
<!-- Node1&#45;&gt;Node9 -->
<g id="edge8" class="edge">
<title>Node1&#45;&gt;Node9</title>
<path fill="none" stroke="midnightblue" d="M472.77,-504.38C484.63,-495.21 499.07,-482.33 508.5,-468 522.95,-446.05 523.22,-437.93 527.5,-412 528.95,-403.23 531.38,-400 527.5,-392 521.1,-378.8 508.75,-368.3 497.17,-360.78"/>
<polygon fill="midnightblue" stroke="midnightblue" points="498.95,-357.77 488.58,-355.61 495.34,-363.77 498.95,-357.77"/>
</g>
<!-- Node14 -->
<g id="node14" class="node">
<title>Node14</title>
<g id="a_node14"><a xlink:href="_interface_gestion_8h.html" target="_top" xlink:title="Defines functions that are used when drawing the interface.">
<polygon fill="white" stroke="black" points="405,-448.5 405,-467.5 500,-467.5 500,-448.5 405,-448.5"/>
<text text-anchor="middle" x="452.5" y="-455.5" font-family="Helvetica,sans-Serif" font-size="10.00">InterfaceGestion.h</text>
</a>
</g>
</g>
<!-- Node1&#45;&gt;Node14 -->
<g id="edge25" class="edge">
<title>Node1&#45;&gt;Node14</title>
<path fill="none" stroke="midnightblue" d="M452.5,-504.4C452.5,-496.47 452.5,-486.46 452.5,-477.86"/>
<polygon fill="midnightblue" stroke="midnightblue" points="456,-477.66 452.5,-467.66 449,-477.66 456,-477.66"/>
</g>
<!-- Node5 -->
<g id="node5" class="node">
<title>Node5</title>
<g id="a_node5"><a xlink:title=" ">
<polygon fill="white" stroke="#bfbfbf" points="722.5,-0.5 722.5,-19.5 776.5,-19.5 776.5,-0.5 722.5,-0.5"/>
<text text-anchor="middle" x="749.5" y="-7.5" font-family="Helvetica,sans-Serif" font-size="10.00">iostream</text>
</a>
</g>
</g>
<!-- Node4&#45;&gt;Node5 -->
<g id="edge4" class="edge">
<title>Node4&#45;&gt;Node5</title>
<path fill="none" stroke="midnightblue" d="M689.07,-56.32C699.92,-48.18 716.38,-35.84 729.38,-26.09"/>
<polygon fill="midnightblue" stroke="midnightblue" points="731.82,-28.63 737.72,-19.83 727.62,-23.03 731.82,-28.63"/>
</g>
<!-- Node6 -->
<g id="node6" class="node">
<title>Node6</title>
<g id="a_node6"><a xlink:title=" ">
<polygon fill="white" stroke="#bfbfbf" points="988,-0.5 988,-19.5 1035,-19.5 1035,-0.5 988,-0.5"/>
<text text-anchor="middle" x="1011.5" y="-7.5" font-family="Helvetica,sans-Serif" font-size="10.00">math.h</text>
</a>
</g>
</g>
<!-- Node4&#45;&gt;Node6 -->
<g id="edge5" class="edge">
<title>Node4&#45;&gt;Node6</title>
<path fill="none" stroke="midnightblue" d="M719.8,-58.16C787.01,-47.3 916.81,-26.31 978.01,-16.41"/>
<polygon fill="midnightblue" stroke="midnightblue" points="978.61,-19.86 987.92,-14.81 977.49,-12.95 978.61,-19.86"/>
</g>
<!-- Node7 -->
<g id="node7" class="node">
<title>Node7</title>
<g id="a_node7"><a xlink:title=" ">
<polygon fill="white" stroke="#bfbfbf" points="534.5,-0.5 534.5,-19.5 632.5,-19.5 632.5,-0.5 534.5,-0.5"/>
<text text-anchor="middle" x="583.5" y="-7.5" font-family="Helvetica,sans-Serif" font-size="10.00">nlohmann/json.hpp</text>
</a>
</g>
</g>
<!-- Node4&#45;&gt;Node7 -->
<g id="edge6" class="edge">
<title>Node4&#45;&gt;Node7</title>
<path fill="none" stroke="midnightblue" d="M662.4,-56.32C647.6,-47.82 624.81,-34.73 607.52,-24.8"/>
<polygon fill="midnightblue" stroke="midnightblue" points="608.98,-21.6 598.57,-19.65 605.49,-27.67 608.98,-21.6"/>
</g>
<!-- Node8 -->
<g id="node8" class="node">
<title>Node8</title>
<g id="a_node8"><a xlink:title=" ">
<polygon fill="white" stroke="#bfbfbf" points="651,-0.5 651,-19.5 704,-19.5 704,-0.5 651,-0.5"/>
<text text-anchor="middle" x="677.5" y="-7.5" font-family="Helvetica,sans-Serif" font-size="10.00">fbxsdk.h</text>
</a>
</g>
</g>
<!-- Node4&#45;&gt;Node8 -->
<g id="edge7" class="edge">
<title>Node4&#45;&gt;Node8</title>
<path fill="none" stroke="midnightblue" d="M677.5,-56.08C677.5,-49.01 677.5,-38.86 677.5,-29.99"/>
<polygon fill="midnightblue" stroke="midnightblue" points="681,-29.75 677.5,-19.75 674,-29.75 681,-29.75"/>
</g>
<!-- Node9&#45;&gt;Node2 -->
<g id="edge9" class="edge">
<title>Node9&#45;&gt;Node2</title>
<path fill="none" stroke="midnightblue" d="M437.77,-341.07C354.16,-331.04 133.5,-304.56 51.64,-294.74"/>
<polygon fill="midnightblue" stroke="midnightblue" points="51.82,-291.23 41.48,-293.52 50.99,-298.18 51.82,-291.23"/>
</g>
<!-- Node9&#45;&gt;Node4 -->
<g id="edge21" class="edge">
<title>Node9&#45;&gt;Node4</title>
<path fill="none" stroke="midnightblue" d="M442.11,-336.42C401.99,-322.34 333.5,-290.21 333.5,-235 333.5,-235 333.5,-235 333.5,-177 333.5,-116.5 528.96,-84.71 625.21,-72.72"/>
<polygon fill="midnightblue" stroke="midnightblue" points="625.82,-76.17 635.32,-71.49 624.97,-69.22 625.82,-76.17"/>
</g>
<!-- Node10 -->
<g id="node10" class="node">
<title>Node10</title>
<g id="a_node10"><a xlink:href="_diffuse_material_8h.html" target="_top" xlink:title="Defines the DiffuseMaterial class.">
<polygon fill="white" stroke="black" points="628,-280.5 628,-299.5 717,-299.5 717,-280.5 628,-280.5"/>
<text text-anchor="middle" x="672.5" y="-287.5" font-family="Helvetica,sans-Serif" font-size="10.00">DiffuseMaterial.h</text>
</a>
</g>
</g>
<!-- Node9&#45;&gt;Node10 -->
<g id="edge10" class="edge">
<title>Node9&#45;&gt;Node10</title>
<path fill="none" stroke="midnightblue" d="M502.51,-336.44C537.23,-327.16 592.79,-312.31 630.88,-302.13"/>
<polygon fill="midnightblue" stroke="midnightblue" points="631.89,-305.48 640.64,-299.52 630.08,-298.72 631.89,-305.48"/>
</g>
<!-- Node11 -->
<g id="node11" class="node">
<title>Node11</title>
<g id="a_node11"><a xlink:href="_double_unit_vec3_d_8h.html" target="_top" xlink:title="Defines the DoubleUnitVec3D class and the functions around it.">
<polygon fill="white" stroke="black" points="667,-112.5 667,-131.5 768,-131.5 768,-112.5 667,-112.5"/>
<text text-anchor="middle" x="717.5" y="-119.5" font-family="Helvetica,sans-Serif" font-size="10.00">DoubleUnitVec3D.h</text>
</a>
</g>
</g>
<!-- Node9&#45;&gt;Node11 -->
<g id="edge22" class="edge">
<title>Node9&#45;&gt;Node11</title>
<path fill="none" stroke="midnightblue" d="M480.18,-336.3C517.46,-302.8 651.99,-181.88 700.18,-138.57"/>
<polygon fill="midnightblue" stroke="midnightblue" points="702.79,-140.93 707.88,-131.64 698.11,-135.72 702.79,-140.93"/>
</g>
<!-- Node12 -->
<g id="node12" class="node">
<title>Node12</title>
<g id="a_node12"><a xlink:href="_material_8h.html" target="_top" xlink:title="Defines the Material class and the functions around it.">
<polygon fill="white" stroke="black" points="438,-224.5 438,-243.5 497,-243.5 497,-224.5 438,-224.5"/>
<text text-anchor="middle" x="467.5" y="-231.5" font-family="Helvetica,sans-Serif" font-size="10.00">Material.h</text>
</a>
</g>
</g>
<!-- Node9&#45;&gt;Node12 -->
<g id="edge23" class="edge">
<title>Node9&#45;&gt;Node12</title>
<path fill="none" stroke="midnightblue" d="M470.26,-336.37C469.78,-318.62 468.66,-277.67 468.01,-253.6"/>
<polygon fill="midnightblue" stroke="midnightblue" points="471.51,-253.49 467.73,-243.59 464.51,-253.68 471.51,-253.49"/>
</g>
<!-- Node13 -->
<g id="node13" class="node">
<title>Node13</title>
<g id="a_node13"><a xlink:href="_ray_8h.html" target="_top" xlink:title="Defines the Ray class.">
<polygon fill="white" stroke="black" points="530.5,-168.5 530.5,-187.5 572.5,-187.5 572.5,-168.5 530.5,-168.5"/>
<text text-anchor="middle" x="551.5" y="-175.5" font-family="Helvetica,sans-Serif" font-size="10.00">Ray.h</text>
</a>
</g>
</g>
<!-- Node9&#45;&gt;Node13 -->
<g id="edge24" class="edge">
<title>Node9&#45;&gt;Node13</title>
<path fill="none" stroke="midnightblue" d="M474.85,-336.08C487.72,-309.72 525.7,-231.88 542.88,-196.66"/>
<polygon fill="midnightblue" stroke="midnightblue" points="546.08,-198.09 547.32,-187.57 539.79,-195.02 546.08,-198.09"/>
</g>
<!-- Node10&#45;&gt;Node4 -->
<g id="edge12" class="edge">
<title>Node10&#45;&gt;Node4</title>
<path fill="none" stroke="midnightblue" d="M670.02,-280.42C662.94,-254.62 643.99,-175.65 657.5,-112 659.5,-102.59 663.6,-92.76 667.57,-84.7"/>
<polygon fill="midnightblue" stroke="midnightblue" points="670.81,-86.07 672.37,-75.59 664.61,-82.81 670.81,-86.07"/>
</g>
<!-- Node10&#45;&gt;Node6 -->
<g id="edge11" class="edge">
<title>Node10&#45;&gt;Node6</title>
<path fill="none" stroke="midnightblue" d="M717.17,-284.01C809.22,-272.48 1011.5,-240.18 1011.5,-179 1011.5,-179 1011.5,-179 1011.5,-121 1011.5,-88.95 1011.5,-51.64 1011.5,-29.75"/>
<polygon fill="midnightblue" stroke="midnightblue" points="1015,-29.56 1011.5,-19.56 1008,-29.56 1015,-29.56"/>
</g>
<!-- Node10&#45;&gt;Node11 -->
<g id="edge13" class="edge">
<title>Node10&#45;&gt;Node11</title>
<path fill="none" stroke="midnightblue" d="M676.79,-280.22C681.02,-271.28 687.42,-256.94 691.5,-244 702.67,-208.61 710.6,-165.89 714.58,-141.84"/>
<polygon fill="midnightblue" stroke="midnightblue" points="718.09,-142.08 716.21,-131.65 711.18,-140.97 718.09,-142.08"/>
</g>
<!-- Node10&#45;&gt;Node12 -->
<g id="edge15" class="edge">
<title>Node10&#45;&gt;Node12</title>
<path fill="none" stroke="midnightblue" d="M640.02,-280.44C603.95,-270.94 545.73,-255.61 507.04,-245.42"/>
<polygon fill="midnightblue" stroke="midnightblue" points="507.73,-241.98 497.17,-242.82 505.95,-248.75 507.73,-241.98"/>
</g>
<!-- Node10&#45;&gt;Node13 -->
<g id="edge20" class="edge">
<title>Node10&#45;&gt;Node13</title>
<path fill="none" stroke="midnightblue" d="M663.01,-280.37C642.6,-261.81 594.3,-217.91 568.48,-194.44"/>
<polygon fill="midnightblue" stroke="midnightblue" points="570.7,-191.73 560.95,-187.59 566,-196.91 570.7,-191.73"/>
</g>
<!-- Node11&#45;&gt;Node4 -->
<g id="edge14" class="edge">
<title>Node11&#45;&gt;Node4</title>
<path fill="none" stroke="midnightblue" d="M710.89,-112.08C705.24,-104.46 696.96,-93.26 690.05,-83.94"/>
<polygon fill="midnightblue" stroke="midnightblue" points="692.75,-81.7 683.98,-75.75 687.12,-85.87 692.75,-81.7"/>
</g>
<!-- Node12&#45;&gt;Node4 -->
<g id="edge16" class="edge">
<title>Node12&#45;&gt;Node4</title>
<path fill="none" stroke="midnightblue" d="M473.54,-224.42C482.95,-211.41 502.02,-186.26 521.5,-168 561.99,-130.04 618.5,-97.49 651.22,-80.22"/>
<polygon fill="midnightblue" stroke="midnightblue" points="652.92,-83.28 660.18,-75.56 649.69,-77.07 652.92,-83.28"/>
</g>
<!-- Node12&#45;&gt;Node13 -->
<g id="edge17" class="edge">
<title>Node12&#45;&gt;Node13</title>
<path fill="none" stroke="midnightblue" d="M481,-224.32C494.1,-215.9 514.21,-202.97 529.61,-193.07"/>
<polygon fill="midnightblue" stroke="midnightblue" points="531.52,-196.01 538.04,-187.65 527.73,-190.12 531.52,-196.01"/>
</g>
<!-- Node13&#45;&gt;Node4 -->
<g id="edge18" class="edge">
<title>Node13&#45;&gt;Node4</title>
<path fill="none" stroke="midnightblue" d="M561.35,-168.09C575.32,-155.5 601.71,-131.82 624.5,-112 636.03,-101.98 649.11,-90.86 659.4,-82.19"/>
<polygon fill="midnightblue" stroke="midnightblue" points="661.88,-84.67 667.28,-75.56 657.37,-79.32 661.88,-84.67"/>
</g>
<!-- Node13&#45;&gt;Node11 -->
<g id="edge19" class="edge">
<title>Node13&#45;&gt;Node11</title>
<path fill="none" stroke="midnightblue" d="M572.52,-170.16C599.88,-161.26 648.1,-145.57 681.38,-134.75"/>
<polygon fill="midnightblue" stroke="midnightblue" points="682.76,-137.98 691.18,-131.56 680.59,-131.33 682.76,-137.98"/>
</g>
<!-- Node14&#45;&gt;Node2 -->
<g id="edge29" class="edge">
<title>Node14&#45;&gt;Node2</title>
<path fill="none" stroke="midnightblue" d="M404.94,-449.29C401.75,-448.83 398.58,-448.4 395.5,-448 316.64,-437.8 97.25,-466.66 39.5,-412 11.66,-385.65 13.61,-336.42 17.19,-309.59"/>
<polygon fill="midnightblue" stroke="midnightblue" points="20.67,-310.02 18.75,-299.6 13.75,-308.94 20.67,-310.02"/>
</g>
<!-- Node14&#45;&gt;Node4 -->
<g id="edge55" class="edge">
<title>Node14&#45;&gt;Node4</title>
<path fill="none" stroke="midnightblue" d="M500.13,-456.2C621.99,-452.87 935.5,-435.69 935.5,-347 935.5,-347 935.5,-347 935.5,-177 935.5,-88.41 805.18,-70.18 729.78,-67.05"/>
<polygon fill="midnightblue" stroke="midnightblue" points="729.64,-63.54 719.53,-66.7 729.4,-70.54 729.64,-63.54"/>
</g>
<!-- Node14&#45;&gt;Node9 -->
<g id="edge42" class="edge">
<title>Node14&#45;&gt;Node9</title>
<path fill="none" stroke="midnightblue" d="M471.48,-448.4C485.39,-440.95 503.21,-428.74 511.5,-412 520.34,-394.14 504.91,-375 490.52,-362.15"/>
<polygon fill="midnightblue" stroke="midnightblue" points="492.72,-359.42 482.8,-355.7 488.23,-364.8 492.72,-359.42"/>
</g>
<!-- Node14&#45;&gt;Node10 -->
<g id="edge31" class="edge">
<title>Node14&#45;&gt;Node10</title>
<path fill="none" stroke="midnightblue" d="M468.46,-448.38C483.96,-439.78 507.94,-425.9 527.5,-412 576.21,-377.38 629.07,-330.72 655.47,-306.71"/>
<polygon fill="midnightblue" stroke="midnightblue" points="658.05,-309.09 663.07,-299.76 653.33,-303.92 658.05,-309.09"/>
</g>
<!-- Node14&#45;&gt;Node12 -->
<g id="edge30" class="edge">
<title>Node14&#45;&gt;Node12</title>
<path fill="none" stroke="midnightblue" d="M433.2,-448.48C419.07,-441.08 400.94,-428.89 392.5,-412 388.52,-404.05 390.88,-400.74 392.5,-392 402.22,-339.57 410.3,-326.99 435.5,-280 440.82,-270.07 448,-259.78 454.21,-251.55"/>
<polygon fill="midnightblue" stroke="midnightblue" points="457.06,-253.58 460.43,-243.54 451.53,-249.29 457.06,-253.58"/>
</g>
<!-- Node15 -->
<g id="node15" class="node">
<title>Node15</title>
<g id="a_node15"><a xlink:title=" ">
<polygon fill="white" stroke="#bfbfbf" points="164.5,-392.5 164.5,-411.5 210.5,-411.5 210.5,-392.5 164.5,-392.5"/>
<text text-anchor="middle" x="187.5" y="-399.5" font-family="Helvetica,sans-Serif" font-size="10.00">chrono</text>
</a>
</g>
</g>
<!-- Node14&#45;&gt;Node15 -->
<g id="edge26" class="edge">
<title>Node14&#45;&gt;Node15</title>
<path fill="none" stroke="midnightblue" d="M404.95,-449.01C359.81,-441.17 289.88,-428.31 220.32,-412.04"/>
<polygon fill="midnightblue" stroke="midnightblue" points="221.05,-408.61 210.51,-409.72 219.44,-415.43 221.05,-408.61"/>
</g>
<!-- Node16 -->
<g id="node16" class="node">
<title>Node16</title>
<g id="a_node16"><a xlink:title=" ">
<polygon fill="white" stroke="#bfbfbf" points="229,-392.5 229,-411.5 278,-411.5 278,-392.5 229,-392.5"/>
<text text-anchor="middle" x="253.5" y="-399.5" font-family="Helvetica,sans-Serif" font-size="10.00">fstream</text>
</a>
</g>
</g>
<!-- Node14&#45;&gt;Node16 -->
<g id="edge27" class="edge">
<title>Node14&#45;&gt;Node16</title>
<path fill="none" stroke="midnightblue" d="M420.98,-448.47C389.54,-439.96 339.61,-426.43 287.72,-412.33"/>
<polygon fill="midnightblue" stroke="midnightblue" points="288.58,-408.93 278.01,-409.69 286.74,-415.69 288.58,-408.93"/>
</g>
<!-- Node17 -->
<g id="node17" class="node">
<title>Node17</title>
<g id="a_node17"><a xlink:title=" ">
<polygon fill="white" stroke="#bfbfbf" points="296,-392.5 296,-411.5 345,-411.5 345,-392.5 296,-392.5"/>
<text text-anchor="middle" x="320.5" y="-399.5" font-family="Helvetica,sans-Serif" font-size="10.00">random</text>
</a>
</g>
</g>
<!-- Node14&#45;&gt;Node17 -->
<g id="edge28" class="edge">
<title>Node14&#45;&gt;Node17</title>
<path fill="none" stroke="midnightblue" d="M431.58,-448.44C409.76,-439.52 375.35,-425.44 350.61,-415.32"/>
<polygon fill="midnightblue" stroke="midnightblue" points="351.9,-412.06 341.32,-411.52 349.25,-418.54 351.9,-412.06"/>
</g>
<!-- Node18 -->
<g id="node18" class="node">
<title>Node18</title>
<g id="a_node18"><a xlink:href="_specular_material_8h.html" target="_top" xlink:title="Defines the SpecularMaterial class.">
<polygon fill="white" stroke="black" points="48.5,-392.5 48.5,-411.5 146.5,-411.5 146.5,-392.5 48.5,-392.5"/>
<text text-anchor="middle" x="97.5" y="-399.5" font-family="Helvetica,sans-Serif" font-size="10.00">SpecularMaterial.h</text>
</a>
</g>
</g>
<!-- Node14&#45;&gt;Node18 -->
<g id="edge32" class="edge">
<title>Node14&#45;&gt;Node18</title>
<path fill="none" stroke="midnightblue" d="M404.92,-449.46C401.73,-448.96 398.57,-448.47 395.5,-448 292.02,-432.07 263.76,-428.48 156.48,-412.14"/>
<polygon fill="midnightblue" stroke="midnightblue" points="156.96,-408.68 146.55,-410.63 155.9,-415.6 156.96,-408.68"/>
</g>
<!-- Node19 -->
<g id="node19" class="node">
<title>Node19</title>
<g id="a_node19"><a xlink:href="_refractive_material_8h.html" target="_top" xlink:title="Defines the RefractiveMaterial class.">
<polygon fill="white" stroke="black" points="402,-392.5 402,-411.5 503,-411.5 503,-392.5 402,-392.5"/>
<text text-anchor="middle" x="452.5" y="-399.5" font-family="Helvetica,sans-Serif" font-size="10.00">RefractiveMaterial.h</text>
</a>
</g>
</g>
<!-- Node14&#45;&gt;Node19 -->
<g id="edge37" class="edge">
<title>Node14&#45;&gt;Node19</title>
<path fill="none" stroke="midnightblue" d="M452.5,-448.08C452.5,-441.01 452.5,-430.86 452.5,-421.99"/>
<polygon fill="midnightblue" stroke="midnightblue" points="456,-421.75 452.5,-411.75 449,-421.75 456,-421.75"/>
</g>
<!-- Node20 -->
<g id="node20" class="node">
<title>Node20</title>
<g id="a_node20"><a xlink:href="_sphere_8h.html" target="_top" xlink:title="Defines the Sphere class.">
<polygon fill="white" stroke="black" points="755.5,-392.5 755.5,-411.5 811.5,-411.5 811.5,-392.5 755.5,-392.5"/>
<text text-anchor="middle" x="783.5" y="-399.5" font-family="Helvetica,sans-Serif" font-size="10.00">Sphere.h</text>
</a>
</g>
</g>
<!-- Node14&#45;&gt;Node20 -->
<g id="edge43" class="edge">
<title>Node14&#45;&gt;Node20</title>
<path fill="none" stroke="midnightblue" d="M500.28,-449.21C566.45,-438.41 684.68,-419.12 745.33,-409.23"/>
<polygon fill="midnightblue" stroke="midnightblue" points="745.94,-412.67 755.25,-407.61 744.82,-405.76 745.94,-412.67"/>
</g>
<!-- Node21 -->
<g id="node21" class="node">
<title>Node21</title>
<g id="a_node21"><a xlink:href="_triangle_8h.html" target="_top" xlink:title="Defines the Triangle class.">
<polygon fill="white" stroke="black" points="636,-392.5 636,-411.5 695,-411.5 695,-392.5 636,-392.5"/>
<text text-anchor="middle" x="665.5" y="-399.5" font-family="Helvetica,sans-Serif" font-size="10.00">Triangle.h</text>
</a>
</g>
</g>
<!-- Node14&#45;&gt;Node21 -->
<g id="edge50" class="edge">
<title>Node14&#45;&gt;Node21</title>
<path fill="none" stroke="midnightblue" d="M486.25,-448.44C524.21,-438.82 585.78,-423.21 625.96,-413.02"/>
<polygon fill="midnightblue" stroke="midnightblue" points="626.85,-416.41 635.69,-410.56 625.13,-409.62 626.85,-416.41"/>
</g>
<!-- Node18&#45;&gt;Node4 -->
<g id="edge33" class="edge">
<title>Node18&#45;&gt;Node4</title>
<path fill="none" stroke="midnightblue" d="M100.6,-392.29C106.88,-373.86 120.5,-329.44 120.5,-291 120.5,-291 120.5,-291 120.5,-177 120.5,-74.81 485.91,-66 624.79,-66.34"/>
<polygon fill="midnightblue" stroke="midnightblue" points="625.16,-69.84 635.18,-66.38 625.19,-62.84 625.16,-69.84"/>
</g>
<!-- Node18&#45;&gt;Node9 -->
<g id="edge35" class="edge">
<title>Node18&#45;&gt;Node9</title>
<path fill="none" stroke="midnightblue" d="M146.54,-393.35C149.57,-392.89 152.58,-392.44 155.5,-392 252.86,-377.49 367.3,-361.38 427.87,-352.92"/>
<polygon fill="midnightblue" stroke="midnightblue" points="428.41,-356.38 437.83,-351.53 427.44,-349.45 428.41,-356.38"/>
</g>
<!-- Node18&#45;&gt;Node12 -->
<g id="edge34" class="edge">
<title>Node18&#45;&gt;Node12</title>
<path fill="none" stroke="midnightblue" d="M146.69,-393.2C174.42,-386.86 208.42,-375.61 233.5,-356 264.97,-331.39 249.04,-303.29 281.5,-280 304.7,-263.35 380.6,-248.77 427.97,-240.99"/>
<polygon fill="midnightblue" stroke="midnightblue" points="428.59,-244.44 437.9,-239.39 427.47,-237.52 428.59,-244.44"/>
</g>
<!-- Node18&#45;&gt;Node13 -->
<g id="edge36" class="edge">
<title>Node18&#45;&gt;Node13</title>
<path fill="none" stroke="midnightblue" d="M107.11,-392.28C131.29,-370.7 197.22,-314.14 260.5,-280 324.23,-245.62 345.07,-247.67 413.5,-224 450.19,-211.31 492.71,-197.59 520.74,-188.68"/>
<polygon fill="midnightblue" stroke="midnightblue" points="521.9,-191.99 530.38,-185.63 519.79,-185.31 521.9,-191.99"/>
</g>
<!-- Node19&#45;&gt;Node4 -->
<g id="edge38" class="edge">
<title>Node19&#45;&gt;Node4</title>
<path fill="none" stroke="midnightblue" d="M407.75,-392.45C330.78,-376.47 181.5,-339.24 181.5,-291 181.5,-291 181.5,-291 181.5,-177 181.5,-86.92 497.26,-70.56 624.9,-67.62"/>
<polygon fill="midnightblue" stroke="midnightblue" points="625.29,-71.12 635.21,-67.41 625.14,-64.12 625.29,-71.12"/>
</g>
<!-- Node19&#45;&gt;Node9 -->
<g id="edge40" class="edge">
<title>Node19&#45;&gt;Node9</title>
<path fill="none" stroke="midnightblue" d="M455.47,-392.08C457.88,-384.85 461.36,-374.41 464.37,-365.4"/>
<polygon fill="midnightblue" stroke="midnightblue" points="467.74,-366.34 467.58,-355.75 461.1,-364.13 467.74,-366.34"/>
</g>
<!-- Node19&#45;&gt;Node12 -->
<g id="edge39" class="edge">
<title>Node19&#45;&gt;Node12</title>
<path fill="none" stroke="midnightblue" d="M446.13,-392.23C440.24,-383.53 431.89,-369.57 428.5,-356 426.34,-347.38 426.87,-344.74 428.5,-336 434.19,-305.47 448.78,-272.28 458.41,-252.58"/>
<polygon fill="midnightblue" stroke="midnightblue" points="461.56,-254.1 462.92,-243.59 455.31,-250.96 461.56,-254.1"/>
</g>
<!-- Node19&#45;&gt;Node13 -->
<g id="edge41" class="edge">
<title>Node19&#45;&gt;Node13</title>
<path fill="none" stroke="midnightblue" d="M446.13,-392.23C440.24,-383.53 431.89,-369.57 428.5,-356 414.27,-299.08 394.89,-272.08 428.5,-224 449.04,-194.62 490.92,-184.36 520.07,-180.81"/>
<polygon fill="midnightblue" stroke="midnightblue" points="520.58,-184.28 530.18,-179.79 519.87,-177.32 520.58,-184.28"/>
</g>
<!-- Node20&#45;&gt;Node4 -->
<g id="edge45" class="edge">
<title>Node20&#45;&gt;Node4</title>
<path fill="none" stroke="midnightblue" d="M804.14,-392.42C837,-377.23 897.5,-342.29 897.5,-291 897.5,-291 897.5,-291 897.5,-177 897.5,-102.32 794.82,-78.34 729.76,-70.64"/>
<polygon fill="midnightblue" stroke="midnightblue" points="729.98,-67.14 719.66,-69.54 729.22,-74.1 729.98,-67.14"/>
</g>
<!-- Node20&#45;&gt;Node6 -->
<g id="edge44" class="edge">
<title>Node20&#45;&gt;Node6</title>
<path fill="none" stroke="midnightblue" d="M811.97,-401.85C880.59,-402.27 1049.5,-392.95 1049.5,-291 1049.5,-291 1049.5,-291 1049.5,-121 1049.5,-86.81 1032.9,-49.76 1021.64,-28.57"/>
<polygon fill="midnightblue" stroke="midnightblue" points="1024.68,-26.83 1016.78,-19.77 1018.55,-30.22 1024.68,-26.83"/>
</g>
<!-- Node20&#45;&gt;Node9 -->
<g id="edge48" class="edge">
<title>Node20&#45;&gt;Node9</title>
<path fill="none" stroke="midnightblue" d="M755.45,-396.16C700.47,-386.68 578.25,-365.59 513.19,-354.36"/>
<polygon fill="midnightblue" stroke="midnightblue" points="513.7,-350.9 503.25,-352.65 512.51,-357.8 513.7,-350.9"/>
</g>
<!-- Node20&#45;&gt;Node11 -->
<g id="edge46" class="edge">
<title>Node20&#45;&gt;Node11</title>
<path fill="none" stroke="midnightblue" d="M788.78,-392.23C799.23,-374.04 821.5,-330.6 821.5,-291 821.5,-291 821.5,-291 821.5,-233 821.5,-188.22 775.44,-154.32 744.62,-136.66"/>
<polygon fill="midnightblue" stroke="midnightblue" points="746.06,-133.46 735.62,-131.7 742.69,-139.59 746.06,-133.46"/>
</g>
<!-- Node20&#45;&gt;Node12 -->
<g id="edge47" class="edge">
<title>Node20&#45;&gt;Node12</title>
<path fill="none" stroke="midnightblue" d="M766.96,-392.31C715.12,-365.08 555.62,-281.29 493.06,-248.43"/>
<polygon fill="midnightblue" stroke="midnightblue" points="494.36,-245.16 483.88,-243.61 491.11,-251.35 494.36,-245.16"/>
</g>
<!-- Node20&#45;&gt;Node13 -->
<g id="edge49" class="edge">
<title>Node20&#45;&gt;Node13</title>
<path fill="none" stroke="midnightblue" d="M781.29,-392.37C775.43,-371.02 757.75,-314.9 725.5,-280 684.7,-235.85 620.11,-205.41 582.16,-190.2"/>
<polygon fill="midnightblue" stroke="midnightblue" points="583.25,-186.87 572.66,-186.49 580.7,-193.39 583.25,-186.87"/>
</g>
<!-- Node21&#45;&gt;Node4 -->
<g id="edge51" class="edge">
<title>Node21&#45;&gt;Node4</title>
<path fill="none" stroke="midnightblue" d="M692.07,-392.38C745.2,-373.29 859.5,-322.1 859.5,-235 859.5,-235 859.5,-235 859.5,-177 859.5,-115.96 783.58,-87.88 729.81,-75.65"/>
<polygon fill="midnightblue" stroke="midnightblue" points="730.22,-72.16 719.71,-73.48 728.75,-79 730.22,-72.16"/>
</g>
<!-- Node21&#45;&gt;Node9 -->
<g id="edge54" class="edge">
<title>Node21&#45;&gt;Node9</title>
<path fill="none" stroke="midnightblue" d="M635.88,-392.8C602.67,-383.6 548.61,-368.63 511.38,-358.32"/>
<polygon fill="midnightblue" stroke="midnightblue" points="511.93,-354.84 501.36,-355.55 510.07,-361.59 511.93,-354.84"/>
</g>
<!-- Node21&#45;&gt;Node11 -->
<g id="edge52" class="edge">
<title>Node21&#45;&gt;Node11</title>
<path fill="none" stroke="midnightblue" d="M672.93,-392.3C686.56,-375.69 715.13,-337.76 725.5,-300 740.88,-244.01 729.23,-174.37 722.05,-141.64"/>
<polygon fill="midnightblue" stroke="midnightblue" points="725.41,-140.64 719.75,-131.68 718.59,-142.21 725.41,-140.64"/>
</g>
<!-- Node21&#45;&gt;Node12 -->
<g id="edge53" class="edge">
<title>Node21&#45;&gt;Node12</title>
<path fill="none" stroke="midnightblue" d="M647.09,-392.43C615.91,-377.24 551.97,-343.08 509.5,-300 495.69,-285.99 483.93,-266.73 476.4,-252.82"/>
<polygon fill="midnightblue" stroke="midnightblue" points="479.42,-251.04 471.7,-243.79 473.21,-254.27 479.42,-251.04"/>
</g>
</g>
</svg>
