<?xml version="1.0" encoding="UTF-8" standalone="no"?>
<!DOCTYPE svg PUBLIC "-//W3C//DTD SVG 1.1//EN"
 "http://www.w3.org/Graphics/SVG/1.1/DTD/svg11.dtd">
<!-- Generated by graphviz version 2.44.1 (20200629.0800)
 -->
<!-- Title: D:/PathTracer/PathTracer/PerspectiveCamera.h Pages: 1 -->
<svg width="398pt" height="240pt"
 viewBox="0.00 0.00 398.00 240.00" xmlns="http://www.w3.org/2000/svg" xmlns:xlink="http://www.w3.org/1999/xlink">
<g id="graph0" class="graph" transform="scale(1 1) rotate(0) translate(4 236)">
<title>D:/PathTracer/PathTracer/PerspectiveCamera.h</title>
<polygon fill="white" stroke="transparent" points="-4,4 -4,-236 394,-236 394,4 -4,4"/>
<!-- Node1 -->
<g id="node1" class="node">
<title>Node1</title>
<g id="a_node1"><a xlink:title="Defines the PerspectiveCamera class.">
<polygon fill="#bfbfbf" stroke="black" points="118,-201.5 118,-231.5 245,-231.5 245,-201.5 118,-201.5"/>
<text text-anchor="start" x="126" y="-219.5" font-family="Helvetica,sans-Serif" font-size="10.00">D:/PathTracer/PathTracer</text>
<text text-anchor="middle" x="181.5" y="-208.5" font-family="Helvetica,sans-Serif" font-size="10.00">/PerspectiveCamera.h</text>
</a>
</g>
</g>
<!-- Node2 -->
<g id="node2" class="node">
<title>Node2</title>
<g id="a_node2"><a xlink:href="_interface_8h.html" target="_top" xlink:title="Defines some functions for the interface.">
<polygon fill="white" stroke="black" points="72,-67.5 72,-97.5 199,-97.5 199,-67.5 72,-67.5"/>
<text text-anchor="start" x="80" y="-85.5" font-family="Helvetica,sans-Serif" font-size="10.00">D:/PathTracer/PathTracer</text>
<text text-anchor="middle" x="135.5" y="-74.5" font-family="Helvetica,sans-Serif" font-size="10.00">/Interface.h</text>
</a>
</g>
</g>
<!-- Node1&#45;&gt;Node2 -->
<g id="edge1" class="edge">
<title>Node1&#45;&gt;Node2</title>
<path fill="none" stroke="midnightblue" d="M139.24,-196.08C127.09,-188.25 115.29,-177.96 108.5,-165 96.81,-142.69 112.32,-114.32 124.21,-97.61"/>
<polygon fill="midnightblue" stroke="midnightblue" points="137.71,-199.23 148.09,-201.34 141.29,-193.22 137.71,-199.23"/>
</g>
<!-- Node5 -->
<g id="node5" class="node">
<title>Node5</title>
<g id="a_node5"><a xlink:href="_perspective_camera_8cpp.html" target="_top" xlink:title=" ">
<polygon fill="white" stroke="black" points="118,-134.5 118,-164.5 245,-164.5 245,-134.5 118,-134.5"/>
<text text-anchor="start" x="126" y="-152.5" font-family="Helvetica,sans-Serif" font-size="10.00">D:/PathTracer/PathTracer</text>
<text text-anchor="middle" x="181.5" y="-141.5" font-family="Helvetica,sans-Serif" font-size="10.00">/PerspectiveCamera.cpp</text>
</a>
</g>
</g>
<!-- Node1&#45;&gt;Node5 -->
<g id="edge4" class="edge">
<title>Node1&#45;&gt;Node5</title>
<path fill="none" stroke="midnightblue" d="M181.5,-191.11C181.5,-182.15 181.5,-172.32 181.5,-164.58"/>
<polygon fill="midnightblue" stroke="midnightblue" points="178,-191.4 181.5,-201.4 185,-191.4 178,-191.4"/>
</g>
<!-- Node6 -->
<g id="node6" class="node">
<title>Node6</title>
<g id="a_node6"><a xlink:href="_scene_8h.html" target="_top" xlink:title="Defines the Scene class and the functions around it.">
<polygon fill="white" stroke="black" points="263,-134.5 263,-164.5 390,-164.5 390,-134.5 263,-134.5"/>
<text text-anchor="start" x="271" y="-152.5" font-family="Helvetica,sans-Serif" font-size="10.00">D:/PathTracer/PathTracer</text>
<text text-anchor="middle" x="326.5" y="-141.5" font-family="Helvetica,sans-Serif" font-size="10.00">/Scene.h</text>
</a>
</g>
</g>
<!-- Node1&#45;&gt;Node6 -->
<g id="edge5" class="edge">
<title>Node1&#45;&gt;Node6</title>
<path fill="none" stroke="midnightblue" d="M222.17,-197.27C245.26,-186.92 273.74,-174.15 295.1,-164.58"/>
<polygon fill="midnightblue" stroke="midnightblue" points="220.66,-194.11 212.96,-201.4 223.52,-200.5 220.66,-194.11"/>
</g>
<!-- Node3 -->
<g id="node3" class="node">
<title>Node3</title>
<g id="a_node3"><a xlink:href="_interface_8cpp.html" target="_top" xlink:title=" ">
<polygon fill="white" stroke="black" points="0,-0.5 0,-30.5 127,-30.5 127,-0.5 0,-0.5"/>
<text text-anchor="start" x="8" y="-18.5" font-family="Helvetica,sans-Serif" font-size="10.00">D:/PathTracer/PathTracer</text>
<text text-anchor="middle" x="63.5" y="-7.5" font-family="Helvetica,sans-Serif" font-size="10.00">/Interface.cpp</text>
</a>
</g>
</g>
<!-- Node2&#45;&gt;Node3 -->
<g id="edge2" class="edge">
<title>Node2&#45;&gt;Node3</title>
<path fill="none" stroke="midnightblue" d="M112.35,-60.6C101.48,-50.78 88.8,-39.34 79.09,-30.58"/>
<polygon fill="midnightblue" stroke="midnightblue" points="110.11,-63.29 119.88,-67.4 114.8,-58.1 110.11,-63.29"/>
</g>
<!-- Node4 -->
<g id="node4" class="node">
<title>Node4</title>
<g id="a_node4"><a xlink:href="main_8cpp.html" target="_top" xlink:title=" ">
<polygon fill="white" stroke="black" points="145,-0.5 145,-30.5 272,-30.5 272,-0.5 145,-0.5"/>
<text text-anchor="start" x="153" y="-18.5" font-family="Helvetica,sans-Serif" font-size="10.00">D:/PathTracer/PathTracer</text>
<text text-anchor="middle" x="208.5" y="-7.5" font-family="Helvetica,sans-Serif" font-size="10.00">/main.cpp</text>
</a>
</g>
</g>
<!-- Node2&#45;&gt;Node4 -->
<g id="edge3" class="edge">
<title>Node2&#45;&gt;Node4</title>
<path fill="none" stroke="midnightblue" d="M158.97,-60.6C170,-50.78 182.84,-39.34 192.69,-30.58"/>
<polygon fill="midnightblue" stroke="midnightblue" points="156.48,-58.13 151.34,-67.4 161.14,-63.36 156.48,-58.13"/>
</g>
<!-- Node6&#45;&gt;Node2 -->
<g id="edge6" class="edge">
<title>Node6&#45;&gt;Node2</title>
<path fill="none" stroke="midnightblue" d="M275.35,-131.09C244.51,-120.6 205.75,-107.41 176.86,-97.58"/>
<polygon fill="midnightblue" stroke="midnightblue" points="274.46,-134.49 285.06,-134.4 276.72,-127.86 274.46,-134.49"/>
</g>
<!-- Node7 -->
<g id="node7" class="node">
<title>Node7</title>
<g id="a_node7"><a xlink:href="_scene_8cpp.html" target="_top" xlink:title=" ">
<polygon fill="white" stroke="black" points="263,-67.5 263,-97.5 390,-97.5 390,-67.5 263,-67.5"/>
<text text-anchor="start" x="271" y="-85.5" font-family="Helvetica,sans-Serif" font-size="10.00">D:/PathTracer/PathTracer</text>
<text text-anchor="middle" x="326.5" y="-74.5" font-family="Helvetica,sans-Serif" font-size="10.00">/Scene.cpp</text>
</a>
</g>
</g>
<!-- Node6&#45;&gt;Node7 -->
<g id="edge7" class="edge">
<title>Node6&#45;&gt;Node7</title>
<path fill="none" stroke="midnightblue" d="M326.5,-124.11C326.5,-115.15 326.5,-105.32 326.5,-97.58"/>
<polygon fill="midnightblue" stroke="midnightblue" points="323,-124.4 326.5,-134.4 330,-124.4 323,-124.4"/>
</g>
</g>
</svg>
