<?xml version="1.0" encoding="UTF-8" standalone="no"?>
<!DOCTYPE svg PUBLIC "-//W3C//DTD SVG 1.1//EN"
 "http://www.w3.org/Graphics/SVG/1.1/DTD/svg11.dtd">
<!-- Generated by graphviz version 2.44.1 (20200629.0800)
 -->
<!-- Title: D:/PathTracer/PathTracer/Picture.cpp Pages: 1 -->
<svg width="565pt" height="263pt"
 viewBox="0.00 0.00 564.50 263.00" xmlns="http://www.w3.org/2000/svg" xmlns:xlink="http://www.w3.org/1999/xlink">
<g id="graph0" class="graph" transform="scale(1 1) rotate(0) translate(4 259)">
<title>D:/PathTracer/PathTracer/Picture.cpp</title>
<polygon fill="white" stroke="transparent" points="-4,4 -4,-259 560.5,-259 560.5,4 -4,4"/>
<!-- Node1 -->
<g id="node1" class="node">
<title>Node1</title>
<g id="a_node1"><a xlink:title=" ">
<polygon fill="#bfbfbf" stroke="black" points="75.5,-224.5 75.5,-254.5 202.5,-254.5 202.5,-224.5 75.5,-224.5"/>
<text text-anchor="start" x="83.5" y="-242.5" font-family="Helvetica,sans-Serif" font-size="10.00">D:/PathTracer/PathTracer</text>
<text text-anchor="middle" x="139" y="-231.5" font-family="Helvetica,sans-Serif" font-size="10.00">/Picture.cpp</text>
</a>
</g>
</g>
<!-- Node2 -->
<g id="node2" class="node">
<title>Node2</title>
<g id="a_node2"><a xlink:href="_picture_8h.html" target="_top" xlink:title="Defines the Picture class and the functions around it.">
<polygon fill="white" stroke="black" points="111,-168.5 111,-187.5 167,-187.5 167,-168.5 111,-168.5"/>
<text text-anchor="middle" x="139" y="-175.5" font-family="Helvetica,sans-Serif" font-size="10.00">Picture.h</text>
</a>
</g>
</g>
<!-- Node1&#45;&gt;Node2 -->
<g id="edge1" class="edge">
<title>Node1&#45;&gt;Node2</title>
<path fill="none" stroke="midnightblue" d="M139,-224.4C139,-216.47 139,-206.46 139,-197.86"/>
<polygon fill="midnightblue" stroke="midnightblue" points="142.5,-197.66 139,-187.66 135.5,-197.66 142.5,-197.66"/>
</g>
<!-- Node3 -->
<g id="node3" class="node">
<title>Node3</title>
<g id="a_node3"><a xlink:title=" ">
<polygon fill="white" stroke="#bfbfbf" points="0,-112.5 0,-131.5 56,-131.5 56,-112.5 0,-112.5"/>
<text text-anchor="middle" x="28" y="-119.5" font-family="Helvetica,sans-Serif" font-size="10.00">algorithm</text>
</a>
</g>
</g>
<!-- Node2&#45;&gt;Node3 -->
<g id="edge2" class="edge">
<title>Node2&#45;&gt;Node3</title>
<path fill="none" stroke="midnightblue" d="M121.17,-168.32C103.28,-159.62 75.52,-146.12 54.95,-136.11"/>
<polygon fill="midnightblue" stroke="midnightblue" points="56.31,-132.88 45.79,-131.65 53.25,-139.18 56.31,-132.88"/>
</g>
<!-- Node4 -->
<g id="node4" class="node">
<title>Node4</title>
<g id="a_node4"><a xlink:title=" ">
<polygon fill="white" stroke="#bfbfbf" points="74,-112.5 74,-131.5 124,-131.5 124,-112.5 74,-112.5"/>
<text text-anchor="middle" x="99" y="-119.5" font-family="Helvetica,sans-Serif" font-size="10.00">iomanip</text>
</a>
</g>
</g>
<!-- Node2&#45;&gt;Node4 -->
<g id="edge3" class="edge">
<title>Node2&#45;&gt;Node4</title>
<path fill="none" stroke="midnightblue" d="M132.39,-168.08C126.74,-160.46 118.46,-149.26 111.55,-139.94"/>
<polygon fill="midnightblue" stroke="midnightblue" points="114.25,-137.7 105.48,-131.75 108.62,-141.87 114.25,-137.7"/>
</g>
<!-- Node5 -->
<g id="node5" class="node">
<title>Node5</title>
<g id="a_node5"><a xlink:title=" ">
<polygon fill="white" stroke="#bfbfbf" points="142.5,-112.5 142.5,-131.5 215.5,-131.5 215.5,-112.5 142.5,-112.5"/>
<text text-anchor="middle" x="179" y="-119.5" font-family="Helvetica,sans-Serif" font-size="10.00">CImg/CImg.h</text>
</a>
</g>
</g>
<!-- Node2&#45;&gt;Node5 -->
<g id="edge4" class="edge">
<title>Node2&#45;&gt;Node5</title>
<path fill="none" stroke="midnightblue" d="M145.61,-168.08C151.26,-160.46 159.54,-149.26 166.45,-139.94"/>
<polygon fill="midnightblue" stroke="midnightblue" points="169.38,-141.87 172.52,-131.75 163.75,-137.7 169.38,-141.87"/>
</g>
<!-- Node6 -->
<g id="node6" class="node">
<title>Node6</title>
<g id="a_node6"><a xlink:href="_double_vec3_d_8h.html" target="_top" xlink:title="Defines the DoubleVec3D class and the functions around it.">
<polygon fill="white" stroke="black" points="234,-112.5 234,-131.5 318,-131.5 318,-112.5 234,-112.5"/>
<text text-anchor="middle" x="276" y="-119.5" font-family="Helvetica,sans-Serif" font-size="10.00">DoubleVec3D.h</text>
</a>
</g>
</g>
<!-- Node2&#45;&gt;Node6 -->
<g id="edge5" class="edge">
<title>Node2&#45;&gt;Node6</title>
<path fill="none" stroke="midnightblue" d="M160.71,-168.44C183.35,-159.52 219.07,-145.44 244.75,-135.32"/>
<polygon fill="midnightblue" stroke="midnightblue" points="246.37,-138.44 254.39,-131.52 243.81,-131.93 246.37,-138.44"/>
</g>
<!-- Node7 -->
<g id="node7" class="node">
<title>Node7</title>
<g id="a_node7"><a xlink:href="_interface_gestion_8h.html" target="_top" xlink:title="Defines functions that are used when drawing the interface.">
<polygon fill="white" stroke="black" points="228.5,-56.5 228.5,-75.5 323.5,-75.5 323.5,-56.5 228.5,-56.5"/>
<text text-anchor="middle" x="276" y="-63.5" font-family="Helvetica,sans-Serif" font-size="10.00">InterfaceGestion.h</text>
</a>
</g>
</g>
<!-- Node6&#45;&gt;Node7 -->
<g id="edge6" class="edge">
<title>Node6&#45;&gt;Node7</title>
<path fill="none" stroke="midnightblue" d="M276,-112.08C276,-105.01 276,-94.86 276,-85.99"/>
<polygon fill="midnightblue" stroke="midnightblue" points="279.5,-85.75 276,-75.75 272.5,-85.75 279.5,-85.75"/>
</g>
<!-- Node8 -->
<g id="node8" class="node">
<title>Node8</title>
<g id="a_node8"><a xlink:title=" ">
<polygon fill="white" stroke="#bfbfbf" points="50,-0.5 50,-19.5 96,-19.5 96,-0.5 50,-0.5"/>
<text text-anchor="middle" x="73" y="-7.5" font-family="Helvetica,sans-Serif" font-size="10.00">chrono</text>
</a>
</g>
</g>
<!-- Node7&#45;&gt;Node8 -->
<g id="edge7" class="edge">
<title>Node7&#45;&gt;Node8</title>
<path fill="none" stroke="midnightblue" d="M243.39,-56.45C209.15,-47.45 153.76,-32.84 106,-20 105.9,-19.97 105.8,-19.95 105.7,-19.92"/>
<polygon fill="midnightblue" stroke="midnightblue" points="106.64,-16.55 96.07,-17.32 104.81,-23.31 106.64,-16.55"/>
</g>
<!-- Node9 -->
<g id="node9" class="node">
<title>Node9</title>
<g id="a_node9"><a xlink:title=" ">
<polygon fill="white" stroke="#bfbfbf" points="114.5,-0.5 114.5,-19.5 163.5,-19.5 163.5,-0.5 114.5,-0.5"/>
<text text-anchor="middle" x="139" y="-7.5" font-family="Helvetica,sans-Serif" font-size="10.00">fstream</text>
</a>
</g>
</g>
<!-- Node7&#45;&gt;Node9 -->
<g id="edge8" class="edge">
<title>Node7&#45;&gt;Node9</title>
<path fill="none" stroke="midnightblue" d="M254.29,-56.44C231.65,-47.52 195.93,-33.44 170.25,-23.32"/>
<polygon fill="midnightblue" stroke="midnightblue" points="171.19,-19.93 160.61,-19.52 168.63,-26.44 171.19,-19.93"/>
</g>
<!-- Node10 -->
<g id="node10" class="node">
<title>Node10</title>
<g id="a_node10"><a xlink:title=" ">
<polygon fill="white" stroke="#bfbfbf" points="181.5,-0.5 181.5,-19.5 230.5,-19.5 230.5,-0.5 181.5,-0.5"/>
<text text-anchor="middle" x="206" y="-7.5" font-family="Helvetica,sans-Serif" font-size="10.00">random</text>
</a>
</g>
</g>
<!-- Node7&#45;&gt;Node10 -->
<g id="edge9" class="edge">
<title>Node7&#45;&gt;Node10</title>
<path fill="none" stroke="midnightblue" d="M264.75,-56.32C254.2,-48.18 238.2,-35.84 225.56,-26.09"/>
<polygon fill="midnightblue" stroke="midnightblue" points="227.51,-23.17 217.45,-19.83 223.23,-28.71 227.51,-23.17"/>
</g>
<!-- Node11 -->
<g id="node11" class="node">
<title>Node11</title>
<g id="a_node11"><a xlink:title=" ">
<polygon fill="white" stroke="#bfbfbf" points="249,-0.5 249,-19.5 303,-19.5 303,-0.5 249,-0.5"/>
<text text-anchor="middle" x="276" y="-7.5" font-family="Helvetica,sans-Serif" font-size="10.00">iostream</text>
</a>
</g>
</g>
<!-- Node7&#45;&gt;Node11 -->
<g id="edge10" class="edge">
<title>Node7&#45;&gt;Node11</title>
<path fill="none" stroke="midnightblue" d="M276,-56.08C276,-49.01 276,-38.86 276,-29.99"/>
<polygon fill="midnightblue" stroke="midnightblue" points="279.5,-29.75 276,-19.75 272.5,-29.75 279.5,-29.75"/>
</g>
<!-- Node12 -->
<g id="node12" class="node">
<title>Node12</title>
<g id="a_node12"><a xlink:title=" ">
<polygon fill="white" stroke="#bfbfbf" points="321.5,-0.5 321.5,-19.5 368.5,-19.5 368.5,-0.5 321.5,-0.5"/>
<text text-anchor="middle" x="345" y="-7.5" font-family="Helvetica,sans-Serif" font-size="10.00">math.h</text>
</a>
</g>
</g>
<!-- Node7&#45;&gt;Node12 -->
<g id="edge11" class="edge">
<title>Node7&#45;&gt;Node12</title>
<path fill="none" stroke="midnightblue" d="M287.09,-56.32C297.49,-48.18 313.26,-35.84 325.72,-26.09"/>
<polygon fill="midnightblue" stroke="midnightblue" points="327.99,-28.75 333.71,-19.83 323.68,-23.24 327.99,-28.75"/>
</g>
<!-- Node13 -->
<g id="node13" class="node">
<title>Node13</title>
<g id="a_node13"><a xlink:title=" ">
<polygon fill="white" stroke="#bfbfbf" points="387,-0.5 387,-19.5 485,-19.5 485,-0.5 387,-0.5"/>
<text text-anchor="middle" x="436" y="-7.5" font-family="Helvetica,sans-Serif" font-size="10.00">nlohmann/json.hpp</text>
</a>
</g>
</g>
<!-- Node7&#45;&gt;Node13 -->
<g id="edge12" class="edge">
<title>Node7&#45;&gt;Node13</title>
<path fill="none" stroke="midnightblue" d="M301.35,-56.44C328.27,-47.36 371,-32.94 401.09,-22.78"/>
<polygon fill="midnightblue" stroke="midnightblue" points="402.41,-26.03 410.77,-19.52 400.17,-19.4 402.41,-26.03"/>
</g>
<!-- Node14 -->
<g id="node14" class="node">
<title>Node14</title>
<g id="a_node14"><a xlink:title=" ">
<polygon fill="white" stroke="#bfbfbf" points="503.5,-0.5 503.5,-19.5 556.5,-19.5 556.5,-0.5 503.5,-0.5"/>
<text text-anchor="middle" x="530" y="-7.5" font-family="Helvetica,sans-Serif" font-size="10.00">fbxsdk.h</text>
</a>
</g>
</g>
<!-- Node7&#45;&gt;Node14 -->
<g id="edge13" class="edge">
<title>Node7&#45;&gt;Node14</title>
<path fill="none" stroke="midnightblue" d="M319.96,-56.48C362,-48.21 427.41,-35.02 493.54,-20.03"/>
<polygon fill="midnightblue" stroke="midnightblue" points="494.32,-23.44 503.29,-17.81 492.77,-16.62 494.32,-23.44"/>
</g>
</g>
</svg>
