<?xml version="1.0" encoding="UTF-8" standalone="no"?>
<!DOCTYPE svg PUBLIC "-//W3C//DTD SVG 1.1//EN"
 "http://www.w3.org/Graphics/SVG/1.1/DTD/svg11.dtd">
<!-- Generated by graphviz version 2.44.1 (20200629.0800)
 -->
<!-- Title: D:/PathTracer/PathTracer/Ray.h Pages: 1 -->
<!--zoomable 642 -->
<svg id="main" version="1.1" xmlns="http://www.w3.org/2000/svg" xmlns:xlink="http://www.w3.org/1999/xlink" xml:space="preserve" onload="init(evt)">
<style type="text/css"><![CDATA[
.edge:hover path { stroke: red; }
.edge:hover polygon { stroke: red; fill: red; }
]]></style>
<script type="text/javascript"><![CDATA[
var edges = document.getElementsByTagName('g');
if (edges && edges.length) {
  for (var i=0;i<edges.length;i++) {
    if (edges[i].id.substr(0,4)=='edge') {
      edges[i].setAttribute('class','edge');
    }
  }
}
]]></script>
        <defs>
                <circle id="rim" cx="0" cy="0" r="7"/>
                <circle id="rim2" cx="0" cy="0" r="3.5"/>
                <g id="zoomPlus">
                        <use xlink:href="#rim" fill="#404040">
                                <set attributeName="fill" to="#808080" begin="zoomplus.mouseover" end="zoomplus.mouseout"/>
                        </use>
                        <path d="M-4,0h8M0,-4v8" fill="none" stroke="white" stroke-width="1.5" pointer-events="none"/>
                </g>
                <g id="zoomMin">
                        <use xlink:href="#rim" fill="#404040">
                                <set attributeName="fill" to="#808080" begin="zoomminus.mouseover" end="zoomminus.mouseout"/>
                        </use>
                        <path d="M-4,0h8" fill="none" stroke="white" stroke-width="1.5" pointer-events="none"/>
                </g>
                <g id="dirArrow">
                        <path fill="none" stroke="white" stroke-width="1.5" d="M0,-3.0v7 M-2.5,-0.5L0,-3.0L2.5,-0.5"/>
                </g>
               <g id="resetDef">
                       <use xlink:href="#rim2" fill="#404040">
                               <set attributeName="fill" to="#808080" begin="reset.mouseover" end="reset.mouseout"/>
                       </use>
               </g>
        </defs>

<script type="text/javascript">
var viewWidth = 992;
var viewHeight = 642;
var sectionId = 'dynsection-1';
</script>
<script xlink:href="svgpan.js"/>
<svg id="graph" class="graph">
<g id="viewport">
<title>D:/PathTracer/PathTracer/Ray.h</title>
<polygon fill="white" stroke="transparent" points="-4,4 -4,-638 988,-638 988,4 -4,4"/>
<!-- Node1 -->
<g id="node1" class="node">
<title>Node1</title>
<g id="a_node1"><a xlink:title="Defines the Ray class.">
<polygon fill="#bfbfbf" stroke="black" points="652,-603.5 652,-633.5 779,-633.5 779,-603.5 652,-603.5"/>
<text text-anchor="start" x="660" y="-621.5" font-family="Helvetica,sans-Serif" font-size="10.00">D:/PathTracer/PathTracer</text>
<text text-anchor="middle" x="715.5" y="-610.5" font-family="Helvetica,sans-Serif" font-size="10.00">/Ray.h</text>
</a>
</g>
</g>
<!-- Node2 -->
<g id="node2" class="node">
<title>Node2</title>
<g id="a_node2"><a xlink:href="_material_8h.html" target="_top" xlink:title="Defines the Material class and the functions around it.">
<polygon fill="white" stroke="black" points="290,-536.5 290,-566.5 417,-566.5 417,-536.5 290,-536.5"/>
<text text-anchor="start" x="298" y="-554.5" font-family="Helvetica,sans-Serif" font-size="10.00">D:/PathTracer/PathTracer</text>
<text text-anchor="middle" x="353.5" y="-543.5" font-family="Helvetica,sans-Serif" font-size="10.00">/Material.h</text>
</a>
</g>
</g>
<!-- Node1&#45;&gt;Node2 -->
<g id="edge1" class="edge">
<title>Node1&#45;&gt;Node2</title>
<path fill="none" stroke="midnightblue" d="M641.68,-604.25C575.62,-592.38 479.77,-575.17 417.05,-563.91"/>
<polygon fill="midnightblue" stroke="midnightblue" points="641.15,-607.71 651.61,-606.03 642.39,-600.82 641.15,-607.71"/>
</g>
<!-- Node27 -->
<g id="node27" class="node">
<title>Node27</title>
<g id="a_node27"><a xlink:href="_perspective_camera_8h.html" target="_top" xlink:title="Defines the PerspectiveCamera class.">
<polygon fill="white" stroke="black" points="652,-536.5 652,-566.5 779,-566.5 779,-536.5 652,-536.5"/>
<text text-anchor="start" x="660" y="-554.5" font-family="Helvetica,sans-Serif" font-size="10.00">D:/PathTracer/PathTracer</text>
<text text-anchor="middle" x="715.5" y="-543.5" font-family="Helvetica,sans-Serif" font-size="10.00">/PerspectiveCamera.h</text>
</a>
</g>
</g>
<!-- Node1&#45;&gt;Node27 -->
<g id="edge31" class="edge">
<title>Node1&#45;&gt;Node27</title>
<path fill="none" stroke="midnightblue" d="M715.5,-593.11C715.5,-584.15 715.5,-574.32 715.5,-566.58"/>
<polygon fill="midnightblue" stroke="midnightblue" points="712,-593.4 715.5,-603.4 719,-593.4 712,-593.4"/>
</g>
<!-- Node29 -->
<g id="node29" class="node">
<title>Node29</title>
<g id="a_node29"><a xlink:href="_ray_8cpp.html" target="_top" xlink:title=" ">
<polygon fill="white" stroke="black" points="797,-536.5 797,-566.5 924,-566.5 924,-536.5 797,-536.5"/>
<text text-anchor="start" x="805" y="-554.5" font-family="Helvetica,sans-Serif" font-size="10.00">D:/PathTracer/PathTracer</text>
<text text-anchor="middle" x="860.5" y="-543.5" font-family="Helvetica,sans-Serif" font-size="10.00">/Ray.cpp</text>
</a>
</g>
</g>
<!-- Node1&#45;&gt;Node29 -->
<g id="edge34" class="edge">
<title>Node1&#45;&gt;Node29</title>
<path fill="none" stroke="midnightblue" d="M756.17,-599.27C779.26,-588.92 807.74,-576.15 829.1,-566.58"/>
<polygon fill="midnightblue" stroke="midnightblue" points="754.66,-596.11 746.96,-603.4 757.52,-602.5 754.66,-596.11"/>
</g>
<!-- Node3 -->
<g id="node3" class="node">
<title>Node3</title>
<g id="a_node3"><a xlink:href="_diffuse_material_8h.html" target="_top" xlink:title="Defines the DiffuseMaterial class.">
<polygon fill="white" stroke="black" points="435,-469.5 435,-499.5 562,-499.5 562,-469.5 435,-469.5"/>
<text text-anchor="start" x="443" y="-487.5" font-family="Helvetica,sans-Serif" font-size="10.00">D:/PathTracer/PathTracer</text>
<text text-anchor="middle" x="498.5" y="-476.5" font-family="Helvetica,sans-Serif" font-size="10.00">/DiffuseMaterial.h</text>
</a>
</g>
</g>
<!-- Node2&#45;&gt;Node3 -->
<g id="edge2" class="edge">
<title>Node2&#45;&gt;Node3</title>
<path fill="none" stroke="midnightblue" d="M394.17,-532.27C417.26,-521.92 445.74,-509.15 467.1,-499.58"/>
<polygon fill="midnightblue" stroke="midnightblue" points="392.66,-529.11 384.96,-536.4 395.52,-535.5 392.66,-529.11"/>
</g>
<!-- Node22 -->
<g id="node22" class="node">
<title>Node22</title>
<g id="a_node22"><a xlink:href="_material_8cpp.html" target="_top" xlink:title=" ">
<polygon fill="white" stroke="black" points="145,-469.5 145,-499.5 272,-499.5 272,-469.5 145,-469.5"/>
<text text-anchor="start" x="153" y="-487.5" font-family="Helvetica,sans-Serif" font-size="10.00">D:/PathTracer/PathTracer</text>
<text text-anchor="middle" x="208.5" y="-476.5" font-family="Helvetica,sans-Serif" font-size="10.00">/Material.cpp</text>
</a>
</g>
</g>
<!-- Node2&#45;&gt;Node22 -->
<g id="edge24" class="edge">
<title>Node2&#45;&gt;Node22</title>
<path fill="none" stroke="midnightblue" d="M312.83,-532.27C289.74,-521.92 261.26,-509.15 239.9,-499.58"/>
<polygon fill="midnightblue" stroke="midnightblue" points="311.48,-535.5 322.04,-536.4 314.34,-529.11 311.48,-535.5"/>
</g>
<!-- Node23 -->
<g id="node23" class="node">
<title>Node23</title>
<g id="a_node23"><a xlink:href="_refractive_material_8h.html" target="_top" xlink:title="Defines the RefractiveMaterial class.">
<polygon fill="white" stroke="black" points="290,-469.5 290,-499.5 417,-499.5 417,-469.5 290,-469.5"/>
<text text-anchor="start" x="298" y="-487.5" font-family="Helvetica,sans-Serif" font-size="10.00">D:/PathTracer/PathTracer</text>
<text text-anchor="middle" x="353.5" y="-476.5" font-family="Helvetica,sans-Serif" font-size="10.00">/RefractiveMaterial.h</text>
</a>
</g>
</g>
<!-- Node2&#45;&gt;Node23 -->
<g id="edge25" class="edge">
<title>Node2&#45;&gt;Node23</title>
<path fill="none" stroke="midnightblue" d="M353.5,-526.11C353.5,-517.15 353.5,-507.32 353.5,-499.58"/>
<polygon fill="midnightblue" stroke="midnightblue" points="350,-526.4 353.5,-536.4 357,-526.4 350,-526.4"/>
</g>
<!-- Node25 -->
<g id="node25" class="node">
<title>Node25</title>
<g id="a_node25"><a xlink:href="_specular_material_8h.html" target="_top" xlink:title="Defines the SpecularMaterial class.">
<polygon fill="white" stroke="black" points="0,-469.5 0,-499.5 127,-499.5 127,-469.5 0,-469.5"/>
<text text-anchor="start" x="8" y="-487.5" font-family="Helvetica,sans-Serif" font-size="10.00">D:/PathTracer/PathTracer</text>
<text text-anchor="middle" x="63.5" y="-476.5" font-family="Helvetica,sans-Serif" font-size="10.00">/SpecularMaterial.h</text>
</a>
</g>
</g>
<!-- Node2&#45;&gt;Node25 -->
<g id="edge28" class="edge">
<title>Node2&#45;&gt;Node25</title>
<path fill="none" stroke="midnightblue" d="M281.01,-534.25C233.48,-523.6 171.94,-509.81 126.46,-499.61"/>
<polygon fill="midnightblue" stroke="midnightblue" points="280.41,-537.7 290.93,-536.48 281.94,-530.87 280.41,-537.7"/>
</g>
<!-- Node4 -->
<g id="node4" class="node">
<title>Node4</title>
<g id="a_node4"><a xlink:href="_diffuse_material_8cpp.html" target="_top" xlink:title=" ">
<polygon fill="white" stroke="black" points="435,-402.5 435,-432.5 562,-432.5 562,-402.5 435,-402.5"/>
<text text-anchor="start" x="443" y="-420.5" font-family="Helvetica,sans-Serif" font-size="10.00">D:/PathTracer/PathTracer</text>
<text text-anchor="middle" x="498.5" y="-409.5" font-family="Helvetica,sans-Serif" font-size="10.00">/DiffuseMaterial.cpp</text>
</a>
</g>
</g>
<!-- Node3&#45;&gt;Node4 -->
<g id="edge3" class="edge">
<title>Node3&#45;&gt;Node4</title>
<path fill="none" stroke="midnightblue" d="M498.5,-459.11C498.5,-450.15 498.5,-440.32 498.5,-432.58"/>
<polygon fill="midnightblue" stroke="midnightblue" points="495,-459.4 498.5,-469.4 502,-459.4 495,-459.4"/>
</g>
<!-- Node5 -->
<g id="node5" class="node">
<title>Node5</title>
<g id="a_node5"><a xlink:href="_interface_creation_8h.html" target="_top" xlink:title="Defines functions that are used to interactively create 3D objects and materials.">
<polygon fill="white" stroke="black" points="376,-268.5 376,-298.5 503,-298.5 503,-268.5 376,-268.5"/>
<text text-anchor="start" x="384" y="-286.5" font-family="Helvetica,sans-Serif" font-size="10.00">D:/PathTracer/PathTracer</text>
<text text-anchor="middle" x="439.5" y="-275.5" font-family="Helvetica,sans-Serif" font-size="10.00">/InterfaceCreation.h</text>
</a>
</g>
</g>
<!-- Node3&#45;&gt;Node5 -->
<g id="edge4" class="edge">
<title>Node3&#45;&gt;Node5</title>
<path fill="none" stroke="midnightblue" d="M457.11,-464.16C445.02,-456.3 433.25,-445.97 426.5,-433 403.33,-388.46 422.74,-326.14 433.51,-298.57"/>
<polygon fill="midnightblue" stroke="midnightblue" points="455.54,-467.29 465.91,-469.44 459.14,-461.29 455.54,-467.29"/>
</g>
<!-- Node16 -->
<g id="node16" class="node">
<title>Node16</title>
<g id="a_node16"><a xlink:href="_object3_d_8h.html" target="_top" xlink:title="Defines the Object3D class and the functions around it.">
<polygon fill="white" stroke="black" points="580,-402.5 580,-432.5 707,-432.5 707,-402.5 580,-402.5"/>
<text text-anchor="start" x="588" y="-420.5" font-family="Helvetica,sans-Serif" font-size="10.00">D:/PathTracer/PathTracer</text>
<text text-anchor="middle" x="643.5" y="-409.5" font-family="Helvetica,sans-Serif" font-size="10.00">/Object3D.h</text>
</a>
</g>
</g>
<!-- Node3&#45;&gt;Node16 -->
<g id="edge16" class="edge">
<title>Node3&#45;&gt;Node16</title>
<path fill="none" stroke="midnightblue" d="M539.17,-465.27C562.26,-454.92 590.74,-442.15 612.1,-432.58"/>
<polygon fill="midnightblue" stroke="midnightblue" points="537.66,-462.11 529.96,-469.4 540.52,-468.5 537.66,-462.11"/>
</g>
<!-- Node6 -->
<g id="node6" class="node">
<title>Node6</title>
<g id="a_node6"><a xlink:href="_interface_creation_8cpp.html" target="_top" xlink:title=" ">
<polygon fill="white" stroke="black" points="350,-201.5 350,-231.5 477,-231.5 477,-201.5 350,-201.5"/>
<text text-anchor="start" x="358" y="-219.5" font-family="Helvetica,sans-Serif" font-size="10.00">D:/PathTracer/PathTracer</text>
<text text-anchor="middle" x="413.5" y="-208.5" font-family="Helvetica,sans-Serif" font-size="10.00">/InterfaceCreation.cpp</text>
</a>
</g>
</g>
<!-- Node5&#45;&gt;Node6 -->
<g id="edge5" class="edge">
<title>Node5&#45;&gt;Node6</title>
<path fill="none" stroke="midnightblue" d="M430.1,-258.99C426.42,-249.8 422.33,-239.58 419.13,-231.58"/>
<polygon fill="midnightblue" stroke="midnightblue" points="426.89,-260.41 433.86,-268.4 433.39,-257.81 426.89,-260.41"/>
</g>
<!-- Node7 -->
<g id="node7" class="node">
<title>Node7</title>
<g id="a_node7"><a xlink:href="_k_d_tree_node_8h.html" target="_top" xlink:title="Defines the KDTreeNode class and the functions around it.">
<polygon fill="white" stroke="black" points="495,-201.5 495,-231.5 622,-231.5 622,-201.5 495,-201.5"/>
<text text-anchor="start" x="503" y="-219.5" font-family="Helvetica,sans-Serif" font-size="10.00">D:/PathTracer/PathTracer</text>
<text text-anchor="middle" x="558.5" y="-208.5" font-family="Helvetica,sans-Serif" font-size="10.00">/KDTreeNode.h</text>
</a>
</g>
</g>
<!-- Node5&#45;&gt;Node7 -->
<g id="edge6" class="edge">
<title>Node5&#45;&gt;Node7</title>
<path fill="none" stroke="midnightblue" d="M474.15,-263.57C492.87,-253.35 515.59,-240.94 532.73,-231.58"/>
<polygon fill="midnightblue" stroke="midnightblue" points="472.42,-260.53 465.32,-268.4 475.78,-266.67 472.42,-260.53"/>
</g>
<!-- Node14 -->
<g id="node14" class="node">
<title>Node14</title>
<g id="a_node14"><a xlink:href="_object3_d_group_8h.html" target="_top" xlink:title="Defines the Object3DGroup class and the functions around it.">
<polygon fill="white" stroke="black" points="640,-201.5 640,-231.5 767,-231.5 767,-201.5 640,-201.5"/>
<text text-anchor="start" x="648" y="-219.5" font-family="Helvetica,sans-Serif" font-size="10.00">D:/PathTracer/PathTracer</text>
<text text-anchor="middle" x="703.5" y="-208.5" font-family="Helvetica,sans-Serif" font-size="10.00">/Object3DGroup.h</text>
</a>
</g>
</g>
<!-- Node5&#45;&gt;Node14 -->
<g id="edge13" class="edge">
<title>Node5&#45;&gt;Node14</title>
<path fill="none" stroke="midnightblue" d="M506.31,-266.05C549.47,-255.43 605.04,-241.74 646.19,-231.61"/>
<polygon fill="midnightblue" stroke="midnightblue" points="505.33,-262.69 496.46,-268.48 507.01,-269.48 505.33,-262.69"/>
</g>
<!-- Node8 -->
<g id="node8" class="node">
<title>Node8</title>
<g id="a_node8"><a xlink:href="_k_d_tree_node_8cpp.html" target="_top" xlink:title=" ">
<polygon fill="white" stroke="black" points="495,-134.5 495,-164.5 622,-164.5 622,-134.5 495,-134.5"/>
<text text-anchor="start" x="503" y="-152.5" font-family="Helvetica,sans-Serif" font-size="10.00">D:/PathTracer/PathTracer</text>
<text text-anchor="middle" x="558.5" y="-141.5" font-family="Helvetica,sans-Serif" font-size="10.00">/KDTreeNode.cpp</text>
</a>
</g>
</g>
<!-- Node7&#45;&gt;Node8 -->
<g id="edge7" class="edge">
<title>Node7&#45;&gt;Node8</title>
<path fill="none" stroke="midnightblue" d="M558.5,-191.11C558.5,-182.15 558.5,-172.32 558.5,-164.58"/>
<polygon fill="midnightblue" stroke="midnightblue" points="555,-191.4 558.5,-201.4 562,-191.4 555,-191.4"/>
</g>
<!-- Node9 -->
<g id="node9" class="node">
<title>Node9</title>
<g id="a_node9"><a xlink:href="_scene_8h.html" target="_top" xlink:title="Defines the Scene class and the functions around it.">
<polygon fill="white" stroke="black" points="785,-134.5 785,-164.5 912,-164.5 912,-134.5 785,-134.5"/>
<text text-anchor="start" x="793" y="-152.5" font-family="Helvetica,sans-Serif" font-size="10.00">D:/PathTracer/PathTracer</text>
<text text-anchor="middle" x="848.5" y="-141.5" font-family="Helvetica,sans-Serif" font-size="10.00">/Scene.h</text>
</a>
</g>
</g>
<!-- Node7&#45;&gt;Node9 -->
<g id="edge8" class="edge">
<title>Node7&#45;&gt;Node9</title>
<path fill="none" stroke="midnightblue" d="M630.99,-199.25C678.52,-188.6 740.06,-174.81 785.54,-164.61"/>
<polygon fill="midnightblue" stroke="midnightblue" points="630.06,-195.87 621.07,-201.48 631.59,-202.7 630.06,-195.87"/>
</g>
<!-- Node10 -->
<g id="node10" class="node">
<title>Node10</title>
<g id="a_node10"><a xlink:href="_interface_8h.html" target="_top" xlink:title="Defines some functions for the interface.">
<polygon fill="white" stroke="black" points="712,-67.5 712,-97.5 839,-97.5 839,-67.5 712,-67.5"/>
<text text-anchor="start" x="720" y="-85.5" font-family="Helvetica,sans-Serif" font-size="10.00">D:/PathTracer/PathTracer</text>
<text text-anchor="middle" x="775.5" y="-74.5" font-family="Helvetica,sans-Serif" font-size="10.00">/Interface.h</text>
</a>
</g>
</g>
<!-- Node9&#45;&gt;Node10 -->
<g id="edge9" class="edge">
<title>Node9&#45;&gt;Node10</title>
<path fill="none" stroke="midnightblue" d="M825.03,-127.6C814,-117.78 801.16,-106.34 791.31,-97.58"/>
<polygon fill="midnightblue" stroke="midnightblue" points="822.86,-130.36 832.66,-134.4 827.52,-125.13 822.86,-130.36"/>
</g>
<!-- Node13 -->
<g id="node13" class="node">
<title>Node13</title>
<g id="a_node13"><a xlink:href="_scene_8cpp.html" target="_top" xlink:title=" ">
<polygon fill="white" stroke="black" points="857,-67.5 857,-97.5 984,-97.5 984,-67.5 857,-67.5"/>
<text text-anchor="start" x="865" y="-85.5" font-family="Helvetica,sans-Serif" font-size="10.00">D:/PathTracer/PathTracer</text>
<text text-anchor="middle" x="920.5" y="-74.5" font-family="Helvetica,sans-Serif" font-size="10.00">/Scene.cpp</text>
</a>
</g>
</g>
<!-- Node9&#45;&gt;Node13 -->
<g id="edge12" class="edge">
<title>Node9&#45;&gt;Node13</title>
<path fill="none" stroke="midnightblue" d="M871.65,-127.6C882.52,-117.78 895.2,-106.34 904.91,-97.58"/>
<polygon fill="midnightblue" stroke="midnightblue" points="869.2,-125.1 864.12,-134.4 873.89,-130.29 869.2,-125.1"/>
</g>
<!-- Node11 -->
<g id="node11" class="node">
<title>Node11</title>
<g id="a_node11"><a xlink:href="_interface_8cpp.html" target="_top" xlink:title=" ">
<polygon fill="white" stroke="black" points="640,-0.5 640,-30.5 767,-30.5 767,-0.5 640,-0.5"/>
<text text-anchor="start" x="648" y="-18.5" font-family="Helvetica,sans-Serif" font-size="10.00">D:/PathTracer/PathTracer</text>
<text text-anchor="middle" x="703.5" y="-7.5" font-family="Helvetica,sans-Serif" font-size="10.00">/Interface.cpp</text>
</a>
</g>
</g>
<!-- Node10&#45;&gt;Node11 -->
<g id="edge10" class="edge">
<title>Node10&#45;&gt;Node11</title>
<path fill="none" stroke="midnightblue" d="M752.35,-60.6C741.48,-50.78 728.8,-39.34 719.09,-30.58"/>
<polygon fill="midnightblue" stroke="midnightblue" points="750.11,-63.29 759.88,-67.4 754.8,-58.1 750.11,-63.29"/>
</g>
<!-- Node12 -->
<g id="node12" class="node">
<title>Node12</title>
<g id="a_node12"><a xlink:href="main_8cpp.html" target="_top" xlink:title=" ">
<polygon fill="white" stroke="black" points="785,-0.5 785,-30.5 912,-30.5 912,-0.5 785,-0.5"/>
<text text-anchor="start" x="793" y="-18.5" font-family="Helvetica,sans-Serif" font-size="10.00">D:/PathTracer/PathTracer</text>
<text text-anchor="middle" x="848.5" y="-7.5" font-family="Helvetica,sans-Serif" font-size="10.00">/main.cpp</text>
</a>
</g>
</g>
<!-- Node10&#45;&gt;Node12 -->
<g id="edge11" class="edge">
<title>Node10&#45;&gt;Node12</title>
<path fill="none" stroke="midnightblue" d="M798.97,-60.6C810,-50.78 822.84,-39.34 832.69,-30.58"/>
<polygon fill="midnightblue" stroke="midnightblue" points="796.48,-58.13 791.34,-67.4 801.14,-63.36 796.48,-58.13"/>
</g>
<!-- Node14&#45;&gt;Node9 -->
<g id="edge15" class="edge">
<title>Node14&#45;&gt;Node9</title>
<path fill="none" stroke="midnightblue" d="M744.17,-197.27C767.26,-186.92 795.74,-174.15 817.1,-164.58"/>
<polygon fill="midnightblue" stroke="midnightblue" points="742.66,-194.11 734.96,-201.4 745.52,-200.5 742.66,-194.11"/>
</g>
<!-- Node15 -->
<g id="node15" class="node">
<title>Node15</title>
<g id="a_node15"><a xlink:href="_object3_d_group_8cpp.html" target="_top" xlink:title=" ">
<polygon fill="white" stroke="black" points="640,-134.5 640,-164.5 767,-164.5 767,-134.5 640,-134.5"/>
<text text-anchor="start" x="648" y="-152.5" font-family="Helvetica,sans-Serif" font-size="10.00">D:/PathTracer/PathTracer</text>
<text text-anchor="middle" x="703.5" y="-141.5" font-family="Helvetica,sans-Serif" font-size="10.00">/Object3DGroup.cpp</text>
</a>
</g>
</g>
<!-- Node14&#45;&gt;Node15 -->
<g id="edge14" class="edge">
<title>Node14&#45;&gt;Node15</title>
<path fill="none" stroke="midnightblue" d="M703.5,-191.11C703.5,-182.15 703.5,-172.32 703.5,-164.58"/>
<polygon fill="midnightblue" stroke="midnightblue" points="700,-191.4 703.5,-201.4 707,-191.4 700,-191.4"/>
</g>
<!-- Node17 -->
<g id="node17" class="node">
<title>Node17</title>
<g id="a_node17"><a xlink:href="_object3_d_8cpp.html" target="_top" xlink:title=" ">
<polygon fill="white" stroke="black" points="435,-335.5 435,-365.5 562,-365.5 562,-335.5 435,-335.5"/>
<text text-anchor="start" x="443" y="-353.5" font-family="Helvetica,sans-Serif" font-size="10.00">D:/PathTracer/PathTracer</text>
<text text-anchor="middle" x="498.5" y="-342.5" font-family="Helvetica,sans-Serif" font-size="10.00">/Object3D.cpp</text>
</a>
</g>
</g>
<!-- Node16&#45;&gt;Node17 -->
<g id="edge17" class="edge">
<title>Node16&#45;&gt;Node17</title>
<path fill="none" stroke="midnightblue" d="M602.83,-398.27C579.74,-387.92 551.26,-375.15 529.9,-365.58"/>
<polygon fill="midnightblue" stroke="midnightblue" points="601.48,-401.5 612.04,-402.4 604.34,-395.11 601.48,-401.5"/>
</g>
<!-- Node18 -->
<g id="node18" class="node">
<title>Node18</title>
<g id="a_node18"><a xlink:href="_sphere_8h.html" target="_top" xlink:title="Defines the Sphere class.">
<polygon fill="white" stroke="black" points="725,-335.5 725,-365.5 852,-365.5 852,-335.5 725,-335.5"/>
<text text-anchor="start" x="733" y="-353.5" font-family="Helvetica,sans-Serif" font-size="10.00">D:/PathTracer/PathTracer</text>
<text text-anchor="middle" x="788.5" y="-342.5" font-family="Helvetica,sans-Serif" font-size="10.00">/Sphere.h</text>
</a>
</g>
</g>
<!-- Node16&#45;&gt;Node18 -->
<g id="edge18" class="edge">
<title>Node16&#45;&gt;Node18</title>
<path fill="none" stroke="midnightblue" d="M684.17,-398.27C707.26,-387.92 735.74,-375.15 757.1,-365.58"/>
<polygon fill="midnightblue" stroke="midnightblue" points="682.66,-395.11 674.96,-402.4 685.52,-401.5 682.66,-395.11"/>
</g>
<!-- Node20 -->
<g id="node20" class="node">
<title>Node20</title>
<g id="a_node20"><a xlink:href="_triangle_8h.html" target="_top" xlink:title="Defines the Triangle class.">
<polygon fill="white" stroke="black" points="580,-335.5 580,-365.5 707,-365.5 707,-335.5 580,-335.5"/>
<text text-anchor="start" x="588" y="-353.5" font-family="Helvetica,sans-Serif" font-size="10.00">D:/PathTracer/PathTracer</text>
<text text-anchor="middle" x="643.5" y="-342.5" font-family="Helvetica,sans-Serif" font-size="10.00">/Triangle.h</text>
</a>
</g>
</g>
<!-- Node16&#45;&gt;Node20 -->
<g id="edge21" class="edge">
<title>Node16&#45;&gt;Node20</title>
<path fill="none" stroke="midnightblue" d="M643.5,-392.11C643.5,-383.15 643.5,-373.32 643.5,-365.58"/>
<polygon fill="midnightblue" stroke="midnightblue" points="640,-392.4 643.5,-402.4 647,-392.4 640,-392.4"/>
</g>
<!-- Node18&#45;&gt;Node5 -->
<g id="edge19" class="edge">
<title>Node18&#45;&gt;Node5</title>
<path fill="none" stroke="midnightblue" d="M714.87,-334.7C636.55,-319.74 556.98,-305.36 503.1,-295.75"/>
<polygon fill="midnightblue" stroke="midnightblue" points="714.43,-338.18 724.91,-336.63 715.75,-331.31 714.43,-338.18"/>
</g>
<!-- Node19 -->
<g id="node19" class="node">
<title>Node19</title>
<g id="a_node19"><a xlink:href="_sphere_8cpp.html" target="_top" xlink:title=" ">
<polygon fill="white" stroke="black" points="725,-268.5 725,-298.5 852,-298.5 852,-268.5 725,-268.5"/>
<text text-anchor="start" x="733" y="-286.5" font-family="Helvetica,sans-Serif" font-size="10.00">D:/PathTracer/PathTracer</text>
<text text-anchor="middle" x="788.5" y="-275.5" font-family="Helvetica,sans-Serif" font-size="10.00">/Sphere.cpp</text>
</a>
</g>
</g>
<!-- Node18&#45;&gt;Node19 -->
<g id="edge20" class="edge">
<title>Node18&#45;&gt;Node19</title>
<path fill="none" stroke="midnightblue" d="M788.5,-325.11C788.5,-316.15 788.5,-306.32 788.5,-298.58"/>
<polygon fill="midnightblue" stroke="midnightblue" points="785,-325.4 788.5,-335.4 792,-325.4 785,-325.4"/>
</g>
<!-- Node20&#45;&gt;Node5 -->
<g id="edge22" class="edge">
<title>Node20&#45;&gt;Node5</title>
<path fill="none" stroke="midnightblue" d="M589.54,-332.31C556.54,-321.79 514.84,-308.51 483.79,-298.61"/>
<polygon fill="midnightblue" stroke="midnightblue" points="588.9,-335.77 599.49,-335.48 591.02,-329.11 588.9,-335.77"/>
</g>
<!-- Node21 -->
<g id="node21" class="node">
<title>Node21</title>
<g id="a_node21"><a xlink:href="_triangle_8cpp.html" target="_top" xlink:title=" ">
<polygon fill="white" stroke="black" points="580,-268.5 580,-298.5 707,-298.5 707,-268.5 580,-268.5"/>
<text text-anchor="start" x="588" y="-286.5" font-family="Helvetica,sans-Serif" font-size="10.00">D:/PathTracer/PathTracer</text>
<text text-anchor="middle" x="643.5" y="-275.5" font-family="Helvetica,sans-Serif" font-size="10.00">/Triangle.cpp</text>
</a>
</g>
</g>
<!-- Node20&#45;&gt;Node21 -->
<g id="edge23" class="edge">
<title>Node20&#45;&gt;Node21</title>
<path fill="none" stroke="midnightblue" d="M643.5,-325.11C643.5,-316.15 643.5,-306.32 643.5,-298.58"/>
<polygon fill="midnightblue" stroke="midnightblue" points="640,-325.4 643.5,-335.4 647,-325.4 640,-325.4"/>
</g>
<!-- Node23&#45;&gt;Node5 -->
<g id="edge26" class="edge">
<title>Node23&#45;&gt;Node5</title>
<path fill="none" stroke="midnightblue" d="M282.35,-465.44C266.63,-458.01 251.89,-447.58 242.5,-433 235.04,-421.41 235.7,-413.98 242.5,-402 273.77,-346.94 342.19,-314.95 389.55,-298.61"/>
<polygon fill="midnightblue" stroke="midnightblue" points="281.11,-468.71 291.68,-469.47 283.89,-462.29 281.11,-468.71"/>
</g>
<!-- Node24 -->
<g id="node24" class="node">
<title>Node24</title>
<g id="a_node24"><a xlink:href="_refractive_material_8cpp.html" target="_top" xlink:title=" ">
<polygon fill="white" stroke="black" points="251,-402.5 251,-432.5 378,-432.5 378,-402.5 251,-402.5"/>
<text text-anchor="start" x="259" y="-420.5" font-family="Helvetica,sans-Serif" font-size="10.00">D:/PathTracer/PathTracer</text>
<text text-anchor="middle" x="314.5" y="-409.5" font-family="Helvetica,sans-Serif" font-size="10.00">/RefractiveMaterial.cpp</text>
</a>
</g>
</g>
<!-- Node23&#45;&gt;Node24 -->
<g id="edge27" class="edge">
<title>Node23&#45;&gt;Node24</title>
<path fill="none" stroke="midnightblue" d="M339.75,-460.58C334.14,-451.24 327.85,-440.75 322.95,-432.58"/>
<polygon fill="midnightblue" stroke="midnightblue" points="336.89,-462.62 345.04,-469.4 342.89,-459.02 336.89,-462.62"/>
</g>
<!-- Node25&#45;&gt;Node5 -->
<g id="edge29" class="edge">
<title>Node25&#45;&gt;Node5</title>
<path fill="none" stroke="midnightblue" d="M92.06,-463.73C105.33,-454.48 121.28,-443.26 135.5,-433 194.75,-390.24 202.1,-367.58 267.5,-335 301.63,-318 342.48,-305.71 375.8,-297.51"/>
<polygon fill="midnightblue" stroke="midnightblue" points="89.99,-460.91 83.78,-469.5 93.98,-466.66 89.99,-460.91"/>
</g>
<!-- Node26 -->
<g id="node26" class="node">
<title>Node26</title>
<g id="a_node26"><a xlink:href="_specular_material_8cpp.html" target="_top" xlink:title=" ">
<polygon fill="white" stroke="black" points="0,-402.5 0,-432.5 127,-432.5 127,-402.5 0,-402.5"/>
<text text-anchor="start" x="8" y="-420.5" font-family="Helvetica,sans-Serif" font-size="10.00">D:/PathTracer/PathTracer</text>
<text text-anchor="middle" x="63.5" y="-409.5" font-family="Helvetica,sans-Serif" font-size="10.00">/SpecularMaterial.cpp</text>
</a>
</g>
</g>
<!-- Node25&#45;&gt;Node26 -->
<g id="edge30" class="edge">
<title>Node25&#45;&gt;Node26</title>
<path fill="none" stroke="midnightblue" d="M63.5,-459.11C63.5,-450.15 63.5,-440.32 63.5,-432.58"/>
<polygon fill="midnightblue" stroke="midnightblue" points="60,-459.4 63.5,-469.4 67,-459.4 60,-459.4"/>
</g>
<!-- Node27&#45;&gt;Node9 -->
<g id="edge33" class="edge">
<title>Node27&#45;&gt;Node9</title>
<path fill="none" stroke="midnightblue" d="M769.56,-532.75C817.67,-513.14 880.5,-476.45 880.5,-418.5 880.5,-418.5 880.5,-418.5 880.5,-282.5 880.5,-238.64 863.61,-188.83 854.37,-164.87"/>
<polygon fill="midnightblue" stroke="midnightblue" points="768.18,-529.53 760.15,-536.44 770.74,-536.04 768.18,-529.53"/>
</g>
<!-- Node28 -->
<g id="node28" class="node">
<title>Node28</title>
<g id="a_node28"><a xlink:href="_perspective_camera_8cpp.html" target="_top" xlink:title=" ">
<polygon fill="white" stroke="black" points="652,-469.5 652,-499.5 779,-499.5 779,-469.5 652,-469.5"/>
<text text-anchor="start" x="660" y="-487.5" font-family="Helvetica,sans-Serif" font-size="10.00">D:/PathTracer/PathTracer</text>
<text text-anchor="middle" x="715.5" y="-476.5" font-family="Helvetica,sans-Serif" font-size="10.00">/PerspectiveCamera.cpp</text>
</a>
</g>
</g>
<!-- Node27&#45;&gt;Node28 -->
<g id="edge32" class="edge">
<title>Node27&#45;&gt;Node28</title>
<path fill="none" stroke="midnightblue" d="M715.5,-526.11C715.5,-517.15 715.5,-507.32 715.5,-499.58"/>
<polygon fill="midnightblue" stroke="midnightblue" points="712,-526.4 715.5,-536.4 719,-526.4 712,-526.4"/>
</g>
</g>
</svg>
        <g id="navigator" transform="translate(0 0)" fill="#404254">
                <rect fill="#f2f5e9" fill-opacity="0.5" stroke="#606060" stroke-width=".5" x="0" y="0" width="60" height="60"/>
                <use id="zoomplus" xlink:href="#zoomPlus" x="17" y="9" onmousedown="handleZoom(evt,'in')"/>
                <use id="zoomminus" xlink:href="#zoomMin" x="42" y="9" onmousedown="handleZoom(evt,'out')"/>
                <use id="reset" xlink:href="#resetDef" x="30" y="36" onmousedown="handleReset()"/>
                <g id="arrowUp" xlink:href="#dirArrow" transform="translate(30 24)" onmousedown="handlePan(0,-1)">
                  <use xlink:href="#rim" fill="#404040">
                        <set attributeName="fill" to="#808080" begin="arrowUp.mouseover" end="arrowUp.mouseout"/>
                  </use>
                  <path fill="none" stroke="white" stroke-width="1.5" d="M0,-3.0v7 M-2.5,-0.5L0,-3.0L2.5,-0.5"/>
                </g>
                <g id="arrowRight" xlink:href="#dirArrow" transform="rotate(90) translate(36 -43)" onmousedown="handlePan(1,0)">
                  <use xlink:href="#rim" fill="#404040">
                        <set attributeName="fill" to="#808080" begin="arrowRight.mouseover" end="arrowRight.mouseout"/>
                  </use>
                  <path fill="none" stroke="white" stroke-width="1.5" d="M0,-3.0v7 M-2.5,-0.5L0,-3.0L2.5,-0.5"/>
                </g>
                <g id="arrowDown" xlink:href="#dirArrow" transform="rotate(180) translate(-30 -48)" onmousedown="handlePan(0,1)">
                  <use xlink:href="#rim" fill="#404040">
                        <set attributeName="fill" to="#808080" begin="arrowDown.mouseover" end="arrowDown.mouseout"/>
                  </use>
                  <path fill="none" stroke="white" stroke-width="1.5" d="M0,-3.0v7 M-2.5,-0.5L0,-3.0L2.5,-0.5"/>
                </g>
                <g id="arrowLeft" xlink:href="#dirArrow" transform="rotate(270) translate(-36 17)" onmousedown="handlePan(-1,0)">
                  <use xlink:href="#rim" fill="#404040">
                        <set attributeName="fill" to="#808080" begin="arrowLeft.mouseover" end="arrowLeft.mouseout"/>
                  </use>
                  <path fill="none" stroke="white" stroke-width="1.5" d="M0,-3.0v7 M-2.5,-0.5L0,-3.0L2.5,-0.5"/>
                </g>
        </g>
        <svg viewBox="0 0 15 15" width="100%" height="30px" preserveAspectRatio="xMaxYMin meet">
         <g id="arrow_out" transform="scale(0.3 0.3)">
          <a xlink:href="_ray_8h__dep__incl_org.svg" target="_base">
           <rect id="button" ry="5" rx="5" y="6" x="6" height="38" width="38"
                fill="#f2f5e9" fill-opacity="0.5" stroke="#606060" stroke-width="1.0"/>
           <path id="arrow"
             d="M 11.500037,31.436501 C 11.940474,20.09759 22.043105,11.32322 32.158766,21.979434 L 37.068811,17.246167 C 37.068811,17.246167 37.088388,32 37.088388,32 L 22.160133,31.978069 C 22.160133,31.978069 26.997745,27.140456 26.997745,27.140456 C 18.528582,18.264221 13.291696,25.230495 11.500037,31.436501 z"
             style="fill:#404040;"/>
          </a>
         </g>
        </svg>
</svg>
