<?xml version="1.0" encoding="UTF-8" standalone="no"?>
<!DOCTYPE svg PUBLIC "-//W3C//DTD SVG 1.1//EN"
 "http://www.w3.org/Graphics/SVG/1.1/DTD/svg11.dtd">
<!-- Generated by graphviz version 2.44.1 (20200629.0800)
 -->
<!-- Title: D:/PathTracer/PathTracer/Ray.cpp Pages: 1 -->
<svg width="316pt" height="263pt"
 viewBox="0.00 0.00 315.50 263.00" xmlns="http://www.w3.org/2000/svg" xmlns:xlink="http://www.w3.org/1999/xlink">
<g id="graph0" class="graph" transform="scale(1 1) rotate(0) translate(4 259)">
<title>D:/PathTracer/PathTracer/Ray.cpp</title>
<polygon fill="white" stroke="transparent" points="-4,4 -4,-259 311.5,-259 311.5,4 -4,4"/>
<!-- Node1 -->
<g id="node1" class="node">
<title>Node1</title>
<g id="a_node1"><a xlink:title=" ">
<polygon fill="#bfbfbf" stroke="black" points="77.5,-224.5 77.5,-254.5 204.5,-254.5 204.5,-224.5 77.5,-224.5"/>
<text text-anchor="start" x="85.5" y="-242.5" font-family="Helvetica,sans-Serif" font-size="10.00">D:/PathTracer/PathTracer</text>
<text text-anchor="middle" x="141" y="-231.5" font-family="Helvetica,sans-Serif" font-size="10.00">/Ray.cpp</text>
</a>
</g>
</g>
<!-- Node2 -->
<g id="node2" class="node">
<title>Node2</title>
<g id="a_node2"><a xlink:href="_ray_8h.html" target="_top" xlink:title="Defines the Ray class.">
<polygon fill="white" stroke="black" points="120,-168.5 120,-187.5 162,-187.5 162,-168.5 120,-168.5"/>
<text text-anchor="middle" x="141" y="-175.5" font-family="Helvetica,sans-Serif" font-size="10.00">Ray.h</text>
</a>
</g>
</g>
<!-- Node1&#45;&gt;Node2 -->
<g id="edge1" class="edge">
<title>Node1&#45;&gt;Node2</title>
<path fill="none" stroke="midnightblue" d="M141,-224.4C141,-216.47 141,-206.46 141,-197.86"/>
<polygon fill="midnightblue" stroke="midnightblue" points="144.5,-197.66 141,-187.66 137.5,-197.66 144.5,-197.66"/>
</g>
<!-- Node3 -->
<g id="node3" class="node">
<title>Node3</title>
<g id="a_node3"><a xlink:href="_double_vec3_d_8h.html" target="_top" xlink:title="Defines the DoubleVec3D class and the functions around it.">
<polygon fill="white" stroke="black" points="99,-56.5 99,-75.5 183,-75.5 183,-56.5 99,-56.5"/>
<text text-anchor="middle" x="141" y="-63.5" font-family="Helvetica,sans-Serif" font-size="10.00">DoubleVec3D.h</text>
</a>
</g>
</g>
<!-- Node2&#45;&gt;Node3 -->
<g id="edge2" class="edge">
<title>Node2&#45;&gt;Node3</title>
<path fill="none" stroke="midnightblue" d="M135.35,-168.3C128.01,-155.95 116.64,-132.56 121,-112 123,-102.59 127.1,-92.76 131.07,-84.7"/>
<polygon fill="midnightblue" stroke="midnightblue" points="134.31,-86.07 135.87,-75.59 128.11,-82.81 134.31,-86.07"/>
</g>
<!-- Node8 -->
<g id="node8" class="node">
<title>Node8</title>
<g id="a_node8"><a xlink:href="_double_unit_vec3_d_8h.html" target="_top" xlink:title="Defines the DoubleUnitVec3D class and the functions around it.">
<polygon fill="white" stroke="black" points="130.5,-112.5 130.5,-131.5 231.5,-131.5 231.5,-112.5 130.5,-112.5"/>
<text text-anchor="middle" x="181" y="-119.5" font-family="Helvetica,sans-Serif" font-size="10.00">DoubleUnitVec3D.h</text>
</a>
</g>
</g>
<!-- Node2&#45;&gt;Node8 -->
<g id="edge7" class="edge">
<title>Node2&#45;&gt;Node8</title>
<path fill="none" stroke="midnightblue" d="M147.61,-168.08C153.26,-160.46 161.54,-149.26 168.45,-139.94"/>
<polygon fill="midnightblue" stroke="midnightblue" points="171.38,-141.87 174.52,-131.75 165.75,-137.7 171.38,-141.87"/>
</g>
<!-- Node4 -->
<g id="node4" class="node">
<title>Node4</title>
<g id="a_node4"><a xlink:title=" ">
<polygon fill="white" stroke="#bfbfbf" points="0,-0.5 0,-19.5 54,-19.5 54,-0.5 0,-0.5"/>
<text text-anchor="middle" x="27" y="-7.5" font-family="Helvetica,sans-Serif" font-size="10.00">iostream</text>
</a>
</g>
</g>
<!-- Node3&#45;&gt;Node4 -->
<g id="edge3" class="edge">
<title>Node3&#45;&gt;Node4</title>
<path fill="none" stroke="midnightblue" d="M122.94,-56.44C104.43,-47.68 75.42,-33.94 54.14,-23.86"/>
<polygon fill="midnightblue" stroke="midnightblue" points="55.51,-20.63 44.98,-19.52 52.52,-26.96 55.51,-20.63"/>
</g>
<!-- Node5 -->
<g id="node5" class="node">
<title>Node5</title>
<g id="a_node5"><a xlink:title=" ">
<polygon fill="white" stroke="#bfbfbf" points="72.5,-0.5 72.5,-19.5 119.5,-19.5 119.5,-0.5 72.5,-0.5"/>
<text text-anchor="middle" x="96" y="-7.5" font-family="Helvetica,sans-Serif" font-size="10.00">math.h</text>
</a>
</g>
</g>
<!-- Node3&#45;&gt;Node5 -->
<g id="edge4" class="edge">
<title>Node3&#45;&gt;Node5</title>
<path fill="none" stroke="midnightblue" d="M133.57,-56.08C127.15,-48.38 117.69,-37.03 109.88,-27.65"/>
<polygon fill="midnightblue" stroke="midnightblue" points="112.38,-25.19 103.29,-19.75 107.01,-29.67 112.38,-25.19"/>
</g>
<!-- Node6 -->
<g id="node6" class="node">
<title>Node6</title>
<g id="a_node6"><a xlink:title=" ">
<polygon fill="white" stroke="#bfbfbf" points="138,-0.5 138,-19.5 236,-19.5 236,-0.5 138,-0.5"/>
<text text-anchor="middle" x="187" y="-7.5" font-family="Helvetica,sans-Serif" font-size="10.00">nlohmann/json.hpp</text>
</a>
</g>
</g>
<!-- Node3&#45;&gt;Node6 -->
<g id="edge5" class="edge">
<title>Node3&#45;&gt;Node6</title>
<path fill="none" stroke="midnightblue" d="M148.6,-56.08C155.23,-48.3 165.02,-36.8 173.06,-27.37"/>
<polygon fill="midnightblue" stroke="midnightblue" points="175.73,-29.63 179.55,-19.75 170.4,-25.09 175.73,-29.63"/>
</g>
<!-- Node7 -->
<g id="node7" class="node">
<title>Node7</title>
<g id="a_node7"><a xlink:title=" ">
<polygon fill="white" stroke="#bfbfbf" points="254.5,-0.5 254.5,-19.5 307.5,-19.5 307.5,-0.5 254.5,-0.5"/>
<text text-anchor="middle" x="281" y="-7.5" font-family="Helvetica,sans-Serif" font-size="10.00">fbxsdk.h</text>
</a>
</g>
</g>
<!-- Node3&#45;&gt;Node7 -->
<g id="edge6" class="edge">
<title>Node3&#45;&gt;Node7</title>
<path fill="none" stroke="midnightblue" d="M163.18,-56.44C186.43,-47.48 223.15,-33.31 249.42,-23.18"/>
<polygon fill="midnightblue" stroke="midnightblue" points="250.85,-26.38 258.92,-19.52 248.33,-19.85 250.85,-26.38"/>
</g>
<!-- Node8&#45;&gt;Node3 -->
<g id="edge8" class="edge">
<title>Node8&#45;&gt;Node3</title>
<path fill="none" stroke="midnightblue" d="M174.39,-112.08C168.74,-104.46 160.46,-93.26 153.55,-83.94"/>
<polygon fill="midnightblue" stroke="midnightblue" points="156.25,-81.7 147.48,-75.75 150.62,-85.87 156.25,-81.7"/>
</g>
</g>
</svg>
