<?xml version="1.0" encoding="UTF-8" standalone="no"?>
<!DOCTYPE svg PUBLIC "-//W3C//DTD SVG 1.1//EN"
 "http://www.w3.org/Graphics/SVG/1.1/DTD/svg11.dtd">
<!-- Generated by graphviz version 2.44.1 (20200629.0800)
 -->
<!-- Title: D:/PathTracer/PathTracer/RefractiveMaterial.cpp Pages: 1 -->
<svg width="475pt" height="487pt"
 viewBox="0.00 0.00 475.00 487.00" xmlns="http://www.w3.org/2000/svg" xmlns:xlink="http://www.w3.org/1999/xlink">
<g id="graph0" class="graph" transform="scale(1 1) rotate(0) translate(4 483)">
<title>D:/PathTracer/PathTracer/RefractiveMaterial.cpp</title>
<polygon fill="white" stroke="transparent" points="-4,4 -4,-483 471,-483 471,4 -4,4"/>
<!-- Node1 -->
<g id="node1" class="node">
<title>Node1</title>
<g id="a_node1"><a xlink:title=" ">
<polygon fill="#bfbfbf" stroke="black" points="340,-448.5 340,-478.5 467,-478.5 467,-448.5 340,-448.5"/>
<text text-anchor="start" x="348" y="-466.5" font-family="Helvetica,sans-Serif" font-size="10.00">D:/PathTracer/PathTracer</text>
<text text-anchor="middle" x="403.5" y="-455.5" font-family="Helvetica,sans-Serif" font-size="10.00">/RefractiveMaterial.cpp</text>
</a>
</g>
</g>
<!-- Node2 -->
<g id="node2" class="node">
<title>Node2</title>
<g id="a_node2"><a xlink:href="_refractive_material_8h.html" target="_top" xlink:title="Defines the RefractiveMaterial class.">
<polygon fill="white" stroke="black" points="353,-392.5 353,-411.5 454,-411.5 454,-392.5 353,-392.5"/>
<text text-anchor="middle" x="403.5" y="-399.5" font-family="Helvetica,sans-Serif" font-size="10.00">RefractiveMaterial.h</text>
</a>
</g>
</g>
<!-- Node1&#45;&gt;Node2 -->
<g id="edge1" class="edge">
<title>Node1&#45;&gt;Node2</title>
<path fill="none" stroke="midnightblue" d="M403.5,-448.4C403.5,-440.47 403.5,-430.46 403.5,-421.86"/>
<polygon fill="midnightblue" stroke="midnightblue" points="407,-421.66 403.5,-411.66 400,-421.66 407,-421.66"/>
</g>
<!-- Node3 -->
<g id="node3" class="node">
<title>Node3</title>
<g id="a_node3"><a xlink:href="_double_vec3_d_8h.html" target="_top" xlink:title="Defines the DoubleVec3D class and the functions around it.">
<polygon fill="white" stroke="black" points="150.5,-56.5 150.5,-75.5 234.5,-75.5 234.5,-56.5 150.5,-56.5"/>
<text text-anchor="middle" x="192.5" y="-63.5" font-family="Helvetica,sans-Serif" font-size="10.00">DoubleVec3D.h</text>
</a>
</g>
</g>
<!-- Node2&#45;&gt;Node3 -->
<g id="edge2" class="edge">
<title>Node2&#45;&gt;Node3</title>
<path fill="none" stroke="midnightblue" d="M411.67,-392.38C427.43,-374.81 460.5,-332.94 460.5,-291 460.5,-291 460.5,-291 460.5,-177 460.5,-84.7 322.79,-68.21 244.8,-66.26"/>
<polygon fill="midnightblue" stroke="midnightblue" points="244.73,-62.76 234.67,-66.08 244.61,-69.76 244.73,-62.76"/>
</g>
<!-- Node8 -->
<g id="node8" class="node">
<title>Node8</title>
<g id="a_node8"><a xlink:href="_material_8h.html" target="_top" xlink:title="Defines the Material class and the functions around it.">
<polygon fill="white" stroke="black" points="335,-224.5 335,-243.5 394,-243.5 394,-224.5 335,-224.5"/>
<text text-anchor="middle" x="364.5" y="-231.5" font-family="Helvetica,sans-Serif" font-size="10.00">Material.h</text>
</a>
</g>
</g>
<!-- Node2&#45;&gt;Node8 -->
<g id="edge7" class="edge">
<title>Node2&#45;&gt;Node8</title>
<path fill="none" stroke="midnightblue" d="M401.4,-392.08C395.26,-365.95 377.24,-289.21 368.86,-253.58"/>
<polygon fill="midnightblue" stroke="midnightblue" points="372.21,-252.5 366.51,-243.57 365.39,-254.1 372.21,-252.5"/>
</g>
<!-- Node9 -->
<g id="node9" class="node">
<title>Node9</title>
<g id="a_node9"><a xlink:href="_ray_8h.html" target="_top" xlink:title="Defines the Ray class.">
<polygon fill="white" stroke="black" points="278.5,-168.5 278.5,-187.5 320.5,-187.5 320.5,-168.5 278.5,-168.5"/>
<text text-anchor="middle" x="299.5" y="-175.5" font-family="Helvetica,sans-Serif" font-size="10.00">Ray.h</text>
</a>
</g>
</g>
<!-- Node2&#45;&gt;Node9 -->
<g id="edge25" class="edge">
<title>Node2&#45;&gt;Node9</title>
<path fill="none" stroke="midnightblue" d="M406.52,-392.29C415.48,-364.77 439.07,-278.28 402.5,-224 386.45,-200.17 354.8,-188.87 330.8,-183.56"/>
<polygon fill="midnightblue" stroke="midnightblue" points="331.21,-180.08 320.72,-181.58 329.85,-186.95 331.21,-180.08"/>
</g>
<!-- Node11 -->
<g id="node11" class="node">
<title>Node11</title>
<g id="a_node11"><a xlink:href="_object3_d_8h.html" target="_top" xlink:title="Defines the Object3D class and the functions around it.">
<polygon fill="white" stroke="black" points="201,-336.5 201,-355.5 266,-355.5 266,-336.5 201,-336.5"/>
<text text-anchor="middle" x="233.5" y="-343.5" font-family="Helvetica,sans-Serif" font-size="10.00">Object3D.h</text>
</a>
</g>
</g>
<!-- Node2&#45;&gt;Node11 -->
<g id="edge13" class="edge">
<title>Node2&#45;&gt;Node11</title>
<path fill="none" stroke="midnightblue" d="M376.56,-392.44C347.84,-383.32 302.17,-368.81 270.18,-358.65"/>
<polygon fill="midnightblue" stroke="midnightblue" points="270.9,-355.21 260.31,-355.52 268.78,-361.88 270.9,-355.21"/>
</g>
<!-- Node4 -->
<g id="node4" class="node">
<title>Node4</title>
<g id="a_node4"><a xlink:title=" ">
<polygon fill="white" stroke="#bfbfbf" points="71.5,-0.5 71.5,-19.5 125.5,-19.5 125.5,-0.5 71.5,-0.5"/>
<text text-anchor="middle" x="98.5" y="-7.5" font-family="Helvetica,sans-Serif" font-size="10.00">iostream</text>
</a>
</g>
</g>
<!-- Node3&#45;&gt;Node4 -->
<g id="edge3" class="edge">
<title>Node3&#45;&gt;Node4</title>
<path fill="none" stroke="midnightblue" d="M177.4,-56.32C162.6,-47.82 139.81,-34.73 122.52,-24.8"/>
<polygon fill="midnightblue" stroke="midnightblue" points="123.98,-21.6 113.57,-19.65 120.49,-27.67 123.98,-21.6"/>
</g>
<!-- Node5 -->
<g id="node5" class="node">
<title>Node5</title>
<g id="a_node5"><a xlink:title=" ">
<polygon fill="white" stroke="#bfbfbf" points="260,-0.5 260,-19.5 307,-19.5 307,-0.5 260,-0.5"/>
<text text-anchor="middle" x="283.5" y="-7.5" font-family="Helvetica,sans-Serif" font-size="10.00">math.h</text>
</a>
</g>
</g>
<!-- Node3&#45;&gt;Node5 -->
<g id="edge4" class="edge">
<title>Node3&#45;&gt;Node5</title>
<path fill="none" stroke="midnightblue" d="M207.12,-56.32C221.45,-47.82 243.51,-34.73 260.25,-24.8"/>
<polygon fill="midnightblue" stroke="midnightblue" points="262.1,-27.77 268.92,-19.65 258.53,-21.75 262.1,-27.77"/>
</g>
<!-- Node6 -->
<g id="node6" class="node">
<title>Node6</title>
<g id="a_node6"><a xlink:title=" ">
<polygon fill="white" stroke="#bfbfbf" points="143.5,-0.5 143.5,-19.5 241.5,-19.5 241.5,-0.5 143.5,-0.5"/>
<text text-anchor="middle" x="192.5" y="-7.5" font-family="Helvetica,sans-Serif" font-size="10.00">nlohmann/json.hpp</text>
</a>
</g>
</g>
<!-- Node3&#45;&gt;Node6 -->
<g id="edge5" class="edge">
<title>Node3&#45;&gt;Node6</title>
<path fill="none" stroke="midnightblue" d="M192.5,-56.08C192.5,-49.01 192.5,-38.86 192.5,-29.99"/>
<polygon fill="midnightblue" stroke="midnightblue" points="196,-29.75 192.5,-19.75 189,-29.75 196,-29.75"/>
</g>
<!-- Node7 -->
<g id="node7" class="node">
<title>Node7</title>
<g id="a_node7"><a xlink:title=" ">
<polygon fill="white" stroke="#bfbfbf" points="0,-0.5 0,-19.5 53,-19.5 53,-0.5 0,-0.5"/>
<text text-anchor="middle" x="26.5" y="-7.5" font-family="Helvetica,sans-Serif" font-size="10.00">fbxsdk.h</text>
</a>
</g>
</g>
<!-- Node3&#45;&gt;Node7 -->
<g id="edge6" class="edge">
<title>Node3&#45;&gt;Node7</title>
<path fill="none" stroke="midnightblue" d="M166.2,-56.44C138.15,-47.32 93.56,-32.81 62.32,-22.65"/>
<polygon fill="midnightblue" stroke="midnightblue" points="63.27,-19.28 52.68,-19.52 61.11,-25.94 63.27,-19.28"/>
</g>
<!-- Node8&#45;&gt;Node3 -->
<g id="edge8" class="edge">
<title>Node8&#45;&gt;Node3</title>
<path fill="none" stroke="midnightblue" d="M361.15,-224.35C355.79,-211.24 344.37,-185.97 329.5,-168 297.53,-129.39 247.77,-97.6 217.84,-80.54"/>
<polygon fill="midnightblue" stroke="midnightblue" points="219.3,-77.35 208.87,-75.53 215.89,-83.46 219.3,-77.35"/>
</g>
<!-- Node8&#45;&gt;Node9 -->
<g id="edge9" class="edge">
<title>Node8&#45;&gt;Node9</title>
<path fill="none" stroke="midnightblue" d="M354.06,-224.32C344.35,-216.26 329.68,-204.08 318,-194.37"/>
<polygon fill="midnightblue" stroke="midnightblue" points="320.06,-191.53 310.13,-187.83 315.59,-196.92 320.06,-191.53"/>
</g>
<!-- Node9&#45;&gt;Node3 -->
<g id="edge10" class="edge">
<title>Node9&#45;&gt;Node3</title>
<path fill="none" stroke="midnightblue" d="M291.1,-168.37C273.21,-149.97 231.09,-106.67 208.11,-83.05"/>
<polygon fill="midnightblue" stroke="midnightblue" points="210.34,-80.32 200.86,-75.59 205.32,-85.2 210.34,-80.32"/>
</g>
<!-- Node10 -->
<g id="node10" class="node">
<title>Node10</title>
<g id="a_node10"><a xlink:href="_double_unit_vec3_d_8h.html" target="_top" xlink:title="Defines the DoubleUnitVec3D class and the functions around it.">
<polygon fill="white" stroke="black" points="63,-112.5 63,-131.5 164,-131.5 164,-112.5 63,-112.5"/>
<text text-anchor="middle" x="113.5" y="-119.5" font-family="Helvetica,sans-Serif" font-size="10.00">DoubleUnitVec3D.h</text>
</a>
</g>
</g>
<!-- Node9&#45;&gt;Node10 -->
<g id="edge11" class="edge">
<title>Node9&#45;&gt;Node10</title>
<path fill="none" stroke="midnightblue" d="M278.16,-170.81C247.59,-161.93 190.81,-145.44 152.59,-134.35"/>
<polygon fill="midnightblue" stroke="midnightblue" points="153.39,-130.94 142.82,-131.51 151.44,-137.66 153.39,-130.94"/>
</g>
<!-- Node10&#45;&gt;Node3 -->
<g id="edge12" class="edge">
<title>Node10&#45;&gt;Node3</title>
<path fill="none" stroke="midnightblue" d="M126.19,-112.32C138.4,-103.98 157.08,-91.21 171.5,-81.35"/>
<polygon fill="midnightblue" stroke="midnightblue" points="173.56,-84.19 179.84,-75.65 169.61,-78.41 173.56,-84.19"/>
</g>
<!-- Node11&#45;&gt;Node3 -->
<g id="edge21" class="edge">
<title>Node11&#45;&gt;Node3</title>
<path fill="none" stroke="midnightblue" d="M200.64,-341.79C144.12,-334.27 34.5,-310 34.5,-235 34.5,-235 34.5,-235 34.5,-177 34.5,-146.9 32.53,-133.59 53.5,-112 76.19,-88.65 111.07,-77.4 140.22,-71.99"/>
<polygon fill="midnightblue" stroke="midnightblue" points="140.97,-75.41 150.26,-70.31 139.82,-68.51 140.97,-75.41"/>
</g>
<!-- Node11&#45;&gt;Node8 -->
<g id="edge23" class="edge">
<title>Node11&#45;&gt;Node8</title>
<path fill="none" stroke="midnightblue" d="M257.61,-336.35C276.25,-328.81 301.94,-316.49 320.5,-300 335.58,-286.6 347.94,-266.95 355.67,-252.77"/>
<polygon fill="midnightblue" stroke="midnightblue" points="358.95,-254.07 360.46,-243.58 352.74,-250.83 358.95,-254.07"/>
</g>
<!-- Node11&#45;&gt;Node9 -->
<g id="edge24" class="edge">
<title>Node11&#45;&gt;Node9</title>
<path fill="none" stroke="midnightblue" d="M248.88,-336.47C261.29,-328.7 278.03,-316 286.5,-300 303.83,-267.28 303.52,-222.65 301.61,-197.76"/>
<polygon fill="midnightblue" stroke="midnightblue" points="305.07,-197.16 300.64,-187.54 298.1,-197.82 305.07,-197.16"/>
</g>
<!-- Node11&#45;&gt;Node10 -->
<g id="edge22" class="edge">
<title>Node11&#45;&gt;Node10</title>
<path fill="none" stroke="midnightblue" d="M200.83,-341.54C174.44,-336.86 138.79,-325.86 120.5,-300 86.37,-251.75 99.54,-176.18 108.23,-141.51"/>
<polygon fill="midnightblue" stroke="midnightblue" points="111.63,-142.34 110.82,-131.78 104.86,-140.54 111.63,-142.34"/>
</g>
<!-- Node12 -->
<g id="node12" class="node">
<title>Node12</title>
<g id="a_node12"><a xlink:title=" ">
<polygon fill="white" stroke="#bfbfbf" points="130,-280.5 130,-299.5 171,-299.5 171,-280.5 130,-280.5"/>
<text text-anchor="middle" x="150.5" y="-287.5" font-family="Helvetica,sans-Serif" font-size="10.00">string</text>
</a>
</g>
</g>
<!-- Node11&#45;&gt;Node12 -->
<g id="edge14" class="edge">
<title>Node11&#45;&gt;Node12</title>
<path fill="none" stroke="midnightblue" d="M220.16,-336.32C207.34,-327.98 187.72,-315.21 172.56,-305.35"/>
<polygon fill="midnightblue" stroke="midnightblue" points="174.09,-302.17 163.8,-299.65 170.28,-308.04 174.09,-302.17"/>
</g>
<!-- Node13 -->
<g id="node13" class="node">
<title>Node13</title>
<g id="a_node13"><a xlink:href="_diffuse_material_8h.html" target="_top" xlink:title="Defines the DiffuseMaterial class.">
<polygon fill="white" stroke="black" points="189,-280.5 189,-299.5 278,-299.5 278,-280.5 189,-280.5"/>
<text text-anchor="middle" x="233.5" y="-287.5" font-family="Helvetica,sans-Serif" font-size="10.00">DiffuseMaterial.h</text>
</a>
</g>
</g>
<!-- Node11&#45;&gt;Node13 -->
<g id="edge15" class="edge">
<title>Node11&#45;&gt;Node13</title>
<path fill="none" stroke="midnightblue" d="M233.5,-336.08C233.5,-329.01 233.5,-318.86 233.5,-309.99"/>
<polygon fill="midnightblue" stroke="midnightblue" points="237,-309.75 233.5,-299.75 230,-309.75 237,-309.75"/>
</g>
<!-- Node13&#45;&gt;Node3 -->
<g id="edge17" class="edge">
<title>Node13&#45;&gt;Node3</title>
<path fill="none" stroke="midnightblue" d="M229.5,-280.23C225.6,-271.29 219.78,-256.95 216.5,-244 202.2,-187.51 195.96,-118.58 193.65,-85.91"/>
<polygon fill="midnightblue" stroke="midnightblue" points="197.13,-85.35 192.98,-75.6 190.14,-85.81 197.13,-85.35"/>
</g>
<!-- Node13&#45;&gt;Node5 -->
<g id="edge16" class="edge">
<title>Node13&#45;&gt;Node5</title>
<path fill="none" stroke="midnightblue" d="M235.05,-280.38C242.01,-241.7 270.41,-83.79 280.18,-29.47"/>
<polygon fill="midnightblue" stroke="midnightblue" points="283.64,-29.99 281.97,-19.52 276.75,-28.75 283.64,-29.99"/>
</g>
<!-- Node13&#45;&gt;Node8 -->
<g id="edge19" class="edge">
<title>Node13&#45;&gt;Node8</title>
<path fill="none" stroke="midnightblue" d="M254.26,-280.44C275.82,-271.56 309.76,-257.56 334.29,-247.45"/>
<polygon fill="midnightblue" stroke="midnightblue" points="335.93,-250.56 343.84,-243.52 333.26,-244.09 335.93,-250.56"/>
</g>
<!-- Node13&#45;&gt;Node9 -->
<g id="edge20" class="edge">
<title>Node13&#45;&gt;Node9</title>
<path fill="none" stroke="midnightblue" d="M238.68,-280.37C249.52,-262.3 274.79,-220.18 289.12,-196.31"/>
<polygon fill="midnightblue" stroke="midnightblue" points="292.2,-197.97 294.35,-187.59 286.2,-194.37 292.2,-197.97"/>
</g>
<!-- Node13&#45;&gt;Node10 -->
<g id="edge18" class="edge">
<title>Node13&#45;&gt;Node10</title>
<path fill="none" stroke="midnightblue" d="M220.02,-280.25C208.03,-271.97 190.58,-258.67 178.5,-244 151.57,-211.31 130.72,-165.73 120.47,-140.89"/>
<polygon fill="midnightblue" stroke="midnightblue" points="123.72,-139.58 116.75,-131.61 117.23,-142.19 123.72,-139.58"/>
</g>
</g>
</svg>
