<?xml version="1.0" encoding="UTF-8" standalone="no"?>
<!DOCTYPE svg PUBLIC "-//W3C//DTD SVG 1.1//EN"
 "http://www.w3.org/Graphics/SVG/1.1/DTD/svg11.dtd">
<!-- Generated by graphviz version 2.44.1 (20200629.0800)
 -->
<!-- Title: D:/PathTracer/PathTracer/RefractiveMaterial.h Pages: 1 -->
<svg width="728pt" height="374pt"
 viewBox="0.00 0.00 727.70 374.00" xmlns="http://www.w3.org/2000/svg" xmlns:xlink="http://www.w3.org/1999/xlink">
<g id="graph0" class="graph" transform="scale(1 1) rotate(0) translate(4 370)">
<title>D:/PathTracer/PathTracer/RefractiveMaterial.h</title>
<polygon fill="white" stroke="transparent" points="-4,4 -4,-370 723.7,-370 723.7,4 -4,4"/>
<!-- Node1 -->
<g id="node1" class="node">
<title>Node1</title>
<g id="a_node1"><a xlink:title="Defines the RefractiveMaterial class.">
<polygon fill="#bfbfbf" stroke="black" points="500.7,-335.5 500.7,-365.5 627.7,-365.5 627.7,-335.5 500.7,-335.5"/>
<text text-anchor="start" x="508.7" y="-353.5" font-family="Helvetica,sans-Serif" font-size="10.00">D:/PathTracer/PathTracer</text>
<text text-anchor="middle" x="564.2" y="-342.5" font-family="Helvetica,sans-Serif" font-size="10.00">/RefractiveMaterial.h</text>
</a>
</g>
</g>
<!-- Node2 -->
<g id="node2" class="node">
<title>Node2</title>
<g id="a_node2"><a xlink:href="_interface_gestion_8h.html" target="_top" xlink:title="Defines functions that are used when drawing the interface.">
<polygon fill="white" stroke="black" points="270.7,-268.5 270.7,-298.5 397.7,-298.5 397.7,-268.5 270.7,-268.5"/>
<text text-anchor="start" x="278.7" y="-286.5" font-family="Helvetica,sans-Serif" font-size="10.00">D:/PathTracer/PathTracer</text>
<text text-anchor="middle" x="334.2" y="-275.5" font-family="Helvetica,sans-Serif" font-size="10.00">/InterfaceGestion.h</text>
</a>
</g>
</g>
<!-- Node1&#45;&gt;Node2 -->
<g id="edge1" class="edge">
<title>Node1&#45;&gt;Node2</title>
<path fill="none" stroke="midnightblue" d="M504.81,-332.71C467.38,-322.14 419.6,-308.63 384.13,-298.61"/>
<polygon fill="midnightblue" stroke="midnightblue" points="504,-336.12 514.58,-335.48 505.91,-329.39 504,-336.12"/>
</g>
<!-- Node9 -->
<g id="node9" class="node">
<title>Node9</title>
<g id="a_node9"><a xlink:href="_scene_8h.html" target="_top" xlink:title="Defines the Scene class and the functions around it.">
<polygon fill="white" stroke="black" points="343.7,-134.5 343.7,-164.5 470.7,-164.5 470.7,-134.5 343.7,-134.5"/>
<text text-anchor="start" x="351.7" y="-152.5" font-family="Helvetica,sans-Serif" font-size="10.00">D:/PathTracer/PathTracer</text>
<text text-anchor="middle" x="407.2" y="-141.5" font-family="Helvetica,sans-Serif" font-size="10.00">/Scene.h</text>
</a>
</g>
</g>
<!-- Node1&#45;&gt;Node9 -->
<g id="edge17" class="edge">
<title>Node1&#45;&gt;Node9</title>
<path fill="none" stroke="midnightblue" d="M568.2,-325.16C572.03,-293.1 573.63,-236.62 545.2,-201 527.06,-178.27 497.71,-165.77 470.73,-158.89"/>
<polygon fill="midnightblue" stroke="midnightblue" points="564.69,-325.03 566.8,-335.41 571.62,-325.98 564.69,-325.03"/>
</g>
<!-- Node13 -->
<g id="node13" class="node">
<title>Node13</title>
<g id="a_node13"><a xlink:href="_refractive_material_8cpp.html" target="_top" xlink:title=" ">
<polygon fill="white" stroke="black" points="592.7,-268.5 592.7,-298.5 719.7,-298.5 719.7,-268.5 592.7,-268.5"/>
<text text-anchor="start" x="600.7" y="-286.5" font-family="Helvetica,sans-Serif" font-size="10.00">D:/PathTracer/PathTracer</text>
<text text-anchor="middle" x="656.2" y="-275.5" font-family="Helvetica,sans-Serif" font-size="10.00">/RefractiveMaterial.cpp</text>
</a>
</g>
</g>
<!-- Node1&#45;&gt;Node13 -->
<g id="edge16" class="edge">
<title>Node1&#45;&gt;Node13</title>
<path fill="none" stroke="midnightblue" d="M592.58,-329.45C606.73,-319.45 623.51,-307.6 636.28,-298.58"/>
<polygon fill="midnightblue" stroke="midnightblue" points="590.31,-326.77 584.16,-335.4 594.35,-332.48 590.31,-326.77"/>
</g>
<!-- Node3 -->
<g id="node3" class="node">
<title>Node3</title>
<g id="a_node3"><a xlink:href="_interface_8h.html" target="_top" xlink:title="Defines some functions for the interface.">
<polygon fill="white" stroke="black" points="106.7,-67.5 106.7,-97.5 233.7,-97.5 233.7,-67.5 106.7,-67.5"/>
<text text-anchor="start" x="114.7" y="-85.5" font-family="Helvetica,sans-Serif" font-size="10.00">D:/PathTracer/PathTracer</text>
<text text-anchor="middle" x="170.2" y="-74.5" font-family="Helvetica,sans-Serif" font-size="10.00">/Interface.h</text>
</a>
</g>
</g>
<!-- Node2&#45;&gt;Node3 -->
<g id="edge2" class="edge">
<title>Node2&#45;&gt;Node3</title>
<path fill="none" stroke="midnightblue" d="M260.55,-280.26C205.27,-275.86 129.26,-263.86 70.2,-232 33.69,-212.3 20.79,-203.45 5.2,-165 0.03,-152.23 -2.99,-145.08 5.2,-134 28.36,-102.69 70.55,-90.16 106.47,-85.4"/>
<polygon fill="midnightblue" stroke="midnightblue" points="260.39,-283.76 270.62,-281 260.91,-276.78 260.39,-283.76"/>
</g>
<!-- Node6 -->
<g id="node6" class="node">
<title>Node6</title>
<g id="a_node6"><a xlink:href="_interface_gestion_8cpp.html" target="_top" xlink:title=" ">
<polygon fill="white" stroke="black" points="408.7,-201.5 408.7,-231.5 535.7,-231.5 535.7,-201.5 408.7,-201.5"/>
<text text-anchor="start" x="416.7" y="-219.5" font-family="Helvetica,sans-Serif" font-size="10.00">D:/PathTracer/PathTracer</text>
<text text-anchor="middle" x="472.2" y="-208.5" font-family="Helvetica,sans-Serif" font-size="10.00">/InterfaceGestion.cpp</text>
</a>
</g>
</g>
<!-- Node2&#45;&gt;Node6 -->
<g id="edge5" class="edge">
<title>Node2&#45;&gt;Node6</title>
<path fill="none" stroke="midnightblue" d="M373.2,-264.13C395.13,-253.8 422.08,-241.11 442.32,-231.58"/>
<polygon fill="midnightblue" stroke="midnightblue" points="371.7,-260.97 364.15,-268.4 374.68,-267.3 371.7,-260.97"/>
</g>
<!-- Node7 -->
<g id="node7" class="node">
<title>Node7</title>
<g id="a_node7"><a xlink:href="_object3_d_group_8h.html" target="_top" xlink:title="Defines the Object3DGroup class and the functions around it.">
<polygon fill="white" stroke="black" points="79.7,-201.5 79.7,-231.5 206.7,-231.5 206.7,-201.5 79.7,-201.5"/>
<text text-anchor="start" x="87.7" y="-219.5" font-family="Helvetica,sans-Serif" font-size="10.00">D:/PathTracer/PathTracer</text>
<text text-anchor="middle" x="143.2" y="-208.5" font-family="Helvetica,sans-Serif" font-size="10.00">/Object3DGroup.h</text>
</a>
</g>
</g>
<!-- Node2&#45;&gt;Node7 -->
<g id="edge6" class="edge">
<title>Node2&#45;&gt;Node7</title>
<path fill="none" stroke="midnightblue" d="M283.05,-265.09C252.22,-254.6 213.46,-241.41 184.57,-231.58"/>
<polygon fill="midnightblue" stroke="midnightblue" points="282.16,-268.49 292.76,-268.4 284.42,-261.86 282.16,-268.49"/>
</g>
<!-- Node2&#45;&gt;Node9 -->
<g id="edge15" class="edge">
<title>Node2&#45;&gt;Node9</title>
<path fill="none" stroke="midnightblue" d="M346.94,-259.48C362.09,-232.07 386.91,-187.19 399.45,-164.52"/>
<polygon fill="midnightblue" stroke="midnightblue" points="343.79,-257.93 342.01,-268.37 349.92,-261.32 343.79,-257.93"/>
</g>
<!-- Node11 -->
<g id="node11" class="node">
<title>Node11</title>
<g id="a_node11"><a xlink:href="_picture_8h.html" target="_top" xlink:title="Defines the Picture class and the functions around it.">
<polygon fill="white" stroke="black" points="224.7,-201.5 224.7,-231.5 351.7,-231.5 351.7,-201.5 224.7,-201.5"/>
<text text-anchor="start" x="232.7" y="-219.5" font-family="Helvetica,sans-Serif" font-size="10.00">D:/PathTracer/PathTracer</text>
<text text-anchor="middle" x="288.2" y="-208.5" font-family="Helvetica,sans-Serif" font-size="10.00">/Picture.h</text>
</a>
</g>
</g>
<!-- Node2&#45;&gt;Node11 -->
<g id="edge12" class="edge">
<title>Node2&#45;&gt;Node11</title>
<path fill="none" stroke="midnightblue" d="M318.39,-260.16C311.68,-250.68 304.07,-239.92 298.16,-231.58"/>
<polygon fill="midnightblue" stroke="midnightblue" points="315.59,-262.26 324.22,-268.4 321.3,-258.21 315.59,-262.26"/>
</g>
<!-- Node4 -->
<g id="node4" class="node">
<title>Node4</title>
<g id="a_node4"><a xlink:href="_interface_8cpp.html" target="_top" xlink:title=" ">
<polygon fill="white" stroke="black" points="34.7,-0.5 34.7,-30.5 161.7,-30.5 161.7,-0.5 34.7,-0.5"/>
<text text-anchor="start" x="42.7" y="-18.5" font-family="Helvetica,sans-Serif" font-size="10.00">D:/PathTracer/PathTracer</text>
<text text-anchor="middle" x="98.2" y="-7.5" font-family="Helvetica,sans-Serif" font-size="10.00">/Interface.cpp</text>
</a>
</g>
</g>
<!-- Node3&#45;&gt;Node4 -->
<g id="edge3" class="edge">
<title>Node3&#45;&gt;Node4</title>
<path fill="none" stroke="midnightblue" d="M147.05,-60.6C136.18,-50.78 123.51,-39.34 113.79,-30.58"/>
<polygon fill="midnightblue" stroke="midnightblue" points="144.81,-63.29 154.58,-67.4 149.5,-58.1 144.81,-63.29"/>
</g>
<!-- Node5 -->
<g id="node5" class="node">
<title>Node5</title>
<g id="a_node5"><a xlink:href="main_8cpp.html" target="_top" xlink:title=" ">
<polygon fill="white" stroke="black" points="179.7,-0.5 179.7,-30.5 306.7,-30.5 306.7,-0.5 179.7,-0.5"/>
<text text-anchor="start" x="187.7" y="-18.5" font-family="Helvetica,sans-Serif" font-size="10.00">D:/PathTracer/PathTracer</text>
<text text-anchor="middle" x="243.2" y="-7.5" font-family="Helvetica,sans-Serif" font-size="10.00">/main.cpp</text>
</a>
</g>
</g>
<!-- Node3&#45;&gt;Node5 -->
<g id="edge4" class="edge">
<title>Node3&#45;&gt;Node5</title>
<path fill="none" stroke="midnightblue" d="M193.68,-60.6C204.7,-50.78 217.55,-39.34 227.39,-30.58"/>
<polygon fill="midnightblue" stroke="midnightblue" points="191.18,-58.13 186.04,-67.4 195.84,-63.36 191.18,-58.13"/>
</g>
<!-- Node7&#45;&gt;Node3 -->
<g id="edge7" class="edge">
<title>Node7&#45;&gt;Node3</title>
<path fill="none" stroke="midnightblue" d="M148.13,-191.39C153.76,-163.9 162.76,-119.89 167.33,-97.52"/>
<polygon fill="midnightblue" stroke="midnightblue" points="144.67,-190.88 146.09,-201.37 151.52,-192.28 144.67,-190.88"/>
</g>
<!-- Node8 -->
<g id="node8" class="node">
<title>Node8</title>
<g id="a_node8"><a xlink:href="_object3_d_group_8cpp.html" target="_top" xlink:title=" ">
<polygon fill="white" stroke="black" points="14.7,-134.5 14.7,-164.5 141.7,-164.5 141.7,-134.5 14.7,-134.5"/>
<text text-anchor="start" x="22.7" y="-152.5" font-family="Helvetica,sans-Serif" font-size="10.00">D:/PathTracer/PathTracer</text>
<text text-anchor="middle" x="78.2" y="-141.5" font-family="Helvetica,sans-Serif" font-size="10.00">/Object3DGroup.cpp</text>
</a>
</g>
</g>
<!-- Node7&#45;&gt;Node8 -->
<g id="edge8" class="edge">
<title>Node7&#45;&gt;Node8</title>
<path fill="none" stroke="midnightblue" d="M122.01,-194.31C112.26,-184.56 100.96,-173.26 92.28,-164.58"/>
<polygon fill="midnightblue" stroke="midnightblue" points="119.55,-196.8 129.1,-201.4 124.5,-191.85 119.55,-196.8"/>
</g>
<!-- Node7&#45;&gt;Node9 -->
<g id="edge9" class="edge">
<title>Node7&#45;&gt;Node9</title>
<path fill="none" stroke="midnightblue" d="M210.01,-199.05C253.17,-188.43 308.74,-174.74 349.89,-164.61"/>
<polygon fill="midnightblue" stroke="midnightblue" points="209.03,-195.69 200.16,-201.48 210.71,-202.48 209.03,-195.69"/>
</g>
<!-- Node9&#45;&gt;Node3 -->
<g id="edge10" class="edge">
<title>Node9&#45;&gt;Node3</title>
<path fill="none" stroke="midnightblue" d="M346,-131.71C307.43,-121.14 258.2,-107.63 221.65,-97.61"/>
<polygon fill="midnightblue" stroke="midnightblue" points="345.5,-135.21 356.07,-134.48 347.35,-128.46 345.5,-135.21"/>
</g>
<!-- Node10 -->
<g id="node10" class="node">
<title>Node10</title>
<g id="a_node10"><a xlink:href="_scene_8cpp.html" target="_top" xlink:title=" ">
<polygon fill="white" stroke="black" points="343.7,-67.5 343.7,-97.5 470.7,-97.5 470.7,-67.5 343.7,-67.5"/>
<text text-anchor="start" x="351.7" y="-85.5" font-family="Helvetica,sans-Serif" font-size="10.00">D:/PathTracer/PathTracer</text>
<text text-anchor="middle" x="407.2" y="-74.5" font-family="Helvetica,sans-Serif" font-size="10.00">/Scene.cpp</text>
</a>
</g>
</g>
<!-- Node9&#45;&gt;Node10 -->
<g id="edge11" class="edge">
<title>Node9&#45;&gt;Node10</title>
<path fill="none" stroke="midnightblue" d="M407.2,-124.11C407.2,-115.15 407.2,-105.32 407.2,-97.58"/>
<polygon fill="midnightblue" stroke="midnightblue" points="403.7,-124.4 407.2,-134.4 410.7,-124.4 403.7,-124.4"/>
</g>
<!-- Node11&#45;&gt;Node9 -->
<g id="edge14" class="edge">
<title>Node11&#45;&gt;Node9</title>
<path fill="none" stroke="midnightblue" d="M322.85,-196.57C341.57,-186.35 364.29,-173.94 381.43,-164.58"/>
<polygon fill="midnightblue" stroke="midnightblue" points="321.12,-193.53 314.02,-201.4 324.48,-199.67 321.12,-193.53"/>
</g>
<!-- Node12 -->
<g id="node12" class="node">
<title>Node12</title>
<g id="a_node12"><a xlink:href="_picture_8cpp.html" target="_top" xlink:title=" ">
<polygon fill="white" stroke="black" points="198.7,-134.5 198.7,-164.5 325.7,-164.5 325.7,-134.5 198.7,-134.5"/>
<text text-anchor="start" x="206.7" y="-152.5" font-family="Helvetica,sans-Serif" font-size="10.00">D:/PathTracer/PathTracer</text>
<text text-anchor="middle" x="262.2" y="-141.5" font-family="Helvetica,sans-Serif" font-size="10.00">/Picture.cpp</text>
</a>
</g>
</g>
<!-- Node11&#45;&gt;Node12 -->
<g id="edge13" class="edge">
<title>Node11&#45;&gt;Node12</title>
<path fill="none" stroke="midnightblue" d="M278.8,-191.99C275.12,-182.8 271.03,-172.58 267.83,-164.58"/>
<polygon fill="midnightblue" stroke="midnightblue" points="275.6,-193.41 282.56,-201.4 282.1,-190.81 275.6,-193.41"/>
</g>
</g>
</svg>
