<?xml version="1.0" encoding="UTF-8" standalone="no"?>
<!DOCTYPE svg PUBLIC "-//W3C//DTD SVG 1.1//EN"
 "http://www.w3.org/Graphics/SVG/1.1/DTD/svg11.dtd">
<!-- Generated by graphviz version 2.44.1 (20200629.0800)
 -->
<!-- Title: D:/PathTracer/PathTracer/Scene.cpp Pages: 1 -->
<!--zoomable 711 -->
<svg id="main" version="1.1" xmlns="http://www.w3.org/2000/svg" xmlns:xlink="http://www.w3.org/1999/xlink" xml:space="preserve" onload="init(evt)">
<style type="text/css"><![CDATA[
.edge:hover path { stroke: red; }
.edge:hover polygon { stroke: red; fill: red; }
]]></style>
<script type="text/javascript"><![CDATA[
var edges = document.getElementsByTagName('g');
if (edges && edges.length) {
  for (var i=0;i<edges.length;i++) {
    if (edges[i].id.substr(0,4)=='edge') {
      edges[i].setAttribute('class','edge');
    }
  }
}
]]></script>
        <defs>
                <circle id="rim" cx="0" cy="0" r="7"/>
                <circle id="rim2" cx="0" cy="0" r="3.5"/>
                <g id="zoomPlus">
                        <use xlink:href="#rim" fill="#404040">
                                <set attributeName="fill" to="#808080" begin="zoomplus.mouseover" end="zoomplus.mouseout"/>
                        </use>
                        <path d="M-4,0h8M0,-4v8" fill="none" stroke="white" stroke-width="1.5" pointer-events="none"/>
                </g>
                <g id="zoomMin">
                        <use xlink:href="#rim" fill="#404040">
                                <set attributeName="fill" to="#808080" begin="zoomminus.mouseover" end="zoomminus.mouseout"/>
                        </use>
                        <path d="M-4,0h8" fill="none" stroke="white" stroke-width="1.5" pointer-events="none"/>
                </g>
                <g id="dirArrow">
                        <path fill="none" stroke="white" stroke-width="1.5" d="M0,-3.0v7 M-2.5,-0.5L0,-3.0L2.5,-0.5"/>
                </g>
               <g id="resetDef">
                       <use xlink:href="#rim2" fill="#404040">
                               <set attributeName="fill" to="#808080" begin="reset.mouseover" end="reset.mouseout"/>
                       </use>
               </g>
        </defs>

<script type="text/javascript">
var viewWidth = 860;
var viewHeight = 711;
var sectionId = 'dynsection-0';
</script>
<script xlink:href="svgpan.js"/>
<svg id="graph" class="graph">
<g id="viewport">
<title>D:/PathTracer/PathTracer/Scene.cpp</title>
<polygon fill="white" stroke="transparent" points="-4,4 -4,-707 856,-707 856,4 -4,4"/>
<!-- Node1 -->
<g id="node1" class="node">
<title>Node1</title>
<g id="a_node1"><a xlink:title=" ">
<polygon fill="#bfbfbf" stroke="black" points="230.5,-672.5 230.5,-702.5 357.5,-702.5 357.5,-672.5 230.5,-672.5"/>
<text text-anchor="start" x="238.5" y="-690.5" font-family="Helvetica,sans-Serif" font-size="10.00">D:/PathTracer/PathTracer</text>
<text text-anchor="middle" x="294" y="-679.5" font-family="Helvetica,sans-Serif" font-size="10.00">/Scene.cpp</text>
</a>
</g>
</g>
<!-- Node2 -->
<g id="node2" class="node">
<title>Node2</title>
<g id="a_node2"><a xlink:href="_scene_8h.html" target="_top" xlink:title="Defines the Scene class and some functions around it.">
<polygon fill="white" stroke="black" points="267.5,-616.5 267.5,-635.5 320.5,-635.5 320.5,-616.5 267.5,-616.5"/>
<text text-anchor="middle" x="294" y="-623.5" font-family="Helvetica,sans-Serif" font-size="10.00">Scene.h</text>
</a>
</g>
</g>
<!-- Node1&#45;&gt;Node2 -->
<g id="edge1" class="edge">
<title>Node1&#45;&gt;Node2</title>
<path fill="none" stroke="midnightblue" d="M294,-672.4C294,-664.47 294,-654.46 294,-645.86"/>
<polygon fill="midnightblue" stroke="midnightblue" points="297.5,-645.66 294,-635.66 290.5,-645.66 297.5,-645.66"/>
</g>
<!-- Node3 -->
<g id="node3" class="node">
<title>Node3</title>
<g id="a_node3"><a xlink:title=" ">
<polygon fill="white" stroke="#bfbfbf" points="0,-560.5 0,-579.5 44,-579.5 44,-560.5 0,-560.5"/>
<text text-anchor="middle" x="22" y="-567.5" font-family="Helvetica,sans-Serif" font-size="10.00">omp.h</text>
</a>
</g>
</g>
<!-- Node2&#45;&gt;Node3 -->
<g id="edge2" class="edge">
<title>Node2&#45;&gt;Node3</title>
<path fill="none" stroke="midnightblue" d="M267.36,-620.43C223.53,-612.79 133.56,-596.64 58,-580 56.73,-579.72 55.43,-579.43 54.12,-579.13"/>
<polygon fill="midnightblue" stroke="midnightblue" points="54.58,-575.64 44.04,-576.72 52.95,-582.45 54.58,-575.64"/>
</g>
<!-- Node4 -->
<g id="node4" class="node">
<title>Node4</title>
<g id="a_node4"><a xlink:href="_double_matrix33_8h.html" target="_top" xlink:title="Defines the DoubleMatrix33 class and some functions around it.">
<polygon fill="white" stroke="black" points="100,-392.5 100,-411.5 192,-411.5 192,-392.5 100,-392.5"/>
<text text-anchor="middle" x="146" y="-399.5" font-family="Helvetica,sans-Serif" font-size="10.00">DoubleMatrix33.h</text>
</a>
</g>
</g>
<!-- Node2&#45;&gt;Node4 -->
<g id="edge3" class="edge">
<title>Node2&#45;&gt;Node4</title>
<path fill="none" stroke="midnightblue" d="M267.48,-617.43C247.98,-610.6 222.15,-598.7 206,-580 165.41,-533.01 151.98,-457.37 147.78,-422.16"/>
<polygon fill="midnightblue" stroke="midnightblue" points="151.22,-421.45 146.69,-411.88 144.26,-422.19 151.22,-421.45"/>
</g>
<!-- Node13 -->
<g id="node13" class="node">
<title>Node13</title>
<g id="a_node13"><a xlink:title=" ">
<polygon fill="white" stroke="#bfbfbf" points="39.5,-0.5 39.5,-19.5 92.5,-19.5 92.5,-0.5 39.5,-0.5"/>
<text text-anchor="middle" x="66" y="-7.5" font-family="Helvetica,sans-Serif" font-size="10.00">fbxsdk.h</text>
</a>
</g>
</g>
<!-- Node2&#45;&gt;Node13 -->
<g id="edge42" class="edge">
<title>Node2&#45;&gt;Node13</title>
<path fill="none" stroke="midnightblue" d="M267.22,-623.89C208.18,-619.87 72,-601.24 72,-515 72,-515 72,-515 72,-121 72,-88.9 69.42,-51.61 67.64,-29.73"/>
<polygon fill="midnightblue" stroke="midnightblue" points="71.11,-29.22 66.78,-19.55 64.14,-29.81 71.11,-29.22"/>
</g>
<!-- Node15 -->
<g id="node15" class="node">
<title>Node15</title>
<g id="a_node15"><a xlink:href="_k_d_tree_node_8h.html" target="_top" xlink:title="Defines the KDTreeNode class and some functions around it.">
<polygon fill="white" stroke="black" points="358,-560.5 358,-579.5 438,-579.5 438,-560.5 358,-560.5"/>
<text text-anchor="middle" x="398" y="-567.5" font-family="Helvetica,sans-Serif" font-size="10.00">KDTreeNode.h</text>
</a>
</g>
</g>
<!-- Node2&#45;&gt;Node15 -->
<g id="edge14" class="edge">
<title>Node2&#45;&gt;Node15</title>
<path fill="none" stroke="midnightblue" d="M310.71,-616.32C327.31,-607.7 353,-594.36 372.22,-584.39"/>
<polygon fill="midnightblue" stroke="midnightblue" points="374.07,-587.37 381.33,-579.65 370.84,-581.16 374.07,-587.37"/>
</g>
<!-- Node27 -->
<g id="node27" class="node">
<title>Node27</title>
<g id="a_node27"><a xlink:href="_object3_d_group_8h.html" target="_top" xlink:title="Defines the Object3DGroup class and some functions around it.">
<polygon fill="white" stroke="black" points="248,-560.5 248,-579.5 340,-579.5 340,-560.5 248,-560.5"/>
<text text-anchor="middle" x="294" y="-567.5" font-family="Helvetica,sans-Serif" font-size="10.00">Object3DGroup.h</text>
</a>
</g>
</g>
<!-- Node2&#45;&gt;Node27 -->
<g id="edge32" class="edge">
<title>Node2&#45;&gt;Node27</title>
<path fill="none" stroke="midnightblue" d="M294,-616.08C294,-609.01 294,-598.86 294,-589.99"/>
<polygon fill="midnightblue" stroke="midnightblue" points="297.5,-589.75 294,-579.75 290.5,-589.75 297.5,-589.75"/>
</g>
<!-- Node29 -->
<g id="node29" class="node">
<title>Node29</title>
<g id="a_node29"><a xlink:href="_perspective_camera_8h.html" target="_top" xlink:title="Defines the PerspectiveCamera class.">
<polygon fill="white" stroke="black" points="193.5,-280.5 193.5,-299.5 302.5,-299.5 302.5,-280.5 193.5,-280.5"/>
<text text-anchor="middle" x="248" y="-287.5" font-family="Helvetica,sans-Serif" font-size="10.00">PerspectiveCamera.h</text>
</a>
</g>
</g>
<!-- Node2&#45;&gt;Node29 -->
<g id="edge35" class="edge">
<title>Node2&#45;&gt;Node29</title>
<path fill="none" stroke="midnightblue" d="M279.27,-616.5C266.8,-608.57 249.35,-595.64 239,-580 222.39,-554.9 220,-545.1 220,-515 220,-515 220,-515 220,-401 220,-367.79 232.13,-330.63 240.43,-309.12"/>
<polygon fill="midnightblue" stroke="midnightblue" points="243.75,-310.23 244.22,-299.65 237.25,-307.63 243.75,-310.23"/>
</g>
<!-- Node30 -->
<g id="node30" class="node">
<title>Node30</title>
<g id="a_node30"><a xlink:href="_picture_8h.html" target="_top" xlink:title="Defines the Picture class and some functions around it.">
<polygon fill="white" stroke="black" points="456,-560.5 456,-579.5 512,-579.5 512,-560.5 456,-560.5"/>
<text text-anchor="middle" x="484" y="-567.5" font-family="Helvetica,sans-Serif" font-size="10.00">Picture.h</text>
</a>
</g>
</g>
<!-- Node2&#45;&gt;Node30 -->
<g id="edge37" class="edge">
<title>Node2&#45;&gt;Node30</title>
<path fill="none" stroke="midnightblue" d="M320.82,-617.38C353.45,-608.1 408.77,-592.38 445.83,-581.85"/>
<polygon fill="midnightblue" stroke="midnightblue" points="447.11,-585.12 455.77,-579.02 445.19,-578.39 447.11,-585.12"/>
</g>
<!-- Node34 -->
<g id="node34" class="node">
<title>Node34</title>
<g id="a_node34"><a xlink:title=" ">
<polygon fill="white" stroke="#bfbfbf" points="530,-560.5 530,-579.5 664,-579.5 664,-560.5 530,-560.5"/>
<text text-anchor="middle" x="597" y="-567.5" font-family="Helvetica,sans-Serif" font-size="10.00">fbxsdk/fileio/fbxiosettings.h</text>
</a>
</g>
</g>
<!-- Node2&#45;&gt;Node34 -->
<g id="edge43" class="edge">
<title>Node2&#45;&gt;Node34</title>
<path fill="none" stroke="midnightblue" d="M320.62,-620.26C369.22,-611.59 473.32,-593.04 538.97,-581.34"/>
<polygon fill="midnightblue" stroke="midnightblue" points="539.93,-584.73 549.16,-579.53 538.71,-577.83 539.93,-584.73"/>
</g>
<!-- Node35 -->
<g id="node35" class="node">
<title>Node35</title>
<g id="a_node35"><a xlink:title=" ">
<polygon fill="white" stroke="#bfbfbf" points="682,-560.5 682,-579.5 852,-579.5 852,-560.5 682,-560.5"/>
<text text-anchor="middle" x="767" y="-567.5" font-family="Helvetica,sans-Serif" font-size="10.00">fbxsdk/utils/fbxgeometryconverter.h</text>
</a>
</g>
</g>
<!-- Node2&#45;&gt;Node35 -->
<g id="edge44" class="edge">
<title>Node2&#45;&gt;Node35</title>
<path fill="none" stroke="midnightblue" d="M320.79,-621.94C389.29,-614.12 573.17,-593.13 682.32,-580.67"/>
<polygon fill="midnightblue" stroke="midnightblue" points="682.78,-584.14 692.31,-579.53 681.98,-577.18 682.78,-584.14"/>
</g>
<!-- Node5 -->
<g id="node5" class="node">
<title>Node5</title>
<g id="a_node5"><a xlink:href="_double_vec3_d_8h.html" target="_top" xlink:title="Defines the DoubleVec3D class and some functions around it.">
<polygon fill="white" stroke="black" points="207,-112.5 207,-131.5 291,-131.5 291,-112.5 207,-112.5"/>
<text text-anchor="middle" x="249" y="-119.5" font-family="Helvetica,sans-Serif" font-size="10.00">DoubleVec3D.h</text>
</a>
</g>
</g>
<!-- Node4&#45;&gt;Node5 -->
<g id="edge4" class="edge">
<title>Node4&#45;&gt;Node5</title>
<path fill="none" stroke="midnightblue" d="M146.78,-392.45C148.41,-373.96 152,-328.87 152,-291 152,-291 152,-291 152,-233 152,-189.35 195.51,-154.83 224.24,-136.79"/>
<polygon fill="midnightblue" stroke="midnightblue" points="226.23,-139.68 232.98,-131.52 222.61,-133.68 226.23,-139.68"/>
</g>
<!-- Node6 -->
<g id="node6" class="node">
<title>Node6</title>
<g id="a_node6"><a xlink:href="_interface_gestion_8h.html" target="_top" xlink:title="Defines functions that are used when drawing the interface.">
<polygon fill="white" stroke="black" points="226.5,-56.5 226.5,-75.5 321.5,-75.5 321.5,-56.5 226.5,-56.5"/>
<text text-anchor="middle" x="274" y="-63.5" font-family="Helvetica,sans-Serif" font-size="10.00">InterfaceGestion.h</text>
</a>
</g>
</g>
<!-- Node5&#45;&gt;Node6 -->
<g id="edge5" class="edge">
<title>Node5&#45;&gt;Node6</title>
<path fill="none" stroke="midnightblue" d="M253.13,-112.08C256.51,-104.77 261.42,-94.18 265.62,-85.1"/>
<polygon fill="midnightblue" stroke="midnightblue" points="268.92,-86.3 269.95,-75.75 262.57,-83.36 268.92,-86.3"/>
</g>
<!-- Node7 -->
<g id="node7" class="node">
<title>Node7</title>
<g id="a_node7"><a xlink:title=" ">
<polygon fill="white" stroke="#bfbfbf" points="512,-0.5 512,-19.5 558,-19.5 558,-0.5 512,-0.5"/>
<text text-anchor="middle" x="535" y="-7.5" font-family="Helvetica,sans-Serif" font-size="10.00">chrono</text>
</a>
</g>
</g>
<!-- Node6&#45;&gt;Node7 -->
<g id="edge6" class="edge">
<title>Node6&#45;&gt;Node7</title>
<path fill="none" stroke="midnightblue" d="M321.61,-56.79C365.91,-48.9 433.98,-36.12 501.96,-20.1"/>
<polygon fill="midnightblue" stroke="midnightblue" points="503.07,-23.43 511.99,-17.71 501.45,-16.62 503.07,-23.43"/>
</g>
<!-- Node8 -->
<g id="node8" class="node">
<title>Node8</title>
<g id="a_node8"><a xlink:title=" ">
<polygon fill="white" stroke="#bfbfbf" points="576.5,-0.5 576.5,-19.5 625.5,-19.5 625.5,-0.5 576.5,-0.5"/>
<text text-anchor="middle" x="601" y="-7.5" font-family="Helvetica,sans-Serif" font-size="10.00">fstream</text>
</a>
</g>
</g>
<!-- Node6&#45;&gt;Node8 -->
<g id="edge7" class="edge">
<title>Node6&#45;&gt;Node8</title>
<path fill="none" stroke="midnightblue" d="M321.73,-59.26C377.9,-52.14 474.16,-38.86 566.15,-19.98"/>
<polygon fill="midnightblue" stroke="midnightblue" points="567.11,-23.36 576.19,-17.89 565.69,-16.5 567.11,-23.36"/>
</g>
<!-- Node9 -->
<g id="node9" class="node">
<title>Node9</title>
<g id="a_node9"><a xlink:title=" ">
<polygon fill="white" stroke="#bfbfbf" points="110.5,-0.5 110.5,-19.5 159.5,-19.5 159.5,-0.5 110.5,-0.5"/>
<text text-anchor="middle" x="135" y="-7.5" font-family="Helvetica,sans-Serif" font-size="10.00">random</text>
</a>
</g>
</g>
<!-- Node6&#45;&gt;Node9 -->
<g id="edge8" class="edge">
<title>Node6&#45;&gt;Node9</title>
<path fill="none" stroke="midnightblue" d="M251.98,-56.44C228.9,-47.48 192.44,-33.31 166.36,-23.18"/>
<polygon fill="midnightblue" stroke="midnightblue" points="167.51,-19.88 156.92,-19.52 164.98,-26.4 167.51,-19.88"/>
</g>
<!-- Node10 -->
<g id="node10" class="node">
<title>Node10</title>
<g id="a_node10"><a xlink:title=" ">
<polygon fill="white" stroke="#bfbfbf" points="178,-0.5 178,-19.5 232,-19.5 232,-0.5 178,-0.5"/>
<text text-anchor="middle" x="205" y="-7.5" font-family="Helvetica,sans-Serif" font-size="10.00">iostream</text>
</a>
</g>
</g>
<!-- Node6&#45;&gt;Node10 -->
<g id="edge9" class="edge">
<title>Node6&#45;&gt;Node10</title>
<path fill="none" stroke="midnightblue" d="M262.91,-56.32C252.51,-48.18 236.74,-35.84 224.28,-26.09"/>
<polygon fill="midnightblue" stroke="midnightblue" points="226.32,-23.24 216.29,-19.83 222.01,-28.75 226.32,-23.24"/>
</g>
<!-- Node11 -->
<g id="node11" class="node">
<title>Node11</title>
<g id="a_node11"><a xlink:title=" ">
<polygon fill="white" stroke="#bfbfbf" points="250.5,-0.5 250.5,-19.5 297.5,-19.5 297.5,-0.5 250.5,-0.5"/>
<text text-anchor="middle" x="274" y="-7.5" font-family="Helvetica,sans-Serif" font-size="10.00">math.h</text>
</a>
</g>
</g>
<!-- Node6&#45;&gt;Node11 -->
<g id="edge10" class="edge">
<title>Node6&#45;&gt;Node11</title>
<path fill="none" stroke="midnightblue" d="M274,-56.08C274,-49.01 274,-38.86 274,-29.99"/>
<polygon fill="midnightblue" stroke="midnightblue" points="277.5,-29.75 274,-19.75 270.5,-29.75 277.5,-29.75"/>
</g>
<!-- Node12 -->
<g id="node12" class="node">
<title>Node12</title>
<g id="a_node12"><a xlink:title=" ">
<polygon fill="white" stroke="#bfbfbf" points="316,-0.5 316,-19.5 414,-19.5 414,-0.5 316,-0.5"/>
<text text-anchor="middle" x="365" y="-7.5" font-family="Helvetica,sans-Serif" font-size="10.00">nlohmann/json.hpp</text>
</a>
</g>
</g>
<!-- Node6&#45;&gt;Node12 -->
<g id="edge11" class="edge">
<title>Node6&#45;&gt;Node12</title>
<path fill="none" stroke="midnightblue" d="M288.62,-56.32C302.95,-47.82 325.01,-34.73 341.75,-24.8"/>
<polygon fill="midnightblue" stroke="midnightblue" points="343.6,-27.77 350.42,-19.65 340.03,-21.75 343.6,-27.77"/>
</g>
<!-- Node6&#45;&gt;Node13 -->
<g id="edge12" class="edge">
<title>Node6&#45;&gt;Node13</title>
<path fill="none" stroke="midnightblue" d="M241.04,-56.44C203.29,-46.64 141.62,-30.63 102.46,-20.47"/>
<polygon fill="midnightblue" stroke="midnightblue" points="103.09,-17.01 92.53,-17.89 101.33,-23.79 103.09,-17.01"/>
</g>
<!-- Node14 -->
<g id="node14" class="node">
<title>Node14</title>
<g id="a_node14"><a xlink:title=" ">
<polygon fill="white" stroke="#bfbfbf" points="432,-0.5 432,-19.5 494,-19.5 494,-0.5 432,-0.5"/>
<text text-anchor="middle" x="463" y="-7.5" font-family="Helvetica,sans-Serif" font-size="10.00">windows.h</text>
</a>
</g>
</g>
<!-- Node6&#45;&gt;Node14 -->
<g id="edge13" class="edge">
<title>Node6&#45;&gt;Node14</title>
<path fill="none" stroke="midnightblue" d="M303.95,-56.44C336.16,-47.24 387.53,-32.56 423.14,-22.39"/>
<polygon fill="midnightblue" stroke="midnightblue" points="424.54,-25.63 433.19,-19.52 422.62,-18.9 424.54,-25.63"/>
</g>
<!-- Node16 -->
<g id="node16" class="node">
<title>Node16</title>
<g id="a_node16"><a xlink:href="_interface_creation_8h.html" target="_top" xlink:title="Defines functions that are used to ask for values to the user, and to interactively create 3D objects...">
<polygon fill="white" stroke="black" points="343,-504.5 343,-523.5 441,-523.5 441,-504.5 343,-504.5"/>
<text text-anchor="middle" x="392" y="-511.5" font-family="Helvetica,sans-Serif" font-size="10.00">InterfaceCreation.h</text>
</a>
</g>
</g>
<!-- Node15&#45;&gt;Node16 -->
<g id="edge15" class="edge">
<title>Node15&#45;&gt;Node16</title>
<path fill="none" stroke="midnightblue" d="M397.01,-560.08C396.21,-552.93 395.07,-542.64 394.08,-533.69"/>
<polygon fill="midnightblue" stroke="midnightblue" points="397.56,-533.3 392.97,-523.75 390.6,-534.08 397.56,-533.3"/>
</g>
<!-- Node17 -->
<g id="node17" class="node">
<title>Node17</title>
<g id="a_node17"><a xlink:href="_diffuse_material_8h.html" target="_top" xlink:title="Defines the DiffuseMaterial class.">
<polygon fill="white" stroke="black" points="366.5,-336.5 366.5,-355.5 455.5,-355.5 455.5,-336.5 366.5,-336.5"/>
<text text-anchor="middle" x="411" y="-343.5" font-family="Helvetica,sans-Serif" font-size="10.00">DiffuseMaterial.h</text>
</a>
</g>
</g>
<!-- Node16&#45;&gt;Node17 -->
<g id="edge16" class="edge">
<title>Node16&#45;&gt;Node17</title>
<path fill="none" stroke="midnightblue" d="M413.81,-504.45C428.94,-497.22 447.95,-485.26 457,-468 475.76,-432.19 445.44,-386.95 425.75,-363.22"/>
<polygon fill="midnightblue" stroke="midnightblue" points="428.27,-360.79 419.09,-355.51 422.98,-365.37 428.27,-360.79"/>
</g>
<!-- Node21 -->
<g id="node21" class="node">
<title>Node21</title>
<g id="a_node21"><a xlink:href="_refractive_material_8h.html" target="_top" xlink:title="Defines the RefractiveMaterial class.">
<polygon fill="white" stroke="black" points="473.5,-336.5 473.5,-355.5 574.5,-355.5 574.5,-336.5 473.5,-336.5"/>
<text text-anchor="middle" x="524" y="-343.5" font-family="Helvetica,sans-Serif" font-size="10.00">RefractiveMaterial.h</text>
</a>
</g>
</g>
<!-- Node16&#45;&gt;Node21 -->
<g id="edge22" class="edge">
<title>Node16&#45;&gt;Node21</title>
<path fill="none" stroke="midnightblue" d="M416.43,-504.45C434.16,-497.16 457.64,-485.12 473,-468 500.05,-437.85 514.12,-391.25 520.2,-365.57"/>
<polygon fill="midnightblue" stroke="midnightblue" points="523.65,-366.18 522.39,-355.66 516.81,-364.67 523.65,-366.18"/>
</g>
<!-- Node22 -->
<g id="node22" class="node">
<title>Node22</title>
<g id="a_node22"><a xlink:href="_specular_material_8h.html" target="_top" xlink:title="Defines the SpecularMaterial class.">
<polygon fill="white" stroke="black" points="248,-392.5 248,-411.5 346,-411.5 346,-392.5 248,-392.5"/>
<text text-anchor="middle" x="297" y="-399.5" font-family="Helvetica,sans-Serif" font-size="10.00">SpecularMaterial.h</text>
</a>
</g>
</g>
<!-- Node16&#45;&gt;Node22 -->
<g id="edge24" class="edge">
<title>Node16&#45;&gt;Node22</title>
<path fill="none" stroke="midnightblue" d="M360.02,-504.36C341.26,-497.59 318.8,-486.19 306,-468 296.68,-454.75 294.94,-436.17 295.23,-422.26"/>
<polygon fill="midnightblue" stroke="midnightblue" points="298.74,-422.09 295.83,-411.9 291.76,-421.68 298.74,-422.09"/>
</g>
<!-- Node23 -->
<g id="node23" class="node">
<title>Node23</title>
<g id="a_node23"><a xlink:href="_triangle_8h.html" target="_top" xlink:title="Defines the Triangle class.">
<polygon fill="white" stroke="black" points="314.5,-448.5 314.5,-467.5 373.5,-467.5 373.5,-448.5 314.5,-448.5"/>
<text text-anchor="middle" x="344" y="-455.5" font-family="Helvetica,sans-Serif" font-size="10.00">Triangle.h</text>
</a>
</g>
</g>
<!-- Node16&#45;&gt;Node23 -->
<g id="edge26" class="edge">
<title>Node16&#45;&gt;Node23</title>
<path fill="none" stroke="midnightblue" d="M384.07,-504.08C377.15,-496.3 366.93,-484.8 358.55,-475.37"/>
<polygon fill="midnightblue" stroke="midnightblue" points="361.04,-472.9 351.78,-467.75 355.81,-477.55 361.04,-472.9"/>
</g>
<!-- Node26 -->
<g id="node26" class="node">
<title>Node26</title>
<g id="a_node26"><a xlink:href="_sphere_8h.html" target="_top" xlink:title="Defines the Sphere class.">
<polygon fill="white" stroke="black" points="392,-448.5 392,-467.5 448,-467.5 448,-448.5 392,-448.5"/>
<text text-anchor="middle" x="420" y="-455.5" font-family="Helvetica,sans-Serif" font-size="10.00">Sphere.h</text>
</a>
</g>
</g>
<!-- Node16&#45;&gt;Node26 -->
<g id="edge30" class="edge">
<title>Node16&#45;&gt;Node26</title>
<path fill="none" stroke="midnightblue" d="M396.62,-504.08C400.46,-496.69 406.02,-485.95 410.76,-476.81"/>
<polygon fill="midnightblue" stroke="midnightblue" points="413.97,-478.24 415.46,-467.75 407.75,-475.02 413.97,-478.24"/>
</g>
<!-- Node18 -->
<g id="node18" class="node">
<title>Node18</title>
<g id="a_node18"><a xlink:href="_material_8h.html" target="_top" xlink:title="Defines the Material class and some functions around it.">
<polygon fill="white" stroke="black" points="354.5,-280.5 354.5,-299.5 413.5,-299.5 413.5,-280.5 354.5,-280.5"/>
<text text-anchor="middle" x="384" y="-287.5" font-family="Helvetica,sans-Serif" font-size="10.00">Material.h</text>
</a>
</g>
</g>
<!-- Node17&#45;&gt;Node18 -->
<g id="edge17" class="edge">
<title>Node17&#45;&gt;Node18</title>
<path fill="none" stroke="midnightblue" d="M406.54,-336.08C402.85,-328.69 397.48,-317.95 392.91,-308.81"/>
<polygon fill="midnightblue" stroke="midnightblue" points="395.98,-307.13 388.38,-299.75 389.72,-310.26 395.98,-307.13"/>
</g>
<!-- Node19 -->
<g id="node19" class="node">
<title>Node19</title>
<g id="a_node19"><a xlink:href="_ray_8h.html" target="_top" xlink:title="Defines the Ray class.">
<polygon fill="white" stroke="black" points="233,-224.5 233,-243.5 275,-243.5 275,-224.5 233,-224.5"/>
<text text-anchor="middle" x="254" y="-231.5" font-family="Helvetica,sans-Serif" font-size="10.00">Ray.h</text>
</a>
</g>
</g>
<!-- Node18&#45;&gt;Node19 -->
<g id="edge18" class="edge">
<title>Node18&#45;&gt;Node19</title>
<path fill="none" stroke="midnightblue" d="M363.4,-280.44C342.01,-271.56 308.32,-257.56 283.98,-247.45"/>
<polygon fill="midnightblue" stroke="midnightblue" points="285.08,-244.12 274.5,-243.52 282.39,-250.58 285.08,-244.12"/>
</g>
<!-- Node19&#45;&gt;Node5 -->
<g id="edge19" class="edge">
<title>Node19&#45;&gt;Node5</title>
<path fill="none" stroke="midnightblue" d="M269.64,-224.43C288.68,-212.78 317.03,-190.76 306,-168 299.6,-154.8 287.25,-144.3 275.67,-136.78"/>
<polygon fill="midnightblue" stroke="midnightblue" points="277.45,-133.77 267.08,-131.61 273.84,-139.77 277.45,-133.77"/>
</g>
<!-- Node20 -->
<g id="node20" class="node">
<title>Node20</title>
<g id="a_node20"><a xlink:href="_double_unit_vec3_d_8h.html" target="_top" xlink:title="Defines the DoubleUnitVec3D class and some functions around it.">
<polygon fill="white" stroke="black" points="195.5,-168.5 195.5,-187.5 296.5,-187.5 296.5,-168.5 195.5,-168.5"/>
<text text-anchor="middle" x="246" y="-175.5" font-family="Helvetica,sans-Serif" font-size="10.00">DoubleUnitVec3D.h</text>
</a>
</g>
</g>
<!-- Node19&#45;&gt;Node20 -->
<g id="edge20" class="edge">
<title>Node19&#45;&gt;Node20</title>
<path fill="none" stroke="midnightblue" d="M252.68,-224.08C251.62,-216.93 250.09,-206.64 248.77,-197.69"/>
<polygon fill="midnightblue" stroke="midnightblue" points="252.22,-197.13 247.3,-187.75 245.3,-198.16 252.22,-197.13"/>
</g>
<!-- Node20&#45;&gt;Node5 -->
<g id="edge21" class="edge">
<title>Node20&#45;&gt;Node5</title>
<path fill="none" stroke="midnightblue" d="M246.5,-168.08C246.89,-161.01 247.45,-150.86 247.95,-141.99"/>
<polygon fill="midnightblue" stroke="midnightblue" points="251.45,-141.93 248.51,-131.75 244.46,-141.54 251.45,-141.93"/>
</g>
<!-- Node21&#45;&gt;Node18 -->
<g id="edge23" class="edge">
<title>Node21&#45;&gt;Node18</title>
<path fill="none" stroke="midnightblue" d="M501.82,-336.44C478.57,-327.48 441.85,-313.31 415.58,-303.18"/>
<polygon fill="midnightblue" stroke="midnightblue" points="416.67,-299.85 406.08,-299.52 414.15,-306.38 416.67,-299.85"/>
</g>
<!-- Node22&#45;&gt;Node18 -->
<g id="edge25" class="edge">
<title>Node22&#45;&gt;Node18</title>
<path fill="none" stroke="midnightblue" d="M294.68,-392.22C291.71,-378.93 288.13,-353.44 299,-336 309.19,-319.65 327.45,-308.9 344.45,-302.02"/>
<polygon fill="midnightblue" stroke="midnightblue" points="346.07,-305.15 354.24,-298.4 343.65,-298.59 346.07,-305.15"/>
</g>
<!-- Node24 -->
<g id="node24" class="node">
<title>Node24</title>
<g id="a_node24"><a xlink:href="_object3_d_8h.html" target="_top" xlink:title="Defines the Object3D class and some functions around it.">
<polygon fill="white" stroke="black" points="371.5,-392.5 371.5,-411.5 436.5,-411.5 436.5,-392.5 371.5,-392.5"/>
<text text-anchor="middle" x="404" y="-399.5" font-family="Helvetica,sans-Serif" font-size="10.00">Object3D.h</text>
</a>
</g>
</g>
<!-- Node23&#45;&gt;Node24 -->
<g id="edge27" class="edge">
<title>Node23&#45;&gt;Node24</title>
<path fill="none" stroke="midnightblue" d="M353.64,-448.32C362.51,-440.34 375.87,-428.31 386.61,-418.65"/>
<polygon fill="midnightblue" stroke="midnightblue" points="389.09,-421.13 394.18,-411.83 384.41,-415.92 389.09,-421.13"/>
</g>
<!-- Node24&#45;&gt;Node17 -->
<g id="edge29" class="edge">
<title>Node24&#45;&gt;Node17</title>
<path fill="none" stroke="midnightblue" d="M405.16,-392.08C406.08,-384.93 407.42,-374.64 408.58,-365.69"/>
<polygon fill="midnightblue" stroke="midnightblue" points="412.05,-366.12 409.87,-355.75 405.11,-365.22 412.05,-366.12"/>
</g>
<!-- Node25 -->
<g id="node25" class="node">
<title>Node25</title>
<g id="a_node25"><a xlink:title=" ">
<polygon fill="white" stroke="#bfbfbf" points="307.5,-336.5 307.5,-355.5 348.5,-355.5 348.5,-336.5 307.5,-336.5"/>
<text text-anchor="middle" x="328" y="-343.5" font-family="Helvetica,sans-Serif" font-size="10.00">string</text>
</a>
</g>
</g>
<!-- Node24&#45;&gt;Node25 -->
<g id="edge28" class="edge">
<title>Node24&#45;&gt;Node25</title>
<path fill="none" stroke="midnightblue" d="M391.79,-392.32C380.22,-384.11 362.62,-371.6 348.84,-361.81"/>
<polygon fill="midnightblue" stroke="midnightblue" points="350.61,-358.77 340.43,-355.83 346.56,-364.48 350.61,-358.77"/>
</g>
<!-- Node26&#45;&gt;Node24 -->
<g id="edge31" class="edge">
<title>Node26&#45;&gt;Node24</title>
<path fill="none" stroke="midnightblue" d="M417.36,-448.08C415.21,-440.85 412.12,-430.41 409.45,-421.4"/>
<polygon fill="midnightblue" stroke="midnightblue" points="412.79,-420.34 406.59,-411.75 406.08,-422.33 412.79,-420.34"/>
</g>
<!-- Node27&#45;&gt;Node16 -->
<g id="edge34" class="edge">
<title>Node27&#45;&gt;Node16</title>
<path fill="none" stroke="midnightblue" d="M309.75,-560.32C325.32,-551.74 349.38,-538.49 367.46,-528.52"/>
<polygon fill="midnightblue" stroke="midnightblue" points="369.22,-531.55 376.29,-523.65 365.85,-525.42 369.22,-531.55"/>
</g>
<!-- Node28 -->
<g id="node28" class="node">
<title>Node28</title>
<g id="a_node28"><a xlink:title=" ">
<polygon fill="white" stroke="#bfbfbf" points="273,-504.5 273,-523.5 315,-523.5 315,-504.5 273,-504.5"/>
<text text-anchor="middle" x="294" y="-511.5" font-family="Helvetica,sans-Serif" font-size="10.00">vector</text>
</a>
</g>
</g>
<!-- Node27&#45;&gt;Node28 -->
<g id="edge33" class="edge">
<title>Node27&#45;&gt;Node28</title>
<path fill="none" stroke="midnightblue" d="M294,-560.08C294,-553.01 294,-542.86 294,-533.99"/>
<polygon fill="midnightblue" stroke="midnightblue" points="297.5,-533.75 294,-523.75 290.5,-533.75 297.5,-533.75"/>
</g>
<!-- Node29&#45;&gt;Node19 -->
<g id="edge36" class="edge">
<title>Node29&#45;&gt;Node19</title>
<path fill="none" stroke="midnightblue" d="M248.99,-280.08C249.79,-272.93 250.93,-262.64 251.92,-253.69"/>
<polygon fill="midnightblue" stroke="midnightblue" points="255.4,-254.08 253.03,-243.75 248.44,-253.3 255.4,-254.08"/>
</g>
<!-- Node30&#45;&gt;Node16 -->
<g id="edge41" class="edge">
<title>Node30&#45;&gt;Node16</title>
<path fill="none" stroke="midnightblue" d="M469.22,-560.32C454.73,-551.82 432.43,-538.73 415.51,-528.8"/>
<polygon fill="midnightblue" stroke="midnightblue" points="417.14,-525.7 406.74,-523.65 413.6,-531.74 417.14,-525.7"/>
</g>
<!-- Node31 -->
<g id="node31" class="node">
<title>Node31</title>
<g id="a_node31"><a xlink:title=" ">
<polygon fill="white" stroke="#bfbfbf" points="619,-504.5 619,-523.5 675,-523.5 675,-504.5 619,-504.5"/>
<text text-anchor="middle" x="647" y="-511.5" font-family="Helvetica,sans-Serif" font-size="10.00">algorithm</text>
</a>
</g>
</g>
<!-- Node30&#45;&gt;Node31 -->
<g id="edge38" class="edge">
<title>Node30&#45;&gt;Node31</title>
<path fill="none" stroke="midnightblue" d="M509.83,-560.44C537.25,-551.36 580.78,-536.94 611.43,-526.78"/>
<polygon fill="midnightblue" stroke="midnightblue" points="612.9,-529.98 621.29,-523.52 610.7,-523.34 612.9,-529.98"/>
</g>
<!-- Node32 -->
<g id="node32" class="node">
<title>Node32</title>
<g id="a_node32"><a xlink:title=" ">
<polygon fill="white" stroke="#bfbfbf" points="459,-504.5 459,-523.5 509,-523.5 509,-504.5 459,-504.5"/>
<text text-anchor="middle" x="484" y="-511.5" font-family="Helvetica,sans-Serif" font-size="10.00">iomanip</text>
</a>
</g>
</g>
<!-- Node30&#45;&gt;Node32 -->
<g id="edge39" class="edge">
<title>Node30&#45;&gt;Node32</title>
<path fill="none" stroke="midnightblue" d="M484,-560.08C484,-553.01 484,-542.86 484,-533.99"/>
<polygon fill="midnightblue" stroke="midnightblue" points="487.5,-533.75 484,-523.75 480.5,-533.75 487.5,-533.75"/>
</g>
<!-- Node33 -->
<g id="node33" class="node">
<title>Node33</title>
<g id="a_node33"><a xlink:title=" ">
<polygon fill="white" stroke="#bfbfbf" points="527.5,-504.5 527.5,-523.5 600.5,-523.5 600.5,-504.5 527.5,-504.5"/>
<text text-anchor="middle" x="564" y="-511.5" font-family="Helvetica,sans-Serif" font-size="10.00">CImg/CImg.h</text>
</a>
</g>
</g>
<!-- Node30&#45;&gt;Node33 -->
<g id="edge40" class="edge">
<title>Node30&#45;&gt;Node33</title>
<path fill="none" stroke="midnightblue" d="M496.85,-560.32C509.22,-551.98 528.13,-539.21 542.74,-529.35"/>
<polygon fill="midnightblue" stroke="midnightblue" points="544.85,-532.15 551.18,-523.65 540.93,-526.35 544.85,-532.15"/>
</g>
</g>
</svg>
        <g id="navigator" transform="translate(0 0)" fill="#404254">
                <rect fill="#f2f5e9" fill-opacity="0.5" stroke="#606060" stroke-width=".5" x="0" y="0" width="60" height="60"/>
                <use id="zoomplus" xlink:href="#zoomPlus" x="17" y="9" onmousedown="handleZoom(evt,'in')"/>
                <use id="zoomminus" xlink:href="#zoomMin" x="42" y="9" onmousedown="handleZoom(evt,'out')"/>
                <use id="reset" xlink:href="#resetDef" x="30" y="36" onmousedown="handleReset()"/>
                <g id="arrowUp" xlink:href="#dirArrow" transform="translate(30 24)" onmousedown="handlePan(0,-1)">
                  <use xlink:href="#rim" fill="#404040">
                        <set attributeName="fill" to="#808080" begin="arrowUp.mouseover" end="arrowUp.mouseout"/>
                  </use>
                  <path fill="none" stroke="white" stroke-width="1.5" d="M0,-3.0v7 M-2.5,-0.5L0,-3.0L2.5,-0.5"/>
                </g>
                <g id="arrowRight" xlink:href="#dirArrow" transform="rotate(90) translate(36 -43)" onmousedown="handlePan(1,0)">
                  <use xlink:href="#rim" fill="#404040">
                        <set attributeName="fill" to="#808080" begin="arrowRight.mouseover" end="arrowRight.mouseout"/>
                  </use>
                  <path fill="none" stroke="white" stroke-width="1.5" d="M0,-3.0v7 M-2.5,-0.5L0,-3.0L2.5,-0.5"/>
                </g>
                <g id="arrowDown" xlink:href="#dirArrow" transform="rotate(180) translate(-30 -48)" onmousedown="handlePan(0,1)">
                  <use xlink:href="#rim" fill="#404040">
                        <set attributeName="fill" to="#808080" begin="arrowDown.mouseover" end="arrowDown.mouseout"/>
                  </use>
                  <path fill="none" stroke="white" stroke-width="1.5" d="M0,-3.0v7 M-2.5,-0.5L0,-3.0L2.5,-0.5"/>
                </g>
                <g id="arrowLeft" xlink:href="#dirArrow" transform="rotate(270) translate(-36 17)" onmousedown="handlePan(-1,0)">
                  <use xlink:href="#rim" fill="#404040">
                        <set attributeName="fill" to="#808080" begin="arrowLeft.mouseover" end="arrowLeft.mouseout"/>
                  </use>
                  <path fill="none" stroke="white" stroke-width="1.5" d="M0,-3.0v7 M-2.5,-0.5L0,-3.0L2.5,-0.5"/>
                </g>
        </g>
        <svg viewBox="0 0 15 15" width="100%" height="30px" preserveAspectRatio="xMaxYMin meet">
         <g id="arrow_out" transform="scale(0.3 0.3)">
          <a xlink:href="_scene_8cpp__incl_org.svg" target="_base">
           <rect id="button" ry="5" rx="5" y="6" x="6" height="38" width="38"
                fill="#f2f5e9" fill-opacity="0.5" stroke="#606060" stroke-width="1.0"/>
           <path id="arrow"
             d="M 11.500037,31.436501 C 11.940474,20.09759 22.043105,11.32322 32.158766,21.979434 L 37.068811,17.246167 C 37.068811,17.246167 37.088388,32 37.088388,32 L 22.160133,31.978069 C 22.160133,31.978069 26.997745,27.140456 26.997745,27.140456 C 18.528582,18.264221 13.291696,25.230495 11.500037,31.436501 z"
             style="fill:#404040;"/>
          </a>
         </g>
        </svg>
</svg>
