<?xml version="1.0" encoding="UTF-8" standalone="no"?>
<!DOCTYPE svg PUBLIC "-//W3C//DTD SVG 1.1//EN"
 "http://www.w3.org/Graphics/SVG/1.1/DTD/svg11.dtd">
<!-- Generated by graphviz version 2.44.1 (20200629.0800)
 -->
<!-- Title: D:/PathTracer/PathTracer/Scene.h Pages: 1 -->
<!--zoomable 655 -->
<svg id="main" version="1.1" xmlns="http://www.w3.org/2000/svg" xmlns:xlink="http://www.w3.org/1999/xlink" xml:space="preserve" onload="init(evt)">
<style type="text/css"><![CDATA[
.edge:hover path { stroke: red; }
.edge:hover polygon { stroke: red; fill: red; }
]]></style>
<script type="text/javascript"><![CDATA[
var edges = document.getElementsByTagName('g');
if (edges && edges.length) {
  for (var i=0;i<edges.length;i++) {
    if (edges[i].id.substr(0,4)=='edge') {
      edges[i].setAttribute('class','edge');
    }
  }
}
]]></script>
        <defs>
                <circle id="rim" cx="0" cy="0" r="7"/>
                <circle id="rim2" cx="0" cy="0" r="3.5"/>
                <g id="zoomPlus">
                        <use xlink:href="#rim" fill="#404040">
                                <set attributeName="fill" to="#808080" begin="zoomplus.mouseover" end="zoomplus.mouseout"/>
                        </use>
                        <path d="M-4,0h8M0,-4v8" fill="none" stroke="white" stroke-width="1.5" pointer-events="none"/>
                </g>
                <g id="zoomMin">
                        <use xlink:href="#rim" fill="#404040">
                                <set attributeName="fill" to="#808080" begin="zoomminus.mouseover" end="zoomminus.mouseout"/>
                        </use>
                        <path d="M-4,0h8" fill="none" stroke="white" stroke-width="1.5" pointer-events="none"/>
                </g>
                <g id="dirArrow">
                        <path fill="none" stroke="white" stroke-width="1.5" d="M0,-3.0v7 M-2.5,-0.5L0,-3.0L2.5,-0.5"/>
                </g>
               <g id="resetDef">
                       <use xlink:href="#rim2" fill="#404040">
                               <set attributeName="fill" to="#808080" begin="reset.mouseover" end="reset.mouseout"/>
                       </use>
               </g>
        </defs>

<script type="text/javascript">
var viewWidth = 1048;
var viewHeight = 655;
var sectionId = 'dynsection-0';
</script>
<script xlink:href="svgpan.js"/>
<svg id="graph" class="graph">
<g id="viewport">
<title>D:/PathTracer/PathTracer/Scene.h</title>
<polygon fill="white" stroke="transparent" points="-4,4 -4,-651 1043.5,-651 1043.5,4 -4,4"/>
<!-- Node1 -->
<g id="node1" class="node">
<title>Node1</title>
<g id="a_node1"><a xlink:title="Defines the Scene class and the functions around it.">
<polygon fill="#bfbfbf" stroke="black" points="439,-616.5 439,-646.5 566,-646.5 566,-616.5 439,-616.5"/>
<text text-anchor="start" x="447" y="-634.5" font-family="Helvetica,sans-Serif" font-size="10.00">D:/PathTracer/PathTracer</text>
<text text-anchor="middle" x="502.5" y="-623.5" font-family="Helvetica,sans-Serif" font-size="10.00">/Scene.h</text>
</a>
</g>
</g>
<!-- Node2 -->
<g id="node2" class="node">
<title>Node2</title>
<g id="a_node2"><a xlink:title=" ">
<polygon fill="white" stroke="#bfbfbf" points="27.5,-560.5 27.5,-579.5 71.5,-579.5 71.5,-560.5 27.5,-560.5"/>
<text text-anchor="middle" x="49.5" y="-567.5" font-family="Helvetica,sans-Serif" font-size="10.00">omp.h</text>
</a>
</g>
</g>
<!-- Node1&#45;&gt;Node2 -->
<g id="edge1" class="edge">
<title>Node1&#45;&gt;Node2</title>
<path fill="none" stroke="midnightblue" d="M438.9,-625.28C356.8,-617.97 209.74,-602.96 85.5,-580 84.25,-579.77 82.98,-579.52 81.71,-579.26"/>
<polygon fill="midnightblue" stroke="midnightblue" points="82.4,-575.83 71.87,-577.05 80.86,-582.66 82.4,-575.83"/>
</g>
<!-- Node3 -->
<g id="node3" class="node">
<title>Node3</title>
<g id="a_node3"><a xlink:href="_double_matrix33_8h.html" target="_top" xlink:title="Defines the DoubleMatrix33 class and the functions around it.">
<polygon fill="white" stroke="black" points="554.5,-392.5 554.5,-411.5 646.5,-411.5 646.5,-392.5 554.5,-392.5"/>
<text text-anchor="middle" x="600.5" y="-399.5" font-family="Helvetica,sans-Serif" font-size="10.00">DoubleMatrix33.h</text>
</a>
</g>
</g>
<!-- Node1&#45;&gt;Node3 -->
<g id="edge2" class="edge">
<title>Node1&#45;&gt;Node3</title>
<path fill="none" stroke="midnightblue" d="M531.72,-616.5C563.27,-599.56 611.77,-567.77 632.5,-524 649.08,-488.98 627.03,-444.03 612.13,-419.99"/>
<polygon fill="midnightblue" stroke="midnightblue" points="615.06,-418.07 606.68,-411.58 609.19,-421.88 615.06,-418.07"/>
</g>
<!-- Node12 -->
<g id="node12" class="node">
<title>Node12</title>
<g id="a_node12"><a xlink:title=" ">
<polygon fill="white" stroke="#bfbfbf" points="662,-0.5 662,-19.5 715,-19.5 715,-0.5 662,-0.5"/>
<text text-anchor="middle" x="688.5" y="-7.5" font-family="Helvetica,sans-Serif" font-size="10.00">fbxsdk.h</text>
</a>
</g>
</g>
<!-- Node1&#45;&gt;Node12 -->
<g id="edge42" class="edge">
<title>Node1&#45;&gt;Node12</title>
<path fill="none" stroke="midnightblue" d="M566.07,-618.58C620.28,-604.3 689.5,-574.43 689.5,-515 689.5,-515 689.5,-515 689.5,-121 689.5,-88.95 689.07,-51.64 688.77,-29.75"/>
<polygon fill="midnightblue" stroke="midnightblue" points="692.27,-29.51 688.63,-19.56 685.27,-29.61 692.27,-29.51"/>
</g>
<!-- Node14 -->
<g id="node14" class="node">
<title>Node14</title>
<g id="a_node14"><a xlink:href="_k_d_tree_node_8h.html" target="_top" xlink:title="Defines the KDTreeNode class and the functions around it.">
<polygon fill="white" stroke="black" points="369.5,-560.5 369.5,-579.5 449.5,-579.5 449.5,-560.5 369.5,-560.5"/>
<text text-anchor="middle" x="409.5" y="-567.5" font-family="Helvetica,sans-Serif" font-size="10.00">KDTreeNode.h</text>
</a>
</g>
</g>
<!-- Node1&#45;&gt;Node14 -->
<g id="edge13" class="edge">
<title>Node1&#45;&gt;Node14</title>
<path fill="none" stroke="midnightblue" d="M480.46,-616.4C465.69,-606.95 446.32,-594.56 431.55,-585.11"/>
<polygon fill="midnightblue" stroke="midnightblue" points="433.34,-582.1 423.03,-579.66 429.57,-588 433.34,-582.1"/>
</g>
<!-- Node26 -->
<g id="node26" class="node">
<title>Node26</title>
<g id="a_node26"><a xlink:href="_object3_d_group_8h.html" target="_top" xlink:title="Defines the Object3DGroup class and the functions around it.">
<polygon fill="white" stroke="black" points="256.5,-560.5 256.5,-579.5 348.5,-579.5 348.5,-560.5 256.5,-560.5"/>
<text text-anchor="middle" x="302.5" y="-567.5" font-family="Helvetica,sans-Serif" font-size="10.00">Object3DGroup.h</text>
</a>
</g>
</g>
<!-- Node1&#45;&gt;Node26 -->
<g id="edge32" class="edge">
<title>Node1&#45;&gt;Node26</title>
<path fill="none" stroke="midnightblue" d="M455.36,-616.47C420.4,-606.08 373.35,-592.08 340.73,-582.37"/>
<polygon fill="midnightblue" stroke="midnightblue" points="341.68,-579 331.09,-579.51 339.68,-585.71 341.68,-579"/>
</g>
<!-- Node28 -->
<g id="node28" class="node">
<title>Node28</title>
<g id="a_node28"><a xlink:href="_perspective_camera_8h.html" target="_top" xlink:title="Defines the PerspectiveCamera class.">
<polygon fill="white" stroke="black" points="0,-280.5 0,-299.5 109,-299.5 109,-280.5 0,-280.5"/>
<text text-anchor="middle" x="54.5" y="-287.5" font-family="Helvetica,sans-Serif" font-size="10.00">PerspectiveCamera.h</text>
</a>
</g>
</g>
<!-- Node1&#45;&gt;Node28 -->
<g id="edge35" class="edge">
<title>Node1&#45;&gt;Node28</title>
<path fill="none" stroke="midnightblue" d="M438.64,-625.47C325.01,-614.75 99.5,-584.69 99.5,-515 99.5,-515 99.5,-515 99.5,-401 99.5,-365.93 79.66,-328.94 66.33,-308.04"/>
<polygon fill="midnightblue" stroke="midnightblue" points="69.2,-306.03 60.76,-299.63 63.37,-309.9 69.2,-306.03"/>
</g>
<!-- Node29 -->
<g id="node29" class="node">
<title>Node29</title>
<g id="a_node29"><a xlink:href="_picture_8h.html" target="_top" xlink:title="Defines the Picture class and the functions around it.">
<polygon fill="white" stroke="black" points="474.5,-560.5 474.5,-579.5 530.5,-579.5 530.5,-560.5 474.5,-560.5"/>
<text text-anchor="middle" x="502.5" y="-567.5" font-family="Helvetica,sans-Serif" font-size="10.00">Picture.h</text>
</a>
</g>
</g>
<!-- Node1&#45;&gt;Node29 -->
<g id="edge37" class="edge">
<title>Node1&#45;&gt;Node29</title>
<path fill="none" stroke="midnightblue" d="M502.5,-616.4C502.5,-608.47 502.5,-598.46 502.5,-589.86"/>
<polygon fill="midnightblue" stroke="midnightblue" points="506,-589.66 502.5,-579.66 499,-589.66 506,-589.66"/>
</g>
<!-- Node33 -->
<g id="node33" class="node">
<title>Node33</title>
<g id="a_node33"><a xlink:title=" ">
<polygon fill="white" stroke="#bfbfbf" points="717.5,-560.5 717.5,-579.5 851.5,-579.5 851.5,-560.5 717.5,-560.5"/>
<text text-anchor="middle" x="784.5" y="-567.5" font-family="Helvetica,sans-Serif" font-size="10.00">fbxsdk/fileio/fbxiosettings.h</text>
</a>
</g>
</g>
<!-- Node1&#45;&gt;Node33 -->
<g id="edge43" class="edge">
<title>Node1&#45;&gt;Node33</title>
<path fill="none" stroke="midnightblue" d="M566.14,-617.07C616.99,-606.34 687.28,-591.51 734.24,-581.6"/>
<polygon fill="midnightblue" stroke="midnightblue" points="735.12,-585 744.18,-579.51 733.67,-578.15 735.12,-585"/>
</g>
<!-- Node34 -->
<g id="node34" class="node">
<title>Node34</title>
<g id="a_node34"><a xlink:title=" ">
<polygon fill="white" stroke="#bfbfbf" points="869.5,-560.5 869.5,-579.5 1039.5,-579.5 1039.5,-560.5 869.5,-560.5"/>
<text text-anchor="middle" x="954.5" y="-567.5" font-family="Helvetica,sans-Serif" font-size="10.00">fbxsdk/utils/fbxgeometryconverter.h</text>
</a>
</g>
</g>
<!-- Node1&#45;&gt;Node34 -->
<g id="edge44" class="edge">
<title>Node1&#45;&gt;Node34</title>
<path fill="none" stroke="midnightblue" d="M566.3,-622.1C648.81,-611.24 792.3,-592.35 879.8,-580.83"/>
<polygon fill="midnightblue" stroke="midnightblue" points="880.47,-584.28 889.93,-579.5 879.55,-577.34 880.47,-584.28"/>
</g>
<!-- Node4 -->
<g id="node4" class="node">
<title>Node4</title>
<g id="a_node4"><a xlink:href="_double_vec3_d_8h.html" target="_top" xlink:title="Defines the DoubleVec3D class and the functions around it.">
<polygon fill="white" stroke="black" points="337.5,-112.5 337.5,-131.5 421.5,-131.5 421.5,-112.5 337.5,-112.5"/>
<text text-anchor="middle" x="379.5" y="-119.5" font-family="Helvetica,sans-Serif" font-size="10.00">DoubleVec3D.h</text>
</a>
</g>
</g>
<!-- Node3&#45;&gt;Node4 -->
<g id="edge3" class="edge">
<title>Node3&#45;&gt;Node4</title>
<path fill="none" stroke="midnightblue" d="M596.18,-392.41C587.45,-374.2 568.5,-330.18 568.5,-291 568.5,-291 568.5,-291 568.5,-233 568.5,-169.56 487.97,-142.07 432.05,-130.63"/>
<polygon fill="midnightblue" stroke="midnightblue" points="432.4,-127.13 421.92,-128.68 431.07,-134.01 432.4,-127.13"/>
</g>
<!-- Node5 -->
<g id="node5" class="node">
<title>Node5</title>
<g id="a_node5"><a xlink:href="_interface_gestion_8h.html" target="_top" xlink:title="Defines functions that are used when drawing the interface.">
<polygon fill="white" stroke="black" points="332,-56.5 332,-75.5 427,-75.5 427,-56.5 332,-56.5"/>
<text text-anchor="middle" x="379.5" y="-63.5" font-family="Helvetica,sans-Serif" font-size="10.00">InterfaceGestion.h</text>
</a>
</g>
</g>
<!-- Node4&#45;&gt;Node5 -->
<g id="edge4" class="edge">
<title>Node4&#45;&gt;Node5</title>
<path fill="none" stroke="midnightblue" d="M379.5,-112.08C379.5,-105.01 379.5,-94.86 379.5,-85.99"/>
<polygon fill="midnightblue" stroke="midnightblue" points="383,-85.75 379.5,-75.75 376,-85.75 383,-85.75"/>
</g>
<!-- Node6 -->
<g id="node6" class="node">
<title>Node6</title>
<g id="a_node6"><a xlink:title=" ">
<polygon fill="white" stroke="#bfbfbf" points="526.5,-0.5 526.5,-19.5 572.5,-19.5 572.5,-0.5 526.5,-0.5"/>
<text text-anchor="middle" x="549.5" y="-7.5" font-family="Helvetica,sans-Serif" font-size="10.00">chrono</text>
</a>
</g>
</g>
<!-- Node5&#45;&gt;Node6 -->
<g id="edge5" class="edge">
<title>Node5&#45;&gt;Node6</title>
<path fill="none" stroke="midnightblue" d="M406.44,-56.44C436.26,-46.97 484.35,-31.7 516.43,-21.5"/>
<polygon fill="midnightblue" stroke="midnightblue" points="517.77,-24.75 526.24,-18.39 515.65,-18.08 517.77,-24.75"/>
</g>
<!-- Node7 -->
<g id="node7" class="node">
<title>Node7</title>
<g id="a_node7"><a xlink:title=" ">
<polygon fill="white" stroke="#bfbfbf" points="591,-0.5 591,-19.5 640,-19.5 640,-0.5 591,-0.5"/>
<text text-anchor="middle" x="615.5" y="-7.5" font-family="Helvetica,sans-Serif" font-size="10.00">fstream</text>
</a>
</g>
</g>
<!-- Node5&#45;&gt;Node7 -->
<g id="edge6" class="edge">
<title>Node5&#45;&gt;Node7</title>
<path fill="none" stroke="midnightblue" d="M420.23,-56.42C459.03,-48.14 519.31,-34.99 580.77,-20.1"/>
<polygon fill="midnightblue" stroke="midnightblue" points="581.76,-23.47 590.65,-17.7 580.1,-16.66 581.76,-23.47"/>
</g>
<!-- Node8 -->
<g id="node8" class="node">
<title>Node8</title>
<g id="a_node8"><a xlink:title=" ">
<polygon fill="white" stroke="#bfbfbf" points="125,-0.5 125,-19.5 174,-19.5 174,-0.5 125,-0.5"/>
<text text-anchor="middle" x="149.5" y="-7.5" font-family="Helvetica,sans-Serif" font-size="10.00">random</text>
</a>
</g>
</g>
<!-- Node5&#45;&gt;Node8 -->
<g id="edge7" class="edge">
<title>Node5&#45;&gt;Node8</title>
<path fill="none" stroke="midnightblue" d="M340.73,-56.5C303.22,-48.18 244.5,-34.93 184.4,-20.16"/>
<polygon fill="midnightblue" stroke="midnightblue" points="184.91,-16.68 174.36,-17.68 183.23,-23.48 184.91,-16.68"/>
</g>
<!-- Node9 -->
<g id="node9" class="node">
<title>Node9</title>
<g id="a_node9"><a xlink:title=" ">
<polygon fill="white" stroke="#bfbfbf" points="192.5,-0.5 192.5,-19.5 246.5,-19.5 246.5,-0.5 192.5,-0.5"/>
<text text-anchor="middle" x="219.5" y="-7.5" font-family="Helvetica,sans-Serif" font-size="10.00">iostream</text>
</a>
</g>
</g>
<!-- Node5&#45;&gt;Node9 -->
<g id="edge8" class="edge">
<title>Node5&#45;&gt;Node9</title>
<path fill="none" stroke="midnightblue" d="M354.15,-56.44C327.23,-47.36 284.5,-32.94 254.41,-22.78"/>
<polygon fill="midnightblue" stroke="midnightblue" points="255.33,-19.4 244.73,-19.52 253.09,-26.03 255.33,-19.4"/>
</g>
<!-- Node10 -->
<g id="node10" class="node">
<title>Node10</title>
<g id="a_node10"><a xlink:title=" ">
<polygon fill="white" stroke="#bfbfbf" points="265,-0.5 265,-19.5 312,-19.5 312,-0.5 265,-0.5"/>
<text text-anchor="middle" x="288.5" y="-7.5" font-family="Helvetica,sans-Serif" font-size="10.00">math.h</text>
</a>
</g>
</g>
<!-- Node5&#45;&gt;Node10 -->
<g id="edge9" class="edge">
<title>Node5&#45;&gt;Node10</title>
<path fill="none" stroke="midnightblue" d="M364.88,-56.32C350.55,-47.82 328.49,-34.73 311.75,-24.8"/>
<polygon fill="midnightblue" stroke="midnightblue" points="313.47,-21.75 303.08,-19.65 309.9,-27.77 313.47,-21.75"/>
</g>
<!-- Node11 -->
<g id="node11" class="node">
<title>Node11</title>
<g id="a_node11"><a xlink:title=" ">
<polygon fill="white" stroke="#bfbfbf" points="330.5,-0.5 330.5,-19.5 428.5,-19.5 428.5,-0.5 330.5,-0.5"/>
<text text-anchor="middle" x="379.5" y="-7.5" font-family="Helvetica,sans-Serif" font-size="10.00">nlohmann/json.hpp</text>
</a>
</g>
</g>
<!-- Node5&#45;&gt;Node11 -->
<g id="edge10" class="edge">
<title>Node5&#45;&gt;Node11</title>
<path fill="none" stroke="midnightblue" d="M379.5,-56.08C379.5,-49.01 379.5,-38.86 379.5,-29.99"/>
<polygon fill="midnightblue" stroke="midnightblue" points="383,-29.75 379.5,-19.75 376,-29.75 383,-29.75"/>
</g>
<!-- Node5&#45;&gt;Node12 -->
<g id="edge11" class="edge">
<title>Node5&#45;&gt;Node12</title>
<path fill="none" stroke="midnightblue" d="M427.46,-57.92C481.57,-49.72 572.12,-35.36 649.5,-20 650.24,-19.85 650.99,-19.7 651.74,-19.55"/>
<polygon fill="midnightblue" stroke="midnightblue" points="652.65,-22.93 661.69,-17.42 651.18,-16.09 652.65,-22.93"/>
</g>
<!-- Node13 -->
<g id="node13" class="node">
<title>Node13</title>
<g id="a_node13"><a xlink:title=" ">
<polygon fill="white" stroke="#bfbfbf" points="446.5,-0.5 446.5,-19.5 508.5,-19.5 508.5,-0.5 446.5,-0.5"/>
<text text-anchor="middle" x="477.5" y="-7.5" font-family="Helvetica,sans-Serif" font-size="10.00">windows.h</text>
</a>
</g>
</g>
<!-- Node5&#45;&gt;Node13 -->
<g id="edge12" class="edge">
<title>Node5&#45;&gt;Node13</title>
<path fill="none" stroke="midnightblue" d="M395.25,-56.32C410.82,-47.74 434.88,-34.49 452.96,-24.52"/>
<polygon fill="midnightblue" stroke="midnightblue" points="454.72,-27.55 461.79,-19.65 451.35,-21.42 454.72,-27.55"/>
</g>
<!-- Node15 -->
<g id="node15" class="node">
<title>Node15</title>
<g id="a_node15"><a xlink:href="_interface_creation_8h.html" target="_top" xlink:title="Defines functions that are used to interactively create 3D objects and materials.">
<polygon fill="white" stroke="black" points="253.5,-504.5 253.5,-523.5 351.5,-523.5 351.5,-504.5 253.5,-504.5"/>
<text text-anchor="middle" x="302.5" y="-511.5" font-family="Helvetica,sans-Serif" font-size="10.00">InterfaceCreation.h</text>
</a>
</g>
</g>
<!-- Node14&#45;&gt;Node15 -->
<g id="edge14" class="edge">
<title>Node14&#45;&gt;Node15</title>
<path fill="none" stroke="midnightblue" d="M392.31,-560.32C375.15,-551.66 348.55,-538.24 328.75,-528.25"/>
<polygon fill="midnightblue" stroke="midnightblue" points="330.15,-525.04 319.65,-523.65 327,-531.28 330.15,-525.04"/>
</g>
<!-- Node15&#45;&gt;Node5 -->
<g id="edge15" class="edge">
<title>Node15&#45;&gt;Node5</title>
<path fill="none" stroke="midnightblue" d="M261.29,-504.48C212.42,-491.69 137.5,-462.39 137.5,-403 137.5,-403 137.5,-403 137.5,-177 137.5,-96.39 250.15,-74.57 321.73,-68.85"/>
<polygon fill="midnightblue" stroke="midnightblue" points="322.25,-72.32 331.98,-68.11 321.75,-65.33 322.25,-72.32"/>
</g>
<!-- Node16 -->
<g id="node16" class="node">
<title>Node16</title>
<g id="a_node16"><a xlink:href="_diffuse_material_8h.html" target="_top" xlink:title="Defines the DiffuseMaterial class.">
<polygon fill="white" stroke="black" points="379,-336.5 379,-355.5 468,-355.5 468,-336.5 379,-336.5"/>
<text text-anchor="middle" x="423.5" y="-343.5" font-family="Helvetica,sans-Serif" font-size="10.00">DiffuseMaterial.h</text>
</a>
</g>
</g>
<!-- Node15&#45;&gt;Node16 -->
<g id="edge16" class="edge">
<title>Node15&#45;&gt;Node16</title>
<path fill="none" stroke="midnightblue" d="M351.78,-506.3C375.61,-500.35 402.29,-489.14 417.5,-468 439.33,-437.66 433.74,-391.14 428.29,-365.52"/>
<polygon fill="midnightblue" stroke="midnightblue" points="431.66,-364.57 425.96,-355.64 424.84,-366.17 431.66,-364.57"/>
</g>
<!-- Node20 -->
<g id="node20" class="node">
<title>Node20</title>
<g id="a_node20"><a xlink:href="_refractive_material_8h.html" target="_top" xlink:title="Defines the RefractiveMaterial class.">
<polygon fill="white" stroke="black" points="226,-392.5 226,-411.5 327,-411.5 327,-392.5 226,-392.5"/>
<text text-anchor="middle" x="276.5" y="-399.5" font-family="Helvetica,sans-Serif" font-size="10.00">RefractiveMaterial.h</text>
</a>
</g>
</g>
<!-- Node15&#45;&gt;Node20 -->
<g id="edge22" class="edge">
<title>Node15&#45;&gt;Node20</title>
<path fill="none" stroke="midnightblue" d="M292.34,-504.19C283.59,-495.87 271.6,-482.54 266.5,-468 261.13,-452.7 264.8,-434.37 269.13,-421.08"/>
<polygon fill="midnightblue" stroke="midnightblue" points="272.43,-422.25 272.58,-411.66 265.85,-419.84 272.43,-422.25"/>
</g>
<!-- Node21 -->
<g id="node21" class="node">
<title>Node21</title>
<g id="a_node21"><a xlink:href="_specular_material_8h.html" target="_top" xlink:title="Defines the SpecularMaterial class.">
<polygon fill="white" stroke="black" points="165.5,-336.5 165.5,-355.5 263.5,-355.5 263.5,-336.5 165.5,-336.5"/>
<text text-anchor="middle" x="214.5" y="-343.5" font-family="Helvetica,sans-Serif" font-size="10.00">SpecularMaterial.h</text>
</a>
</g>
</g>
<!-- Node15&#45;&gt;Node21 -->
<g id="edge24" class="edge">
<title>Node15&#45;&gt;Node21</title>
<path fill="none" stroke="midnightblue" d="M290.96,-504.27C271.15,-488.47 231.36,-452.91 216.5,-412 211.13,-397.23 211.01,-379.3 212.02,-366.02"/>
<polygon fill="midnightblue" stroke="midnightblue" points="215.54,-366.04 213.09,-355.73 208.57,-365.32 215.54,-366.04"/>
</g>
<!-- Node22 -->
<g id="node22" class="node">
<title>Node22</title>
<g id="a_node22"><a xlink:href="_triangle_8h.html" target="_top" xlink:title="Defines the Triangle class.">
<polygon fill="white" stroke="black" points="350,-448.5 350,-467.5 409,-467.5 409,-448.5 350,-448.5"/>
<text text-anchor="middle" x="379.5" y="-455.5" font-family="Helvetica,sans-Serif" font-size="10.00">Triangle.h</text>
</a>
</g>
</g>
<!-- Node15&#45;&gt;Node22 -->
<g id="edge26" class="edge">
<title>Node15&#45;&gt;Node22</title>
<path fill="none" stroke="midnightblue" d="M314.87,-504.32C326.66,-496.06 344.63,-483.45 358.64,-473.63"/>
<polygon fill="midnightblue" stroke="midnightblue" points="360.98,-476.26 367.16,-467.65 356.96,-470.53 360.98,-476.26"/>
</g>
<!-- Node25 -->
<g id="node25" class="node">
<title>Node25</title>
<g id="a_node25"><a xlink:href="_sphere_8h.html" target="_top" xlink:title="Defines the Sphere class.">
<polygon fill="white" stroke="black" points="275.5,-448.5 275.5,-467.5 331.5,-467.5 331.5,-448.5 275.5,-448.5"/>
<text text-anchor="middle" x="303.5" y="-455.5" font-family="Helvetica,sans-Serif" font-size="10.00">Sphere.h</text>
</a>
</g>
</g>
<!-- Node15&#45;&gt;Node25 -->
<g id="edge30" class="edge">
<title>Node15&#45;&gt;Node25</title>
<path fill="none" stroke="midnightblue" d="M302.67,-504.08C302.8,-497.01 302.98,-486.86 303.15,-477.99"/>
<polygon fill="midnightblue" stroke="midnightblue" points="306.65,-477.81 303.34,-467.75 299.65,-477.68 306.65,-477.81"/>
</g>
<!-- Node17 -->
<g id="node17" class="node">
<title>Node17</title>
<g id="a_node17"><a xlink:href="_material_8h.html" target="_top" xlink:title="Defines the Material class and the functions around it.">
<polygon fill="white" stroke="black" points="262,-280.5 262,-299.5 321,-299.5 321,-280.5 262,-280.5"/>
<text text-anchor="middle" x="291.5" y="-287.5" font-family="Helvetica,sans-Serif" font-size="10.00">Material.h</text>
</a>
</g>
</g>
<!-- Node16&#45;&gt;Node17 -->
<g id="edge17" class="edge">
<title>Node16&#45;&gt;Node17</title>
<path fill="none" stroke="midnightblue" d="M402.58,-336.44C380.76,-327.52 346.35,-313.44 321.61,-303.32"/>
<polygon fill="midnightblue" stroke="midnightblue" points="322.9,-300.06 312.32,-299.52 320.25,-306.54 322.9,-300.06"/>
</g>
<!-- Node18 -->
<g id="node18" class="node">
<title>Node18</title>
<g id="a_node18"><a xlink:href="_ray_8h.html" target="_top" xlink:title="Defines the Ray class.">
<polygon fill="white" stroke="black" points="270.5,-224.5 270.5,-243.5 312.5,-243.5 312.5,-224.5 270.5,-224.5"/>
<text text-anchor="middle" x="291.5" y="-231.5" font-family="Helvetica,sans-Serif" font-size="10.00">Ray.h</text>
</a>
</g>
</g>
<!-- Node17&#45;&gt;Node18 -->
<g id="edge18" class="edge">
<title>Node17&#45;&gt;Node18</title>
<path fill="none" stroke="midnightblue" d="M291.5,-280.08C291.5,-273.01 291.5,-262.86 291.5,-253.99"/>
<polygon fill="midnightblue" stroke="midnightblue" points="295,-253.75 291.5,-243.75 288,-253.75 295,-253.75"/>
</g>
<!-- Node18&#45;&gt;Node4 -->
<g id="edge19" class="edge">
<title>Node18&#45;&gt;Node4</title>
<path fill="none" stroke="midnightblue" d="M310.2,-224.46C324.97,-216.83 345.09,-204.35 357.5,-188 367.85,-174.37 373.51,-155.58 376.48,-141.71"/>
<polygon fill="midnightblue" stroke="midnightblue" points="379.93,-142.3 378.33,-131.82 373.05,-141.01 379.93,-142.3"/>
</g>
<!-- Node19 -->
<g id="node19" class="node">
<title>Node19</title>
<g id="a_node19"><a xlink:href="_double_unit_vec3_d_8h.html" target="_top" xlink:title="Defines the DoubleUnitVec3D class and the functions around it.">
<polygon fill="white" stroke="black" points="248,-168.5 248,-187.5 349,-187.5 349,-168.5 248,-168.5"/>
<text text-anchor="middle" x="298.5" y="-175.5" font-family="Helvetica,sans-Serif" font-size="10.00">DoubleUnitVec3D.h</text>
</a>
</g>
</g>
<!-- Node18&#45;&gt;Node19 -->
<g id="edge20" class="edge">
<title>Node18&#45;&gt;Node19</title>
<path fill="none" stroke="midnightblue" d="M292.66,-224.08C293.58,-216.93 294.92,-206.64 296.08,-197.69"/>
<polygon fill="midnightblue" stroke="midnightblue" points="299.55,-198.12 297.37,-187.75 292.61,-197.22 299.55,-198.12"/>
</g>
<!-- Node19&#45;&gt;Node4 -->
<g id="edge21" class="edge">
<title>Node19&#45;&gt;Node4</title>
<path fill="none" stroke="midnightblue" d="M311.51,-168.32C324.03,-159.98 343.18,-147.21 357.97,-137.35"/>
<polygon fill="midnightblue" stroke="midnightblue" points="360.14,-140.11 366.52,-131.65 356.26,-134.29 360.14,-140.11"/>
</g>
<!-- Node20&#45;&gt;Node17 -->
<g id="edge23" class="edge">
<title>Node20&#45;&gt;Node17</title>
<path fill="none" stroke="midnightblue" d="M277.68,-392.37C280.1,-374.62 285.68,-333.67 288.96,-309.6"/>
<polygon fill="midnightblue" stroke="midnightblue" points="292.45,-309.97 290.33,-299.59 285.51,-309.03 292.45,-309.97"/>
</g>
<!-- Node21&#45;&gt;Node17 -->
<g id="edge25" class="edge">
<title>Node21&#45;&gt;Node17</title>
<path fill="none" stroke="midnightblue" d="M226.87,-336.32C238.66,-328.06 256.63,-315.45 270.64,-305.63"/>
<polygon fill="midnightblue" stroke="midnightblue" points="272.98,-308.26 279.16,-299.65 268.96,-302.53 272.98,-308.26"/>
</g>
<!-- Node23 -->
<g id="node23" class="node">
<title>Node23</title>
<g id="a_node23"><a xlink:href="_object3_d_8h.html" target="_top" xlink:title="Defines the Object3D class and the functions around it.">
<polygon fill="white" stroke="black" points="345,-392.5 345,-411.5 410,-411.5 410,-392.5 345,-392.5"/>
<text text-anchor="middle" x="377.5" y="-399.5" font-family="Helvetica,sans-Serif" font-size="10.00">Object3D.h</text>
</a>
</g>
</g>
<!-- Node22&#45;&gt;Node23 -->
<g id="edge27" class="edge">
<title>Node22&#45;&gt;Node23</title>
<path fill="none" stroke="midnightblue" d="M379.17,-448.08C378.91,-441.01 378.53,-430.86 378.2,-421.99"/>
<polygon fill="midnightblue" stroke="midnightblue" points="381.69,-421.61 377.82,-411.75 374.7,-421.87 381.69,-421.61"/>
</g>
<!-- Node23&#45;&gt;Node16 -->
<g id="edge29" class="edge">
<title>Node23&#45;&gt;Node16</title>
<path fill="none" stroke="midnightblue" d="M385.1,-392.08C391.73,-384.3 401.52,-372.8 409.56,-363.37"/>
<polygon fill="midnightblue" stroke="midnightblue" points="412.23,-365.63 416.05,-355.75 406.9,-361.09 412.23,-365.63"/>
</g>
<!-- Node24 -->
<g id="node24" class="node">
<title>Node24</title>
<g id="a_node24"><a xlink:title=" ">
<polygon fill="white" stroke="#bfbfbf" points="320,-336.5 320,-355.5 361,-355.5 361,-336.5 320,-336.5"/>
<text text-anchor="middle" x="340.5" y="-343.5" font-family="Helvetica,sans-Serif" font-size="10.00">string</text>
</a>
</g>
</g>
<!-- Node23&#45;&gt;Node24 -->
<g id="edge28" class="edge">
<title>Node23&#45;&gt;Node24</title>
<path fill="none" stroke="midnightblue" d="M371.39,-392.08C366.22,-384.53 358.65,-373.49 352.31,-364.23"/>
<polygon fill="midnightblue" stroke="midnightblue" points="355.04,-362.02 346.5,-355.75 349.26,-365.98 355.04,-362.02"/>
</g>
<!-- Node25&#45;&gt;Node23 -->
<g id="edge31" class="edge">
<title>Node25&#45;&gt;Node23</title>
<path fill="none" stroke="midnightblue" d="M315.39,-448.32C326.65,-440.11 343.79,-427.6 357.21,-417.81"/>
<polygon fill="midnightblue" stroke="midnightblue" points="359.38,-420.56 365.39,-411.83 355.25,-414.9 359.38,-420.56"/>
</g>
<!-- Node26&#45;&gt;Node15 -->
<g id="edge34" class="edge">
<title>Node26&#45;&gt;Node15</title>
<path fill="none" stroke="midnightblue" d="M302.5,-560.08C302.5,-553.01 302.5,-542.86 302.5,-533.99"/>
<polygon fill="midnightblue" stroke="midnightblue" points="306,-533.75 302.5,-523.75 299,-533.75 306,-533.75"/>
</g>
<!-- Node27 -->
<g id="node27" class="node">
<title>Node27</title>
<g id="a_node27"><a xlink:title=" ">
<polygon fill="white" stroke="#bfbfbf" points="193.5,-504.5 193.5,-523.5 235.5,-523.5 235.5,-504.5 193.5,-504.5"/>
<text text-anchor="middle" x="214.5" y="-511.5" font-family="Helvetica,sans-Serif" font-size="10.00">vector</text>
</a>
</g>
</g>
<!-- Node26&#45;&gt;Node27 -->
<g id="edge33" class="edge">
<title>Node26&#45;&gt;Node27</title>
<path fill="none" stroke="midnightblue" d="M288.36,-560.32C274.63,-551.9 253.56,-538.97 237.44,-529.07"/>
<polygon fill="midnightblue" stroke="midnightblue" points="238.96,-525.9 228.6,-523.65 235.3,-531.87 238.96,-525.9"/>
</g>
<!-- Node28&#45;&gt;Node18 -->
<g id="edge36" class="edge">
<title>Node28&#45;&gt;Node18</title>
<path fill="none" stroke="midnightblue" d="M92.05,-280.44C138.6,-269.84 217.06,-251.96 260.4,-242.09"/>
<polygon fill="midnightblue" stroke="midnightblue" points="261.39,-245.45 270.36,-239.82 259.83,-238.63 261.39,-245.45"/>
</g>
<!-- Node29&#45;&gt;Node4 -->
<g id="edge41" class="edge">
<title>Node29&#45;&gt;Node4</title>
<path fill="none" stroke="midnightblue" d="M474.27,-560.64C446.57,-551.8 407.25,-537.32 398.5,-524 381.99,-498.86 420.07,-493.2 436.5,-468 481.86,-398.42 496.5,-374.06 496.5,-291 496.5,-291 496.5,-291 496.5,-233 496.5,-185.6 444.9,-152.64 410.23,-135.85"/>
<polygon fill="midnightblue" stroke="midnightblue" points="411.5,-132.58 400.96,-131.54 408.55,-138.93 411.5,-132.58"/>
</g>
<!-- Node30 -->
<g id="node30" class="node">
<title>Node30</title>
<g id="a_node30"><a xlink:title=" ">
<polygon fill="white" stroke="#bfbfbf" points="407.5,-504.5 407.5,-523.5 463.5,-523.5 463.5,-504.5 407.5,-504.5"/>
<text text-anchor="middle" x="435.5" y="-511.5" font-family="Helvetica,sans-Serif" font-size="10.00">algorithm</text>
</a>
</g>
</g>
<!-- Node29&#45;&gt;Node30 -->
<g id="edge38" class="edge">
<title>Node29&#45;&gt;Node30</title>
<path fill="none" stroke="midnightblue" d="M491.74,-560.32C481.73,-552.26 466.61,-540.08 454.57,-530.37"/>
<polygon fill="midnightblue" stroke="midnightblue" points="456.44,-527.38 446.46,-523.83 452.05,-532.83 456.44,-527.38"/>
</g>
<!-- Node31 -->
<g id="node31" class="node">
<title>Node31</title>
<g id="a_node31"><a xlink:title=" ">
<polygon fill="white" stroke="#bfbfbf" points="481.5,-504.5 481.5,-523.5 531.5,-523.5 531.5,-504.5 481.5,-504.5"/>
<text text-anchor="middle" x="506.5" y="-511.5" font-family="Helvetica,sans-Serif" font-size="10.00">iomanip</text>
</a>
</g>
</g>
<!-- Node29&#45;&gt;Node31 -->
<g id="edge39" class="edge">
<title>Node29&#45;&gt;Node31</title>
<path fill="none" stroke="midnightblue" d="M503.16,-560.08C503.68,-553.01 504.44,-542.86 505.09,-533.99"/>
<polygon fill="midnightblue" stroke="midnightblue" points="508.6,-533.98 505.85,-523.75 501.62,-533.47 508.6,-533.98"/>
</g>
<!-- Node32 -->
<g id="node32" class="node">
<title>Node32</title>
<g id="a_node32"><a xlink:title=" ">
<polygon fill="white" stroke="#bfbfbf" points="550,-504.5 550,-523.5 623,-523.5 623,-504.5 550,-504.5"/>
<text text-anchor="middle" x="586.5" y="-511.5" font-family="Helvetica,sans-Serif" font-size="10.00">CImg/CImg.h</text>
</a>
</g>
</g>
<!-- Node29&#45;&gt;Node32 -->
<g id="edge40" class="edge">
<title>Node29&#45;&gt;Node32</title>
<path fill="none" stroke="midnightblue" d="M516,-560.32C529.1,-551.9 549.21,-538.97 564.61,-529.07"/>
<polygon fill="midnightblue" stroke="midnightblue" points="566.52,-532.01 573.04,-523.65 562.73,-526.12 566.52,-532.01"/>
</g>
</g>
</svg>
        <g id="navigator" transform="translate(0 0)" fill="#404254">
                <rect fill="#f2f5e9" fill-opacity="0.5" stroke="#606060" stroke-width=".5" x="0" y="0" width="60" height="60"/>
                <use id="zoomplus" xlink:href="#zoomPlus" x="17" y="9" onmousedown="handleZoom(evt,'in')"/>
                <use id="zoomminus" xlink:href="#zoomMin" x="42" y="9" onmousedown="handleZoom(evt,'out')"/>
                <use id="reset" xlink:href="#resetDef" x="30" y="36" onmousedown="handleReset()"/>
                <g id="arrowUp" xlink:href="#dirArrow" transform="translate(30 24)" onmousedown="handlePan(0,-1)">
                  <use xlink:href="#rim" fill="#404040">
                        <set attributeName="fill" to="#808080" begin="arrowUp.mouseover" end="arrowUp.mouseout"/>
                  </use>
                  <path fill="none" stroke="white" stroke-width="1.5" d="M0,-3.0v7 M-2.5,-0.5L0,-3.0L2.5,-0.5"/>
                </g>
                <g id="arrowRight" xlink:href="#dirArrow" transform="rotate(90) translate(36 -43)" onmousedown="handlePan(1,0)">
                  <use xlink:href="#rim" fill="#404040">
                        <set attributeName="fill" to="#808080" begin="arrowRight.mouseover" end="arrowRight.mouseout"/>
                  </use>
                  <path fill="none" stroke="white" stroke-width="1.5" d="M0,-3.0v7 M-2.5,-0.5L0,-3.0L2.5,-0.5"/>
                </g>
                <g id="arrowDown" xlink:href="#dirArrow" transform="rotate(180) translate(-30 -48)" onmousedown="handlePan(0,1)">
                  <use xlink:href="#rim" fill="#404040">
                        <set attributeName="fill" to="#808080" begin="arrowDown.mouseover" end="arrowDown.mouseout"/>
                  </use>
                  <path fill="none" stroke="white" stroke-width="1.5" d="M0,-3.0v7 M-2.5,-0.5L0,-3.0L2.5,-0.5"/>
                </g>
                <g id="arrowLeft" xlink:href="#dirArrow" transform="rotate(270) translate(-36 17)" onmousedown="handlePan(-1,0)">
                  <use xlink:href="#rim" fill="#404040">
                        <set attributeName="fill" to="#808080" begin="arrowLeft.mouseover" end="arrowLeft.mouseout"/>
                  </use>
                  <path fill="none" stroke="white" stroke-width="1.5" d="M0,-3.0v7 M-2.5,-0.5L0,-3.0L2.5,-0.5"/>
                </g>
        </g>
        <svg viewBox="0 0 15 15" width="100%" height="30px" preserveAspectRatio="xMaxYMin meet">
         <g id="arrow_out" transform="scale(0.3 0.3)">
          <a xlink:href="_scene_8h__incl_org.svg" target="_base">
           <rect id="button" ry="5" rx="5" y="6" x="6" height="38" width="38"
                fill="#f2f5e9" fill-opacity="0.5" stroke="#606060" stroke-width="1.0"/>
           <path id="arrow"
             d="M 11.500037,31.436501 C 11.940474,20.09759 22.043105,11.32322 32.158766,21.979434 L 37.068811,17.246167 C 37.068811,17.246167 37.088388,32 37.088388,32 L 22.160133,31.978069 C 22.160133,31.978069 26.997745,27.140456 26.997745,27.140456 C 18.528582,18.264221 13.291696,25.230495 11.500037,31.436501 z"
             style="fill:#404040;"/>
          </a>
         </g>
        </svg>
</svg>
