<?xml version="1.0" encoding="UTF-8" standalone="no"?>
<!DOCTYPE svg PUBLIC "-//W3C//DTD SVG 1.1//EN"
 "http://www.w3.org/Graphics/SVG/1.1/DTD/svg11.dtd">
<!-- Generated by graphviz version 2.44.1 (20200629.0800)
 -->
<!-- Title: D:/PathTracer/PathTracer/Sphere.cpp Pages: 1 -->
<!--zoomable 487 -->
<svg id="main" version="1.1" xmlns="http://www.w3.org/2000/svg" xmlns:xlink="http://www.w3.org/1999/xlink" xml:space="preserve" onload="init(evt)">
<style type="text/css"><![CDATA[
.edge:hover path { stroke: red; }
.edge:hover polygon { stroke: red; fill: red; }
]]></style>
<script type="text/javascript"><![CDATA[
var edges = document.getElementsByTagName('g');
if (edges && edges.length) {
  for (var i=0;i<edges.length;i++) {
    if (edges[i].id.substr(0,4)=='edge') {
      edges[i].setAttribute('class','edge');
    }
  }
}
]]></script>
        <defs>
                <circle id="rim" cx="0" cy="0" r="7"/>
                <circle id="rim2" cx="0" cy="0" r="3.5"/>
                <g id="zoomPlus">
                        <use xlink:href="#rim" fill="#404040">
                                <set attributeName="fill" to="#808080" begin="zoomplus.mouseover" end="zoomplus.mouseout"/>
                        </use>
                        <path d="M-4,0h8M0,-4v8" fill="none" stroke="white" stroke-width="1.5" pointer-events="none"/>
                </g>
                <g id="zoomMin">
                        <use xlink:href="#rim" fill="#404040">
                                <set attributeName="fill" to="#808080" begin="zoomminus.mouseover" end="zoomminus.mouseout"/>
                        </use>
                        <path d="M-4,0h8" fill="none" stroke="white" stroke-width="1.5" pointer-events="none"/>
                </g>
                <g id="dirArrow">
                        <path fill="none" stroke="white" stroke-width="1.5" d="M0,-3.0v7 M-2.5,-0.5L0,-3.0L2.5,-0.5"/>
                </g>
               <g id="resetDef">
                       <use xlink:href="#rim2" fill="#404040">
                               <set attributeName="fill" to="#808080" begin="reset.mouseover" end="reset.mouseout"/>
                       </use>
               </g>
        </defs>

<script type="text/javascript">
var viewWidth = 526;
var viewHeight = 487;
var sectionId = 'dynsection-0';
</script>
<script xlink:href="svgpan.js"/>
<svg id="graph" class="graph">
<g id="viewport">
<title>D:/PathTracer/PathTracer/Sphere.cpp</title>
<polygon fill="white" stroke="transparent" points="-4,4 -4,-483 522,-483 522,4 -4,4"/>
<!-- Node1 -->
<g id="node1" class="node">
<title>Node1</title>
<g id="a_node1"><a xlink:title=" ">
<polygon fill="#bfbfbf" stroke="black" points="234.5,-448.5 234.5,-478.5 361.5,-478.5 361.5,-448.5 234.5,-448.5"/>
<text text-anchor="start" x="242.5" y="-466.5" font-family="Helvetica,sans-Serif" font-size="10.00">D:/PathTracer/PathTracer</text>
<text text-anchor="middle" x="298" y="-455.5" font-family="Helvetica,sans-Serif" font-size="10.00">/Sphere.cpp</text>
</a>
</g>
</g>
<!-- Node2 -->
<g id="node2" class="node">
<title>Node2</title>
<g id="a_node2"><a xlink:href="_sphere_8h.html" target="_top" xlink:title="Defines the Sphere class.">
<polygon fill="white" stroke="black" points="270,-392.5 270,-411.5 326,-411.5 326,-392.5 270,-392.5"/>
<text text-anchor="middle" x="298" y="-399.5" font-family="Helvetica,sans-Serif" font-size="10.00">Sphere.h</text>
</a>
</g>
</g>
<!-- Node1&#45;&gt;Node2 -->
<g id="edge1" class="edge">
<title>Node1&#45;&gt;Node2</title>
<path fill="none" stroke="midnightblue" d="M298,-448.4C298,-440.47 298,-430.46 298,-421.86"/>
<polygon fill="midnightblue" stroke="midnightblue" points="301.5,-421.66 298,-411.66 294.5,-421.66 301.5,-421.66"/>
</g>
<!-- Node3 -->
<g id="node3" class="node">
<title>Node3</title>
<g id="a_node3"><a xlink:title=" ">
<polygon fill="white" stroke="#bfbfbf" points="30.5,-0.5 30.5,-19.5 77.5,-19.5 77.5,-0.5 30.5,-0.5"/>
<text text-anchor="middle" x="54" y="-7.5" font-family="Helvetica,sans-Serif" font-size="10.00">math.h</text>
</a>
</g>
</g>
<!-- Node2&#45;&gt;Node3 -->
<g id="edge2" class="edge">
<title>Node2&#45;&gt;Node3</title>
<path fill="none" stroke="midnightblue" d="M269.96,-396.81C195.78,-384.95 0,-348.22 0,-291 0,-291 0,-291 0,-121 0,-84.86 23.77,-48.25 39.77,-27.71"/>
<polygon fill="midnightblue" stroke="midnightblue" points="42.69,-29.67 46.26,-19.69 37.25,-25.26 42.69,-29.67"/>
</g>
<!-- Node4 -->
<g id="node4" class="node">
<title>Node4</title>
<g id="a_node4"><a xlink:href="_double_vec3_d_8h.html" target="_top" xlink:title="Defines the DoubleVec3D class and the functions around it.">
<polygon fill="white" stroke="black" points="170,-56.5 170,-75.5 254,-75.5 254,-56.5 170,-56.5"/>
<text text-anchor="middle" x="212" y="-63.5" font-family="Helvetica,sans-Serif" font-size="10.00">DoubleVec3D.h</text>
</a>
</g>
</g>
<!-- Node2&#45;&gt;Node4 -->
<g id="edge3" class="edge">
<title>Node2&#45;&gt;Node4</title>
<path fill="none" stroke="midnightblue" d="M326.31,-399.67C385.73,-395.21 518,-375.76 518,-291 518,-291 518,-291 518,-177 518,-128.73 475.03,-131.78 431,-112 377.01,-87.75 309.65,-76.42 264,-71.23"/>
<polygon fill="midnightblue" stroke="midnightblue" points="264.34,-67.75 254.02,-70.15 263.59,-74.71 264.34,-67.75"/>
</g>
<!-- Node8 -->
<g id="node8" class="node">
<title>Node8</title>
<g id="a_node8"><a xlink:href="_double_unit_vec3_d_8h.html" target="_top" xlink:title="Defines the DoubleUnitVec3D class and the functions around it.">
<polygon fill="white" stroke="black" points="231.5,-112.5 231.5,-131.5 332.5,-131.5 332.5,-112.5 231.5,-112.5"/>
<text text-anchor="middle" x="282" y="-119.5" font-family="Helvetica,sans-Serif" font-size="10.00">DoubleUnitVec3D.h</text>
</a>
</g>
</g>
<!-- Node2&#45;&gt;Node8 -->
<g id="edge8" class="edge">
<title>Node2&#45;&gt;Node8</title>
<path fill="none" stroke="midnightblue" d="M321.1,-392.38C362.64,-375.35 443.8,-334.29 423,-280 398.7,-216.56 335.62,-162.65 302.7,-137.75"/>
<polygon fill="midnightblue" stroke="midnightblue" points="304.76,-134.92 294.64,-131.79 300.59,-140.55 304.76,-134.92"/>
</g>
<!-- Node9 -->
<g id="node9" class="node">
<title>Node9</title>
<g id="a_node9"><a xlink:href="_material_8h.html" target="_top" xlink:title="Defines the Material class and the functions around it.">
<polygon fill="white" stroke="black" points="28.5,-224.5 28.5,-243.5 87.5,-243.5 87.5,-224.5 28.5,-224.5"/>
<text text-anchor="middle" x="58" y="-231.5" font-family="Helvetica,sans-Serif" font-size="10.00">Material.h</text>
</a>
</g>
</g>
<!-- Node2&#45;&gt;Node9 -->
<g id="edge10" class="edge">
<title>Node2&#45;&gt;Node9</title>
<path fill="none" stroke="midnightblue" d="M270.8,-392.46C229.72,-378.5 151.13,-347.49 99,-300 84.4,-286.7 72.97,-267.04 65.93,-252.83"/>
<polygon fill="midnightblue" stroke="midnightblue" points="69.02,-251.17 61.6,-243.61 62.69,-254.15 69.02,-251.17"/>
</g>
<!-- Node10 -->
<g id="node10" class="node">
<title>Node10</title>
<g id="a_node10"><a xlink:href="_ray_8h.html" target="_top" xlink:title="Defines the Ray class.">
<polygon fill="white" stroke="black" points="182,-168.5 182,-187.5 224,-187.5 224,-168.5 182,-168.5"/>
<text text-anchor="middle" x="203" y="-175.5" font-family="Helvetica,sans-Serif" font-size="10.00">Ray.h</text>
</a>
</g>
</g>
<!-- Node2&#45;&gt;Node10 -->
<g id="edge27" class="edge">
<title>Node2&#45;&gt;Node10</title>
<path fill="none" stroke="midnightblue" d="M294.28,-392.3C280.21,-359.42 230.13,-242.39 210.74,-197.09"/>
<polygon fill="midnightblue" stroke="midnightblue" points="213.95,-195.7 206.8,-187.88 207.52,-198.45 213.95,-195.7"/>
</g>
<!-- Node11 -->
<g id="node11" class="node">
<title>Node11</title>
<g id="a_node11"><a xlink:href="_object3_d_8h.html" target="_top" xlink:title="Defines the Object3D class and the functions around it.">
<polygon fill="white" stroke="black" points="296.5,-336.5 296.5,-355.5 361.5,-355.5 361.5,-336.5 296.5,-336.5"/>
<text text-anchor="middle" x="329" y="-343.5" font-family="Helvetica,sans-Serif" font-size="10.00">Object3D.h</text>
</a>
</g>
</g>
<!-- Node2&#45;&gt;Node11 -->
<g id="edge15" class="edge">
<title>Node2&#45;&gt;Node11</title>
<path fill="none" stroke="midnightblue" d="M303.12,-392.08C307.41,-384.61 313.66,-373.72 318.94,-364.52"/>
<polygon fill="midnightblue" stroke="midnightblue" points="322.03,-366.17 323.98,-355.75 315.96,-362.68 322.03,-366.17"/>
</g>
<!-- Node4&#45;&gt;Node3 -->
<g id="edge5" class="edge">
<title>Node4&#45;&gt;Node3</title>
<path fill="none" stroke="midnightblue" d="M186.96,-56.44C159.99,-47.23 116.95,-32.51 87.17,-22.34"/>
<polygon fill="midnightblue" stroke="midnightblue" points="88.22,-19 77.63,-19.08 85.96,-25.62 88.22,-19"/>
</g>
<!-- Node5 -->
<g id="node5" class="node">
<title>Node5</title>
<g id="a_node5"><a xlink:title=" ">
<polygon fill="white" stroke="#bfbfbf" points="96,-0.5 96,-19.5 150,-19.5 150,-0.5 96,-0.5"/>
<text text-anchor="middle" x="123" y="-7.5" font-family="Helvetica,sans-Serif" font-size="10.00">iostream</text>
</a>
</g>
</g>
<!-- Node4&#45;&gt;Node5 -->
<g id="edge4" class="edge">
<title>Node4&#45;&gt;Node5</title>
<path fill="none" stroke="midnightblue" d="M197.7,-56.32C183.82,-47.9 162.51,-34.97 146.2,-25.07"/>
<polygon fill="midnightblue" stroke="midnightblue" points="147.63,-21.85 137.26,-19.65 144,-27.83 147.63,-21.85"/>
</g>
<!-- Node6 -->
<g id="node6" class="node">
<title>Node6</title>
<g id="a_node6"><a xlink:title=" ">
<polygon fill="white" stroke="#bfbfbf" points="168,-0.5 168,-19.5 266,-19.5 266,-0.5 168,-0.5"/>
<text text-anchor="middle" x="217" y="-7.5" font-family="Helvetica,sans-Serif" font-size="10.00">nlohmann/json.hpp</text>
</a>
</g>
</g>
<!-- Node4&#45;&gt;Node6 -->
<g id="edge6" class="edge">
<title>Node4&#45;&gt;Node6</title>
<path fill="none" stroke="midnightblue" d="M212.83,-56.08C213.48,-49.01 214.42,-38.86 215.24,-29.99"/>
<polygon fill="midnightblue" stroke="midnightblue" points="218.75,-30.03 216.19,-19.75 211.78,-29.39 218.75,-30.03"/>
</g>
<!-- Node7 -->
<g id="node7" class="node">
<title>Node7</title>
<g id="a_node7"><a xlink:title=" ">
<polygon fill="white" stroke="#bfbfbf" points="284.5,-0.5 284.5,-19.5 337.5,-19.5 337.5,-0.5 284.5,-0.5"/>
<text text-anchor="middle" x="311" y="-7.5" font-family="Helvetica,sans-Serif" font-size="10.00">fbxsdk.h</text>
</a>
</g>
</g>
<!-- Node4&#45;&gt;Node7 -->
<g id="edge7" class="edge">
<title>Node4&#45;&gt;Node7</title>
<path fill="none" stroke="midnightblue" d="M227.91,-56.32C243.64,-47.74 267.94,-34.49 286.21,-24.52"/>
<polygon fill="midnightblue" stroke="midnightblue" points="288.03,-27.52 295.13,-19.65 284.68,-21.37 288.03,-27.52"/>
</g>
<!-- Node8&#45;&gt;Node4 -->
<g id="edge9" class="edge">
<title>Node8&#45;&gt;Node4</title>
<path fill="none" stroke="midnightblue" d="M270.75,-112.32C260.2,-104.18 244.2,-91.84 231.56,-82.09"/>
<polygon fill="midnightblue" stroke="midnightblue" points="233.51,-79.17 223.45,-75.83 229.23,-84.71 233.51,-79.17"/>
</g>
<!-- Node9&#45;&gt;Node4 -->
<g id="edge11" class="edge">
<title>Node9&#45;&gt;Node4</title>
<path fill="none" stroke="midnightblue" d="M62.16,-224.5C72.79,-203.43 102.72,-147.92 140,-112 153.23,-99.25 170.66,-88.24 185.05,-80.31"/>
<polygon fill="midnightblue" stroke="midnightblue" points="186.81,-83.33 193.99,-75.55 183.52,-77.15 186.81,-83.33"/>
</g>
<!-- Node9&#45;&gt;Node10 -->
<g id="edge12" class="edge">
<title>Node9&#45;&gt;Node10</title>
<path fill="none" stroke="midnightblue" d="M80.98,-224.44C105.58,-215.28 144.77,-200.68 172.08,-190.52"/>
<polygon fill="midnightblue" stroke="midnightblue" points="173.4,-193.76 181.55,-186.99 170.96,-187.2 173.4,-193.76"/>
</g>
<!-- Node10&#45;&gt;Node4 -->
<g id="edge13" class="edge">
<title>Node10&#45;&gt;Node4</title>
<path fill="none" stroke="midnightblue" d="M203.71,-168.37C205.16,-150.62 208.51,-109.67 210.48,-85.6"/>
<polygon fill="midnightblue" stroke="midnightblue" points="213.97,-85.84 211.3,-75.59 206.99,-85.27 213.97,-85.84"/>
</g>
<!-- Node10&#45;&gt;Node8 -->
<g id="edge14" class="edge">
<title>Node10&#45;&gt;Node8</title>
<path fill="none" stroke="midnightblue" d="M215.69,-168.32C227.9,-159.98 246.58,-147.21 261,-137.35"/>
<polygon fill="midnightblue" stroke="midnightblue" points="263.06,-140.19 269.34,-131.65 259.11,-134.41 263.06,-140.19"/>
</g>
<!-- Node11&#45;&gt;Node4 -->
<g id="edge23" class="edge">
<title>Node11&#45;&gt;Node4</title>
<path fill="none" stroke="midnightblue" d="M361.55,-336.82C381.91,-330.11 407.18,-318.61 423,-300 442.49,-277.06 442,-265.1 442,-235 442,-235 442,-235 442,-177 442,-98.69 332.15,-76.08 264.28,-69.59"/>
<polygon fill="midnightblue" stroke="midnightblue" points="264.45,-66.09 254.19,-68.71 263.84,-73.06 264.45,-66.09"/>
</g>
<!-- Node11&#45;&gt;Node8 -->
<g id="edge24" class="edge">
<title>Node11&#45;&gt;Node8</title>
<path fill="none" stroke="midnightblue" d="M330.05,-336.11C331.33,-323.53 332.97,-299.87 330,-280 322.27,-228.26 300.95,-170 289.5,-141.17"/>
<polygon fill="midnightblue" stroke="midnightblue" points="292.64,-139.6 285.64,-131.64 286.15,-142.22 292.64,-139.6"/>
</g>
<!-- Node11&#45;&gt;Node9 -->
<g id="edge25" class="edge">
<title>Node11&#45;&gt;Node9</title>
<path fill="none" stroke="midnightblue" d="M296.29,-342.48C255.78,-338.28 185.57,-327.39 132,-300 108.11,-287.78 85.7,-266.12 71.93,-251.18"/>
<polygon fill="midnightblue" stroke="midnightblue" points="74.5,-248.79 65.22,-243.67 69.28,-253.46 74.5,-248.79"/>
</g>
<!-- Node11&#45;&gt;Node10 -->
<g id="edge26" class="edge">
<title>Node11&#45;&gt;Node10</title>
<path fill="none" stroke="midnightblue" d="M327.69,-336.36C324.04,-314.98 312.03,-258.81 282,-224 269.11,-209.05 249.96,-197.97 233.75,-190.55"/>
<polygon fill="midnightblue" stroke="midnightblue" points="234.68,-187.14 224.11,-186.39 231.91,-193.57 234.68,-187.14"/>
</g>
<!-- Node12 -->
<g id="node12" class="node">
<title>Node12</title>
<g id="a_node12"><a xlink:title=" ">
<polygon fill="white" stroke="#bfbfbf" points="372.5,-280.5 372.5,-299.5 413.5,-299.5 413.5,-280.5 372.5,-280.5"/>
<text text-anchor="middle" x="393" y="-287.5" font-family="Helvetica,sans-Serif" font-size="10.00">string</text>
</a>
</g>
</g>
<!-- Node11&#45;&gt;Node12 -->
<g id="edge16" class="edge">
<title>Node11&#45;&gt;Node12</title>
<path fill="none" stroke="midnightblue" d="M339.28,-336.32C348.84,-328.26 363.28,-316.08 374.78,-306.37"/>
<polygon fill="midnightblue" stroke="midnightblue" points="377.14,-308.96 382.53,-299.83 372.63,-303.61 377.14,-308.96"/>
</g>
<!-- Node13 -->
<g id="node13" class="node">
<title>Node13</title>
<g id="a_node13"><a xlink:href="_diffuse_material_8h.html" target="_top" xlink:title="Defines the DiffuseMaterial class.">
<polygon fill="white" stroke="black" points="141.5,-280.5 141.5,-299.5 230.5,-299.5 230.5,-280.5 141.5,-280.5"/>
<text text-anchor="middle" x="186" y="-287.5" font-family="Helvetica,sans-Serif" font-size="10.00">DiffuseMaterial.h</text>
</a>
</g>
</g>
<!-- Node11&#45;&gt;Node13 -->
<g id="edge17" class="edge">
<title>Node11&#45;&gt;Node13</title>
<path fill="none" stroke="midnightblue" d="M306.34,-336.44C282.6,-327.48 245.09,-313.31 218.26,-303.18"/>
<polygon fill="midnightblue" stroke="midnightblue" points="219.14,-299.77 208.55,-299.52 216.67,-306.32 219.14,-299.77"/>
</g>
<!-- Node13&#45;&gt;Node3 -->
<g id="edge18" class="edge">
<title>Node13&#45;&gt;Node3</title>
<path fill="none" stroke="midnightblue" d="M181.9,-280.38C163.46,-241.54 87.94,-82.47 62.45,-28.79"/>
<polygon fill="midnightblue" stroke="midnightblue" points="65.5,-27.06 58.05,-19.52 59.18,-30.06 65.5,-27.06"/>
</g>
<!-- Node13&#45;&gt;Node4 -->
<g id="edge19" class="edge">
<title>Node13&#45;&gt;Node4</title>
<path fill="none" stroke="midnightblue" d="M183.38,-280.43C177.67,-260.53 165.22,-209.75 173,-168 178.69,-137.47 193.28,-104.28 202.91,-84.58"/>
<polygon fill="midnightblue" stroke="midnightblue" points="206.06,-86.1 207.42,-75.59 199.81,-82.96 206.06,-86.1"/>
</g>
<!-- Node13&#45;&gt;Node8 -->
<g id="edge20" class="edge">
<title>Node13&#45;&gt;Node8</title>
<path fill="none" stroke="midnightblue" d="M191.16,-280.08C206.4,-253.72 251.42,-175.88 271.79,-140.66"/>
<polygon fill="midnightblue" stroke="midnightblue" points="275.07,-141.98 277.04,-131.57 269.01,-138.47 275.07,-141.98"/>
</g>
<!-- Node13&#45;&gt;Node9 -->
<g id="edge21" class="edge">
<title>Node13&#45;&gt;Node9</title>
<path fill="none" stroke="midnightblue" d="M165.72,-280.44C144.65,-271.56 111.48,-257.56 87.51,-247.45"/>
<polygon fill="midnightblue" stroke="midnightblue" points="88.76,-244.18 78.19,-243.52 86.04,-250.63 88.76,-244.18"/>
</g>
<!-- Node13&#45;&gt;Node10 -->
<g id="edge22" class="edge">
<title>Node13&#45;&gt;Node10</title>
<path fill="none" stroke="midnightblue" d="M187.33,-280.37C190.08,-262.62 196.41,-221.67 200.13,-197.6"/>
<polygon fill="midnightblue" stroke="midnightblue" points="203.6,-198.01 201.67,-187.59 196.69,-196.94 203.6,-198.01"/>
</g>
</g>
</svg>
        <g id="navigator" transform="translate(0 0)" fill="#404254">
                <rect fill="#f2f5e9" fill-opacity="0.5" stroke="#606060" stroke-width=".5" x="0" y="0" width="60" height="60"/>
                <use id="zoomplus" xlink:href="#zoomPlus" x="17" y="9" onmousedown="handleZoom(evt,'in')"/>
                <use id="zoomminus" xlink:href="#zoomMin" x="42" y="9" onmousedown="handleZoom(evt,'out')"/>
                <use id="reset" xlink:href="#resetDef" x="30" y="36" onmousedown="handleReset()"/>
                <g id="arrowUp" xlink:href="#dirArrow" transform="translate(30 24)" onmousedown="handlePan(0,-1)">
                  <use xlink:href="#rim" fill="#404040">
                        <set attributeName="fill" to="#808080" begin="arrowUp.mouseover" end="arrowUp.mouseout"/>
                  </use>
                  <path fill="none" stroke="white" stroke-width="1.5" d="M0,-3.0v7 M-2.5,-0.5L0,-3.0L2.5,-0.5"/>
                </g>
                <g id="arrowRight" xlink:href="#dirArrow" transform="rotate(90) translate(36 -43)" onmousedown="handlePan(1,0)">
                  <use xlink:href="#rim" fill="#404040">
                        <set attributeName="fill" to="#808080" begin="arrowRight.mouseover" end="arrowRight.mouseout"/>
                  </use>
                  <path fill="none" stroke="white" stroke-width="1.5" d="M0,-3.0v7 M-2.5,-0.5L0,-3.0L2.5,-0.5"/>
                </g>
                <g id="arrowDown" xlink:href="#dirArrow" transform="rotate(180) translate(-30 -48)" onmousedown="handlePan(0,1)">
                  <use xlink:href="#rim" fill="#404040">
                        <set attributeName="fill" to="#808080" begin="arrowDown.mouseover" end="arrowDown.mouseout"/>
                  </use>
                  <path fill="none" stroke="white" stroke-width="1.5" d="M0,-3.0v7 M-2.5,-0.5L0,-3.0L2.5,-0.5"/>
                </g>
                <g id="arrowLeft" xlink:href="#dirArrow" transform="rotate(270) translate(-36 17)" onmousedown="handlePan(-1,0)">
                  <use xlink:href="#rim" fill="#404040">
                        <set attributeName="fill" to="#808080" begin="arrowLeft.mouseover" end="arrowLeft.mouseout"/>
                  </use>
                  <path fill="none" stroke="white" stroke-width="1.5" d="M0,-3.0v7 M-2.5,-0.5L0,-3.0L2.5,-0.5"/>
                </g>
        </g>
        <svg viewBox="0 0 15 15" width="100%" height="30px" preserveAspectRatio="xMaxYMin meet">
         <g id="arrow_out" transform="scale(0.3 0.3)">
          <a xlink:href="_sphere_8cpp__incl_org.svg" target="_base">
           <rect id="button" ry="5" rx="5" y="6" x="6" height="38" width="38"
                fill="#f2f5e9" fill-opacity="0.5" stroke="#606060" stroke-width="1.0"/>
           <path id="arrow"
             d="M 11.500037,31.436501 C 11.940474,20.09759 22.043105,11.32322 32.158766,21.979434 L 37.068811,17.246167 C 37.068811,17.246167 37.088388,32 37.088388,32 L 22.160133,31.978069 C 22.160133,31.978069 26.997745,27.140456 26.997745,27.140456 C 18.528582,18.264221 13.291696,25.230495 11.500037,31.436501 z"
             style="fill:#404040;"/>
          </a>
         </g>
        </svg>
</svg>
