<?xml version="1.0" encoding="UTF-8" standalone="no"?>
<!DOCTYPE svg PUBLIC "-//W3C//DTD SVG 1.1//EN"
 "http://www.w3.org/Graphics/SVG/1.1/DTD/svg11.dtd">
<!-- Generated by graphviz version 2.44.1 (20200629.0800)
 -->
<!-- Title: Material Pages: 1 -->
<svg width="307pt" height="84pt"
 viewBox="0.00 0.00 306.50 84.00" xmlns="http://www.w3.org/2000/svg" xmlns:xlink="http://www.w3.org/1999/xlink">
<g id="graph0" class="graph" transform="scale(1 1) rotate(0) translate(4 80)">
<title>Material</title>
<polygon fill="white" stroke="transparent" points="-4,4 -4,-80 302.5,-80 302.5,4 -4,4"/>
<!-- Node1 -->
<g id="node1" class="node">
<title>Node1</title>
<g id="a_node1"><a xlink:title="Abstrat class that models a material.">
<polygon fill="#bfbfbf" stroke="black" points="119.5,-56.5 119.5,-75.5 170.5,-75.5 170.5,-56.5 119.5,-56.5"/>
<text text-anchor="middle" x="145" y="-63.5" font-family="Helvetica,sans-Serif" font-size="10.00">Material</text>
</a>
</g>
</g>
<!-- Node2 -->
<g id="node2" class="node">
<title>Node2</title>
<g id="a_node2"><a xlink:href="class_diffuse_material.html" target="_top" xlink:title="Models a diffuse material.">
<polygon fill="white" stroke="black" points="0,-0.5 0,-19.5 80,-19.5 80,-0.5 0,-0.5"/>
<text text-anchor="middle" x="40" y="-7.5" font-family="Helvetica,sans-Serif" font-size="10.00">DiffuseMaterial</text>
</a>
</g>
</g>
<!-- Node1&#45;&gt;Node2 -->
<g id="edge1" class="edge">
<title>Node1&#45;&gt;Node2</title>
<path fill="none" stroke="midnightblue" d="M119.19,-51.73C99.75,-41.73 73.65,-28.31 56.83,-19.65"/>
<polygon fill="midnightblue" stroke="midnightblue" points="117.64,-54.86 128.13,-56.32 120.84,-48.64 117.64,-54.86"/>
</g>
<!-- Node3 -->
<g id="node3" class="node">
<title>Node3</title>
<g id="a_node3"><a xlink:href="class_refractive_material.html" target="_top" xlink:title="Models a refractive material.">
<polygon fill="white" stroke="black" points="98.5,-0.5 98.5,-19.5 191.5,-19.5 191.5,-0.5 98.5,-0.5"/>
<text text-anchor="middle" x="145" y="-7.5" font-family="Helvetica,sans-Serif" font-size="10.00">RefractiveMaterial</text>
</a>
</g>
</g>
<!-- Node1&#45;&gt;Node3 -->
<g id="edge2" class="edge">
<title>Node1&#45;&gt;Node3</title>
<path fill="none" stroke="midnightblue" d="M145,-45.8C145,-36.91 145,-26.78 145,-19.75"/>
<polygon fill="midnightblue" stroke="midnightblue" points="141.5,-46.08 145,-56.08 148.5,-46.08 141.5,-46.08"/>
</g>
<!-- Node4 -->
<g id="node4" class="node">
<title>Node4</title>
<g id="a_node4"><a xlink:href="class_specular_material.html" target="_top" xlink:title="Models a specular material.">
<polygon fill="white" stroke="black" points="209.5,-0.5 209.5,-19.5 298.5,-19.5 298.5,-0.5 209.5,-0.5"/>
<text text-anchor="middle" x="254" y="-7.5" font-family="Helvetica,sans-Serif" font-size="10.00">SpecularMaterial</text>
</a>
</g>
</g>
<!-- Node1&#45;&gt;Node4 -->
<g id="edge3" class="edge">
<title>Node1&#45;&gt;Node4</title>
<path fill="none" stroke="midnightblue" d="M171.52,-51.86C191.73,-41.85 218.99,-28.35 236.53,-19.65"/>
<polygon fill="midnightblue" stroke="midnightblue" points="169.92,-48.75 162.51,-56.32 173.03,-55.02 169.92,-48.75"/>
</g>
</g>
</svg>
