<?xml version="1.0" encoding="UTF-8" standalone="no"?>
<!DOCTYPE svg PUBLIC "-//W3C//DTD SVG 1.1//EN"
 "http://www.w3.org/Graphics/SVG/1.1/DTD/svg11.dtd">
<!-- Generated by graphviz version 2.44.1 (20200629.0800)
 -->
<!-- Title: Graphical Class Hierarchy Pages: 1 -->
<svg width="151pt" height="66pt"
 viewBox="0.00 0.00 151.00 66.00" xmlns="http://www.w3.org/2000/svg" xmlns:xlink="http://www.w3.org/1999/xlink">
<g id="graph0" class="graph" transform="scale(1 1) rotate(0) translate(4 62)">
<title>Graphical Class Hierarchy</title>
<polygon fill="white" stroke="transparent" points="-4,4 -4,-62 147,-62 147,4 -4,4"/>
<!-- Node0 -->
<g id="node1" class="node">
<title>Node0</title>
<g id="a_node1"><a xlink:href="class_object3_d.html" target="_top" xlink:title="Abstract class for a three&#45;dimentional object.">
<polygon fill="white" stroke="black" points="0,-19.5 0,-38.5 57,-38.5 57,-19.5 0,-19.5"/>
<text text-anchor="middle" x="28.5" y="-26.5" font-family="Helvetica,sans-Serif" font-size="10.00">Object3D</text>
</a>
</g>
</g>
<!-- Node1 -->
<g id="node2" class="node">
<title>Node1</title>
<g id="a_node2"><a xlink:href="class_sphere.html" target="_top" xlink:title="A sphere described by its center and its radius.">
<polygon fill="white" stroke="black" points="94.5,-38.5 94.5,-57.5 141.5,-57.5 141.5,-38.5 94.5,-38.5"/>
<text text-anchor="middle" x="118" y="-45.5" font-family="Helvetica,sans-Serif" font-size="10.00">Sphere</text>
</a>
</g>
</g>
<!-- Node0&#45;&gt;Node1 -->
<g id="edge1" class="edge">
<title>Node0&#45;&gt;Node1</title>
<path fill="none" stroke="midnightblue" d="M67.08,-37.16C76.4,-39.19 86.12,-41.29 94.47,-43.11"/>
<polygon fill="midnightblue" stroke="midnightblue" points="67.7,-33.71 57.19,-35.01 66.22,-40.55 67.7,-33.71"/>
</g>
<!-- Node2 -->
<g id="node3" class="node">
<title>Node2</title>
<g id="a_node3"><a xlink:href="class_triangle.html" target="_top" xlink:title="A triangle defined by its three vertices.">
<polygon fill="white" stroke="black" points="93,-0.5 93,-19.5 143,-19.5 143,-0.5 93,-0.5"/>
<text text-anchor="middle" x="118" y="-7.5" font-family="Helvetica,sans-Serif" font-size="10.00">Triangle</text>
</a>
</g>
</g>
<!-- Node0&#45;&gt;Node2 -->
<g id="edge2" class="edge">
<title>Node0&#45;&gt;Node2</title>
<path fill="none" stroke="midnightblue" d="M67.14,-20.83C75.81,-18.94 84.81,-16.99 92.74,-15.27"/>
<polygon fill="midnightblue" stroke="midnightblue" points="66.22,-17.45 57.19,-22.99 67.7,-24.29 66.22,-17.45"/>
</g>
</g>
</svg>
