<?xml version="1.0" encoding="UTF-8" standalone="no"?>
<!DOCTYPE svg PUBLIC "-//W3C//DTD SVG 1.1//EN"
 "http://www.w3.org/Graphics/SVG/1.1/DTD/svg11.dtd">
<!-- Generated by graphviz version 2.44.1 (20200629.0800)
 -->
<!-- Title: Graphical Class Hierarchy Pages: 1 -->
<svg width="188pt" height="104pt"
 viewBox="0.00 0.00 188.00 104.00" xmlns="http://www.w3.org/2000/svg" xmlns:xlink="http://www.w3.org/1999/xlink">
<g id="graph0" class="graph" transform="scale(1 1) rotate(0) translate(4 100)">
<title>Graphical Class Hierarchy</title>
<polygon fill="white" stroke="transparent" points="-4,4 -4,-100 184,-100 184,4 -4,4"/>
<!-- Node0 -->
<g id="node1" class="node">
<title>Node0</title>
<g id="a_node1"><a xlink:href="class_material.html" target="_top" xlink:title="Abstrat class that models a material.">
<polygon fill="white" stroke="black" points="0,-38.5 0,-57.5 51,-57.5 51,-38.5 0,-38.5"/>
<text text-anchor="middle" x="25.5" y="-45.5" font-family="Helvetica,sans-Serif" font-size="10.00">Material</text>
</a>
</g>
</g>
<!-- Node1 -->
<g id="node2" class="node">
<title>Node1</title>
<g id="a_node2"><a xlink:href="class_diffuse_material.html" target="_top" xlink:title="Models a diffuse material.">
<polygon fill="white" stroke="black" points="93.5,-76.5 93.5,-95.5 173.5,-95.5 173.5,-76.5 93.5,-76.5"/>
<text text-anchor="middle" x="133.5" y="-83.5" font-family="Helvetica,sans-Serif" font-size="10.00">DiffuseMaterial</text>
</a>
</g>
</g>
<!-- Node0&#45;&gt;Node1 -->
<g id="edge1" class="edge">
<title>Node0&#45;&gt;Node1</title>
<path fill="none" stroke="midnightblue" d="M60.78,-60.29C75.39,-65.53 92.17,-71.54 105.82,-76.44"/>
<polygon fill="midnightblue" stroke="midnightblue" points="61.68,-56.89 51.08,-56.81 59.32,-63.48 61.68,-56.89"/>
</g>
<!-- Node2 -->
<g id="node3" class="node">
<title>Node2</title>
<g id="a_node3"><a xlink:href="class_refractive_material.html" target="_top" xlink:title="Models a refractive material.">
<polygon fill="white" stroke="black" points="87,-38.5 87,-57.5 180,-57.5 180,-38.5 87,-38.5"/>
<text text-anchor="middle" x="133.5" y="-45.5" font-family="Helvetica,sans-Serif" font-size="10.00">RefractiveMaterial</text>
</a>
</g>
</g>
<!-- Node0&#45;&gt;Node2 -->
<g id="edge2" class="edge">
<title>Node0&#45;&gt;Node2</title>
<path fill="none" stroke="midnightblue" d="M61.34,-48C69.48,-48 78.28,-48 86.82,-48"/>
<polygon fill="midnightblue" stroke="midnightblue" points="61.08,-44.5 51.08,-48 61.08,-51.5 61.08,-44.5"/>
</g>
<!-- Node3 -->
<g id="node4" class="node">
<title>Node3</title>
<g id="a_node4"><a xlink:href="class_specular_material.html" target="_top" xlink:title="Models a specular material.">
<polygon fill="white" stroke="black" points="89,-0.5 89,-19.5 178,-19.5 178,-0.5 89,-0.5"/>
<text text-anchor="middle" x="133.5" y="-7.5" font-family="Helvetica,sans-Serif" font-size="10.00">SpecularMaterial</text>
</a>
</g>
</g>
<!-- Node0&#45;&gt;Node3 -->
<g id="edge3" class="edge">
<title>Node0&#45;&gt;Node3</title>
<path fill="none" stroke="midnightblue" d="M60.78,-35.71C75.39,-30.47 92.17,-24.46 105.82,-19.56"/>
<polygon fill="midnightblue" stroke="midnightblue" points="59.32,-32.52 51.08,-39.19 61.68,-39.11 59.32,-32.52"/>
</g>
</g>
</svg>
