<?xml version="1.0" encoding="UTF-8" standalone="no"?>
<!DOCTYPE svg PUBLIC "-//W3C//DTD SVG 1.1//EN"
 "http://www.w3.org/Graphics/SVG/1.1/DTD/svg11.dtd">
<!-- Generated by graphviz version 2.44.1 (20200629.0800)
 -->
<!-- Title: D:/PathTracer/PathTracer/main.cpp Pages: 1 -->
<!--zoomable 767 -->
<svg id="main" version="1.1" xmlns="http://www.w3.org/2000/svg" xmlns:xlink="http://www.w3.org/1999/xlink" xml:space="preserve" onload="init(evt)">
<style type="text/css"><![CDATA[
.edge:hover path { stroke: red; }
.edge:hover polygon { stroke: red; fill: red; }
]]></style>
<script type="text/javascript"><![CDATA[
var edges = document.getElementsByTagName('g');
if (edges && edges.length) {
  for (var i=0;i<edges.length;i++) {
    if (edges[i].id.substr(0,4)=='edge') {
      edges[i].setAttribute('class','edge');
    }
  }
}
]]></script>
        <defs>
                <circle id="rim" cx="0" cy="0" r="7"/>
                <circle id="rim2" cx="0" cy="0" r="3.5"/>
                <g id="zoomPlus">
                        <use xlink:href="#rim" fill="#404040">
                                <set attributeName="fill" to="#808080" begin="zoomplus.mouseover" end="zoomplus.mouseout"/>
                        </use>
                        <path d="M-4,0h8M0,-4v8" fill="none" stroke="white" stroke-width="1.5" pointer-events="none"/>
                </g>
                <g id="zoomMin">
                        <use xlink:href="#rim" fill="#404040">
                                <set attributeName="fill" to="#808080" begin="zoomminus.mouseover" end="zoomminus.mouseout"/>
                        </use>
                        <path d="M-4,0h8" fill="none" stroke="white" stroke-width="1.5" pointer-events="none"/>
                </g>
                <g id="dirArrow">
                        <path fill="none" stroke="white" stroke-width="1.5" d="M0,-3.0v7 M-2.5,-0.5L0,-3.0L2.5,-0.5"/>
                </g>
               <g id="resetDef">
                       <use xlink:href="#rim2" fill="#404040">
                               <set attributeName="fill" to="#808080" begin="reset.mouseover" end="reset.mouseout"/>
                       </use>
               </g>
        </defs>

<script type="text/javascript">
var viewWidth = 1055;
var viewHeight = 767;
var sectionId = 'dynsection-0';
</script>
<script xlink:href="svgpan.js"/>
<svg id="graph" class="graph">
<g id="viewport">
<title>D:/PathTracer/PathTracer/main.cpp</title>
<polygon fill="white" stroke="transparent" points="-4,4 -4,-763 1050.5,-763 1050.5,4 -4,4"/>
<!-- Node1 -->
<g id="node1" class="node">
<title>Node1</title>
<g id="a_node1"><a xlink:title=" ">
<polygon fill="#bfbfbf" stroke="black" points="446,-728.5 446,-758.5 573,-758.5 573,-728.5 446,-728.5"/>
<text text-anchor="start" x="454" y="-746.5" font-family="Helvetica,sans-Serif" font-size="10.00">D:/PathTracer/PathTracer</text>
<text text-anchor="middle" x="509.5" y="-735.5" font-family="Helvetica,sans-Serif" font-size="10.00">/main.cpp</text>
</a>
</g>
</g>
<!-- Node2 -->
<g id="node2" class="node">
<title>Node2</title>
<g id="a_node2"><a xlink:href="_interface_8h.html" target="_top" xlink:title="Defines some functions for the interface.">
<polygon fill="white" stroke="black" points="478.5,-672.5 478.5,-691.5 540.5,-691.5 540.5,-672.5 478.5,-672.5"/>
<text text-anchor="middle" x="509.5" y="-679.5" font-family="Helvetica,sans-Serif" font-size="10.00">Interface.h</text>
</a>
</g>
</g>
<!-- Node1&#45;&gt;Node2 -->
<g id="edge1" class="edge">
<title>Node1&#45;&gt;Node2</title>
<path fill="none" stroke="midnightblue" d="M509.5,-728.4C509.5,-720.47 509.5,-710.46 509.5,-701.86"/>
<polygon fill="midnightblue" stroke="midnightblue" points="513,-701.66 509.5,-691.66 506,-701.66 513,-701.66"/>
</g>
<!-- Node3 -->
<g id="node3" class="node">
<title>Node3</title>
<g id="a_node3"><a xlink:href="_scene_8h.html" target="_top" xlink:title="Defines the Scene class and the functions around it.">
<polygon fill="white" stroke="black" points="483,-616.5 483,-635.5 536,-635.5 536,-616.5 483,-616.5"/>
<text text-anchor="middle" x="509.5" y="-623.5" font-family="Helvetica,sans-Serif" font-size="10.00">Scene.h</text>
</a>
</g>
</g>
<!-- Node2&#45;&gt;Node3 -->
<g id="edge2" class="edge">
<title>Node2&#45;&gt;Node3</title>
<path fill="none" stroke="midnightblue" d="M509.5,-672.08C509.5,-665.01 509.5,-654.86 509.5,-645.99"/>
<polygon fill="midnightblue" stroke="midnightblue" points="513,-645.75 509.5,-635.75 506,-645.75 513,-645.75"/>
</g>
<!-- Node4 -->
<g id="node4" class="node">
<title>Node4</title>
<g id="a_node4"><a xlink:title=" ">
<polygon fill="white" stroke="#bfbfbf" points="27.5,-560.5 27.5,-579.5 71.5,-579.5 71.5,-560.5 27.5,-560.5"/>
<text text-anchor="middle" x="49.5" y="-567.5" font-family="Helvetica,sans-Serif" font-size="10.00">omp.h</text>
</a>
</g>
</g>
<!-- Node3&#45;&gt;Node4 -->
<g id="edge3" class="edge">
<title>Node3&#45;&gt;Node4</title>
<path fill="none" stroke="midnightblue" d="M482.53,-623.45C415.15,-619.28 234.19,-606.35 85.5,-580 84.25,-579.78 82.98,-579.54 81.7,-579.28"/>
<polygon fill="midnightblue" stroke="midnightblue" points="82.39,-575.85 71.86,-577.1 80.87,-582.68 82.39,-575.85"/>
</g>
<!-- Node5 -->
<g id="node5" class="node">
<title>Node5</title>
<g id="a_node5"><a xlink:href="_double_matrix33_8h.html" target="_top" xlink:title="Defines the DoubleMatrix33 class and the functions around it.">
<polygon fill="white" stroke="black" points="571.5,-392.5 571.5,-411.5 663.5,-411.5 663.5,-392.5 571.5,-392.5"/>
<text text-anchor="middle" x="617.5" y="-399.5" font-family="Helvetica,sans-Serif" font-size="10.00">DoubleMatrix33.h</text>
</a>
</g>
</g>
<!-- Node3&#45;&gt;Node5 -->
<g id="edge4" class="edge">
<title>Node3&#45;&gt;Node5</title>
<path fill="none" stroke="midnightblue" d="M529.82,-616.39C560.27,-602.23 616.57,-570.85 639.5,-524 656.09,-490.1 639.28,-445.33 627.29,-420.86"/>
<polygon fill="midnightblue" stroke="midnightblue" points="630.26,-418.98 622.55,-411.71 624.04,-422.2 630.26,-418.98"/>
</g>
<!-- Node14 -->
<g id="node14" class="node">
<title>Node14</title>
<g id="a_node14"><a xlink:title=" ">
<polygon fill="white" stroke="#bfbfbf" points="654,-0.5 654,-19.5 707,-19.5 707,-0.5 654,-0.5"/>
<text text-anchor="middle" x="680.5" y="-7.5" font-family="Helvetica,sans-Serif" font-size="10.00">fbxsdk.h</text>
</a>
</g>
</g>
<!-- Node3&#45;&gt;Node14 -->
<g id="edge44" class="edge">
<title>Node3&#45;&gt;Node14</title>
<path fill="none" stroke="midnightblue" d="M536.29,-621.75C588,-613.83 696.5,-588.45 696.5,-515 696.5,-515 696.5,-515 696.5,-121 696.5,-88.63 689.63,-51.44 684.89,-29.66"/>
<polygon fill="midnightblue" stroke="midnightblue" points="688.28,-28.76 682.66,-19.78 681.45,-30.3 688.28,-28.76"/>
</g>
<!-- Node16 -->
<g id="node16" class="node">
<title>Node16</title>
<g id="a_node16"><a xlink:href="_k_d_tree_node_8h.html" target="_top" xlink:title="Defines the KDTreeNode class and the functions around it.">
<polygon fill="white" stroke="black" points="376.5,-560.5 376.5,-579.5 456.5,-579.5 456.5,-560.5 376.5,-560.5"/>
<text text-anchor="middle" x="416.5" y="-567.5" font-family="Helvetica,sans-Serif" font-size="10.00">KDTreeNode.h</text>
</a>
</g>
</g>
<!-- Node3&#45;&gt;Node16 -->
<g id="edge15" class="edge">
<title>Node3&#45;&gt;Node16</title>
<path fill="none" stroke="midnightblue" d="M494.56,-616.32C479.91,-607.82 457.37,-594.73 440.26,-584.8"/>
<polygon fill="midnightblue" stroke="midnightblue" points="441.81,-581.65 431.4,-579.65 438.3,-587.7 441.81,-581.65"/>
</g>
<!-- Node28 -->
<g id="node28" class="node">
<title>Node28</title>
<g id="a_node28"><a xlink:href="_object3_d_group_8h.html" target="_top" xlink:title="Defines the Object3DGroup class and the functions around it.">
<polygon fill="white" stroke="black" points="263.5,-560.5 263.5,-579.5 355.5,-579.5 355.5,-560.5 263.5,-560.5"/>
<text text-anchor="middle" x="309.5" y="-567.5" font-family="Helvetica,sans-Serif" font-size="10.00">Object3DGroup.h</text>
</a>
</g>
</g>
<!-- Node3&#45;&gt;Node28 -->
<g id="edge34" class="edge">
<title>Node3&#45;&gt;Node28</title>
<path fill="none" stroke="midnightblue" d="M482.94,-617.83C449.22,-608.72 390.66,-592.91 351.01,-582.21"/>
<polygon fill="midnightblue" stroke="midnightblue" points="351.69,-578.76 341.12,-579.54 349.86,-585.52 351.69,-578.76"/>
</g>
<!-- Node30 -->
<g id="node30" class="node">
<title>Node30</title>
<g id="a_node30"><a xlink:href="_perspective_camera_8h.html" target="_top" xlink:title="Defines the PerspectiveCamera class.">
<polygon fill="white" stroke="black" points="0,-280.5 0,-299.5 109,-299.5 109,-280.5 0,-280.5"/>
<text text-anchor="middle" x="54.5" y="-287.5" font-family="Helvetica,sans-Serif" font-size="10.00">PerspectiveCamera.h</text>
</a>
</g>
</g>
<!-- Node3&#45;&gt;Node30 -->
<g id="edge37" class="edge">
<title>Node3&#45;&gt;Node30</title>
<path fill="none" stroke="midnightblue" d="M482.91,-623.63C392.06,-618.24 99.5,-594.69 99.5,-515 99.5,-515 99.5,-515 99.5,-401 99.5,-365.93 79.66,-328.94 66.33,-308.04"/>
<polygon fill="midnightblue" stroke="midnightblue" points="69.2,-306.03 60.76,-299.63 63.37,-309.9 69.2,-306.03"/>
</g>
<!-- Node31 -->
<g id="node31" class="node">
<title>Node31</title>
<g id="a_node31"><a xlink:href="_picture_8h.html" target="_top" xlink:title="Defines the Picture class and the functions around it.">
<polygon fill="white" stroke="black" points="481.5,-560.5 481.5,-579.5 537.5,-579.5 537.5,-560.5 481.5,-560.5"/>
<text text-anchor="middle" x="509.5" y="-567.5" font-family="Helvetica,sans-Serif" font-size="10.00">Picture.h</text>
</a>
</g>
</g>
<!-- Node3&#45;&gt;Node31 -->
<g id="edge39" class="edge">
<title>Node3&#45;&gt;Node31</title>
<path fill="none" stroke="midnightblue" d="M509.5,-616.08C509.5,-609.01 509.5,-598.86 509.5,-589.99"/>
<polygon fill="midnightblue" stroke="midnightblue" points="513,-589.75 509.5,-579.75 506,-589.75 513,-589.75"/>
</g>
<!-- Node35 -->
<g id="node35" class="node">
<title>Node35</title>
<g id="a_node35"><a xlink:title=" ">
<polygon fill="white" stroke="#bfbfbf" points="724.5,-560.5 724.5,-579.5 858.5,-579.5 858.5,-560.5 724.5,-560.5"/>
<text text-anchor="middle" x="791.5" y="-567.5" font-family="Helvetica,sans-Serif" font-size="10.00">fbxsdk/fileio/fbxiosettings.h</text>
</a>
</g>
</g>
<!-- Node3&#45;&gt;Node35 -->
<g id="edge45" class="edge">
<title>Node3&#45;&gt;Node35</title>
<path fill="none" stroke="midnightblue" d="M536.03,-619.92C581.78,-611.16 676.41,-593.04 736.78,-581.48"/>
<polygon fill="midnightblue" stroke="midnightblue" points="737.73,-584.86 746.89,-579.54 736.41,-577.99 737.73,-584.86"/>
</g>
<!-- Node36 -->
<g id="node36" class="node">
<title>Node36</title>
<g id="a_node36"><a xlink:title=" ">
<polygon fill="white" stroke="#bfbfbf" points="876.5,-560.5 876.5,-579.5 1046.5,-579.5 1046.5,-560.5 876.5,-560.5"/>
<text text-anchor="middle" x="961.5" y="-567.5" font-family="Helvetica,sans-Serif" font-size="10.00">fbxsdk/utils/fbxgeometryconverter.h</text>
</a>
</g>
</g>
<!-- Node3&#45;&gt;Node36 -->
<g id="edge46" class="edge">
<title>Node3&#45;&gt;Node36</title>
<path fill="none" stroke="midnightblue" d="M536.09,-621.82C602.2,-613.93 776.16,-593.14 880.01,-580.74"/>
<polygon fill="midnightblue" stroke="midnightblue" points="880.63,-584.19 890.15,-579.52 879.8,-577.24 880.63,-584.19"/>
</g>
<!-- Node6 -->
<g id="node6" class="node">
<title>Node6</title>
<g id="a_node6"><a xlink:href="_double_vec3_d_8h.html" target="_top" xlink:title="Defines the DoubleVec3D class and the functions around it.">
<polygon fill="white" stroke="black" points="330.5,-112.5 330.5,-131.5 414.5,-131.5 414.5,-112.5 330.5,-112.5"/>
<text text-anchor="middle" x="372.5" y="-119.5" font-family="Helvetica,sans-Serif" font-size="10.00">DoubleVec3D.h</text>
</a>
</g>
</g>
<!-- Node5&#45;&gt;Node6 -->
<g id="edge5" class="edge">
<title>Node5&#45;&gt;Node6</title>
<path fill="none" stroke="midnightblue" d="M610.96,-392.41C598.05,-374.56 570.5,-331.7 570.5,-291 570.5,-291 570.5,-291 570.5,-233 570.5,-166.27 483.51,-139.68 424.85,-129.33"/>
<polygon fill="midnightblue" stroke="midnightblue" points="425.41,-125.87 414.98,-127.69 424.27,-132.78 425.41,-125.87"/>
</g>
<!-- Node7 -->
<g id="node7" class="node">
<title>Node7</title>
<g id="a_node7"><a xlink:href="_interface_gestion_8h.html" target="_top" xlink:title="Defines functions that are used when drawing the interface.">
<polygon fill="white" stroke="black" points="325,-56.5 325,-75.5 420,-75.5 420,-56.5 325,-56.5"/>
<text text-anchor="middle" x="372.5" y="-63.5" font-family="Helvetica,sans-Serif" font-size="10.00">InterfaceGestion.h</text>
</a>
</g>
</g>
<!-- Node6&#45;&gt;Node7 -->
<g id="edge6" class="edge">
<title>Node6&#45;&gt;Node7</title>
<path fill="none" stroke="midnightblue" d="M372.5,-112.08C372.5,-105.01 372.5,-94.86 372.5,-85.99"/>
<polygon fill="midnightblue" stroke="midnightblue" points="376,-85.75 372.5,-75.75 369,-85.75 376,-85.75"/>
</g>
<!-- Node8 -->
<g id="node8" class="node">
<title>Node8</title>
<g id="a_node8"><a xlink:title=" ">
<polygon fill="white" stroke="#bfbfbf" points="519.5,-0.5 519.5,-19.5 565.5,-19.5 565.5,-0.5 519.5,-0.5"/>
<text text-anchor="middle" x="542.5" y="-7.5" font-family="Helvetica,sans-Serif" font-size="10.00">chrono</text>
</a>
</g>
</g>
<!-- Node7&#45;&gt;Node8 -->
<g id="edge7" class="edge">
<title>Node7&#45;&gt;Node8</title>
<path fill="none" stroke="midnightblue" d="M399.44,-56.44C429.26,-46.97 477.35,-31.7 509.43,-21.5"/>
<polygon fill="midnightblue" stroke="midnightblue" points="510.77,-24.75 519.24,-18.39 508.65,-18.08 510.77,-24.75"/>
</g>
<!-- Node9 -->
<g id="node9" class="node">
<title>Node9</title>
<g id="a_node9"><a xlink:title=" ">
<polygon fill="white" stroke="#bfbfbf" points="584,-0.5 584,-19.5 633,-19.5 633,-0.5 584,-0.5"/>
<text text-anchor="middle" x="608.5" y="-7.5" font-family="Helvetica,sans-Serif" font-size="10.00">fstream</text>
</a>
</g>
</g>
<!-- Node7&#45;&gt;Node9 -->
<g id="edge8" class="edge">
<title>Node7&#45;&gt;Node9</title>
<path fill="none" stroke="midnightblue" d="M413.23,-56.42C452.03,-48.14 512.31,-34.99 573.77,-20.1"/>
<polygon fill="midnightblue" stroke="midnightblue" points="574.76,-23.47 583.65,-17.7 573.1,-16.66 574.76,-23.47"/>
</g>
<!-- Node10 -->
<g id="node10" class="node">
<title>Node10</title>
<g id="a_node10"><a xlink:title=" ">
<polygon fill="white" stroke="#bfbfbf" points="118,-0.5 118,-19.5 167,-19.5 167,-0.5 118,-0.5"/>
<text text-anchor="middle" x="142.5" y="-7.5" font-family="Helvetica,sans-Serif" font-size="10.00">random</text>
</a>
</g>
</g>
<!-- Node7&#45;&gt;Node10 -->
<g id="edge9" class="edge">
<title>Node7&#45;&gt;Node10</title>
<path fill="none" stroke="midnightblue" d="M333.73,-56.5C296.22,-48.18 237.5,-34.93 177.4,-20.16"/>
<polygon fill="midnightblue" stroke="midnightblue" points="177.91,-16.68 167.36,-17.68 176.23,-23.48 177.91,-16.68"/>
</g>
<!-- Node11 -->
<g id="node11" class="node">
<title>Node11</title>
<g id="a_node11"><a xlink:title=" ">
<polygon fill="white" stroke="#bfbfbf" points="185.5,-0.5 185.5,-19.5 239.5,-19.5 239.5,-0.5 185.5,-0.5"/>
<text text-anchor="middle" x="212.5" y="-7.5" font-family="Helvetica,sans-Serif" font-size="10.00">iostream</text>
</a>
</g>
</g>
<!-- Node7&#45;&gt;Node11 -->
<g id="edge10" class="edge">
<title>Node7&#45;&gt;Node11</title>
<path fill="none" stroke="midnightblue" d="M347.15,-56.44C320.23,-47.36 277.5,-32.94 247.41,-22.78"/>
<polygon fill="midnightblue" stroke="midnightblue" points="248.33,-19.4 237.73,-19.52 246.09,-26.03 248.33,-19.4"/>
</g>
<!-- Node12 -->
<g id="node12" class="node">
<title>Node12</title>
<g id="a_node12"><a xlink:title=" ">
<polygon fill="white" stroke="#bfbfbf" points="258,-0.5 258,-19.5 305,-19.5 305,-0.5 258,-0.5"/>
<text text-anchor="middle" x="281.5" y="-7.5" font-family="Helvetica,sans-Serif" font-size="10.00">math.h</text>
</a>
</g>
</g>
<!-- Node7&#45;&gt;Node12 -->
<g id="edge11" class="edge">
<title>Node7&#45;&gt;Node12</title>
<path fill="none" stroke="midnightblue" d="M357.88,-56.32C343.55,-47.82 321.49,-34.73 304.75,-24.8"/>
<polygon fill="midnightblue" stroke="midnightblue" points="306.47,-21.75 296.08,-19.65 302.9,-27.77 306.47,-21.75"/>
</g>
<!-- Node13 -->
<g id="node13" class="node">
<title>Node13</title>
<g id="a_node13"><a xlink:title=" ">
<polygon fill="white" stroke="#bfbfbf" points="323.5,-0.5 323.5,-19.5 421.5,-19.5 421.5,-0.5 323.5,-0.5"/>
<text text-anchor="middle" x="372.5" y="-7.5" font-family="Helvetica,sans-Serif" font-size="10.00">nlohmann/json.hpp</text>
</a>
</g>
</g>
<!-- Node7&#45;&gt;Node13 -->
<g id="edge12" class="edge">
<title>Node7&#45;&gt;Node13</title>
<path fill="none" stroke="midnightblue" d="M372.5,-56.08C372.5,-49.01 372.5,-38.86 372.5,-29.99"/>
<polygon fill="midnightblue" stroke="midnightblue" points="376,-29.75 372.5,-19.75 369,-29.75 376,-29.75"/>
</g>
<!-- Node7&#45;&gt;Node14 -->
<g id="edge13" class="edge">
<title>Node7&#45;&gt;Node14</title>
<path fill="none" stroke="midnightblue" d="M420.48,-58C474.6,-49.88 565.17,-35.58 642.5,-20 642.97,-19.91 643.43,-19.81 643.9,-19.71"/>
<polygon fill="midnightblue" stroke="midnightblue" points="644.95,-23.07 653.97,-17.52 643.46,-16.23 644.95,-23.07"/>
</g>
<!-- Node15 -->
<g id="node15" class="node">
<title>Node15</title>
<g id="a_node15"><a xlink:title=" ">
<polygon fill="white" stroke="#bfbfbf" points="439.5,-0.5 439.5,-19.5 501.5,-19.5 501.5,-0.5 439.5,-0.5"/>
<text text-anchor="middle" x="470.5" y="-7.5" font-family="Helvetica,sans-Serif" font-size="10.00">windows.h</text>
</a>
</g>
</g>
<!-- Node7&#45;&gt;Node15 -->
<g id="edge14" class="edge">
<title>Node7&#45;&gt;Node15</title>
<path fill="none" stroke="midnightblue" d="M388.25,-56.32C403.82,-47.74 427.88,-34.49 445.96,-24.52"/>
<polygon fill="midnightblue" stroke="midnightblue" points="447.72,-27.55 454.79,-19.65 444.35,-21.42 447.72,-27.55"/>
</g>
<!-- Node17 -->
<g id="node17" class="node">
<title>Node17</title>
<g id="a_node17"><a xlink:href="_interface_creation_8h.html" target="_top" xlink:title="Defines functions that are used to interactively create 3D objects and materials.">
<polygon fill="white" stroke="black" points="260.5,-504.5 260.5,-523.5 358.5,-523.5 358.5,-504.5 260.5,-504.5"/>
<text text-anchor="middle" x="309.5" y="-511.5" font-family="Helvetica,sans-Serif" font-size="10.00">InterfaceCreation.h</text>
</a>
</g>
</g>
<!-- Node16&#45;&gt;Node17 -->
<g id="edge16" class="edge">
<title>Node16&#45;&gt;Node17</title>
<path fill="none" stroke="midnightblue" d="M399.31,-560.32C382.15,-551.66 355.55,-538.24 335.75,-528.25"/>
<polygon fill="midnightblue" stroke="midnightblue" points="337.15,-525.04 326.65,-523.65 334,-531.28 337.15,-525.04"/>
</g>
<!-- Node17&#45;&gt;Node7 -->
<g id="edge17" class="edge">
<title>Node17&#45;&gt;Node7</title>
<path fill="none" stroke="midnightblue" d="M264.31,-504.5C213.35,-491.99 137.5,-463.26 137.5,-403 137.5,-403 137.5,-403 137.5,-177 137.5,-98.86 245.4,-76.11 314.97,-69.56"/>
<polygon fill="midnightblue" stroke="midnightblue" points="315.28,-73.05 324.94,-68.71 314.68,-66.07 315.28,-73.05"/>
</g>
<!-- Node18 -->
<g id="node18" class="node">
<title>Node18</title>
<g id="a_node18"><a xlink:href="_diffuse_material_8h.html" target="_top" xlink:title="Defines the DiffuseMaterial class.">
<polygon fill="white" stroke="black" points="392,-336.5 392,-355.5 481,-355.5 481,-336.5 392,-336.5"/>
<text text-anchor="middle" x="436.5" y="-343.5" font-family="Helvetica,sans-Serif" font-size="10.00">DiffuseMaterial.h</text>
</a>
</g>
</g>
<!-- Node17&#45;&gt;Node18 -->
<g id="edge18" class="edge">
<title>Node17&#45;&gt;Node18</title>
<path fill="none" stroke="midnightblue" d="M355.75,-504.45C392.63,-496.58 439.97,-483.75 451.5,-468 473.92,-437.38 457.58,-390.3 445.77,-364.83"/>
<polygon fill="midnightblue" stroke="midnightblue" points="448.81,-363.07 441.26,-355.64 442.52,-366.16 448.81,-363.07"/>
</g>
<!-- Node22 -->
<g id="node22" class="node">
<title>Node22</title>
<g id="a_node22"><a xlink:href="_refractive_material_8h.html" target="_top" xlink:title="Defines the RefractiveMaterial class.">
<polygon fill="white" stroke="black" points="214,-336.5 214,-355.5 315,-355.5 315,-336.5 214,-336.5"/>
<text text-anchor="middle" x="264.5" y="-343.5" font-family="Helvetica,sans-Serif" font-size="10.00">RefractiveMaterial.h</text>
</a>
</g>
</g>
<!-- Node17&#45;&gt;Node22 -->
<g id="edge24" class="edge">
<title>Node17&#45;&gt;Node22</title>
<path fill="none" stroke="midnightblue" d="M307.08,-504.08C300,-477.95 279.2,-401.21 269.54,-365.58"/>
<polygon fill="midnightblue" stroke="midnightblue" points="272.82,-364.3 266.82,-355.57 266.06,-366.14 272.82,-364.3"/>
</g>
<!-- Node23 -->
<g id="node23" class="node">
<title>Node23</title>
<g id="a_node23"><a xlink:href="_specular_material_8h.html" target="_top" xlink:title="Defines the SpecularMaterial class.">
<polygon fill="white" stroke="black" points="165.5,-392.5 165.5,-411.5 263.5,-411.5 263.5,-392.5 165.5,-392.5"/>
<text text-anchor="middle" x="214.5" y="-399.5" font-family="Helvetica,sans-Serif" font-size="10.00">SpecularMaterial.h</text>
</a>
</g>
</g>
<!-- Node17&#45;&gt;Node23 -->
<g id="edge26" class="edge">
<title>Node17&#45;&gt;Node23</title>
<path fill="none" stroke="midnightblue" d="M300.95,-504.2C292.34,-495.24 278.74,-480.88 267.5,-468 253.5,-451.96 238.2,-433.03 227.65,-419.75"/>
<polygon fill="midnightblue" stroke="midnightblue" points="230.13,-417.24 221.18,-411.56 224.64,-421.58 230.13,-417.24"/>
</g>
<!-- Node24 -->
<g id="node24" class="node">
<title>Node24</title>
<g id="a_node24"><a xlink:href="_triangle_8h.html" target="_top" xlink:title="Defines the Triangle class.">
<polygon fill="white" stroke="black" points="384,-448.5 384,-467.5 443,-467.5 443,-448.5 384,-448.5"/>
<text text-anchor="middle" x="413.5" y="-455.5" font-family="Helvetica,sans-Serif" font-size="10.00">Triangle.h</text>
</a>
</g>
</g>
<!-- Node17&#45;&gt;Node24 -->
<g id="edge28" class="edge">
<title>Node17&#45;&gt;Node24</title>
<path fill="none" stroke="midnightblue" d="M326.21,-504.32C342.81,-495.7 368.5,-482.36 387.72,-472.39"/>
<polygon fill="midnightblue" stroke="midnightblue" points="389.57,-475.37 396.83,-467.65 386.34,-469.16 389.57,-475.37"/>
</g>
<!-- Node27 -->
<g id="node27" class="node">
<title>Node27</title>
<g id="a_node27"><a xlink:href="_sphere_8h.html" target="_top" xlink:title="Defines the Sphere class.">
<polygon fill="white" stroke="black" points="309.5,-448.5 309.5,-467.5 365.5,-467.5 365.5,-448.5 309.5,-448.5"/>
<text text-anchor="middle" x="337.5" y="-455.5" font-family="Helvetica,sans-Serif" font-size="10.00">Sphere.h</text>
</a>
</g>
</g>
<!-- Node17&#45;&gt;Node27 -->
<g id="edge32" class="edge">
<title>Node17&#45;&gt;Node27</title>
<path fill="none" stroke="midnightblue" d="M314.12,-504.08C317.96,-496.69 323.52,-485.95 328.26,-476.81"/>
<polygon fill="midnightblue" stroke="midnightblue" points="331.47,-478.24 332.96,-467.75 325.25,-475.02 331.47,-478.24"/>
</g>
<!-- Node19 -->
<g id="node19" class="node">
<title>Node19</title>
<g id="a_node19"><a xlink:href="_material_8h.html" target="_top" xlink:title="Defines the Material class and the functions around it.">
<polygon fill="white" stroke="black" points="237,-280.5 237,-299.5 296,-299.5 296,-280.5 237,-280.5"/>
<text text-anchor="middle" x="266.5" y="-287.5" font-family="Helvetica,sans-Serif" font-size="10.00">Material.h</text>
</a>
</g>
</g>
<!-- Node18&#45;&gt;Node19 -->
<g id="edge19" class="edge">
<title>Node18&#45;&gt;Node19</title>
<path fill="none" stroke="midnightblue" d="M409.56,-336.44C380.84,-327.32 335.17,-312.81 303.18,-302.65"/>
<polygon fill="midnightblue" stroke="midnightblue" points="303.9,-299.21 293.31,-299.52 301.78,-305.88 303.9,-299.21"/>
</g>
<!-- Node20 -->
<g id="node20" class="node">
<title>Node20</title>
<g id="a_node20"><a xlink:href="_ray_8h.html" target="_top" xlink:title="Defines the Ray class.">
<polygon fill="white" stroke="black" points="253.5,-224.5 253.5,-243.5 295.5,-243.5 295.5,-224.5 253.5,-224.5"/>
<text text-anchor="middle" x="274.5" y="-231.5" font-family="Helvetica,sans-Serif" font-size="10.00">Ray.h</text>
</a>
</g>
</g>
<!-- Node19&#45;&gt;Node20 -->
<g id="edge20" class="edge">
<title>Node19&#45;&gt;Node20</title>
<path fill="none" stroke="midnightblue" d="M267.82,-280.08C268.88,-272.93 270.41,-262.64 271.73,-253.69"/>
<polygon fill="midnightblue" stroke="midnightblue" points="275.2,-254.16 273.2,-243.75 268.28,-253.13 275.2,-254.16"/>
</g>
<!-- Node20&#45;&gt;Node6 -->
<g id="edge21" class="edge">
<title>Node20&#45;&gt;Node6</title>
<path fill="none" stroke="midnightblue" d="M293.34,-224.48C308.56,-216.8 329.67,-204.21 343.5,-188 355.02,-174.5 362.74,-155.69 367.3,-141.78"/>
<polygon fill="midnightblue" stroke="midnightblue" points="370.75,-142.45 370.29,-131.86 364.05,-140.43 370.75,-142.45"/>
</g>
<!-- Node21 -->
<g id="node21" class="node">
<title>Node21</title>
<g id="a_node21"><a xlink:href="_double_unit_vec3_d_8h.html" target="_top" xlink:title="Defines the DoubleUnitVec3D class and the functions around it.">
<polygon fill="white" stroke="black" points="234,-168.5 234,-187.5 335,-187.5 335,-168.5 234,-168.5"/>
<text text-anchor="middle" x="284.5" y="-175.5" font-family="Helvetica,sans-Serif" font-size="10.00">DoubleUnitVec3D.h</text>
</a>
</g>
</g>
<!-- Node20&#45;&gt;Node21 -->
<g id="edge22" class="edge">
<title>Node20&#45;&gt;Node21</title>
<path fill="none" stroke="midnightblue" d="M276.15,-224.08C277.48,-216.93 279.38,-206.64 281.04,-197.69"/>
<polygon fill="midnightblue" stroke="midnightblue" points="284.5,-198.22 282.88,-187.75 277.62,-196.95 284.5,-198.22"/>
</g>
<!-- Node21&#45;&gt;Node6 -->
<g id="edge23" class="edge">
<title>Node21&#45;&gt;Node6</title>
<path fill="none" stroke="midnightblue" d="M298.64,-168.32C312.37,-159.9 333.44,-146.97 349.56,-137.07"/>
<polygon fill="midnightblue" stroke="midnightblue" points="351.7,-139.87 358.4,-131.65 348.04,-133.9 351.7,-139.87"/>
</g>
<!-- Node22&#45;&gt;Node19 -->
<g id="edge25" class="edge">
<title>Node22&#45;&gt;Node19</title>
<path fill="none" stroke="midnightblue" d="M264.83,-336.08C265.09,-329.01 265.47,-318.86 265.8,-309.99"/>
<polygon fill="midnightblue" stroke="midnightblue" points="269.3,-309.87 266.18,-299.75 262.31,-309.61 269.3,-309.87"/>
</g>
<!-- Node23&#45;&gt;Node19 -->
<g id="edge27" class="edge">
<title>Node23&#45;&gt;Node19</title>
<path fill="none" stroke="midnightblue" d="M210.11,-392.49C204.1,-379.56 195.06,-354.51 204.5,-336 211.5,-322.27 224.87,-311.75 237.4,-304.35"/>
<polygon fill="midnightblue" stroke="midnightblue" points="239.17,-307.37 246.28,-299.51 235.82,-301.22 239.17,-307.37"/>
</g>
<!-- Node25 -->
<g id="node25" class="node">
<title>Node25</title>
<g id="a_node25"><a xlink:href="_object3_d_8h.html" target="_top" xlink:title="Defines the Object3D class and the functions around it.">
<polygon fill="white" stroke="black" points="350,-392.5 350,-411.5 415,-411.5 415,-392.5 350,-392.5"/>
<text text-anchor="middle" x="382.5" y="-399.5" font-family="Helvetica,sans-Serif" font-size="10.00">Object3D.h</text>
</a>
</g>
</g>
<!-- Node24&#45;&gt;Node25 -->
<g id="edge29" class="edge">
<title>Node24&#45;&gt;Node25</title>
<path fill="none" stroke="midnightblue" d="M408.38,-448.08C404.09,-440.61 397.84,-429.72 392.56,-420.52"/>
<polygon fill="midnightblue" stroke="midnightblue" points="395.54,-418.68 387.52,-411.75 389.47,-422.17 395.54,-418.68"/>
</g>
<!-- Node25&#45;&gt;Node18 -->
<g id="edge31" class="edge">
<title>Node25&#45;&gt;Node18</title>
<path fill="none" stroke="midnightblue" d="M391.42,-392.08C399.28,-384.22 410.93,-372.57 420.42,-363.08"/>
<polygon fill="midnightblue" stroke="midnightblue" points="423.15,-365.3 427.75,-355.75 418.2,-360.35 423.15,-365.3"/>
</g>
<!-- Node26 -->
<g id="node26" class="node">
<title>Node26</title>
<g id="a_node26"><a xlink:title=" ">
<polygon fill="white" stroke="#bfbfbf" points="333,-336.5 333,-355.5 374,-355.5 374,-336.5 333,-336.5"/>
<text text-anchor="middle" x="353.5" y="-343.5" font-family="Helvetica,sans-Serif" font-size="10.00">string</text>
</a>
</g>
</g>
<!-- Node25&#45;&gt;Node26 -->
<g id="edge30" class="edge">
<title>Node25&#45;&gt;Node26</title>
<path fill="none" stroke="midnightblue" d="M377.71,-392.08C373.74,-384.69 367.97,-373.95 363.07,-364.81"/>
<polygon fill="midnightblue" stroke="midnightblue" points="366.01,-362.91 358.2,-355.75 359.85,-366.22 366.01,-362.91"/>
</g>
<!-- Node27&#45;&gt;Node25 -->
<g id="edge33" class="edge">
<title>Node27&#45;&gt;Node25</title>
<path fill="none" stroke="midnightblue" d="M344.93,-448.08C351.35,-440.38 360.81,-429.03 368.62,-419.65"/>
<polygon fill="midnightblue" stroke="midnightblue" points="371.49,-421.67 375.21,-411.75 366.12,-417.19 371.49,-421.67"/>
</g>
<!-- Node28&#45;&gt;Node17 -->
<g id="edge36" class="edge">
<title>Node28&#45;&gt;Node17</title>
<path fill="none" stroke="midnightblue" d="M309.5,-560.08C309.5,-553.01 309.5,-542.86 309.5,-533.99"/>
<polygon fill="midnightblue" stroke="midnightblue" points="313,-533.75 309.5,-523.75 306,-533.75 313,-533.75"/>
</g>
<!-- Node29 -->
<g id="node29" class="node">
<title>Node29</title>
<g id="a_node29"><a xlink:title=" ">
<polygon fill="white" stroke="#bfbfbf" points="200.5,-504.5 200.5,-523.5 242.5,-523.5 242.5,-504.5 200.5,-504.5"/>
<text text-anchor="middle" x="221.5" y="-511.5" font-family="Helvetica,sans-Serif" font-size="10.00">vector</text>
</a>
</g>
</g>
<!-- Node28&#45;&gt;Node29 -->
<g id="edge35" class="edge">
<title>Node28&#45;&gt;Node29</title>
<path fill="none" stroke="midnightblue" d="M295.36,-560.32C281.63,-551.9 260.56,-538.97 244.44,-529.07"/>
<polygon fill="midnightblue" stroke="midnightblue" points="245.96,-525.9 235.6,-523.65 242.3,-531.87 245.96,-525.9"/>
</g>
<!-- Node30&#45;&gt;Node20 -->
<g id="edge38" class="edge">
<title>Node30&#45;&gt;Node20</title>
<path fill="none" stroke="midnightblue" d="M89.36,-280.44C131.83,-270.02 202.91,-252.57 243.53,-242.6"/>
<polygon fill="midnightblue" stroke="midnightblue" points="244.53,-245.96 253.41,-240.18 242.86,-239.16 244.53,-245.96"/>
</g>
<!-- Node31&#45;&gt;Node6 -->
<g id="edge43" class="edge">
<title>Node31&#45;&gt;Node6</title>
<path fill="none" stroke="midnightblue" d="M481.27,-560.64C453.57,-551.8 414.25,-537.32 405.5,-524 377.3,-481.07 460.18,-477.97 470.5,-468 494.73,-444.59 509.5,-436.69 509.5,-403 509.5,-403 509.5,-403 509.5,-233 509.5,-182 451.05,-150.69 410.51,-135.11"/>
<polygon fill="midnightblue" stroke="midnightblue" points="411.48,-131.74 400.89,-131.58 409.07,-138.31 411.48,-131.74"/>
</g>
<!-- Node32 -->
<g id="node32" class="node">
<title>Node32</title>
<g id="a_node32"><a xlink:title=" ">
<polygon fill="white" stroke="#bfbfbf" points="414.5,-504.5 414.5,-523.5 470.5,-523.5 470.5,-504.5 414.5,-504.5"/>
<text text-anchor="middle" x="442.5" y="-511.5" font-family="Helvetica,sans-Serif" font-size="10.00">algorithm</text>
</a>
</g>
</g>
<!-- Node31&#45;&gt;Node32 -->
<g id="edge40" class="edge">
<title>Node31&#45;&gt;Node32</title>
<path fill="none" stroke="midnightblue" d="M498.74,-560.32C488.73,-552.26 473.61,-540.08 461.57,-530.37"/>
<polygon fill="midnightblue" stroke="midnightblue" points="463.44,-527.38 453.46,-523.83 459.05,-532.83 463.44,-527.38"/>
</g>
<!-- Node33 -->
<g id="node33" class="node">
<title>Node33</title>
<g id="a_node33"><a xlink:title=" ">
<polygon fill="white" stroke="#bfbfbf" points="488.5,-504.5 488.5,-523.5 538.5,-523.5 538.5,-504.5 488.5,-504.5"/>
<text text-anchor="middle" x="513.5" y="-511.5" font-family="Helvetica,sans-Serif" font-size="10.00">iomanip</text>
</a>
</g>
</g>
<!-- Node31&#45;&gt;Node33 -->
<g id="edge41" class="edge">
<title>Node31&#45;&gt;Node33</title>
<path fill="none" stroke="midnightblue" d="M510.16,-560.08C510.68,-553.01 511.44,-542.86 512.09,-533.99"/>
<polygon fill="midnightblue" stroke="midnightblue" points="515.6,-533.98 512.85,-523.75 508.62,-533.47 515.6,-533.98"/>
</g>
<!-- Node34 -->
<g id="node34" class="node">
<title>Node34</title>
<g id="a_node34"><a xlink:title=" ">
<polygon fill="white" stroke="#bfbfbf" points="557,-504.5 557,-523.5 630,-523.5 630,-504.5 557,-504.5"/>
<text text-anchor="middle" x="593.5" y="-511.5" font-family="Helvetica,sans-Serif" font-size="10.00">CImg/CImg.h</text>
</a>
</g>
</g>
<!-- Node31&#45;&gt;Node34 -->
<g id="edge42" class="edge">
<title>Node31&#45;&gt;Node34</title>
<path fill="none" stroke="midnightblue" d="M523,-560.32C536.1,-551.9 556.21,-538.97 571.61,-529.07"/>
<polygon fill="midnightblue" stroke="midnightblue" points="573.52,-532.01 580.04,-523.65 569.73,-526.12 573.52,-532.01"/>
</g>
</g>
</svg>
        <g id="navigator" transform="translate(0 0)" fill="#404254">
                <rect fill="#f2f5e9" fill-opacity="0.5" stroke="#606060" stroke-width=".5" x="0" y="0" width="60" height="60"/>
                <use id="zoomplus" xlink:href="#zoomPlus" x="17" y="9" onmousedown="handleZoom(evt,'in')"/>
                <use id="zoomminus" xlink:href="#zoomMin" x="42" y="9" onmousedown="handleZoom(evt,'out')"/>
                <use id="reset" xlink:href="#resetDef" x="30" y="36" onmousedown="handleReset()"/>
                <g id="arrowUp" xlink:href="#dirArrow" transform="translate(30 24)" onmousedown="handlePan(0,-1)">
                  <use xlink:href="#rim" fill="#404040">
                        <set attributeName="fill" to="#808080" begin="arrowUp.mouseover" end="arrowUp.mouseout"/>
                  </use>
                  <path fill="none" stroke="white" stroke-width="1.5" d="M0,-3.0v7 M-2.5,-0.5L0,-3.0L2.5,-0.5"/>
                </g>
                <g id="arrowRight" xlink:href="#dirArrow" transform="rotate(90) translate(36 -43)" onmousedown="handlePan(1,0)">
                  <use xlink:href="#rim" fill="#404040">
                        <set attributeName="fill" to="#808080" begin="arrowRight.mouseover" end="arrowRight.mouseout"/>
                  </use>
                  <path fill="none" stroke="white" stroke-width="1.5" d="M0,-3.0v7 M-2.5,-0.5L0,-3.0L2.5,-0.5"/>
                </g>
                <g id="arrowDown" xlink:href="#dirArrow" transform="rotate(180) translate(-30 -48)" onmousedown="handlePan(0,1)">
                  <use xlink:href="#rim" fill="#404040">
                        <set attributeName="fill" to="#808080" begin="arrowDown.mouseover" end="arrowDown.mouseout"/>
                  </use>
                  <path fill="none" stroke="white" stroke-width="1.5" d="M0,-3.0v7 M-2.5,-0.5L0,-3.0L2.5,-0.5"/>
                </g>
                <g id="arrowLeft" xlink:href="#dirArrow" transform="rotate(270) translate(-36 17)" onmousedown="handlePan(-1,0)">
                  <use xlink:href="#rim" fill="#404040">
                        <set attributeName="fill" to="#808080" begin="arrowLeft.mouseover" end="arrowLeft.mouseout"/>
                  </use>
                  <path fill="none" stroke="white" stroke-width="1.5" d="M0,-3.0v7 M-2.5,-0.5L0,-3.0L2.5,-0.5"/>
                </g>
        </g>
        <svg viewBox="0 0 15 15" width="100%" height="30px" preserveAspectRatio="xMaxYMin meet">
         <g id="arrow_out" transform="scale(0.3 0.3)">
          <a xlink:href="main_8cpp__incl_org.svg" target="_base">
           <rect id="button" ry="5" rx="5" y="6" x="6" height="38" width="38"
                fill="#f2f5e9" fill-opacity="0.5" stroke="#606060" stroke-width="1.0"/>
           <path id="arrow"
             d="M 11.500037,31.436501 C 11.940474,20.09759 22.043105,11.32322 32.158766,21.979434 L 37.068811,17.246167 C 37.068811,17.246167 37.088388,32 37.088388,32 L 22.160133,31.978069 C 22.160133,31.978069 26.997745,27.140456 26.997745,27.140456 C 18.528582,18.264221 13.291696,25.230495 11.500037,31.436501 z"
             style="fill:#404040;"/>
          </a>
         </g>
        </svg>
</svg>
