<?xml version="1.0" encoding="UTF-8" standalone="no"?>
<!DOCTYPE svg PUBLIC "-//W3C//DTD SVG 1.1//EN"
 "http://www.w3.org/Graphics/SVG/1.1/DTD/svg11.dtd">
<!-- Generated by graphviz version 2.44.1 (20200629.0800)
 -->
<!-- Title: KDTreeNode::Intersection Pages: 1 -->
<svg width="155pt" height="95pt"
 viewBox="0.00 0.00 154.50 95.00" xmlns="http://www.w3.org/2000/svg" xmlns:xlink="http://www.w3.org/1999/xlink">
<g id="graph0" class="graph" transform="scale(1 1) rotate(0) translate(4 91)">
<title>KDTreeNode::Intersection</title>
<polygon fill="white" stroke="transparent" points="-4,4 -4,-91 150.5,-91 150.5,4 -4,4"/>
<!-- Node1 -->
<g id="node1" class="node">
<title>Node1</title>
<g id="a_node1"><a xlink:title="A struct binding a pointer to an Object3D, a distance, and a pointer to a KDTreeNode.">
<polygon fill="#bfbfbf" stroke="black" points="5.5,-0.5 5.5,-19.5 133.5,-19.5 133.5,-0.5 5.5,-0.5"/>
<text text-anchor="middle" x="69.5" y="-7.5" font-family="Helvetica,sans-Serif" font-size="10.00">KDTreeNode::Intersection</text>
</a>
</g>
</g>
<!-- Node2 -->
<g id="node2" class="node">
<title>Node2</title>
<g id="a_node2"><a xlink:href="class_object3_d.html" target="_top" xlink:title="Abstract class for a three&#45;dimentional object.">
<polygon fill="white" stroke="black" points="0,-67.5 0,-86.5 57,-86.5 57,-67.5 0,-67.5"/>
<text text-anchor="middle" x="28.5" y="-74.5" font-family="Helvetica,sans-Serif" font-size="10.00">Object3D</text>
</a>
</g>
</g>
<!-- Node2&#45;&gt;Node1 -->
<g id="edge1" class="edge">
<title>Node2&#45;&gt;Node1</title>
<path fill="none" stroke="#9a32cd" stroke-dasharray="5,2" d="M39.52,-58.53C47.45,-45.95 57.83,-29.51 64.06,-19.63"/>
<polygon fill="#9a32cd" stroke="#9a32cd" points="36.4,-56.91 34.03,-67.23 42.32,-60.64 36.4,-56.91"/>
<text text-anchor="middle" x="66.5" y="-41" font-family="Helvetica,sans-Serif" font-size="10.00"> object</text>
</g>
<!-- Node3 -->
<g id="node3" class="node">
<title>Node3</title>
<g id="a_node3"><a xlink:href="class_k_d_tree_node.html" target="_top" xlink:title="A node of a k&#45;d tree.">
<polygon fill="white" stroke="black" points="75,-67.5 75,-86.5 146,-86.5 146,-67.5 75,-67.5"/>
<text text-anchor="middle" x="110.5" y="-74.5" font-family="Helvetica,sans-Serif" font-size="10.00">KDTreeNode</text>
</a>
</g>
</g>
<!-- Node3&#45;&gt;Node1 -->
<g id="edge2" class="edge">
<title>Node3&#45;&gt;Node1</title>
<path fill="none" stroke="#9a32cd" stroke-dasharray="5,2" d="M99.48,-58.53C91.55,-45.95 81.17,-29.51 74.94,-19.63"/>
<polygon fill="#9a32cd" stroke="#9a32cd" points="96.68,-60.64 104.97,-67.23 102.6,-56.91 96.68,-60.64"/>
<text text-anchor="middle" x="119" y="-41" font-family="Helvetica,sans-Serif" font-size="10.00"> kdTreeNode</text>
</g>
</g>
</svg>
